<?xml version="1.0" encoding="UTF-8" standalone="no"?>
<svg
   xmlns:ns1="http://www.iki.fi/pav/software/textext/"
   xmlns:dc="http://purl.org/dc/elements/1.1/"
   xmlns:cc="http://creativecommons.org/ns#"
   xmlns:rdf="http://www.w3.org/1999/02/22-rdf-syntax-ns#"
   xmlns:svg="http://www.w3.org/2000/svg"
   xmlns="http://www.w3.org/2000/svg"
   xmlns:sodipodi="http://sodipodi.sourceforge.net/DTD/sodipodi-0.dtd"
   xmlns:inkscape="http://www.inkscape.org/namespaces/inkscape"
   sodipodi:docname="figura13_1.svg"
   inkscape:version="1.0 (4035a4fb49, 2020-05-01)"
   id="svg8"
   version="1.1"
   viewBox="0 0 210 175"
   height="175mm"
   width="210mm">
  <defs
     id="defs2">
    <marker
       inkscape:isstock="true"
       style="overflow:visible"
       id="Arrow1Mend"
       refX="0"
       refY="0"
       orient="auto"
       inkscape:stockid="Arrow1Mend">
      <path
         transform="matrix(-0.4,0,0,-0.4,-4,0)"
         style="fill:#000000;fill-opacity:1;fill-rule:evenodd;stroke:#000000;stroke-width:1pt;stroke-opacity:1"
         d="M 0,0 5,-5 -12.5,0 5,5 Z"
         id="path2913" />
    </marker>
    <marker
       inkscape:stockid="Arrow1Sstart"
       orient="auto"
       refY="0"
       refX="0"
       id="Arrow1Sstart"
       style="overflow:visible"
       inkscape:isstock="true">
      <path
         id="path851"
         d="M 0,0 5,-5 -12.5,0 5,5 Z"
         style="fill:#000000;fill-opacity:1;fill-rule:evenodd;stroke:#000000;stroke-width:1pt;stroke-opacity:1"
         transform="matrix(0.2,0,0,0.2,1.2,0)" />
    </marker>
    <marker
       inkscape:stockid="Arrow1Mstart"
       orient="auto"
       refY="0"
       refX="0"
       id="marker1171"
       style="overflow:visible"
       inkscape:isstock="true">
      <path
         id="path1169"
         d="M 0,0 5,-5 -12.5,0 5,5 Z"
         style="fill:#000000;fill-opacity:1;fill-rule:evenodd;stroke:#000000;stroke-width:1pt;stroke-opacity:1"
         transform="matrix(0.4,0,0,0.4,4,0)" />
    </marker>
    <marker
       inkscape:isstock="true"
       style="overflow:visible"
       id="marker1117"
       refX="0"
       refY="0"
       orient="auto"
       inkscape:stockid="Arrow1Mstart"
       inkscape:collect="always">
      <path
         transform="matrix(0.4,0,0,0.4,4,0)"
         style="fill:#000000;fill-opacity:1;fill-rule:evenodd;stroke:#000000;stroke-width:1pt;stroke-opacity:1"
         d="M 0,0 5,-5 -12.5,0 5,5 Z"
         id="path1115" />
    </marker>
    <marker
       inkscape:stockid="Arrow1Mstart"
       orient="auto"
       refY="0"
       refX="0"
       id="Arrow1Mstart"
       style="overflow:visible"
       inkscape:isstock="true"
       inkscape:collect="always">
      <path
         id="path845"
         d="M 0,0 5,-5 -12.5,0 5,5 Z"
         style="fill:#000000;fill-opacity:1;fill-rule:evenodd;stroke:#000000;stroke-width:1pt;stroke-opacity:1"
         transform="matrix(0.4,0,0,0.4,4,0)" />
    </marker>
  </defs>
  <sodipodi:namedview
     id="base"
     pagecolor="#ffffff"
     bordercolor="#666666"
     borderopacity="1.0"
     inkscape:pageopacity="0.0"
     inkscape:pageshadow="2"
     inkscape:zoom="0.98994949"
     inkscape:cx="354.82123"
     inkscape:cy="363.28181"
     inkscape:document-units="mm"
     inkscape:current-layer="g4164"
     inkscape:document-rotation="0"
     showgrid="true"
     inkscape:window-width="1366"
     inkscape:window-height="715"
     inkscape:window-x="-8"
     inkscape:window-y="-8"
     inkscape:window-maximized="1">
    <inkscape:grid
       type="xygrid"
       id="grid10" />
  </sodipodi:namedview>
  <metadata
     id="metadata5">
    <rdf:RDF>
      <cc:Work
         rdf:about="">
        <dc:format>image/svg+xml</dc:format>
        <dc:type
           rdf:resource="http://purl.org/dc/dcmitype/StillImage" />
        <dc:title></dc:title>
      </cc:Work>
    </rdf:RDF>
  </metadata>
  <g
     inkscape:label="Livello 1"
     inkscape:groupmode="layer"
     id="layer1">
    <path
       style="fill:none;stroke:#000000;stroke-width:0.265;stroke-linecap:butt;stroke-linejoin:miter;stroke-miterlimit:4;stroke-dasharray:none;stroke-opacity:1;marker-start:url(#Arrow1Mstart)"
       d="M 5,6 V 26"
       id="path12" />
    <path
       id="path14"
       d="M 25,26 H 5"
       style="fill:none;stroke:#000000;stroke-width:0.264583px;stroke-linecap:butt;stroke-linejoin:miter;stroke-opacity:1;marker-start:url(#marker1117)" />
    <path
       style="fill:none;stroke:#000000;stroke-width:1;stroke-linecap:butt;stroke-linejoin:miter;stroke-miterlimit:4;stroke-dasharray:none;stroke-opacity:1"
       d="M 20,44.999999 105,45"
       id="path1143"
       sodipodi:nodetypes="cc" />
    <path
       style="fill:none;stroke:#000000;stroke-width:0.264583px;stroke-linecap:butt;stroke-linejoin:miter;stroke-opacity:1"
       d="M 100,39.999999 V 50"
       id="path1145" />
    <path
       style="fill:none;stroke:#000000;stroke-width:0.264583px;stroke-linecap:butt;stroke-linejoin:miter;stroke-opacity:1"
       d="M 105,39.999999 V 50"
       id="path1147" />
    <path
       style="fill:none;stroke:#000000;stroke-width:0.264583px;stroke-linecap:butt;stroke-linejoin:miter;stroke-opacity:1"
       d="M 110,39.999999 V 50"
       id="path1149" />
    <path
       sodipodi:nodetypes="cc"
       id="path1151"
       d="M 105,44.999999 190,45"
       style="fill:none;stroke:#000000;stroke-width:1;stroke-linecap:butt;stroke-linejoin:miter;stroke-miterlimit:4;stroke-dasharray:none;stroke-opacity:1" />
    <path
       style="fill:none;fill-opacity:0.691489;fill-rule:evenodd;stroke:#000000;stroke-width:1;stroke-linecap:round;stroke-linejoin:bevel;stroke-miterlimit:4;stroke-dasharray:none"
       id="path1155"
       d="m 19.230919,43.169104 c 0.142095,0.0227 0.279398,0.05479 0.412737,0.108712 0.100156,0.04076 0.187957,0.09627 0.261567,0.175427 0.06469,0.06645 0.11847,0.143875 0.151491,0.230706 0.04368,0.09165 0.05902,0.190267 0.06875,0.290218 0.0084,0.108514 0.0081,0.21744 0.0084,0.326203 -4e-6,0.117535 -4.24e-4,0.235071 -6.62e-4,0.352607 0.0067,0.09875 -0.0057,0.194625 -0.02196,0.2916 -0.04087,0.122904 -0.106291,0.234355 -0.151617,0.355539 -0.04357,0.119005 -0.05518,0.244385 -0.06136,0.369864 -0.0018,0.11062 -0.01359,0.221993 0.01732,0.32939 0.04258,0.111964 0.135748,0.178787 0.232975,0.240827 0.114302,0.05582 0.220946,0.125095 0.327125,0.194643 0.05836,0.03285 0.03061,0.01603 0.08346,0.0501 0,0 0.07848,-0.05041 0.07848,-0.05041 v 0 c -0.05314,-0.03443 -0.02531,-0.0177 -0.08366,-0.04991 -0.106437,-0.06919 -0.212696,-0.139382 -0.327314,-0.194664 -0.09558,-0.06028 -0.187651,-0.125355 -0.22925,-0.235165 -0.03004,-0.106516 -0.01763,-0.217032 -0.01612,-0.326575 0.0063,-0.124634 0.01858,-0.249097 0.06231,-0.367125 0.04611,-0.121372 0.112827,-0.233159 0.151416,-0.357442 0.01632,-0.09737 0.02748,-0.193847 0.02116,-0.292917 1.17e-4,-0.117504 3.17e-4,-0.235011 4.23e-4,-0.352518 -3.8e-5,-0.109064 2.31e-4,-0.218297 -0.0086,-0.327091 -0.01007,-0.10074 -0.02583,-0.200107 -0.06968,-0.292547 -0.03377,-0.08775 -0.0879,-0.166455 -0.153432,-0.233696 -0.07428,-0.08047 -0.162563,-0.137279 -0.26403,-0.178697 -0.133813,-0.05418 -0.271097,-0.08691 -0.413524,-0.110913 0,0 -0.07636,0.05384 -0.07636,0.05384 z" />
    <path
       style="fill:none;fill-opacity:0.691489;fill-rule:evenodd;stroke:#000000;stroke-width:1;stroke-linecap:round;stroke-linejoin:bevel;stroke-miterlimit:4;stroke-dasharray:none"
       id="path1157"
       d="m 190.40374,42.872834 c -0.17324,0.02432 -0.32401,0.107328 -0.47119,0.196406 -0.13562,0.09293 -0.25096,0.205292 -0.33909,0.343656 -0.0769,0.142608 -0.11168,0.299072 -0.10844,0.459994 0.015,0.116298 0.0661,0.223115 0.1388,0.313981 0.0774,0.09311 0.17333,0.170294 0.2674,0.246222 0.0801,0.05956 0.11671,0.138789 0.13425,0.23409 0.0117,0.09178 0.01,0.184578 0.009,0.276902 -0.003,0.09445 0.005,0.189505 -0.007,0.283353 -0.0176,0.09703 -0.0463,0.193273 -0.0768,0.28725 -0.0454,0.09779 -0.11486,0.181012 -0.17792,0.267671 -0.0725,0.08279 -0.13145,0.177416 -0.21161,0.253302 -0.0408,0.04181 -0.0739,0.08782 -0.10447,0.137292 0,0 0.085,-0.03745 0.085,-0.03745 v 0 c 0.0312,-0.04856 0.0645,-0.09433 0.10553,-0.135342 0.0784,-0.07786 0.13925,-0.170775 0.21077,-0.254683 0.0634,-0.08719 0.13389,-0.170841 0.17703,-0.27052 0.0299,-0.09471 0.0596,-0.190974 0.076,-0.288833 0.011,-0.09429 0.004,-0.189547 0.007,-0.284337 2.6e-4,-0.09287 0.002,-0.186245 -0.0102,-0.278505 -0.0185,-0.09714 -0.0563,-0.178713 -0.13789,-0.239607 -0.0938,-0.07511 -0.18912,-0.152183 -0.26625,-0.244562 -0.0718,-0.08893 -0.12189,-0.194218 -0.13609,-0.308497 -0.003,-0.159411 0.0326,-0.314367 0.11031,-0.454829 0.0891,-0.136983 0.20542,-0.248497 0.34106,-0.34022 -0.008,0.0032 -0.0311,0.01373 -0.0236,0.0097 0.10329,-0.05643 0.21789,-0.094 0.33279,-0.117462 0,0 0.0756,-0.05493 0.0756,-0.05493 z" />
    <text
       xml:space="preserve"
       style="font-size:8.46667px;line-height:1.25;font-family:'Arial Rounded MT Bold';-inkscape-font-specification:'Arial Rounded MT Bold, ';stroke-width:0.264583"
       x="95.656868"
       y="52.46772"
       id="text1163"><tspan
         sodipodi:role="line"
         id="tspan1161"
         x="95.656868"
         y="52.46772"
         style="stroke-width:0.264583">1</tspan></text>
    <text
       xml:space="preserve"
       style="font-size:8.46667px;line-height:1.25;font-family:'Arial Rounded MT Bold';-inkscape-font-specification:'Arial Rounded MT Bold, ';stroke-width:0.264583"
       x="109.99322"
       y="52.605877"
       id="text1167"><tspan
         sodipodi:role="line"
         id="tspan1165"
         x="109.99322"
         y="52.605877"
         style="stroke-width:0.264583">2</tspan></text>
    <g
       id="g1296"
       ns1:jacobian_sqrt="0.705556"
       ns1:inkscapeversion="1.0"
       ns1:alignment="middle center"
       ns1:scale="2.0"
       ns1:preamble="C:\\Users\\claum\\AppData\\Roaming\\inkscape\\extensions\\textext\\default_packages.tex"
       ns1:text="$H$"
       ns1:pdfconverter="inkscape"
       ns1:texconverter="pdflatex"
       ns1:version="1.0.1"
       transform="matrix(0.705556,0,0,0.705556,102.97639,34.586028)">
      <defs
         id="id-59c67a03-9251-4d3f-b324-bde6d1213821">
        <g
           id="id-660b6c3a-0736-4293-b297-e8e3d4138773">
          <symbol
             overflow="visible"
             id="id-7bd72701-3237-44af-bab5-0d9ac3a612e8">
            <path
               style="stroke:none"
               d=""
               id="id-37e2fd1f-16e7-42c4-8b79-f9b68f9886be" />
          </symbol>
          <symbol
             overflow="visible"
             id="id-8510d78c-501a-4e95-808d-d27f1be65744">
            <path
               style="stroke:none"
               d="M 7.609375,-6.046875 C 7.703125,-6.40625 7.71875,-6.5 8.4375,-6.5 c 0.265625,0 0.34375,0 0.34375,-0.203125 0,-0.109375 -0.109375,-0.109375 -0.140625,-0.109375 -0.28125,0 -1,0.03125 -1.28125,0.03125 -0.28125,0 -0.984375,-0.03125 -1.28125,-0.03125 -0.078125,0 -0.1875,0 -0.1875,0.203125 0,0.109375 0.09375,0.109375 0.28125,0.109375 0.015625,0 0.203125,0 0.375,0.015625 0.1875,0.03125 0.265625,0.03125 0.265625,0.171875 0,0.03125 0,0.046875 -0.03125,0.1875 L 6.1875,-3.703125 H 3.140625 l 0.59375,-2.34375 C 3.8125,-6.40625 3.84375,-6.5 4.5625,-6.5 c 0.265625,0 0.34375,0 0.34375,-0.203125 0,-0.109375 -0.109375,-0.109375 -0.140625,-0.109375 -0.28125,0 -1,0.03125 -1.28125,0.03125 -0.28125,0 -0.984375,-0.03125 -1.28125,-0.03125 -0.078125,0 -0.1875,0 -0.1875,0.203125 0,0.109375 0.09375,0.109375 0.28125,0.109375 0.015625,0 0.203125,0 0.375,0.015625 0.171875,0.03125 0.265625,0.03125 0.265625,0.171875 0,0.03125 0,0.0625 -0.03125,0.1875 L 1.5625,-0.78125 c -0.09375,0.390625 -0.109375,0.46875 -0.90625,0.46875 -0.171875,0 -0.265625,0 -0.265625,0.203125 C 0.390625,0 0.515625,0 0.53125,0 0.8125,0 1.515625,-0.03125 1.796875,-0.03125 2,-0.03125 2.21875,-0.015625 2.4375,-0.015625 2.65625,-0.015625 2.875,0 3.078125,0 3.15625,0 3.28125,0 3.28125,-0.203125 3.28125,-0.3125 3.1875,-0.3125 3,-0.3125 c -0.375,0 -0.640625,0 -0.640625,-0.171875 0,-0.0625 0.015625,-0.109375 0.015625,-0.171875 l 0.6875,-2.734375 h 3.03125 c -0.40625,1.65625 -0.640625,2.609375 -0.6875,2.75 C 5.3125,-0.3125 5.125,-0.3125 4.5,-0.3125 c -0.140625,0 -0.234375,0 -0.234375,0.203125 C 4.265625,0 4.390625,0 4.40625,0 4.6875,0 5.390625,-0.03125 5.671875,-0.03125 5.875,-0.03125 6.09375,-0.015625 6.3125,-0.015625 6.53125,-0.015625 6.75,0 6.953125,0 7.03125,0 7.15625,0 7.15625,-0.203125 7.15625,-0.3125 7.0625,-0.3125 6.875,-0.3125 c -0.359375,0 -0.640625,0 -0.640625,-0.171875 0,-0.0625 0.015625,-0.109375 0.03125,-0.171875 z m 0,0"
               id="id-73ee9b85-f030-4889-bb76-32e42c4198b0" />
          </symbol>
        </g>
      </defs>
      <g
         id="id-01496d17-cc2a-429e-8b51-355f167ccfcb"
         transform="translate(-149.103,-127.953)">
        <g
           style="fill:#000000;fill-opacity:1"
           id="id-da49fd3b-46e2-43d7-be0a-79bd9bffe9a4">
          <g
             id="g1292"
             transform="translate(148.712,134.765)">
            <path
               style="stroke:none"
               d="M 7.609375,-6.046875 C 7.703125,-6.40625 7.71875,-6.5 8.4375,-6.5 c 0.265625,0 0.34375,0 0.34375,-0.203125 0,-0.109375 -0.109375,-0.109375 -0.140625,-0.109375 -0.28125,0 -1,0.03125 -1.28125,0.03125 -0.28125,0 -0.984375,-0.03125 -1.28125,-0.03125 -0.078125,0 -0.1875,0 -0.1875,0.203125 0,0.109375 0.09375,0.109375 0.28125,0.109375 0.015625,0 0.203125,0 0.375,0.015625 0.1875,0.03125 0.265625,0.03125 0.265625,0.171875 0,0.03125 0,0.046875 -0.03125,0.1875 L 6.1875,-3.703125 H 3.140625 l 0.59375,-2.34375 C 3.8125,-6.40625 3.84375,-6.5 4.5625,-6.5 c 0.265625,0 0.34375,0 0.34375,-0.203125 0,-0.109375 -0.109375,-0.109375 -0.140625,-0.109375 -0.28125,0 -1,0.03125 -1.28125,0.03125 -0.28125,0 -0.984375,-0.03125 -1.28125,-0.03125 -0.078125,0 -0.1875,0 -0.1875,0.203125 0,0.109375 0.09375,0.109375 0.28125,0.109375 0.015625,0 0.203125,0 0.375,0.015625 0.171875,0.03125 0.265625,0.03125 0.265625,0.171875 0,0.03125 0,0.0625 -0.03125,0.1875 L 1.5625,-0.78125 c -0.09375,0.390625 -0.109375,0.46875 -0.90625,0.46875 -0.171875,0 -0.265625,0 -0.265625,0.203125 C 0.390625,0 0.515625,0 0.53125,0 0.8125,0 1.515625,-0.03125 1.796875,-0.03125 2,-0.03125 2.21875,-0.015625 2.4375,-0.015625 2.65625,-0.015625 2.875,0 3.078125,0 3.15625,0 3.28125,0 3.28125,-0.203125 3.28125,-0.3125 3.1875,-0.3125 3,-0.3125 c -0.375,0 -0.640625,0 -0.640625,-0.171875 0,-0.0625 0.015625,-0.109375 0.015625,-0.171875 l 0.6875,-2.734375 h 3.03125 c -0.40625,1.65625 -0.640625,2.609375 -0.6875,2.75 C 5.3125,-0.3125 5.125,-0.3125 4.5,-0.3125 c -0.140625,0 -0.234375,0 -0.234375,0.203125 C 4.265625,0 4.390625,0 4.40625,0 4.6875,0 5.390625,-0.03125 5.671875,-0.03125 5.875,-0.03125 6.09375,-0.015625 6.3125,-0.015625 6.53125,-0.015625 6.75,0 6.953125,0 7.03125,0 7.15625,0 7.15625,-0.203125 7.15625,-0.3125 7.0625,-0.3125 6.875,-0.3125 c -0.359375,0 -0.640625,0 -0.640625,-0.171875 0,-0.0625 0.015625,-0.109375 0.03125,-0.171875 z m 0,0"
               id="id-9a3281a9-2278-475a-8a76-a8e630bab88b" />
          </g>
        </g>
      </g>
    </g>
    <g
       id="g1435"
       ns1:jacobian_sqrt="0.705556"
       ns1:inkscapeversion="1.0"
       ns1:alignment="middle center"
       ns1:scale="2.0"
       ns1:preamble="C:\\Users\\claum\\AppData\\Roaming\\inkscape\\extensions\\textext\\default_packages.tex"
       ns1:text="$x$"
       ns1:pdfconverter="inkscape"
       ns1:texconverter="pdflatex"
       ns1:version="1.0.1"
       transform="matrix(0.705556,0,0,0.705556,25.861372,24.019013)">
      <defs
         id="id-c2e10b81-95c9-48b5-a13a-d2ee76bbe207">
        <g
           id="id-50d398da-485e-44e0-bd8a-aad11f73c874">
          <symbol
             overflow="visible"
             id="id-96fb7540-6e48-4ed6-9d12-1408b60d809f">
            <path
               style="stroke:none"
               d=""
               id="id-9e44d6a6-37a8-481f-a891-9b1885c60f7a" />
          </symbol>
          <symbol
             overflow="visible"
             id="id-03cca190-a75b-4c94-8104-b6d0b53b06d3">
            <path
               style="stroke:none"
               d="M 3.328125,-3.015625 C 3.390625,-3.265625 3.625,-4.1875 4.3125,-4.1875 c 0.046875,0 0.296875,0 0.5,0.125 C 4.53125,-4 4.34375,-3.765625 4.34375,-3.515625 c 0,0.15625 0.109375,0.34375 0.375,0.34375 0.21875,0 0.53125,-0.171875 0.53125,-0.578125 0,-0.515625 -0.578125,-0.65625 -0.921875,-0.65625 -0.578125,0 -0.921875,0.53125 -1.046875,0.75 -0.25,-0.65625 -0.78125,-0.75 -1.078125,-0.75 -1.03125,0 -1.609375,1.28125 -1.609375,1.53125 0,0.109375 0.109375,0.109375 0.125,0.109375 0.078125,0 0.109375,-0.03125 0.125,-0.109375 0.34375,-1.0625 1,-1.3125 1.34375,-1.3125 0.1875,0 0.53125,0.09375 0.53125,0.671875 0,0.3125 -0.171875,0.96875 -0.53125,2.375 -0.15625,0.609375 -0.515625,1.03125 -0.953125,1.03125 -0.0625,0 -0.28125,0 -0.5,-0.125 0.25,-0.0625 0.46875,-0.265625 0.46875,-0.546875 0,-0.265625 -0.21875,-0.34375 -0.359375,-0.34375 -0.3125,0 -0.546875,0.25 -0.546875,0.578125 0,0.453125 0.484375,0.65625 0.921875,0.65625 0.671875,0 1.03125,-0.703125 1.046875,-0.75 0.125,0.359375 0.484375,0.75 1.078125,0.75 1.03125,0 1.59375,-1.28125 1.59375,-1.53125 0,-0.109375 -0.078125,-0.109375 -0.109375,-0.109375 -0.09375,0 -0.109375,0.046875 -0.140625,0.109375 -0.328125,1.078125 -1,1.3125 -1.3125,1.3125 -0.390625,0 -0.546875,-0.3125 -0.546875,-0.65625 0,-0.21875 0.046875,-0.4375 0.15625,-0.875 z m 0,0"
               id="id-4cbd6e57-dceb-498d-9dd8-cbfd5789fa58" />
          </symbol>
        </g>
      </defs>
      <g
         id="id-e0b89d5b-cabd-4c6f-ab97-9e31c638615e"
         transform="translate(-149.009,-130.359)">
        <g
           style="fill:#000000;fill-opacity:1"
           id="id-86112b34-c434-4cdb-bdb5-59ec3609ae03">
          <g
             id="g1431"
             transform="translate(148.712,134.765)">
            <path
               style="stroke:none"
               d="M 3.328125,-3.015625 C 3.390625,-3.265625 3.625,-4.1875 4.3125,-4.1875 c 0.046875,0 0.296875,0 0.5,0.125 C 4.53125,-4 4.34375,-3.765625 4.34375,-3.515625 c 0,0.15625 0.109375,0.34375 0.375,0.34375 0.21875,0 0.53125,-0.171875 0.53125,-0.578125 0,-0.515625 -0.578125,-0.65625 -0.921875,-0.65625 -0.578125,0 -0.921875,0.53125 -1.046875,0.75 -0.25,-0.65625 -0.78125,-0.75 -1.078125,-0.75 -1.03125,0 -1.609375,1.28125 -1.609375,1.53125 0,0.109375 0.109375,0.109375 0.125,0.109375 0.078125,0 0.109375,-0.03125 0.125,-0.109375 0.34375,-1.0625 1,-1.3125 1.34375,-1.3125 0.1875,0 0.53125,0.09375 0.53125,0.671875 0,0.3125 -0.171875,0.96875 -0.53125,2.375 -0.15625,0.609375 -0.515625,1.03125 -0.953125,1.03125 -0.0625,0 -0.28125,0 -0.5,-0.125 0.25,-0.0625 0.46875,-0.265625 0.46875,-0.546875 0,-0.265625 -0.21875,-0.34375 -0.359375,-0.34375 -0.3125,0 -0.546875,0.25 -0.546875,0.578125 0,0.453125 0.484375,0.65625 0.921875,0.65625 0.671875,0 1.03125,-0.703125 1.046875,-0.75 0.125,0.359375 0.484375,0.75 1.078125,0.75 1.03125,0 1.59375,-1.28125 1.59375,-1.53125 0,-0.109375 -0.078125,-0.109375 -0.109375,-0.109375 -0.09375,0 -0.109375,0.046875 -0.140625,0.109375 -0.328125,1.078125 -1,1.3125 -1.3125,1.3125 -0.390625,0 -0.546875,-0.3125 -0.546875,-0.65625 0,-0.21875 0.046875,-0.4375 0.15625,-0.875 z m 0,0"
               id="id-99d14c3d-ecc6-45e5-ba18-4974fcf01d65" />
          </g>
        </g>
      </g>
    </g>
    <g
       id="g1521"
       ns1:jacobian_sqrt="0.705556"
       ns1:inkscapeversion="1.0"
       ns1:alignment="middle center"
       ns1:scale="2.0"
       ns1:preamble="C:\\Users\\claum\\AppData\\Roaming\\inkscape\\extensions\\textext\\default_packages.tex"
       ns1:text="$y$"
       ns1:pdfconverter="inkscape"
       ns1:texconverter="pdflatex"
       ns1:version="1.0.1"
       transform="matrix(0.705556,0,0,0.705556,3.8834202,0.13385514)">
      <defs
         id="id-b0e916ca-c46b-4dd1-80e0-fa89e07d2ea6">
        <g
           id="id-276ae4ad-bcfb-47c2-b415-5b2ead2186f9">
          <symbol
             overflow="visible"
             id="id-9d329d9f-264d-46e9-a4ea-070c8058ec39">
            <path
               style="stroke:none"
               d=""
               id="id-1632d1b4-5342-411f-8892-465285600d4b" />
          </symbol>
          <symbol
             overflow="visible"
             id="id-a3ff0c83-1fd4-4b45-9c35-f128d02c24b2">
            <path
               style="stroke:none"
               d="m 4.84375,-3.796875 c 0.046875,-0.140625 0.046875,-0.15625 0.046875,-0.234375 0,-0.171875 -0.140625,-0.265625 -0.296875,-0.265625 -0.09375,0 -0.25,0.0625 -0.34375,0.203125 -0.015625,0.0625 -0.109375,0.359375 -0.140625,0.546875 -0.078125,0.25 -0.140625,0.53125 -0.203125,0.796875 l -0.453125,1.796875 c -0.03125,0.140625 -0.46875,0.84375 -1.125,0.84375 -0.5,0 -0.609375,-0.4375 -0.609375,-0.8125 C 1.71875,-1.375 1.890625,-2 2.21875,-2.875 2.375,-3.28125 2.421875,-3.390625 2.421875,-3.59375 c 0,-0.4375 -0.3125,-0.8125 -0.8125,-0.8125 -0.953125,0 -1.3125,1.453125 -1.3125,1.53125 0,0.109375 0.09375,0.109375 0.109375,0.109375 0.109375,0 0.109375,-0.03125 0.15625,-0.1875 0.28125,-0.9375 0.671875,-1.234375 1.015625,-1.234375 0.078125,0 0.25,0 0.25,0.3125 0,0.25 -0.109375,0.515625 -0.171875,0.703125 -0.40625,1.0625 -0.578125,1.625 -0.578125,2.09375 0,0.890625 0.625,1.1875 1.21875,1.1875 0.390625,0 0.71875,-0.171875 1,-0.453125 -0.125,0.515625 -0.25,1.015625 -0.640625,1.546875 -0.265625,0.328125 -0.640625,0.625 -1.09375,0.625 -0.140625,0 -0.59375,-0.03125 -0.765625,-0.421875 0.15625,0 0.296875,0 0.421875,-0.125 C 1.328125,1.203125 1.421875,1.0625 1.421875,0.875 1.421875,0.5625 1.15625,0.53125 1.0625,0.53125 0.828125,0.53125 0.5,0.6875 0.5,1.171875 c 0,0.5 0.4375,0.875 1.0625,0.875 1.015625,0 2.046875,-0.90625 2.328125,-2.03125 z m 0,0"
               id="id-70b43596-e5d5-4153-a1c9-8ceec978e1b0" />
          </symbol>
        </g>
      </defs>
      <g
         id="id-13236548-8970-43ab-a78b-810eaa0fd48b"
         transform="translate(-149.009,-130.359)">
        <g
           style="fill:#000000;fill-opacity:1"
           id="id-a5a31751-5682-40ac-8b15-145642a65a44">
          <g
             id="g1517"
             transform="translate(148.712,134.765)">
            <path
               style="stroke:none"
               d="m 4.84375,-3.796875 c 0.046875,-0.140625 0.046875,-0.15625 0.046875,-0.234375 0,-0.171875 -0.140625,-0.265625 -0.296875,-0.265625 -0.09375,0 -0.25,0.0625 -0.34375,0.203125 -0.015625,0.0625 -0.109375,0.359375 -0.140625,0.546875 -0.078125,0.25 -0.140625,0.53125 -0.203125,0.796875 l -0.453125,1.796875 c -0.03125,0.140625 -0.46875,0.84375 -1.125,0.84375 -0.5,0 -0.609375,-0.4375 -0.609375,-0.8125 C 1.71875,-1.375 1.890625,-2 2.21875,-2.875 2.375,-3.28125 2.421875,-3.390625 2.421875,-3.59375 c 0,-0.4375 -0.3125,-0.8125 -0.8125,-0.8125 -0.953125,0 -1.3125,1.453125 -1.3125,1.53125 0,0.109375 0.09375,0.109375 0.109375,0.109375 0.109375,0 0.109375,-0.03125 0.15625,-0.1875 0.28125,-0.9375 0.671875,-1.234375 1.015625,-1.234375 0.078125,0 0.25,0 0.25,0.3125 0,0.25 -0.109375,0.515625 -0.171875,0.703125 -0.40625,1.0625 -0.578125,1.625 -0.578125,2.09375 0,0.890625 0.625,1.1875 1.21875,1.1875 0.390625,0 0.71875,-0.171875 1,-0.453125 -0.125,0.515625 -0.25,1.015625 -0.640625,1.546875 -0.265625,0.328125 -0.640625,0.625 -1.09375,0.625 -0.140625,0 -0.59375,-0.03125 -0.765625,-0.421875 0.15625,0 0.296875,0 0.421875,-0.125 C 1.328125,1.203125 1.421875,1.0625 1.421875,0.875 1.421875,0.5625 1.15625,0.53125 1.0625,0.53125 0.828125,0.53125 0.5,0.6875 0.5,1.171875 c 0,0.5 0.4375,0.875 1.0625,0.875 1.015625,0 2.046875,-0.90625 2.328125,-2.03125 z m 0,0"
               id="id-6aefcddf-8703-4fcb-ab4b-811580fa3f0b" />
          </g>
        </g>
      </g>
    </g>
    <path
       sodipodi:nodetypes="cc"
       style="fill:none;stroke:#000000;stroke-width:0.264583;stroke-linecap:butt;stroke-linejoin:miter;stroke-miterlimit:4;stroke-dasharray:1.5875, 1.5875;stroke-dashoffset:0;stroke-opacity:1"
       d="M 105,50 V 175"
       id="path1555" />
    <path
       sodipodi:nodetypes="cc"
       id="path1557"
       d="m 20,135 h 85"
       style="fill:none;stroke:#000000;stroke-width:0.5;stroke-linecap:butt;stroke-linejoin:miter;stroke-miterlimit:4;stroke-dasharray:1, 0.5;stroke-dashoffset:0;stroke-opacity:1" />
    <path
       style="fill:none;stroke:#000000;stroke-width:0.5;stroke-linecap:butt;stroke-linejoin:miter;stroke-miterlimit:4;stroke-dasharray:1, 0.5;stroke-dashoffset:0;stroke-opacity:1"
       d="m 105,135 h 85"
       id="path1559"
       sodipodi:nodetypes="cc" />
    <path
       sodipodi:nodetypes="cc"
       style="fill:none;stroke:#000000;stroke-width:1;stroke-linecap:butt;stroke-linejoin:miter;stroke-miterlimit:4;stroke-dasharray:none;stroke-opacity:1"
       d="m 20,115 h 85"
       id="path1561" />
    <path
       sodipodi:nodetypes="cc"
       id="path1563"
       d="m 105,162 h 85"
       style="fill:none;stroke:#000000;stroke-width:1;stroke-linecap:butt;stroke-linejoin:miter;stroke-miterlimit:4;stroke-dasharray:none;stroke-opacity:1" />
    <path
       sodipodi:nodetypes="cc"
       style="fill:none;stroke:#000000;stroke-width:1;stroke-linecap:butt;stroke-linejoin:miter;stroke-miterlimit:4;stroke-dasharray:none;stroke-opacity:1"
       d="M 105,162 V 115"
       id="path1565" />
    <path
       style="fill:none;fill-opacity:0.691489;fill-rule:evenodd;stroke:#000000;stroke-width:1;stroke-linecap:round;stroke-linejoin:bevel;stroke-miterlimit:4;stroke-dasharray:none;stroke-dashoffset:0"
       id="path1567"
       d="m 19.511151,136.44846 c -0.362619,-0.29952 -0.583032,-0.69586 -0.720828,-1.13801 -0.07646,-0.4639 0.09979,-0.67168 0.465544,-0.90735 -0.05068,0.0332 -0.204674,0.12965 -0.152041,0.0996 0.434062,-0.24758 0.852921,-0.5066 1.247164,-0.81303 0.341487,-0.27604 0.493566,-0.64614 0.56977,-1.06549 0.05737,-0.42958 0.0556,-0.85816 -0.06939,-1.27466 -0.161793,-0.39029 -0.48992,-0.65656 -0.822519,-0.89905 -0.420025,-0.32237 -0.829432,-0.6537 -1.18504,-1.04737 -0.296194,-0.38728 -0.503981,-0.83208 -0.631259,-1.30106 -0.07426,-0.42414 -0.141619,-0.86273 -0.01861,-1.2819 0.239642,-0.41825 0.597151,-0.75406 0.913166,-1.11449 0.311898,-0.31627 0.642035,-0.61826 0.986575,-0.89897 0.429047,-0.23336 0.788394,-0.53502 1.111457,-0.89889 0.355516,-0.41992 0.55521,-0.91291 0.653613,-1.44769 0.05102,-0.45435 -0.145264,-0.81374 -0.363701,-1.1915 -0.182385,-0.35319 -0.505811,-0.57857 -0.796667,-0.83309 -0.2774,-0.18036 -0.442511,-0.44169 -0.595874,-0.72525 -0.176105,-0.33358 -0.230966,-0.70344 -0.263708,-1.07395 -0.02448,-0.3779 -0.02171,-0.75686 -0.02116,-1.13534 0.01512,-0.36957 -0.02736,-0.74359 0.02678,-1.11021 0.05589,-0.34805 0.207891,-0.67965 0.393972,-0.97701 0.157782,-0.29433 0.398199,-0.52036 0.639609,-0.74481 0.408197,-0.33867 0.697086,-0.66871 0.880162,-1.16874 0.163288,-0.47507 0.03458,-0.88504 -0.270651,-1.25887 -0.371205,-0.33485 -0.809365,-0.58731 -1.230131,-0.85552 -0.267577,-0.17411 -0.133486,-0.0912 -0.401996,-0.24914 0,0 -0.31199,0.20235 -0.31199,0.20235 v 0 c 0.268149,0.15601 0.134145,0.0736 0.401661,0.24775 0.418557,0.26479 0.851399,0.5176 1.223032,0.84598 0.300136,0.36493 0.418184,0.76136 0.253151,1.2242 -0.18196,0.4768 -0.494321,0.83061 -0.887834,1.15326 -0.242829,0.22588 -0.478099,0.45866 -0.63648,0.75455 -0.182093,0.30499 -0.33568,0.63703 -0.387595,0.99101 -0.04709,0.36894 -0.01116,0.74329 -0.02401,1.11447 -4.23e-4,0.3795 -0.003,0.75951 0.02271,1.13836 0.03443,0.37532 0.09238,0.7495 0.270691,1.08736 0.154628,0.28723 0.321047,0.55495 0.602313,0.73688 0.287368,0.25258 0.611753,0.47122 0.791738,0.82186 0.214278,0.37053 0.406651,0.72243 0.351323,1.16818 -0.100942,0.52914 -0.303769,1.0153 -0.659511,1.42812 -0.327252,0.36046 -0.693664,0.65291 -1.116621,0.89502 -0.341413,0.28492 -0.675556,0.58205 -0.982641,0.90373 -0.319576,0.36079 -0.681672,0.70074 -0.908104,1.13058 -0.112964,0.42721 -0.0501,0.86987 0.02819,1.29957 0.130952,0.47385 0.341935,0.92331 0.641866,1.31492 0.356239,0.39631 0.765939,0.73062 1.187291,1.05515 0.327091,0.23567 0.65092,0.49629 0.809637,0.87839 0.122253,0.41141 0.121208,0.83553 0.06119,1.25895 -0.07978,0.41347 -0.238802,0.77269 -0.579487,1.04015 -0.600878,0.46091 -0.615844,0.43051 -1.097589,0.71138 -0.368992,0.24854 -0.526419,0.48651 -0.444349,0.95059 0.141901,0.44807 0.366671,0.84978 0.730367,1.15801 0,0 0.316817,-0.19901 0.316817,-0.19901 z" />
    <path
       style="fill:none;fill-opacity:0.691489;fill-rule:evenodd;stroke:#000000;stroke-width:1.27545;stroke-linecap:round;stroke-linejoin:bevel;stroke-miterlimit:4;stroke-dasharray:none;stroke-dashoffset:0"
       id="path1569"
       d="m 190.56836,133.29145 c -0.44938,0.42783 -0.88856,0.87724 -1.11193,1.66695 -0.11296,0.68959 0.15158,1.19138 0.42603,1.66142 0.25497,0.37335 0.55472,0.64271 0.83567,0.95601 0.28952,0.32084 0.52078,0.65205 0.65132,1.18794 0.0926,0.55839 0.1209,1.14891 0.0803,1.72277 -0.0475,0.62988 -0.26241,1.17537 -0.4566,1.71097 -0.22882,0.52699 -0.55925,0.89841 -0.84695,1.33307 -0.23367,0.35548 -0.48188,0.67091 -0.75096,0.95241 -0.2623,0.40363 -0.3201,0.97371 -0.36131,1.53049 -0.0485,0.66384 -0.0262,1.31936 0.0832,1.96325 0.10014,0.72756 0.36791,1.29087 0.64013,1.86594 0.27422,0.57846 0.5392,1.18006 0.75063,1.82588 0.20908,0.55906 0.39393,1.1192 0.49718,1.75398 0.0804,0.68499 0.0842,1.38515 0.0888,2.08007 0.023,0.58377 -0.0304,1.15488 -0.14157,1.70882 -0.12001,0.63384 -0.32233,1.21273 -0.49589,1.80951 -0.20422,0.70178 -0.25946,1.4689 -0.29512,2.23334 -0.0526,0.69297 0.0897,1.34234 0.20491,1.99612 0.1484,0.68162 0.48648,0.95222 0.85979,1.23653 0.16941,0.12754 0.31025,0.31234 0.44771,0.51308 0,0 0.31705,-0.31963 0.31705,-0.31963 v 0 c -0.13911,-0.20609 -0.28144,-0.39651 -0.45339,-0.52853 -0.36378,-0.27823 -0.7009,-0.51922 -0.84398,-1.19164 -0.11454,-0.64744 -0.2529,-1.29028 -0.1994,-1.97648 0.0365,-0.75889 0.0949,-1.51854 0.3007,-2.21307 0.17586,-0.59784 0.37656,-1.18094 0.49544,-1.81824 0.10688,-0.56151 0.15964,-1.13631 0.13544,-1.72553 -0.005,-0.69962 -0.0103,-1.40452 -0.0928,-2.09375 -0.10564,-0.63807 -0.29115,-1.20314 -0.50153,-1.76597 -0.21333,-0.64788 -0.47962,-1.25201 -0.75419,-1.83415 -0.26978,-0.56916 -0.53491,-1.12421 -0.63269,-1.84575 -0.10698,-0.63735 -0.1249,-1.28662 -0.0759,-1.9426 0.0432,-0.54669 0.10381,-1.10628 0.37539,-1.48298 0.26607,-0.28828 0.51496,-0.60319 0.74739,-0.96083 0.29112,-0.4316 0.62057,-0.8117 0.8428,-1.34959 0.19626,-0.54148 0.40598,-1.09704 0.44988,-1.73434 0.0361,-0.58401 0.01,-1.18299 -0.0881,-1.74945 -0.13486,-0.54631 -0.36673,-0.89005 -0.66264,-1.21851 -0.27789,-0.31377 -0.5772,-0.57744 -0.8321,-0.94502 -0.26616,-0.45054 -0.52585,-0.93191 -0.40608,-1.59573 0.23358,-0.76125 0.68044,-1.21748 1.12145,-1.63824 0,0 -0.34796,0.22148 -0.34796,0.22148 z" />
    <path
       id="path1571"
       d="M 105,162 H 10"
       style="fill:none;stroke:#000000;stroke-width:0.264583;stroke-linecap:butt;stroke-linejoin:miter;stroke-miterlimit:4;stroke-dasharray:1.5875, 1.5875;stroke-dashoffset:0;stroke-opacity:1"
       sodipodi:nodetypes="cc" />
    <path
       sodipodi:nodetypes="cc"
       style="fill:none;stroke:#000000;stroke-width:0.264583;stroke-linecap:butt;stroke-linejoin:miter;stroke-miterlimit:4;stroke-dasharray:1.5875, 1.5875;stroke-dashoffset:0;stroke-opacity:1"
       d="M 200,115 H 105"
       id="path1573" />
    <g
       transform="matrix(4.3151156,0,0,4.7646733,89.100445,114.64086)"
       ns1:version="1.0.1"
       ns1:texconverter="pdflatex"
       ns1:pdfconverter="inkscape"
       ns1:text="\\{"
       ns1:preamble="C:\\Users\\claum\\AppData\\Roaming\\inkscape\\extensions\\textext\\default_packages.tex"
       ns1:scale="2.0"
       ns1:alignment="middle center"
       ns1:inkscapeversion="1.0"
       ns1:jacobian_sqrt="0.705556"
       id="g183">
      <defs
         id="id-4b606139-792e-45af-ad79-837c8d73cade">
        <g
           id="id-28571a19-0d5d-44b0-8120-7d313b28f1d7">
          <symbol
             id="id-475ac194-c1c8-4641-8e64-15befab995bf"
             overflow="visible">
            <path
               id="id-83ebe828-4e9b-4bde-a622-b2fd20fe3745"
               d=""
               style="stroke:none" />
          </symbol>
          <symbol
             id="id-72227982-7162-4a1f-b028-659a38b7f948"
             overflow="visible">
            <path
               id="id-c4093e1b-6c1b-4847-a019-2742afe34839"
               d="m 2.828125,-6.15625 c 0,-0.390625 0.25,-1.03125 1.34375,-1.09375 C 4.21875,-7.265625 4.25,-7.3125 4.25,-7.359375 c 0,-0.125 -0.078125,-0.125 -0.1875,-0.125 -0.984375,0 -1.90625,0.515625 -1.90625,1.25 v 2.28125 c 0,0.390625 0,0.703125 -0.40625,1.03125 -0.34375,0.296875 -0.71875,0.3125 -0.9375,0.3125 C 0.75,-2.59375 0.71875,-2.546875 0.71875,-2.5 c 0,0.109375 0.0625,0.109375 0.15625,0.125 0.65625,0.03125 1.140625,0.390625 1.25,0.875 0.03125,0.109375 0.03125,0.140625 0.03125,0.5 v 1.96875 c 0,0.421875 0,0.734375 0.46875,1.109375 C 3.015625,2.375 3.671875,2.5 4.0625,2.5 4.171875,2.5 4.25,2.5 4.25,2.375 4.25,2.28125 4.203125,2.28125 4.09375,2.265625 3.46875,2.234375 2.984375,1.90625 2.84375,1.40625 2.828125,1.3125 2.828125,1.296875 2.828125,0.9375 v -2.09375 c 0,-0.453125 -0.09375,-0.625 -0.40625,-0.953125 C 2.21875,-2.3125 1.921875,-2.40625 1.640625,-2.5 c 0.828125,-0.21875 1.1875,-0.6875 1.1875,-1.265625 z m 0,0"
               style="stroke:none" />
          </symbol>
        </g>
      </defs>
      <g
         transform="translate(-149.431,-127.281)"
         id="id-d63ef165-9c7d-4c3e-a4bb-cb1bf2886af1">
        <g
           id="id-4959c652-c60f-47e6-81b4-b499a6a9834f"
           style="fill:#000000;fill-opacity:1">
          <g
             transform="translate(148.712,134.765)"
             id="g179">
            <path
               id="id-06205692-b539-4b2d-837a-c8cb2d431f69"
               d="m 2.828125,-6.15625 c 0,-0.390625 0.25,-1.03125 1.34375,-1.09375 C 4.21875,-7.265625 4.25,-7.3125 4.25,-7.359375 c 0,-0.125 -0.078125,-0.125 -0.1875,-0.125 -0.984375,0 -1.90625,0.515625 -1.90625,1.25 v 2.28125 c 0,0.390625 0,0.703125 -0.40625,1.03125 -0.34375,0.296875 -0.71875,0.3125 -0.9375,0.3125 C 0.75,-2.59375 0.71875,-2.546875 0.71875,-2.5 c 0,0.109375 0.0625,0.109375 0.15625,0.125 0.65625,0.03125 1.140625,0.390625 1.25,0.875 0.03125,0.109375 0.03125,0.140625 0.03125,0.5 v 1.96875 c 0,0.421875 0,0.734375 0.46875,1.109375 C 3.015625,2.375 3.671875,2.5 4.0625,2.5 4.171875,2.5 4.25,2.5 4.25,2.375 4.25,2.28125 4.203125,2.28125 4.09375,2.265625 3.46875,2.234375 2.984375,1.90625 2.84375,1.40625 2.828125,1.3125 2.828125,1.296875 2.828125,0.9375 v -2.09375 c 0,-0.453125 -0.09375,-0.625 -0.40625,-0.953125 C 2.21875,-2.3125 1.921875,-2.40625 1.640625,-2.5 c 0.828125,-0.21875 1.1875,-0.6875 1.1875,-1.265625 z m 0,0"
               style="stroke:none" />
          </g>
        </g>
      </g>
    </g>
    <path
       sodipodi:nodetypes="cc"
       style="fill:none;stroke:#000000;stroke-width:0.580948;stroke-linecap:butt;stroke-linejoin:miter;stroke-miterlimit:4;stroke-dasharray:none;stroke-dashoffset:0;stroke-opacity:1"
       d="m 10,135 v 27"
       id="path1050" />
    <path
       id="path1052"
       d="M 5,140 15,130"
       style="fill:none;stroke:#000000;stroke-width:0.264583px;stroke-linecap:butt;stroke-linejoin:miter;stroke-opacity:1" />
    <path
       style="fill:none;stroke:#000000;stroke-width:0.264583px;stroke-linecap:butt;stroke-linejoin:miter;stroke-opacity:1"
       d="M 6,166 16,156"
       id="path1054" />
    <path
       id="path1056"
       d="m 200,115 v 20"
       style="fill:none;stroke:#000000;stroke-width:0.5;stroke-linecap:butt;stroke-linejoin:miter;stroke-miterlimit:4;stroke-dasharray:none;stroke-dashoffset:0;stroke-opacity:1"
       sodipodi:nodetypes="cc" />
    <path
       id="path1058"
       d="m 195,120 10,-10"
       style="fill:none;stroke:#000000;stroke-width:0.264583px;stroke-linecap:butt;stroke-linejoin:miter;stroke-opacity:1" />
    <path
       style="fill:none;stroke:#000000;stroke-width:0.264583px;stroke-linecap:butt;stroke-linejoin:miter;stroke-opacity:1"
       d="m 195,140 10,-10"
       id="path1060" />
    <path
       id="path1062"
       d="M 200,135 H 190"
       style="fill:none;stroke:#000000;stroke-width:0.0858421;stroke-linecap:butt;stroke-linejoin:miter;stroke-miterlimit:4;stroke-dasharray:0.515053, 0.515053;stroke-dashoffset:0;stroke-opacity:1"
       sodipodi:nodetypes="cc" />
    <path
       sodipodi:nodetypes="cc"
       style="fill:none;stroke:#000000;stroke-width:0.0858421;stroke-linecap:butt;stroke-linejoin:miter;stroke-miterlimit:4;stroke-dasharray:0.515053, 0.515053;stroke-dashoffset:0;stroke-opacity:1"
       d="M 20,135 H 10"
       id="path1064" />
    <g
       transform="matrix(0.705556,0,0,0.705556,54.265946,121.69297)"
       ns1:version="1.0.1"
       ns1:texconverter="pdflatex"
       ns1:pdfconverter="inkscape"
       ns1:text="\\textbf{(+)}"
       ns1:preamble="C:\\Users\\claum\\AppData\\Roaming\\inkscape\\extensions\\textext\\default_packages.tex"
       ns1:scale="2.0"
       ns1:alignment="middle center"
       ns1:inkscapeversion="1.0"
       ns1:jacobian_sqrt="0.705556"
       id="g1221">
      <defs
         id="id-03cfb702-c0b9-4255-a3c9-4bd99cd07e9f">
        <g
           id="id-e96dd3e3-aece-43ad-9ee5-ac953abe11f6">
          <symbol
             id="id-08fdead5-802d-46ea-a1a1-af4a8ce5f1c0"
             overflow="visible">
            <path
               id="id-2e67eab5-2539-495b-8f65-c518c4f5ee89"
               d=""
               style="stroke:none" />
          </symbol>
          <symbol
             id="id-f744a81b-230e-4051-8b13-cf71ef236abc"
             overflow="visible">
            <path
               id="id-ca4d4b0d-55ad-4a34-86ca-3fa7db70b915"
               d="M 3.78125,2.25 C 3.484375,1.96875 2.84375,1.359375 2.421875,0.09375 2.15625,-0.703125 2.046875,-1.609375 2.046875,-2.5 c 0,-1.953125 0.5,-3.515625 1.609375,-4.625 0.140625,-0.15625 0.15625,-0.15625 0.15625,-0.21875 0,-0.109375 -0.109375,-0.140625 -0.1875,-0.140625 -0.171875,0 -0.578125,0.375 -0.765625,0.546875 -1.546875,1.546875 -1.78125,3.375 -1.78125,4.4375 0,1.25 0.328125,2.34375 0.796875,3.171875 0.65625,1.140625 1.5625,1.8125 1.75,1.8125 0.078125,0 0.1875,-0.03125 0.1875,-0.140625 C 3.8125,2.296875 3.78125,2.25 3.78125,2.25 Z m 0,0"
               style="stroke:none" />
          </symbol>
          <symbol
             id="id-5f61aece-8f9d-4331-9fbd-c29365af5eae"
             overflow="visible">
            <path
               id="id-4f02c5b7-5be8-4f5b-9e2b-d7857b34b46b"
               d="m 4.75,-2.1875 h 3.078125 c 0.140625,0 0.4375,0 0.4375,-0.3125 0,-0.296875 -0.296875,-0.296875 -0.4375,-0.296875 H 4.75 v -3.09375 c 0,-0.125 0,-0.421875 -0.296875,-0.421875 -0.3125,0 -0.3125,0.296875 -0.3125,0.421875 v 3.09375 H 1.0625 c -0.140625,0 -0.421875,0 -0.421875,0.296875 0,0.3125 0.296875,0.3125 0.421875,0.3125 h 3.078125 v 3.078125 c 0,0.125 0,0.421875 0.3125,0.421875 C 4.75,1.3125 4.75,1.03125 4.75,0.890625 Z m 0,0"
               style="stroke:none" />
          </symbol>
          <symbol
             id="id-97b81414-1321-4ccb-af7f-1e9eddc14215"
             overflow="visible">
            <path
               id="id-98917098-3c41-4264-927a-42caae8b9591"
               d="M 3.375,-2.5 C 3.375,-3.734375 3.046875,-4.828125 2.578125,-5.65625 1.90625,-6.8125 1,-7.484375 0.8125,-7.484375 c -0.078125,0 -0.171875,0.03125 -0.171875,0.140625 0,0.0625 0,0.078125 0.171875,0.234375 1.25,1.28125 1.59375,3.046875 1.59375,4.609375 0,1.96875 -0.515625,3.53125 -1.609375,4.640625 -0.15625,0.140625 -0.15625,0.15625 -0.15625,0.203125 0,0.109375 0.09375,0.140625 0.171875,0.140625 0.171875,0 0.59375,-0.375 0.765625,-0.546875 C 3.140625,0.40625 3.375,-1.4375 3.375,-2.5 Z m 0,0"
               style="stroke:none" />
          </symbol>
        </g>
      </defs>
      <g
         transform="translate(-149.79,-127.281)"
         id="id-afc84f89-05d6-4218-a983-433c1aa54f09">
        <g
           id="id-76874b73-041b-4ed0-94f8-ea86762e9754"
           style="fill:#000000;fill-opacity:1">
          <g
             transform="translate(148.712,134.765)"
             id="g1211">
            <path
               id="id-07946911-759f-4b8c-800e-5a2e5c8e098d"
               d="M 3.78125,2.25 C 3.484375,1.96875 2.84375,1.359375 2.421875,0.09375 2.15625,-0.703125 2.046875,-1.609375 2.046875,-2.5 c 0,-1.953125 0.5,-3.515625 1.609375,-4.625 0.140625,-0.15625 0.15625,-0.15625 0.15625,-0.21875 0,-0.109375 -0.109375,-0.140625 -0.1875,-0.140625 -0.171875,0 -0.578125,0.375 -0.765625,0.546875 -1.546875,1.546875 -1.78125,3.375 -1.78125,4.4375 0,1.25 0.328125,2.34375 0.796875,3.171875 0.65625,1.140625 1.5625,1.8125 1.75,1.8125 0.078125,0 0.1875,-0.03125 0.1875,-0.140625 C 3.8125,2.296875 3.78125,2.25 3.78125,2.25 Z m 0,0"
               style="stroke:none" />
          </g>
          <g
             transform="translate(153.167,134.765)"
             id="g1214">
            <path
               id="id-815b446c-2f86-4eed-8a67-fc0c763e77fd"
               d="m 4.75,-2.1875 h 3.078125 c 0.140625,0 0.4375,0 0.4375,-0.3125 0,-0.296875 -0.296875,-0.296875 -0.4375,-0.296875 H 4.75 v -3.09375 c 0,-0.125 0,-0.421875 -0.296875,-0.421875 -0.3125,0 -0.3125,0.296875 -0.3125,0.421875 v 3.09375 H 1.0625 c -0.140625,0 -0.421875,0 -0.421875,0.296875 0,0.3125 0.296875,0.3125 0.421875,0.3125 h 3.078125 v 3.078125 c 0,0.125 0,0.421875 0.3125,0.421875 C 4.75,1.3125 4.75,1.03125 4.75,0.890625 Z m 0,0"
               style="stroke:none" />
          </g>
          <g
             transform="translate(162.078,134.765)"
             id="g1217">
            <path
               id="id-31ff10ae-828e-4ff2-a38e-739e92d21bbc"
               d="M 3.375,-2.5 C 3.375,-3.734375 3.046875,-4.828125 2.578125,-5.65625 1.90625,-6.8125 1,-7.484375 0.8125,-7.484375 c -0.078125,0 -0.171875,0.03125 -0.171875,0.140625 0,0.0625 0,0.078125 0.171875,0.234375 1.25,1.28125 1.59375,3.046875 1.59375,4.609375 0,1.96875 -0.515625,3.53125 -1.609375,4.640625 -0.15625,0.140625 -0.15625,0.15625 -0.15625,0.203125 0,0.109375 0.09375,0.140625 0.171875,0.140625 0.171875,0 0.59375,-0.375 0.765625,-0.546875 C 3.140625,0.40625 3.375,-1.4375 3.375,-2.5 Z m 0,0"
               style="stroke:none" />
          </g>
        </g>
      </g>
    </g>
    <g
       id="g1530"
       ns1:jacobian_sqrt="0.705556"
       ns1:inkscapeversion="1.0"
       ns1:alignment="middle center"
       ns1:scale="2.0"
       ns1:preamble="C:\\Users\\claum\\AppData\\Roaming\\inkscape\\extensions\\textext\\default_packages.tex"
       ns1:text="$\\mathbf{(-)}$"
       ns1:pdfconverter="inkscape"
       ns1:texconverter="pdflatex"
       ns1:version="1.0.1"
       transform="matrix(0.705556,0,0,0.705556,143.33003,146.34019)">
      <defs
         id="defs1508">
        <g
           id="g1506">
          <symbol
             overflow="visible"
             id="symbol1488">
            <path
               style="stroke:none"
               d=""
               id="path1486" />
          </symbol>
          <symbol
             overflow="visible"
             id="symbol1492">
            <path
               style="stroke:none"
               d="m 3.296875,2.390625 c 0,-0.03125 0,-0.046875 -0.171875,-0.21875 C 1.890625,0.921875 1.5625,-0.96875 1.5625,-2.5 c 0,-1.734375 0.375,-3.46875 1.609375,-4.703125 0.125,-0.125 0.125,-0.140625 0.125,-0.171875 0,-0.078125 -0.03125,-0.109375 -0.09375,-0.109375 -0.109375,0 -1,0.6875 -1.59375,1.953125 -0.5,1.09375 -0.625,2.203125 -0.625,3.03125 0,0.78125 0.109375,1.984375 0.65625,3.125 C 2.25,1.84375 3.09375,2.5 3.203125,2.5 c 0.0625,0 0.09375,-0.03125 0.09375,-0.109375 z m 0,0"
               id="path1490" />
          </symbol>
          <symbol
             overflow="visible"
             id="symbol1496">
            <path
               style="stroke:none"
               d="m 2.875,-2.5 c 0,-0.765625 -0.109375,-1.96875 -0.65625,-3.109375 -0.59375,-1.21875 -1.453125,-1.875 -1.546875,-1.875 -0.0625,0 -0.109375,0.046875 -0.109375,0.109375 0,0.03125 0,0.046875 0.1875,0.234375 0.984375,0.984375 1.546875,2.5625 1.546875,4.640625 0,1.71875 -0.359375,3.46875 -1.59375,4.71875 C 0.5625,2.34375 0.5625,2.359375 0.5625,2.390625 0.5625,2.453125 0.609375,2.5 0.671875,2.5 0.765625,2.5 1.671875,1.8125 2.25,0.546875 2.765625,-0.546875 2.875,-1.65625 2.875,-2.5 Z m 0,0"
               id="path1494" />
          </symbol>
          <symbol
             overflow="visible"
             id="symbol1500">
            <path
               style="stroke:none"
               d=""
               id="path1498" />
          </symbol>
          <symbol
             overflow="visible"
             id="symbol1504">
            <path
               style="stroke:none"
               d="m 6.5625,-2.296875 c 0.171875,0 0.359375,0 0.359375,-0.203125 0,-0.1875 -0.1875,-0.1875 -0.359375,-0.1875 H 1.171875 c -0.171875,0 -0.34375,0 -0.34375,0.1875 0,0.203125 0.171875,0.203125 0.34375,0.203125 z m 0,0"
               id="path1502" />
          </symbol>
        </g>
      </defs>
      <g
         id="g1528"
         transform="translate(-149.696,-127.281)">
        <g
           style="fill:#000000;fill-opacity:1"
           id="g1514">
          <g
             id="g1512"
             transform="translate(148.712,134.765)">
            <path
               style="stroke:none"
               d="m 3.296875,2.390625 c 0,-0.03125 0,-0.046875 -0.171875,-0.21875 C 1.890625,0.921875 1.5625,-0.96875 1.5625,-2.5 c 0,-1.734375 0.375,-3.46875 1.609375,-4.703125 0.125,-0.125 0.125,-0.140625 0.125,-0.171875 0,-0.078125 -0.03125,-0.109375 -0.09375,-0.109375 -0.109375,0 -1,0.6875 -1.59375,1.953125 -0.5,1.09375 -0.625,2.203125 -0.625,3.03125 0,0.78125 0.109375,1.984375 0.65625,3.125 C 2.25,1.84375 3.09375,2.5 3.203125,2.5 c 0.0625,0 0.09375,-0.03125 0.09375,-0.109375 z m 0,0"
               id="path1510" />
          </g>
        </g>
        <g
           style="fill:#000000;fill-opacity:1"
           id="g1520">
          <g
             id="g1518"
             transform="translate(152.587,134.765)">
            <path
               style="stroke:none"
               d="m 6.5625,-2.296875 c 0.171875,0 0.359375,0 0.359375,-0.203125 0,-0.1875 -0.1875,-0.1875 -0.359375,-0.1875 H 1.171875 c -0.171875,0 -0.34375,0 -0.34375,0.1875 0,0.203125 0.171875,0.203125 0.34375,0.203125 z m 0,0"
               id="path1516" />
          </g>
        </g>
        <g
           style="fill:#000000;fill-opacity:1"
           id="g1526">
          <g
             id="g1524"
             transform="translate(160.335,134.765)">
            <path
               style="stroke:none"
               d="m 2.875,-2.5 c 0,-0.765625 -0.109375,-1.96875 -0.65625,-3.109375 -0.59375,-1.21875 -1.453125,-1.875 -1.546875,-1.875 -0.0625,0 -0.109375,0.046875 -0.109375,0.109375 0,0.03125 0,0.046875 0.1875,0.234375 0.984375,0.984375 1.546875,2.5625 1.546875,4.640625 0,1.71875 -0.359375,3.46875 -1.59375,4.71875 C 0.5625,2.34375 0.5625,2.359375 0.5625,2.390625 0.5625,2.453125 0.609375,2.5 0.671875,2.5 0.765625,2.5 1.671875,1.8125 2.25,0.546875 2.765625,-0.546875 2.875,-1.65625 2.875,-2.5 Z m 0,0"
               id="path1522" />
          </g>
        </g>
      </g>
    </g>
    <path
       id="path2896"
       d="m 105,44.999999 h 50"
       style="fill:none;stroke:#000000;stroke-width:2;stroke-linecap:butt;stroke-linejoin:miter;stroke-miterlimit:4;stroke-dasharray:none;stroke-opacity:1;marker-end:url(#Arrow1Mend)" />
    <g
       transform="matrix(0.776112,0,0,0.776112,136.18007,31.229689)"
       ns1:version="1.0.1"
       ns1:texconverter="pdflatex"
       ns1:pdfconverter="inkscape"
       ns1:text="$F_{x} &gt;0$"
       ns1:preamble="C:\\Users\\claum\\AppData\\Roaming\\inkscape\\extensions\\textext\\default_packages.tex"
       ns1:scale="2.2"
       ns1:alignment="middle center"
       ns1:inkscapeversion="1.0"
       ns1:jacobian_sqrt="0.776112"
       id="g3511">
      <defs
         id="id-610fc338-b931-44e9-a211-35e005b090f2">
        <g
           id="id-40cf5ada-6365-467a-abc3-a4aa2eec487b">
          <symbol
             id="id-c75d5db6-0379-4861-88ad-af16980e6a5a"
             overflow="visible">
            <path
               id="id-6c8ec127-5adb-4c00-83ea-5998c05a4190"
               d=""
               style="stroke:none" />
          </symbol>
          <symbol
             id="id-b2371549-624a-478c-95f7-83cc9ebef62a"
             overflow="visible">
            <path
               id="id-c7102092-9393-479b-a70b-a0716c2d8306"
               d="m 3.015625,-3.234375 h 0.96875 c 0.75,0 0.828125,0.15625 0.828125,0.4375 0,0.078125 0,0.1875 -0.0625,0.5 C 4.71875,-2.25 4.71875,-2.21875 4.71875,-2.1875 c 0,0.078125 0.0625,0.109375 0.109375,0.109375 0.109375,0 0.109375,-0.03125 0.15625,-0.203125 L 5.53125,-4.453125 C 5.5625,-4.5625 5.5625,-4.578125 5.5625,-4.609375 5.5625,-4.625 5.546875,-4.71875 5.4375,-4.71875 5.34375,-4.71875 5.328125,-4.671875 5.296875,-4.5 5.078125,-3.734375 4.859375,-3.546875 4,-3.546875 H 3.09375 l 0.640625,-2.53125 C 3.828125,-6.4375 3.84375,-6.46875 4.28125,-6.46875 h 1.3125 c 1.21875,0 1.453125,0.328125 1.453125,1.09375 0,0.234375 0,0.265625 -0.03125,0.546875 C 7,-4.703125 7,-4.6875 7,-4.65625 c 0,0.046875 0.03125,0.125 0.125,0.125 0.109375,0 0.109375,-0.0625 0.125,-0.25 L 7.453125,-6.515625 C 7.484375,-6.78125 7.4375,-6.78125 7.1875,-6.78125 H 2.296875 c -0.1875,0 -0.296875,0 -0.296875,0.203125 0,0.109375 0.09375,0.109375 0.28125,0.109375 0.375,0 0.65625,0 0.65625,0.171875 0,0.046875 0,0.0625 -0.0625,0.25 L 1.5625,-0.78125 c -0.09375,0.390625 -0.109375,0.46875 -0.90625,0.46875 -0.171875,0 -0.28125,0 -0.28125,0.1875 C 0.375,0 0.5,0 0.53125,0 0.8125,0 1.5625,-0.03125 1.84375,-0.03125 2.171875,-0.03125 3,0 3.328125,0 3.421875,0 3.53125,0 3.53125,-0.1875 3.53125,-0.265625 3.484375,-0.296875 3.484375,-0.296875 3.453125,-0.3125 3.421875,-0.3125 3.203125,-0.3125 c -0.21875,0 -0.265625,0 -0.515625,-0.015625 -0.296875,-0.03125 -0.328125,-0.078125 -0.328125,-0.203125 0,-0.015625 0,-0.078125 0.046875,-0.21875 z m 0,0"
               style="stroke:none" />
          </symbol>
          <symbol
             id="id-118a623e-e49c-4f06-8bdf-1c6e233aa669"
             overflow="visible">
            <path
               id="id-53783430-06d4-4a03-9815-71f50e075ed7"
               d="M 6.734375,-2.265625 C 6.84375,-2.328125 6.921875,-2.375 6.921875,-2.5 c 0,-0.109375 -0.078125,-0.15625 -0.1875,-0.21875 L 1.203125,-5.3125 C 1.078125,-5.390625 1.0625,-5.390625 1.03125,-5.390625 c -0.109375,0 -0.203125,0.09375 -0.203125,0.203125 0,0.09375 0.046875,0.15625 0.1875,0.21875 L 6.25,-2.5 1.015625,-0.015625 c -0.140625,0.0625 -0.1875,0.125 -0.1875,0.21875 0,0.109375 0.09375,0.203125 0.203125,0.203125 0.03125,0 0.046875,0 0.171875,-0.078125 z m 0,0"
               style="stroke:none" />
          </symbol>
          <symbol
             id="id-640cb7ef-fc58-48f2-9976-6dc6681d4151"
             overflow="visible">
            <path
               id="id-d2536667-7442-4a3c-9dbe-7da87d67bbf5"
               d=""
               style="stroke:none" />
          </symbol>
          <symbol
             id="id-5150f678-697a-4d5c-be0c-2f6d8b246005"
             overflow="visible">
            <path
               id="id-345205ad-ea86-4279-9203-ed5f53f4b456"
               d="M 1.734375,-0.734375 C 1.671875,-0.5 1.4375,-0.125 1.078125,-0.125 c -0.015625,0 -0.234375,0 -0.375,-0.09375 0.28125,-0.09375 0.3125,-0.34375 0.3125,-0.390625 0,-0.15625 -0.125,-0.25 -0.28125,-0.25 -0.203125,0 -0.40625,0.15625 -0.40625,0.421875 0,0.34375 0.390625,0.5 0.734375,0.5 0.328125,0 0.609375,-0.1875 0.78125,-0.484375 C 2.015625,-0.0625 2.390625,0.0625 2.671875,0.0625 c 0.8125,0 1.234375,-0.859375 1.234375,-1.0625 0,-0.09375 -0.09375,-0.09375 -0.109375,-0.09375 -0.109375,0 -0.109375,0.046875 -0.140625,0.125 -0.140625,0.484375 -0.5625,0.84375 -0.953125,0.84375 -0.28125,0 -0.421875,-0.1875 -0.421875,-0.453125 0,-0.1875 0.171875,-0.8125 0.359375,-1.59375 C 2.78125,-2.703125 3.09375,-2.875 3.328125,-2.875 c 0.015625,0 0.21875,0 0.375,0.09375 -0.21875,0.0625 -0.3125,0.265625 -0.3125,0.390625 0,0.140625 0.125,0.25 0.28125,0.25 0.15625,0 0.390625,-0.125 0.390625,-0.421875 0,-0.390625 -0.453125,-0.515625 -0.71875,-0.515625 -0.359375,0 -0.640625,0.234375 -0.78125,0.5 -0.125,-0.28125 -0.453125,-0.5 -0.84375,-0.5 C 0.9375,-3.078125 0.5,-2.21875 0.5,-2 c 0,0.078125 0.09375,0.078125 0.109375,0.078125 0.09375,0 0.09375,-0.015625 0.140625,-0.109375 C 0.921875,-2.578125 1.359375,-2.875 1.703125,-2.875 1.9375,-2.875 2.125,-2.75 2.125,-2.421875 2.125,-2.28125 2.03125,-1.9375 1.96875,-1.6875 Z m 0,0"
               style="stroke:none" />
          </symbol>
          <symbol
             id="id-4460c921-01a0-437b-8c22-3d7ea2ffb936"
             overflow="visible">
            <path
               id="id-013428ac-52eb-4c1e-87df-88be474bb227"
               d=""
               style="stroke:none" />
          </symbol>
          <symbol
             id="id-074db776-0a25-4f01-93ea-72556ab8c610"
             overflow="visible">
            <path
               id="id-488ed555-b80f-448e-b1a6-eff02451512d"
               d="m 4.578125,-3.1875 c 0,-0.796875 -0.046875,-1.59375 -0.390625,-2.328125 -0.453125,-0.96875 -1.28125,-1.125 -1.6875,-1.125 -0.609375,0 -1.328125,0.265625 -1.75,1.1875 -0.3125,0.6875 -0.359375,1.46875 -0.359375,2.265625 0,0.75 0.03125,1.640625 0.453125,2.40625 0.421875,0.796875 1.15625,1 1.640625,1 0.53125,0 1.296875,-0.203125 1.734375,-1.15625 0.3125,-0.6875 0.359375,-1.46875 0.359375,-2.25 z M 2.484375,0 C 2.09375,0 1.5,-0.25 1.328125,-1.203125 1.21875,-1.796875 1.21875,-2.71875 1.21875,-3.3125 c 0,-0.640625 0,-1.296875 0.078125,-1.828125 0.1875,-1.1875 0.9375,-1.28125 1.1875,-1.28125 0.328125,0 0.984375,0.1875 1.171875,1.171875 0.109375,0.5625 0.109375,1.3125 0.109375,1.9375 0,0.75 0,1.421875 -0.109375,2.0625 C 3.5,-0.296875 2.9375,0 2.484375,0 Z m 0,0"
               style="stroke:none" />
          </symbol>
        </g>
      </defs>
      <g
         transform="translate(-149.087,-127.984)"
         id="id-14061213-aac3-4d8d-bc2d-3c3cc20a88f9">
        <g
           id="id-42c0d841-5dd1-42f4-9e64-be57320193e0"
           style="fill:#000000;fill-opacity:1">
          <g
             transform="translate(148.712,134.765)"
             id="g3495">
            <path
               id="id-4ad3158d-2dda-4f14-afbf-1dd9260d8bd3"
               d="m 3.015625,-3.234375 h 0.96875 c 0.75,0 0.828125,0.15625 0.828125,0.4375 0,0.078125 0,0.1875 -0.0625,0.5 C 4.71875,-2.25 4.71875,-2.21875 4.71875,-2.1875 c 0,0.078125 0.0625,0.109375 0.109375,0.109375 0.109375,0 0.109375,-0.03125 0.15625,-0.203125 L 5.53125,-4.453125 C 5.5625,-4.5625 5.5625,-4.578125 5.5625,-4.609375 5.5625,-4.625 5.546875,-4.71875 5.4375,-4.71875 5.34375,-4.71875 5.328125,-4.671875 5.296875,-4.5 5.078125,-3.734375 4.859375,-3.546875 4,-3.546875 H 3.09375 l 0.640625,-2.53125 C 3.828125,-6.4375 3.84375,-6.46875 4.28125,-6.46875 h 1.3125 c 1.21875,0 1.453125,0.328125 1.453125,1.09375 0,0.234375 0,0.265625 -0.03125,0.546875 C 7,-4.703125 7,-4.6875 7,-4.65625 c 0,0.046875 0.03125,0.125 0.125,0.125 0.109375,0 0.109375,-0.0625 0.125,-0.25 L 7.453125,-6.515625 C 7.484375,-6.78125 7.4375,-6.78125 7.1875,-6.78125 H 2.296875 c -0.1875,0 -0.296875,0 -0.296875,0.203125 0,0.109375 0.09375,0.109375 0.28125,0.109375 0.375,0 0.65625,0 0.65625,0.171875 0,0.046875 0,0.0625 -0.0625,0.25 L 1.5625,-0.78125 c -0.09375,0.390625 -0.109375,0.46875 -0.90625,0.46875 -0.171875,0 -0.28125,0 -0.28125,0.1875 C 0.375,0 0.5,0 0.53125,0 0.8125,0 1.5625,-0.03125 1.84375,-0.03125 2.171875,-0.03125 3,0 3.328125,0 3.421875,0 3.53125,0 3.53125,-0.1875 3.53125,-0.265625 3.484375,-0.296875 3.484375,-0.296875 3.453125,-0.3125 3.421875,-0.3125 3.203125,-0.3125 c -0.21875,0 -0.265625,0 -0.515625,-0.015625 -0.296875,-0.03125 -0.328125,-0.078125 -0.328125,-0.203125 0,-0.015625 0,-0.078125 0.046875,-0.21875 z m 0,0"
               style="stroke:none" />
          </g>
        </g>
        <g
           id="id-756984e0-f630-4718-aaaf-efcc19b4f1c4"
           style="fill:#000000;fill-opacity:1">
          <g
             transform="translate(155.119,136.259)"
             id="g3499">
            <path
               id="id-2ab6f3d1-a3d8-4f82-8157-86dd9b26434e"
               d="M 1.734375,-0.734375 C 1.671875,-0.5 1.4375,-0.125 1.078125,-0.125 c -0.015625,0 -0.234375,0 -0.375,-0.09375 0.28125,-0.09375 0.3125,-0.34375 0.3125,-0.390625 0,-0.15625 -0.125,-0.25 -0.28125,-0.25 -0.203125,0 -0.40625,0.15625 -0.40625,0.421875 0,0.34375 0.390625,0.5 0.734375,0.5 0.328125,0 0.609375,-0.1875 0.78125,-0.484375 C 2.015625,-0.0625 2.390625,0.0625 2.671875,0.0625 c 0.8125,0 1.234375,-0.859375 1.234375,-1.0625 0,-0.09375 -0.09375,-0.09375 -0.109375,-0.09375 -0.109375,0 -0.109375,0.046875 -0.140625,0.125 -0.140625,0.484375 -0.5625,0.84375 -0.953125,0.84375 -0.28125,0 -0.421875,-0.1875 -0.421875,-0.453125 0,-0.1875 0.171875,-0.8125 0.359375,-1.59375 C 2.78125,-2.703125 3.09375,-2.875 3.328125,-2.875 c 0.015625,0 0.21875,0 0.375,0.09375 -0.21875,0.0625 -0.3125,0.265625 -0.3125,0.390625 0,0.140625 0.125,0.25 0.28125,0.25 0.15625,0 0.390625,-0.125 0.390625,-0.421875 0,-0.390625 -0.453125,-0.515625 -0.71875,-0.515625 -0.359375,0 -0.640625,0.234375 -0.78125,0.5 -0.125,-0.28125 -0.453125,-0.5 -0.84375,-0.5 C 0.9375,-3.078125 0.5,-2.21875 0.5,-2 c 0,0.078125 0.09375,0.078125 0.109375,0.078125 0.09375,0 0.09375,-0.015625 0.140625,-0.109375 C 0.921875,-2.578125 1.359375,-2.875 1.703125,-2.875 1.9375,-2.875 2.125,-2.75 2.125,-2.421875 2.125,-2.28125 2.03125,-1.9375 1.96875,-1.6875 Z m 0,0"
               style="stroke:none" />
          </g>
        </g>
        <g
           id="id-90ec4b3b-58f5-4190-900c-a079a733c4ad"
           style="fill:#000000;fill-opacity:1">
          <g
             transform="translate(162.902,134.765)"
             id="g3503">
            <path
               id="id-c66d21f4-9455-4966-8d5f-408c9e90be90"
               d="M 6.734375,-2.265625 C 6.84375,-2.328125 6.921875,-2.375 6.921875,-2.5 c 0,-0.109375 -0.078125,-0.15625 -0.1875,-0.21875 L 1.203125,-5.3125 C 1.078125,-5.390625 1.0625,-5.390625 1.03125,-5.390625 c -0.109375,0 -0.203125,0.09375 -0.203125,0.203125 0,0.09375 0.046875,0.15625 0.1875,0.21875 L 6.25,-2.5 1.015625,-0.015625 c -0.140625,0.0625 -0.1875,0.125 -0.1875,0.21875 0,0.109375 0.09375,0.203125 0.203125,0.203125 0.03125,0 0.046875,0 0.171875,-0.078125 z m 0,0"
               style="stroke:none" />
          </g>
        </g>
        <g
           id="id-0e9b8879-9566-43d9-afd5-d3d0f32839a3"
           style="fill:#000000;fill-opacity:1">
          <g
             transform="translate(173.418,134.765)"
             id="g3507">
            <path
               id="id-a0711aaa-e13e-4415-9d47-f0b3e3a94be1"
               d="m 4.578125,-3.1875 c 0,-0.796875 -0.046875,-1.59375 -0.390625,-2.328125 -0.453125,-0.96875 -1.28125,-1.125 -1.6875,-1.125 -0.609375,0 -1.328125,0.265625 -1.75,1.1875 -0.3125,0.6875 -0.359375,1.46875 -0.359375,2.265625 0,0.75 0.03125,1.640625 0.453125,2.40625 0.421875,0.796875 1.15625,1 1.640625,1 0.53125,0 1.296875,-0.203125 1.734375,-1.15625 0.3125,-0.6875 0.359375,-1.46875 0.359375,-2.25 z M 2.484375,0 C 2.09375,0 1.5,-0.25 1.328125,-1.203125 1.21875,-1.796875 1.21875,-2.71875 1.21875,-3.3125 c 0,-0.640625 0,-1.296875 0.078125,-1.828125 0.1875,-1.1875 0.9375,-1.28125 1.1875,-1.28125 0.328125,0 0.984375,0.1875 1.171875,1.171875 0.109375,0.5625 0.109375,1.3125 0.109375,1.9375 0,0.75 0,1.421875 -0.109375,2.0625 C 3.5,-0.296875 2.9375,0 2.484375,0 Z m 0,0"
               style="stroke:none" />
          </g>
        </g>
      </g>
    </g>
    <g
       transform="matrix(1.05833,0,0,1.05833,125.90809,91.206782)"
       ns1:version="1.0.1"
       ns1:texconverter="pdflatex"
       ns1:pdfconverter="inkscape"
       ns1:text="$N$"
       ns1:preamble="C:\\Users\\claum\\AppData\\Roaming\\inkscape\\extensions\\textext\\default_packages.tex"
       ns1:scale="3.0"
       ns1:alignment="middle center"
       ns1:inkscapeversion="1.0"
       ns1:jacobian_sqrt="1.05833"
       id="g3719">
      <defs
         id="id-07a5e5dd-1335-49f8-9242-1e5eacdc72e3">
        <g
           id="id-abe4d915-1d6f-4795-b4ba-bc474963012e">
          <symbol
             id="id-7dd131be-4ce0-4a60-b0b3-acfe4abf0408"
             overflow="visible">
            <path
               id="id-c19c0e66-bce3-4ae8-a2d8-b7a1887b5232"
               d=""
               style="stroke:none" />
          </symbol>
          <symbol
             id="id-525f55ed-e892-40ef-9062-3ffb90830920"
             overflow="visible">
            <path
               id="id-a9b11144-b75e-4a71-b96f-8c3fd3ecf3ba"
               d="M 7.53125,-5.765625 C 7.640625,-6.15625 7.8125,-6.46875 8.609375,-6.5 c 0.046875,0 0.171875,-0.015625 0.171875,-0.203125 0,0 0,-0.109375 -0.125,-0.109375 -0.328125,0 -0.6875,0.03125 -1.015625,0.03125 -0.328125,0 -0.6875,-0.03125 -1.015625,-0.03125 -0.0625,0 -0.171875,0 -0.171875,0.203125 C 6.453125,-6.5 6.546875,-6.5 6.625,-6.5 c 0.578125,0.015625 0.6875,0.21875 0.6875,0.4375 0,0.03125 -0.03125,0.1875 -0.03125,0.203125 l -1.125,4.4375 L 3.953125,-6.625 C 3.875,-6.796875 3.875,-6.8125 3.640625,-6.8125 h -1.34375 c -0.1875,0 -0.28125,0 -0.28125,0.203125 0,0.109375 0.09375,0.109375 0.28125,0.109375 0.046875,0 0.671875,0 0.671875,0.09375 L 1.640625,-1.0625 c -0.109375,0.40625 -0.28125,0.71875 -1.078125,0.75 -0.0625,0 -0.171875,0.015625 -0.171875,0.203125 0,0.0625 0.046875,0.109375 0.125,0.109375 0.328125,0 0.671875,-0.03125 1,-0.03125 C 1.859375,-0.03125 2.21875,0 2.546875,0 2.59375,0 2.71875,0 2.71875,-0.203125 2.71875,-0.296875 2.625,-0.3125 2.515625,-0.3125 1.9375,-0.328125 1.859375,-0.546875 1.859375,-0.75 c 0,-0.0625 0.015625,-0.125 0.046875,-0.234375 l 1.3125,-5.25 C 3.265625,-6.1875 3.265625,-6.15625 3.3125,-6.0625 l 2.484375,5.875 C 5.859375,-0.015625 5.890625,0 5.984375,0 6.09375,0 6.09375,-0.03125 6.140625,-0.203125 Z m 0,0"
               style="stroke:none" />
          </symbol>
        </g>
      </defs>
      <g
         transform="translate(-149.103,-127.953)"
         id="id-d0fe403d-dfd7-4a86-8893-b33b80718871">
        <g
           id="id-ed1d8727-267f-45e8-b078-cf6ad5fad82f"
           style="fill:#000000;fill-opacity:1">
          <g
             transform="translate(148.712,134.765)"
             id="g3715">
            <path
               id="id-c87d379b-1ca4-4e0f-97e6-ddee33585162"
               d="M 7.53125,-5.765625 C 7.640625,-6.15625 7.8125,-6.46875 8.609375,-6.5 c 0.046875,0 0.171875,-0.015625 0.171875,-0.203125 0,0 0,-0.109375 -0.125,-0.109375 -0.328125,0 -0.6875,0.03125 -1.015625,0.03125 -0.328125,0 -0.6875,-0.03125 -1.015625,-0.03125 -0.0625,0 -0.171875,0 -0.171875,0.203125 C 6.453125,-6.5 6.546875,-6.5 6.625,-6.5 c 0.578125,0.015625 0.6875,0.21875 0.6875,0.4375 0,0.03125 -0.03125,0.1875 -0.03125,0.203125 l -1.125,4.4375 L 3.953125,-6.625 C 3.875,-6.796875 3.875,-6.8125 3.640625,-6.8125 h -1.34375 c -0.1875,0 -0.28125,0 -0.28125,0.203125 0,0.109375 0.09375,0.109375 0.28125,0.109375 0.046875,0 0.671875,0 0.671875,0.09375 L 1.640625,-1.0625 c -0.109375,0.40625 -0.28125,0.71875 -1.078125,0.75 -0.0625,0 -0.171875,0.015625 -0.171875,0.203125 0,0.0625 0.046875,0.109375 0.125,0.109375 0.328125,0 0.671875,-0.03125 1,-0.03125 C 1.859375,-0.03125 2.21875,0 2.546875,0 2.59375,0 2.71875,0 2.71875,-0.203125 2.71875,-0.296875 2.625,-0.3125 2.515625,-0.3125 1.9375,-0.328125 1.859375,-0.546875 1.859375,-0.75 c 0,-0.0625 0.015625,-0.125 0.046875,-0.234375 l 1.3125,-5.25 C 3.265625,-6.1875 3.265625,-6.15625 3.3125,-6.0625 l 2.484375,5.875 C 5.859375,-0.015625 5.890625,0 5.984375,0 6.09375,0 6.09375,-0.03125 6.140625,-0.203125 Z m 0,0"
               style="stroke:none" />
          </g>
        </g>
      </g>
    </g>
    <circle
       r="7"
       cy="95"
       cx="130"
       id="path3735"
       style="fill:none;fill-opacity:0.691489;fill-rule:evenodd;stroke:#000000;stroke-width:1;stroke-linecap:round;stroke-linejoin:bevel;stroke-miterlimit:4;stroke-dasharray:none;stroke-dashoffset:0" />
    <g
       transform="matrix(0.881945,0,0,0.881945,81.795137,136.35254)"
       ns1:version="1.0.1"
       ns1:texconverter="pdflatex"
       ns1:pdfconverter="inkscape"
       ns1:text="$F_{x}$"
       ns1:preamble="C:\\Users\\claum\\AppData\\Roaming\\inkscape\\extensions\\textext\\default_packages.tex"
       ns1:scale="2.5"
       ns1:alignment="middle center"
       ns1:inkscapeversion="1.0"
       ns1:jacobian_sqrt="0.881945"
       id="g3930">
      <defs
         id="id-5fa7b729-e84c-498f-8308-a5577541461b">
        <g
           id="id-1c9762ac-c7ad-435d-8a47-351f2d76f7ab">
          <symbol
             id="id-b25f8594-8b03-4ac6-b365-cb2a98e2a910"
             overflow="visible">
            <path
               id="id-a06481fe-8b11-4821-a417-dd1693ad3a79"
               d=""
               style="stroke:none" />
          </symbol>
          <symbol
             id="id-452a51db-3c8c-4279-be9b-1b287926c93f"
             overflow="visible">
            <path
               id="id-36f97a20-f4cc-427f-b2de-85ae69899a0a"
               d="m 3.015625,-3.234375 h 0.96875 c 0.75,0 0.828125,0.15625 0.828125,0.4375 0,0.078125 0,0.1875 -0.0625,0.5 C 4.71875,-2.25 4.71875,-2.21875 4.71875,-2.1875 c 0,0.078125 0.0625,0.109375 0.109375,0.109375 0.109375,0 0.109375,-0.03125 0.15625,-0.203125 L 5.53125,-4.453125 C 5.5625,-4.5625 5.5625,-4.578125 5.5625,-4.609375 5.5625,-4.625 5.546875,-4.71875 5.4375,-4.71875 5.34375,-4.71875 5.328125,-4.671875 5.296875,-4.5 5.078125,-3.734375 4.859375,-3.546875 4,-3.546875 H 3.09375 l 0.640625,-2.53125 C 3.828125,-6.4375 3.84375,-6.46875 4.28125,-6.46875 h 1.3125 c 1.21875,0 1.453125,0.328125 1.453125,1.09375 0,0.234375 0,0.265625 -0.03125,0.546875 C 7,-4.703125 7,-4.6875 7,-4.65625 c 0,0.046875 0.03125,0.125 0.125,0.125 0.109375,0 0.109375,-0.0625 0.125,-0.25 L 7.453125,-6.515625 C 7.484375,-6.78125 7.4375,-6.78125 7.1875,-6.78125 H 2.296875 c -0.1875,0 -0.296875,0 -0.296875,0.203125 0,0.109375 0.09375,0.109375 0.28125,0.109375 0.375,0 0.65625,0 0.65625,0.171875 0,0.046875 0,0.0625 -0.0625,0.25 L 1.5625,-0.78125 c -0.09375,0.390625 -0.109375,0.46875 -0.90625,0.46875 -0.171875,0 -0.28125,0 -0.28125,0.1875 C 0.375,0 0.5,0 0.53125,0 0.8125,0 1.5625,-0.03125 1.84375,-0.03125 2.171875,-0.03125 3,0 3.328125,0 3.421875,0 3.53125,0 3.53125,-0.1875 3.53125,-0.265625 3.484375,-0.296875 3.484375,-0.296875 3.453125,-0.3125 3.421875,-0.3125 3.203125,-0.3125 c -0.21875,0 -0.265625,0 -0.515625,-0.015625 -0.296875,-0.03125 -0.328125,-0.078125 -0.328125,-0.203125 0,-0.015625 0,-0.078125 0.046875,-0.21875 z m 0,0"
               style="stroke:none" />
          </symbol>
          <symbol
             id="id-200d91da-4963-4ade-a25e-d457266173e0"
             overflow="visible">
            <path
               id="id-d9701de9-9627-475c-b7ee-e8fc2be8a196"
               d=""
               style="stroke:none" />
          </symbol>
          <symbol
             id="id-bcee29c7-ef7a-4ec0-b494-dd043cf7aca4"
             overflow="visible">
            <path
               id="id-bcacd7d2-9a8f-41df-802e-569bdc10ec1f"
               d="M 1.734375,-0.734375 C 1.671875,-0.5 1.4375,-0.125 1.078125,-0.125 c -0.015625,0 -0.234375,0 -0.375,-0.09375 0.28125,-0.09375 0.3125,-0.34375 0.3125,-0.390625 0,-0.15625 -0.125,-0.25 -0.28125,-0.25 -0.203125,0 -0.40625,0.15625 -0.40625,0.421875 0,0.34375 0.390625,0.5 0.734375,0.5 0.328125,0 0.609375,-0.1875 0.78125,-0.484375 C 2.015625,-0.0625 2.390625,0.0625 2.671875,0.0625 c 0.8125,0 1.234375,-0.859375 1.234375,-1.0625 0,-0.09375 -0.09375,-0.09375 -0.109375,-0.09375 -0.109375,0 -0.109375,0.046875 -0.140625,0.125 -0.140625,0.484375 -0.5625,0.84375 -0.953125,0.84375 -0.28125,0 -0.421875,-0.1875 -0.421875,-0.453125 0,-0.1875 0.171875,-0.8125 0.359375,-1.59375 C 2.78125,-2.703125 3.09375,-2.875 3.328125,-2.875 c 0.015625,0 0.21875,0 0.375,0.09375 -0.21875,0.0625 -0.3125,0.265625 -0.3125,0.390625 0,0.140625 0.125,0.25 0.28125,0.25 0.15625,0 0.390625,-0.125 0.390625,-0.421875 0,-0.390625 -0.453125,-0.515625 -0.71875,-0.515625 -0.359375,0 -0.640625,0.234375 -0.78125,0.5 -0.125,-0.28125 -0.453125,-0.5 -0.84375,-0.5 C 0.9375,-3.078125 0.5,-2.21875 0.5,-2 c 0,0.078125 0.09375,0.078125 0.109375,0.078125 0.09375,0 0.09375,-0.015625 0.140625,-0.109375 C 0.921875,-2.578125 1.359375,-2.875 1.703125,-2.875 1.9375,-2.875 2.125,-2.75 2.125,-2.421875 2.125,-2.28125 2.03125,-1.9375 1.96875,-1.6875 Z m 0,0"
               style="stroke:none" />
          </symbol>
        </g>
      </defs>
      <g
         transform="translate(-149.087,-127.984)"
         id="id-978ac1c2-3513-4b5c-9505-9716ce0a46d5">
        <g
           id="id-ed94f2af-e3fd-4150-85de-6aeb7619099f"
           style="fill:#000000;fill-opacity:1">
          <g
             transform="translate(148.712,134.765)"
             id="g3922">
            <path
               id="id-52367d11-53ab-40ef-9375-7c4ae71b4641"
               d="m 3.015625,-3.234375 h 0.96875 c 0.75,0 0.828125,0.15625 0.828125,0.4375 0,0.078125 0,0.1875 -0.0625,0.5 C 4.71875,-2.25 4.71875,-2.21875 4.71875,-2.1875 c 0,0.078125 0.0625,0.109375 0.109375,0.109375 0.109375,0 0.109375,-0.03125 0.15625,-0.203125 L 5.53125,-4.453125 C 5.5625,-4.5625 5.5625,-4.578125 5.5625,-4.609375 5.5625,-4.625 5.546875,-4.71875 5.4375,-4.71875 5.34375,-4.71875 5.328125,-4.671875 5.296875,-4.5 5.078125,-3.734375 4.859375,-3.546875 4,-3.546875 H 3.09375 l 0.640625,-2.53125 C 3.828125,-6.4375 3.84375,-6.46875 4.28125,-6.46875 h 1.3125 c 1.21875,0 1.453125,0.328125 1.453125,1.09375 0,0.234375 0,0.265625 -0.03125,0.546875 C 7,-4.703125 7,-4.6875 7,-4.65625 c 0,0.046875 0.03125,0.125 0.125,0.125 0.109375,0 0.109375,-0.0625 0.125,-0.25 L 7.453125,-6.515625 C 7.484375,-6.78125 7.4375,-6.78125 7.1875,-6.78125 H 2.296875 c -0.1875,0 -0.296875,0 -0.296875,0.203125 0,0.109375 0.09375,0.109375 0.28125,0.109375 0.375,0 0.65625,0 0.65625,0.171875 0,0.046875 0,0.0625 -0.0625,0.25 L 1.5625,-0.78125 c -0.09375,0.390625 -0.109375,0.46875 -0.90625,0.46875 -0.171875,0 -0.28125,0 -0.28125,0.1875 C 0.375,0 0.5,0 0.53125,0 0.8125,0 1.5625,-0.03125 1.84375,-0.03125 2.171875,-0.03125 3,0 3.328125,0 3.421875,0 3.53125,0 3.53125,-0.1875 3.53125,-0.265625 3.484375,-0.296875 3.484375,-0.296875 3.453125,-0.3125 3.421875,-0.3125 3.203125,-0.3125 c -0.21875,0 -0.265625,0 -0.515625,-0.015625 -0.296875,-0.03125 -0.328125,-0.078125 -0.328125,-0.203125 0,-0.015625 0,-0.078125 0.046875,-0.21875 z m 0,0"
               style="stroke:none" />
          </g>
        </g>
        <g
           id="id-7e45ba8c-bc29-4e9a-9389-414e64fa2ee0"
           style="fill:#000000;fill-opacity:1">
          <g
             transform="translate(155.119,136.259)"
             id="g3926">
            <path
               id="id-54e32570-94d9-466d-9492-1c4b5e16a3d5"
               d="M 1.734375,-0.734375 C 1.671875,-0.5 1.4375,-0.125 1.078125,-0.125 c -0.015625,0 -0.234375,0 -0.375,-0.09375 0.28125,-0.09375 0.3125,-0.34375 0.3125,-0.390625 0,-0.15625 -0.125,-0.25 -0.28125,-0.25 -0.203125,0 -0.40625,0.15625 -0.40625,0.421875 0,0.34375 0.390625,0.5 0.734375,0.5 0.328125,0 0.609375,-0.1875 0.78125,-0.484375 C 2.015625,-0.0625 2.390625,0.0625 2.671875,0.0625 c 0.8125,0 1.234375,-0.859375 1.234375,-1.0625 0,-0.09375 -0.09375,-0.09375 -0.109375,-0.09375 -0.109375,0 -0.109375,0.046875 -0.140625,0.125 -0.140625,0.484375 -0.5625,0.84375 -0.953125,0.84375 -0.28125,0 -0.421875,-0.1875 -0.421875,-0.453125 0,-0.1875 0.171875,-0.8125 0.359375,-1.59375 C 2.78125,-2.703125 3.09375,-2.875 3.328125,-2.875 c 0.015625,0 0.21875,0 0.375,0.09375 -0.21875,0.0625 -0.3125,0.265625 -0.3125,0.390625 0,0.140625 0.125,0.25 0.28125,0.25 0.15625,0 0.390625,-0.125 0.390625,-0.421875 0,-0.390625 -0.453125,-0.515625 -0.71875,-0.515625 -0.359375,0 -0.640625,0.234375 -0.78125,0.5 -0.125,-0.28125 -0.453125,-0.5 -0.84375,-0.5 C 0.9375,-3.078125 0.5,-2.21875 0.5,-2 c 0,0.078125 0.09375,0.078125 0.109375,0.078125 0.09375,0 0.09375,-0.015625 0.140625,-0.109375 C 0.921875,-2.578125 1.359375,-2.875 1.703125,-2.875 1.9375,-2.875 2.125,-2.75 2.125,-2.421875 2.125,-2.28125 2.03125,-1.9375 1.96875,-1.6875 Z m 0,0"
               style="stroke:none" />
          </g>
        </g>
      </g>
    </g>
    <g
       transform="matrix(0.881945 0 0 0.881945 13.3683 141.627)"
       ns1:version="1.0.1"
       ns1:texconverter="pdflatex"
       ns1:pdfconverter="inkscape"
       ns1:text="$N_{1}$"
       ns1:preamble="C:\\Users\\claum\\AppData\\Roaming\\inkscape\\extensions\\textext\\default_packages.tex"
       ns1:scale="2.5"
       ns1:alignment="middle center"
       ns1:inkscapeversion="1.0"
       ns1:jacobian_sqrt="0.881945"
       id="g4164">
      <defs
         id="id-bc007c96-bba5-4efd-8389-b94692159829">
        <g
           id="id-5cb713e1-9676-4c21-a2a3-c01648f63eb8">
          <symbol
             id="id-16930270-ce37-4312-b275-49db48a55d1e"
             overflow="visible">
            <path
               id="id-d9042066-60e7-4e54-a44b-b17e2c8f7bac"
               d=""
               style="stroke:none" />
          </symbol>
          <symbol
             id="id-0388d7e0-596d-4a28-a651-f851a80a350a"
             overflow="visible">
            <path
               id="id-7cc4c6aa-2ffe-4907-b681-59d96fa2f06e"
               d="M 7.53125,-5.765625 C 7.640625,-6.15625 7.8125,-6.46875 8.609375,-6.5 c 0.046875,0 0.171875,-0.015625 0.171875,-0.203125 0,0 0,-0.109375 -0.125,-0.109375 -0.328125,0 -0.6875,0.03125 -1.015625,0.03125 -0.328125,0 -0.6875,-0.03125 -1.015625,-0.03125 -0.0625,0 -0.171875,0 -0.171875,0.203125 C 6.453125,-6.5 6.546875,-6.5 6.625,-6.5 c 0.578125,0.015625 0.6875,0.21875 0.6875,0.4375 0,0.03125 -0.03125,0.1875 -0.03125,0.203125 l -1.125,4.4375 L 3.953125,-6.625 C 3.875,-6.796875 3.875,-6.8125 3.640625,-6.8125 h -1.34375 c -0.1875,0 -0.28125,0 -0.28125,0.203125 0,0.109375 0.09375,0.109375 0.28125,0.109375 0.046875,0 0.671875,0 0.671875,0.09375 L 1.640625,-1.0625 c -0.109375,0.40625 -0.28125,0.71875 -1.078125,0.75 -0.0625,0 -0.171875,0.015625 -0.171875,0.203125 0,0.0625 0.046875,0.109375 0.125,0.109375 0.328125,0 0.671875,-0.03125 1,-0.03125 C 1.859375,-0.03125 2.21875,0 2.546875,0 2.59375,0 2.71875,0 2.71875,-0.203125 2.71875,-0.296875 2.625,-0.3125 2.515625,-0.3125 1.9375,-0.328125 1.859375,-0.546875 1.859375,-0.75 c 0,-0.0625 0.015625,-0.125 0.046875,-0.234375 l 1.3125,-5.25 C 3.265625,-6.1875 3.265625,-6.15625 3.3125,-6.0625 l 2.484375,5.875 C 5.859375,-0.015625 5.890625,0 5.984375,0 6.09375,0 6.09375,-0.03125 6.140625,-0.203125 Z m 0,0"
               style="stroke:none" />
          </symbol>
          <symbol
             id="id-5672abc5-3314-4686-a3e6-912cdec550b9"
             overflow="visible">
            <path
               id="id-08a2e13e-ba7b-4c10-b6d8-9ee86d16e8dd"
               d=""
               style="stroke:none" />
          </symbol>
          <symbol
             id="id-828cd370-ce77-4e3f-93ad-1d6108473a1f"
             overflow="visible">
            <path
               id="id-2b83e00f-4ed1-4869-bc16-b5738d35a176"
               d="m 2.328125,-4.4375 c 0,-0.1875 0,-0.1875 -0.203125,-0.1875 -0.453125,0.4375 -1.078125,0.4375 -1.359375,0.4375 v 0.25 c 0.15625,0 0.625,0 1,-0.1875 v 3.546875 c 0,0.234375 0,0.328125 -0.6875,0.328125 H 0.8125 V 0 c 0.125,0 0.984375,-0.03125 1.234375,-0.03125 0.21875,0 1.09375,0.03125 1.25,0.03125 V -0.25 H 3.03125 c -0.703125,0 -0.703125,-0.09375 -0.703125,-0.328125 z m 0,0"
               style="stroke:none" />
          </symbol>
        </g>
      </defs>
      <g
         transform="translate(50.518402,-148.68901)"
         id="id-28402e5b-6c99-47f6-ac7d-33fba11d6df3">
        <g
           id="id-23d8af2a-564f-47aa-b15c-3fb462189099"
           style="fill:#000000;fill-opacity:1">
          <g
             transform="translate(148.712,134.765)"
             id="g4156">
            <path
               id="id-e0d2c865-092c-42e7-92e4-7c96ed67904b"
               d="M 7.53125,-5.765625 C 7.640625,-6.15625 7.8125,-6.46875 8.609375,-6.5 c 0.046875,0 0.171875,-0.015625 0.171875,-0.203125 0,0 0,-0.109375 -0.125,-0.109375 -0.328125,0 -0.6875,0.03125 -1.015625,0.03125 -0.328125,0 -0.6875,-0.03125 -1.015625,-0.03125 -0.0625,0 -0.171875,0 -0.171875,0.203125 C 6.453125,-6.5 6.546875,-6.5 6.625,-6.5 c 0.578125,0.015625 0.6875,0.21875 0.6875,0.4375 0,0.03125 -0.03125,0.1875 -0.03125,0.203125 l -1.125,4.4375 L 3.953125,-6.625 C 3.875,-6.796875 3.875,-6.8125 3.640625,-6.8125 h -1.34375 c -0.1875,0 -0.28125,0 -0.28125,0.203125 0,0.109375 0.09375,0.109375 0.28125,0.109375 0.046875,0 0.671875,0 0.671875,0.09375 L 1.640625,-1.0625 c -0.109375,0.40625 -0.28125,0.71875 -1.078125,0.75 -0.0625,0 -0.171875,0.015625 -0.171875,0.203125 0,0.0625 0.046875,0.109375 0.125,0.109375 0.328125,0 0.671875,-0.03125 1,-0.03125 C 1.859375,-0.03125 2.21875,0 2.546875,0 2.59375,0 2.71875,0 2.71875,-0.203125 2.71875,-0.296875 2.625,-0.3125 2.515625,-0.3125 1.9375,-0.328125 1.859375,-0.546875 1.859375,-0.75 c 0,-0.0625 0.015625,-0.125 0.046875,-0.234375 l 1.3125,-5.25 C 3.265625,-6.1875 3.265625,-6.15625 3.3125,-6.0625 l 2.484375,5.875 C 5.859375,-0.015625 5.890625,0 5.984375,0 6.09375,0 6.09375,-0.03125 6.140625,-0.203125 Z m 0,0"
               style="stroke:none" />
          </g>
        </g>
        <g
           id="id-06c95848-018d-4850-8bf3-0d9a9c90d2f5"
           style="fill:#000000;fill-opacity:1">
          <g
             transform="translate(156.717,136.259)"
             id="g4160">
            <path
               id="id-9b011b18-a76e-4f0a-bb2e-5466d991cfb4"
               d="m 2.328125,-4.4375 c 0,-0.1875 0,-0.1875 -0.203125,-0.1875 -0.453125,0.4375 -1.078125,0.4375 -1.359375,0.4375 v 0.25 c 0.15625,0 0.625,0 1,-0.1875 v 3.546875 c 0,0.234375 0,0.328125 -0.6875,0.328125 H 0.8125 V 0 c 0.125,0 0.984375,-0.03125 1.234375,-0.03125 0.21875,0 1.09375,0.03125 1.25,0.03125 V -0.25 H 3.03125 c -0.703125,0 -0.703125,-0.09375 -0.703125,-0.328125 z m 0,0"
               style="stroke:none" />
          </g>
        </g>
      </g>
      <g
         transform="matrix(0.881945,0,0,0.881945,-2.1006605,1.3384228)"
         ns1:version="1.0.1"
         ns1:texconverter="pdflatex"
         ns1:pdfconverter="inkscape"
         ns1:text="$N_{2}$"
         ns1:preamble="C:\\Users\\claum\\AppData\\Roaming\\inkscape\\extensions\\textext\\default_packages.tex"
         ns1:scale="2.5"
         ns1:alignment="middle center"
         ns1:inkscapeversion="1.0"
         ns1:jacobian_sqrt="0.881945"
         id="g4415">
        <defs
           id="id-a9ed8666-418b-4789-bf01-c015fb90a323">
          <g
             id="id-6fb60a89-774c-45df-8a95-48442e94af52">
            <symbol
               id="id-c4943551-7750-4619-a900-842583eb41f7"
               overflow="visible">
              <path
                 id="id-241b0923-f048-479d-9441-93d6504b8b43"
                 d=""
                 style="stroke:none" />
            </symbol>
            <symbol
               id="id-b89e3295-552e-465f-aa36-ab6b8b100c28"
               overflow="visible">
              <path
                 id="id-e804c953-078a-4cb2-93ab-33df15425875"
                 d="M 7.53125,-5.765625 C 7.640625,-6.15625 7.8125,-6.46875 8.609375,-6.5 c 0.046875,0 0.171875,-0.015625 0.171875,-0.203125 0,0 0,-0.109375 -0.125,-0.109375 -0.328125,0 -0.6875,0.03125 -1.015625,0.03125 -0.328125,0 -0.6875,-0.03125 -1.015625,-0.03125 -0.0625,0 -0.171875,0 -0.171875,0.203125 C 6.453125,-6.5 6.546875,-6.5 6.625,-6.5 c 0.578125,0.015625 0.6875,0.21875 0.6875,0.4375 0,0.03125 -0.03125,0.1875 -0.03125,0.203125 l -1.125,4.4375 L 3.953125,-6.625 C 3.875,-6.796875 3.875,-6.8125 3.640625,-6.8125 h -1.34375 c -0.1875,0 -0.28125,0 -0.28125,0.203125 0,0.109375 0.09375,0.109375 0.28125,0.109375 0.046875,0 0.671875,0 0.671875,0.09375 L 1.640625,-1.0625 c -0.109375,0.40625 -0.28125,0.71875 -1.078125,0.75 -0.0625,0 -0.171875,0.015625 -0.171875,0.203125 0,0.0625 0.046875,0.109375 0.125,0.109375 0.328125,0 0.671875,-0.03125 1,-0.03125 C 1.859375,-0.03125 2.21875,0 2.546875,0 2.59375,0 2.71875,0 2.71875,-0.203125 2.71875,-0.296875 2.625,-0.3125 2.515625,-0.3125 1.9375,-0.328125 1.859375,-0.546875 1.859375,-0.75 c 0,-0.0625 0.015625,-0.125 0.046875,-0.234375 l 1.3125,-5.25 C 3.265625,-6.1875 3.265625,-6.15625 3.3125,-6.0625 l 2.484375,5.875 C 5.859375,-0.015625 5.890625,0 5.984375,0 6.09375,0 6.09375,-0.03125 6.140625,-0.203125 Z m 0,0"
                 style="stroke:none" />
            </symbol>
            <symbol
               id="id-0a3da3d7-3628-4eff-b063-eb031883c67a"
               overflow="visible">
              <path
                 id="id-4ea1baf7-7da0-4130-adb4-9591aac8663c"
                 d=""
                 style="stroke:none" />
            </symbol>
            <symbol
               id="id-9bfb1b32-aa13-4f73-8992-a06692a79e6b"
               overflow="visible">
              <path
                 id="id-d14eac60-51e7-41ae-bb1c-d44d258654ae"
                 d="M 3.515625,-1.265625 H 3.28125 c -0.015625,0.15625 -0.09375,0.5625 -0.1875,0.625 C 3.046875,-0.59375 2.515625,-0.59375 2.40625,-0.59375 H 1.125 c 0.734375,-0.640625 0.984375,-0.84375 1.390625,-1.171875 0.515625,-0.40625 1,-0.84375 1,-1.5 0,-0.84375 -0.734375,-1.359375 -1.625,-1.359375 -0.859375,0 -1.453125,0.609375 -1.453125,1.25 0,0.34375 0.296875,0.390625 0.375,0.390625 0.15625,0 0.359375,-0.125 0.359375,-0.375 0,-0.125 -0.046875,-0.375 -0.40625,-0.375 C 0.984375,-4.21875 1.453125,-4.375 1.78125,-4.375 c 0.703125,0 1.0625,0.546875 1.0625,1.109375 0,0.609375 -0.4375,1.078125 -0.65625,1.328125 L 0.515625,-0.265625 C 0.4375,-0.203125 0.4375,-0.1875 0.4375,0 h 2.875 z m 0,0"
                 style="stroke:none" />
            </symbol>
          </g>
        </defs>
        <g
           transform="translate(-149.103,-127.953)"
           id="id-d1c90019-93e8-4c98-b562-be6845212145">
          <g
             id="id-f643f045-ab3e-47e8-b427-4a3fc32dd026"
             style="fill:#000000;fill-opacity:1">
            <g
               transform="translate(148.712,134.765)"
               id="g4407">
              <path
                 id="id-61c17c26-7785-4144-86e9-e4ca5ad1c2c4"
                 d="M 7.53125,-5.765625 C 7.640625,-6.15625 7.8125,-6.46875 8.609375,-6.5 c 0.046875,0 0.171875,-0.015625 0.171875,-0.203125 0,0 0,-0.109375 -0.125,-0.109375 -0.328125,0 -0.6875,0.03125 -1.015625,0.03125 -0.328125,0 -0.6875,-0.03125 -1.015625,-0.03125 -0.0625,0 -0.171875,0 -0.171875,0.203125 C 6.453125,-6.5 6.546875,-6.5 6.625,-6.5 c 0.578125,0.015625 0.6875,0.21875 0.6875,0.4375 0,0.03125 -0.03125,0.1875 -0.03125,0.203125 l -1.125,4.4375 L 3.953125,-6.625 C 3.875,-6.796875 3.875,-6.8125 3.640625,-6.8125 h -1.34375 c -0.1875,0 -0.28125,0 -0.28125,0.203125 0,0.109375 0.09375,0.109375 0.28125,0.109375 0.046875,0 0.671875,0 0.671875,0.09375 L 1.640625,-1.0625 c -0.109375,0.40625 -0.28125,0.71875 -1.078125,0.75 -0.0625,0 -0.171875,0.015625 -0.171875,0.203125 0,0.0625 0.046875,0.109375 0.125,0.109375 0.328125,0 0.671875,-0.03125 1,-0.03125 C 1.859375,-0.03125 2.21875,0 2.546875,0 2.59375,0 2.71875,0 2.71875,-0.203125 2.71875,-0.296875 2.625,-0.3125 2.515625,-0.3125 1.9375,-0.328125 1.859375,-0.546875 1.859375,-0.75 c 0,-0.0625 0.015625,-0.125 0.046875,-0.234375 l 1.3125,-5.25 C 3.265625,-6.1875 3.265625,-6.15625 3.3125,-6.0625 l 2.484375,5.875 C 5.859375,-0.015625 5.890625,0 5.984375,0 6.09375,0 6.09375,-0.03125 6.140625,-0.203125 Z m 0,0"
                 style="stroke:none" />
            </g>
          </g>
          <g
             id="id-1df7d4a2-05aa-42c7-9ca3-483901968109"
             style="fill:#000000;fill-opacity:1">
            <g
               transform="translate(156.717,136.259)"
               id="g4411">
              <path
                 id="id-979fa823-b408-48a8-9fe2-cfa80ea48bc4"
                 d="M 3.515625,-1.265625 H 3.28125 c -0.015625,0.15625 -0.09375,0.5625 -0.1875,0.625 C 3.046875,-0.59375 2.515625,-0.59375 2.40625,-0.59375 H 1.125 c 0.734375,-0.640625 0.984375,-0.84375 1.390625,-1.171875 0.515625,-0.40625 1,-0.84375 1,-1.5 0,-0.84375 -0.734375,-1.359375 -1.625,-1.359375 -0.859375,0 -1.453125,0.609375 -1.453125,1.25 0,0.34375 0.296875,0.390625 0.375,0.390625 0.15625,0 0.359375,-0.125 0.359375,-0.375 0,-0.125 -0.046875,-0.375 -0.40625,-0.375 C 0.984375,-4.21875 1.453125,-4.375 1.78125,-4.375 c 0.703125,0 1.0625,0.546875 1.0625,1.109375 0,0.609375 -0.4375,1.078125 -0.65625,1.328125 L 0.515625,-0.265625 C 0.4375,-0.203125 0.4375,-0.1875 0.4375,0 h 2.875 z m 0,0"
                 style="stroke:none" />
            </g>
          </g>
        </g>
      </g>
    </g>
  </g>
</svg>
