<?xml version="1.0" encoding="UTF-8" standalone="no"?>
<svg
   xmlns:ns2="http://www.iki.fi/pav/software/textext/"
   xmlns:dc="http://purl.org/dc/elements/1.1/"
   xmlns:cc="http://creativecommons.org/ns#"
   xmlns:rdf="http://www.w3.org/1999/02/22-rdf-syntax-ns#"
   xmlns:svg="http://www.w3.org/2000/svg"
   xmlns="http://www.w3.org/2000/svg"
   xmlns:sodipodi="http://sodipodi.sourceforge.net/DTD/sodipodi-0.dtd"
   xmlns:inkscape="http://www.inkscape.org/namespaces/inkscape"
   width="22cm"
   height="29cm"
   viewBox="0 0 220 289.99999"
   version="1.1"
   id="svg3397"
   inkscape:version="1.0 (4035a4fb49, 2020-05-01)"
   sodipodi:docname="Figura3_4.svg">
  <defs
     id="defs3391">
    <marker
       inkscape:stockid="Arrow2Send"
       orient="auto"
       refY="0.0"
       refX="0.0"
       id="Arrow2Send"
       style="overflow:visible;"
       inkscape:isstock="true">
      <path
         id="path1259"
         style="fill-rule:evenodd;stroke-width:0.625;stroke-linejoin:round;stroke:#000000;stroke-opacity:1;fill:#000000;fill-opacity:1"
         d="M 8.7185878,4.0337352 L -2.2072895,0.016013256 L 8.7185884,-4.0017078 C 6.9730900,-1.6296469 6.9831476,1.6157441 8.7185878,4.0337352 z "
         transform="scale(0.3) rotate(180) translate(-2.3,0)" />
    </marker>
    <marker
       inkscape:isstock="true"
       style="overflow:visible"
       id="marker4501"
       refX="0"
       refY="0"
       orient="auto"
       inkscape:stockid="Arrow1Lend">
      <path
         transform="matrix(-0.8,0,0,-0.8,-10,0)"
         style="fill:#000000;fill-opacity:1;fill-rule:evenodd;stroke:#000000;stroke-width:1pt;stroke-opacity:1"
         d="M 0,0 5,-5 -12.5,0 5,5 Z"
         id="path4499" />
    </marker>
    <marker
       inkscape:stockid="Arrow1Lstart"
       orient="auto"
       refY="0.0"
       refX="0.0"
       id="Arrow1Lstart"
       style="overflow:visible"
       inkscape:isstock="true">
      <path
         id="path1226"
         d="M 0.0,0.0 L 5.0,-5.0 L -12.5,0.0 L 5.0,5.0 L 0.0,0.0 z "
         style="fill-rule:evenodd;stroke:#000000;stroke-width:1pt;stroke-opacity:1;fill:#000000;fill-opacity:1"
         transform="scale(0.8) translate(12.5,0)" />
    </marker>
    <marker
       inkscape:stockid="Arrow1Lend"
       orient="auto"
       refY="0"
       refX="0"
       id="Arrow1Lend"
       style="overflow:visible"
       inkscape:isstock="true"
       inkscape:collect="always">
      <path
         id="path1229"
         d="M 0,0 5,-5 -12.5,0 5,5 Z"
         style="fill:#000000;fill-opacity:1;fill-rule:evenodd;stroke:#000000;stroke-width:1pt;stroke-opacity:1"
         transform="matrix(-0.8,0,0,-0.8,-10,0)" />
    </marker>
  </defs>
  <sodipodi:namedview
     id="base"
     pagecolor="#ffffff"
     bordercolor="#666666"
     borderopacity="1.0"
     inkscape:pageopacity="0.0"
     inkscape:pageshadow="2"
     inkscape:zoom="0.35355339"
     inkscape:cx="447.79373"
     inkscape:cy="505.79074"
     inkscape:document-units="mm"
     inkscape:current-layer="layer1"
     inkscape:document-rotation="0"
     showgrid="true"
     units="cm"
     showguides="false"
     inkscape:window-width="1366"
     inkscape:window-height="738"
     inkscape:window-x="0"
     inkscape:window-y="0"
     inkscape:window-maximized="0">
    <inkscape:grid
       type="xygrid"
       id="grid3399"
       units="cm" />
  </sodipodi:namedview>
  <metadata
     id="metadata3394">
    <rdf:RDF>
      <cc:Work
         rdf:about="">
        <dc:format>image/svg+xml</dc:format>
        <dc:type
           rdf:resource="http://purl.org/dc/dcmitype/StillImage" />
        <dc:title></dc:title>
      </cc:Work>
    </rdf:RDF>
  </metadata>
  <g
     inkscape:label="Livello 1"
     inkscape:groupmode="layer"
     id="layer1">
    <g
       id="g4002"
       transform="translate(-10,13.26771)">
      <path
         sodipodi:nodetypes="cc"
         id="path3403"
         d="M 15,265 H 155"
         style="fill:none;stroke:#000000;stroke-width:0.264583px;stroke-linecap:butt;stroke-linejoin:miter;stroke-opacity:1" />
      <path
         id="path3405"
         d="M 15,265 220,0 155,265"
         style="fill:none;stroke:#000000;stroke-width:0.264583px;stroke-linecap:butt;stroke-linejoin:miter;stroke-opacity:1" />
      <path
         id="path3407"
         d="M 84.999998,265 220,0"
         style="fill:none;stroke:#000000;stroke-width:0.265;stroke-linecap:butt;stroke-linejoin:miter;stroke-miterlimit:4;stroke-dasharray:0.53, 0.265, 0.1325, 0.265;stroke-dashoffset:0;stroke-opacity:1" />
      <path
         id="path3970"
         d="M 15,176.73229 H 205"
         style="fill:none;stroke:#000000;stroke-width:0.264583px;stroke-linecap:butt;stroke-linejoin:miter;stroke-opacity:1" />
      <path
         sodipodi:nodetypes="cc"
         id="path3972"
         d="m 220,0 3,-6"
         style="fill:none;stroke:#000000;stroke-width:0.264583px;stroke-linecap:butt;stroke-linejoin:miter;stroke-opacity:1;marker-end:url(#Arrow1Lend)" />
      <circle
         r="2"
         cy="176.7325"
         cx="130"
         id="path3988"
         style="opacity:1;fill:#000000;stroke:#000000;stroke-width:0.264999;stroke-miterlimit:4;stroke-dasharray:none;stroke-dashoffset:0" />
    </g>
    <g
       id="g4064"
       ns2:jacobian_sqrt="1.23472"
       ns2:alignment="middle center"
       ns2:scale="3.5"
       ns2:preamble="C:\\Users\\claum\\AppData\\Roaming\\inkscape\\extensions\\textext\\default_packages.tex"
       ns2:text="$\\mathbf{G}$"
       ns2:pdfconverter="inkscape"
       ns2:texconverter="pdflatex"
       ns2:version="1.0.1"
       transform="matrix(1.23472,0,0,1.23472,120.88795,191.81047)">
      <defs
         id="id-e8ecde33-edf9-414b-ad34-ae9753f69bca">
        <g
           id="id-63aab81a-1581-4801-afc2-a2d290824dae">
          <symbol
             overflow="visible"
             id="id-d8f97a91-3c12-419b-969c-a8d22561e7eb">
            <path
               style="stroke:none"
               d=""
               id="id-b97aaedd-bcdf-4c81-9126-ab28e196a28f" />
          </symbol>
          <symbol
             overflow="visible"
             id="id-0d704b1b-4b30-4daf-8820-e3ada6c4f10a">
            <path
               style="stroke:none"
               d="M 6.515625,-0.53125 C 6.8125,-0.265625 7.421875,0 7.484375,0 7.625,0 7.625,-0.125 7.625,-0.28125 v -2 H 8.421875 V -2.75 c -0.34375,0.03125 -1.21875,0.03125 -1.609375,0.03125 -0.578125,0 -1.5,0 -2.03125,-0.03125 v 0.46875 h 1.421875 v 1 c 0,0.1875 0,0.484375 -0.375,0.71875 C 5.5625,-0.421875 5.25,-0.359375 4.921875,-0.359375 c -0.859375,0 -1.71875,-0.28125 -2.203125,-0.90625 -0.421875,-0.546875 -0.5625,-1.25 -0.5625,-2.15625 0,-1.125 0.203125,-1.703125 0.578125,-2.1875 0.390625,-0.5 1.15625,-0.875 2.125,-0.875 1.0625,0 2.015625,0.765625 2.234375,2.03125 C 7.125,-4.265625 7.125,-4.25 7.359375,-4.25 c 0.25,0 0.265625,-0.015625 0.265625,-0.28125 v -2.140625 c 0,-0.1875 0,-0.28125 -0.171875,-0.28125 -0.09375,0 -0.109375,0.03125 -0.203125,0.09375 l -0.65625,0.59375 c -0.71875,-0.578125 -1.4375,-0.6875 -1.953125,-0.6875 -2.453125,0 -4,1.46875 -4,3.53125 0,1.984375 1.4375,3.53125 4.015625,3.53125 0.328125,0 1.359375,-0.015625 1.859375,-0.640625 z m 0,0"
               id="id-d9efd0b9-0ae5-4f26-9725-fb02e2053477" />
          </symbol>
        </g>
      </defs>
      <g
         id="id-7a3a1edb-7989-45ad-9862-de6104c14917"
         transform="translate(-149.353,-127.812)">
        <g
           style="fill:#000000;fill-opacity:1"
           id="id-ab2303f4-2db8-4885-8628-2c0230110453">
          <g
             id="g4060"
             transform="translate(148.712,134.765)">
            <path
               style="stroke:none"
               d="M 6.515625,-0.53125 C 6.8125,-0.265625 7.421875,0 7.484375,0 7.625,0 7.625,-0.125 7.625,-0.28125 v -2 H 8.421875 V -2.75 c -0.34375,0.03125 -1.21875,0.03125 -1.609375,0.03125 -0.578125,0 -1.5,0 -2.03125,-0.03125 v 0.46875 h 1.421875 v 1 c 0,0.1875 0,0.484375 -0.375,0.71875 C 5.5625,-0.421875 5.25,-0.359375 4.921875,-0.359375 c -0.859375,0 -1.71875,-0.28125 -2.203125,-0.90625 -0.421875,-0.546875 -0.5625,-1.25 -0.5625,-2.15625 0,-1.125 0.203125,-1.703125 0.578125,-2.1875 0.390625,-0.5 1.15625,-0.875 2.125,-0.875 1.0625,0 2.015625,0.765625 2.234375,2.03125 C 7.125,-4.265625 7.125,-4.25 7.359375,-4.25 c 0.25,0 0.265625,-0.015625 0.265625,-0.28125 v -2.140625 c 0,-0.1875 0,-0.28125 -0.171875,-0.28125 -0.09375,0 -0.109375,0.03125 -0.203125,0.09375 l -0.65625,0.59375 c -0.71875,-0.578125 -1.4375,-0.6875 -1.953125,-0.6875 -2.453125,0 -4,1.46875 -4,3.53125 0,1.984375 1.4375,3.53125 4.015625,3.53125 0.328125,0 1.359375,-0.015625 1.859375,-0.640625 z m 0,0"
               id="id-dfb7a7ee-ed7b-4d8f-8904-bd4da62a5bb9" />
          </g>
        </g>
      </g>
    </g>
    <g
       id="g4115"
       ns2:jacobian_sqrt="1.23472"
       ns2:alignment="middle center"
       ns2:scale="3.5"
       ns2:preamble="C:\\Users\\claum\\AppData\\Roaming\\inkscape\\extensions\\textext\\default_packages.tex"
       ns2:text="$\\mathbf{A}$"
       ns2:pdfconverter="inkscape"
       ns2:texconverter="pdflatex"
       ns2:version="1.0.1"
       transform="matrix(1.23472 0 0 1.23472 0.716756 278.782)">
      <defs
         id="id-9b599858-ccf8-4f35-bb55-9f5c05030e2d">
        <g
           id="id-74d53d3e-959e-4456-87e3-7a2e799f5e10">
          <symbol
             overflow="visible"
             id="id-90d83ccd-bd92-4b88-85f8-edaa39a7b061">
            <path
               style="stroke:none"
               d=""
               id="id-a0766227-3116-48b5-b954-9460169caa64" />
          </symbol>
          <symbol
             overflow="visible"
             id="id-e4de8d79-0018-458d-90ec-f73f3df7815d">
            <path
               style="stroke:none"
               d="m 4.71875,-6.703125 c -0.109375,-0.25 -0.21875,-0.25 -0.390625,-0.25 -0.28125,0 -0.328125,0.078125 -0.390625,0.25 l -2.46875,6 C 1.40625,-0.546875 1.375,-0.46875 0.625,-0.46875 H 0.40625 V 0 c 0.375,-0.015625 0.859375,-0.03125 1.171875,-0.03125 0.390625,0 0.9375,0 1.3125,0.03125 V -0.46875 C 2.875,-0.46875 2,-0.46875 2,-0.59375 c 0,-0.015625 0.03125,-0.109375 0.046875,-0.125 l 0.5,-1.203125 H 5.21875 L 5.8125,-0.46875 H 4.859375 V 0 C 5.25,-0.03125 6.1875,-0.03125 6.625,-0.03125 c 0.390625,0 1.265625,0 1.625,0.03125 V -0.46875 H 7.28125 Z M 3.875,-5.15625 5.015625,-2.390625 h -2.28125 z m 0,0"
               id="id-811b1cf0-d64f-465c-8683-09f849755c7d" />
          </symbol>
        </g>
      </defs>
      <g
         id="id-1f27beab-c051-4622-a809-8bd28d2c5d42"
         transform="translate(-149.118,-127.812)">
        <g
           style="fill:#000000;fill-opacity:1"
           id="id-a62f4edb-addb-4f07-9b08-9c098a9b7f9a">
          <g
             id="g4111"
             transform="translate(148.712,134.765)">
            <path
               style="stroke:none"
               d="m 4.71875,-6.703125 c -0.109375,-0.25 -0.21875,-0.25 -0.390625,-0.25 -0.28125,0 -0.328125,0.078125 -0.390625,0.25 l -2.46875,6 C 1.40625,-0.546875 1.375,-0.46875 0.625,-0.46875 H 0.40625 V 0 c 0.375,-0.015625 0.859375,-0.03125 1.171875,-0.03125 0.390625,0 0.9375,0 1.3125,0.03125 V -0.46875 C 2.875,-0.46875 2,-0.46875 2,-0.59375 c 0,-0.015625 0.03125,-0.109375 0.046875,-0.125 l 0.5,-1.203125 H 5.21875 L 5.8125,-0.46875 H 4.859375 V 0 C 5.25,-0.03125 6.1875,-0.03125 6.625,-0.03125 c 0.390625,0 1.265625,0 1.625,0.03125 V -0.46875 H 7.28125 Z M 3.875,-5.15625 5.015625,-2.390625 h -2.28125 z m 0,0"
               id="id-67654b32-0ee6-48da-a120-eb8f8e64ecad" />
          </g>
        </g>
      </g>
    </g>
    <g
       id="g4226"
       ns2:jacobian_sqrt="1.23472"
       ns2:alignment="middle center"
       ns2:scale="3.5"
       ns2:preamble="C:\\Users\\claum\\AppData\\Roaming\\inkscape\\extensions\\textext\\default_packages.tex"
       ns2:text="$\\mathbf{B}$"
       ns2:pdfconverter="inkscape"
       ns2:texconverter="pdflatex"
       ns2:version="1.0.1"
       transform="matrix(1.23472,0,0,1.23472,141.068,279.16048)">
      <defs
         id="id-e71d727b-c5c2-490a-ad3c-5c8d1f4aabf2">
        <g
           id="id-ed4e05b0-8f9f-4f8a-b7d1-d4d5744c14d4">
          <symbol
             overflow="visible"
             id="id-45c3b5a0-32b3-4514-9821-fad4376b4c6c">
            <path
               style="stroke:none"
               d=""
               id="id-3fcab12a-df7e-431e-a0de-a476d7ed84f6" />
          </symbol>
          <symbol
             overflow="visible"
             id="id-d977720c-4f6e-443c-b149-8ac9196c6d53">
            <path
               style="stroke:none"
               d="M 2.765625,-3.734375 V -6.375 h 1.8125 c 1.015625,0 1.1875,0.796875 1.1875,1.25 0,0.765625 -0.46875,1.390625 -1.4375,1.390625 z M 5.46875,-3.5625 C 6.546875,-3.765625 7.1875,-4.359375 7.1875,-5.125 c 0,-0.921875 -0.875,-1.71875 -2.46875,-1.71875 H 0.390625 V -6.375 H 1.46875 v 5.90625 H 0.390625 V 0 h 4.625 C 6.671875,0 7.5,-0.875 7.5,-1.859375 7.5,-2.8125 6.65625,-3.484375 5.46875,-3.5625 Z M 4.609375,-0.46875 H 2.765625 V -3.375 h 1.9375 c 0.203125,0 0.671875,0 1.015625,0.421875 0.328125,0.421875 0.328125,0.984375 0.328125,1.09375 0,0.109375 0,1.390625 -1.4375,1.390625 z m 0,0"
               id="id-9f9d63c5-59be-4be2-ab9e-0a75098da214" />
          </symbol>
        </g>
      </defs>
      <g
         id="id-099059b6-4746-4395-ae92-410817f9898d"
         transform="translate(-149.103,-127.921)">
        <g
           style="fill:#000000;fill-opacity:1"
           id="id-f6421caa-00b0-4cb5-bcd3-35280a37af13">
          <g
             id="g4222"
             transform="translate(148.712,134.765)">
            <path
               style="stroke:none"
               d="M 2.765625,-3.734375 V -6.375 h 1.8125 c 1.015625,0 1.1875,0.796875 1.1875,1.25 0,0.765625 -0.46875,1.390625 -1.4375,1.390625 z M 5.46875,-3.5625 C 6.546875,-3.765625 7.1875,-4.359375 7.1875,-5.125 c 0,-0.921875 -0.875,-1.71875 -2.46875,-1.71875 H 0.390625 V -6.375 H 1.46875 v 5.90625 H 0.390625 V 0 h 4.625 C 6.671875,0 7.5,-0.875 7.5,-1.859375 7.5,-2.8125 6.65625,-3.484375 5.46875,-3.5625 Z M 4.609375,-0.46875 H 2.765625 V -3.375 h 1.9375 c 0.203125,0 0.671875,0 1.015625,0.421875 0.328125,0.421875 0.328125,0.984375 0.328125,1.09375 0,0.109375 0,1.390625 -1.4375,1.390625 z m 0,0"
               id="id-43fd962e-060c-470f-86da-d517be5250f8" />
          </g>
        </g>
      </g>
    </g>
    <path
       style="opacity:0.0991253;fill:#000000;stroke:#000000;stroke-width:2.00314;stroke-miterlimit:4;stroke-dasharray:none;stroke-dashoffset:0"
       d="m 461.45489,713.53447 c -1.75612,-3.28134 0.75619,-9.50744 14.7282,-36.5 15.22187,-29.40716 135.15146,-265.00712 235.96194,-463.54382 57.37544,-112.99553 74.2262,-145.694912 74.7954,-145.142589 0.27994,0.271652 -35.27006,146.437159 -79,324.812249 l -79.509,324.31834 -82.42963,0.006 c -80.08153,0.006 -82.48994,-0.1068 -84.54691,-3.95018 z"
       id="path4418"
       transform="scale(0.26458333)" />
    <g
       id="g4299"
       ns2:jacobian_sqrt="1.23472"
       ns2:alignment="middle center"
       ns2:scale="3.5"
       ns2:preamble="C:\\Users\\claum\\AppData\\Roaming\\inkscape\\extensions\\textext\\default_packages.tex"
       ns2:text="$\\mathbf{C}$"
       ns2:pdfconverter="inkscape"
       ns2:texconverter="pdflatex"
       ns2:version="1.0.1"
       transform="matrix(1.23472,0,0,1.23472,197.63073,9.1512843)">
      <defs
         id="id-a9a8c123-cab3-493a-8c9e-a481b14d84f1">
        <g
           id="id-7d189e47-804a-4a68-8035-3411d7fc59d7">
          <symbol
             overflow="visible"
             id="id-407a2846-116c-429a-9475-aebe1c0296b2">
            <path
               style="stroke:none"
               d=""
               id="id-8ac0cec3-0985-4e53-b527-857d54477e5e" />
          </symbol>
          <symbol
             overflow="visible"
             id="id-24f9eb95-7756-4b3d-9837-844043f207b9">
            <path
               style="stroke:none"
               d="m 7.640625,-6.671875 c 0,-0.1875 0,-0.28125 -0.1875,-0.28125 -0.09375,0 -0.109375,0.03125 -0.1875,0.09375 l -0.65625,0.59375 c -0.625,-0.5 -1.28125,-0.6875 -1.96875,-0.6875 -2.484375,0 -4,1.484375 -4,3.53125 0,2.046875 1.515625,3.53125 4,3.53125 1.875,0 3,-1.21875 3,-2.375 0,-0.203125 -0.078125,-0.203125 -0.25,-0.203125 -0.125,0 -0.21875,0 -0.21875,0.171875 -0.078125,1.328125 -1.28125,1.9375 -2.28125,1.9375 -0.78125,0 -1.625,-0.234375 -2.140625,-0.84375 -0.46875,-0.578125 -0.59375,-1.3125 -0.59375,-2.21875 0,-0.5625 0.03125,-1.625 0.671875,-2.296875 0.640625,-0.65625 1.515625,-0.765625 2.03125,-0.765625 1.078125,0 2.015625,0.765625 2.234375,2.03125 C 7.125,-4.265625 7.140625,-4.25 7.359375,-4.25 c 0.265625,0 0.28125,-0.015625 0.28125,-0.28125 z m 0,0"
               id="id-929f2e76-d2ad-4852-b308-e34cc918cd21" />
          </symbol>
        </g>
      </defs>
      <g
         id="id-d19abd10-b303-4065-b471-cebaa5252f82"
         transform="translate(-149.353,-127.812)">
        <g
           style="fill:#000000;fill-opacity:1"
           id="id-30cb11b4-6d73-4d01-906e-934a66c12cf7">
          <g
             id="g4295"
             transform="translate(148.712,134.765)">
            <path
               style="stroke:none"
               d="m 7.640625,-6.671875 c 0,-0.1875 0,-0.28125 -0.1875,-0.28125 -0.09375,0 -0.109375,0.03125 -0.1875,0.09375 l -0.65625,0.59375 c -0.625,-0.5 -1.28125,-0.6875 -1.96875,-0.6875 -2.484375,0 -4,1.484375 -4,3.53125 0,2.046875 1.515625,3.53125 4,3.53125 1.875,0 3,-1.21875 3,-2.375 0,-0.203125 -0.078125,-0.203125 -0.25,-0.203125 -0.125,0 -0.21875,0 -0.21875,0.171875 -0.078125,1.328125 -1.28125,1.9375 -2.28125,1.9375 -0.78125,0 -1.625,-0.234375 -2.140625,-0.84375 -0.46875,-0.578125 -0.59375,-1.3125 -0.59375,-2.21875 0,-0.5625 0.03125,-1.625 0.671875,-2.296875 0.640625,-0.65625 1.515625,-0.765625 2.03125,-0.765625 1.078125,0 2.015625,0.765625 2.234375,2.03125 C 7.125,-4.265625 7.140625,-4.25 7.359375,-4.25 c 0.265625,0 0.28125,-0.015625 0.28125,-0.28125 z m 0,0"
               id="id-cad2948c-47f0-4ab5-9a05-855ae67a03b6" />
          </g>
        </g>
      </g>
    </g>
    <g
       id="g4391"
       ns2:jacobian_sqrt="1.23472"
       ns2:alignment="middle center"
       ns2:scale="3.5"
       ns2:preamble="C:\\Users\\claum\\AppData\\Roaming\\inkscape\\extensions\\textext\\default_packages.tex"
       ns2:text="$r_0$"
       ns2:pdfconverter="inkscape"
       ns2:texconverter="pdflatex"
       ns2:version="1.0.1"
       transform="matrix(1.23472,0,0,1.23472,196.70435,76.321861)">
      <defs
         id="id-46726f11-ee5d-452a-aabe-278add2fc750">
        <g
           id="id-d2ea657e-2c7a-44c8-af4b-4954ec1c7d94">
          <symbol
             overflow="visible"
             id="id-f023f3e6-34d5-4bc0-b695-1a2f30ad38cc">
            <path
               style="stroke:none"
               d=""
               id="id-d5d3a1f8-1c50-42c9-b6b6-3bbe0469d5e9" />
          </symbol>
          <symbol
             overflow="visible"
             id="id-1eab992b-ec71-464a-8bb7-9d6362b87abb">
            <path
               style="stroke:none"
               d="m 0.875,-0.59375 c -0.03125,0.15625 -0.09375,0.390625 -0.09375,0.4375 0,0.171875 0.140625,0.265625 0.296875,0.265625 0.125,0 0.296875,-0.078125 0.375,-0.28125 C 1.46875,-0.203125 1.796875,-1.5625 1.84375,-1.75 c 0.078125,-0.328125 0.265625,-1.015625 0.3125,-1.296875 0.046875,-0.125 0.328125,-0.59375 0.5625,-0.8125 0.078125,-0.0625 0.375,-0.328125 0.796875,-0.328125 0.265625,0 0.40625,0.125 0.421875,0.125 -0.296875,0.046875 -0.515625,0.28125 -0.515625,0.546875 0,0.15625 0.109375,0.34375 0.375,0.34375 0.265625,0 0.546875,-0.234375 0.546875,-0.59375 0,-0.34375 -0.3125,-0.640625 -0.828125,-0.640625 C 2.875,-4.40625 2.4375,-3.921875 2.25,-3.640625 2.15625,-4.09375 1.796875,-4.40625 1.328125,-4.40625 0.875,-4.40625 0.6875,-4.015625 0.59375,-3.84375 0.421875,-3.5 0.296875,-2.90625 0.296875,-2.875 c 0,0.109375 0.09375,0.109375 0.109375,0.109375 0.109375,0 0.109375,-0.015625 0.171875,-0.234375 0.171875,-0.703125 0.375,-1.1875 0.734375,-1.1875 0.15625,0 0.296875,0.078125 0.296875,0.453125 0,0.21875 -0.03125,0.328125 -0.15625,0.84375 z m 0,0"
               id="id-b16730c0-6ff7-4a33-a689-12c81d061448" />
          </symbol>
          <symbol
             overflow="visible"
             id="id-85519f36-6de8-47fe-9984-56e86bb60d18">
            <path
               style="stroke:none"
               d=""
               id="id-36b492fe-ea86-4f52-b76c-aaa59e57d85a" />
          </symbol>
          <symbol
             overflow="visible"
             id="id-f494dfd1-0426-4d22-91c9-4ed0f0bfdc4a">
            <path
               style="stroke:none"
               d="M 3.59375,-2.21875 C 3.59375,-2.984375 3.5,-3.546875 3.1875,-4.03125 2.96875,-4.34375 2.53125,-4.625 1.984375,-4.625 c -1.625,0 -1.625,1.90625 -1.625,2.40625 0,0.5 0,2.359375 1.625,2.359375 1.609375,0 1.609375,-1.859375 1.609375,-2.359375 z M 1.984375,-0.0625 c -0.328125,0 -0.75,-0.1875 -0.890625,-0.75 C 1,-1.21875 1,-1.796875 1,-2.3125 1,-2.828125 1,-3.359375 1.09375,-3.734375 1.25,-4.28125 1.6875,-4.4375 1.984375,-4.4375 c 0.375,0 0.734375,0.234375 0.859375,0.640625 0.109375,0.375 0.125,0.875 0.125,1.484375 0,0.515625 0,1.03125 -0.09375,1.46875 -0.140625,0.640625 -0.609375,0.78125 -0.890625,0.78125 z m 0,0"
               id="id-188add84-9fba-4a1f-8314-6a265c813c85" />
          </symbol>
        </g>
      </defs>
      <g
         id="id-1ab0958c-f748-4d62-887d-2e8a01e4379d"
         transform="translate(-149.009,-130.359)">
        <g
           style="fill:#000000;fill-opacity:1"
           id="id-44bf0376-60e6-4f02-8434-ac36aabb5a91">
          <g
             id="g4383"
             transform="translate(148.712,134.765)">
            <path
               style="stroke:none"
               d="m 0.875,-0.59375 c -0.03125,0.15625 -0.09375,0.390625 -0.09375,0.4375 0,0.171875 0.140625,0.265625 0.296875,0.265625 0.125,0 0.296875,-0.078125 0.375,-0.28125 C 1.46875,-0.203125 1.796875,-1.5625 1.84375,-1.75 c 0.078125,-0.328125 0.265625,-1.015625 0.3125,-1.296875 0.046875,-0.125 0.328125,-0.59375 0.5625,-0.8125 0.078125,-0.0625 0.375,-0.328125 0.796875,-0.328125 0.265625,0 0.40625,0.125 0.421875,0.125 -0.296875,0.046875 -0.515625,0.28125 -0.515625,0.546875 0,0.15625 0.109375,0.34375 0.375,0.34375 0.265625,0 0.546875,-0.234375 0.546875,-0.59375 0,-0.34375 -0.3125,-0.640625 -0.828125,-0.640625 C 2.875,-4.40625 2.4375,-3.921875 2.25,-3.640625 2.15625,-4.09375 1.796875,-4.40625 1.328125,-4.40625 0.875,-4.40625 0.6875,-4.015625 0.59375,-3.84375 0.421875,-3.5 0.296875,-2.90625 0.296875,-2.875 c 0,0.109375 0.09375,0.109375 0.109375,0.109375 0.109375,0 0.109375,-0.015625 0.171875,-0.234375 0.171875,-0.703125 0.375,-1.1875 0.734375,-1.1875 0.15625,0 0.296875,0.078125 0.296875,0.453125 0,0.21875 -0.03125,0.328125 -0.15625,0.84375 z m 0,0"
               id="id-6920b710-8135-4623-a496-c2342070b490" />
          </g>
        </g>
        <g
           style="fill:#000000;fill-opacity:1"
           id="id-30f89fe3-7d60-4e29-898b-c689d4fa8da0">
          <g
             id="g4387"
             transform="translate(153.207,136.259)">
            <path
               style="stroke:none"
               d="M 3.59375,-2.21875 C 3.59375,-2.984375 3.5,-3.546875 3.1875,-4.03125 2.96875,-4.34375 2.53125,-4.625 1.984375,-4.625 c -1.625,0 -1.625,1.90625 -1.625,2.40625 0,0.5 0,2.359375 1.625,2.359375 1.609375,0 1.609375,-1.859375 1.609375,-2.359375 z M 1.984375,-0.0625 c -0.328125,0 -0.75,-0.1875 -0.890625,-0.75 C 1,-1.21875 1,-1.796875 1,-2.3125 1,-2.828125 1,-3.359375 1.09375,-3.734375 1.25,-4.28125 1.6875,-4.4375 1.984375,-4.4375 c 0.375,0 0.734375,0.234375 0.859375,0.640625 0.109375,0.375 0.125,0.875 0.125,1.484375 0,0.515625 0,1.03125 -0.09375,1.46875 -0.140625,0.640625 -0.609375,0.78125 -0.890625,0.78125 z m 0,0"
               id="id-f70c4b3b-1dfe-4646-9610-d8c1be0ada1d" />
          </g>
        </g>
      </g>
    </g>
    <path
       style="opacity:0.09912536;fill:#000000;stroke:#000000;stroke-width:2.00314;stroke-miterlimit:4;stroke-dasharray:none;stroke-dashoffset:0"
       d="m 25.818027,1045.8331 c 1.437374,-2.0116 58.78864,-76.26161 127.447253,-164.99997 L 278.09913,719.49065 h 83.45218 c 73.2731,0 83.59622,0.37542 84.63326,3.07787 1.14846,2.99283 -29.92618,66.23456 -90.86388,184.92213 -15.53124,30.25 -38.25114,74.575 -50.48868,98.49995 l -22.25004,43.5 H 152.89329 c -125.260107,0 -129.59943,-0.1249 -127.075263,-3.6575 z"
       id="path4414"
       transform="scale(0.26458333)" />
    <path
       style="opacity:0.0991253;fill:#000000;stroke:#000000;stroke-width:2.00314;stroke-miterlimit:4;stroke-dasharray:none;stroke-dashoffset:0"
       d="m 287.43143,1048.3278 c 0,-0.6396 27.39357,-54.86461 60.8746,-120.50003 33.48103,-65.63542 70.15603,-137.54459 81.5,-159.79816 14.82059,-29.07368 21.60567,-40.472 24.10846,-40.5 1.91567,-0.0214 4.60717,-1.83896 5.98109,-4.03896 2.43247,-3.89501 4.66405,-4 85.01695,-4 45.3854,0 82.5189,0.3749 82.5189,0.83312 0,0.45821 -18,74.26608 -40,164.01748 -22,89.7514 -40,163.62645 -40,164.16685 0,0.5404 -58.5,0.9825 -130,0.9825 -71.5,0 -130,-0.5233 -130,-1.1628 z M 490.64415,756.73438 c 0.117,-0.13406 0.7695,-3.16873 1.45,-6.74373 l 1.23728,-6.5 h -8.95 c -4.9225,0 -8.95,0.9 -8.95,2 0,1.1 1.416,2 3.14665,2 1.94105,0 2.86749,1.34098 2.41803,3.5 -0.48981,2.35281 -2.28784,3.32415 -5.4857,2.9635 -7.78863,-0.87839 -10.33326,-4.35612 -9.67799,-13.22688 0.48097,-6.51122 1.70587,-8.71298 6.2158,-11.17293 5.37832,-2.93363 5.82002,-2.8302 10.40406,2.43631 6.16927,7.08774 8.97915,6.96821 8.97915,-0.38197 0,-6.1556 -2.82426,-9.63846 -4.98318,-6.14525 -0.84668,1.36996 -2.60002,1.32065 -5.34879,-0.15045 -5.213,-2.78992 -16.19104,-0.77372 -20.23763,3.71678 -12.8457,14.25489 -0.36137,31.94743 20.5696,29.15085 4.95,-0.66137 9.09572,-1.31217 9.21272,-1.44623 z"
       id="path4416"
       transform="scale(0.26458333)" />
    <path
       style="opacity:0.0991253;fill:#000000;stroke:#000000;stroke-width:2.00314;stroke-miterlimit:4;stroke-dasharray:none;stroke-dashoffset:0"
       d="m 281.43143,716.35033 c 0,-1.87968 496.47616,-643.050189 497.29646,-642.22989 0.41632,0.416322 -14.85884,31.26993 -33.94482,68.56358 -19.08596,37.29364 -53.6819,105.15663 -76.87984,150.80663 -212.67722,418.51624 -209.73701,412.86216 -216.25419,415.86094 -3.41968,1.5735 -6.21761,4.0485 -6.21761,5.5 0,2.1425 -15.42881,2.63906 -82,2.63906 -45.1,0 -82,-0.51314 -82,-1.14032 z"
       id="path4420"
       transform="scale(0.26458333)" />
    <path
       style="opacity:0.0991253;fill:#000000;stroke:#000000;stroke-width:0.125196;stroke-miterlimit:4;stroke-dasharray:none;stroke-dashoffset:0"
       d="m 739.80652,120.79319 c 0.13984,-0.33844 50.39936,-65.148329 50.51918,-65.14473 0.0811,0.0024 0.28811,0.08482 0.45998,0.183071 0.4595,0.26267 0.57693,0.230326 0.75892,-0.209017 0.0903,-0.218085 0.18492,-0.334478 0.21019,-0.258651 0.047,0.141094 -15.92646,65.404187 -16.03446,65.512187 -0.0328,0.0328 -0.0934,0.0259 -0.1346,-0.0153 -0.0412,-0.0412 1.00361,-4.53654 2.32185,-9.98959 5.651,-23.375909 9.47287,-39.396861 9.92983,-41.624889 0.20999,-1.02389 0.17454,-1.284882 -0.22235,-1.636894 -0.67447,-0.598204 -1.36061,-0.313283 -2.13169,0.885186 -0.55085,0.856185 -2.77012,4.80283 -3.37707,6.005646 -0.18558,0.367774 -0.36592,0.640189 -0.40074,0.605367 -0.0348,-0.03482 0.0294,-0.242518 0.14262,-0.461545 0.11327,-0.219028 0.18773,-0.413977 0.16547,-0.433219 -0.0831,-0.07188 -0.84315,-0.441781 -0.90769,-0.441781 -0.0801,0 -0.94528,1.69584 -0.94528,1.852895 0,0.06002 0.225,0.210597 0.5,0.334605 0.275,0.124007 0.5,0.247843 0.5,0.275191 0,0.02735 -0.0839,0.211982 -0.18646,0.410297 l -0.18646,0.360575 -0.55575,-0.310616 -0.55575,-0.310616 -0.14862,0.277689 c -0.12498,0.23353 -0.11131,0.305343 0.086,0.451596 0.12901,0.09565 0.38727,0.205174 0.57391,0.243387 0.33652,0.0689 0.33768,0.07273 0.14035,0.460989 -0.10944,0.215329 -0.2145,0.409494 -0.23347,0.431478 -0.019,0.02198 -0.27039,-0.08038 -0.55872,-0.22747 -0.28832,-0.147093 -0.5403,-0.249454 -0.55996,-0.22747 -0.0197,0.02198 -0.2393,0.446586 -0.48812,0.943561 l -0.45238,0.903591 0.50023,0.255199 c 0.56644,0.288976 0.5492,0.255885 0.35517,0.681737 -0.17184,0.377139 -0.21216,0.382422 -0.79558,0.104208 -0.39022,-0.18608 -0.46431,-0.190179 -0.56483,-0.03125 -0.18451,0.291721 -0.14831,0.350659 0.38139,0.620889 l 0.50091,0.255546 -0.21308,0.340745 c -0.1172,0.187409 -0.22376,0.357837 -0.23682,0.37873 -0.0131,0.02089 -0.21289,-0.07734 -0.44408,-0.218283 -0.23119,-0.140948 -0.45557,-0.25648 -0.49861,-0.256736 -0.0924,-5e-4 -0.98424,1.669085 -0.98424,1.842578 0,0.06544 0.22168,0.21895 0.49263,0.341128 0.53077,0.239344 0.52782,0.191762 0.0568,0.918794 -0.0144,0.02226 -0.1974,-0.04806 -0.40662,-0.15625 -0.49386,-0.255386 -0.60653,-0.2481 -0.76582,0.04952 -0.11484,0.214596 -0.067,0.279276 0.37211,0.503305 l 0.50388,0.257065 -0.19258,0.372408 -0.19258,0.372408 -0.49415,-0.252097 -0.49415,-0.252098 -0.43977,0.873263 c -0.24187,0.480295 -0.43977,0.931827 -0.43977,1.003405 0,0.07158 0.19372,0.222519 0.43047,0.335421 0.42204,0.201254 0.42688,0.212239 0.24679,0.560478 -0.21667,0.419006 -0.17612,0.411307 -0.7429,0.141026 -0.39022,-0.18608 -0.46431,-0.190179 -0.56483,-0.03125 -0.17743,0.280526 -0.15214,0.329879 0.31797,0.620424 0.50095,0.309605 0.48203,0.265503 0.29244,0.681618 -0.16698,0.366485 -0.18571,0.370537 -0.60494,0.130882 -0.17187,-0.09825 -0.3821,-0.180635 -0.46718,-0.18307 -0.13876,-0.004 -1.10477,1.723086 -1.00959,1.804983 0.0216,0.01859 0.22209,0.126765 0.44552,0.240399 0.22344,0.113634 0.40625,0.236986 0.40625,0.274115 0,0.0614 -0.2421,0.562766 -0.31395,0.65018 -0.0165,0.02013 -0.23726,-0.06218 -0.49046,-0.182924 -0.39938,-0.190453 -0.47569,-0.195302 -0.57606,-0.03661 -0.1977,0.312577 -0.13467,0.441899 0.32139,0.659377 0.44002,0.209834 0.44052,0.211018 0.24615,0.586875 -0.19002,0.367467 -0.20362,0.372032 -0.5597,0.187894 -0.20072,-0.103797 -0.42319,-0.188722 -0.49436,-0.188722 -0.0712,0 -0.30265,0.343192 -0.51439,0.762648 -0.21174,0.419458 -0.41119,0.736443 -0.44322,0.704413 -0.032,-0.03203 1.30047,-2.83616 2.96111,-6.231399 4.40869,-9.013734 6.55351,-13.606614 6.78518,-14.529654 0.14327,-0.570847 -0.11015,-1.133535 -0.58841,-1.306475 -0.57275,-0.207111 -0.74893,-0.189358 -1.13507,0.114379 -0.48358,0.380379 -6.05103,7.375645 -17.399,21.861088 -5.23999,6.688727 -18.8312,24.096957 -19.53862,25.025927 -0.37313,0.49 -0.51778,0.58931 -0.86475,0.59375 -0.22917,0.003 -0.39792,-0.0401 -0.375,-0.0955 z m 42.82824,-47.718494 c 0.0476,-0.330713 -0.82298,-0.797472 -0.99157,-0.531647 -0.18103,0.285443 -0.11721,0.462688 0.23624,0.656118 0.44054,0.241086 0.70911,0.196826 0.75533,-0.124471 z m 0.96185,-1.802545 c 0.24149,-0.479534 0.43907,-0.919115 0.43907,-0.976848 0,-0.09025 -0.77894,-0.526272 -0.94017,-0.526272 -0.0582,0 -0.93483,1.693866 -0.93483,1.806393 0,0.04931 0.84266,0.539904 0.96718,0.563082 0.0163,0.003 0.22726,-0.386822 0.46875,-0.866355 z m 1.06206,-2.124363 c 0.11475,-0.214416 0.0674,-0.279067 -0.36608,-0.500232 l -0.49786,-0.253992 -0.13965,0.260939 c -0.1592,0.297461 -0.17697,0.267828 0.3181,0.53053 0.48616,0.257974 0.52873,0.255661 0.68549,-0.03724 z m 0.99071,-1.935369 c 0.28122,-0.512387 0.5113,-0.953844 0.5113,-0.981016 0,-0.0785 -0.99747,-0.507041 -1.04901,-0.450681 -0.0256,0.02795 -0.24332,0.443692 -0.4839,0.923883 l -0.43743,0.873074 0.45392,0.279274 c 0.24966,0.153601 0.4629,0.281031 0.47387,0.283176 0.011,0.0022 0.25004,-0.415323 0.53125,-0.92771 z m 1.06043,-2.016112 c 0.12498,-0.3257 0.0954,-0.371652 -0.38714,-0.601768 -0.44282,-0.211166 -0.47007,-0.211134 -0.625,7.38e-4 -0.22869,0.312758 -0.21143,0.353788 0.24426,0.580579 0.52202,0.2598 0.67447,0.26386 0.76788,0.02045 z m 1.0118,-2.049156 c 0.24149,-0.479534 0.43907,-0.899964 0.43907,-0.93429 0,-0.122261 -0.77525,-0.460886 -0.92426,-0.403708 -0.16188,0.06212 -0.95074,1.466126 -0.95074,1.692133 0,0.14559 0.58963,0.504568 0.84218,0.51274 0.0851,0.0028 0.35226,-0.387341 0.59375,-0.866875 z m 0.9882,-1.950844 c 0.12505,-0.325868 0.0947,-0.377789 -0.36636,-0.626066 -0.38658,-0.208188 -0.45712,-0.214597 -0.56058,-0.05093 -0.19767,0.312684 -0.14026,0.445371 0.28406,0.65655 0.51757,0.257583 0.55147,0.258661 0.64288,0.02045 z m 1.04904,-1.992143 c 0.22101,-0.448177 0.40183,-0.868909 0.40183,-0.93496 0,-0.06605 -0.2147,-0.229624 -0.47711,-0.363496 l -0.47711,-0.243403 -0.4666,0.942984 c -0.25663,0.518642 -0.44974,0.957108 -0.42914,0.97437 0.12838,0.10755 0.80947,0.430213 0.91688,0.434367 0.0712,0.0028 0.31025,-0.361685 0.53125,-0.809862 z m 1.02244,-2.051916 c 0.17862,-0.333755 0.18869,-0.318508 -0.3801,-0.574999 -0.43615,-0.196676 -0.52585,-0.203907 -0.62309,-0.05023 -0.17283,0.273132 -0.14942,0.321971 0.28883,0.602635 0.50255,0.321837 0.55335,0.323444 0.71436,0.0226 z"
       id="path4422"
       transform="scale(0.26458333)" />
    <path
       style="opacity:0.0991253;fill:#000000;stroke:#000000;stroke-width:0.177054;stroke-miterlimit:4;stroke-dasharray:none;stroke-dashoffset:0"
       d="m 459.16761,712.261 c -1.32985,-1.34436 -3.65127,-2.31204 -5.54647,-2.31204 h -0.64033 l 0.84753,-0.56138 c 2.001,-1.32541 4.83581,-5.57893 10.52375,-15.79047 3.07091,-5.51319 10.80776,-19.94457 12.54323,-23.3966 0.31044,-0.61751 0.60545,-1.08173 0.65558,-1.03161 0.0501,0.0501 0.004,0.25432 -0.10293,0.45376 -0.16829,0.31444 -0.12282,0.39946 0.3422,0.63993 0.45664,0.23614 0.50857,0.32906 0.34974,0.62583 -0.17369,0.32455 -0.22205,0.33014 -0.7033,0.0813 -0.47856,-0.24748 -0.53004,-0.24247 -0.69602,0.0677 -0.15071,0.2816 -0.0955,0.36963 0.34677,0.55282 0.56842,0.23544 0.60515,0.30655 0.35921,0.69527 -0.13364,0.21122 -0.24426,0.21737 -0.64291,0.0357 -0.54309,-0.24745 -0.57217,-0.2266 -1.14656,0.82202 l -0.41591,0.75931 0.47822,0.38974 c 0.34629,0.28222 0.43315,0.46012 0.31487,0.64485 -0.13374,0.20888 -0.24812,0.21649 -0.63119,0.0419 -0.82259,-0.3748 -1.14882,0.24928 -0.35296,0.67521 0.48288,0.25843 0.51069,0.32491 0.28494,0.68116 -0.11639,0.18368 -0.23621,0.19394 -0.516,0.0442 -0.58855,-0.31499 -0.71129,-0.24233 -1.19149,0.70529 -0.43621,0.86084 -0.44216,0.91098 -0.13555,1.14343 0.17636,0.1337 0.41839,0.24563 0.53784,0.24872 0.16475,0.004 0.1707,0.10763 0.0247,0.42814 -0.18695,0.41031 -0.20736,0.41414 -0.70668,0.13258 -0.45303,-0.25545 -0.53396,-0.25852 -0.68052,-0.0258 -0.12215,0.19399 -0.0479,0.35862 0.27957,0.61971 0.30101,0.24003 0.40799,0.45433 0.32925,0.65955 -0.10613,0.27655 -0.16259,0.28024 -0.62557,0.0408 l -0.50891,-0.26317 -0.44613,0.88039 c -0.54921,1.08381 -0.5496,1.13056 -0.0118,1.4184 0.35143,0.18808 0.40064,0.29545 0.25774,0.56245 -0.13843,0.25866 -0.24891,0.2913 -0.51111,0.15097 -0.84597,-0.45275 -1.24639,0.0759 -0.45183,0.59649 0.27996,0.18343 0.39789,0.38583 0.32918,0.5649 -0.10222,0.26639 -0.31246,0.26436 -0.97589,-0.009 -0.23308,-0.0962 -0.40186,0.08 -0.76698,0.80049 l -0.46813,0.92382 0.45684,0.37269 c 0.32955,0.26885 0.41133,0.44378 0.2935,0.62781 -0.13536,0.2114 -0.24605,0.21742 -0.64611,0.0351 -0.38982,-0.17761 -0.51087,-0.17567 -0.62867,0.0101 -0.21958,0.34617 -0.18989,0.41479 0.29063,0.67196 0.48287,0.25843 0.51068,0.32491 0.28493,0.68117 -0.11639,0.18367 -0.2362,0.19393 -0.516,0.0442 -0.56774,-0.30385 -0.63704,-0.25724 -1.13877,0.76577 l -0.47122,0.96079 0.50326,0.22277 c 0.43794,0.19385 0.47983,0.2742 0.32273,0.61901 -0.16842,0.36964 -0.20814,0.37817 -0.59143,0.12703 -0.22599,-0.14807 -0.49394,-0.2179 -0.59544,-0.15517 -0.3159,0.19524 -0.20346,0.55367 0.2498,0.79624 0.35143,0.18808 0.40063,0.29545 0.25774,0.56245 -0.13843,0.25867 -0.24891,0.2913 -0.51111,0.15097 -0.59815,-0.32012 -0.82092,-0.19341 -1.24255,0.7068 -0.40742,0.86987 -0.40877,0.89047 -0.0744,1.14343 0.18727,0.14168 0.43822,0.26013 0.55767,0.26322 0.16592,0.004 0.17085,0.10729 0.0209,0.43638 -0.1853,0.40669 -0.21959,0.41549 -0.61357,0.15734 -0.41967,-0.27498 -0.95035,-0.21721 -0.95035,0.10346 0,0.0948 0.23115,0.30887 0.51366,0.47576 0.44556,0.2632 0.48938,0.35671 0.33052,0.70536 l -0.18313,0.40194 -0.50513,-0.37345 c -0.27782,-0.2054 -0.53631,-0.33934 -0.57442,-0.29763 -0.0381,0.0417 -0.27805,0.49143 -0.53319,0.99939 l -0.4639,0.92355 0.43486,0.28493 c 0.23917,0.15671 0.5179,0.2336 0.6194,0.17087 0.2755,-0.17027 0.24065,-0.0582 -0.44894,1.4438 -1.56691,3.41291 -3.07165,7.51794 -3.43759,9.378 -0.11644,0.59184 -0.18124,1.67938 -0.144,2.41677 0.0372,0.73738 0.0661,1.33978 0.0643,1.33865 -0.002,-10e-4 -0.38886,-0.39168 -0.85993,-0.86789 z m -0.78875,-2.54557 c 0.44584,-0.90905 0.45012,-0.94764 0.12761,-1.14905 -0.57556,-0.35945 -0.7958,-0.23533 -1.23094,0.6937 -0.41314,0.88207 -0.41502,0.90759 -0.0848,1.14905 0.54063,0.39531 0.69955,0.30253 1.18815,-0.6937 z m 0.98923,-2.0919 c 0.072,-0.37122 -0.84925,-0.78153 -1.05051,-0.46785 -0.0958,0.14924 -0.0144,0.34069 0.2317,0.54519 0.42244,0.35102 0.74151,0.32088 0.81881,-0.0773 z m 1.05133,-1.96353 c 0.45197,-0.82358 0.4546,-0.84737 0.12172,-1.09923 -0.55345,-0.41872 -0.75169,-0.31712 -1.23247,0.63166 -0.43637,0.86114 -0.44227,0.911 -0.13556,1.14595 0.49071,0.3759 0.74316,0.23849 1.24631,-0.67838 z m 1.0366,-1.92686 c 0.12504,-0.20233 -0.51496,-0.85525 -0.83832,-0.85525 -0.34032,0 -0.38174,0.58448 -0.0582,0.82106 0.40188,0.29386 0.72834,0.30631 0.89652,0.0342 z m 1.00317,-2.00217 0.4758,-0.97014 -0.44805,-0.29357 c -0.50485,-0.3308 -0.55856,-0.2939 -1.15392,0.79266 l -0.42109,0.76851 0.41536,0.33634 c 0.22845,0.18499 0.46953,0.33634 0.53573,0.33634 0.0662,0 0.33448,-0.43656 0.59617,-0.97014 z m 1.05704,-2.07926 c 0.089,-0.26421 -0.36901,-0.64941 -0.78155,-0.65729 -0.40499,-0.008 -0.50429,0.38969 -0.16282,0.65167 0.36696,0.28155 0.85045,0.28443 0.94437,0.006 z"
       id="path4424"
       transform="scale(0.26458333)" />
    <path
       style="opacity:0.0991253;fill:#000000;stroke:#000000;stroke-width:0.177054;stroke-miterlimit:4;stroke-dasharray:none;stroke-dashoffset:0"
       d="m 461.54136,716.65777 c -0.26936,-1.25599 -0.25385,-1.29726 0.33113,-0.88072 0.88361,0.62919 2.08113,1.079 3.77638,1.41848 l 1.62308,0.32502 -2.76958,0.0149 -2.76959,0.0149 z"
       id="path4426"
       transform="scale(0.26458333)" />
    <path
       style="opacity:0.0991253;fill:#000000;stroke:#000000;stroke-width:0.177054;stroke-miterlimit:4;stroke-dasharray:none;stroke-dashoffset:0"
       d="m 461.40276,720.27208 c 0.0512,-0.18438 0.1434,-0.63355 0.20491,-0.99815 l 0.11184,-0.66291 9.67051,0.0275 c 8.33784,0.0238 9.11021,0.0465 5.60465,0.16521 -8.66092,0.29324 -11.85418,0.64401 -15.26712,1.67706 -0.35239,0.10666 -0.40328,0.074 -0.32479,-0.20876 z"
       id="path4428"
       transform="scale(0.26458333)" />
    <path
       style="opacity:0.0991253;fill:#000000;stroke:#000000;stroke-width:0.177054;stroke-miterlimit:4;stroke-dasharray:none;stroke-dashoffset:0"
       d="m 425.33168,772.66571 c -0.21876,-0.10551 -0.39775,-0.26016 -0.39775,-0.34367 0,-0.0835 0.62686,-1.40381 1.39302,-2.934 0.76616,-1.53018 3.10263,-6.3221 5.19216,-10.64871 8.81078,-18.24369 13.5709,-28.75044 15.14648,-33.43196 l 0.63181,-1.87732 0.94123,0.84302 0.94123,0.84302 -0.29196,0.56459 c -0.16058,0.31052 -0.2662,0.5862 -0.23473,0.6126 0.0315,0.0264 0.24981,0.14842 0.48518,0.27112 0.44927,0.23423 0.4853,0.21186 0.98626,-0.61213 0.16261,-0.26745 0.26123,-0.26868 1.23039,-0.0153 0.57948,0.1515 1.61362,0.28629 2.29809,0.29953 0.68447,0.0132 1.04562,0.0583 0.80255,0.10014 -1.92948,0.33213 -2.93633,1.13775 -5.03671,4.03004 -1.98341,2.73123 -5.53301,8.62508 -8.38964,13.93039 -0.51316,0.95304 -0.97014,1.69569 -1.0155,1.65033 -0.0454,-0.0454 0.004,-0.24316 0.10862,-0.43955 0.1051,-0.19639 0.1911,-0.42909 0.1911,-0.5171 0,-0.15383 -0.88308,-0.63692 -0.97385,-0.53275 -0.0244,0.028 -0.25297,0.46628 -0.50803,0.97407 l -0.46374,0.92326 0.50845,0.26293 c 0.27965,0.14462 0.55832,0.21308 0.61926,0.15214 0.16916,-0.16917 0.13253,0.0606 -0.0862,0.54063 l -0.197,0.43236 -0.58666,-0.34614 c -0.58362,-0.34434 -0.58765,-0.34431 -0.77536,0.006 -0.16523,0.30874 -0.1139,0.37961 0.41297,0.57012 0.54217,0.19606 0.58343,0.25755 0.41738,0.62199 -0.17322,0.38019 -0.21405,0.38903 -0.68118,0.14747 -0.2733,-0.14133 -0.56681,-0.25696 -0.65225,-0.25696 -0.0854,0 -0.34547,0.40595 -0.57786,0.90211 -0.41315,0.88207 -0.41503,0.90759 -0.0848,1.14905 0.18574,0.13581 0.44012,0.24693 0.56529,0.24693 0.17746,0 0.18406,0.0955 0.03,0.43375 -0.18881,0.41439 -0.22042,0.42195 -0.70851,0.16955 -0.28099,-0.14531 -0.5881,-0.21647 -0.68247,-0.15815 -0.33036,0.20418 -0.16704,0.57451 0.34733,0.78757 0.45931,0.19025 0.49761,0.26173 0.33334,0.62227 -0.18556,0.40725 -0.18569,0.40727 -0.74889,0.075 l -0.56329,-0.33235 -0.47715,0.97288 c -0.26243,0.53508 -0.47714,1.00124 -0.47714,1.03591 0,0.0347 0.23671,0.16107 0.52603,0.28091 0.45007,0.18643 0.49916,0.26807 0.33999,0.56549 -0.12453,0.23268 -0.28382,0.30721 -0.48183,0.22544 -0.65956,-0.27237 -0.87072,-0.27439 -0.97245,-0.009 -0.0727,0.18954 0.0611,0.36478 0.42053,0.55065 0.44821,0.23178 0.49927,0.32486 0.3407,0.62115 -0.173,0.32325 -0.22348,0.3294 -0.69638,0.0849 -0.50968,-0.26356 -0.51003,-0.26336 -0.9655,0.55156 -0.56729,1.015 -0.56816,1.193 -0.007,1.44865 0.37996,0.17313 0.41948,0.25874 0.25839,0.55975 -0.17856,0.33363 -0.22238,0.3387 -0.71691,0.083 -0.482,-0.24925 -0.53641,-0.24716 -0.64067,0.0245 -0.10443,0.27213 0.22381,0.66331 0.6858,0.8173 0.089,0.0297 0.10653,0.19805 0.0389,0.37417 -0.11846,0.30872 -0.306,0.31472 -0.99168,0.0318 -0.23323,-0.0962 -0.40245,0.0811 -0.7707,0.80783 -0.4488,0.88567 -0.4563,0.94252 -0.1535,1.16392 0.17509,0.12803 0.42075,0.23278 0.54593,0.23278 0.17746,0 0.18406,0.0955 0.03,0.43374 -0.19066,0.41846 -0.21626,0.4241 -0.72677,0.16011 -0.4382,-0.2266 -0.55504,-0.23279 -0.67977,-0.036 -0.23397,0.36917 -0.19331,0.44446 0.36486,0.67567 0.45536,0.18861 0.49432,0.25828 0.30972,0.55387 -0.12661,0.20273 -0.31747,0.29385 -0.47668,0.22757 -0.72502,-0.30182 -0.80542,-0.25777 -1.27425,0.69817 l -0.47321,0.96484 0.51569,0.21361 c 0.44035,0.1824 0.48851,0.26438 0.32966,0.5612 -0.12453,0.23269 -0.28382,0.30722 -0.48183,0.22545 -0.74757,-0.30871 -0.91452,-0.30036 -0.91452,0.0457 0,0.19866 0.19086,0.43275 0.44857,0.55018 0.37996,0.17312 0.41948,0.25873 0.25839,0.55974 -0.17783,0.33228 -0.22391,0.33792 -0.70956,0.0868 l -0.51937,-0.26858 -0.44612,0.88038 c -0.55068,1.08672 -0.55085,1.14123 -0.004,1.39031 0.4735,0.21574 0.52269,0.33816 0.28592,0.71174 -0.1246,0.1966 -0.2433,0.18972 -0.68717,-0.0398 -0.49449,-0.25571 -0.54558,-0.25392 -0.65179,0.0229 -0.1059,0.27595 0.19198,0.64135 0.64629,0.79279 0.22399,0.0747 -0.0259,0.6687 -0.27507,0.65395 -0.11113,-0.007 -0.38105,-0.0983 -0.59981,-0.20379 z m 15.64137,-28.89784 c 0.0386,-0.11583 -0.16585,-0.33262 -0.45426,-0.48176 -0.48017,-0.24831 -0.53408,-0.24585 -0.63961,0.0292 -0.0718,0.18713 0.004,0.38729 0.20032,0.53106 0.36327,0.26564 0.7915,0.22803 0.89355,-0.0785 z m 1.01686,-1.81645 c 0.2447,-0.48291 0.44492,-0.91839 0.44492,-0.96774 0,-0.0494 -0.23677,-0.21216 -0.52615,-0.3618 l -0.52615,-0.27208 -0.44612,0.88038 c -0.54479,1.07509 -0.54716,1.14293 -0.0484,1.38349 0.60403,0.29131 0.62508,0.27866 1.10188,-0.66225 z m 1.04888,-2.06411 c 0.0613,-0.15976 0.0897,-0.30808 0.0631,-0.32961 -0.18178,-0.14714 -0.85381,-0.44059 -1.009,-0.44059 -0.35197,0 -0.19038,0.65213 0.20935,0.84491 0.54687,0.26375 0.60909,0.25744 0.73654,-0.0747 z m 1.02565,-2.07355 0.46582,-0.94979 -0.43732,-0.19925 c -0.64752,-0.29504 -0.67767,-0.27639 -1.13632,0.70285 -0.41314,0.88208 -0.41502,0.9076 -0.0848,1.14905 0.54126,0.39578 0.69957,0.30248 1.19264,-0.70286 z m 0.98474,-2.08273 c 0.072,-0.37079 -0.84963,-0.78189 -1.04883,-0.46786 -0.21871,0.34481 -0.18804,0.42351 0.24644,0.63229 0.48633,0.23371 0.735,0.18275 0.80239,-0.16443 z m 0.99446,-1.8511 c 0.25138,-0.44976 0.45705,-0.87452 0.45705,-0.94389 0,-0.11118 -0.775,-0.53644 -0.97761,-0.53644 -0.0424,0 -0.28603,0.41232 -0.5414,0.91627 -0.44182,0.87189 -0.44889,0.92754 -0.14597,1.14905 0.51759,0.37847 0.7258,0.27763 1.20793,-0.58499 z m 1.11659,-2.13287 c 0.0386,-0.11584 -0.17503,-0.33738 -0.47466,-0.49232 -0.50318,-0.2602 -0.55348,-0.25904 -0.65872,0.0152 -0.0715,0.18624 0.0108,0.38812 0.22073,0.54162 0.38009,0.27793 0.80873,0.24764 0.91265,-0.0645 z m 0.97971,-1.9079 0.47546,-0.96944 -0.51333,-0.26545 -0.51333,-0.26545 -0.45564,0.81522 c -0.2506,0.44837 -0.45563,0.91236 -0.45563,1.0311 0,0.18181 0.56726,0.57102 0.89125,0.6115 0.0527,0.007 0.30971,-0.42428 0.57122,-0.95748 z m 1.06999,-2.10762 c 0.14218,-0.37052 -0.9157,-0.7843 -1.13128,-0.44248 -0.10554,0.16735 -0.06,0.32175 0.13851,0.47015 0.39308,0.29379 0.87456,0.28037 0.99277,-0.0277 z"
       id="path4430"
       transform="scale(0.26458333)" />
    <path
       style="opacity:0.0991253;fill:#000000;stroke:#000000;stroke-width:0.177054;stroke-miterlimit:4;stroke-dasharray:none;stroke-dashoffset:0"
       d="m 445.16869,720.45702 c -2.05943,-0.86368 -9.82558,-1.49078 -21.3838,-1.72668 -1.16673,-0.0238 3.21508,-0.0604 9.73735,-0.0813 l 11.85868,-0.038 0.18674,1.01646 c 0.10271,0.55906 0.17568,1.02503 0.16214,1.0355 -0.0135,0.0105 -0.26603,-0.0822 -0.56111,-0.20596 z"
       id="path4432"
       transform="scale(0.26458333)" />
    <path
       style="opacity:0.0991253;fill:#000000;stroke:#000000;stroke-width:0.0625982;stroke-miterlimit:4;stroke-dasharray:none;stroke-dashoffset:0"
       d="m 438.65616,717.5507 c 4.05542,-0.37038 5.90696,-0.70047 6.76337,-1.20576 0.11689,-0.069 0.22057,-0.12539 0.2304,-0.12539 0.01,0 -0.0189,0.18984 -0.0638,0.42187 -0.0449,0.23203 -0.0827,0.54141 -0.084,0.6875 l -0.002,0.26563 -3.54688,-0.0105 c -1.95078,-0.006 -3.43437,-0.0208 -3.29687,-0.0333 z"
       id="path4434"
       transform="scale(0.26458333)" />
    <path
       style="fill:none;stroke:#000000;stroke-width:0.264583px;stroke-linecap:butt;stroke-linejoin:miter;stroke-opacity:1;marker-end:url(#Arrow2Send)"
       d="m 196,79 c 0,0 -3.8713,0.249408 -6.02105,-1.983282 C 189,76 190.11177,72.336615 188.67589,70.575654 186.66197,68.105771 182.7,67.999998 182.7,67.999998"
       id="path4491"
       sodipodi:nodetypes="cssc" />
  </g>
</svg>
