<?xml version="1.0" encoding="UTF-8" standalone="no"?>
<svg
   xmlns:ns21="http://www.iki.fi/pav/software/textext/"
   xmlns:dc="http://purl.org/dc/elements/1.1/"
   xmlns:cc="http://creativecommons.org/ns#"
   xmlns:rdf="http://www.w3.org/1999/02/22-rdf-syntax-ns#"
   xmlns:svg="http://www.w3.org/2000/svg"
   xmlns="http://www.w3.org/2000/svg"
   xmlns:sodipodi="http://sodipodi.sourceforge.net/DTD/sodipodi-0.dtd"
   xmlns:inkscape="http://www.inkscape.org/namespaces/inkscape"
   id="svg1588"
   version="1.1"
   viewBox="0 0 108 114"
   height="11.4cm"
   width="10.8cm"
   inkscape:version="1.0 (4035a4fb49, 2020-05-01)"
   sodipodi:docname="Figura1_7.svg">
  <defs
     id="defs1582" />
  <sodipodi:namedview
     units="cm"
     id="base"
     pagecolor="#ffffff"
     bordercolor="#666666"
     borderopacity="1.0"
     inkscape:pageopacity="0.0"
     inkscape:pageshadow="2"
     inkscape:zoom="0.70710678"
     inkscape:cx="472.19675"
     inkscape:cy="186.40667"
     inkscape:document-units="mm"
     inkscape:current-layer="layer1"
     inkscape:document-rotation="0"
     showgrid="true"
     inkscape:window-width="1350"
     inkscape:window-height="729"
     inkscape:window-x="0"
     inkscape:window-y="0"
     inkscape:window-maximized="0">
    <inkscape:grid
       type="xygrid"
       id="grid1590" />
  </sodipodi:namedview>
  <metadata
     id="metadata1585">
    <rdf:RDF>
      <cc:Work
         rdf:about="">
        <dc:format>image/svg+xml</dc:format>
        <dc:type
           rdf:resource="http://purl.org/dc/dcmitype/StillImage" />
        <dc:title></dc:title>
      </cc:Work>
    </rdf:RDF>
  </metadata>
  <g
     inkscape:label="Livello 1"
     inkscape:groupmode="layer"
     id="layer1">
    <g
       transform="translate(-7.999998,-4)"
       id="g2962">
      <path
         id="path1592"
         d="M 20,10 V 69.999999"
         style="fill:none;stroke:#000000;stroke-width:0.264583px;stroke-linecap:butt;stroke-linejoin:miter;stroke-opacity:1" />
      <path
         id="path1594"
         d="M 15,15 25,5"
         style="fill:none;stroke:#000000;stroke-width:0.264583px;stroke-linecap:butt;stroke-linejoin:miter;stroke-opacity:1" />
      <path
         id="path1596"
         d="M 15,75 25,64.999999"
         style="fill:none;stroke:#000000;stroke-width:0.264583px;stroke-linecap:butt;stroke-linejoin:miter;stroke-opacity:1" />
      <path
         id="path1598"
         d="m 20,69.999999 v 20"
         style="fill:none;stroke:#000000;stroke-width:0.264583px;stroke-linecap:butt;stroke-linejoin:miter;stroke-opacity:1" />
      <path
         id="path1600"
         d="M 15,94.999999 25,84.999998"
         style="fill:none;stroke:#000000;stroke-width:0.264583px;stroke-linecap:butt;stroke-linejoin:miter;stroke-opacity:1" />
      <path
         id="path1604"
         d="m 35,100 v 10"
         style="fill:none;stroke:#000000;stroke-width:0.264583px;stroke-linecap:butt;stroke-linejoin:miter;stroke-opacity:1" />
      <path
         id="path1606"
         d="m 55,100 v 10"
         style="fill:none;stroke:#000000;stroke-width:0.264583px;stroke-linecap:butt;stroke-linejoin:miter;stroke-opacity:1" />
      <g
         transform="translate(0,5)"
         id="g1620">
        <path
           style="fill:none;stroke:#000000;stroke-width:0.264583px;stroke-linecap:butt;stroke-linejoin:miter;stroke-opacity:1"
           d="M 34.999998,100 H 55"
           id="path1602" />
        <path
           style="fill:none;stroke:#000000;stroke-width:0.264583px;stroke-linecap:butt;stroke-linejoin:miter;stroke-opacity:1"
           d="m 55,100 h 60"
           id="path1608" />
      </g>
      <path
         id="path1610"
         d="M 115,110 V 100"
         style="fill:none;stroke:#000000;stroke-width:0.264583px;stroke-linecap:butt;stroke-linejoin:miter;stroke-opacity:1" />
      <path
         id="path1612"
         d="M 34.999998,89.999999 H 115"
         style="fill:none;stroke:#000000;stroke-width:0.264583px;stroke-linecap:butt;stroke-linejoin:miter;stroke-opacity:1" />
      <path
         id="path1614"
         d="M 34.999998,10 V 89.999999"
         style="fill:none;stroke:#000000;stroke-width:0.264583px;stroke-linecap:butt;stroke-linejoin:miter;stroke-opacity:1" />
      <path
         id="path1616"
         d="M 34.999998,10 115,89.999999"
         style="fill:none;stroke:#000000;stroke-width:0.264583px;stroke-linecap:butt;stroke-linejoin:miter;stroke-opacity:1" />
      <path
         id="path1622"
         d="M 34.999998,69.999999 H 55 v 20"
         style="fill:none;stroke:#000000;stroke-width:0.265;stroke-linecap:butt;stroke-linejoin:miter;stroke-miterlimit:4;stroke-dasharray:0.265, 0.265;stroke-dashoffset:0;stroke-opacity:1" />
      <circle
         r="1"
         cy="70"
         cx="54.999996"
         id="path2185"
         style="opacity:0.74212;fill:#4d4d4d;stroke:#4f4f4f;stroke-width:0.264999;stroke-miterlimit:4;stroke-dasharray:none;stroke-dashoffset:0" />
      <g
         transform="matrix(0.705556,0,0,0.705556,8.6614346,37.736803)"
         ns21:version="1.0.1"
         ns21:texconverter="pdflatex"
         ns21:pdfconverter="inkscape"
         ns21:text="$\\frac{2}{3}h$"
         ns21:preamble="C:\\Users\\claum\\AppData\\Roaming\\inkscape\\extensions\\textext\\default_packages.tex"
         ns21:scale="2.0"
         ns21:alignment="middle center"
         ns21:jacobian_sqrt="0.705556"
         id="g2233">
        <defs
           id="id-00ed92bd-fdfb-48d5-9879-9d5a19527352">
          <g
             id="id-170e0069-b931-4e47-a2c6-805154fd88d7">
            <symbol
               id="id-04cc4222-494c-40d5-8376-aa0a8539f307"
               overflow="visible">
              <path
                 id="id-b89ff3cc-bdd8-4579-a1f6-45ff0f6f39ef"
                 d=""
                 style="stroke:none" />
            </symbol>
            <symbol
               id="id-84faba04-38a7-4919-8978-f0f508ec888d"
               overflow="visible">
              <path
                 id="id-aa27a2a2-7dfc-4601-9321-f69b052bc042"
                 d="M 3.515625,-1.265625 H 3.28125 c -0.015625,0.15625 -0.09375,0.5625 -0.1875,0.625 C 3.046875,-0.59375 2.515625,-0.59375 2.40625,-0.59375 H 1.125 c 0.734375,-0.640625 0.984375,-0.84375 1.390625,-1.171875 0.515625,-0.40625 1,-0.84375 1,-1.5 0,-0.84375 -0.734375,-1.359375 -1.625,-1.359375 -0.859375,0 -1.453125,0.609375 -1.453125,1.25 0,0.34375 0.296875,0.390625 0.375,0.390625 0.15625,0 0.359375,-0.125 0.359375,-0.375 0,-0.125 -0.046875,-0.375 -0.40625,-0.375 C 0.984375,-4.21875 1.453125,-4.375 1.78125,-4.375 c 0.703125,0 1.0625,0.546875 1.0625,1.109375 0,0.609375 -0.4375,1.078125 -0.65625,1.328125 L 0.515625,-0.265625 C 0.4375,-0.203125 0.4375,-0.1875 0.4375,0 h 2.875 z m 0,0"
                 style="stroke:none" />
            </symbol>
            <symbol
               id="id-f0a835bb-ff71-480a-90bc-9c40fc4579cf"
               overflow="visible">
              <path
                 id="id-38555f66-aeef-4b0a-8b65-645a415d1803"
                 d="m 1.90625,-2.328125 c 0.546875,0 0.9375,0.375 0.9375,1.125 0,0.859375 -0.515625,1.125 -0.90625,1.125 -0.28125,0 -0.90625,-0.078125 -1.1875,-0.5 0.328125,0 0.40625,-0.234375 0.40625,-0.390625 0,-0.21875 -0.171875,-0.375 -0.390625,-0.375 -0.1875,0 -0.390625,0.125 -0.390625,0.40625 0,0.65625 0.71875,1.078125 1.5625,1.078125 0.96875,0 1.640625,-0.65625 1.640625,-1.34375 0,-0.546875 -0.4375,-1.09375 -1.203125,-1.25 0.71875,-0.265625 0.984375,-0.78125 0.984375,-1.21875 0,-0.546875 -0.625,-0.953125 -1.40625,-0.953125 -0.765625,0 -1.359375,0.375 -1.359375,0.9375 0,0.234375 0.15625,0.359375 0.359375,0.359375 0.21875,0 0.359375,-0.15625 0.359375,-0.34375 0,-0.203125 -0.140625,-0.359375 -0.359375,-0.375 0.25,-0.296875 0.71875,-0.375 0.984375,-0.375 0.3125,0 0.75,0.15625 0.75,0.75 0,0.296875 -0.09375,0.625 -0.28125,0.828125 -0.21875,0.265625 -0.421875,0.28125 -0.765625,0.3125 -0.171875,0.015625 -0.1875,0.015625 -0.21875,0.015625 -0.015625,0 -0.078125,0.015625 -0.078125,0.09375 0,0.09375 0.0625,0.09375 0.1875,0.09375 z m 0,0"
                 style="stroke:none" />
            </symbol>
            <symbol
               id="id-dff4d2d1-93d4-4ebc-8b44-c124da474054"
               overflow="visible">
              <path
                 id="id-cb0edfe9-e7f3-4519-bdd8-7fe39892263e"
                 d=""
                 style="stroke:none" />
            </symbol>
            <symbol
               id="id-3e337495-4368-4de5-95f1-dcd5f6279507"
               overflow="visible">
              <path
                 id="id-458f64bb-0d9e-45bc-b1e8-51b14103a4cb"
                 d="m 2.859375,-6.8125 c 0,0 0,-0.109375 -0.125,-0.109375 -0.234375,0 -0.953125,0.078125 -1.21875,0.109375 -0.078125,0 -0.1875,0.015625 -0.1875,0.1875 0,0.125 0.09375,0.125 0.234375,0.125 0.484375,0 0.5,0.0625 0.5,0.171875 L 2.03125,-6.125 0.59375,-0.390625 c -0.046875,0.140625 -0.046875,0.15625 -0.046875,0.21875 0,0.234375 0.203125,0.28125 0.296875,0.28125 0.15625,0 0.3125,-0.125 0.359375,-0.265625 l 0.1875,-0.75 0.21875,-0.890625 C 1.671875,-2.03125 1.734375,-2.25 1.78125,-2.46875 1.796875,-2.53125 1.890625,-2.859375 1.890625,-2.921875 1.921875,-3.015625 2.234375,-3.5625 2.578125,-3.84375 2.796875,-4 3.09375,-4.1875 3.53125,-4.1875 c 0.421875,0 0.53125,0.34375 0.53125,0.703125 0,0.53125 -0.375,1.625 -0.609375,2.234375 C 3.375,-1.03125 3.3125,-0.90625 3.3125,-0.703125 c 0,0.46875 0.359375,0.8125 0.828125,0.8125 0.9375,0 1.296875,-1.453125 1.296875,-1.53125 0,-0.109375 -0.078125,-0.109375 -0.109375,-0.109375 -0.109375,0 -0.109375,0.03125 -0.15625,0.1875 -0.140625,0.53125 -0.46875,1.234375 -1.015625,1.234375 -0.171875,0 -0.234375,-0.09375 -0.234375,-0.328125 0,-0.25 0.078125,-0.484375 0.171875,-0.703125 0.15625,-0.4375 0.609375,-1.625 0.609375,-2.203125 0,-0.640625 -0.390625,-1.0625 -1.140625,-1.0625 -0.625,0 -1.109375,0.3125 -1.484375,0.765625 z m 0,0"
                 style="stroke:none" />
            </symbol>
          </g>
        </defs>
        <g
           transform="translate(-149.906,-126.217)"
           id="id-cf707298-e310-45b2-b386-90556e3afdb4">
          <g
             id="id-a71469df-050c-488d-8ebc-8e986cecfe8a"
             style="fill:#000000;fill-opacity:1">
            <g
               transform="translate(149.908,130.842)"
               id="g2220">
              <path
                 id="id-aa2c7a42-dc72-4ec7-a728-8278aba7775d"
                 d="M 3.515625,-1.265625 H 3.28125 c -0.015625,0.15625 -0.09375,0.5625 -0.1875,0.625 C 3.046875,-0.59375 2.515625,-0.59375 2.40625,-0.59375 H 1.125 c 0.734375,-0.640625 0.984375,-0.84375 1.390625,-1.171875 0.515625,-0.40625 1,-0.84375 1,-1.5 0,-0.84375 -0.734375,-1.359375 -1.625,-1.359375 -0.859375,0 -1.453125,0.609375 -1.453125,1.25 0,0.34375 0.296875,0.390625 0.375,0.390625 0.15625,0 0.359375,-0.125 0.359375,-0.375 0,-0.125 -0.046875,-0.375 -0.40625,-0.375 C 0.984375,-4.21875 1.453125,-4.375 1.78125,-4.375 c 0.703125,0 1.0625,0.546875 1.0625,1.109375 0,0.609375 -0.4375,1.078125 -0.65625,1.328125 L 0.515625,-0.265625 C 0.4375,-0.203125 0.4375,-0.1875 0.4375,0 h 2.875 z m 0,0"
                 style="stroke:none" />
            </g>
          </g>
          <path
             id="id-ca939058-09fa-499f-956b-d6cde07804cb"
             transform="matrix(1,0,0,-1,149.908,132.274)"
             d="M -0.00175,5.625e-4 H 3.970906"
             style="fill:none;stroke:#000000;stroke-width:0.398;stroke-linecap:butt;stroke-linejoin:miter;stroke-miterlimit:10;stroke-opacity:1" />
          <g
             id="id-2c317b7f-6576-4314-91f3-6628fd26cc20"
             style="fill:#000000;fill-opacity:1">
            <g
               transform="translate(149.908,138.2)"
               id="g2225">
              <path
                 id="id-297be766-c851-4810-a0dd-1c7de031446c"
                 d="m 1.90625,-2.328125 c 0.546875,0 0.9375,0.375 0.9375,1.125 0,0.859375 -0.515625,1.125 -0.90625,1.125 -0.28125,0 -0.90625,-0.078125 -1.1875,-0.5 0.328125,0 0.40625,-0.234375 0.40625,-0.390625 0,-0.21875 -0.171875,-0.375 -0.390625,-0.375 -0.1875,0 -0.390625,0.125 -0.390625,0.40625 0,0.65625 0.71875,1.078125 1.5625,1.078125 0.96875,0 1.640625,-0.65625 1.640625,-1.34375 0,-0.546875 -0.4375,-1.09375 -1.203125,-1.25 0.71875,-0.265625 0.984375,-0.78125 0.984375,-1.21875 0,-0.546875 -0.625,-0.953125 -1.40625,-0.953125 -0.765625,0 -1.359375,0.375 -1.359375,0.9375 0,0.234375 0.15625,0.359375 0.359375,0.359375 0.21875,0 0.359375,-0.15625 0.359375,-0.34375 0,-0.203125 -0.140625,-0.359375 -0.359375,-0.375 0.25,-0.296875 0.71875,-0.375 0.984375,-0.375 0.3125,0 0.75,0.15625 0.75,0.75 0,0.296875 -0.09375,0.625 -0.28125,0.828125 -0.21875,0.265625 -0.421875,0.28125 -0.765625,0.3125 -0.171875,0.015625 -0.1875,0.015625 -0.21875,0.015625 -0.015625,0 -0.078125,0.015625 -0.078125,0.09375 0,0.09375 0.0625,0.09375 0.1875,0.09375 z m 0,0"
                 style="stroke:none" />
            </g>
          </g>
          <g
             id="id-be899d0c-0cbc-45e4-ac64-f3a274094bc1"
             style="fill:#000000;fill-opacity:1">
            <g
               transform="translate(155.075,134.765)"
               id="g2229">
              <path
                 id="id-3f44b1ad-16da-4553-9a8c-dad125d61f8a"
                 d="m 2.859375,-6.8125 c 0,0 0,-0.109375 -0.125,-0.109375 -0.234375,0 -0.953125,0.078125 -1.21875,0.109375 -0.078125,0 -0.1875,0.015625 -0.1875,0.1875 0,0.125 0.09375,0.125 0.234375,0.125 0.484375,0 0.5,0.0625 0.5,0.171875 L 2.03125,-6.125 0.59375,-0.390625 c -0.046875,0.140625 -0.046875,0.15625 -0.046875,0.21875 0,0.234375 0.203125,0.28125 0.296875,0.28125 0.15625,0 0.3125,-0.125 0.359375,-0.265625 l 0.1875,-0.75 0.21875,-0.890625 C 1.671875,-2.03125 1.734375,-2.25 1.78125,-2.46875 1.796875,-2.53125 1.890625,-2.859375 1.890625,-2.921875 1.921875,-3.015625 2.234375,-3.5625 2.578125,-3.84375 2.796875,-4 3.09375,-4.1875 3.53125,-4.1875 c 0.421875,0 0.53125,0.34375 0.53125,0.703125 0,0.53125 -0.375,1.625 -0.609375,2.234375 C 3.375,-1.03125 3.3125,-0.90625 3.3125,-0.703125 c 0,0.46875 0.359375,0.8125 0.828125,0.8125 0.9375,0 1.296875,-1.453125 1.296875,-1.53125 0,-0.109375 -0.078125,-0.109375 -0.109375,-0.109375 -0.109375,0 -0.109375,0.03125 -0.15625,0.1875 -0.140625,0.53125 -0.46875,1.234375 -1.015625,1.234375 -0.171875,0 -0.234375,-0.09375 -0.234375,-0.328125 0,-0.25 0.078125,-0.484375 0.171875,-0.703125 0.15625,-0.4375 0.609375,-1.625 0.609375,-2.203125 0,-0.640625 -0.390625,-1.0625 -1.140625,-1.0625 -0.625,0 -1.109375,0.3125 -1.484375,0.765625 z m 0,0"
                 style="stroke:none" />
            </g>
          </g>
        </g>
      </g>
      <g
         transform="matrix(0.705556,0,0,0.705556,8.4253246,77.736803)"
         ns21:version="1.0.1"
         ns21:texconverter="pdflatex"
         ns21:pdfconverter="inkscape"
         ns21:text="$\\frac{1}{3}h$"
         ns21:preamble="C:\\Users\\claum\\AppData\\Roaming\\inkscape\\extensions\\textext\\default_packages.tex"
         ns21:scale="2.0"
         ns21:alignment="middle center"
         ns21:jacobian_sqrt="0.705556"
         id="g2332">
        <defs
           id="id-78670b27-b3ae-4457-a5d7-9e2378ed3a98">
          <g
             id="id-1b2732b1-b756-4089-895b-4f2fec409fc9">
            <symbol
               id="id-1e1c2e9f-6651-42c2-b20b-68b60d012f6b"
               overflow="visible">
              <path
                 id="id-f78f5eaa-92cb-41ce-8282-e162b55cc1e0"
                 d=""
                 style="stroke:none" />
            </symbol>
            <symbol
               id="id-630d5248-b146-4be3-9764-8dc936d7f839"
               overflow="visible">
              <path
                 id="id-0db8d984-3712-459a-8e5e-c1cdfea1f5f2"
                 d="m 2.328125,-4.4375 c 0,-0.1875 0,-0.1875 -0.203125,-0.1875 -0.453125,0.4375 -1.078125,0.4375 -1.359375,0.4375 v 0.25 c 0.15625,0 0.625,0 1,-0.1875 v 3.546875 c 0,0.234375 0,0.328125 -0.6875,0.328125 H 0.8125 V 0 c 0.125,0 0.984375,-0.03125 1.234375,-0.03125 0.21875,0 1.09375,0.03125 1.25,0.03125 V -0.25 H 3.03125 c -0.703125,0 -0.703125,-0.09375 -0.703125,-0.328125 z m 0,0"
                 style="stroke:none" />
            </symbol>
            <symbol
               id="id-1d2ef519-a222-424a-9a9c-2d1a376c939b"
               overflow="visible">
              <path
                 id="id-a9f1795f-d680-4679-81a6-183c2329e1f5"
                 d="m 1.90625,-2.328125 c 0.546875,0 0.9375,0.375 0.9375,1.125 0,0.859375 -0.515625,1.125 -0.90625,1.125 -0.28125,0 -0.90625,-0.078125 -1.1875,-0.5 0.328125,0 0.40625,-0.234375 0.40625,-0.390625 0,-0.21875 -0.171875,-0.375 -0.390625,-0.375 -0.1875,0 -0.390625,0.125 -0.390625,0.40625 0,0.65625 0.71875,1.078125 1.5625,1.078125 0.96875,0 1.640625,-0.65625 1.640625,-1.34375 0,-0.546875 -0.4375,-1.09375 -1.203125,-1.25 0.71875,-0.265625 0.984375,-0.78125 0.984375,-1.21875 0,-0.546875 -0.625,-0.953125 -1.40625,-0.953125 -0.765625,0 -1.359375,0.375 -1.359375,0.9375 0,0.234375 0.15625,0.359375 0.359375,0.359375 0.21875,0 0.359375,-0.15625 0.359375,-0.34375 0,-0.203125 -0.140625,-0.359375 -0.359375,-0.375 0.25,-0.296875 0.71875,-0.375 0.984375,-0.375 0.3125,0 0.75,0.15625 0.75,0.75 0,0.296875 -0.09375,0.625 -0.28125,0.828125 -0.21875,0.265625 -0.421875,0.28125 -0.765625,0.3125 -0.171875,0.015625 -0.1875,0.015625 -0.21875,0.015625 -0.015625,0 -0.078125,0.015625 -0.078125,0.09375 0,0.09375 0.0625,0.09375 0.1875,0.09375 z m 0,0"
                 style="stroke:none" />
            </symbol>
            <symbol
               id="id-c71f7c3b-51bc-4f29-bb8c-120e82f0898a"
               overflow="visible">
              <path
                 id="id-77e335a0-6cfe-45a4-8623-ccc99b49019d"
                 d=""
                 style="stroke:none" />
            </symbol>
            <symbol
               id="id-8a46b7f8-e9b0-42d6-8c0e-687bcebb0453"
               overflow="visible">
              <path
                 id="id-160f8a2d-9b6b-446a-a164-9602df996f39"
                 d="m 2.859375,-6.8125 c 0,0 0,-0.109375 -0.125,-0.109375 -0.234375,0 -0.953125,0.078125 -1.21875,0.109375 -0.078125,0 -0.1875,0.015625 -0.1875,0.1875 0,0.125 0.09375,0.125 0.234375,0.125 0.484375,0 0.5,0.0625 0.5,0.171875 L 2.03125,-6.125 0.59375,-0.390625 c -0.046875,0.140625 -0.046875,0.15625 -0.046875,0.21875 0,0.234375 0.203125,0.28125 0.296875,0.28125 0.15625,0 0.3125,-0.125 0.359375,-0.265625 l 0.1875,-0.75 0.21875,-0.890625 C 1.671875,-2.03125 1.734375,-2.25 1.78125,-2.46875 1.796875,-2.53125 1.890625,-2.859375 1.890625,-2.921875 1.921875,-3.015625 2.234375,-3.5625 2.578125,-3.84375 2.796875,-4 3.09375,-4.1875 3.53125,-4.1875 c 0.421875,0 0.53125,0.34375 0.53125,0.703125 0,0.53125 -0.375,1.625 -0.609375,2.234375 C 3.375,-1.03125 3.3125,-0.90625 3.3125,-0.703125 c 0,0.46875 0.359375,0.8125 0.828125,0.8125 0.9375,0 1.296875,-1.453125 1.296875,-1.53125 0,-0.109375 -0.078125,-0.109375 -0.109375,-0.109375 -0.109375,0 -0.109375,0.03125 -0.15625,0.1875 -0.140625,0.53125 -0.46875,1.234375 -1.015625,1.234375 -0.171875,0 -0.234375,-0.09375 -0.234375,-0.328125 0,-0.25 0.078125,-0.484375 0.171875,-0.703125 0.15625,-0.4375 0.609375,-1.625 0.609375,-2.203125 0,-0.640625 -0.390625,-1.0625 -1.140625,-1.0625 -0.625,0 -1.109375,0.3125 -1.484375,0.765625 z m 0,0"
                 style="stroke:none" />
            </symbol>
          </g>
        </defs>
        <g
           transform="translate(-149.906,-126.217)"
           id="id-5966dab7-0697-4755-b3d5-5b9c1c28e051">
          <g
             id="id-61294299-1a09-4cf8-97f8-1bf95464c8f9"
             style="fill:#000000;fill-opacity:1">
            <g
               transform="translate(149.908,130.842)"
               id="g2319">
              <path
                 id="id-3dc42037-6532-4bb6-8e56-8a3593fee0bf"
                 d="m 2.328125,-4.4375 c 0,-0.1875 0,-0.1875 -0.203125,-0.1875 -0.453125,0.4375 -1.078125,0.4375 -1.359375,0.4375 v 0.25 c 0.15625,0 0.625,0 1,-0.1875 v 3.546875 c 0,0.234375 0,0.328125 -0.6875,0.328125 H 0.8125 V 0 c 0.125,0 0.984375,-0.03125 1.234375,-0.03125 0.21875,0 1.09375,0.03125 1.25,0.03125 V -0.25 H 3.03125 c -0.703125,0 -0.703125,-0.09375 -0.703125,-0.328125 z m 0,0"
                 style="stroke:none" />
            </g>
          </g>
          <path
             id="id-b94e33ff-0ebc-4818-8de8-e8597e4f2219"
             transform="matrix(1,0,0,-1,149.908,132.274)"
             d="M -0.00175,5.625e-4 H 3.970906"
             style="fill:none;stroke:#000000;stroke-width:0.398;stroke-linecap:butt;stroke-linejoin:miter;stroke-miterlimit:10;stroke-opacity:1" />
          <g
             id="id-ea0746e7-e915-4311-b82c-baf515ecc70e"
             style="fill:#000000;fill-opacity:1">
            <g
               transform="translate(149.908,138.2)"
               id="g2324">
              <path
                 id="id-40d67083-ed48-4fc8-8724-42336240eabf"
                 d="m 1.90625,-2.328125 c 0.546875,0 0.9375,0.375 0.9375,1.125 0,0.859375 -0.515625,1.125 -0.90625,1.125 -0.28125,0 -0.90625,-0.078125 -1.1875,-0.5 0.328125,0 0.40625,-0.234375 0.40625,-0.390625 0,-0.21875 -0.171875,-0.375 -0.390625,-0.375 -0.1875,0 -0.390625,0.125 -0.390625,0.40625 0,0.65625 0.71875,1.078125 1.5625,1.078125 0.96875,0 1.640625,-0.65625 1.640625,-1.34375 0,-0.546875 -0.4375,-1.09375 -1.203125,-1.25 0.71875,-0.265625 0.984375,-0.78125 0.984375,-1.21875 0,-0.546875 -0.625,-0.953125 -1.40625,-0.953125 -0.765625,0 -1.359375,0.375 -1.359375,0.9375 0,0.234375 0.15625,0.359375 0.359375,0.359375 0.21875,0 0.359375,-0.15625 0.359375,-0.34375 0,-0.203125 -0.140625,-0.359375 -0.359375,-0.375 0.25,-0.296875 0.71875,-0.375 0.984375,-0.375 0.3125,0 0.75,0.15625 0.75,0.75 0,0.296875 -0.09375,0.625 -0.28125,0.828125 -0.21875,0.265625 -0.421875,0.28125 -0.765625,0.3125 -0.171875,0.015625 -0.1875,0.015625 -0.21875,0.015625 -0.015625,0 -0.078125,0.015625 -0.078125,0.09375 0,0.09375 0.0625,0.09375 0.1875,0.09375 z m 0,0"
                 style="stroke:none" />
            </g>
          </g>
          <g
             id="id-254a8418-c9c0-4472-bd5c-503d874c814f"
             style="fill:#000000;fill-opacity:1">
            <g
               transform="translate(155.075,134.765)"
               id="g2328">
              <path
                 id="id-88dc85bd-f0b9-47db-97ba-74d18be2ce10"
                 d="m 2.859375,-6.8125 c 0,0 0,-0.109375 -0.125,-0.109375 -0.234375,0 -0.953125,0.078125 -1.21875,0.109375 -0.078125,0 -0.1875,0.015625 -0.1875,0.1875 0,0.125 0.09375,0.125 0.234375,0.125 0.484375,0 0.5,0.0625 0.5,0.171875 L 2.03125,-6.125 0.59375,-0.390625 c -0.046875,0.140625 -0.046875,0.15625 -0.046875,0.21875 0,0.234375 0.203125,0.28125 0.296875,0.28125 0.15625,0 0.3125,-0.125 0.359375,-0.265625 l 0.1875,-0.75 0.21875,-0.890625 C 1.671875,-2.03125 1.734375,-2.25 1.78125,-2.46875 1.796875,-2.53125 1.890625,-2.859375 1.890625,-2.921875 1.921875,-3.015625 2.234375,-3.5625 2.578125,-3.84375 2.796875,-4 3.09375,-4.1875 3.53125,-4.1875 c 0.421875,0 0.53125,0.34375 0.53125,0.703125 0,0.53125 -0.375,1.625 -0.609375,2.234375 C 3.375,-1.03125 3.3125,-0.90625 3.3125,-0.703125 c 0,0.46875 0.359375,0.8125 0.828125,0.8125 0.9375,0 1.296875,-1.453125 1.296875,-1.53125 0,-0.109375 -0.078125,-0.109375 -0.109375,-0.109375 -0.109375,0 -0.109375,0.03125 -0.15625,0.1875 -0.140625,0.53125 -0.46875,1.234375 -1.015625,1.234375 -0.171875,0 -0.234375,-0.09375 -0.234375,-0.328125 0,-0.25 0.078125,-0.484375 0.171875,-0.703125 0.15625,-0.4375 0.609375,-1.625 0.609375,-2.203125 0,-0.640625 -0.390625,-1.0625 -1.140625,-1.0625 -0.625,0 -1.109375,0.3125 -1.484375,0.765625 z m 0,0"
                 style="stroke:none" />
            </g>
          </g>
        </g>
      </g>
      <g
         transform="matrix(0.705556,0,0,0.705556,55.800002,64.515018)"
         ns21:version="1.0.1"
         ns21:texconverter="pdflatex"
         ns21:pdfconverter="inkscape"
         ns21:text="$\\mathbf{G}$"
         ns21:preamble="C:\\Users\\claum\\AppData\\Roaming\\inkscape\\extensions\\textext\\default_packages.tex"
         ns21:scale="2.0"
         ns21:alignment="middle center"
         ns21:jacobian_sqrt="0.705556"
         id="g2440">
        <defs
           id="id-90c2d51e-5e96-4054-a8e8-a3347a8ac1a8">
          <g
             id="id-779d0640-fe11-4b70-935b-81339a4bd43a">
            <symbol
               id="id-0c7194fe-9c26-45cf-879b-2f621e3bb0f9"
               overflow="visible">
              <path
                 id="id-615cf998-8325-42b1-aaac-58774a4201ca"
                 d=""
                 style="stroke:none" />
            </symbol>
            <symbol
               id="id-6855214b-82c9-4a31-b497-9cb9da84908f"
               overflow="visible">
              <path
                 id="id-cd4d3cb3-c5ff-4713-8018-94c759cb40eb"
                 d="M 6.515625,-0.53125 C 6.8125,-0.265625 7.421875,0 7.484375,0 7.625,0 7.625,-0.125 7.625,-0.28125 v -2 H 8.421875 V -2.75 c -0.34375,0.03125 -1.21875,0.03125 -1.609375,0.03125 -0.578125,0 -1.5,0 -2.03125,-0.03125 v 0.46875 h 1.421875 v 1 c 0,0.1875 0,0.484375 -0.375,0.71875 C 5.5625,-0.421875 5.25,-0.359375 4.921875,-0.359375 c -0.859375,0 -1.71875,-0.28125 -2.203125,-0.90625 -0.421875,-0.546875 -0.5625,-1.25 -0.5625,-2.15625 0,-1.125 0.203125,-1.703125 0.578125,-2.1875 0.390625,-0.5 1.15625,-0.875 2.125,-0.875 1.0625,0 2.015625,0.765625 2.234375,2.03125 C 7.125,-4.265625 7.125,-4.25 7.359375,-4.25 c 0.25,0 0.265625,-0.015625 0.265625,-0.28125 v -2.140625 c 0,-0.1875 0,-0.28125 -0.171875,-0.28125 -0.09375,0 -0.109375,0.03125 -0.203125,0.09375 l -0.65625,0.59375 c -0.71875,-0.578125 -1.4375,-0.6875 -1.953125,-0.6875 -2.453125,0 -4,1.46875 -4,3.53125 0,1.984375 1.4375,3.53125 4.015625,3.53125 0.328125,0 1.359375,-0.015625 1.859375,-0.640625 z m 0,0"
                 style="stroke:none" />
            </symbol>
          </g>
        </defs>
        <g
           transform="translate(-149.353,-127.812)"
           id="id-2c2ad6b7-822c-4ab1-8ae2-56ede4e64ccd">
          <g
             id="id-7e5e089d-b8ad-497b-b533-0c9b2e14edd7"
             style="fill:#000000;fill-opacity:1">
            <g
               transform="translate(148.712,134.765)"
               id="g2436">
              <path
                 id="id-12b12147-cc98-4c2f-9e84-e076a4cc6881"
                 d="M 6.515625,-0.53125 C 6.8125,-0.265625 7.421875,0 7.484375,0 7.625,0 7.625,-0.125 7.625,-0.28125 v -2 H 8.421875 V -2.75 c -0.34375,0.03125 -1.21875,0.03125 -1.609375,0.03125 -0.578125,0 -1.5,0 -2.03125,-0.03125 v 0.46875 h 1.421875 v 1 c 0,0.1875 0,0.484375 -0.375,0.71875 C 5.5625,-0.421875 5.25,-0.359375 4.921875,-0.359375 c -0.859375,0 -1.71875,-0.28125 -2.203125,-0.90625 -0.421875,-0.546875 -0.5625,-1.25 -0.5625,-2.15625 0,-1.125 0.203125,-1.703125 0.578125,-2.1875 0.390625,-0.5 1.15625,-0.875 2.125,-0.875 1.0625,0 2.015625,0.765625 2.234375,2.03125 C 7.125,-4.265625 7.125,-4.25 7.359375,-4.25 c 0.25,0 0.265625,-0.015625 0.265625,-0.28125 v -2.140625 c 0,-0.1875 0,-0.28125 -0.171875,-0.28125 -0.09375,0 -0.109375,0.03125 -0.203125,0.09375 l -0.65625,0.59375 c -0.71875,-0.578125 -1.4375,-0.6875 -1.953125,-0.6875 -2.453125,0 -4,1.46875 -4,3.53125 0,1.984375 1.4375,3.53125 4.015625,3.53125 0.328125,0 1.359375,-0.015625 1.859375,-0.640625 z m 0,0"
                 style="stroke:none" />
            </g>
          </g>
        </g>
      </g>
      <g
         transform="matrix(0.705556,0,0,0.705556,42.196892,106.72684)"
         ns21:version="1.0.1"
         ns21:texconverter="pdflatex"
         ns21:pdfconverter="inkscape"
         ns21:text="$\\frac{1}{3}b$"
         ns21:preamble="C:\\Users\\claum\\AppData\\Roaming\\inkscape\\extensions\\textext\\default_packages.tex"
         ns21:scale="2.0"
         ns21:alignment="middle center"
         ns21:jacobian_sqrt="0.705556"
         id="g2561">
        <defs
           id="id-049aa5e3-34f0-4392-bae7-ce5ce1124040">
          <g
             id="id-0d8c8a19-acc5-4f3e-ad01-59eff15e12eb">
            <symbol
               id="id-6d25e868-9fa3-4963-9d15-e10941e56333"
               overflow="visible">
              <path
                 id="id-23cdbff2-9421-455b-b184-00be0afa31ff"
                 d=""
                 style="stroke:none" />
            </symbol>
            <symbol
               id="id-9bfb7067-9124-482c-8632-e34f0bb97077"
               overflow="visible">
              <path
                 id="id-9e55ea34-de74-4122-b44c-90f6cf0c3bb4"
                 d="m 2.328125,-4.4375 c 0,-0.1875 0,-0.1875 -0.203125,-0.1875 -0.453125,0.4375 -1.078125,0.4375 -1.359375,0.4375 v 0.25 c 0.15625,0 0.625,0 1,-0.1875 v 3.546875 c 0,0.234375 0,0.328125 -0.6875,0.328125 H 0.8125 V 0 c 0.125,0 0.984375,-0.03125 1.234375,-0.03125 0.21875,0 1.09375,0.03125 1.25,0.03125 V -0.25 H 3.03125 c -0.703125,0 -0.703125,-0.09375 -0.703125,-0.328125 z m 0,0"
                 style="stroke:none" />
            </symbol>
            <symbol
               id="id-4bef313c-0fdf-45bd-916c-f9c06ffb4483"
               overflow="visible">
              <path
                 id="id-68a98521-acd4-478d-b329-f5c754fe1f89"
                 d="m 1.90625,-2.328125 c 0.546875,0 0.9375,0.375 0.9375,1.125 0,0.859375 -0.515625,1.125 -0.90625,1.125 -0.28125,0 -0.90625,-0.078125 -1.1875,-0.5 0.328125,0 0.40625,-0.234375 0.40625,-0.390625 0,-0.21875 -0.171875,-0.375 -0.390625,-0.375 -0.1875,0 -0.390625,0.125 -0.390625,0.40625 0,0.65625 0.71875,1.078125 1.5625,1.078125 0.96875,0 1.640625,-0.65625 1.640625,-1.34375 0,-0.546875 -0.4375,-1.09375 -1.203125,-1.25 0.71875,-0.265625 0.984375,-0.78125 0.984375,-1.21875 0,-0.546875 -0.625,-0.953125 -1.40625,-0.953125 -0.765625,0 -1.359375,0.375 -1.359375,0.9375 0,0.234375 0.15625,0.359375 0.359375,0.359375 0.21875,0 0.359375,-0.15625 0.359375,-0.34375 0,-0.203125 -0.140625,-0.359375 -0.359375,-0.375 0.25,-0.296875 0.71875,-0.375 0.984375,-0.375 0.3125,0 0.75,0.15625 0.75,0.75 0,0.296875 -0.09375,0.625 -0.28125,0.828125 -0.21875,0.265625 -0.421875,0.28125 -0.765625,0.3125 -0.171875,0.015625 -0.1875,0.015625 -0.21875,0.015625 -0.015625,0 -0.078125,0.015625 -0.078125,0.09375 0,0.09375 0.0625,0.09375 0.1875,0.09375 z m 0,0"
                 style="stroke:none" />
            </symbol>
            <symbol
               id="id-4df31b45-3b81-490b-853d-1567c34b204f"
               overflow="visible">
              <path
                 id="id-870b70f9-8929-4b65-b0da-16f52713360b"
                 d=""
                 style="stroke:none" />
            </symbol>
            <symbol
               id="id-b0637743-a350-4ad6-a45a-8e568cc93698"
               overflow="visible">
              <path
                 id="id-63cfeb9e-e67f-40b7-92ce-783dc9490d06"
                 d="m 2.375,-6.8125 c 0,0 0,-0.109375 -0.125,-0.109375 -0.21875,0 -0.953125,0.078125 -1.21875,0.109375 -0.078125,0 -0.1875,0.015625 -0.1875,0.1875 0,0.125 0.09375,0.125 0.25,0.125 0.46875,0 0.484375,0.0625 0.484375,0.171875 0,0.0625 -0.078125,0.40625 -0.125,0.609375 l -0.828125,3.25 c -0.109375,0.5 -0.15625,0.671875 -0.15625,1.015625 0,0.9375 0.53125,1.5625 1.265625,1.5625 1.171875,0 2.40625,-1.484375 2.40625,-2.921875 0,-0.90625 -0.53125,-1.59375 -1.328125,-1.59375 -0.453125,0 -0.875,0.296875 -1.171875,0.59375 z M 1.453125,-3.046875 C 1.5,-3.265625 1.5,-3.28125 1.59375,-3.390625 2.078125,-4.03125 2.53125,-4.1875 2.796875,-4.1875 c 0.359375,0 0.625,0.296875 0.625,0.9375 0,0.59375 -0.328125,1.734375 -0.515625,2.109375 -0.328125,0.671875 -0.78125,1.03125 -1.171875,1.03125 -0.34375,0 -0.671875,-0.265625 -0.671875,-1 0,-0.203125 0,-0.390625 0.15625,-1.015625 z m 0,0"
                 style="stroke:none" />
            </symbol>
          </g>
        </defs>
        <g
           transform="translate(-149.906,-126.217)"
           id="id-b22fb6a7-f2bb-48c8-bf74-d1865109e2b3">
          <g
             id="id-20d756d7-a53a-4e0c-bbb7-050c48a8c779"
             style="fill:#000000;fill-opacity:1">
            <g
               transform="translate(149.908,130.842)"
               id="g2548">
              <path
                 id="id-41635b42-fd2c-4ade-bc93-c7e3a8958ee6"
                 d="m 2.328125,-4.4375 c 0,-0.1875 0,-0.1875 -0.203125,-0.1875 -0.453125,0.4375 -1.078125,0.4375 -1.359375,0.4375 v 0.25 c 0.15625,0 0.625,0 1,-0.1875 v 3.546875 c 0,0.234375 0,0.328125 -0.6875,0.328125 H 0.8125 V 0 c 0.125,0 0.984375,-0.03125 1.234375,-0.03125 0.21875,0 1.09375,0.03125 1.25,0.03125 V -0.25 H 3.03125 c -0.703125,0 -0.703125,-0.09375 -0.703125,-0.328125 z m 0,0"
                 style="stroke:none" />
            </g>
          </g>
          <path
             id="id-3b12ff0c-72a5-4777-b7ee-1904619207c4"
             transform="matrix(1,0,0,-1,149.908,132.274)"
             d="M -0.00175,5.625e-4 H 3.970906"
             style="fill:none;stroke:#000000;stroke-width:0.398;stroke-linecap:butt;stroke-linejoin:miter;stroke-miterlimit:10;stroke-opacity:1" />
          <g
             id="id-ed1fdb56-ebf1-4b19-95ff-c38bd9677f80"
             style="fill:#000000;fill-opacity:1">
            <g
               transform="translate(149.908,138.2)"
               id="g2553">
              <path
                 id="id-d6fcba22-2f06-4578-8024-89aaaee12848"
                 d="m 1.90625,-2.328125 c 0.546875,0 0.9375,0.375 0.9375,1.125 0,0.859375 -0.515625,1.125 -0.90625,1.125 -0.28125,0 -0.90625,-0.078125 -1.1875,-0.5 0.328125,0 0.40625,-0.234375 0.40625,-0.390625 0,-0.21875 -0.171875,-0.375 -0.390625,-0.375 -0.1875,0 -0.390625,0.125 -0.390625,0.40625 0,0.65625 0.71875,1.078125 1.5625,1.078125 0.96875,0 1.640625,-0.65625 1.640625,-1.34375 0,-0.546875 -0.4375,-1.09375 -1.203125,-1.25 0.71875,-0.265625 0.984375,-0.78125 0.984375,-1.21875 0,-0.546875 -0.625,-0.953125 -1.40625,-0.953125 -0.765625,0 -1.359375,0.375 -1.359375,0.9375 0,0.234375 0.15625,0.359375 0.359375,0.359375 0.21875,0 0.359375,-0.15625 0.359375,-0.34375 0,-0.203125 -0.140625,-0.359375 -0.359375,-0.375 0.25,-0.296875 0.71875,-0.375 0.984375,-0.375 0.3125,0 0.75,0.15625 0.75,0.75 0,0.296875 -0.09375,0.625 -0.28125,0.828125 -0.21875,0.265625 -0.421875,0.28125 -0.765625,0.3125 -0.171875,0.015625 -0.1875,0.015625 -0.21875,0.015625 -0.015625,0 -0.078125,0.015625 -0.078125,0.09375 0,0.09375 0.0625,0.09375 0.1875,0.09375 z m 0,0"
                 style="stroke:none" />
            </g>
          </g>
          <g
             id="id-3d31d1b4-8ee8-4368-9da8-b05a3d703243"
             style="fill:#000000;fill-opacity:1">
            <g
               transform="translate(155.075,134.765)"
               id="g2557">
              <path
                 id="id-009f9a6a-f50f-4def-9089-f3c0881905fa"
                 d="m 2.375,-6.8125 c 0,0 0,-0.109375 -0.125,-0.109375 -0.21875,0 -0.953125,0.078125 -1.21875,0.109375 -0.078125,0 -0.1875,0.015625 -0.1875,0.1875 0,0.125 0.09375,0.125 0.25,0.125 0.46875,0 0.484375,0.0625 0.484375,0.171875 0,0.0625 -0.078125,0.40625 -0.125,0.609375 l -0.828125,3.25 c -0.109375,0.5 -0.15625,0.671875 -0.15625,1.015625 0,0.9375 0.53125,1.5625 1.265625,1.5625 1.171875,0 2.40625,-1.484375 2.40625,-2.921875 0,-0.90625 -0.53125,-1.59375 -1.328125,-1.59375 -0.453125,0 -0.875,0.296875 -1.171875,0.59375 z M 1.453125,-3.046875 C 1.5,-3.265625 1.5,-3.28125 1.59375,-3.390625 2.078125,-4.03125 2.53125,-4.1875 2.796875,-4.1875 c 0.359375,0 0.625,0.296875 0.625,0.9375 0,0.59375 -0.328125,1.734375 -0.515625,2.109375 -0.328125,0.671875 -0.78125,1.03125 -1.171875,1.03125 -0.34375,0 -0.671875,-0.265625 -0.671875,-1 0,-0.203125 0,-0.390625 0.15625,-1.015625 z m 0,0"
                 style="stroke:none" />
            </g>
          </g>
        </g>
      </g>
      <g
         transform="matrix(0.705556,0,0,0.705556,81.196892,106.72684)"
         ns21:version="1.0.1"
         ns21:texconverter="pdflatex"
         ns21:pdfconverter="inkscape"
         ns21:text="$\\frac{2}{3}b$"
         ns21:preamble="C:\\Users\\claum\\AppData\\Roaming\\inkscape\\extensions\\textext\\default_packages.tex"
         ns21:scale="2.0"
         ns21:alignment="middle center"
         ns21:jacobian_sqrt="0.705556"
         id="g2719">
        <defs
           id="id-97d18f14-cb37-4e62-9569-fdeadf5faaa0">
          <g
             id="id-ba59a0d8-9df1-4b7b-959b-41abe97dd866">
            <symbol
               id="id-8d461fef-18d9-4c35-bd60-96810dcab395"
               overflow="visible">
              <path
                 id="id-dc1cbad9-7416-4435-a88d-1039dc05a0d4"
                 d=""
                 style="stroke:none" />
            </symbol>
            <symbol
               id="id-2df041fe-3eba-4557-815e-697af91b3090"
               overflow="visible">
              <path
                 id="id-2a40d4ef-ca16-4eb3-ac77-595ceea5408c"
                 d="M 3.515625,-1.265625 H 3.28125 c -0.015625,0.15625 -0.09375,0.5625 -0.1875,0.625 C 3.046875,-0.59375 2.515625,-0.59375 2.40625,-0.59375 H 1.125 c 0.734375,-0.640625 0.984375,-0.84375 1.390625,-1.171875 0.515625,-0.40625 1,-0.84375 1,-1.5 0,-0.84375 -0.734375,-1.359375 -1.625,-1.359375 -0.859375,0 -1.453125,0.609375 -1.453125,1.25 0,0.34375 0.296875,0.390625 0.375,0.390625 0.15625,0 0.359375,-0.125 0.359375,-0.375 0,-0.125 -0.046875,-0.375 -0.40625,-0.375 C 0.984375,-4.21875 1.453125,-4.375 1.78125,-4.375 c 0.703125,0 1.0625,0.546875 1.0625,1.109375 0,0.609375 -0.4375,1.078125 -0.65625,1.328125 L 0.515625,-0.265625 C 0.4375,-0.203125 0.4375,-0.1875 0.4375,0 h 2.875 z m 0,0"
                 style="stroke:none" />
            </symbol>
            <symbol
               id="id-324cd291-f6af-45e5-886c-7396449184fb"
               overflow="visible">
              <path
                 id="id-575ef23e-c564-475e-85f2-b1ce84d21a0c"
                 d="m 1.90625,-2.328125 c 0.546875,0 0.9375,0.375 0.9375,1.125 0,0.859375 -0.515625,1.125 -0.90625,1.125 -0.28125,0 -0.90625,-0.078125 -1.1875,-0.5 0.328125,0 0.40625,-0.234375 0.40625,-0.390625 0,-0.21875 -0.171875,-0.375 -0.390625,-0.375 -0.1875,0 -0.390625,0.125 -0.390625,0.40625 0,0.65625 0.71875,1.078125 1.5625,1.078125 0.96875,0 1.640625,-0.65625 1.640625,-1.34375 0,-0.546875 -0.4375,-1.09375 -1.203125,-1.25 0.71875,-0.265625 0.984375,-0.78125 0.984375,-1.21875 0,-0.546875 -0.625,-0.953125 -1.40625,-0.953125 -0.765625,0 -1.359375,0.375 -1.359375,0.9375 0,0.234375 0.15625,0.359375 0.359375,0.359375 0.21875,0 0.359375,-0.15625 0.359375,-0.34375 0,-0.203125 -0.140625,-0.359375 -0.359375,-0.375 0.25,-0.296875 0.71875,-0.375 0.984375,-0.375 0.3125,0 0.75,0.15625 0.75,0.75 0,0.296875 -0.09375,0.625 -0.28125,0.828125 -0.21875,0.265625 -0.421875,0.28125 -0.765625,0.3125 -0.171875,0.015625 -0.1875,0.015625 -0.21875,0.015625 -0.015625,0 -0.078125,0.015625 -0.078125,0.09375 0,0.09375 0.0625,0.09375 0.1875,0.09375 z m 0,0"
                 style="stroke:none" />
            </symbol>
            <symbol
               id="id-78a44fac-473f-40ca-90d2-c742dca9fef6"
               overflow="visible">
              <path
                 id="id-2dc1b06f-0623-4f8d-bd74-4fb8e29cb8a4"
                 d=""
                 style="stroke:none" />
            </symbol>
            <symbol
               id="id-f56352ab-9569-49fb-9a2a-8e5c2c311b07"
               overflow="visible">
              <path
                 id="id-3126a804-a6e9-4dbc-86a1-fde9e567862c"
                 d="m 2.375,-6.8125 c 0,0 0,-0.109375 -0.125,-0.109375 -0.21875,0 -0.953125,0.078125 -1.21875,0.109375 -0.078125,0 -0.1875,0.015625 -0.1875,0.1875 0,0.125 0.09375,0.125 0.25,0.125 0.46875,0 0.484375,0.0625 0.484375,0.171875 0,0.0625 -0.078125,0.40625 -0.125,0.609375 l -0.828125,3.25 c -0.109375,0.5 -0.15625,0.671875 -0.15625,1.015625 0,0.9375 0.53125,1.5625 1.265625,1.5625 1.171875,0 2.40625,-1.484375 2.40625,-2.921875 0,-0.90625 -0.53125,-1.59375 -1.328125,-1.59375 -0.453125,0 -0.875,0.296875 -1.171875,0.59375 z M 1.453125,-3.046875 C 1.5,-3.265625 1.5,-3.28125 1.59375,-3.390625 2.078125,-4.03125 2.53125,-4.1875 2.796875,-4.1875 c 0.359375,0 0.625,0.296875 0.625,0.9375 0,0.59375 -0.328125,1.734375 -0.515625,2.109375 -0.328125,0.671875 -0.78125,1.03125 -1.171875,1.03125 -0.34375,0 -0.671875,-0.265625 -0.671875,-1 0,-0.203125 0,-0.390625 0.15625,-1.015625 z m 0,0"
                 style="stroke:none" />
            </symbol>
          </g>
        </defs>
        <g
           transform="translate(-149.906,-126.217)"
           id="id-3b5e8553-e647-4d35-8b29-4f8855a514d2">
          <g
             id="id-a7228b1d-ecde-48b9-a58d-314753ebc0bd"
             style="fill:#000000;fill-opacity:1">
            <g
               transform="translate(149.908,130.842)"
               id="g2706">
              <path
                 id="id-f5b150b3-bb76-4b52-a03e-b07c456c29bd"
                 d="M 3.515625,-1.265625 H 3.28125 c -0.015625,0.15625 -0.09375,0.5625 -0.1875,0.625 C 3.046875,-0.59375 2.515625,-0.59375 2.40625,-0.59375 H 1.125 c 0.734375,-0.640625 0.984375,-0.84375 1.390625,-1.171875 0.515625,-0.40625 1,-0.84375 1,-1.5 0,-0.84375 -0.734375,-1.359375 -1.625,-1.359375 -0.859375,0 -1.453125,0.609375 -1.453125,1.25 0,0.34375 0.296875,0.390625 0.375,0.390625 0.15625,0 0.359375,-0.125 0.359375,-0.375 0,-0.125 -0.046875,-0.375 -0.40625,-0.375 C 0.984375,-4.21875 1.453125,-4.375 1.78125,-4.375 c 0.703125,0 1.0625,0.546875 1.0625,1.109375 0,0.609375 -0.4375,1.078125 -0.65625,1.328125 L 0.515625,-0.265625 C 0.4375,-0.203125 0.4375,-0.1875 0.4375,0 h 2.875 z m 0,0"
                 style="stroke:none" />
            </g>
          </g>
          <path
             id="id-83b80ac4-1c9d-4bf2-8be1-cbffdb265fb1"
             transform="matrix(1,0,0,-1,149.908,132.274)"
             d="M -0.00175,5.625e-4 H 3.970906"
             style="fill:none;stroke:#000000;stroke-width:0.398;stroke-linecap:butt;stroke-linejoin:miter;stroke-miterlimit:10;stroke-opacity:1" />
          <g
             id="id-fcb48332-f18b-49d9-b59c-7845f938786c"
             style="fill:#000000;fill-opacity:1">
            <g
               transform="translate(149.908,138.2)"
               id="g2711">
              <path
                 id="id-57208156-7d40-4c6f-9f4f-6d9913d94244"
                 d="m 1.90625,-2.328125 c 0.546875,0 0.9375,0.375 0.9375,1.125 0,0.859375 -0.515625,1.125 -0.90625,1.125 -0.28125,0 -0.90625,-0.078125 -1.1875,-0.5 0.328125,0 0.40625,-0.234375 0.40625,-0.390625 0,-0.21875 -0.171875,-0.375 -0.390625,-0.375 -0.1875,0 -0.390625,0.125 -0.390625,0.40625 0,0.65625 0.71875,1.078125 1.5625,1.078125 0.96875,0 1.640625,-0.65625 1.640625,-1.34375 0,-0.546875 -0.4375,-1.09375 -1.203125,-1.25 0.71875,-0.265625 0.984375,-0.78125 0.984375,-1.21875 0,-0.546875 -0.625,-0.953125 -1.40625,-0.953125 -0.765625,0 -1.359375,0.375 -1.359375,0.9375 0,0.234375 0.15625,0.359375 0.359375,0.359375 0.21875,0 0.359375,-0.15625 0.359375,-0.34375 0,-0.203125 -0.140625,-0.359375 -0.359375,-0.375 0.25,-0.296875 0.71875,-0.375 0.984375,-0.375 0.3125,0 0.75,0.15625 0.75,0.75 0,0.296875 -0.09375,0.625 -0.28125,0.828125 -0.21875,0.265625 -0.421875,0.28125 -0.765625,0.3125 -0.171875,0.015625 -0.1875,0.015625 -0.21875,0.015625 -0.015625,0 -0.078125,0.015625 -0.078125,0.09375 0,0.09375 0.0625,0.09375 0.1875,0.09375 z m 0,0"
                 style="stroke:none" />
            </g>
          </g>
          <g
             id="id-0b2d02de-1314-4c19-9c95-6689d894e116"
             style="fill:#000000;fill-opacity:1">
            <g
               transform="translate(155.075,134.765)"
               id="g2715">
              <path
                 id="id-1c530d8d-8b3b-4737-81c8-f0e4d7492d79"
                 d="m 2.375,-6.8125 c 0,0 0,-0.109375 -0.125,-0.109375 -0.21875,0 -0.953125,0.078125 -1.21875,0.109375 -0.078125,0 -0.1875,0.015625 -0.1875,0.1875 0,0.125 0.09375,0.125 0.25,0.125 0.46875,0 0.484375,0.0625 0.484375,0.171875 0,0.0625 -0.078125,0.40625 -0.125,0.609375 l -0.828125,3.25 c -0.109375,0.5 -0.15625,0.671875 -0.15625,1.015625 0,0.9375 0.53125,1.5625 1.265625,1.5625 1.171875,0 2.40625,-1.484375 2.40625,-2.921875 0,-0.90625 -0.53125,-1.59375 -1.328125,-1.59375 -0.453125,0 -0.875,0.296875 -1.171875,0.59375 z M 1.453125,-3.046875 C 1.5,-3.265625 1.5,-3.28125 1.59375,-3.390625 2.078125,-4.03125 2.53125,-4.1875 2.796875,-4.1875 c 0.359375,0 0.625,0.296875 0.625,0.9375 0,0.59375 -0.328125,1.734375 -0.515625,2.109375 -0.328125,0.671875 -0.78125,1.03125 -1.171875,1.03125 -0.34375,0 -0.671875,-0.265625 -0.671875,-1 0,-0.203125 0,-0.390625 0.15625,-1.015625 z m 0,0"
                 style="stroke:none" />
            </g>
          </g>
        </g>
      </g>
    </g>
    <path
       transform="scale(0.26458333)"
       id="path2964"
       d="m 102.95833,287.24157 c 0,-32.52691 0.13132,-37.1231 1.06066,-37.1231 0.58337,0 1.06066,-0.3182 1.06066,-0.70711 0,-0.38891 -0.47729,-0.70711 -1.06066,-0.70711 -0.93834,0 -1.06066,-12.90463 -1.06066,-111.89902 V 24.906209 L 252.51142,174.45804 c 82.25419,82.2535 149.55308,149.63166 149.55308,149.72923 0,0.0976 -50.27529,0.17741 -111.72287,0.17741 H 178.61876 v -3.18198 c 0,-2.39718 -0.26925,-3.18198 -1.09166,-3.18198 -0.60041,0 -1.04001,0.39774 -0.97688,0.88388 0.0632,0.48614 0.0771,1.91803 0.031,3.18198 l -0.0837,2.2981 h -36.76956 -36.76955 z m 75.66043,29.34493 c 0,-0.38891 -0.4773,-0.7071 -1.06066,-0.7071 -0.58337,0 -1.06066,0.31819 -1.06066,0.7071 0,0.38891 0.47729,0.70711 1.06066,0.70711 0.58336,0 1.06066,-0.3182 1.06066,-0.70711 z m 0,-6.0104 c 0,-3.45069 -0.24477,-4.5962 -0.9821,-4.5962 -0.73732,0 -0.98209,1.14551 -0.98209,4.5962 0,3.45068 0.24477,4.59619 0.98209,4.59619 0.73733,0 0.9821,-1.14551 0.9821,-4.59619 z m 0,-6.01041 c 0,-0.38891 -0.4773,-0.70711 -1.06066,-0.70711 -0.58337,0 -1.06066,0.3182 -1.06066,0.70711 0,0.38891 0.47729,0.7071 1.06066,0.7071 0.58336,0 1.06066,-0.31819 1.06066,-0.7071 z m 0,-6.01041 c 0,-3.45068 -0.24477,-4.59619 -0.9821,-4.59619 -0.73732,0 -0.98209,1.14551 -0.98209,4.59619 0,3.45068 0.24477,4.59619 0.98209,4.59619 0.73733,0 0.9821,-1.14551 0.9821,-4.59619 z m 0,-6.01041 c 0,-0.38891 -0.4773,-0.7071 -1.06066,-0.7071 -0.58337,0 -1.06066,0.31819 -1.06066,0.7071 0,0.38891 0.47729,0.70711 1.06066,0.70711 0.58336,0 1.06066,-0.3182 1.06066,-0.70711 z m 0,-6.01041 c 0,-3.45068 -0.24477,-4.59619 -0.9821,-4.59619 -0.73732,0 -0.98209,1.14551 -0.98209,4.59619 0,3.45069 0.24477,4.5962 0.98209,4.5962 0.73733,0 0.9821,-1.14551 0.9821,-4.5962 z m 0,-6.0104 c 0,-0.38891 -0.4773,-0.70711 -1.06066,-0.70711 -0.58337,0 -1.06066,0.3182 -1.06066,0.70711 0,0.38891 0.47729,0.7071 1.06066,0.7071 0.58336,0 1.06066,-0.31819 1.06066,-0.7071 z m 0,-6.01041 c 0,-3.45068 -0.24477,-4.59619 -0.9821,-4.59619 -0.73732,0 -0.98209,1.14551 -0.98209,4.59619 0,3.45068 0.24477,4.59619 0.98209,4.59619 0.73733,0 0.9821,-1.14551 0.9821,-4.59619 z m 0,-6.01041 c 0,-0.38891 -0.4773,-0.70711 -1.06066,-0.70711 -0.58337,0 -1.06066,0.3182 -1.06066,0.70711 0,0.38891 0.47729,0.70711 1.06066,0.70711 0.58336,0 1.06066,-0.3182 1.06066,-0.70711 z m 0,-6.01041 c 0,-3.45068 -0.24477,-4.59619 -0.9821,-4.59619 -0.73732,0 -0.98209,1.14551 -0.98209,4.59619 0,3.45069 0.24477,4.5962 0.98209,4.5962 0.73733,0 0.9821,-1.14551 0.9821,-4.5962 z m 0,-6.0104 c 0,-0.38891 -0.4773,-0.70711 -1.06066,-0.70711 -0.58337,0 -1.06066,0.3182 -1.06066,0.70711 0,0.38891 0.47729,0.7071 1.06066,0.7071 0.58336,0 1.06066,-0.31819 1.06066,-0.7071 z m 0.40793,-2.2981 c 2.72253,-2.28017 3.1276,-2.87479 3.1276,-4.59103 0,-4.30647 -5.86933,-6.2089 -8.19675,-2.65682 -0.63706,0.97228 -1.75809,1.76777 -2.49117,1.76777 -0.73309,0 -1.33289,0.3182 -1.33289,0.70711 0,0.38891 0.55684,0.71398 1.23743,0.72239 0.68059,0.008 2.189,1.1221 3.35202,2.47487 2.33263,2.71322 2.75913,2.86938 4.30376,1.57571 z m -71.82572,-4.77297 c 0,-0.38891 -0.3182,-0.70711 -0.7071,-0.70711 -0.38891,0 -0.70711,0.3182 -0.70711,0.70711 0,0.38891 0.3182,0.70711 0.70711,0.70711 0.3889,0 0.7071,-0.3182 0.7071,-0.70711 z m 2.12132,0 c 0,-0.38891 -0.3182,-0.70711 -0.7071,-0.70711 -0.38891,0 -0.70711,0.3182 -0.70711,0.70711 0,0.38891 0.3182,0.70711 0.70711,0.70711 0.3889,0 0.7071,-0.3182 0.7071,-0.70711 z m 7.77818,0 c 0,-0.38891 -1.59099,-0.70711 -3.53554,-0.70711 -1.94454,0 -3.53553,0.3182 -3.53553,0.70711 0,0.38891 1.59099,0.70711 3.53553,0.70711 1.94455,0 3.53554,-0.3182 3.53554,-0.70711 z m 2.12132,0 c 0,-0.38891 -0.3182,-0.70711 -0.70711,-0.70711 -0.38891,0 -0.70711,0.3182 -0.70711,0.70711 0,0.38891 0.3182,0.70711 0.70711,0.70711 0.38891,0 0.70711,-0.3182 0.70711,-0.70711 z m 2.12132,0 c 0,-0.38891 -0.3182,-0.70711 -0.70711,-0.70711 -0.38891,0 -0.70711,0.3182 -0.70711,0.70711 0,0.38891 0.3182,0.70711 0.70711,0.70711 0.38891,0 0.70711,-0.3182 0.70711,-0.70711 z m 7.77817,0 c 0,-0.38891 -1.59099,-0.70711 -3.53553,-0.70711 -1.94454,0 -3.53553,0.3182 -3.53553,0.70711 0,0.38891 1.59099,0.70711 3.53553,0.70711 1.94454,0 3.53553,-0.3182 3.53553,-0.70711 z m 2.12132,0 c 0,-0.38891 -0.31819,-0.70711 -0.7071,-0.70711 -0.38891,0 -0.70711,0.3182 -0.70711,0.70711 0,0.38891 0.3182,0.70711 0.70711,0.70711 0.38891,0 0.7071,-0.3182 0.7071,-0.70711 z m 2.12132,0 c 0,-0.38891 -0.31819,-0.70711 -0.7071,-0.70711 -0.38891,0 -0.70711,0.3182 -0.70711,0.70711 0,0.38891 0.3182,0.70711 0.70711,0.70711 0.38891,0 0.7071,-0.3182 0.7071,-0.70711 z m 7.77818,0 c 0,-0.38891 -1.59099,-0.70711 -3.53554,-0.70711 -1.94454,0 -3.53553,0.3182 -3.53553,0.70711 0,0.38891 1.59099,0.70711 3.53553,0.70711 1.94455,0 3.53554,-0.3182 3.53554,-0.70711 z m 2.12132,0 c 0,-0.38891 -0.3182,-0.70711 -0.70711,-0.70711 -0.38891,0 -0.70711,0.3182 -0.70711,0.70711 0,0.38891 0.3182,0.70711 0.70711,0.70711 0.38891,0 0.70711,-0.3182 0.70711,-0.70711 z m 2.12132,0 c 0,-0.38891 -0.3182,-0.70711 -0.70711,-0.70711 -0.38891,0 -0.7071,0.3182 -0.7071,0.70711 0,0.38891 0.31819,0.70711 0.7071,0.70711 0.38891,0 0.70711,-0.3182 0.70711,-0.70711 z m 7.77817,0 c 0,-0.38891 -1.59099,-0.70711 -3.53553,-0.70711 -1.94454,0 -3.53553,0.3182 -3.53553,0.70711 0,0.38891 1.59099,0.70711 3.53553,0.70711 1.94454,0 3.53553,-0.3182 3.53553,-0.70711 z m 2.12132,0 c 0,-0.38891 -0.31819,-0.70711 -0.7071,-0.70711 -0.38891,0 -0.70711,0.3182 -0.70711,0.70711 0,0.38891 0.3182,0.70711 0.70711,0.70711 0.38891,0 0.7071,-0.3182 0.7071,-0.70711 z m 2.12132,0 c 0,-0.38891 -0.31819,-0.70711 -0.7071,-0.70711 -0.38891,0 -0.70711,0.3182 -0.70711,0.70711 0,0.38891 0.3182,0.70711 0.70711,0.70711 0.38891,0 0.7071,-0.3182 0.7071,-0.70711 z m 7.77818,0 c 0,-0.38891 -1.59099,-0.70711 -3.53554,-0.70711 -1.94454,0 -3.53553,0.3182 -3.53553,0.70711 0,0.38891 1.59099,0.70711 3.53553,0.70711 1.94455,0 3.53554,-0.3182 3.53554,-0.70711 z m 2.12132,0 c 0,-0.38891 -0.3182,-0.70711 -0.70711,-0.70711 -0.38891,0 -0.7071,0.3182 -0.7071,0.70711 0,0.38891 0.31819,0.70711 0.7071,0.70711 0.38891,0 0.70711,-0.3182 0.70711,-0.70711 z m 2.12132,0 c 0,-0.38891 -0.3182,-0.70711 -0.70711,-0.70711 -0.38891,0 -0.7071,0.3182 -0.7071,0.70711 0,0.38891 0.31819,0.70711 0.7071,0.70711 0.38891,0 0.70711,-0.3182 0.70711,-0.70711 z m 28.10749,-2.13351 c 2.21154,0.0109 2.2981,-0.0952 2.2981,-2.81666 0,-2.04238 0.29465,-2.82801 1.06066,-2.82801 0.58336,0 1.06066,-0.47729 1.06066,-1.06066 0,-0.84852 -1.06066,-1.06066 -5.3033,-1.06066 -4.24264,0 -5.3033,0.21214 -5.3033,1.06066 0,0.66729 0.67304,1.06066 1.81473,1.06066 1.56255,0 1.78364,0.27023 1.59099,1.94455 -0.19275,1.67516 -0.57954,1.97425 -2.79211,2.15904 -1.91541,0.15996 -3.0839,-0.22895 -4.59619,-1.52977 -1.81196,-1.55857 -2.02783,-2.19453 -2.02783,-5.97389 0,-4.93934 1.31487,-6.92483 5.04995,-7.62553 2.82317,-0.52963 5.6329,1.01178 6.63137,3.63796 0.36193,0.95193 1.14322,1.73079 1.73621,1.73079 0.83795,0 1.07816,-0.88333 1.07816,-3.96474 0,-3.50698 -0.14287,-3.90339 -1.23744,-3.43332 -1.44055,0.61865 -2.31839,0.61152 -6.25985,-0.0508 -3.49433,-0.58723 -8.76264,1.44735 -10.4197,4.02401 -2.10409,3.27181 -1.7921,8.94684 0.6515,11.85091 2.20584,2.62148 5.22444,3.63802 9.48732,3.19492 1.75009,-0.18191 4.21612,-0.32564 5.48007,-0.31941 z"
       style="opacity:0.0291545;fill:#000000;stroke:#000000;stroke-width:0.708218" />
  </g>
</svg>
