<?xml version="1.0" encoding="UTF-8" standalone="no"?>
<svg
   xmlns:ns4="http://www.iki.fi/pav/software/textext/"
   xmlns:dc="http://purl.org/dc/elements/1.1/"
   xmlns:cc="http://creativecommons.org/ns#"
   xmlns:rdf="http://www.w3.org/1999/02/22-rdf-syntax-ns#"
   xmlns:svg="http://www.w3.org/2000/svg"
   xmlns="http://www.w3.org/2000/svg"
   xmlns:sodipodi="http://sodipodi.sourceforge.net/DTD/sodipodi-0.dtd"
   xmlns:inkscape="http://www.inkscape.org/namespaces/inkscape"
   width="46cm"
   height="37.5cm"
   viewBox="0 0 460 374.99999"
   version="1.1"
   id="svg6701"
   inkscape:version="1.0 (4035a4fb49, 2020-05-01)"
   sodipodi:docname="Esercizio8_2_2.svg">
  <defs
     id="defs6695">
    <marker
       inkscape:isstock="true"
       style="overflow:visible"
       id="marker7680"
       refX="0"
       refY="0"
       orient="auto"
       inkscape:stockid="Arrow1Lend">
      <path
         transform="matrix(-0.8,0,0,-0.8,-10,0)"
         style="fill:#000000;fill-opacity:1;fill-rule:evenodd;stroke:#000000;stroke-width:1pt;stroke-opacity:1"
         d="M 0,0 5,-5 -12.5,0 5,5 Z"
         id="path7678" />
    </marker>
    <marker
       inkscape:collect="always"
       inkscape:stockid="Arrow1Lend"
       orient="auto"
       refY="0"
       refX="0"
       id="marker7614"
       style="overflow:visible"
       inkscape:isstock="true">
      <path
         id="path7612"
         d="M 0,0 5,-5 -12.5,0 5,5 Z"
         style="fill:#000000;fill-opacity:1;fill-rule:evenodd;stroke:#000000;stroke-width:1pt;stroke-opacity:1"
         transform="matrix(-0.8,0,0,-0.8,-10,0)" />
    </marker>
    <marker
       inkscape:isstock="true"
       style="overflow:visible"
       id="Arrow1Lstart"
       refX="0"
       refY="0"
       orient="auto"
       inkscape:stockid="Arrow1Lstart">
      <path
         transform="matrix(0.8,0,0,0.8,10,0)"
         style="fill:#000000;fill-opacity:1;fill-rule:evenodd;stroke:#000000;stroke-width:1pt;stroke-opacity:1"
         d="M 0,0 5,-5 -12.5,0 5,5 Z"
         id="path899" />
    </marker>
    <marker
       inkscape:stockid="Arrow1Lend"
       orient="auto"
       refY="0"
       refX="0"
       id="marker7480"
       style="overflow:visible"
       inkscape:isstock="true">
      <path
         id="path7478"
         d="M 0,0 5,-5 -12.5,0 5,5 Z"
         style="fill:#000000;fill-opacity:1;fill-rule:evenodd;stroke:#000000;stroke-width:1pt;stroke-opacity:1"
         transform="matrix(-0.8,0,0,-0.8,-10,0)" />
    </marker>
    <marker
       inkscape:isstock="true"
       style="overflow:visible"
       id="Arrow1Mstart"
       refX="0"
       refY="0"
       orient="auto"
       inkscape:stockid="Arrow1Mstart">
      <path
         transform="matrix(0.4,0,0,0.4,4,0)"
         style="fill:#000000;fill-opacity:1;fill-rule:evenodd;stroke:#000000;stroke-width:1pt;stroke-opacity:1"
         d="M 0,0 5,-5 -12.5,0 5,5 Z"
         id="path905" />
    </marker>
    <marker
       inkscape:isstock="true"
       style="overflow:visible"
       id="marker7408"
       refX="0"
       refY="0"
       orient="auto"
       inkscape:stockid="Arrow1Mend">
      <path
         transform="matrix(-0.4,0,0,-0.4,-4,0)"
         style="fill:#000000;fill-opacity:1;fill-rule:evenodd;stroke:#000000;stroke-width:1pt;stroke-opacity:1"
         d="M 0,0 5,-5 -12.5,0 5,5 Z"
         id="path7406" />
    </marker>
    <marker
       inkscape:stockid="Arrow1Lend"
       orient="auto"
       refY="0"
       refX="0"
       id="marker7374"
       style="overflow:visible"
       inkscape:isstock="true">
      <path
         id="path7372"
         d="M 0,0 5,-5 -12.5,0 5,5 Z"
         style="fill:#000000;fill-opacity:1;fill-rule:evenodd;stroke:#000000;stroke-width:1pt;stroke-opacity:1"
         transform="matrix(-0.8,0,0,-0.8,-10,0)" />
    </marker>
    <marker
       inkscape:collect="always"
       inkscape:isstock="true"
       style="overflow:visible"
       id="marker2136"
       refX="0"
       refY="0"
       orient="auto"
       inkscape:stockid="Arrow1Lend">
      <path
         transform="matrix(-0.8,0,0,-0.8,-10,0)"
         style="fill:#000000;fill-opacity:1;fill-rule:evenodd;stroke:#000000;stroke-width:1pt;stroke-opacity:1"
         d="M 0,0 5,-5 -12.5,0 5,5 Z"
         id="path2134" />
    </marker>
    <marker
       inkscape:stockid="Arrow1Mend"
       orient="auto"
       refY="0"
       refX="0"
       id="Arrow1Mend"
       style="overflow:visible"
       inkscape:isstock="true">
      <path
         id="path908"
         d="M 0,0 5,-5 -12.5,0 5,5 Z"
         style="fill:#000000;fill-opacity:1;fill-rule:evenodd;stroke:#000000;stroke-width:1pt;stroke-opacity:1"
         transform="matrix(-0.4,0,0,-0.4,-4,0)" />
    </marker>
    <g
       id="id-f5591d30-b758-4331-986e-341f154e8a73">
      <symbol
         overflow="visible"
         id="id-ae0bdb08-ddb6-48af-8359-2373f1a23a3a">
        <path
           style="stroke:none"
           d=""
           id="id-dd799a87-327e-4ac7-a3f5-1e6735b55b78" />
      </symbol>
      <symbol
         overflow="visible"
         id="id-0166d38c-c14b-4451-bde0-5d0f88bf1ee2">
        <path
           style="stroke:none"
           d="M 2.46875,-6.03125 C 2.46875,-6.390625 2.5,-6.5 3.28125,-6.5 h 0.25 v -0.3125 c -0.34375,0.03125 -1.125,0.03125 -1.5,0.03125 -0.390625,0 -1.1875,0 -1.53125,-0.03125 V -6.5 h 0.25 c 0.796875,0 0.828125,0.109375 0.828125,0.46875 v 5.25 c 0,0.359375 -0.03125,0.46875 -0.828125,0.46875 H 0.5 V 0 c 0.34375,-0.03125 1.140625,-0.03125 1.515625,-0.03125 0.390625,0 1.171875,0 1.515625,0.03125 v -0.3125 h -0.25 c -0.78125,0 -0.8125,-0.109375 -0.8125,-0.46875 z m 0,0"
           id="id-678b6e48-4a0a-4b72-82bb-88fb139ff179" />
      </symbol>
      <symbol
         overflow="visible"
         id="id-296a13fb-46b6-4778-bf36-5c8f2e71a101">
        <path
           style="stroke:none"
           d="M 7.125,-6.75 H 0.703125 l -0.1875,2.25 h 0.25 c 0.140625,-1.6875 0.34375,-1.9375 1.90625,-1.9375 0.1875,0 0.484375,0 0.578125,0.015625 0.21875,0.03125 0.21875,0.15625 0.21875,0.375 v 5.265625 c 0,0.328125 0,0.46875 -1.046875,0.46875 H 2.03125 V 0 c 0.40625,-0.03125 1.421875,-0.03125 1.875,-0.03125 0.453125,0 1.484375,0 1.890625,0.03125 V -0.3125 H 5.40625 c -1.046875,0 -1.046875,-0.140625 -1.046875,-0.46875 v -5.265625 c 0,-0.21875 0,-0.34375 0.21875,-0.375 C 4.671875,-6.4375 4.96875,-6.4375 5.15625,-6.4375 c 1.546875,0 1.765625,0.25 1.90625,1.9375 h 0.25 z m 0,0"
           id="id-9d284e3e-4e5d-4c8d-a174-15255cb6a98c" />
      </symbol>
      <symbol
         overflow="visible"
         id="id-7a8f0d3c-61b6-4c74-bd38-72c120777009">
        <path
           style="stroke:none"
           d="M 1.859375,-4.453125 C 1.859375,-4.6875 1.875,-4.796875 1.96875,-4.84375 2.046875,-4.875 2.3125,-4.875 2.5,-4.875 c 0.734375,0 1.578125,0.03125 1.578125,1.09375 0,0.390625 -0.046875,1.109375 -1.34375,1.109375 h -0.875 z M 3.625,-2.546875 c 0.6875,-0.171875 1.3125,-0.625 1.3125,-1.234375 0,-0.6875 -0.890625,-1.34375 -2.09375,-1.34375 H 0.453125 v 0.25 c 0.65625,0 0.71875,0.0625 0.71875,0.46875 v 3.6875 c 0,0.40625 -0.0625,0.46875 -0.71875,0.46875 V 0 C 0.75,-0.015625 1.21875,-0.03125 1.5,-0.03125 c 0.296875,0 0.8125,0.015625 1.078125,0.03125 v -0.25 c -0.671875,0 -0.71875,-0.0625 -0.71875,-0.46875 V -2.453125 H 2.75 c 0.25,0 0.515625,0.015625 0.8125,0.3125 0.21875,0.234375 0.21875,0.46875 0.21875,0.90625 0,0.5625 0,0.734375 0.3125,1.046875 0.1875,0.171875 0.578125,0.328125 1.03125,0.328125 0.640625,0 0.78125,-0.625 0.78125,-0.8125 0,-0.0625 0,-0.15625 -0.125,-0.15625 -0.109375,0 -0.125,0.09375 -0.125,0.125 -0.0625,0.609375 -0.421875,0.625 -0.5,0.625 -0.1875,0 -0.28125,-0.125 -0.34375,-0.234375 C 4.734375,-0.484375 4.671875,-0.75 4.546875,-1.390625 4.46875,-1.75 4.359375,-2.25 3.625,-2.546875 Z m 0,0"
           id="id-370cb5a9-0428-4b1a-81b4-631cf12e86a4" />
      </symbol>
      <symbol
         overflow="visible"
         id="id-b2f1874e-c6e2-4350-b075-dc15ac8ec370">
        <path
           style="stroke:none"
           d="m 5.828125,-2.546875 c 0,-1.484375 -1.1875,-2.71875 -2.65625,-2.71875 -1.484375,0 -2.65625,1.234375 -2.65625,2.71875 0,1.515625 1.203125,2.6875 2.65625,2.6875 1.453125,0 2.65625,-1.171875 2.65625,-2.6875 z M 3.171875,-0.125 c -0.703125,0 -1.8125,-0.5625 -1.8125,-2.53125 0,-1.875 1.140625,-2.359375 1.8125,-2.359375 0.671875,0 1.796875,0.5 1.796875,2.359375 0,1.96875 -1.09375,2.53125 -1.796875,2.53125 z m 0,0"
           id="id-b6328041-a2f7-4913-b2ef-bcd8c0fba417" />
      </symbol>
      <symbol
         overflow="visible"
         id="id-f57d9c78-7ed9-4c1d-b0d4-366fa10229a6">
        <path
           style="stroke:none"
           d="M 1.921875,-5 C 1.828125,-5.125 1.8125,-5.125 1.625,-5.125 H 0.421875 v 0.25 c 0.25,0 0.53125,0 0.71875,0.0625 V -1 c 0,0.21875 0,0.75 -0.71875,0.75 V 0 c 0.21875,-0.015625 0.671875,-0.03125 0.859375,-0.03125 0.15625,0 0.609375,0.015625 0.859375,0.03125 v -0.25 c -0.71875,0 -0.71875,-0.53125 -0.71875,-0.75 v -3.578125 l 0.109375,0.125 3.125,4.34375 C 4.734375,0 4.765625,0 4.828125,0 4.96875,0 4.96875,-0.0625 4.96875,-0.265625 v -3.84375 c 0,-0.234375 0,-0.765625 0.71875,-0.765625 v -0.25 c -0.21875,0.015625 -0.65625,0.03125 -0.859375,0.03125 -0.15625,0 -0.609375,-0.015625 -0.859375,-0.03125 v 0.25 c 0.71875,0 0.71875,0.53125 0.71875,0.765625 v 2.953125 z m 0,0"
           id="id-ff3d26b6-04f6-4a4e-83e4-930a9bb52fbd" />
      </symbol>
      <symbol
         overflow="visible"
         id="id-ea4c0c0b-79cd-40b6-9b08-bdf3c1202f90">
        <path
           style="stroke:none"
           d="m 4.75,-4.640625 c -0.21875,-0.21875 -0.703125,-0.625 -1.453125,-0.625 -1.5,0 -2.78125,1.1875 -2.78125,2.703125 0,1.515625 1.28125,2.703125 2.78125,2.703125 1.296875,0 2.09375,-1.03125 2.09375,-1.90625 0,-0.09375 0,-0.15625 -0.140625,-0.15625 -0.109375,0 -0.109375,0.0625 -0.109375,0.15625 -0.078125,1.0625 -0.9375,1.65625 -1.765625,1.65625 -0.5,0 -2.015625,-0.265625 -2.015625,-2.453125 0,-2.21875 1.546875,-2.453125 2,-2.453125 0.734375,0 1.578125,0.515625 1.765625,1.78125 0.015625,0.078125 0.03125,0.140625 0.125,0.140625 0.140625,0 0.140625,-0.0625 0.140625,-0.25 v -1.6875 c 0,-0.15625 0,-0.234375 -0.109375,-0.234375 -0.0625,0 -0.0625,0.015625 -0.140625,0.125 z m 0,0"
           id="id-104e0280-1a26-4b0f-bb11-0d4b5b325343" />
      </symbol>
    </g>
    <g
       id="g2872">
      <symbol
         id="symbol2866"
         overflow="visible">
        <path
           id="path2864"
           d=""
           style="stroke:none" />
      </symbol>
      <symbol
         id="symbol2870"
         overflow="visible">
        <path
           id="path2868"
           d="m 3.015625,-3.234375 h 0.96875 c 0.75,0 0.828125,0.15625 0.828125,0.4375 0,0.078125 0,0.1875 -0.0625,0.5 C 4.71875,-2.25 4.71875,-2.21875 4.71875,-2.1875 c 0,0.078125 0.0625,0.109375 0.109375,0.109375 0.109375,0 0.109375,-0.03125 0.15625,-0.203125 L 5.53125,-4.453125 C 5.5625,-4.5625 5.5625,-4.578125 5.5625,-4.609375 5.5625,-4.625 5.546875,-4.71875 5.4375,-4.71875 5.34375,-4.71875 5.328125,-4.671875 5.296875,-4.5 5.078125,-3.734375 4.859375,-3.546875 4,-3.546875 H 3.09375 l 0.640625,-2.53125 C 3.828125,-6.4375 3.84375,-6.46875 4.28125,-6.46875 h 1.3125 c 1.21875,0 1.453125,0.328125 1.453125,1.09375 0,0.234375 0,0.265625 -0.03125,0.546875 C 7,-4.703125 7,-4.6875 7,-4.65625 c 0,0.046875 0.03125,0.125 0.125,0.125 0.109375,0 0.109375,-0.0625 0.125,-0.25 L 7.453125,-6.515625 C 7.484375,-6.78125 7.4375,-6.78125 7.1875,-6.78125 H 2.296875 c -0.1875,0 -0.296875,0 -0.296875,0.203125 0,0.109375 0.09375,0.109375 0.28125,0.109375 0.375,0 0.65625,0 0.65625,0.171875 0,0.046875 0,0.0625 -0.0625,0.25 L 1.5625,-0.78125 c -0.09375,0.390625 -0.109375,0.46875 -0.90625,0.46875 -0.171875,0 -0.28125,0 -0.28125,0.1875 C 0.375,0 0.5,0 0.53125,0 0.8125,0 1.5625,-0.03125 1.84375,-0.03125 2.171875,-0.03125 3,0 3.328125,0 3.421875,0 3.53125,0 3.53125,-0.1875 3.53125,-0.265625 3.484375,-0.296875 3.484375,-0.296875 3.453125,-0.3125 3.421875,-0.3125 3.203125,-0.3125 c -0.21875,0 -0.265625,0 -0.515625,-0.015625 -0.296875,-0.03125 -0.328125,-0.078125 -0.328125,-0.203125 0,-0.015625 0,-0.078125 0.046875,-0.21875 z m 0,0"
           style="stroke:none" />
      </symbol>
    </g>
    <g
       id="g4232">
      <symbol
         id="symbol4226"
         overflow="visible">
        <path
           id="path4224"
           d=""
           style="stroke:none" />
      </symbol>
      <symbol
         id="symbol4230"
         overflow="visible">
        <path
           id="path4228"
           d="m 4.71875,-6.703125 c -0.109375,-0.25 -0.21875,-0.25 -0.390625,-0.25 -0.28125,0 -0.328125,0.078125 -0.390625,0.25 l -2.46875,6 C 1.40625,-0.546875 1.375,-0.46875 0.625,-0.46875 H 0.40625 V 0 c 0.375,-0.015625 0.859375,-0.03125 1.171875,-0.03125 0.390625,0 0.9375,0 1.3125,0.03125 V -0.46875 C 2.875,-0.46875 2,-0.46875 2,-0.59375 c 0,-0.015625 0.03125,-0.109375 0.046875,-0.125 l 0.5,-1.203125 H 5.21875 L 5.8125,-0.46875 H 4.859375 V 0 C 5.25,-0.03125 6.1875,-0.03125 6.625,-0.03125 c 0.390625,0 1.265625,0 1.625,0.03125 V -0.46875 H 7.28125 Z M 3.875,-5.15625 5.015625,-2.390625 h -2.28125 z m 0,0"
           style="stroke:none" />
      </symbol>
    </g>
    <g
       id="id-1036df3c-9e13-4f2b-9692-3e03d55afd14">
      <symbol
         overflow="visible"
         id="id-6bb91289-6e7f-4e0c-95bf-7efc1b5db39a">
        <path
           style="stroke:none"
           d=""
           id="id-487c4864-859e-430f-a69f-a6b9545f3f80" />
      </symbol>
      <symbol
         overflow="visible"
         id="id-92de3f10-e153-4bd1-956a-1692ceab8ec2">
        <path
           style="stroke:none"
           d="m 2.9375,-1.640625 v 0.859375 c 0,0.359375 -0.03125,0.46875 -0.765625,0.46875 H 1.96875 V 0 C 2.375,-0.03125 2.890625,-0.03125 3.3125,-0.03125 c 0.421875,0 0.9375,0 1.359375,0.03125 v -0.3125 h -0.21875 c -0.734375,0 -0.75,-0.109375 -0.75,-0.46875 V -1.640625 H 4.6875 v -0.3125 H 3.703125 v -4.53125 c 0,-0.203125 0,-0.265625 -0.171875,-0.265625 -0.078125,0 -0.109375,0 -0.1875,0.125 l -3.0625,4.671875 v 0.3125 z m 0.046875,-0.3125 H 0.5625 l 2.421875,-3.71875 z m 0,0"
           id="id-1a7406e3-8e14-46b9-9e67-468c6542c38b" />
      </symbol>
      <symbol
         overflow="visible"
         id="id-d871cfbc-6cff-44b1-92f8-f85476158e81">
        <path
           style="stroke:none"
           d="m 4.46875,-2 c 0,-1.1875 -0.8125,-2.1875 -1.890625,-2.1875 -0.46875,0 -0.90625,0.15625 -1.265625,0.515625 V -5.625 c 0.203125,0.0625 0.53125,0.125 0.84375,0.125 1.234375,0 1.9375,-0.90625 1.9375,-1.03125 0,-0.0625 -0.03125,-0.109375 -0.109375,-0.109375 0,0 -0.03125,0 -0.078125,0.03125 C 3.703125,-6.515625 3.21875,-6.3125 2.546875,-6.3125 2.15625,-6.3125 1.6875,-6.390625 1.21875,-6.59375 1.140625,-6.625 1.125,-6.625 1.109375,-6.625 1,-6.625 1,-6.546875 1,-6.390625 V -3.4375 c 0,0.171875 0,0.25 0.140625,0.25 0.078125,0 0.09375,-0.015625 0.140625,-0.078125 C 1.390625,-3.421875 1.75,-3.96875 2.5625,-3.96875 c 0.515625,0 0.765625,0.453125 0.84375,0.640625 0.15625,0.375 0.1875,0.75 0.1875,1.25 0,0.359375 0,0.953125 -0.25,1.375 C 3.109375,-0.3125 2.734375,-0.0625 2.28125,-0.0625 c -0.71875,0 -1.296875,-0.53125 -1.46875,-1.109375 0.03125,0 0.0625,0.015625 0.171875,0.015625 0.328125,0 0.5,-0.25 0.5,-0.484375 0,-0.25 -0.171875,-0.5 -0.5,-0.5 C 0.84375,-2.140625 0.5,-2.0625 0.5,-1.609375 0.5,-0.75 1.1875,0.21875 2.296875,0.21875 3.453125,0.21875 4.46875,-0.734375 4.46875,-2 Z m 0,0"
           id="id-c570b3ef-0366-410d-b780-de4f1a65be27" />
      </symbol>
      <symbol
         overflow="visible"
         id="id-0a156fa4-39e0-4fe6-9307-c66f07f311a2">
        <path
           style="stroke:none"
           d=""
           id="id-8a058c55-cad8-47c3-8ec1-b9876eed0fec" />
      </symbol>
      <symbol
         overflow="visible"
         id="id-e67aa858-0b22-48ce-b387-7c0e2400b212">
        <path
           style="stroke:none"
           d="m 3.53125,-1.734375 c 0,-0.84375 -0.671875,-1.5 -1.5,-1.5 -0.828125,0 -1.5,0.671875 -1.5,1.484375 0,0.84375 0.6875,1.5 1.5,1.5 0.84375,0 1.5,-0.671875 1.5,-1.484375 z m -1.5,1.140625 C 1.375,-0.59375 0.875,-1.125 0.875,-1.734375 c 0,-0.65625 0.515625,-1.171875 1.15625,-1.171875 0.65625,0 1.15625,0.53125 1.15625,1.15625 0,0.65625 -0.515625,1.15625 -1.15625,1.15625 z m 0,0"
           id="id-d2c86275-0a93-4292-90c1-c9d68000d03a" />
      </symbol>
    </g>
    <g
       id="id-7f6a19e9-7edb-4b5d-aa54-3d2ec783ccee">
      <symbol
         overflow="visible"
         id="id-8e559f66-4dc6-4eec-8304-a1944daa12d1">
        <path
           style="stroke:none"
           d=""
           id="id-0cbda4fd-2f44-4d82-8f66-1c161dfa125d" />
      </symbol>
      <symbol
         overflow="visible"
         id="id-e40fd687-e0b6-41e0-bf6b-5657a0a37e97">
        <path
           style="stroke:none"
           d="M 2.765625,-3.734375 V -6.375 h 1.8125 c 1.015625,0 1.1875,0.796875 1.1875,1.25 0,0.765625 -0.46875,1.390625 -1.4375,1.390625 z M 5.46875,-3.5625 C 6.546875,-3.765625 7.1875,-4.359375 7.1875,-5.125 c 0,-0.921875 -0.875,-1.71875 -2.46875,-1.71875 H 0.390625 V -6.375 H 1.46875 v 5.90625 H 0.390625 V 0 h 4.625 C 6.671875,0 7.5,-0.875 7.5,-1.859375 7.5,-2.8125 6.65625,-3.484375 5.46875,-3.5625 Z M 4.609375,-0.46875 H 2.765625 V -3.375 h 1.9375 c 0.203125,0 0.671875,0 1.015625,0.421875 0.328125,0.421875 0.328125,0.984375 0.328125,1.09375 0,0.109375 0,1.390625 -1.4375,1.390625 z m 0,0"
           id="id-0d47cd8e-1cac-40b5-a6c4-377967c69682" />
      </symbol>
    </g>
  </defs>
  <sodipodi:namedview
     inkscape:window-maximized="0"
     inkscape:window-y="0"
     inkscape:window-x="0"
     inkscape:window-height="729"
     inkscape:window-width="1350"
     units="cm"
     showgrid="true"
     inkscape:document-rotation="0"
     inkscape:current-layer="layer1"
     inkscape:document-units="mm"
     inkscape:cy="979.83472"
     inkscape:cx="1546.093"
     inkscape:zoom="0.24748737"
     inkscape:pageshadow="2"
     inkscape:pageopacity="0.0"
     borderopacity="1.0"
     bordercolor="#666666"
     pagecolor="#ffffff"
     id="base">
    <inkscape:grid
       id="grid6703"
       type="xygrid" />
  </sodipodi:namedview>
  <metadata
     id="metadata6698">
    <rdf:RDF>
      <cc:Work
         rdf:about="">
        <dc:format>image/svg+xml</dc:format>
        <dc:type
           rdf:resource="http://purl.org/dc/dcmitype/StillImage" />
        <dc:title></dc:title>
      </cc:Work>
    </rdf:RDF>
  </metadata>
  <g
     id="layer1"
     inkscape:groupmode="layer"
     inkscape:label="Livello 1">
    <path
       style="fill:none;stroke:#000000;stroke-width:0.799999;stroke-linecap:butt;stroke-linejoin:miter;stroke-miterlimit:4;stroke-dasharray:none;stroke-opacity:1"
       d="M 113.70879,22.297656 V 262.29766"
       id="path12" />
    <path
       id="path6720"
       d="m 353.70879,22.297656 h -240"
       style="fill:none;stroke:#000000;stroke-width:0.799999;stroke-linecap:butt;stroke-linejoin:miter;stroke-miterlimit:4;stroke-dasharray:none;stroke-opacity:1" />
    <path
       id="path1201"
       d="M 3.7087886,142.29766 H 83.708789"
       style="fill:none;stroke:#000000;stroke-width:1;stroke-linecap:butt;stroke-linejoin:miter;stroke-miterlimit:4;stroke-dasharray:none;stroke-opacity:1;marker-end:url(#marker7614)" />
    <path
       style="fill:none;stroke:#000000;stroke-width:1;stroke-linecap:butt;stroke-linejoin:miter;stroke-miterlimit:4;stroke-dasharray:none;stroke-opacity:1;marker-end:url(#marker2136)"
       d="m 113.70879,372.29766 v -80"
       id="path6764" />
    <path
       style="fill:none;stroke:#000000;stroke-width:1;stroke-linecap:round;stroke-linejoin:bevel;stroke-miterlimit:4;stroke-dasharray:none;marker-start:url(#Arrow1Mstart)"
       id="path1441"
       sodipodi:type="arc"
       sodipodi:cx="113.66174"
       sodipodi:cy="295.74295"
       sodipodi:rx="35"
       sodipodi:ry="30.000002"
       sodipodi:start="0"
       sodipodi:end="3.0897454"
       sodipodi:open="true"
       sodipodi:arc-type="arc"
       d="m 148.66174,295.74295 a 35,30.000002 0 0 1 -34.09277,29.98992 35,30.000002 0 0 1 -35.860195,-28.4352" />
    <path
       style="fill:none;stroke:#000000;stroke-width:0.799999;stroke-linecap:butt;stroke-linejoin:miter;stroke-miterlimit:4;stroke-dasharray:0.799999, 0.799999;stroke-dashoffset:0;stroke-opacity:1"
       d="m 453.70879,122.29766 -100,-100.000004"
       id="path7610"
       sodipodi:nodetypes="cc" />
    <path
       sodipodi:nodetypes="cc"
       style="fill:none;stroke:#000000;stroke-width:1;stroke-linecap:butt;stroke-linejoin:miter;stroke-miterlimit:4;stroke-dasharray:none;stroke-opacity:1;marker-end:url(#marker7680)"
       d="m 443.70879,112.29766 -70,-70.000004"
       id="path7676" />
    <path
       sodipodi:nodetypes="ccc"
       id="path7772"
       d="m 453.70879,22.297656 v 0 h -100"
       style="fill:none;stroke:#000000;stroke-width:0.799999;stroke-linecap:butt;stroke-linejoin:miter;stroke-miterlimit:4;stroke-dasharray:0.799999, 0.799999;stroke-dashoffset:0;stroke-opacity:1" />
    <path
       d="M 433.70877,22.297655 A 80,80 0 0 1 410.6407,78.500457"
       sodipodi:arc-type="arc"
       sodipodi:open="true"
       sodipodi:end="0.77895345"
       sodipodi:start="0"
       sodipodi:ry="80"
       sodipodi:rx="80"
       sodipodi:cy="22.297655"
       sodipodi:cx="353.70877"
       sodipodi:type="arc"
       id="path7774"
       style="fill:none;stroke:#000000;stroke-width:0.799999;stroke-linecap:round;stroke-linejoin:bevel;stroke-miterlimit:4;stroke-dasharray:none;stroke-dashoffset:0" />
    <g
       id="g5385"
       ns4:jacobian_sqrt="1.5875"
       ns4:inkscapeversion="1.0"
       ns4:alignment="middle center"
       ns4:scale="4.5"
       ns4:preamble="C:\\Users\\claum\\AppData\\Roaming\\inkscape\\extensions\\textext\\default_packages.tex"
       ns4:text="\\textsc{I Tronco}"
       ns4:pdfconverter="inkscape"
       ns4:texconverter="pdflatex"
       ns4:version="1.0.1"
       transform="matrix(1.5875,0,0,1.5875,23.922526,10.52677)">
      <defs
         id="id-2e94720e-a319-4d4b-9d76-891024bb1e4c">
        <g
           id="g7949">
          <symbol
             overflow="visible"
             id="symbol7923">
            <path
               style="stroke:none"
               d=""
               id="path7921" />
          </symbol>
          <symbol
             overflow="visible"
             id="symbol7927">
            <path
               style="stroke:none"
               d="M 2.46875,-6.03125 C 2.46875,-6.390625 2.5,-6.5 3.28125,-6.5 h 0.25 v -0.3125 c -0.34375,0.03125 -1.125,0.03125 -1.5,0.03125 -0.390625,0 -1.1875,0 -1.53125,-0.03125 V -6.5 h 0.25 c 0.796875,0 0.828125,0.109375 0.828125,0.46875 v 5.25 c 0,0.359375 -0.03125,0.46875 -0.828125,0.46875 H 0.5 V 0 c 0.34375,-0.03125 1.140625,-0.03125 1.515625,-0.03125 0.390625,0 1.171875,0 1.515625,0.03125 v -0.3125 h -0.25 c -0.78125,0 -0.8125,-0.109375 -0.8125,-0.46875 z m 0,0"
               id="path7925" />
          </symbol>
          <symbol
             overflow="visible"
             id="symbol7931">
            <path
               style="stroke:none"
               d="M 7.125,-6.75 H 0.703125 l -0.1875,2.25 h 0.25 c 0.140625,-1.6875 0.34375,-1.9375 1.90625,-1.9375 0.1875,0 0.484375,0 0.578125,0.015625 0.21875,0.03125 0.21875,0.15625 0.21875,0.375 v 5.265625 c 0,0.328125 0,0.46875 -1.046875,0.46875 H 2.03125 V 0 c 0.40625,-0.03125 1.421875,-0.03125 1.875,-0.03125 0.453125,0 1.484375,0 1.890625,0.03125 V -0.3125 H 5.40625 c -1.046875,0 -1.046875,-0.140625 -1.046875,-0.46875 v -5.265625 c 0,-0.21875 0,-0.34375 0.21875,-0.375 C 4.671875,-6.4375 4.96875,-6.4375 5.15625,-6.4375 c 1.546875,0 1.765625,0.25 1.90625,1.9375 h 0.25 z m 0,0"
               id="path7929" />
          </symbol>
          <symbol
             overflow="visible"
             id="symbol7935">
            <path
               style="stroke:none"
               d="M 1.859375,-4.453125 C 1.859375,-4.6875 1.875,-4.796875 1.96875,-4.84375 2.046875,-4.875 2.3125,-4.875 2.5,-4.875 c 0.734375,0 1.578125,0.03125 1.578125,1.09375 0,0.390625 -0.046875,1.109375 -1.34375,1.109375 h -0.875 z M 3.625,-2.546875 c 0.6875,-0.171875 1.3125,-0.625 1.3125,-1.234375 0,-0.6875 -0.890625,-1.34375 -2.09375,-1.34375 H 0.453125 v 0.25 c 0.65625,0 0.71875,0.0625 0.71875,0.46875 v 3.6875 c 0,0.40625 -0.0625,0.46875 -0.71875,0.46875 V 0 C 0.75,-0.015625 1.21875,-0.03125 1.5,-0.03125 c 0.296875,0 0.8125,0.015625 1.078125,0.03125 v -0.25 c -0.671875,0 -0.71875,-0.0625 -0.71875,-0.46875 V -2.453125 H 2.75 c 0.25,0 0.515625,0.015625 0.8125,0.3125 0.21875,0.234375 0.21875,0.46875 0.21875,0.90625 0,0.5625 0,0.734375 0.3125,1.046875 0.1875,0.171875 0.578125,0.328125 1.03125,0.328125 0.640625,0 0.78125,-0.625 0.78125,-0.8125 0,-0.0625 0,-0.15625 -0.125,-0.15625 -0.109375,0 -0.125,0.09375 -0.125,0.125 -0.0625,0.609375 -0.421875,0.625 -0.5,0.625 -0.1875,0 -0.28125,-0.125 -0.34375,-0.234375 C 4.734375,-0.484375 4.671875,-0.75 4.546875,-1.390625 4.46875,-1.75 4.359375,-2.25 3.625,-2.546875 Z m 0,0"
               id="path7933" />
          </symbol>
          <symbol
             overflow="visible"
             id="symbol7939">
            <path
               style="stroke:none"
               d="m 5.828125,-2.546875 c 0,-1.484375 -1.1875,-2.71875 -2.65625,-2.71875 -1.484375,0 -2.65625,1.234375 -2.65625,2.71875 0,1.515625 1.203125,2.6875 2.65625,2.6875 1.453125,0 2.65625,-1.171875 2.65625,-2.6875 z M 3.171875,-0.125 c -0.703125,0 -1.8125,-0.5625 -1.8125,-2.53125 0,-1.875 1.140625,-2.359375 1.8125,-2.359375 0.671875,0 1.796875,0.5 1.796875,2.359375 0,1.96875 -1.09375,2.53125 -1.796875,2.53125 z m 0,0"
               id="path7937" />
          </symbol>
          <symbol
             overflow="visible"
             id="symbol7943">
            <path
               style="stroke:none"
               d="M 1.921875,-5 C 1.828125,-5.125 1.8125,-5.125 1.625,-5.125 H 0.421875 v 0.25 c 0.25,0 0.53125,0 0.71875,0.0625 V -1 c 0,0.21875 0,0.75 -0.71875,0.75 V 0 c 0.21875,-0.015625 0.671875,-0.03125 0.859375,-0.03125 0.15625,0 0.609375,0.015625 0.859375,0.03125 v -0.25 c -0.71875,0 -0.71875,-0.53125 -0.71875,-0.75 v -3.578125 l 0.109375,0.125 3.125,4.34375 C 4.734375,0 4.765625,0 4.828125,0 4.96875,0 4.96875,-0.0625 4.96875,-0.265625 v -3.84375 c 0,-0.234375 0,-0.765625 0.71875,-0.765625 v -0.25 c -0.21875,0.015625 -0.65625,0.03125 -0.859375,0.03125 -0.15625,0 -0.609375,-0.015625 -0.859375,-0.03125 v 0.25 c 0.71875,0 0.71875,0.53125 0.71875,0.765625 v 2.953125 z m 0,0"
               id="path7941" />
          </symbol>
          <symbol
             overflow="visible"
             id="symbol7947">
            <path
               style="stroke:none"
               d="m 4.75,-4.640625 c -0.21875,-0.21875 -0.703125,-0.625 -1.453125,-0.625 -1.5,0 -2.78125,1.1875 -2.78125,2.703125 0,1.515625 1.28125,2.703125 2.78125,2.703125 1.296875,0 2.09375,-1.03125 2.09375,-1.90625 0,-0.09375 0,-0.15625 -0.140625,-0.15625 -0.109375,0 -0.109375,0.0625 -0.109375,0.15625 -0.078125,1.0625 -0.9375,1.65625 -1.765625,1.65625 -0.5,0 -2.015625,-0.265625 -2.015625,-2.453125 0,-2.21875 1.546875,-2.453125 2,-2.453125 0.734375,0 1.578125,0.515625 1.765625,1.78125 0.015625,0.078125 0.03125,0.140625 0.125,0.140625 0.140625,0 0.140625,-0.0625 0.140625,-0.25 v -1.6875 c 0,-0.15625 0,-0.234375 -0.109375,-0.234375 -0.0625,0 -0.0625,0.015625 -0.140625,0.125 z m 0,0"
               id="path7945" />
          </symbol>
        </g>
      </defs>
      <g
         id="id-b911f7bf-4935-4a8d-8297-10a75d6a11c0"
         transform="translate(-149.212,-127.953)">
        <g
           style="fill:#000000;fill-opacity:1"
           id="id-a3e74467-a550-4942-858d-2df09e24ff41">
          <g
             id="g5361"
             transform="translate(148.712,134.765)">
            <path
               style="stroke:none"
               d="M 2.46875,-6.03125 C 2.46875,-6.390625 2.5,-6.5 3.28125,-6.5 h 0.25 v -0.3125 c -0.34375,0.03125 -1.125,0.03125 -1.5,0.03125 -0.390625,0 -1.1875,0 -1.53125,-0.03125 V -6.5 h 0.25 c 0.796875,0 0.828125,0.109375 0.828125,0.46875 v 5.25 c 0,0.359375 -0.03125,0.46875 -0.828125,0.46875 H 0.5 V 0 c 0.34375,-0.03125 1.140625,-0.03125 1.515625,-0.03125 0.390625,0 1.171875,0 1.515625,0.03125 v -0.3125 h -0.25 c -0.78125,0 -0.8125,-0.109375 -0.8125,-0.46875 z m 0,0"
               id="id-7671603f-cce1-46b9-a10a-d61cbadd0aad" />
          </g>
        </g>
        <g
           style="fill:#000000;fill-opacity:1"
           id="id-3e5a71c9-f97e-4fc0-8eca-9ef1a9a4f9f3">
          <g
             id="g5365"
             transform="translate(156.519,134.765)">
            <path
               style="stroke:none"
               d="M 7.125,-6.75 H 0.703125 l -0.1875,2.25 h 0.25 c 0.140625,-1.6875 0.34375,-1.9375 1.90625,-1.9375 0.1875,0 0.484375,0 0.578125,0.015625 0.21875,0.03125 0.21875,0.15625 0.21875,0.375 v 5.265625 c 0,0.328125 0,0.46875 -1.046875,0.46875 H 2.03125 V 0 c 0.40625,-0.03125 1.421875,-0.03125 1.875,-0.03125 0.453125,0 1.484375,0 1.890625,0.03125 V -0.3125 H 5.40625 c -1.046875,0 -1.046875,-0.140625 -1.046875,-0.46875 v -5.265625 c 0,-0.21875 0,-0.34375 0.21875,-0.375 C 4.671875,-6.4375 4.96875,-6.4375 5.15625,-6.4375 c 1.546875,0 1.765625,0.25 1.90625,1.9375 h 0.25 z m 0,0"
               id="id-e9f53fd2-33fd-47a1-b331-f614049293ef" />
          </g>
          <g
             id="g5368"
             transform="translate(164.35,134.765)">
            <path
               style="stroke:none"
               d="M 1.859375,-4.453125 C 1.859375,-4.6875 1.875,-4.796875 1.96875,-4.84375 2.046875,-4.875 2.3125,-4.875 2.5,-4.875 c 0.734375,0 1.578125,0.03125 1.578125,1.09375 0,0.390625 -0.046875,1.109375 -1.34375,1.109375 h -0.875 z M 3.625,-2.546875 c 0.6875,-0.171875 1.3125,-0.625 1.3125,-1.234375 0,-0.6875 -0.890625,-1.34375 -2.09375,-1.34375 H 0.453125 v 0.25 c 0.65625,0 0.71875,0.0625 0.71875,0.46875 v 3.6875 c 0,0.40625 -0.0625,0.46875 -0.71875,0.46875 V 0 C 0.75,-0.015625 1.21875,-0.03125 1.5,-0.03125 c 0.296875,0 0.8125,0.015625 1.078125,0.03125 v -0.25 c -0.671875,0 -0.71875,-0.0625 -0.71875,-0.46875 V -2.453125 H 2.75 c 0.25,0 0.515625,0.015625 0.8125,0.3125 0.21875,0.234375 0.21875,0.46875 0.21875,0.90625 0,0.5625 0,0.734375 0.3125,1.046875 0.1875,0.171875 0.578125,0.328125 1.03125,0.328125 0.640625,0 0.78125,-0.625 0.78125,-0.8125 0,-0.0625 0,-0.15625 -0.125,-0.15625 -0.109375,0 -0.125,0.09375 -0.125,0.125 -0.0625,0.609375 -0.421875,0.625 -0.5,0.625 -0.1875,0 -0.28125,-0.125 -0.34375,-0.234375 C 4.734375,-0.484375 4.671875,-0.75 4.546875,-1.390625 4.46875,-1.75 4.359375,-2.25 3.625,-2.546875 Z m 0,0"
               id="id-2237176d-21b9-43f5-a422-e361b89c1f0d" />
          </g>
        </g>
        <g
           style="fill:#000000;fill-opacity:1"
           id="id-efcd010b-a2fb-494c-801a-870496001fa2">
          <g
             id="g5372"
             transform="translate(170.131,134.765)">
            <path
               style="stroke:none"
               d="m 5.828125,-2.546875 c 0,-1.484375 -1.1875,-2.71875 -2.65625,-2.71875 -1.484375,0 -2.65625,1.234375 -2.65625,2.71875 0,1.515625 1.203125,2.6875 2.65625,2.6875 1.453125,0 2.65625,-1.171875 2.65625,-2.6875 z M 3.171875,-0.125 c -0.703125,0 -1.8125,-0.5625 -1.8125,-2.53125 0,-1.875 1.140625,-2.359375 1.8125,-2.359375 0.671875,0 1.796875,0.5 1.796875,2.359375 0,1.96875 -1.09375,2.53125 -1.796875,2.53125 z m 0,0"
               id="id-c2fbcdfe-42da-4e7f-8868-c48f78d08da7" />
          </g>
          <g
             id="g5375"
             transform="translate(176.463,134.765)">
            <path
               style="stroke:none"
               d="M 1.921875,-5 C 1.828125,-5.125 1.8125,-5.125 1.625,-5.125 H 0.421875 v 0.25 c 0.25,0 0.53125,0 0.71875,0.0625 V -1 c 0,0.21875 0,0.75 -0.71875,0.75 V 0 c 0.21875,-0.015625 0.671875,-0.03125 0.859375,-0.03125 0.15625,0 0.609375,0.015625 0.859375,0.03125 v -0.25 c -0.71875,0 -0.71875,-0.53125 -0.71875,-0.75 v -3.578125 l 0.109375,0.125 3.125,4.34375 C 4.734375,0 4.765625,0 4.828125,0 4.96875,0 4.96875,-0.0625 4.96875,-0.265625 v -3.84375 c 0,-0.234375 0,-0.765625 0.71875,-0.765625 v -0.25 c -0.21875,0.015625 -0.65625,0.03125 -0.859375,0.03125 -0.15625,0 -0.609375,-0.015625 -0.859375,-0.03125 v 0.25 c 0.71875,0 0.71875,0.53125 0.71875,0.765625 v 2.953125 z m 0,0"
               id="id-73cf665f-9288-4bc2-8e3a-9f5df08b26f6" />
          </g>
          <g
             id="g5378"
             transform="translate(182.573,134.765)">
            <path
               style="stroke:none"
               d="m 4.75,-4.640625 c -0.21875,-0.21875 -0.703125,-0.625 -1.453125,-0.625 -1.5,0 -2.78125,1.1875 -2.78125,2.703125 0,1.515625 1.28125,2.703125 2.78125,2.703125 1.296875,0 2.09375,-1.03125 2.09375,-1.90625 0,-0.09375 0,-0.15625 -0.140625,-0.15625 -0.109375,0 -0.109375,0.0625 -0.109375,0.15625 -0.078125,1.0625 -0.9375,1.65625 -1.765625,1.65625 -0.5,0 -2.015625,-0.265625 -2.015625,-2.453125 0,-2.21875 1.546875,-2.453125 2,-2.453125 0.734375,0 1.578125,0.515625 1.765625,1.78125 0.015625,0.078125 0.03125,0.140625 0.125,0.140625 0.140625,0 0.140625,-0.0625 0.140625,-0.25 v -1.6875 c 0,-0.15625 0,-0.234375 -0.109375,-0.234375 -0.0625,0 -0.0625,0.015625 -0.140625,0.125 z m 0,0"
               id="id-cfcb6c9d-91d9-458d-9770-3ed4fd9c794a" />
          </g>
          <g
             id="g5381"
             transform="translate(188.462,134.765)">
            <path
               style="stroke:none"
               d="m 5.828125,-2.546875 c 0,-1.484375 -1.1875,-2.71875 -2.65625,-2.71875 -1.484375,0 -2.65625,1.234375 -2.65625,2.71875 0,1.515625 1.203125,2.6875 2.65625,2.6875 1.453125,0 2.65625,-1.171875 2.65625,-2.6875 z M 3.171875,-0.125 c -0.703125,0 -1.8125,-0.5625 -1.8125,-2.53125 0,-1.875 1.140625,-2.359375 1.8125,-2.359375 0.671875,0 1.796875,0.5 1.796875,2.359375 0,1.96875 -1.09375,2.53125 -1.796875,2.53125 z m 0,0"
               id="id-556c46a3-84fc-4532-ab1a-7e9bc8d59a95" />
          </g>
        </g>
      </g>
    </g>
    <g
       transform="matrix(1.5875,0,0,1.5875,70.895312,118.67657)"
       ns4:version="1.0.1"
       ns4:texconverter="pdflatex"
       ns4:pdfconverter="inkscape"
       ns4:text="$F$"
       ns4:preamble="C:\\Users\\claum\\AppData\\Roaming\\inkscape\\extensions\\textext\\default_packages.tex"
       ns4:scale="4.5"
       ns4:alignment="middle center"
       ns4:inkscapeversion="1.0"
       ns4:jacobian_sqrt="1.5875"
       id="g2884">
      <defs
         id="defs2874">
        <g
           id="g8018">
          <symbol
             id="symbol8012"
             overflow="visible">
            <path
               id="path8010"
               d=""
               style="stroke:none" />
          </symbol>
          <symbol
             id="symbol8016"
             overflow="visible">
            <path
               id="path8014"
               d="m 3.015625,-3.234375 h 0.96875 c 0.75,0 0.828125,0.15625 0.828125,0.4375 0,0.078125 0,0.1875 -0.0625,0.5 C 4.71875,-2.25 4.71875,-2.21875 4.71875,-2.1875 c 0,0.078125 0.0625,0.109375 0.109375,0.109375 0.109375,0 0.109375,-0.03125 0.15625,-0.203125 L 5.53125,-4.453125 C 5.5625,-4.5625 5.5625,-4.578125 5.5625,-4.609375 5.5625,-4.625 5.546875,-4.71875 5.4375,-4.71875 5.34375,-4.71875 5.328125,-4.671875 5.296875,-4.5 5.078125,-3.734375 4.859375,-3.546875 4,-3.546875 H 3.09375 l 0.640625,-2.53125 C 3.828125,-6.4375 3.84375,-6.46875 4.28125,-6.46875 h 1.3125 c 1.21875,0 1.453125,0.328125 1.453125,1.09375 0,0.234375 0,0.265625 -0.03125,0.546875 C 7,-4.703125 7,-4.6875 7,-4.65625 c 0,0.046875 0.03125,0.125 0.125,0.125 0.109375,0 0.109375,-0.0625 0.125,-0.25 L 7.453125,-6.515625 C 7.484375,-6.78125 7.4375,-6.78125 7.1875,-6.78125 H 2.296875 c -0.1875,0 -0.296875,0 -0.296875,0.203125 0,0.109375 0.09375,0.109375 0.28125,0.109375 0.375,0 0.65625,0 0.65625,0.171875 0,0.046875 0,0.0625 -0.0625,0.25 L 1.5625,-0.78125 c -0.09375,0.390625 -0.109375,0.46875 -0.90625,0.46875 -0.171875,0 -0.28125,0 -0.28125,0.1875 C 0.375,0 0.5,0 0.53125,0 0.8125,0 1.5625,-0.03125 1.84375,-0.03125 2.171875,-0.03125 3,0 3.328125,0 3.421875,0 3.53125,0 3.53125,-0.1875 3.53125,-0.265625 3.484375,-0.296875 3.484375,-0.296875 3.453125,-0.3125 3.421875,-0.3125 3.203125,-0.3125 c -0.21875,0 -0.265625,0 -0.515625,-0.015625 -0.296875,-0.03125 -0.328125,-0.078125 -0.328125,-0.203125 0,-0.015625 0,-0.078125 0.046875,-0.21875 z m 0,0"
               style="stroke:none" />
          </symbol>
        </g>
      </defs>
      <g
         transform="translate(-149.087,-127.984)"
         id="g2882">
        <g
           id="g2880"
           style="fill:#000000;fill-opacity:1">
          <g
             transform="translate(148.712,134.765)"
             id="g2878">
            <path
               id="path2876"
               d="m 3.015625,-3.234375 h 0.96875 c 0.75,0 0.828125,0.15625 0.828125,0.4375 0,0.078125 0,0.1875 -0.0625,0.5 C 4.71875,-2.25 4.71875,-2.21875 4.71875,-2.1875 c 0,0.078125 0.0625,0.109375 0.109375,0.109375 0.109375,0 0.109375,-0.03125 0.15625,-0.203125 L 5.53125,-4.453125 C 5.5625,-4.5625 5.5625,-4.578125 5.5625,-4.609375 5.5625,-4.625 5.546875,-4.71875 5.4375,-4.71875 5.34375,-4.71875 5.328125,-4.671875 5.296875,-4.5 5.078125,-3.734375 4.859375,-3.546875 4,-3.546875 H 3.09375 l 0.640625,-2.53125 C 3.828125,-6.4375 3.84375,-6.46875 4.28125,-6.46875 h 1.3125 c 1.21875,0 1.453125,0.328125 1.453125,1.09375 0,0.234375 0,0.265625 -0.03125,0.546875 C 7,-4.703125 7,-4.6875 7,-4.65625 c 0,0.046875 0.03125,0.125 0.125,0.125 0.109375,0 0.109375,-0.0625 0.125,-0.25 L 7.453125,-6.515625 C 7.484375,-6.78125 7.4375,-6.78125 7.1875,-6.78125 H 2.296875 c -0.1875,0 -0.296875,0 -0.296875,0.203125 0,0.109375 0.09375,0.109375 0.28125,0.109375 0.375,0 0.65625,0 0.65625,0.171875 0,0.046875 0,0.0625 -0.0625,0.25 L 1.5625,-0.78125 c -0.09375,0.390625 -0.109375,0.46875 -0.90625,0.46875 -0.171875,0 -0.28125,0 -0.28125,0.1875 C 0.375,0 0.5,0 0.53125,0 0.8125,0 1.5625,-0.03125 1.84375,-0.03125 2.171875,-0.03125 3,0 3.328125,0 3.421875,0 3.53125,0 3.53125,-0.1875 3.53125,-0.265625 3.484375,-0.296875 3.484375,-0.296875 3.453125,-0.3125 3.421875,-0.3125 3.203125,-0.3125 c -0.21875,0 -0.265625,0 -0.515625,-0.015625 -0.296875,-0.03125 -0.328125,-0.078125 -0.328125,-0.203125 0,-0.015625 0,-0.078125 0.046875,-0.21875 z m 0,0"
               style="stroke:none" />
          </g>
        </g>
      </g>
    </g>
    <g
       transform="matrix(1.5875,0,0,1.5875,93.201752,254.44532)"
       ns4:version="1.0.1"
       ns4:texconverter="pdflatex"
       ns4:pdfconverter="inkscape"
       ns4:text="$\\mathbf{A}$"
       ns4:preamble="C:\\Users\\claum\\AppData\\Roaming\\inkscape\\extensions\\textext\\default_packages.tex"
       ns4:scale="4.5"
       ns4:alignment="middle center"
       ns4:inkscapeversion="1.0"
       ns4:jacobian_sqrt="1.5875"
       id="g3634">
      <defs
         id="id-f0bf1152-8bc4-48c3-9453-2c052f9d49f2">
        <g
           id="g8073">
          <symbol
             id="symbol8067"
             overflow="visible">
            <path
               id="path8065"
               d=""
               style="stroke:none" />
          </symbol>
          <symbol
             id="symbol8071"
             overflow="visible">
            <path
               id="path8069"
               d="m 4.71875,-6.703125 c -0.109375,-0.25 -0.21875,-0.25 -0.390625,-0.25 -0.28125,0 -0.328125,0.078125 -0.390625,0.25 l -2.46875,6 C 1.40625,-0.546875 1.375,-0.46875 0.625,-0.46875 H 0.40625 V 0 c 0.375,-0.015625 0.859375,-0.03125 1.171875,-0.03125 0.390625,0 0.9375,0 1.3125,0.03125 V -0.46875 C 2.875,-0.46875 2,-0.46875 2,-0.59375 c 0,-0.015625 0.03125,-0.109375 0.046875,-0.125 l 0.5,-1.203125 H 5.21875 L 5.8125,-0.46875 H 4.859375 V 0 C 5.25,-0.03125 6.1875,-0.03125 6.625,-0.03125 c 0.390625,0 1.265625,0 1.625,0.03125 V -0.46875 H 7.28125 Z M 3.875,-5.15625 5.015625,-2.390625 h -2.28125 z m 0,0"
               style="stroke:none" />
          </symbol>
        </g>
      </defs>
      <g
         transform="translate(-149.118,-127.812)"
         id="id-4ab591d6-93a9-4bb7-9bc2-6e57c87870d7">
        <g
           id="id-480970c4-b687-41a2-934a-49707f3429b3"
           style="fill:#000000;fill-opacity:1">
          <g
             transform="translate(148.712,134.765)"
             id="g3630">
            <path
               id="id-2e2342a9-3265-41ec-b17b-8bd17415878d"
               d="m 4.71875,-6.703125 c -0.109375,-0.25 -0.21875,-0.25 -0.390625,-0.25 -0.28125,0 -0.328125,0.078125 -0.390625,0.25 l -2.46875,6 C 1.40625,-0.546875 1.375,-0.46875 0.625,-0.46875 H 0.40625 V 0 c 0.375,-0.015625 0.859375,-0.03125 1.171875,-0.03125 0.390625,0 0.9375,0 1.3125,0.03125 V -0.46875 C 2.875,-0.46875 2,-0.46875 2,-0.59375 c 0,-0.015625 0.03125,-0.109375 0.046875,-0.125 l 0.5,-1.203125 H 5.21875 L 5.8125,-0.46875 H 4.859375 V 0 C 5.25,-0.03125 6.1875,-0.03125 6.625,-0.03125 c 0.390625,0 1.265625,0 1.625,0.03125 V -0.46875 H 7.28125 Z M 3.875,-5.15625 5.015625,-2.390625 h -2.28125 z m 0,0"
               style="stroke:none" />
          </g>
        </g>
      </g>
    </g>
    <g
       id="g3383"
       ns4:jacobian_sqrt="1.5875"
       ns4:inkscapeversion="1.0"
       ns4:alignment="middle center"
       ns4:scale="4.5"
       ns4:preamble="C:\\Users\\claum\\AppData\\Roaming\\inkscape\\extensions\\textext\\default_packages.tex"
       ns4:text="$45^{\\circ}$"
       ns4:pdfconverter="inkscape"
       ns4:texconverter="pdflatex"
       ns4:version="1.0.1"
       transform="matrix(1.5875,0,0,1.5875,436.41718,46.523867)">
      <defs
         id="id-a30819a1-e095-4cec-890d-890ffcb9a847">
        <g
           id="g8168">
          <symbol
             overflow="visible"
             id="symbol8150">
            <path
               style="stroke:none"
               d=""
               id="path8148" />
          </symbol>
          <symbol
             overflow="visible"
             id="symbol8154">
            <path
               style="stroke:none"
               d="m 2.9375,-1.640625 v 0.859375 c 0,0.359375 -0.03125,0.46875 -0.765625,0.46875 H 1.96875 V 0 C 2.375,-0.03125 2.890625,-0.03125 3.3125,-0.03125 c 0.421875,0 0.9375,0 1.359375,0.03125 v -0.3125 h -0.21875 c -0.734375,0 -0.75,-0.109375 -0.75,-0.46875 V -1.640625 H 4.6875 v -0.3125 H 3.703125 v -4.53125 c 0,-0.203125 0,-0.265625 -0.171875,-0.265625 -0.078125,0 -0.109375,0 -0.1875,0.125 l -3.0625,4.671875 v 0.3125 z m 0.046875,-0.3125 H 0.5625 l 2.421875,-3.71875 z m 0,0"
               id="path8152" />
          </symbol>
          <symbol
             overflow="visible"
             id="symbol8158">
            <path
               style="stroke:none"
               d="m 4.46875,-2 c 0,-1.1875 -0.8125,-2.1875 -1.890625,-2.1875 -0.46875,0 -0.90625,0.15625 -1.265625,0.515625 V -5.625 c 0.203125,0.0625 0.53125,0.125 0.84375,0.125 1.234375,0 1.9375,-0.90625 1.9375,-1.03125 0,-0.0625 -0.03125,-0.109375 -0.109375,-0.109375 0,0 -0.03125,0 -0.078125,0.03125 C 3.703125,-6.515625 3.21875,-6.3125 2.546875,-6.3125 2.15625,-6.3125 1.6875,-6.390625 1.21875,-6.59375 1.140625,-6.625 1.125,-6.625 1.109375,-6.625 1,-6.625 1,-6.546875 1,-6.390625 V -3.4375 c 0,0.171875 0,0.25 0.140625,0.25 0.078125,0 0.09375,-0.015625 0.140625,-0.078125 C 1.390625,-3.421875 1.75,-3.96875 2.5625,-3.96875 c 0.515625,0 0.765625,0.453125 0.84375,0.640625 0.15625,0.375 0.1875,0.75 0.1875,1.25 0,0.359375 0,0.953125 -0.25,1.375 C 3.109375,-0.3125 2.734375,-0.0625 2.28125,-0.0625 c -0.71875,0 -1.296875,-0.53125 -1.46875,-1.109375 0.03125,0 0.0625,0.015625 0.171875,0.015625 0.328125,0 0.5,-0.25 0.5,-0.484375 0,-0.25 -0.171875,-0.5 -0.5,-0.5 C 0.84375,-2.140625 0.5,-2.0625 0.5,-1.609375 0.5,-0.75 1.1875,0.21875 2.296875,0.21875 3.453125,0.21875 4.46875,-0.734375 4.46875,-2 Z m 0,0"
               id="path8156" />
          </symbol>
          <symbol
             overflow="visible"
             id="symbol8162">
            <path
               style="stroke:none"
               d=""
               id="path8160" />
          </symbol>
          <symbol
             overflow="visible"
             id="symbol8166">
            <path
               style="stroke:none"
               d="m 3.53125,-1.734375 c 0,-0.84375 -0.671875,-1.5 -1.5,-1.5 -0.828125,0 -1.5,0.671875 -1.5,1.484375 0,0.84375 0.6875,1.5 1.5,1.5 0.84375,0 1.5,-0.671875 1.5,-1.484375 z m -1.5,1.140625 C 1.375,-0.59375 0.875,-1.125 0.875,-1.734375 c 0,-0.65625 0.515625,-1.171875 1.15625,-1.171875 0.65625,0 1.15625,0.53125 1.15625,1.15625 0,0.65625 -0.515625,1.15625 -1.15625,1.15625 z m 0,0"
               id="path8164" />
          </symbol>
        </g>
      </defs>
      <g
         id="id-ccb7048c-bb41-4604-99ef-58fb42701466"
         transform="translate(-148.993,-127.915)">
        <g
           style="fill:#000000;fill-opacity:1"
           id="id-574ab517-b8a8-41f6-b606-84f4d22402f3">
          <g
             id="g3372"
             transform="translate(148.712,134.765)">
            <path
               style="stroke:none"
               d="m 2.9375,-1.640625 v 0.859375 c 0,0.359375 -0.03125,0.46875 -0.765625,0.46875 H 1.96875 V 0 C 2.375,-0.03125 2.890625,-0.03125 3.3125,-0.03125 c 0.421875,0 0.9375,0 1.359375,0.03125 v -0.3125 h -0.21875 c -0.734375,0 -0.75,-0.109375 -0.75,-0.46875 V -1.640625 H 4.6875 v -0.3125 H 3.703125 v -4.53125 c 0,-0.203125 0,-0.265625 -0.171875,-0.265625 -0.078125,0 -0.109375,0 -0.1875,0.125 l -3.0625,4.671875 v 0.3125 z m 0.046875,-0.3125 H 0.5625 l 2.421875,-3.71875 z m 0,0"
               id="id-31c25bb3-1417-4f2a-ac4d-6dc2fd6af9e8" />
          </g>
          <g
             id="g3375"
             transform="translate(153.693,134.765)">
            <path
               style="stroke:none"
               d="m 4.46875,-2 c 0,-1.1875 -0.8125,-2.1875 -1.890625,-2.1875 -0.46875,0 -0.90625,0.15625 -1.265625,0.515625 V -5.625 c 0.203125,0.0625 0.53125,0.125 0.84375,0.125 1.234375,0 1.9375,-0.90625 1.9375,-1.03125 0,-0.0625 -0.03125,-0.109375 -0.109375,-0.109375 0,0 -0.03125,0 -0.078125,0.03125 C 3.703125,-6.515625 3.21875,-6.3125 2.546875,-6.3125 2.15625,-6.3125 1.6875,-6.390625 1.21875,-6.59375 1.140625,-6.625 1.125,-6.625 1.109375,-6.625 1,-6.625 1,-6.546875 1,-6.390625 V -3.4375 c 0,0.171875 0,0.25 0.140625,0.25 0.078125,0 0.09375,-0.015625 0.140625,-0.078125 C 1.390625,-3.421875 1.75,-3.96875 2.5625,-3.96875 c 0.515625,0 0.765625,0.453125 0.84375,0.640625 0.15625,0.375 0.1875,0.75 0.1875,1.25 0,0.359375 0,0.953125 -0.25,1.375 C 3.109375,-0.3125 2.734375,-0.0625 2.28125,-0.0625 c -0.71875,0 -1.296875,-0.53125 -1.46875,-1.109375 0.03125,0 0.0625,0.015625 0.171875,0.015625 0.328125,0 0.5,-0.25 0.5,-0.484375 0,-0.25 -0.171875,-0.5 -0.5,-0.5 C 0.84375,-2.140625 0.5,-2.0625 0.5,-1.609375 0.5,-0.75 1.1875,0.21875 2.296875,0.21875 3.453125,0.21875 4.46875,-0.734375 4.46875,-2 Z m 0,0"
               id="id-191476b4-1754-4ec5-8f28-2a3458b518a1" />
          </g>
        </g>
        <g
           style="fill:#000000;fill-opacity:1"
           id="id-94ac931a-3140-4802-bd10-81f6b11eaf79">
          <g
             id="g3379"
             transform="translate(158.675,131.149)">
            <path
               style="stroke:none"
               d="m 3.53125,-1.734375 c 0,-0.84375 -0.671875,-1.5 -1.5,-1.5 -0.828125,0 -1.5,0.671875 -1.5,1.484375 0,0.84375 0.6875,1.5 1.5,1.5 0.84375,0 1.5,-0.671875 1.5,-1.484375 z m -1.5,1.140625 C 1.375,-0.59375 0.875,-1.125 0.875,-1.734375 c 0,-0.65625 0.515625,-1.171875 1.15625,-1.171875 0.65625,0 1.15625,0.53125 1.15625,1.15625 0,0.65625 -0.515625,1.15625 -1.15625,1.15625 z m 0,0"
               id="id-10fd2aff-4867-454f-9a2c-ad605f0d29b8" />
          </g>
        </g>
      </g>
    </g>
    <g
       id="g3907"
       ns4:jacobian_sqrt="1.5875"
       ns4:inkscapeversion="1.0"
       ns4:alignment="middle center"
       ns4:scale="4.5"
       ns4:preamble="C:\\Users\\claum\\AppData\\Roaming\\inkscape\\extensions\\textext\\default_packages.tex"
       ns4:text="$\\mathbf{B}$"
       ns4:pdfconverter="inkscape"
       ns4:texconverter="pdflatex"
       ns4:version="1.0.1"
       transform="matrix(1.5875,0,0,1.5875,351.93907,4.7906188)">
      <defs
         id="id-e079f70b-6f15-461d-9392-65e758febbf1">
        <g
           id="g8228">
          <symbol
             overflow="visible"
             id="symbol8222">
            <path
               style="stroke:none"
               d=""
               id="path8220" />
          </symbol>
          <symbol
             overflow="visible"
             id="symbol8226">
            <path
               style="stroke:none"
               d="M 2.765625,-3.734375 V -6.375 h 1.8125 c 1.015625,0 1.1875,0.796875 1.1875,1.25 0,0.765625 -0.46875,1.390625 -1.4375,1.390625 z M 5.46875,-3.5625 C 6.546875,-3.765625 7.1875,-4.359375 7.1875,-5.125 c 0,-0.921875 -0.875,-1.71875 -2.46875,-1.71875 H 0.390625 V -6.375 H 1.46875 v 5.90625 H 0.390625 V 0 h 4.625 C 6.671875,0 7.5,-0.875 7.5,-1.859375 7.5,-2.8125 6.65625,-3.484375 5.46875,-3.5625 Z M 4.609375,-0.46875 H 2.765625 V -3.375 h 1.9375 c 0.203125,0 0.671875,0 1.015625,0.421875 0.328125,0.421875 0.328125,0.984375 0.328125,1.09375 0,0.109375 0,1.390625 -1.4375,1.390625 z m 0,0"
               id="path8224" />
          </symbol>
        </g>
      </defs>
      <g
         id="id-aed770d1-1387-43ef-bedd-3cb66ff8df49"
         transform="translate(-149.103,-127.921)">
        <g
           style="fill:#000000;fill-opacity:1"
           id="id-5a55b7f6-2b3e-48d3-bf2c-75bc700f819a">
          <g
             id="g3903"
             transform="translate(148.712,134.765)">
            <path
               style="stroke:none"
               d="M 2.765625,-3.734375 V -6.375 h 1.8125 c 1.015625,0 1.1875,0.796875 1.1875,1.25 0,0.765625 -0.46875,1.390625 -1.4375,1.390625 z M 5.46875,-3.5625 C 6.546875,-3.765625 7.1875,-4.359375 7.1875,-5.125 c 0,-0.921875 -0.875,-1.71875 -2.46875,-1.71875 H 0.390625 V -6.375 H 1.46875 v 5.90625 H 0.390625 V 0 h 4.625 C 6.671875,0 7.5,-0.875 7.5,-1.859375 7.5,-2.8125 6.65625,-3.484375 5.46875,-3.5625 Z M 4.609375,-0.46875 H 2.765625 V -3.375 h 1.9375 c 0.203125,0 0.671875,0 1.015625,0.421875 0.328125,0.421875 0.328125,0.984375 0.328125,1.09375 0,0.109375 0,1.390625 -1.4375,1.390625 z m 0,0"
               id="id-9b617a98-5b41-41f7-93d2-cf2d751bfc4b" />
          </g>
        </g>
      </g>
    </g>
    <g
       transform="matrix(1.5875,0,0,1.5875,153.35528,289.32149)"
       ns4:version="1.0.1"
       ns4:texconverter="pdflatex"
       ns4:pdfconverter="inkscape"
       ns4:text="$\\mathcal{M}_A$"
       ns4:preamble="C:\\Users\\claum\\AppData\\Roaming\\inkscape\\extensions\\textext\\default_packages.tex"
       ns4:scale="4.5"
       ns4:alignment="middle center"
       ns4:inkscapeversion="1.0"
       ns4:jacobian_sqrt="1.5875"
       id="g8417">
      <defs
         id="id-e242445c-2851-4ad9-b94a-c503e8e8af0d">
        <g
           id="id-84339ef9-37c0-4212-b49c-56d927763971">
          <symbol
             id="id-18c70fce-f5c6-4662-9f88-4447a322c7bd"
             overflow="visible">
            <path
               id="id-b8ae04a5-c4eb-418c-aac9-0f766951cad0"
               d=""
               style="stroke:none" />
          </symbol>
          <symbol
             id="id-562ad576-44e3-4944-8e25-cd4e9e7c724f"
             overflow="visible">
            <path
               id="id-28e109f7-50ac-47a5-8692-2a65cff373a1"
               d="m 3.84375,-5.578125 c 0.265625,1.296875 0.703125,3.4375 1.265625,4.59375 0.21875,0.421875 0.328125,0.640625 0.4375,0.640625 0.03125,0 0.0625,0 0.234375,-0.171875 C 6.546875,-1.25 7.0625,-1.828125 7.75,-2.625 l 2.1875,-2.53125 c -0.140625,0.84375 -0.5,3.078125 -0.5,4.25 0,0.265625 0.015625,0.53125 0.046875,0.796875 0,0.109375 0.046875,0.40625 0.46875,0.40625 0.421875,0 1.171875,-0.453125 1.171875,-0.640625 0,-0.0625 -0.0625,-0.078125 -0.09375,-0.078125 -0.125,0 -0.328125,0.09375 -0.4375,0.15625 -0.234375,-0.03125 -0.25,-0.1875 -0.28125,-0.40625 -0.03125,-0.328125 -0.03125,-0.625 -0.03125,-0.65625 0,-1.109375 0.4375,-4.140625 0.734375,-5.375 0.01563,-0.0625 0.01563,-0.078125 0.01563,-0.171875 0,-0.03125 0,-0.140625 -0.07813,-0.140625 -0.03125,0 -0.04687,0 -0.234375,0.234375 -0.9375,1.125 -3.84375,4.625 -4.84375,5.453125 C 5.625,-1.859375 5.453125,-2.234375 5.109375,-3.625 4.8125,-4.75 4.640625,-5.578125 4.46875,-6.546875 4.453125,-6.6875 4.390625,-6.953125 4.390625,-6.984375 4.359375,-7.03125 4.3125,-7.03125 4.28125,-7.03125 c -0.171875,0 -0.59375,0.21875 -0.625,0.4375 -0.125,0.828125 -0.3125,2.140625 -1.015625,4.046875 -0.796875,2.125 -1.015625,2.125 -1.203125,2.125 -0.125,0 -0.5,-0.078125 -0.71875,-0.28125 C 0.671875,-0.75 0.640625,-0.75 0.625,-0.75 c -0.140625,0 -0.359375,0.453125 -0.359375,0.734375 0,0.078125 0,0.203125 0.328125,0.375 C 0.84375,0.484375 1.078125,0.5 1.125,0.5 1.75,0.5 2.328125,-0.921875 2.53125,-1.4375 3,-2.5625 3.5625,-4.140625 3.84375,-5.578125 Z m 0,0"
               style="stroke:none" />
          </symbol>
          <symbol
             id="id-067b4c3a-dcbe-4ba1-99b5-7303f3635548"
             overflow="visible">
            <path
               id="id-69c1ac0f-dcd9-47e0-a6a7-f64adbeb001f"
               d=""
               style="stroke:none" />
          </symbol>
          <symbol
             id="id-3e1b83e1-7cd8-4d0f-b4e2-a4f9e58a6d57"
             overflow="visible">
            <path
               id="id-ffa013ab-ddf8-4329-9c8e-5ba605aaa18f"
               d="m 1.4375,-0.84375 c -0.25,0.390625 -0.46875,0.5625 -0.875,0.59375 -0.078125,0 -0.171875,0 -0.171875,0.140625 C 0.390625,-0.03125 0.453125,0 0.5,0 0.671875,0 0.90625,-0.03125 1.09375,-0.03125 1.3125,-0.03125 1.609375,0 1.8125,0 1.84375,0 1.953125,0 1.953125,-0.15625 1.953125,-0.25 1.859375,-0.25 1.828125,-0.25 1.78125,-0.265625 1.53125,-0.265625 1.53125,-0.453125 c 0,-0.09375 0.0625,-0.203125 0.09375,-0.265625 l 0.5625,-0.875 h 2 L 4.34375,-0.4375 C 4.328125,-0.359375 4.28125,-0.25 3.875,-0.25 c -0.09375,0 -0.1875,0 -0.1875,0.15625 C 3.6875,-0.0625 3.703125,0 3.796875,0 4,0 4.5,-0.03125 4.703125,-0.03125 c 0.125,0 0.28125,0.015625 0.40625,0.015625 C 5.234375,-0.015625 5.375,0 5.5,0 5.59375,0 5.640625,-0.0625 5.640625,-0.140625 5.640625,-0.25 5.5625,-0.25 5.453125,-0.25 c -0.40625,0 -0.421875,-0.0625 -0.4375,-0.21875 l -0.625,-4.3125 C 4.375,-4.921875 4.359375,-4.96875 4.234375,-4.96875 4.09375,-4.96875 4.0625,-4.90625 4,-4.8125 Z m 0.921875,-1 L 3.8125,-4.125 4.140625,-1.84375 Z m 0,0"
               style="stroke:none" />
          </symbol>
        </g>
      </defs>
      <g
         transform="translate(-148.978,-127.734)"
         id="id-9736af0f-07b7-4b94-be05-3ce2b7c0641e">
        <g
           id="id-abd70484-cc28-471e-bc3d-9e16b8b25be0"
           style="fill:#000000;fill-opacity:1">
          <g
             transform="translate(148.712,134.765)"
             id="g8409">
            <path
               id="id-146f27e8-8bf2-4766-95b9-97b08cb0d104"
               d="m 3.84375,-5.578125 c 0.265625,1.296875 0.703125,3.4375 1.265625,4.59375 0.21875,0.421875 0.328125,0.640625 0.4375,0.640625 0.03125,0 0.0625,0 0.234375,-0.171875 C 6.546875,-1.25 7.0625,-1.828125 7.75,-2.625 l 2.1875,-2.53125 c -0.140625,0.84375 -0.5,3.078125 -0.5,4.25 0,0.265625 0.015625,0.53125 0.046875,0.796875 0,0.109375 0.046875,0.40625 0.46875,0.40625 0.421875,0 1.171875,-0.453125 1.171875,-0.640625 0,-0.0625 -0.0625,-0.078125 -0.09375,-0.078125 -0.125,0 -0.328125,0.09375 -0.4375,0.15625 -0.234375,-0.03125 -0.25,-0.1875 -0.28125,-0.40625 -0.03125,-0.328125 -0.03125,-0.625 -0.03125,-0.65625 0,-1.109375 0.4375,-4.140625 0.734375,-5.375 0.01563,-0.0625 0.01563,-0.078125 0.01563,-0.171875 0,-0.03125 0,-0.140625 -0.07813,-0.140625 -0.03125,0 -0.04687,0 -0.234375,0.234375 -0.9375,1.125 -3.84375,4.625 -4.84375,5.453125 C 5.625,-1.859375 5.453125,-2.234375 5.109375,-3.625 4.8125,-4.75 4.640625,-5.578125 4.46875,-6.546875 4.453125,-6.6875 4.390625,-6.953125 4.390625,-6.984375 4.359375,-7.03125 4.3125,-7.03125 4.28125,-7.03125 c -0.171875,0 -0.59375,0.21875 -0.625,0.4375 -0.125,0.828125 -0.3125,2.140625 -1.015625,4.046875 -0.796875,2.125 -1.015625,2.125 -1.203125,2.125 -0.125,0 -0.5,-0.078125 -0.71875,-0.28125 C 0.671875,-0.75 0.640625,-0.75 0.625,-0.75 c -0.140625,0 -0.359375,0.453125 -0.359375,0.734375 0,0.078125 0,0.203125 0.328125,0.375 C 0.84375,0.484375 1.078125,0.5 1.125,0.5 1.75,0.5 2.328125,-0.921875 2.53125,-1.4375 3,-2.5625 3.5625,-4.140625 3.84375,-5.578125 Z m 0,0"
               style="stroke:none" />
          </g>
        </g>
        <g
           id="id-89dec05a-be5c-4e10-ae9e-5ae3d8118edb"
           style="fill:#000000;fill-opacity:1">
          <g
             transform="translate(160.676,136.259)"
             id="g8413">
            <path
               id="id-fabdaa66-bf4f-4840-8e20-8869ab37136c"
               d="m 1.4375,-0.84375 c -0.25,0.390625 -0.46875,0.5625 -0.875,0.59375 -0.078125,0 -0.171875,0 -0.171875,0.140625 C 0.390625,-0.03125 0.453125,0 0.5,0 0.671875,0 0.90625,-0.03125 1.09375,-0.03125 1.3125,-0.03125 1.609375,0 1.8125,0 1.84375,0 1.953125,0 1.953125,-0.15625 1.953125,-0.25 1.859375,-0.25 1.828125,-0.25 1.78125,-0.265625 1.53125,-0.265625 1.53125,-0.453125 c 0,-0.09375 0.0625,-0.203125 0.09375,-0.265625 l 0.5625,-0.875 h 2 L 4.34375,-0.4375 C 4.328125,-0.359375 4.28125,-0.25 3.875,-0.25 c -0.09375,0 -0.1875,0 -0.1875,0.15625 C 3.6875,-0.0625 3.703125,0 3.796875,0 4,0 4.5,-0.03125 4.703125,-0.03125 c 0.125,0 0.28125,0.015625 0.40625,0.015625 C 5.234375,-0.015625 5.375,0 5.5,0 5.59375,0 5.640625,-0.0625 5.640625,-0.140625 5.640625,-0.25 5.5625,-0.25 5.453125,-0.25 c -0.40625,0 -0.421875,-0.0625 -0.4375,-0.21875 l -0.625,-4.3125 C 4.375,-4.921875 4.359375,-4.96875 4.234375,-4.96875 4.09375,-4.96875 4.0625,-4.90625 4,-4.8125 Z m 0.921875,-1 L 3.8125,-4.125 4.140625,-1.84375 Z m 0,0"
               style="stroke:none" />
          </g>
        </g>
      </g>
    </g>
    <g
       transform="matrix(1.5875,0,0,1.5875,86.142962,351.86623)"
       ns4:version="1.0.1"
       ns4:texconverter="pdflatex"
       ns4:pdfconverter="inkscape"
       ns4:text="$R_A$"
       ns4:preamble="C:\\Users\\claum\\AppData\\Roaming\\inkscape\\extensions\\textext\\default_packages.tex"
       ns4:scale="4.5"
       ns4:alignment="middle center"
       ns4:inkscapeversion="1.0"
       ns4:jacobian_sqrt="1.5875"
       id="g8639">
      <defs
         id="id-3545f5bd-0554-47a2-ae2e-18b53220b337">
        <g
           id="id-23618193-371c-4ccb-b1a4-81bf332e84f5">
          <symbol
             id="id-1d901eaf-e85c-4de6-a5fd-b274ed58cea0"
             overflow="visible">
            <path
               id="id-5fc5030b-ea49-4ed3-bc77-25c36a740b89"
               d=""
               style="stroke:none" />
          </symbol>
          <symbol
             id="id-a65f137e-5b40-466c-a453-056f1cfceff3"
             overflow="visible">
            <path
               id="id-e02d10f7-944c-4ec8-8556-3e8834a77425"
               d="m 3.734375,-6.125 c 0.0625,-0.234375 0.09375,-0.328125 0.28125,-0.359375 C 4.109375,-6.5 4.421875,-6.5 4.625,-6.5 c 0.703125,0 1.8125,0 1.8125,0.984375 0,0.34375 -0.15625,1.03125 -0.546875,1.421875 -0.265625,0.25 -0.78125,0.578125 -1.6875,0.578125 H 3.09375 Z m 1.4375,2.734375 c 1.015625,-0.21875 2.1875,-0.921875 2.1875,-1.921875 0,-0.859375 -0.890625,-1.5 -2.203125,-1.5 H 2.328125 c -0.203125,0 -0.296875,0 -0.296875,0.203125 C 2.03125,-6.5 2.125,-6.5 2.3125,-6.5 c 0.015625,0 0.203125,0 0.375,0.015625 0.1875,0.03125 0.265625,0.03125 0.265625,0.171875 0,0.03125 0,0.0625 -0.03125,0.1875 l -1.34375,5.34375 C 1.484375,-0.390625 1.46875,-0.3125 0.671875,-0.3125 0.5,-0.3125 0.40625,-0.3125 0.40625,-0.109375 0.40625,0 0.53125,0 0.546875,0 c 0.28125,0 0.984375,-0.03125 1.25,-0.03125 0.28125,0 1,0.03125 1.28125,0.03125 0.078125,0 0.1875,0 0.1875,-0.203125 0,-0.109375 -0.078125,-0.109375 -0.28125,-0.109375 -0.359375,0 -0.640625,0 -0.640625,-0.171875 0,-0.0625 0.015625,-0.109375 0.03125,-0.171875 l 0.65625,-2.640625 h 1.1875 c 0.90625,0 1.078125,0.5625 1.078125,0.90625 0,0.140625 -0.078125,0.453125 -0.140625,0.6875 C 5.09375,-1.421875 5,-1.0625 5,-0.859375 5,0.21875 6.203125,0.21875 6.328125,0.21875 c 0.84375,0 1.203125,-1 1.203125,-1.140625 0,-0.125 -0.109375,-0.125 -0.125,-0.125 -0.09375,0 -0.109375,0.0625 -0.125,0.140625 C 7.03125,-0.171875 6.59375,0 6.375,0 6.046875,0 5.96875,-0.21875 5.96875,-0.609375 c 0,-0.3125 0.0625,-0.8125 0.109375,-1.140625 0.015625,-0.140625 0.03125,-0.328125 0.03125,-0.46875 0,-0.765625 -0.671875,-1.078125 -0.9375,-1.171875 z m 0,0"
               style="stroke:none" />
          </symbol>
          <symbol
             id="id-4f249c65-8a65-4741-a282-2287bf54c7b2"
             overflow="visible">
            <path
               id="id-241a0b01-6f2c-49e6-9830-3523be59f373"
               d=""
               style="stroke:none" />
          </symbol>
          <symbol
             id="id-2ad777b9-54dd-464d-9d62-316cf6803771"
             overflow="visible">
            <path
               id="id-f2976f71-0fd3-48cb-9ea7-7e454cbee7f7"
               d="m 1.4375,-0.84375 c -0.25,0.390625 -0.46875,0.5625 -0.875,0.59375 -0.078125,0 -0.171875,0 -0.171875,0.140625 C 0.390625,-0.03125 0.453125,0 0.5,0 0.671875,0 0.90625,-0.03125 1.09375,-0.03125 1.3125,-0.03125 1.609375,0 1.8125,0 1.84375,0 1.953125,0 1.953125,-0.15625 1.953125,-0.25 1.859375,-0.25 1.828125,-0.25 1.78125,-0.265625 1.53125,-0.265625 1.53125,-0.453125 c 0,-0.09375 0.0625,-0.203125 0.09375,-0.265625 l 0.5625,-0.875 h 2 L 4.34375,-0.4375 C 4.328125,-0.359375 4.28125,-0.25 3.875,-0.25 c -0.09375,0 -0.1875,0 -0.1875,0.15625 C 3.6875,-0.0625 3.703125,0 3.796875,0 4,0 4.5,-0.03125 4.703125,-0.03125 c 0.125,0 0.28125,0.015625 0.40625,0.015625 C 5.234375,-0.015625 5.375,0 5.5,0 5.59375,0 5.640625,-0.0625 5.640625,-0.140625 5.640625,-0.25 5.5625,-0.25 5.453125,-0.25 c -0.40625,0 -0.421875,-0.0625 -0.4375,-0.21875 l -0.625,-4.3125 C 4.375,-4.921875 4.359375,-4.96875 4.234375,-4.96875 4.09375,-4.96875 4.0625,-4.90625 4,-4.8125 Z m 0.921875,-1 L 3.8125,-4.125 4.140625,-1.84375 Z m 0,0"
               style="stroke:none" />
          </symbol>
        </g>
      </defs>
      <g
         transform="translate(-149.118,-127.953)"
         id="id-22d32352-63d9-4a89-9c46-3148d71a00d9">
        <g
           id="id-c03e93bf-d15c-40fc-9944-36875ba5666c"
           style="fill:#000000;fill-opacity:1">
          <g
             transform="translate(148.712,134.765)"
             id="g8631">
            <path
               id="id-90ad9601-dc5d-4a48-b1f5-f982f08f4e93"
               d="m 3.734375,-6.125 c 0.0625,-0.234375 0.09375,-0.328125 0.28125,-0.359375 C 4.109375,-6.5 4.421875,-6.5 4.625,-6.5 c 0.703125,0 1.8125,0 1.8125,0.984375 0,0.34375 -0.15625,1.03125 -0.546875,1.421875 -0.265625,0.25 -0.78125,0.578125 -1.6875,0.578125 H 3.09375 Z m 1.4375,2.734375 c 1.015625,-0.21875 2.1875,-0.921875 2.1875,-1.921875 0,-0.859375 -0.890625,-1.5 -2.203125,-1.5 H 2.328125 c -0.203125,0 -0.296875,0 -0.296875,0.203125 C 2.03125,-6.5 2.125,-6.5 2.3125,-6.5 c 0.015625,0 0.203125,0 0.375,0.015625 0.1875,0.03125 0.265625,0.03125 0.265625,0.171875 0,0.03125 0,0.0625 -0.03125,0.1875 l -1.34375,5.34375 C 1.484375,-0.390625 1.46875,-0.3125 0.671875,-0.3125 0.5,-0.3125 0.40625,-0.3125 0.40625,-0.109375 0.40625,0 0.53125,0 0.546875,0 c 0.28125,0 0.984375,-0.03125 1.25,-0.03125 0.28125,0 1,0.03125 1.28125,0.03125 0.078125,0 0.1875,0 0.1875,-0.203125 0,-0.109375 -0.078125,-0.109375 -0.28125,-0.109375 -0.359375,0 -0.640625,0 -0.640625,-0.171875 0,-0.0625 0.015625,-0.109375 0.03125,-0.171875 l 0.65625,-2.640625 h 1.1875 c 0.90625,0 1.078125,0.5625 1.078125,0.90625 0,0.140625 -0.078125,0.453125 -0.140625,0.6875 C 5.09375,-1.421875 5,-1.0625 5,-0.859375 5,0.21875 6.203125,0.21875 6.328125,0.21875 c 0.84375,0 1.203125,-1 1.203125,-1.140625 0,-0.125 -0.109375,-0.125 -0.125,-0.125 -0.09375,0 -0.109375,0.0625 -0.125,0.140625 C 7.03125,-0.171875 6.59375,0 6.375,0 6.046875,0 5.96875,-0.21875 5.96875,-0.609375 c 0,-0.3125 0.0625,-0.8125 0.109375,-1.140625 0.015625,-0.140625 0.03125,-0.328125 0.03125,-0.46875 0,-0.765625 -0.671875,-1.078125 -0.9375,-1.171875 z m 0,0"
               style="stroke:none" />
          </g>
        </g>
        <g
           id="id-ef8490f7-c06f-4d92-b61f-57a0cb9d7721"
           style="fill:#000000;fill-opacity:1">
          <g
             transform="translate(156.277,136.259)"
             id="g8635">
            <path
               id="id-bf3269fd-a38b-4d60-836c-8f1673899193"
               d="m 1.4375,-0.84375 c -0.25,0.390625 -0.46875,0.5625 -0.875,0.59375 -0.078125,0 -0.171875,0 -0.171875,0.140625 C 0.390625,-0.03125 0.453125,0 0.5,0 0.671875,0 0.90625,-0.03125 1.09375,-0.03125 1.3125,-0.03125 1.609375,0 1.8125,0 1.84375,0 1.953125,0 1.953125,-0.15625 1.953125,-0.25 1.859375,-0.25 1.828125,-0.25 1.78125,-0.265625 1.53125,-0.265625 1.53125,-0.453125 c 0,-0.09375 0.0625,-0.203125 0.09375,-0.265625 l 0.5625,-0.875 h 2 L 4.34375,-0.4375 C 4.328125,-0.359375 4.28125,-0.25 3.875,-0.25 c -0.09375,0 -0.1875,0 -0.1875,0.15625 C 3.6875,-0.0625 3.703125,0 3.796875,0 4,0 4.5,-0.03125 4.703125,-0.03125 c 0.125,0 0.28125,0.015625 0.40625,0.015625 C 5.234375,-0.015625 5.375,0 5.5,0 5.59375,0 5.640625,-0.0625 5.640625,-0.140625 5.640625,-0.25 5.5625,-0.25 5.453125,-0.25 c -0.40625,0 -0.421875,-0.0625 -0.4375,-0.21875 l -0.625,-4.3125 C 4.375,-4.921875 4.359375,-4.96875 4.234375,-4.96875 4.09375,-4.96875 4.0625,-4.90625 4,-4.8125 Z m 0.921875,-1 L 3.8125,-4.125 4.140625,-1.84375 Z m 0,0"
               style="stroke:none" />
          </g>
        </g>
      </g>
    </g>
    <g
       transform="matrix(1.5875,0,0,1.5875,405.99479,101.86566)"
       ns4:version="1.0.1"
       ns4:texconverter="pdflatex"
       ns4:pdfconverter="inkscape"
       ns4:text="$R_B$"
       ns4:preamble="C:\\Users\\claum\\AppData\\Roaming\\inkscape\\extensions\\textext\\default_packages.tex"
       ns4:scale="4.5"
       ns4:alignment="middle center"
       ns4:inkscapeversion="1.0"
       ns4:jacobian_sqrt="1.5875"
       id="g8915">
      <defs
         id="id-6d24e706-d5d1-4040-91c2-ca71c6500057">
        <g
           id="id-8a0ab293-8bab-4553-8c7d-bc1556386e3d">
          <symbol
             id="id-df676692-5170-458f-9429-bc5a1f80657c"
             overflow="visible">
            <path
               id="id-47de7ad3-1f50-4269-bfcc-d092d11452ca"
               d=""
               style="stroke:none" />
          </symbol>
          <symbol
             id="id-36217699-6a0b-422c-acd5-7bf0da3a2999"
             overflow="visible">
            <path
               id="id-0d2ff8c7-304b-46b0-adcb-1a4ec3f95d71"
               d="m 3.734375,-6.125 c 0.0625,-0.234375 0.09375,-0.328125 0.28125,-0.359375 C 4.109375,-6.5 4.421875,-6.5 4.625,-6.5 c 0.703125,0 1.8125,0 1.8125,0.984375 0,0.34375 -0.15625,1.03125 -0.546875,1.421875 -0.265625,0.25 -0.78125,0.578125 -1.6875,0.578125 H 3.09375 Z m 1.4375,2.734375 c 1.015625,-0.21875 2.1875,-0.921875 2.1875,-1.921875 0,-0.859375 -0.890625,-1.5 -2.203125,-1.5 H 2.328125 c -0.203125,0 -0.296875,0 -0.296875,0.203125 C 2.03125,-6.5 2.125,-6.5 2.3125,-6.5 c 0.015625,0 0.203125,0 0.375,0.015625 0.1875,0.03125 0.265625,0.03125 0.265625,0.171875 0,0.03125 0,0.0625 -0.03125,0.1875 l -1.34375,5.34375 C 1.484375,-0.390625 1.46875,-0.3125 0.671875,-0.3125 0.5,-0.3125 0.40625,-0.3125 0.40625,-0.109375 0.40625,0 0.53125,0 0.546875,0 c 0.28125,0 0.984375,-0.03125 1.25,-0.03125 0.28125,0 1,0.03125 1.28125,0.03125 0.078125,0 0.1875,0 0.1875,-0.203125 0,-0.109375 -0.078125,-0.109375 -0.28125,-0.109375 -0.359375,0 -0.640625,0 -0.640625,-0.171875 0,-0.0625 0.015625,-0.109375 0.03125,-0.171875 l 0.65625,-2.640625 h 1.1875 c 0.90625,0 1.078125,0.5625 1.078125,0.90625 0,0.140625 -0.078125,0.453125 -0.140625,0.6875 C 5.09375,-1.421875 5,-1.0625 5,-0.859375 5,0.21875 6.203125,0.21875 6.328125,0.21875 c 0.84375,0 1.203125,-1 1.203125,-1.140625 0,-0.125 -0.109375,-0.125 -0.125,-0.125 -0.09375,0 -0.109375,0.0625 -0.125,0.140625 C 7.03125,-0.171875 6.59375,0 6.375,0 6.046875,0 5.96875,-0.21875 5.96875,-0.609375 c 0,-0.3125 0.0625,-0.8125 0.109375,-1.140625 0.015625,-0.140625 0.03125,-0.328125 0.03125,-0.46875 0,-0.765625 -0.671875,-1.078125 -0.9375,-1.171875 z m 0,0"
               style="stroke:none" />
          </symbol>
          <symbol
             id="id-c1e830b0-5157-4f7f-85ab-a6fba4220873"
             overflow="visible">
            <path
               id="id-b9bf7a64-786e-4d64-a400-62cd0203b0bb"
               d=""
               style="stroke:none" />
          </symbol>
          <symbol
             id="id-a995bbdc-9be4-48bf-b447-2c9043155f2f"
             overflow="visible">
            <path
               id="id-5949c515-568b-4681-9d52-278abb55d474"
               d="M 1.328125,-0.546875 C 1.265625,-0.3125 1.25,-0.25 0.703125,-0.25 0.59375,-0.25 0.5,-0.25 0.5,-0.109375 0.5,0 0.578125,0 0.703125,0 H 3.40625 c 1.171875,0 2.078125,-0.796875 2.078125,-1.484375 0,-0.5 -0.453125,-0.921875 -1.203125,-1 0.84375,-0.15625 1.546875,-0.6875 1.546875,-1.28125 0,-0.53125 -0.53125,-1 -1.4375,-1 h -2.53125 c -0.140625,0 -0.234375,0 -0.234375,0.15625 0,0.09375 0.09375,0.09375 0.234375,0.09375 0,0 0.140625,0 0.265625,0.015625 0.140625,0.015625 0.15625,0.03125 0.15625,0.109375 0,0 0,0.046875 -0.03125,0.140625 z m 1.109375,-2.03125 0.421875,-1.6875 c 0.0625,-0.21875 0.0625,-0.25 0.359375,-0.25 h 1.0625 c 0.703125,0 0.875,0.46875 0.875,0.734375 0,0.5625 -0.640625,1.203125 -1.578125,1.203125 z M 2.109375,-0.25 C 1.890625,-0.25 1.875,-0.265625 1.875,-0.328125 c 0,0 0,-0.03125 0.03125,-0.140625 L 2.390625,-2.375 H 3.875 c 0.640625,0 0.90625,0.4375 0.90625,0.828125 0,0.703125 -0.71875,1.296875 -1.5625,1.296875 z m 0,0"
               style="stroke:none" />
          </symbol>
        </g>
      </defs>
      <g
         transform="translate(-149.118,-127.953)"
         id="id-30f6c611-dbfb-4e9e-aa78-33ee4bf5c506">
        <g
           id="id-c5cdbd7c-4e6c-415f-ab15-4fb8e1f85c52"
           style="fill:#000000;fill-opacity:1">
          <g
             transform="translate(148.712,134.765)"
             id="g8907">
            <path
               id="id-1d2b148f-20c4-4de1-8dd9-97590d63ec71"
               d="m 3.734375,-6.125 c 0.0625,-0.234375 0.09375,-0.328125 0.28125,-0.359375 C 4.109375,-6.5 4.421875,-6.5 4.625,-6.5 c 0.703125,0 1.8125,0 1.8125,0.984375 0,0.34375 -0.15625,1.03125 -0.546875,1.421875 -0.265625,0.25 -0.78125,0.578125 -1.6875,0.578125 H 3.09375 Z m 1.4375,2.734375 c 1.015625,-0.21875 2.1875,-0.921875 2.1875,-1.921875 0,-0.859375 -0.890625,-1.5 -2.203125,-1.5 H 2.328125 c -0.203125,0 -0.296875,0 -0.296875,0.203125 C 2.03125,-6.5 2.125,-6.5 2.3125,-6.5 c 0.015625,0 0.203125,0 0.375,0.015625 0.1875,0.03125 0.265625,0.03125 0.265625,0.171875 0,0.03125 0,0.0625 -0.03125,0.1875 l -1.34375,5.34375 C 1.484375,-0.390625 1.46875,-0.3125 0.671875,-0.3125 0.5,-0.3125 0.40625,-0.3125 0.40625,-0.109375 0.40625,0 0.53125,0 0.546875,0 c 0.28125,0 0.984375,-0.03125 1.25,-0.03125 0.28125,0 1,0.03125 1.28125,0.03125 0.078125,0 0.1875,0 0.1875,-0.203125 0,-0.109375 -0.078125,-0.109375 -0.28125,-0.109375 -0.359375,0 -0.640625,0 -0.640625,-0.171875 0,-0.0625 0.015625,-0.109375 0.03125,-0.171875 l 0.65625,-2.640625 h 1.1875 c 0.90625,0 1.078125,0.5625 1.078125,0.90625 0,0.140625 -0.078125,0.453125 -0.140625,0.6875 C 5.09375,-1.421875 5,-1.0625 5,-0.859375 5,0.21875 6.203125,0.21875 6.328125,0.21875 c 0.84375,0 1.203125,-1 1.203125,-1.140625 0,-0.125 -0.109375,-0.125 -0.125,-0.125 -0.09375,0 -0.109375,0.0625 -0.125,0.140625 C 7.03125,-0.171875 6.59375,0 6.375,0 6.046875,0 5.96875,-0.21875 5.96875,-0.609375 c 0,-0.3125 0.0625,-0.8125 0.109375,-1.140625 0.015625,-0.140625 0.03125,-0.328125 0.03125,-0.46875 0,-0.765625 -0.671875,-1.078125 -0.9375,-1.171875 z m 0,0"
               style="stroke:none" />
          </g>
        </g>
        <g
           id="id-baf2669e-88f5-404d-b128-a3745b5a3d42"
           style="fill:#000000;fill-opacity:1">
          <g
             transform="translate(156.277,136.259)"
             id="g8911">
            <path
               id="id-6bd808eb-7b7a-4c6e-94e3-cd89bbf1392f"
               d="M 1.328125,-0.546875 C 1.265625,-0.3125 1.25,-0.25 0.703125,-0.25 0.59375,-0.25 0.5,-0.25 0.5,-0.109375 0.5,0 0.578125,0 0.703125,0 H 3.40625 c 1.171875,0 2.078125,-0.796875 2.078125,-1.484375 0,-0.5 -0.453125,-0.921875 -1.203125,-1 0.84375,-0.15625 1.546875,-0.6875 1.546875,-1.28125 0,-0.53125 -0.53125,-1 -1.4375,-1 h -2.53125 c -0.140625,0 -0.234375,0 -0.234375,0.15625 0,0.09375 0.09375,0.09375 0.234375,0.09375 0,0 0.140625,0 0.265625,0.015625 0.140625,0.015625 0.15625,0.03125 0.15625,0.109375 0,0 0,0.046875 -0.03125,0.140625 z m 1.109375,-2.03125 0.421875,-1.6875 c 0.0625,-0.21875 0.0625,-0.25 0.359375,-0.25 h 1.0625 c 0.703125,0 0.875,0.46875 0.875,0.734375 0,0.5625 -0.640625,1.203125 -1.578125,1.203125 z M 2.109375,-0.25 C 1.890625,-0.25 1.875,-0.265625 1.875,-0.328125 c 0,0 0,-0.03125 0.03125,-0.140625 L 2.390625,-2.375 H 3.875 c 0.640625,0 0.90625,0.4375 0.90625,0.828125 0,0.703125 -0.71875,1.296875 -1.5625,1.296875 z m 0,0"
               style="stroke:none" />
          </g>
        </g>
      </g>
    </g>
  </g>
</svg>
