<?xml version="1.0" encoding="UTF-8" standalone="no"?>
<svg
   xmlns:ns21="http://www.iki.fi/pav/software/textext/"
   xmlns:dc="http://purl.org/dc/elements/1.1/"
   xmlns:cc="http://creativecommons.org/ns#"
   xmlns:rdf="http://www.w3.org/1999/02/22-rdf-syntax-ns#"
   xmlns:svg="http://www.w3.org/2000/svg"
   xmlns="http://www.w3.org/2000/svg"
   xmlns:sodipodi="http://sodipodi.sourceforge.net/DTD/sodipodi-0.dtd"
   xmlns:inkscape="http://www.inkscape.org/namespaces/inkscape"
   width="13.5cm"
   height="10cm"
   viewBox="0 0 135 100"
   version="1.1"
   id="svg945"
   inkscape:version="1.0 (4035a4fb49, 2020-05-01)"
   sodipodi:docname="Figura1_3.svg">
  <defs
     id="defs939">
    <marker
       inkscape:isstock="true"
       style="overflow:visible"
       id="marker2066"
       refX="0"
       refY="0"
       orient="auto"
       inkscape:stockid="Arrow1Lend">
      <path
         transform="matrix(-0.8,0,0,-0.8,-10,0)"
         style="fill:#000000;fill-opacity:1;fill-rule:evenodd;stroke:#000000;stroke-width:1pt;stroke-opacity:1"
         d="M 0,0 5,-5 -12.5,0 5,5 Z"
         id="path2064" />
    </marker>
    <marker
       inkscape:stockid="Arrow1Lend"
       orient="auto"
       refY="0"
       refX="0"
       id="Arrow1Lend"
       style="overflow:visible"
       inkscape:isstock="true"
       inkscape:collect="always">
      <path
         id="path1777"
         d="M 0,0 5,-5 -12.5,0 5,5 Z"
         style="fill:#000000;fill-opacity:1;fill-rule:evenodd;stroke:#000000;stroke-width:1pt;stroke-opacity:1"
         transform="matrix(-0.8,0,0,-0.8,-10,0)" />
    </marker>
  </defs>
  <sodipodi:namedview
     id="base"
     pagecolor="#ffffff"
     bordercolor="#666666"
     borderopacity="1.0"
     inkscape:pageopacity="0.0"
     inkscape:pageshadow="2"
     inkscape:zoom="0.98994949"
     inkscape:cx="192.9598"
     inkscape:cy="196.15265"
     inkscape:document-units="mm"
     inkscape:current-layer="layer1"
     inkscape:document-rotation="0"
     showgrid="true"
     inkscape:window-width="1366"
     inkscape:window-height="738"
     inkscape:window-x="0"
     inkscape:window-y="0"
     inkscape:window-maximized="0"
     units="cm">
    <inkscape:grid
       type="xygrid"
       id="grid947" />
  </sodipodi:namedview>
  <metadata
     id="metadata942">
    <rdf:RDF>
      <cc:Work
         rdf:about="">
        <dc:format>image/svg+xml</dc:format>
        <dc:type
           rdf:resource="http://purl.org/dc/dcmitype/StillImage" />
        <dc:title></dc:title>
      </cc:Work>
    </rdf:RDF>
  </metadata>
  <g
     inkscape:label="Livello 1"
     inkscape:groupmode="layer"
     id="layer1">
    <g
       transform="translate(-45,-4)"
       id="g3247">
      <g
         transform="translate(0,-5)"
         id="g2130">
        <path
           style="fill:none;stroke:#000000;stroke-width:0.265;stroke-linecap:butt;stroke-linejoin:miter;stroke-miterlimit:4;stroke-dasharray:none;stroke-opacity:1;marker-end:url(#Arrow1Lend)"
           d="M 95,100 V 10"
           id="path949" />
        <path
           style="fill:none;stroke:#000000;stroke-width:0.264583px;stroke-linecap:butt;stroke-linejoin:miter;stroke-opacity:1;marker-end:url(#marker2066)"
           d="M 45,65 H 175"
           id="path2062" />
        <path
           style="fill:none;stroke:#000000;stroke-width:0.264583px;stroke-linecap:butt;stroke-linejoin:miter;stroke-opacity:1"
           d="M 94.999999,105 C 88.179644,104.16038 81.284398,102.78003 75,100 69.504452,97.568935 63.976937,94.505005 59.999998,89.999999 57.533606,87.206113 54.52851,84.13514 52.861844,80.801807 51.195178,77.468473 50.264188,73.717403 50,69.999999 c -0.373618,-5.257203 1.996986,-11.069077 3.663652,-16.069077 1.666667,-5 2.88313,-9.949331 6.336346,-13.930923 C 62.441791,37.184588 70,30 70,30 c 0,0 2.364769,-2.364769 5,-5 2.635231,-2.635231 6.372914,-4.143761 9.999998,-5 4.866246,-1.148765 10.064564,-0.800911 15.000002,0 5.20241,0.844235 15,5 15,5 0,0 7.20611,2.533608 10,5 4.50501,3.976938 6.9838,9.802536 10,14.999999 1.87057,3.22333 4.14376,6.372916 5,10.000001 0.76584,3.244163 0.53394,6.709708 0,9.999999 -0.84423,5.202407 -2.98308,10.130727 -5,14.999999 -1.42618,3.443096 -2.18459,7.558208 -5,10.000001 -3.98159,3.453216 -6.7421,3.41767 -10.72369,6.870887 C 116.4609,99.312679 113.17019,103.04072 110,105 c -4.25325,2.62866 -10.037463,0.61092 -15.000001,0 z"
           id="path2104"
           sodipodi:nodetypes="ssssssscssscsssssssss" />
        <circle
           style="opacity:0.74212;fill:#4d4d4d;stroke:#6a6a6a;stroke-width:0.264999;stroke-miterlimit:4;stroke-dasharray:none"
           id="path2106"
           cx="115"
           cy="49"
           r="2.5" />
        <path
           style="fill:none;stroke:#000000;stroke-width:0.264583px;stroke-linecap:butt;stroke-linejoin:miter;stroke-opacity:1"
           d="M 115,51.6 V 64.999999"
           id="path2108"
           sodipodi:nodetypes="cc" />
        <path
           style="fill:none;stroke:#000000;stroke-width:0.264583px;stroke-linecap:butt;stroke-linejoin:miter;stroke-opacity:1"
           d="M 94.999999,48.999999 H 112.4"
           id="path2110"
           sodipodi:nodetypes="cc" />
      </g>
      <g
         transform="matrix(0.529167,0,0,0.529167,113.68419,36.602014)"
         ns21:version="1.0.1"
         ns21:texconverter="pdflatex"
         ns21:pdfconverter="inkscape"
         ns21:text="$dA$"
         ns21:preamble="C:\\Users\\claum\\AppData\\Roaming\\inkscape\\extensions\\textext\\default_packages.tex"
         ns21:scale="1.5"
         ns21:alignment="middle center"
         ns21:jacobian_sqrt="0.529167"
         id="g2187">
        <defs
           id="id-87656095-ab0a-479c-9ee6-38a935983472">
          <g
             id="id-b51dee28-2cf4-4876-84d4-f636bcd5144f">
            <symbol
               id="id-fa8954a2-2794-4cbb-8bd0-dca98265014d"
               overflow="visible">
              <path
                 id="id-f0eb926e-2257-4d86-9fce-720975f4b848"
                 d=""
                 style="stroke:none" />
            </symbol>
            <symbol
               id="id-ca659305-c303-405a-a849-3a7962d3dc78"
               overflow="visible">
              <path
                 id="id-6ce56968-e9cb-4a84-8213-0cd81ecd0f70"
                 d="m 5.140625,-6.8125 c 0,0 0,-0.109375 -0.125,-0.109375 -0.15625,0 -1.09375,0.09375 -1.265625,0.109375 -0.078125,0.015625 -0.140625,0.0625 -0.140625,0.1875 0,0.125 0.09375,0.125 0.234375,0.125 0.484375,0 0.5,0.0625 0.5,0.171875 L 4.3125,-6.125 3.71875,-3.765625 C 3.53125,-4.140625 3.25,-4.40625 2.796875,-4.40625 c -1.15625,0 -2.390625,1.46875 -2.390625,2.921875 0,0.9375 0.546875,1.59375 1.3125,1.59375 0.203125,0 0.703125,-0.046875 1.296875,-0.75 0.078125,0.421875 0.4375,0.75 0.90625,0.75 0.359375,0 0.578125,-0.234375 0.75,-0.546875 0.15625,-0.359375 0.296875,-0.96875 0.296875,-0.984375 0,-0.109375 -0.09375,-0.109375 -0.125,-0.109375 -0.09375,0 -0.109375,0.046875 -0.140625,0.1875 -0.171875,0.640625 -0.34375,1.234375 -0.75,1.234375 -0.28125,0 -0.296875,-0.265625 -0.296875,-0.453125 0,-0.25 0.015625,-0.3125 0.046875,-0.484375 z m -2.0625,5.625 C 3.015625,-1 3.015625,-0.984375 2.875,-0.8125 2.4375,-0.265625 2.03125,-0.109375 1.75,-0.109375 c -0.5,0 -0.640625,-0.546875 -0.640625,-0.9375 0,-0.5 0.3125,-1.71875 0.546875,-2.1875 0.3125,-0.578125 0.75,-0.953125 1.15625,-0.953125 0.640625,0 0.78125,0.8125 0.78125,0.875 0,0.0625 -0.015625,0.125 -0.03125,0.171875 z m 0,0"
                 style="stroke:none" />
            </symbol>
            <symbol
               id="id-8038c3ff-dd37-4d7c-b980-fcfa3ef042bd"
               overflow="visible">
              <path
                 id="id-9112cf82-65a3-4088-a27b-a4f85371ea7c"
                 d="M 1.78125,-1.140625 C 1.390625,-0.484375 1,-0.34375 0.5625,-0.3125 0.4375,-0.296875 0.34375,-0.296875 0.34375,-0.109375 0.34375,-0.046875 0.40625,0 0.484375,0 0.75,0 1.0625,-0.03125 1.328125,-0.03125 c 0.34375,0 0.6875,0.03125 1,0.03125 0.0625,0 0.1875,0 0.1875,-0.1875 0,-0.109375 -0.078125,-0.125 -0.15625,-0.125 -0.21875,-0.015625 -0.46875,-0.09375 -0.46875,-0.34375 0,-0.125 0.0625,-0.234375 0.140625,-0.375 l 0.765625,-1.265625 h 2.5 c 0.015625,0.203125 0.15625,1.5625 0.15625,1.65625 0,0.296875 -0.515625,0.328125 -0.71875,0.328125 C 4.59375,-0.3125 4.5,-0.3125 4.5,-0.109375 4.5,0 4.609375,0 4.640625,0 5.046875,0 5.46875,-0.03125 5.875,-0.03125 6.125,-0.03125 6.765625,0 7.015625,0 7.0625,0 7.1875,0 7.1875,-0.203125 7.1875,-0.3125 7.09375,-0.3125 6.953125,-0.3125 6.34375,-0.3125 6.34375,-0.375 6.3125,-0.671875 l -0.609375,-6.21875 c -0.015625,-0.203125 -0.015625,-0.25 -0.1875,-0.25 -0.15625,0 -0.203125,0.078125 -0.265625,0.171875 z M 2.984375,-2.609375 4.9375,-5.90625 5.265625,-2.609375 Z m 0,0"
                 style="stroke:none" />
            </symbol>
          </g>
        </defs>
        <g
           transform="translate(-149.118,-127.624)"
           id="id-83c795ae-7ed8-4ee1-b901-791367bf707e">
          <g
             id="id-ad09eb71-86a2-4e51-9f1f-3c09cfb6d366"
             style="fill:#000000;fill-opacity:1">
            <g
               transform="translate(148.712,134.765)"
               id="g2180">
              <path
                 id="id-9672a4b9-e5cf-4995-842d-4e65e622cb6e"
                 d="m 5.140625,-6.8125 c 0,0 0,-0.109375 -0.125,-0.109375 -0.15625,0 -1.09375,0.09375 -1.265625,0.109375 -0.078125,0.015625 -0.140625,0.0625 -0.140625,0.1875 0,0.125 0.09375,0.125 0.234375,0.125 0.484375,0 0.5,0.0625 0.5,0.171875 L 4.3125,-6.125 3.71875,-3.765625 C 3.53125,-4.140625 3.25,-4.40625 2.796875,-4.40625 c -1.15625,0 -2.390625,1.46875 -2.390625,2.921875 0,0.9375 0.546875,1.59375 1.3125,1.59375 0.203125,0 0.703125,-0.046875 1.296875,-0.75 0.078125,0.421875 0.4375,0.75 0.90625,0.75 0.359375,0 0.578125,-0.234375 0.75,-0.546875 0.15625,-0.359375 0.296875,-0.96875 0.296875,-0.984375 0,-0.109375 -0.09375,-0.109375 -0.125,-0.109375 -0.09375,0 -0.109375,0.046875 -0.140625,0.1875 -0.171875,0.640625 -0.34375,1.234375 -0.75,1.234375 -0.28125,0 -0.296875,-0.265625 -0.296875,-0.453125 0,-0.25 0.015625,-0.3125 0.046875,-0.484375 z m -2.0625,5.625 C 3.015625,-1 3.015625,-0.984375 2.875,-0.8125 2.4375,-0.265625 2.03125,-0.109375 1.75,-0.109375 c -0.5,0 -0.640625,-0.546875 -0.640625,-0.9375 0,-0.5 0.3125,-1.71875 0.546875,-2.1875 0.3125,-0.578125 0.75,-0.953125 1.15625,-0.953125 0.640625,0 0.78125,0.8125 0.78125,0.875 0,0.0625 -0.015625,0.125 -0.03125,0.171875 z m 0,0"
                 style="stroke:none" />
            </g>
            <g
               transform="translate(153.898,134.765)"
               id="g2183">
              <path
                 id="id-b4d76c62-6ced-4485-b572-b68f3f15845b"
                 d="M 1.78125,-1.140625 C 1.390625,-0.484375 1,-0.34375 0.5625,-0.3125 0.4375,-0.296875 0.34375,-0.296875 0.34375,-0.109375 0.34375,-0.046875 0.40625,0 0.484375,0 0.75,0 1.0625,-0.03125 1.328125,-0.03125 c 0.34375,0 0.6875,0.03125 1,0.03125 0.0625,0 0.1875,0 0.1875,-0.1875 0,-0.109375 -0.078125,-0.125 -0.15625,-0.125 -0.21875,-0.015625 -0.46875,-0.09375 -0.46875,-0.34375 0,-0.125 0.0625,-0.234375 0.140625,-0.375 l 0.765625,-1.265625 h 2.5 c 0.015625,0.203125 0.15625,1.5625 0.15625,1.65625 0,0.296875 -0.515625,0.328125 -0.71875,0.328125 C 4.59375,-0.3125 4.5,-0.3125 4.5,-0.109375 4.5,0 4.609375,0 4.640625,0 5.046875,0 5.46875,-0.03125 5.875,-0.03125 6.125,-0.03125 6.765625,0 7.015625,0 7.0625,0 7.1875,0 7.1875,-0.203125 7.1875,-0.3125 7.09375,-0.3125 6.953125,-0.3125 6.34375,-0.3125 6.34375,-0.375 6.3125,-0.671875 l -0.609375,-6.21875 c -0.015625,-0.203125 -0.015625,-0.25 -0.1875,-0.25 -0.15625,0 -0.203125,0.078125 -0.265625,0.171875 z M 2.984375,-2.609375 4.9375,-5.90625 5.265625,-2.609375 Z m 0,0"
                 style="stroke:none" />
            </g>
          </g>
        </g>
      </g>
      <g
         transform="matrix(0.529167,0,0,0.529167,103.39603,40.264259)"
         ns21:version="1.0.1"
         ns21:texconverter="pdflatex"
         ns21:pdfconverter="inkscape"
         ns21:text="$x$"
         ns21:preamble="C:\\Users\\claum\\AppData\\Roaming\\inkscape\\extensions\\textext\\default_packages.tex"
         ns21:scale="1.5"
         ns21:alignment="middle center"
         ns21:jacobian_sqrt="0.529167"
         id="g2248">
        <defs
           id="id-668aa7c9-fe08-47ae-b9b2-adf8a2efee5b">
          <g
             id="id-40bc55fe-ab35-4280-ad42-0756c788562c">
            <symbol
               id="id-a76eb24d-5876-4ae3-9b04-c8861f489182"
               overflow="visible">
              <path
                 id="id-1f248dfc-6e4a-4e26-87c7-625c3bfe457d"
                 d=""
                 style="stroke:none" />
            </symbol>
            <symbol
               id="id-5b2828a3-3fe8-4e55-9c8e-ab8b7b2f66d0"
               overflow="visible">
              <path
                 id="id-f525b08d-412e-461c-94c3-df88dd027f3a"
                 d="M 3.328125,-3.015625 C 3.390625,-3.265625 3.625,-4.1875 4.3125,-4.1875 c 0.046875,0 0.296875,0 0.5,0.125 C 4.53125,-4 4.34375,-3.765625 4.34375,-3.515625 c 0,0.15625 0.109375,0.34375 0.375,0.34375 0.21875,0 0.53125,-0.171875 0.53125,-0.578125 0,-0.515625 -0.578125,-0.65625 -0.921875,-0.65625 -0.578125,0 -0.921875,0.53125 -1.046875,0.75 -0.25,-0.65625 -0.78125,-0.75 -1.078125,-0.75 -1.03125,0 -1.609375,1.28125 -1.609375,1.53125 0,0.109375 0.109375,0.109375 0.125,0.109375 0.078125,0 0.109375,-0.03125 0.125,-0.109375 0.34375,-1.0625 1,-1.3125 1.34375,-1.3125 0.1875,0 0.53125,0.09375 0.53125,0.671875 0,0.3125 -0.171875,0.96875 -0.53125,2.375 -0.15625,0.609375 -0.515625,1.03125 -0.953125,1.03125 -0.0625,0 -0.28125,0 -0.5,-0.125 0.25,-0.0625 0.46875,-0.265625 0.46875,-0.546875 0,-0.265625 -0.21875,-0.34375 -0.359375,-0.34375 -0.3125,0 -0.546875,0.25 -0.546875,0.578125 0,0.453125 0.484375,0.65625 0.921875,0.65625 0.671875,0 1.03125,-0.703125 1.046875,-0.75 0.125,0.359375 0.484375,0.75 1.078125,0.75 1.03125,0 1.59375,-1.28125 1.59375,-1.53125 0,-0.109375 -0.078125,-0.109375 -0.109375,-0.109375 -0.09375,0 -0.109375,0.046875 -0.140625,0.109375 -0.328125,1.078125 -1,1.3125 -1.3125,1.3125 -0.390625,0 -0.546875,-0.3125 -0.546875,-0.65625 0,-0.21875 0.046875,-0.4375 0.15625,-0.875 z m 0,0"
                 style="stroke:none" />
            </symbol>
          </g>
        </defs>
        <g
           transform="translate(-149.009,-130.359)"
           id="id-20aaeec2-0a02-44e5-b68c-0178e553ac81">
          <g
             id="id-a1798505-eaa9-4310-bedc-10eea68ea1bc"
             style="fill:#000000;fill-opacity:1">
            <g
               transform="translate(148.712,134.765)"
               id="g2244">
              <path
                 id="id-a006cce4-0f8d-4b49-b33e-bc0f6c1863d9"
                 d="M 3.328125,-3.015625 C 3.390625,-3.265625 3.625,-4.1875 4.3125,-4.1875 c 0.046875,0 0.296875,0 0.5,0.125 C 4.53125,-4 4.34375,-3.765625 4.34375,-3.515625 c 0,0.15625 0.109375,0.34375 0.375,0.34375 0.21875,0 0.53125,-0.171875 0.53125,-0.578125 0,-0.515625 -0.578125,-0.65625 -0.921875,-0.65625 -0.578125,0 -0.921875,0.53125 -1.046875,0.75 -0.25,-0.65625 -0.78125,-0.75 -1.078125,-0.75 -1.03125,0 -1.609375,1.28125 -1.609375,1.53125 0,0.109375 0.109375,0.109375 0.125,0.109375 0.078125,0 0.109375,-0.03125 0.125,-0.109375 0.34375,-1.0625 1,-1.3125 1.34375,-1.3125 0.1875,0 0.53125,0.09375 0.53125,0.671875 0,0.3125 -0.171875,0.96875 -0.53125,2.375 -0.15625,0.609375 -0.515625,1.03125 -0.953125,1.03125 -0.0625,0 -0.28125,0 -0.5,-0.125 0.25,-0.0625 0.46875,-0.265625 0.46875,-0.546875 0,-0.265625 -0.21875,-0.34375 -0.359375,-0.34375 -0.3125,0 -0.546875,0.25 -0.546875,0.578125 0,0.453125 0.484375,0.65625 0.921875,0.65625 0.671875,0 1.03125,-0.703125 1.046875,-0.75 0.125,0.359375 0.484375,0.75 1.078125,0.75 1.03125,0 1.59375,-1.28125 1.59375,-1.53125 0,-0.109375 -0.078125,-0.109375 -0.109375,-0.109375 -0.09375,0 -0.109375,0.046875 -0.140625,0.109375 -0.328125,1.078125 -1,1.3125 -1.3125,1.3125 -0.390625,0 -0.546875,-0.3125 -0.546875,-0.65625 0,-0.21875 0.046875,-0.4375 0.15625,-0.875 z m 0,0"
                 style="stroke:none" />
            </g>
          </g>
        </g>
      </g>
      <g
         transform="matrix(0.529167,0,0,0.529167,116.41257,50.850391)"
         ns21:version="1.0.1"
         ns21:texconverter="pdflatex"
         ns21:pdfconverter="inkscape"
         ns21:text="$y$"
         ns21:preamble="C:\\Users\\claum\\AppData\\Roaming\\inkscape\\extensions\\textext\\default_packages.tex"
         ns21:scale="1.5"
         ns21:alignment="middle center"
         ns21:jacobian_sqrt="0.529167"
         id="g2316">
        <defs
           id="id-03e4f806-6f0a-49d0-a6e4-3553fa9cd117">
          <g
             id="id-544bb870-62a6-4a18-bfcd-3f39a75ef71a">
            <symbol
               id="id-fa53b123-1ea7-4567-9a49-96ad4200ef35"
               overflow="visible">
              <path
                 id="id-97a206b0-efb6-4035-bec2-c6bd54c5557e"
                 d=""
                 style="stroke:none" />
            </symbol>
            <symbol
               id="id-508710d7-38fe-4444-83a8-41e85e224a84"
               overflow="visible">
              <path
                 id="id-778fe0b7-d42e-4c49-a1f0-ac9e9c27a46d"
                 d="m 4.84375,-3.796875 c 0.046875,-0.140625 0.046875,-0.15625 0.046875,-0.234375 0,-0.171875 -0.140625,-0.265625 -0.296875,-0.265625 -0.09375,0 -0.25,0.0625 -0.34375,0.203125 -0.015625,0.0625 -0.109375,0.359375 -0.140625,0.546875 -0.078125,0.25 -0.140625,0.53125 -0.203125,0.796875 l -0.453125,1.796875 c -0.03125,0.140625 -0.46875,0.84375 -1.125,0.84375 -0.5,0 -0.609375,-0.4375 -0.609375,-0.8125 C 1.71875,-1.375 1.890625,-2 2.21875,-2.875 2.375,-3.28125 2.421875,-3.390625 2.421875,-3.59375 c 0,-0.4375 -0.3125,-0.8125 -0.8125,-0.8125 -0.953125,0 -1.3125,1.453125 -1.3125,1.53125 0,0.109375 0.09375,0.109375 0.109375,0.109375 0.109375,0 0.109375,-0.03125 0.15625,-0.1875 0.28125,-0.9375 0.671875,-1.234375 1.015625,-1.234375 0.078125,0 0.25,0 0.25,0.3125 0,0.25 -0.109375,0.515625 -0.171875,0.703125 -0.40625,1.0625 -0.578125,1.625 -0.578125,2.09375 0,0.890625 0.625,1.1875 1.21875,1.1875 0.390625,0 0.71875,-0.171875 1,-0.453125 -0.125,0.515625 -0.25,1.015625 -0.640625,1.546875 -0.265625,0.328125 -0.640625,0.625 -1.09375,0.625 -0.140625,0 -0.59375,-0.03125 -0.765625,-0.421875 0.15625,0 0.296875,0 0.421875,-0.125 C 1.328125,1.203125 1.421875,1.0625 1.421875,0.875 1.421875,0.5625 1.15625,0.53125 1.0625,0.53125 0.828125,0.53125 0.5,0.6875 0.5,1.171875 c 0,0.5 0.4375,0.875 1.0625,0.875 1.015625,0 2.046875,-0.90625 2.328125,-2.03125 z m 0,0"
                 style="stroke:none" />
            </symbol>
          </g>
        </defs>
        <g
           transform="translate(-149.009,-130.359)"
           id="id-f8cf2aac-7f90-4403-b535-c2d39b24801c">
          <g
             id="id-594dfe57-c5ad-4c96-9878-15ab798c3017"
             style="fill:#000000;fill-opacity:1">
            <g
               transform="translate(148.712,134.765)"
               id="g2312">
              <path
                 id="id-f17adbe6-2269-4870-a775-27db9a560949"
                 d="m 4.84375,-3.796875 c 0.046875,-0.140625 0.046875,-0.15625 0.046875,-0.234375 0,-0.171875 -0.140625,-0.265625 -0.296875,-0.265625 -0.09375,0 -0.25,0.0625 -0.34375,0.203125 -0.015625,0.0625 -0.109375,0.359375 -0.140625,0.546875 -0.078125,0.25 -0.140625,0.53125 -0.203125,0.796875 l -0.453125,1.796875 c -0.03125,0.140625 -0.46875,0.84375 -1.125,0.84375 -0.5,0 -0.609375,-0.4375 -0.609375,-0.8125 C 1.71875,-1.375 1.890625,-2 2.21875,-2.875 2.375,-3.28125 2.421875,-3.390625 2.421875,-3.59375 c 0,-0.4375 -0.3125,-0.8125 -0.8125,-0.8125 -0.953125,0 -1.3125,1.453125 -1.3125,1.53125 0,0.109375 0.09375,0.109375 0.109375,0.109375 0.109375,0 0.109375,-0.03125 0.15625,-0.1875 0.28125,-0.9375 0.671875,-1.234375 1.015625,-1.234375 0.078125,0 0.25,0 0.25,0.3125 0,0.25 -0.109375,0.515625 -0.171875,0.703125 -0.40625,1.0625 -0.578125,1.625 -0.578125,2.09375 0,0.890625 0.625,1.1875 1.21875,1.1875 0.390625,0 0.71875,-0.171875 1,-0.453125 -0.125,0.515625 -0.25,1.015625 -0.640625,1.546875 -0.265625,0.328125 -0.640625,0.625 -1.09375,0.625 -0.140625,0 -0.59375,-0.03125 -0.765625,-0.421875 0.15625,0 0.296875,0 0.421875,-0.125 C 1.328125,1.203125 1.421875,1.0625 1.421875,0.875 1.421875,0.5625 1.15625,0.53125 1.0625,0.53125 0.828125,0.53125 0.5,0.6875 0.5,1.171875 c 0,0.5 0.4375,0.875 1.0625,0.875 1.015625,0 2.046875,-0.90625 2.328125,-2.03125 z m 0,0"
                 style="stroke:none" />
            </g>
          </g>
        </g>
      </g>
      <g
         id="g2352"
         ns21:jacobian_sqrt="0.529167"
         ns21:alignment="middle center"
         ns21:scale="1.5"
         ns21:preamble="C:\\Users\\claum\\AppData\\Roaming\\inkscape\\extensions\\textext\\default_packages.tex"
         ns21:text="$x$"
         ns21:pdfconverter="inkscape"
         ns21:texconverter="pdflatex"
         ns21:version="1.0.1"
         transform="matrix(0.529167,0,0,0.529167,173.39603,61.264259)">
        <defs
           id="defs2342">
          <g
             id="g2340">
            <symbol
               overflow="visible"
               id="symbol2334">
              <path
                 style="stroke:none"
                 d=""
                 id="path2332" />
            </symbol>
            <symbol
               overflow="visible"
               id="symbol2338">
              <path
                 style="stroke:none"
                 d="M 3.328125,-3.015625 C 3.390625,-3.265625 3.625,-4.1875 4.3125,-4.1875 c 0.046875,0 0.296875,0 0.5,0.125 C 4.53125,-4 4.34375,-3.765625 4.34375,-3.515625 c 0,0.15625 0.109375,0.34375 0.375,0.34375 0.21875,0 0.53125,-0.171875 0.53125,-0.578125 0,-0.515625 -0.578125,-0.65625 -0.921875,-0.65625 -0.578125,0 -0.921875,0.53125 -1.046875,0.75 -0.25,-0.65625 -0.78125,-0.75 -1.078125,-0.75 -1.03125,0 -1.609375,1.28125 -1.609375,1.53125 0,0.109375 0.109375,0.109375 0.125,0.109375 0.078125,0 0.109375,-0.03125 0.125,-0.109375 0.34375,-1.0625 1,-1.3125 1.34375,-1.3125 0.1875,0 0.53125,0.09375 0.53125,0.671875 0,0.3125 -0.171875,0.96875 -0.53125,2.375 -0.15625,0.609375 -0.515625,1.03125 -0.953125,1.03125 -0.0625,0 -0.28125,0 -0.5,-0.125 0.25,-0.0625 0.46875,-0.265625 0.46875,-0.546875 0,-0.265625 -0.21875,-0.34375 -0.359375,-0.34375 -0.3125,0 -0.546875,0.25 -0.546875,0.578125 0,0.453125 0.484375,0.65625 0.921875,0.65625 0.671875,0 1.03125,-0.703125 1.046875,-0.75 0.125,0.359375 0.484375,0.75 1.078125,0.75 1.03125,0 1.59375,-1.28125 1.59375,-1.53125 0,-0.109375 -0.078125,-0.109375 -0.109375,-0.109375 -0.09375,0 -0.109375,0.046875 -0.140625,0.109375 -0.328125,1.078125 -1,1.3125 -1.3125,1.3125 -0.390625,0 -0.546875,-0.3125 -0.546875,-0.65625 0,-0.21875 0.046875,-0.4375 0.15625,-0.875 z m 0,0"
                 id="path2336" />
            </symbol>
          </g>
        </defs>
        <g
           id="g2350"
           transform="translate(-149.009,-130.359)">
          <g
             style="fill:#000000;fill-opacity:1"
             id="g2348">
            <g
               id="g2346"
               transform="translate(148.712,134.765)">
              <path
                 style="stroke:none"
                 d="M 3.328125,-3.015625 C 3.390625,-3.265625 3.625,-4.1875 4.3125,-4.1875 c 0.046875,0 0.296875,0 0.5,0.125 C 4.53125,-4 4.34375,-3.765625 4.34375,-3.515625 c 0,0.15625 0.109375,0.34375 0.375,0.34375 0.21875,0 0.53125,-0.171875 0.53125,-0.578125 0,-0.515625 -0.578125,-0.65625 -0.921875,-0.65625 -0.578125,0 -0.921875,0.53125 -1.046875,0.75 -0.25,-0.65625 -0.78125,-0.75 -1.078125,-0.75 -1.03125,0 -1.609375,1.28125 -1.609375,1.53125 0,0.109375 0.109375,0.109375 0.125,0.109375 0.078125,0 0.109375,-0.03125 0.125,-0.109375 0.34375,-1.0625 1,-1.3125 1.34375,-1.3125 0.1875,0 0.53125,0.09375 0.53125,0.671875 0,0.3125 -0.171875,0.96875 -0.53125,2.375 -0.15625,0.609375 -0.515625,1.03125 -0.953125,1.03125 -0.0625,0 -0.28125,0 -0.5,-0.125 0.25,-0.0625 0.46875,-0.265625 0.46875,-0.546875 0,-0.265625 -0.21875,-0.34375 -0.359375,-0.34375 -0.3125,0 -0.546875,0.25 -0.546875,0.578125 0,0.453125 0.484375,0.65625 0.921875,0.65625 0.671875,0 1.03125,-0.703125 1.046875,-0.75 0.125,0.359375 0.484375,0.75 1.078125,0.75 1.03125,0 1.59375,-1.28125 1.59375,-1.53125 0,-0.109375 -0.078125,-0.109375 -0.109375,-0.109375 -0.09375,0 -0.109375,0.046875 -0.140625,0.109375 -0.328125,1.078125 -1,1.3125 -1.3125,1.3125 -0.390625,0 -0.546875,-0.3125 -0.546875,-0.65625 0,-0.21875 0.046875,-0.4375 0.15625,-0.875 z m 0,0"
                 id="path2344" />
            </g>
          </g>
        </g>
      </g>
      <g
         id="g2374"
         ns21:jacobian_sqrt="0.529167"
         ns21:alignment="middle center"
         ns21:scale="1.5"
         ns21:preamble="C:\\Users\\claum\\AppData\\Roaming\\inkscape\\extensions\\textext\\default_packages.tex"
         ns21:text="$y$"
         ns21:pdfconverter="inkscape"
         ns21:texconverter="pdflatex"
         ns21:version="1.0.1"
         transform="matrix(0.529167,0,0,0.529167,90.982617,4.5453794)">
        <defs
           id="defs2364">
          <g
             id="g2362">
            <symbol
               overflow="visible"
               id="symbol2356">
              <path
                 style="stroke:none"
                 d=""
                 id="path2354" />
            </symbol>
            <symbol
               overflow="visible"
               id="symbol2360">
              <path
                 style="stroke:none"
                 d="m 4.84375,-3.796875 c 0.046875,-0.140625 0.046875,-0.15625 0.046875,-0.234375 0,-0.171875 -0.140625,-0.265625 -0.296875,-0.265625 -0.09375,0 -0.25,0.0625 -0.34375,0.203125 -0.015625,0.0625 -0.109375,0.359375 -0.140625,0.546875 -0.078125,0.25 -0.140625,0.53125 -0.203125,0.796875 l -0.453125,1.796875 c -0.03125,0.140625 -0.46875,0.84375 -1.125,0.84375 -0.5,0 -0.609375,-0.4375 -0.609375,-0.8125 C 1.71875,-1.375 1.890625,-2 2.21875,-2.875 2.375,-3.28125 2.421875,-3.390625 2.421875,-3.59375 c 0,-0.4375 -0.3125,-0.8125 -0.8125,-0.8125 -0.953125,0 -1.3125,1.453125 -1.3125,1.53125 0,0.109375 0.09375,0.109375 0.109375,0.109375 0.109375,0 0.109375,-0.03125 0.15625,-0.1875 0.28125,-0.9375 0.671875,-1.234375 1.015625,-1.234375 0.078125,0 0.25,0 0.25,0.3125 0,0.25 -0.109375,0.515625 -0.171875,0.703125 -0.40625,1.0625 -0.578125,1.625 -0.578125,2.09375 0,0.890625 0.625,1.1875 1.21875,1.1875 0.390625,0 0.71875,-0.171875 1,-0.453125 -0.125,0.515625 -0.25,1.015625 -0.640625,1.546875 -0.265625,0.328125 -0.640625,0.625 -1.09375,0.625 -0.140625,0 -0.59375,-0.03125 -0.765625,-0.421875 0.15625,0 0.296875,0 0.421875,-0.125 C 1.328125,1.203125 1.421875,1.0625 1.421875,0.875 1.421875,0.5625 1.15625,0.53125 1.0625,0.53125 0.828125,0.53125 0.5,0.6875 0.5,1.171875 c 0,0.5 0.4375,0.875 1.0625,0.875 1.015625,0 2.046875,-0.90625 2.328125,-2.03125 z m 0,0"
                 id="path2358" />
            </symbol>
          </g>
        </defs>
        <g
           id="g2372"
           transform="translate(-149.009,-130.359)">
          <g
             style="fill:#000000;fill-opacity:1"
             id="g2370">
            <g
               id="g2368"
               transform="translate(148.712,134.765)">
              <path
                 style="stroke:none"
                 d="m 4.84375,-3.796875 c 0.046875,-0.140625 0.046875,-0.15625 0.046875,-0.234375 0,-0.171875 -0.140625,-0.265625 -0.296875,-0.265625 -0.09375,0 -0.25,0.0625 -0.34375,0.203125 -0.015625,0.0625 -0.109375,0.359375 -0.140625,0.546875 -0.078125,0.25 -0.140625,0.53125 -0.203125,0.796875 l -0.453125,1.796875 c -0.03125,0.140625 -0.46875,0.84375 -1.125,0.84375 -0.5,0 -0.609375,-0.4375 -0.609375,-0.8125 C 1.71875,-1.375 1.890625,-2 2.21875,-2.875 2.375,-3.28125 2.421875,-3.390625 2.421875,-3.59375 c 0,-0.4375 -0.3125,-0.8125 -0.8125,-0.8125 -0.953125,0 -1.3125,1.453125 -1.3125,1.53125 0,0.109375 0.09375,0.109375 0.109375,0.109375 0.109375,0 0.109375,-0.03125 0.15625,-0.1875 0.28125,-0.9375 0.671875,-1.234375 1.015625,-1.234375 0.078125,0 0.25,0 0.25,0.3125 0,0.25 -0.109375,0.515625 -0.171875,0.703125 -0.40625,1.0625 -0.578125,1.625 -0.578125,2.09375 0,0.890625 0.625,1.1875 1.21875,1.1875 0.390625,0 0.71875,-0.171875 1,-0.453125 -0.125,0.515625 -0.25,1.015625 -0.640625,1.546875 -0.265625,0.328125 -0.640625,0.625 -1.09375,0.625 -0.140625,0 -0.59375,-0.03125 -0.765625,-0.421875 0.15625,0 0.296875,0 0.421875,-0.125 C 1.328125,1.203125 1.421875,1.0625 1.421875,0.875 1.421875,0.5625 1.15625,0.53125 1.0625,0.53125 0.828125,0.53125 0.5,0.6875 0.5,1.171875 c 0,0.5 0.4375,0.875 1.0625,0.875 1.015625,0 2.046875,-0.90625 2.328125,-2.03125 z m 0,0"
                 id="path2366" />
            </g>
          </g>
        </g>
      </g>
      <g
         transform="matrix(0.529167,0,0,0.529167,90.065432,60.486067)"
         ns21:version="1.0.1"
         ns21:texconverter="pdflatex"
         ns21:pdfconverter="inkscape"
         ns21:text="$\\mathbf{O}$"
         ns21:preamble="C:\\Users\\claum\\AppData\\Roaming\\inkscape\\extensions\\textext\\default_packages.tex"
         ns21:scale="1.5"
         ns21:alignment="middle center"
         ns21:jacobian_sqrt="0.529167"
         id="g2461">
        <defs
           id="id-6e3644cf-82b2-4d6b-99ca-2d2c644eea87">
          <g
             id="id-8c700be1-f7fc-4c66-8269-c7efbe10ed1e">
            <symbol
               id="id-9eb48904-e898-4cd7-abe6-865e5162a6c3"
               overflow="visible">
              <path
                 id="id-311aa700-05dc-4d47-aa5c-1401de5c8351"
                 d=""
                 style="stroke:none" />
            </symbol>
            <symbol
               id="id-232e5f99-b45d-4f96-8245-51f0e0ef3d6b"
               overflow="visible">
              <path
                 id="id-2648a397-2e10-4c30-b714-75b2ede5aa1b"
                 d="m 7.96875,-3.375 c 0,-2.15625 -1.453125,-3.578125 -3.65625,-3.578125 -2.28125,0 -3.671875,1.484375 -3.671875,3.578125 0,2.0625 1.390625,3.484375 3.65625,3.484375 2.296875,0 3.671875,-1.4375 3.671875,-3.484375 z m -3.671875,3.0625 c -0.59375,0 -1.3125,-0.28125 -1.71875,-1.03125 C 2.25,-1.96875 2.15625,-2.671875 2.15625,-3.53125 c 0,-0.640625 0.03125,-1.484375 0.46875,-2.15625 0.421875,-0.609375 1.078125,-0.859375 1.671875,-0.859375 0.640625,0 1.328125,0.28125 1.71875,0.9375 0.390625,0.640625 0.421875,1.40625 0.421875,2.078125 0,0.703125 -0.03125,1.59375 -0.453125,2.28125 -0.453125,0.71875 -1.15625,0.9375 -1.6875,0.9375 z m 0,0"
                 style="stroke:none" />
            </symbol>
          </g>
        </defs>
        <g
           transform="translate(-149.353,-127.812)"
           id="id-b23644a9-276e-40de-b083-0d1f665ae398">
          <g
             id="id-4690c6c6-5e88-4d2d-8d88-fa3fd77330a1"
             style="fill:#000000;fill-opacity:1">
            <g
               transform="translate(148.712,134.765)"
               id="g2457">
              <path
                 id="id-cfaf3727-3427-4beb-9dee-7c7e66743841"
                 d="m 7.96875,-3.375 c 0,-2.15625 -1.453125,-3.578125 -3.65625,-3.578125 -2.28125,0 -3.671875,1.484375 -3.671875,3.578125 0,2.0625 1.390625,3.484375 3.65625,3.484375 2.296875,0 3.671875,-1.4375 3.671875,-3.484375 z m -3.671875,3.0625 c -0.59375,0 -1.3125,-0.28125 -1.71875,-1.03125 C 2.25,-1.96875 2.15625,-2.671875 2.15625,-3.53125 c 0,-0.640625 0.03125,-1.484375 0.46875,-2.15625 0.421875,-0.609375 1.078125,-0.859375 1.671875,-0.859375 0.640625,0 1.328125,0.28125 1.71875,0.9375 0.390625,0.640625 0.421875,1.40625 0.421875,2.078125 0,0.703125 -0.03125,1.59375 -0.453125,2.28125 -0.453125,0.71875 -1.15625,0.9375 -1.6875,0.9375 z m 0,0"
                 style="stroke:none" />
            </g>
          </g>
        </g>
      </g>
    </g>
    <path
       transform="scale(0.26458333)"
       id="path338"
       d="m 211.58871,365.50988 c -4.44467,-0.75016 -16.03617,-2.57078 -25.75889,-4.04581 -39.55699,-6.0012 -57.95104,-11.34482 -84.07595,-24.42472 C 79.010246,325.65235 68.123352,317.32874 51.687362,298.76087 32.930467,277.57104 26.302851,265.58749 22.077609,245.22278 20.246184,236.39573 19.535916,219.38813 20.801487,214.66567 l 0.609099,-2.27285 h 83.219764 83.21978 v 66.165 c 0,43.43656 0.34699,66.16499 1.01015,66.16499 0.66315,0 1.01015,-22.72843 1.01015,-66.16499 v -66.165 h 83.93145 83.93146 l -0.6984,4.29315 c -1.05941,6.51244 -7.16251,24.87211 -13.34091,40.13292 -3.04117,7.51174 -7.02622,17.77976 -8.85568,22.81784 -6.95014,19.13979 -12.72923,26.48734 -27.15817,34.52896 -4.23672,2.36123 -11.13485,6.20535 -15.32919,8.54248 -5.21076,2.90348 -12.00934,8.35599 -21.46574,17.21565 -16.55264,15.5081 -25.39166,22.39382 -31.51734,24.5525 -6.28865,2.21609 -18.15657,2.65766 -27.7792,1.03356 z M 181.21575,227.13371 c 3.95588,-1.65288 5.52902,-6.06994 3.51994,-9.88341 -1.65366,-3.13886 -2.85124,-3.81362 -6.80096,-3.83186 -4.85602,-0.0224 -7.08158,1.55669 -7.83207,5.55711 -0.7912,4.2175 1.38474,8.19974 4.84314,8.86356 1.26374,0.24256 2.42596,0.50293 2.58271,0.57859 0.15673,0.0757 1.81599,-0.50213 3.68724,-1.28399 z"
       style="opacity:0.0349854;fill:#000000;stroke:#000000;stroke-width:1.01174" />
    <path
       transform="scale(0.26458333)"
       id="path340"
       d="M 23.71656,201.53368 C 28.48723,183.93384 43.45155,141.39491 47.90636,132.76957 53.717307,121.51851 61.753682,112.5526 95.032053,80.193017 119.8657,56.045007 121.2884,54.844358 130.3874,50.355745 143.59896,43.838362 156.67551,40.71774 173.96053,39.957338 l 13.8896,-0.611031 v 85.513103 85.51311 H 104.5854 21.320678 Z"
       style="opacity:0.0349854;fill:#000000;stroke:#000000;stroke-width:1.01174" />
    <path
       transform="scale(0.26458333)"
       id="path342"
       d="m 265.63187,186.17625 v -24.19627 l 3.39557,-1.6113 c 5.10423,-2.42212 7.38058,-9.61042 4.65571,-14.70188 -1.27521,-2.38273 -6.1259,-4.99613 -9.26381,-4.99103 -3.48473,0.006 -8.74937,3.63388 -9.47647,6.53088 l -0.64169,2.55672 H 222.0858 189.87043 V 95.075631 40.387896 l 6.81853,0.693343 c 16.05208,1.632257 29.71186,5.608488 60.86169,17.716254 29.92249,11.630707 38.52748,16.196894 47.54137,25.227548 8.5844,8.600374 15.06181,18.086949 26.95298,39.474359 4.47903,8.05597 11.14396,19.85325 14.81094,26.21619 7.14383,12.39591 10.27469,19.7537 11.77757,27.67834 1.0786,5.68744 1.22613,19.86487 0.28799,27.67529 l -0.637,5.3033 h -46.32632 -46.32631 z m 9.89742,3.13059 c 1.28663,-0.81617 4.55586,-11.28477 3.76964,-12.07099 -0.82708,-0.82708 -2.55538,0.99811 -2.55538,2.69864 0,0.97219 -0.71289,2.64999 -1.58421,3.72845 -1.48239,1.83481 -1.54579,1.6802 -0.98648,-2.40566 0.56135,-4.10084 0.45862,-4.34668 -1.68847,-4.04061 -1.26592,0.18045 -2.44684,1.1682 -2.64616,2.21329 -0.19941,1.04558 0.081,1.61485 0.62878,1.27633 1.11293,-0.68784 0.96102,4.40941 -0.18676,6.26657 -1.59758,2.58493 2.19498,4.27128 5.24904,2.33398 z m -46.15882,-44.21459 c 0.65668,-0.79124 0.87718,-1.7554 0.49001,-2.14258 -0.38717,-0.38717 -1.10909,-0.0484 -1.60425,0.75278 -1.2706,2.05586 -1.93374,0.98303 -1.33109,-2.15344 0.4006,-2.08494 0.95539,-2.54227 2.57142,-2.11967 1.46256,0.38247 1.92383,0.12794 1.58933,-0.87701 -0.30909,-0.92864 -2.00172,-1.41587 -4.91871,-1.41587 -3.62004,0 -4.51885,0.36988 -4.83125,1.98815 -0.33544,1.73765 -0.17513,1.81497 1.27236,0.61367 2.07882,-1.72527 2.70756,-1.14419 1.93958,1.79257 -0.35656,1.36349 -1.14256,2.07681 -1.94789,1.76777 -1.52787,-0.5863 -2.83426,0.94467 -1.98233,2.32312 0.89494,1.44803 7.44024,1.05208 8.75282,-0.52949 z m 39.27092,-8.42699 c 0.56798,-0.91901 0.51117,-1.96857 -0.14965,-2.7648 -0.96027,-1.15706 -0.75081,-3.44113 0.79171,-8.63329 0.37042,-1.24686 -0.0394,-1.76777 -1.39087,-1.76777 -1.32969,0 -1.8915,0.6859 -1.83584,2.24132 0.0528,1.47423 -0.61124,2.37574 -1.9401,2.63408 -1.11117,0.21602 -2.58851,0.85408 -3.28299,1.4179 -1.50154,1.21906 -1.70048,7.53455 -0.25254,8.01719 2.56583,0.85528 7.23397,0.19236 8.06028,-1.14463 z m 5.71708,-0.79149 c -0.097,-1.22193 0.71744,-1.86646 2.63762,-2.0874 1.92543,-0.22155 2.77792,0.14011 2.77792,1.17851 0,0.82398 -0.56821,1.72742 -1.26269,2.00765 -0.69448,0.28023 0.30557,0.54539 2.22233,0.58926 2.71058,0.062 3.21565,-0.18963 2.27285,-1.13244 -0.66671,-0.6667 -1.24414,-3.28047 -1.28319,-5.80838 -0.0391,-2.5279 -0.43047,-5.50533 -0.86983,-6.61649 -0.70238,-1.77639 -1.15116,-1.42408 -3.71707,2.91803 -1.60503,2.71609 -3.98143,6.239 -5.28088,7.82868 l -2.36264,2.89034 h 2.50294 c 1.76376,0 2.4615,-0.52206 2.36264,-1.76776 z"
       style="opacity:0.0349854;fill:#000000;stroke:#000000;stroke-width:1.01174" />
    <path
       transform="scale(0.26458333)"
       id="path344"
       d="m 189.51997,181.45595 v -29.29443 h 32.57742 32.57742 v 1.16381 c 0,2.05376 2.72016,5.66694 5.15294,6.84463 1.23038,0.59561 2.61986,1.08294 3.08774,1.08294 0.78596,0 0.85069,1.88313 0.85069,24.74873 v 24.74874 h -37.12311 -37.1231 z"
       style="opacity:0.0349854;fill:#000000;stroke:#000000;stroke-width:0.50587" />
    <path
       transform="scale(0.26458333)"
       id="path346"
       d="m 275.34389,132.20116 c 0,-0.0388 0.79941,-1.42231 1.77648,-3.07438 1.0141,-1.71469 1.81269,-2.89139 1.86085,-2.74189 0.0464,0.14403 0.17501,1.30652 0.28581,2.5833 0.11079,1.27679 0.24408,2.54241 0.2962,2.8125 l 0.0948,0.49107 h -2.15705 c -1.18637,0 -2.15704,-0.0318 -2.15704,-0.0706 z"
       style="opacity:0.0349854;fill:#000000;stroke:#000000;stroke-width:0.178852" />
    <path
       transform="scale(0.26458333)"
       id="path348"
       d="m 261.9322,137.02797 c -0.49802,-0.24829 -0.86773,-0.9117 -0.87139,-1.56367 -0.004,-0.63808 0.79515,-3.74071 1.12942,-4.38711 0.36691,-0.70954 1.35634,-1.65285 1.86847,-1.78139 0.59503,-0.14934 1.22038,0.1898 1.55963,0.84585 0.27838,0.53833 0.2663,0.67118 -0.26609,2.92582 -0.52047,2.20413 -0.60605,2.4107 -1.28125,3.09266 -0.8809,0.8897 -1.55021,1.16128 -2.13879,0.86784 z"
       style="opacity:0.0349854;fill:#000000;stroke:#000000;stroke-width:0.178852" />
  </g>
</svg>
