<?xml version="1.0" encoding="UTF-8" standalone="no"?>
<svg
   xmlns:ns21="http://www.iki.fi/pav/software/textext/"
   xmlns:dc="http://purl.org/dc/elements/1.1/"
   xmlns:cc="http://creativecommons.org/ns#"
   xmlns:rdf="http://www.w3.org/1999/02/22-rdf-syntax-ns#"
   xmlns:svg="http://www.w3.org/2000/svg"
   xmlns="http://www.w3.org/2000/svg"
   xmlns:xlink="http://www.w3.org/1999/xlink"
   xmlns:sodipodi="http://sodipodi.sourceforge.net/DTD/sodipodi-0.dtd"
   xmlns:inkscape="http://www.inkscape.org/namespaces/inkscape"
   width="22cm"
   height="22cm"
   viewBox="0 0 220 219.99999"
   version="1.1"
   id="svg8"
   inkscape:version="1.0 (4035a4fb49, 2020-05-01)"
   sodipodi:docname="Esercizio1_7.svg">
  <defs
     id="defs2">
    <linearGradient
       inkscape:collect="always"
       id="linearGradient1600">
      <stop
         style="stop-color:#000000;stop-opacity:1;"
         offset="0"
         id="stop1596" />
      <stop
         style="stop-color:#000000;stop-opacity:0"
         offset="1"
         id="stop1598" />
    </linearGradient>
    <marker
       inkscape:stockid="Arrow1Lstart"
       orient="auto"
       refY="0.0"
       refX="0.0"
       id="Arrow1Lstart"
       style="overflow:visible"
       inkscape:isstock="true">
      <path
         id="path837"
         d="M 0.0,0.0 L 5.0,-5.0 L -12.5,0.0 L 5.0,5.0 L 0.0,0.0 z "
         style="fill-rule:evenodd;stroke:#000000;stroke-width:1pt;stroke-opacity:1;fill:#000000;fill-opacity:1"
         transform="scale(0.8) translate(12.5,0)" />
    </marker>
    <marker
       inkscape:stockid="Arrow1Lend"
       orient="auto"
       refY="0.0"
       refX="0.0"
       id="marker1205"
       style="overflow:visible;"
       inkscape:isstock="true">
      <path
         id="path1203"
         d="M 0.0,0.0 L 5.0,-5.0 L -12.5,0.0 L 5.0,5.0 L 0.0,0.0 z "
         style="fill-rule:evenodd;stroke:#000000;stroke-width:1pt;stroke-opacity:1;fill:#000000;fill-opacity:1"
         transform="scale(0.8) rotate(180) translate(12.5,0)" />
    </marker>
    <marker
       inkscape:stockid="Arrow1Lend"
       orient="auto"
       refY="0.0"
       refX="0.0"
       id="marker1171"
       style="overflow:visible;"
       inkscape:isstock="true">
      <path
         id="path1169"
         d="M 0.0,0.0 L 5.0,-5.0 L -12.5,0.0 L 5.0,5.0 L 0.0,0.0 z "
         style="fill-rule:evenodd;stroke:#000000;stroke-width:1pt;stroke-opacity:1;fill:#000000;fill-opacity:1"
         transform="scale(0.8) rotate(180) translate(12.5,0)" />
    </marker>
    <marker
       inkscape:isstock="true"
       style="overflow:visible;"
       id="marker1117"
       refX="0.0"
       refY="0.0"
       orient="auto"
       inkscape:stockid="Arrow1Lend"
       inkscape:collect="always">
      <path
         transform="scale(0.8) rotate(180) translate(12.5,0)"
         style="fill-rule:evenodd;stroke:#000000;stroke-width:1pt;stroke-opacity:1;fill:#000000;fill-opacity:1"
         d="M 0.0,0.0 L 5.0,-5.0 L -12.5,0.0 L 5.0,5.0 L 0.0,0.0 z "
         id="path1115" />
    </marker>
    <marker
       inkscape:stockid="Arrow1Lend"
       orient="auto"
       refY="0.0"
       refX="0.0"
       id="Arrow1Lend"
       style="overflow:visible;"
       inkscape:isstock="true"
       inkscape:collect="always">
      <path
         id="path840"
         d="M 0.0,0.0 L 5.0,-5.0 L -12.5,0.0 L 5.0,5.0 L 0.0,0.0 z "
         style="fill-rule:evenodd;stroke:#000000;stroke-width:1pt;stroke-opacity:1;fill:#000000;fill-opacity:1"
         transform="scale(0.8) rotate(180) translate(12.5,0)" />
    </marker>
    <linearGradient
       inkscape:collect="always"
       xlink:href="#linearGradient1600"
       id="linearGradient1602"
       x1="19.710243"
       y1="-130.1342"
       x2="180"
       y2="-65"
       gradientUnits="userSpaceOnUse" />
  </defs>
  <sodipodi:namedview
     id="base"
     pagecolor="#ffffff"
     bordercolor="#666666"
     borderopacity="1.0"
     inkscape:pageopacity="0.0"
     inkscape:pageshadow="2"
     inkscape:zoom="0.49497475"
     inkscape:cx="486.82852"
     inkscape:cy="471.91497"
     inkscape:document-units="mm"
     inkscape:current-layer="layer1"
     inkscape:document-rotation="0"
     showgrid="true"
     units="cm"
     inkscape:window-width="1350"
     inkscape:window-height="729"
     inkscape:window-x="0"
     inkscape:window-y="0"
     inkscape:window-maximized="0">
    <inkscape:grid
       type="xygrid"
       id="grid10"
       units="cm" />
  </sodipodi:namedview>
  <metadata
     id="metadata5">
    <rdf:RDF>
      <cc:Work
         rdf:about="">
        <dc:format>image/svg+xml</dc:format>
        <dc:type
           rdf:resource="http://purl.org/dc/dcmitype/StillImage" />
        <dc:title></dc:title>
      </cc:Work>
    </rdf:RDF>
  </metadata>
  <g
     inkscape:label="Livello 1"
     inkscape:groupmode="layer"
     id="layer1">
    <path
       style="fill:none;stroke:#000000;stroke-width:0.264999;stroke-miterlimit:4;stroke-dasharray:none;fill-opacity:1"
       id="path1159"
       sodipodi:type="arc"
       sodipodi:cx="20"
       sodipodi:cy="-200.0014"
       sodipodi:rx="150"
       sodipodi:ry="150"
       sodipodi:start="0.64349211"
       sodipodi:end="1.2025875"
       sodipodi:arc-type="slice"
       d="M 140.00081,-110.00248 A 150,150 0 0 1 73.991734,-60.055369 L 20,-200.0014 Z"
       transform="scale(1,-1)" />
    <path
       style="fill:none;stroke:#000000;stroke-width:0.26499901;stroke-miterlimit:4;stroke-dasharray:0.52999802,0.26499901,0.1324995,0.26499901;stroke-dashoffset:0"
       id="path1161"
       transform="scale(1,-1)"
       sodipodi:type="arc"
       sodipodi:cx="20"
       sodipodi:cy="-200"
       sodipodi:rx="140"
       sodipodi:ry="140"
       sodipodi:start="0.64300642"
       sodipodi:end="1.2020688"
       sodipodi:open="true"
       sodipodi:arc-type="arc"
       d="M 132.04154,-116.05542 A 140,140 0 0 1 70.460029,-69.409857" />
    <path
       style="fill:none;stroke:#000000;stroke-width:0.264999;stroke-miterlimit:4;stroke-dasharray:none;stroke-dashoffset:0"
       id="path1163"
       transform="scale(1,-1)"
       sodipodi:type="arc"
       sodipodi:cx="20"
       sodipodi:cy="-200.00006"
       sodipodi:rx="130"
       sodipodi:ry="130"
       sodipodi:start="0.64349645"
       sodipodi:end="1.2022166"
       sodipodi:open="true"
       sodipodi:arc-type="arc"
       d="M 124.00036,-122.00055 A 130,130 0 0 1 66.837818,-78.730861" />
    <path
       style="fill:none;stroke:#000000;stroke-width:0.26499901;stroke-miterlimit:4;stroke-dasharray:0.26499901,0.26499901;stroke-dashoffset:0"
       id="path1299"
       transform="scale(1,-1)"
       sodipodi:type="arc"
       sodipodi:cx="20"
       sodipodi:cy="-200"
       sodipodi:rx="50"
       sodipodi:ry="50"
       sodipodi:start="0"
       sodipodi:end="1.2006928"
       sodipodi:open="true"
       sodipodi:arc-type="arc"
       d="m 70,-200 a 50,50 0 0 1 -31.914402,46.6145" />
    <g
       id="g3166">
      <path
         id="path12"
         d="M 20,200 V 20"
         style="fill:none;stroke:#000000;stroke-width:0.265;stroke-linecap:butt;stroke-linejoin:miter;stroke-opacity:1;stroke-miterlimit:4;stroke-dasharray:none;marker-end:url(#Arrow1Lend)" />
      <path
         style="fill:none;stroke:#000000;stroke-width:0.265;stroke-linecap:butt;stroke-linejoin:miter;stroke-miterlimit:4;stroke-dasharray:none;stroke-opacity:1;marker-end:url(#marker1117)"
         d="M 20,200 H 200"
         id="path1113" />
      <path
         sodipodi:nodetypes="ccc"
         id="path1165"
         d="m 109.7,79.3 2.8,-2.799999 2.5,-2.499999"
         style="fill:none;stroke:#000000;stroke-width:0.264583px;stroke-linecap:butt;stroke-linejoin:miter;stroke-opacity:1;marker-start:url(#Arrow1Lstart)" />
      <path
         style="fill:none;stroke:#000000;stroke-width:0.264583px;stroke-linecap:butt;stroke-linejoin:miter;stroke-opacity:1;marker-end:url(#marker1171)"
         d="M 90,98.999998 94.8,94.2"
         id="path1167"
         sodipodi:nodetypes="cc" />
      <path
         d="m 45,-200 a 25,25 0 0 1 -4.982995,14.9773"
         sodipodi:arc-type="arc"
         sodipodi:open="true"
         sodipodi:end="0.64236661"
         sodipodi:start="0"
         sodipodi:ry="25"
         sodipodi:rx="25"
         sodipodi:cy="-200"
         sodipodi:cx="20"
         sodipodi:type="arc"
         transform="scale(1,-1)"
         id="path1301"
         style="fill:none;stroke:#000000;stroke-width:0.264999;stroke-miterlimit:4;stroke-dasharray:0.264999, 0.264999;stroke-dashoffset:0" />
      <g
         transform="matrix(0.705556,0,0,0.705556,115.44566,72.070569)"
         ns21:version="1.0.1"
         ns21:texconverter="pdflatex"
         ns21:pdfconverter="inkscape"
         ns21:text="$\\delta$"
         ns21:preamble="C:\\Users\\claum\\AppData\\Roaming\\inkscape\\extensions\\textext\\default_packages.tex"
         ns21:scale="2.0"
         ns21:alignment="middle center"
         ns21:jacobian_sqrt="0.705556"
         id="g1337">
        <defs
           id="id-694b1d67-86f2-4121-b0c7-6163b65328a3">
          <g
             id="id-5653b842-4077-441e-8a31-9a7ab6477b3f">
            <symbol
               id="id-bb40c6d2-e954-4cd8-90ae-fad285c2c878"
               overflow="visible">
              <path
                 id="id-511cad84-3c60-4214-8e16-28ee19897f64"
                 d=""
                 style="stroke:none" />
            </symbol>
            <symbol
               id="id-114016b4-6c7e-4e57-8c3e-bf2793a45937"
               overflow="visible">
              <path
                 id="id-255a35ff-df36-49b3-a8f0-d22d66d7d899"
                 d="M 2.625,-4.359375 C 1.390625,-4.0625 0.421875,-2.765625 0.421875,-1.5625 0.421875,-0.59375 1.0625,0.125 2,0.125 c 1.15625,0 1.984375,-1.578125 1.984375,-2.953125 0,-0.90625 -0.390625,-1.40625 -0.734375,-1.84375 C 2.890625,-5.125 2.296875,-5.875 2.296875,-6.3125 c 0,-0.21875 0.203125,-0.453125 0.546875,-0.453125 0.3125,0 0.5,0.125 0.71875,0.265625 0.203125,0.125 0.390625,0.25 0.546875,0.25 C 4.359375,-6.25 4.5,-6.484375 4.5,-6.65625 4.5,-6.875 4.34375,-6.890625 3.984375,-6.984375 3.46875,-7.09375 3.328125,-7.09375 3.171875,-7.09375 c -0.78125,0 -1.140625,0.4375 -1.140625,1.03125 0,0.546875 0.296875,1.09375 0.59375,1.703125 z m 0.125,0.21875 c 0.25,0.46875 0.546875,1 0.546875,1.71875 0,0.65625 -0.375,2.328125 -1.296875,2.328125 -0.546875,0 -0.96875,-0.421875 -0.96875,-1.1875 0,-0.625 0.375,-2.5 1.71875,-2.859375 z m 0,0"
                 style="stroke:none" />
            </symbol>
          </g>
        </defs>
        <g
           transform="translate(-149.134,-127.671)"
           id="id-1705b493-6286-48d9-96ec-6100b535ef66">
          <g
             id="id-fa5b00a8-9eed-446b-ba8d-d5bc23ac56c5"
             style="fill:#000000;fill-opacity:1">
            <g
               transform="translate(148.712,134.765)"
               id="g1333">
              <path
                 id="id-6b044165-f250-4e1f-8316-b37137f7dbf9"
                 d="M 2.625,-4.359375 C 1.390625,-4.0625 0.421875,-2.765625 0.421875,-1.5625 0.421875,-0.59375 1.0625,0.125 2,0.125 c 1.15625,0 1.984375,-1.578125 1.984375,-2.953125 0,-0.90625 -0.390625,-1.40625 -0.734375,-1.84375 C 2.890625,-5.125 2.296875,-5.875 2.296875,-6.3125 c 0,-0.21875 0.203125,-0.453125 0.546875,-0.453125 0.3125,0 0.5,0.125 0.71875,0.265625 0.203125,0.125 0.390625,0.25 0.546875,0.25 C 4.359375,-6.25 4.5,-6.484375 4.5,-6.65625 4.5,-6.875 4.34375,-6.890625 3.984375,-6.984375 3.46875,-7.09375 3.328125,-7.09375 3.171875,-7.09375 c -0.78125,0 -1.140625,0.4375 -1.140625,1.03125 0,0.546875 0.296875,1.09375 0.59375,1.703125 z m 0.125,0.21875 c 0.25,0.46875 0.546875,1 0.546875,1.71875 0,0.65625 -0.375,2.328125 -1.296875,2.328125 -0.546875,0 -0.96875,-0.421875 -0.96875,-1.1875 0,-0.625 0.375,-2.5 1.71875,-2.859375 z m 0,0"
                 style="stroke:none" />
            </g>
          </g>
        </g>
      </g>
      <g
         transform="matrix(0.705556,0,0,0.705556,69.338629,175.6566)"
         ns21:version="1.0.1"
         ns21:texconverter="pdflatex"
         ns21:pdfconverter="inkscape"
         ns21:text="$\\beta$"
         ns21:preamble="C:\\Users\\claum\\AppData\\Roaming\\inkscape\\extensions\\textext\\default_packages.tex"
         ns21:scale="2.0"
         ns21:alignment="middle center"
         ns21:jacobian_sqrt="0.705556"
         id="g1398">
        <defs
           id="id-d4487718-23f1-46eb-be7e-8b0582b6a394">
          <g
             id="id-b36355dc-569d-4bc3-b850-330349630bc4">
            <symbol
               id="id-54c3c852-31c9-40d1-a376-9f9613a5eea0"
               overflow="visible">
              <path
                 id="id-763dca65-9041-4197-9990-77ac81a528b5"
                 d=""
                 style="stroke:none" />
            </symbol>
            <symbol
               id="id-cec81a21-7746-45fb-9ebb-183436bef242"
               overflow="visible">
              <path
                 id="id-2d3ef616-c1b5-4e41-9f9f-2ddd293ca333"
                 d="m 5.734375,-5.671875 c 0,-0.75 -0.546875,-1.359375 -1.359375,-1.359375 -0.578125,0 -0.859375,0.15625 -1.203125,0.40625 C 2.625,-6.21875 2.078125,-5.25 1.890625,-4.5 L 0.296875,1.828125 C 0.296875,1.875 0.34375,1.9375 0.421875,1.9375 0.5,1.9375 0.53125,1.90625 0.53125,1.890625 L 1.234375,-0.875 c 0.1875,0.609375 0.625,0.96875 1.359375,0.96875 C 3.3125,0.09375 4.0625,-0.25 4.515625,-0.6875 5,-1.140625 5.3125,-1.78125 5.3125,-2.515625 c 0,-0.71875 -0.375,-1.25 -0.734375,-1.484375 0.578125,-0.34375 1.15625,-0.953125 1.15625,-1.671875 z M 3.9375,-4.015625 c -0.125,0.046875 -0.234375,0.0625 -0.484375,0.0625 -0.140625,0 -0.328125,0.015625 -0.4375,-0.03125 0.03125,-0.109375 0.390625,-0.078125 0.5,-0.078125 0.203125,0 0.296875,0 0.421875,0.046875 z M 5.171875,-5.90625 c 0,0.703125 -0.375,1.421875 -0.890625,1.734375 C 4,-4.28125 3.8125,-4.296875 3.515625,-4.296875 c -0.21875,0 -0.78125,-0.015625 -0.78125,0.3125 0,0.28125 0.515625,0.25 0.6875,0.25 0.375,0 0.53125,0 0.828125,-0.125 0.375,0.359375 0.421875,0.671875 0.4375,1.125 0.015625,0.578125 -0.21875,1.328125 -0.5,1.71875 C 3.796875,-0.484375 3.125,-0.125 2.5625,-0.125 c -0.765625,0 -1.140625,-0.578125 -1.140625,-1.28125 0,-0.09375 0,-0.25 0.046875,-0.4375 L 2.109375,-4.359375 C 2.328125,-5.21875 3.046875,-6.8125 4.25,-6.8125 c 0.578125,0 0.921875,0.3125 0.921875,0.90625 z m 0,0"
                 style="stroke:none" />
            </symbol>
          </g>
        </defs>
        <g
           transform="translate(-149.009,-127.734)"
           id="id-6ac1afda-667d-4726-a263-ef67bb251e9d">
          <g
             id="id-49650ca7-ef9c-4df8-8111-aa427d03b3c1"
             style="fill:#000000;fill-opacity:1">
            <g
               transform="translate(148.712,134.765)"
               id="g1394">
              <path
                 id="id-d52964f7-d1f9-459f-a597-a8a8ecaf08af"
                 d="m 5.734375,-5.671875 c 0,-0.75 -0.546875,-1.359375 -1.359375,-1.359375 -0.578125,0 -0.859375,0.15625 -1.203125,0.40625 C 2.625,-6.21875 2.078125,-5.25 1.890625,-4.5 L 0.296875,1.828125 C 0.296875,1.875 0.34375,1.9375 0.421875,1.9375 0.5,1.9375 0.53125,1.90625 0.53125,1.890625 L 1.234375,-0.875 c 0.1875,0.609375 0.625,0.96875 1.359375,0.96875 C 3.3125,0.09375 4.0625,-0.25 4.515625,-0.6875 5,-1.140625 5.3125,-1.78125 5.3125,-2.515625 c 0,-0.71875 -0.375,-1.25 -0.734375,-1.484375 0.578125,-0.34375 1.15625,-0.953125 1.15625,-1.671875 z M 3.9375,-4.015625 c -0.125,0.046875 -0.234375,0.0625 -0.484375,0.0625 -0.140625,0 -0.328125,0.015625 -0.4375,-0.03125 0.03125,-0.109375 0.390625,-0.078125 0.5,-0.078125 0.203125,0 0.296875,0 0.421875,0.046875 z M 5.171875,-5.90625 c 0,0.703125 -0.375,1.421875 -0.890625,1.734375 C 4,-4.28125 3.8125,-4.296875 3.515625,-4.296875 c -0.21875,0 -0.78125,-0.015625 -0.78125,0.3125 0,0.28125 0.515625,0.25 0.6875,0.25 0.375,0 0.53125,0 0.828125,-0.125 0.375,0.359375 0.421875,0.671875 0.4375,1.125 0.015625,0.578125 -0.21875,1.328125 -0.5,1.71875 C 3.796875,-0.484375 3.125,-0.125 2.5625,-0.125 c -0.765625,0 -1.140625,-0.578125 -1.140625,-1.28125 0,-0.09375 0,-0.25 0.046875,-0.4375 L 2.109375,-4.359375 C 2.328125,-5.21875 3.046875,-6.8125 4.25,-6.8125 c 0.578125,0 0.921875,0.3125 0.921875,0.90625 z m 0,0"
                 style="stroke:none" />
            </g>
          </g>
        </g>
      </g>
      <g
         transform="matrix(0.705556,0,0,0.705556,44.935065,187.55599)"
         ns21:version="1.0.1"
         ns21:texconverter="pdflatex"
         ns21:pdfconverter="inkscape"
         ns21:text="$\\alpha$"
         ns21:preamble="C:\\Users\\claum\\AppData\\Roaming\\inkscape\\extensions\\textext\\default_packages.tex"
         ns21:scale="2.0"
         ns21:alignment="middle center"
         ns21:jacobian_sqrt="0.705556"
         id="g1470">
        <defs
           id="id-05641b11-3392-40a8-979a-9d81c572f828">
          <g
             id="id-92d0f4fe-e5d7-45fd-8e73-b68a89e94794">
            <symbol
               id="id-6ca8f00b-07d9-4227-901e-d660d3cce657"
               overflow="visible">
              <path
                 id="id-314d8df2-63d4-4a8b-9f8c-30695ac68d69"
                 d=""
                 style="stroke:none" />
            </symbol>
            <symbol
               id="id-62105ced-90fd-43e9-9a76-b7cbf4d00409"
               overflow="visible">
              <path
                 id="id-53c1f035-55b9-453b-9bc4-e86b095fba05"
                 d="m 4.75,-2.359375 c 0,-1.5625 -0.921875,-2.046875 -1.65625,-2.046875 -1.375,0 -2.6875,1.421875 -2.6875,2.828125 0,0.9375 0.59375,1.6875 1.625,1.6875 0.625,0 1.34375,-0.234375 2.09375,-0.84375 0.125,0.53125 0.453125,0.84375 0.90625,0.84375 0.53125,0 0.84375,-0.546875 0.84375,-0.703125 0,-0.078125 -0.0625,-0.109375 -0.125,-0.109375 -0.0625,0 -0.09375,0.03125 -0.125,0.109375 -0.1875,0.484375 -0.546875,0.484375 -0.5625,0.484375 -0.3125,0 -0.3125,-0.78125 -0.3125,-1.015625 0,-0.203125 0,-0.234375 0.109375,-0.34375 C 5.796875,-2.65625 6,-3.8125 6,-3.8125 6,-3.84375 5.984375,-3.921875 5.875,-3.921875 c -0.09375,0 -0.09375,0.03125 -0.140625,0.21875 -0.1875,0.625 -0.515625,1.375 -0.984375,1.96875 z m -0.65625,1.375 c -0.890625,0.765625 -1.65625,0.875 -2.046875,0.875 -0.59375,0 -0.90625,-0.453125 -0.90625,-1.09375 0,-0.484375 0.265625,-1.5625 0.578125,-2.0625 C 2.1875,-4 2.734375,-4.1875 3.078125,-4.1875 c 0.984375,0 0.984375,1.3125 0.984375,2.078125 0,0.375 0,0.953125 0.03125,1.125 z m 0,0"
                 style="stroke:none" />
            </symbol>
          </g>
        </defs>
        <g
           transform="translate(-149.118,-130.359)"
           id="id-23a0113d-f485-4338-a47f-b5a4b3b7a0c2">
          <g
             id="id-af6d97fd-03e2-4412-9883-9bd976c101be"
             style="fill:#000000;fill-opacity:1">
            <g
               transform="translate(148.712,134.765)"
               id="g1466">
              <path
                 id="id-391e7263-e1e0-4e93-90f0-aff76c4b496f"
                 d="m 4.75,-2.359375 c 0,-1.5625 -0.921875,-2.046875 -1.65625,-2.046875 -1.375,0 -2.6875,1.421875 -2.6875,2.828125 0,0.9375 0.59375,1.6875 1.625,1.6875 0.625,0 1.34375,-0.234375 2.09375,-0.84375 0.125,0.53125 0.453125,0.84375 0.90625,0.84375 0.53125,0 0.84375,-0.546875 0.84375,-0.703125 0,-0.078125 -0.0625,-0.109375 -0.125,-0.109375 -0.0625,0 -0.09375,0.03125 -0.125,0.109375 -0.1875,0.484375 -0.546875,0.484375 -0.5625,0.484375 -0.3125,0 -0.3125,-0.78125 -0.3125,-1.015625 0,-0.203125 0,-0.234375 0.109375,-0.34375 C 5.796875,-2.65625 6,-3.8125 6,-3.8125 6,-3.84375 5.984375,-3.921875 5.875,-3.921875 c -0.09375,0 -0.09375,0.03125 -0.140625,0.21875 -0.1875,0.625 -0.515625,1.375 -0.984375,1.96875 z m -0.65625,1.375 c -0.890625,0.765625 -1.65625,0.875 -2.046875,0.875 -0.59375,0 -0.90625,-0.453125 -0.90625,-1.09375 0,-0.484375 0.265625,-1.5625 0.578125,-2.0625 C 2.1875,-4 2.734375,-4.1875 3.078125,-4.1875 c 0.984375,0 0.984375,1.3125 0.984375,2.078125 0,0.375 0,0.953125 0.03125,1.125 z m 0,0"
                 style="stroke:none" />
            </g>
          </g>
        </g>
      </g>
      <path
         id="path1486"
         d="m 20,205 v 10"
         style="fill:none;stroke:#000000;stroke-width:0.264583px;stroke-linecap:butt;stroke-linejoin:miter;stroke-opacity:1" />
      <path
         id="path1488"
         d="M 20,210 H 160"
         style="fill:none;stroke:#000000;stroke-width:0.264583px;stroke-linecap:butt;stroke-linejoin:miter;stroke-opacity:1" />
      <path
         id="path1490"
         d="m 160,205 v 10"
         style="fill:none;stroke:#000000;stroke-width:0.264583px;stroke-linecap:butt;stroke-linejoin:miter;stroke-opacity:1" />
      <path
         sodipodi:open="true"
         d="M 132.05458,116.07282 A 140,140 0 0 1 160,200"
         sodipodi:arc-type="arc"
         sodipodi:end="6.2831851"
         sodipodi:start="5.6403342"
         sodipodi:ry="140"
         sodipodi:rx="140"
         sodipodi:cy="200"
         sodipodi:cx="20"
         sodipodi:type="arc"
         id="path1492"
         style="fill:none;stroke:#000000;stroke-width:0.264999;stroke-miterlimit:4;stroke-dasharray:0.529998, 0.264999, 0.1325, 0.264999;stroke-dashoffset:0" />
      <g
         transform="matrix(0.705556,0,0,0.705556,89.248925,212.51292)"
         ns21:version="1.0.1"
         ns21:texconverter="pdflatex"
         ns21:pdfconverter="inkscape"
         ns21:text="$r_m$"
         ns21:preamble="C:\\Users\\claum\\AppData\\Roaming\\inkscape\\extensions\\textext\\default_packages.tex"
         ns21:scale="2.0"
         ns21:alignment="middle center"
         ns21:jacobian_sqrt="0.705556"
         id="g1573">
        <defs
           id="id-81dbf403-6608-49c8-af3a-64addcc057c6">
          <g
             id="id-b8b0756d-9ba0-4dd8-af82-bd00a10013e9">
            <symbol
               id="id-63cd2814-9dd5-4b38-9566-f4984f1c5f45"
               overflow="visible">
              <path
                 id="id-061e2bdc-ec5f-4552-9201-8757549770f7"
                 d=""
                 style="stroke:none" />
            </symbol>
            <symbol
               id="id-2b604579-9bfc-4e29-9758-fcfa9ab69c46"
               overflow="visible">
              <path
                 id="id-c54bec93-e25a-4b1e-b141-d4357e93ff32"
                 d="m 0.875,-0.59375 c -0.03125,0.15625 -0.09375,0.390625 -0.09375,0.4375 0,0.171875 0.140625,0.265625 0.296875,0.265625 0.125,0 0.296875,-0.078125 0.375,-0.28125 C 1.46875,-0.203125 1.796875,-1.5625 1.84375,-1.75 c 0.078125,-0.328125 0.265625,-1.015625 0.3125,-1.296875 0.046875,-0.125 0.328125,-0.59375 0.5625,-0.8125 0.078125,-0.0625 0.375,-0.328125 0.796875,-0.328125 0.265625,0 0.40625,0.125 0.421875,0.125 -0.296875,0.046875 -0.515625,0.28125 -0.515625,0.546875 0,0.15625 0.109375,0.34375 0.375,0.34375 0.265625,0 0.546875,-0.234375 0.546875,-0.59375 0,-0.34375 -0.3125,-0.640625 -0.828125,-0.640625 C 2.875,-4.40625 2.4375,-3.921875 2.25,-3.640625 2.15625,-4.09375 1.796875,-4.40625 1.328125,-4.40625 0.875,-4.40625 0.6875,-4.015625 0.59375,-3.84375 0.421875,-3.5 0.296875,-2.90625 0.296875,-2.875 c 0,0.109375 0.09375,0.109375 0.109375,0.109375 0.109375,0 0.109375,-0.015625 0.171875,-0.234375 0.171875,-0.703125 0.375,-1.1875 0.734375,-1.1875 0.15625,0 0.296875,0.078125 0.296875,0.453125 0,0.21875 -0.03125,0.328125 -0.15625,0.84375 z m 0,0"
                 style="stroke:none" />
            </symbol>
            <symbol
               id="id-2db1d599-12cc-433d-abd4-6ae7d86baa27"
               overflow="visible">
              <path
                 id="id-7d36782e-cf24-4c31-a3a4-860d8c471e18"
                 d=""
                 style="stroke:none" />
            </symbol>
            <symbol
               id="id-7ae86142-4ebb-4a8c-a979-69b1addc3c17"
               overflow="visible">
              <path
                 id="id-dd9deb67-3c68-4f5f-8d01-3635afdd79d1"
                 d="m 3.03125,-0.5625 c -0.046875,0.140625 -0.109375,0.375 -0.109375,0.40625 0,0.15625 0.125,0.21875 0.234375,0.21875 0.140625,0 0.25,-0.078125 0.28125,-0.140625 0.03125,-0.0625 0.09375,-0.296875 0.125,-0.4375 0.03125,-0.125 0.109375,-0.453125 0.15625,-0.625 0.03125,-0.15625 0.078125,-0.3125 0.109375,-0.46875 0.078125,-0.296875 0.078125,-0.3125 0.21875,-0.53125 C 4.265625,-2.484375 4.625,-2.875 5.15625,-2.875 c 0.390625,0 0.421875,0.3125 0.421875,0.484375 0,0.421875 -0.296875,1.1875 -0.421875,1.484375 -0.0625,0.203125 -0.09375,0.265625 -0.09375,0.375 0,0.375 0.296875,0.59375 0.65625,0.59375 0.703125,0 1,-0.953125 1,-1.0625 0,-0.09375 -0.078125,-0.09375 -0.109375,-0.09375 -0.09375,0 -0.09375,0.046875 -0.125,0.125 C 6.328125,-0.40625 6.015625,-0.125 5.75,-0.125 c -0.15625,0 -0.1875,-0.09375 -0.1875,-0.25 0,-0.15625 0.046875,-0.25 0.171875,-0.5625 0.078125,-0.21875 0.359375,-0.953125 0.359375,-1.34375 0,-0.109375 0,-0.40625 -0.25,-0.609375 -0.125,-0.078125 -0.328125,-0.1875 -0.65625,-0.1875 -0.625,0 -1,0.421875 -1.234375,0.703125 C 3.90625,-2.96875 3.40625,-3.078125 3.046875,-3.078125 2.46875,-3.078125 2.078125,-2.71875 1.875,-2.4375 1.828125,-2.921875 1.421875,-3.078125 1.125,-3.078125 c -0.296875,0 -0.453125,0.21875 -0.546875,0.375 -0.15625,0.265625 -0.25,0.65625 -0.25,0.703125 0,0.078125 0.09375,0.078125 0.125,0.078125 0.09375,0 0.09375,-0.015625 0.140625,-0.203125 0.109375,-0.40625 0.25,-0.75 0.515625,-0.75 0.1875,0 0.234375,0.15625 0.234375,0.34375 0,0.125 -0.0625,0.390625 -0.125,0.578125 -0.046875,0.1875 -0.109375,0.46875 -0.140625,0.625 L 0.84375,-0.4375 c -0.015625,0.09375 -0.0625,0.265625 -0.0625,0.28125 0,0.15625 0.125,0.21875 0.234375,0.21875 0.125,0 0.234375,-0.078125 0.28125,-0.140625 0.03125,-0.0625 0.078125,-0.296875 0.125,-0.4375 0.03125,-0.125 0.109375,-0.453125 0.140625,-0.625 0.046875,-0.15625 0.09375,-0.3125 0.125,-0.46875 0.078125,-0.28125 0.09375,-0.34375 0.296875,-0.625 C 2.171875,-2.515625 2.5,-2.875 3.03125,-2.875 c 0.390625,0 0.40625,0.359375 0.40625,0.484375 0,0.171875 -0.015625,0.265625 -0.125,0.65625 z m 0,0"
                 style="stroke:none" />
            </symbol>
          </g>
        </defs>
        <g
           transform="translate(-149.009,-130.359)"
           id="id-ec8bd6f5-5492-4681-96ee-ebcd9dac1cf2">
          <g
             id="id-4c529b6c-25f3-4412-bb2e-e0ddb583ef31"
             style="fill:#000000;fill-opacity:1">
            <g
               transform="translate(148.712,134.765)"
               id="g1565">
              <path
                 id="id-bb17283c-e5bf-49e2-a111-ef2e0c149b11"
                 d="m 0.875,-0.59375 c -0.03125,0.15625 -0.09375,0.390625 -0.09375,0.4375 0,0.171875 0.140625,0.265625 0.296875,0.265625 0.125,0 0.296875,-0.078125 0.375,-0.28125 C 1.46875,-0.203125 1.796875,-1.5625 1.84375,-1.75 c 0.078125,-0.328125 0.265625,-1.015625 0.3125,-1.296875 0.046875,-0.125 0.328125,-0.59375 0.5625,-0.8125 0.078125,-0.0625 0.375,-0.328125 0.796875,-0.328125 0.265625,0 0.40625,0.125 0.421875,0.125 -0.296875,0.046875 -0.515625,0.28125 -0.515625,0.546875 0,0.15625 0.109375,0.34375 0.375,0.34375 0.265625,0 0.546875,-0.234375 0.546875,-0.59375 0,-0.34375 -0.3125,-0.640625 -0.828125,-0.640625 C 2.875,-4.40625 2.4375,-3.921875 2.25,-3.640625 2.15625,-4.09375 1.796875,-4.40625 1.328125,-4.40625 0.875,-4.40625 0.6875,-4.015625 0.59375,-3.84375 0.421875,-3.5 0.296875,-2.90625 0.296875,-2.875 c 0,0.109375 0.09375,0.109375 0.109375,0.109375 0.109375,0 0.109375,-0.015625 0.171875,-0.234375 0.171875,-0.703125 0.375,-1.1875 0.734375,-1.1875 0.15625,0 0.296875,0.078125 0.296875,0.453125 0,0.21875 -0.03125,0.328125 -0.15625,0.84375 z m 0,0"
                 style="stroke:none" />
            </g>
          </g>
          <g
             id="id-4df37ec6-c71e-471e-84e0-12e920964106"
             style="fill:#000000;fill-opacity:1">
            <g
               transform="translate(153.207,136.259)"
               id="g1569">
              <path
                 id="id-081046ee-5433-41fb-8ec9-1f9e61c67dfc"
                 d="m 3.03125,-0.5625 c -0.046875,0.140625 -0.109375,0.375 -0.109375,0.40625 0,0.15625 0.125,0.21875 0.234375,0.21875 0.140625,0 0.25,-0.078125 0.28125,-0.140625 0.03125,-0.0625 0.09375,-0.296875 0.125,-0.4375 0.03125,-0.125 0.109375,-0.453125 0.15625,-0.625 0.03125,-0.15625 0.078125,-0.3125 0.109375,-0.46875 0.078125,-0.296875 0.078125,-0.3125 0.21875,-0.53125 C 4.265625,-2.484375 4.625,-2.875 5.15625,-2.875 c 0.390625,0 0.421875,0.3125 0.421875,0.484375 0,0.421875 -0.296875,1.1875 -0.421875,1.484375 -0.0625,0.203125 -0.09375,0.265625 -0.09375,0.375 0,0.375 0.296875,0.59375 0.65625,0.59375 0.703125,0 1,-0.953125 1,-1.0625 0,-0.09375 -0.078125,-0.09375 -0.109375,-0.09375 -0.09375,0 -0.09375,0.046875 -0.125,0.125 C 6.328125,-0.40625 6.015625,-0.125 5.75,-0.125 c -0.15625,0 -0.1875,-0.09375 -0.1875,-0.25 0,-0.15625 0.046875,-0.25 0.171875,-0.5625 0.078125,-0.21875 0.359375,-0.953125 0.359375,-1.34375 0,-0.109375 0,-0.40625 -0.25,-0.609375 -0.125,-0.078125 -0.328125,-0.1875 -0.65625,-0.1875 -0.625,0 -1,0.421875 -1.234375,0.703125 C 3.90625,-2.96875 3.40625,-3.078125 3.046875,-3.078125 2.46875,-3.078125 2.078125,-2.71875 1.875,-2.4375 1.828125,-2.921875 1.421875,-3.078125 1.125,-3.078125 c -0.296875,0 -0.453125,0.21875 -0.546875,0.375 -0.15625,0.265625 -0.25,0.65625 -0.25,0.703125 0,0.078125 0.09375,0.078125 0.125,0.078125 0.09375,0 0.09375,-0.015625 0.140625,-0.203125 0.109375,-0.40625 0.25,-0.75 0.515625,-0.75 0.1875,0 0.234375,0.15625 0.234375,0.34375 0,0.125 -0.0625,0.390625 -0.125,0.578125 -0.046875,0.1875 -0.109375,0.46875 -0.140625,0.625 L 0.84375,-0.4375 c -0.015625,0.09375 -0.0625,0.265625 -0.0625,0.28125 0,0.15625 0.125,0.21875 0.234375,0.21875 0.125,0 0.234375,-0.078125 0.28125,-0.140625 0.03125,-0.0625 0.078125,-0.296875 0.125,-0.4375 0.03125,-0.125 0.109375,-0.453125 0.140625,-0.625 0.046875,-0.15625 0.09375,-0.3125 0.125,-0.46875 0.078125,-0.28125 0.09375,-0.34375 0.296875,-0.625 C 2.171875,-2.515625 2.5,-2.875 3.03125,-2.875 c 0.390625,0 0.40625,0.359375 0.40625,0.484375 0,0.171875 -0.015625,0.265625 -0.125,0.65625 z m 0,0"
                 style="stroke:none" />
            </g>
          </g>
        </g>
      </g>
      <path
         id="path1641"
         d="m 124,122 16,-12"
         style="fill:none;stroke:#000000;stroke-width:0.264583px;stroke-linecap:butt;stroke-linejoin:miter;stroke-opacity:1" />
      <path
         sodipodi:nodetypes="cc"
         id="path1643"
         d="M 73.999999,59.999998 66.8,78.8"
         style="fill:none;stroke:#000000;stroke-width:0.264583px;stroke-linecap:butt;stroke-linejoin:miter;stroke-opacity:1" />
      <g
         transform="matrix(1.05833,0,0,1.05833,155.00046,17.993577)"
         ns21:version="1.0.1"
         ns21:texconverter="pdflatex"
         ns21:pdfconverter="inkscape"
         ns21:text="\\begin{equation*}\n\\frac{\\delta}{r_m}\\ll1\n\\end{equation*}"
         ns21:preamble="C:\\Users\\claum\\AppData\\Roaming\\inkscape\\extensions\\textext\\default_packages.tex"
         ns21:scale="3.0"
         ns21:alignment="middle center"
         ns21:jacobian_sqrt="1.05833"
         id="g2000">
        <defs
           id="id-964f85ef-50ae-4c46-94ff-81982528995c">
          <g
             id="id-a93e1b78-1487-477f-8b05-cb0d2d87420d">
            <symbol
               id="id-2ec0471a-ec3d-4eca-a196-f165b335aa48"
               overflow="visible">
              <path
                 id="id-0512c55f-a058-4a48-a3ec-fb61668eb0fe"
                 d=""
                 style="stroke:none" />
            </symbol>
            <symbol
               id="id-fdd3f458-5680-425c-9698-105dd5a334c7"
               overflow="visible">
              <path
                 id="id-540632bf-1900-4a31-a404-e55aea1b126f"
                 d="M 2.625,-4.359375 C 1.390625,-4.0625 0.421875,-2.765625 0.421875,-1.5625 0.421875,-0.59375 1.0625,0.125 2,0.125 c 1.15625,0 1.984375,-1.578125 1.984375,-2.953125 0,-0.90625 -0.390625,-1.40625 -0.734375,-1.84375 C 2.890625,-5.125 2.296875,-5.875 2.296875,-6.3125 c 0,-0.21875 0.203125,-0.453125 0.546875,-0.453125 0.3125,0 0.5,0.125 0.71875,0.265625 0.203125,0.125 0.390625,0.25 0.546875,0.25 C 4.359375,-6.25 4.5,-6.484375 4.5,-6.65625 4.5,-6.875 4.34375,-6.890625 3.984375,-6.984375 3.46875,-7.09375 3.328125,-7.09375 3.171875,-7.09375 c -0.78125,0 -1.140625,0.4375 -1.140625,1.03125 0,0.546875 0.296875,1.09375 0.59375,1.703125 z m 0.125,0.21875 c 0.25,0.46875 0.546875,1 0.546875,1.71875 0,0.65625 -0.375,2.328125 -1.296875,2.328125 -0.546875,0 -0.96875,-0.421875 -0.96875,-1.1875 0,-0.625 0.375,-2.5 1.71875,-2.859375 z m 0,0"
                 style="stroke:none" />
            </symbol>
            <symbol
               id="id-46492048-2efb-4fc7-9980-5af98724e5c7"
               overflow="visible">
              <path
                 id="id-3575a02e-b973-4055-9268-580596b8c81b"
                 d="m 0.875,-0.59375 c -0.03125,0.15625 -0.09375,0.390625 -0.09375,0.4375 0,0.171875 0.140625,0.265625 0.296875,0.265625 0.125,0 0.296875,-0.078125 0.375,-0.28125 C 1.46875,-0.203125 1.796875,-1.5625 1.84375,-1.75 c 0.078125,-0.328125 0.265625,-1.015625 0.3125,-1.296875 0.046875,-0.125 0.328125,-0.59375 0.5625,-0.8125 0.078125,-0.0625 0.375,-0.328125 0.796875,-0.328125 0.265625,0 0.40625,0.125 0.421875,0.125 -0.296875,0.046875 -0.515625,0.28125 -0.515625,0.546875 0,0.15625 0.109375,0.34375 0.375,0.34375 0.265625,0 0.546875,-0.234375 0.546875,-0.59375 0,-0.34375 -0.3125,-0.640625 -0.828125,-0.640625 C 2.875,-4.40625 2.4375,-3.921875 2.25,-3.640625 2.15625,-4.09375 1.796875,-4.40625 1.328125,-4.40625 0.875,-4.40625 0.6875,-4.015625 0.59375,-3.84375 0.421875,-3.5 0.296875,-2.90625 0.296875,-2.875 c 0,0.109375 0.09375,0.109375 0.109375,0.109375 0.109375,0 0.109375,-0.015625 0.171875,-0.234375 0.171875,-0.703125 0.375,-1.1875 0.734375,-1.1875 0.15625,0 0.296875,0.078125 0.296875,0.453125 0,0.21875 -0.03125,0.328125 -0.15625,0.84375 z m 0,0"
                 style="stroke:none" />
            </symbol>
            <symbol
               id="id-a805ebc7-0e64-4e65-9747-295a3cbac4df"
               overflow="visible">
              <path
                 id="id-943a7176-18c9-4930-b458-f55f16e1c13c"
                 d=""
                 style="stroke:none" />
            </symbol>
            <symbol
               id="id-df3b914b-1de2-4bca-bed7-b6036db0ee25"
               overflow="visible">
              <path
                 id="id-b4610b2e-d6f1-4124-ab4d-125ef223078d"
                 d="m 3.03125,-0.5625 c -0.046875,0.140625 -0.109375,0.375 -0.109375,0.40625 0,0.15625 0.125,0.21875 0.234375,0.21875 0.140625,0 0.25,-0.078125 0.28125,-0.140625 0.03125,-0.0625 0.09375,-0.296875 0.125,-0.4375 0.03125,-0.125 0.109375,-0.453125 0.15625,-0.625 0.03125,-0.15625 0.078125,-0.3125 0.109375,-0.46875 0.078125,-0.296875 0.078125,-0.3125 0.21875,-0.53125 C 4.265625,-2.484375 4.625,-2.875 5.15625,-2.875 c 0.390625,0 0.421875,0.3125 0.421875,0.484375 0,0.421875 -0.296875,1.1875 -0.421875,1.484375 -0.0625,0.203125 -0.09375,0.265625 -0.09375,0.375 0,0.375 0.296875,0.59375 0.65625,0.59375 0.703125,0 1,-0.953125 1,-1.0625 0,-0.09375 -0.078125,-0.09375 -0.109375,-0.09375 -0.09375,0 -0.09375,0.046875 -0.125,0.125 C 6.328125,-0.40625 6.015625,-0.125 5.75,-0.125 c -0.15625,0 -0.1875,-0.09375 -0.1875,-0.25 0,-0.15625 0.046875,-0.25 0.171875,-0.5625 0.078125,-0.21875 0.359375,-0.953125 0.359375,-1.34375 0,-0.109375 0,-0.40625 -0.25,-0.609375 -0.125,-0.078125 -0.328125,-0.1875 -0.65625,-0.1875 -0.625,0 -1,0.421875 -1.234375,0.703125 C 3.90625,-2.96875 3.40625,-3.078125 3.046875,-3.078125 2.46875,-3.078125 2.078125,-2.71875 1.875,-2.4375 1.828125,-2.921875 1.421875,-3.078125 1.125,-3.078125 c -0.296875,0 -0.453125,0.21875 -0.546875,0.375 -0.15625,0.265625 -0.25,0.65625 -0.25,0.703125 0,0.078125 0.09375,0.078125 0.125,0.078125 0.09375,0 0.09375,-0.015625 0.140625,-0.203125 0.109375,-0.40625 0.25,-0.75 0.515625,-0.75 0.1875,0 0.234375,0.15625 0.234375,0.34375 0,0.125 -0.0625,0.390625 -0.125,0.578125 -0.046875,0.1875 -0.109375,0.46875 -0.140625,0.625 L 0.84375,-0.4375 c -0.015625,0.09375 -0.0625,0.265625 -0.0625,0.28125 0,0.15625 0.125,0.21875 0.234375,0.21875 0.125,0 0.234375,-0.078125 0.28125,-0.140625 0.03125,-0.0625 0.078125,-0.296875 0.125,-0.4375 0.03125,-0.125 0.109375,-0.453125 0.140625,-0.625 0.046875,-0.15625 0.09375,-0.3125 0.125,-0.46875 0.078125,-0.28125 0.09375,-0.34375 0.296875,-0.625 C 2.171875,-2.515625 2.5,-2.875 3.03125,-2.875 c 0.390625,0 0.40625,0.359375 0.40625,0.484375 0,0.171875 -0.015625,0.265625 -0.125,0.65625 z m 0,0"
                 style="stroke:none" />
            </symbol>
            <symbol
               id="id-82de487b-6e83-4385-983a-278670c3ce78"
               overflow="visible">
              <path
                 id="id-1739dcfa-1e34-4d1d-a406-6d562374d744"
                 d=""
                 style="stroke:none" />
            </symbol>
            <symbol
               id="id-b705843c-cc6a-4a03-abe4-80ea6d4f29f5"
               overflow="visible">
              <path
                 id="id-bc5cb6e1-febc-4dd3-87c8-919d07beb9b6"
                 d="M 6.171875,-5.21875 C 6.296875,-5.296875 6.375,-5.328125 6.375,-5.4375 c 0,-0.140625 -0.109375,-0.203125 -0.203125,-0.203125 -0.078125,0 -0.140625,0.03125 -0.1875,0.0625 l -5.25,2.859375 C 0.625,-2.640625 0.546875,-2.609375 0.546875,-2.5 c 0,0.125 0.078125,0.15625 0.1875,0.234375 l 5.25,2.859375 C 6.09375,0.65625 6.125,0.65625 6.171875,0.65625 6.296875,0.65625 6.375,0.5625 6.375,0.453125 6.375,0.34375 6.296875,0.3125 6.171875,0.234375 l -5,-2.734375 z m 3.046875,0 c 0.109375,-0.078125 0.1875,-0.109375 0.1875,-0.21875 0,-0.140625 -0.109375,-0.203125 -0.1875,-0.203125 -0.078125,0 -0.140625,0.03125 -0.1875,0.0625 l -5.25,2.859375 c -0.125,0.078125 -0.1875,0.109375 -0.1875,0.21875 0,0.125 0.0625,0.15625 0.1875,0.234375 L 9.015625,0.59375 c 0.125,0.0625 0.15625,0.0625 0.203125,0.0625 0.125,0 0.1875,-0.09375 0.1875,-0.203125 0,-0.109375 -0.078125,-0.140625 -0.1875,-0.21875 L 4.203125,-2.5 Z m 0,0"
                 style="stroke:none" />
            </symbol>
            <symbol
               id="id-e446c947-27d9-4ed9-8273-d6e15afa4af3"
               overflow="visible">
              <path
                 id="id-16af195c-40bb-460a-9e92-8cced7ce39c2"
                 d=""
                 style="stroke:none" />
            </symbol>
            <symbol
               id="id-3bb1cafa-7332-4e59-9aeb-0c8f7c2732b2"
               overflow="visible">
              <path
                 id="id-207a109a-4121-49c3-9327-d81ee57249e0"
                 d="m 2.9375,-6.375 c 0,-0.25 0,-0.265625 -0.234375,-0.265625 C 2.078125,-6 1.203125,-6 0.890625,-6 v 0.3125 c 0.203125,0 0.78125,0 1.296875,-0.265625 v 5.171875 c 0,0.359375 -0.03125,0.46875 -0.921875,0.46875 h -0.3125 V 0 c 0.34375,-0.03125 1.203125,-0.03125 1.609375,-0.03125 0.390625,0 1.265625,0 1.609375,0.03125 v -0.3125 h -0.3125 c -0.90625,0 -0.921875,-0.109375 -0.921875,-0.46875 z m 0,0"
                 style="stroke:none" />
            </symbol>
          </g>
        </defs>
        <g
           transform="translate(-289.352,-135.585)"
           id="id-946f3d73-456d-463c-bb5e-f16061062b8f">
          <g
             id="id-a8f5817b-0842-4464-b397-946565f69484"
             style="fill:#000000;fill-opacity:1">
            <g
               transform="translate(292.982,142.679)"
               id="g1979">
              <path
                 id="id-d3b98c4a-915c-4d45-8f0b-c5e8db490bed"
                 d="M 2.625,-4.359375 C 1.390625,-4.0625 0.421875,-2.765625 0.421875,-1.5625 0.421875,-0.59375 1.0625,0.125 2,0.125 c 1.15625,0 1.984375,-1.578125 1.984375,-2.953125 0,-0.90625 -0.390625,-1.40625 -0.734375,-1.84375 C 2.890625,-5.125 2.296875,-5.875 2.296875,-6.3125 c 0,-0.21875 0.203125,-0.453125 0.546875,-0.453125 0.3125,0 0.5,0.125 0.71875,0.265625 0.203125,0.125 0.390625,0.25 0.546875,0.25 C 4.359375,-6.25 4.5,-6.484375 4.5,-6.65625 4.5,-6.875 4.34375,-6.890625 3.984375,-6.984375 3.46875,-7.09375 3.328125,-7.09375 3.171875,-7.09375 c -0.78125,0 -1.140625,0.4375 -1.140625,1.03125 0,0.546875 0.296875,1.09375 0.59375,1.703125 z m 0.125,0.21875 c 0.25,0.46875 0.546875,1 0.546875,1.71875 0,0.65625 -0.375,2.328125 -1.296875,2.328125 -0.546875,0 -0.96875,-0.421875 -0.96875,-1.1875 0,-0.625 0.375,-2.5 1.71875,-2.859375 z m 0,0"
                 style="stroke:none" />
            </g>
          </g>
          <path
             id="id-0a4066da-79ea-4191-8595-cdcc2c59a40a"
             transform="matrix(1,0,0,-1,289.353,146.929)"
             d="M -0.0014375,-6.875e-4 H 12.061062"
             style="fill:none;stroke:#000000;stroke-width:0.398;stroke-linecap:butt;stroke-linejoin:miter;stroke-miterlimit:10;stroke-opacity:1" />
          <g
             id="id-e121ba8c-d40c-4579-b086-7abfb22152b5"
             style="fill:#000000;fill-opacity:1">
            <g
               transform="translate(289.353,156.253)"
               id="g1984">
              <path
                 id="id-b1d0a886-ffc3-4a79-aae7-76ed3837496a"
                 d="m 0.875,-0.59375 c -0.03125,0.15625 -0.09375,0.390625 -0.09375,0.4375 0,0.171875 0.140625,0.265625 0.296875,0.265625 0.125,0 0.296875,-0.078125 0.375,-0.28125 C 1.46875,-0.203125 1.796875,-1.5625 1.84375,-1.75 c 0.078125,-0.328125 0.265625,-1.015625 0.3125,-1.296875 0.046875,-0.125 0.328125,-0.59375 0.5625,-0.8125 0.078125,-0.0625 0.375,-0.328125 0.796875,-0.328125 0.265625,0 0.40625,0.125 0.421875,0.125 -0.296875,0.046875 -0.515625,0.28125 -0.515625,0.546875 0,0.15625 0.109375,0.34375 0.375,0.34375 0.265625,0 0.546875,-0.234375 0.546875,-0.59375 0,-0.34375 -0.3125,-0.640625 -0.828125,-0.640625 C 2.875,-4.40625 2.4375,-3.921875 2.25,-3.640625 2.15625,-4.09375 1.796875,-4.40625 1.328125,-4.40625 0.875,-4.40625 0.6875,-4.015625 0.59375,-3.84375 0.421875,-3.5 0.296875,-2.90625 0.296875,-2.875 c 0,0.109375 0.09375,0.109375 0.109375,0.109375 0.109375,0 0.109375,-0.015625 0.171875,-0.234375 0.171875,-0.703125 0.375,-1.1875 0.734375,-1.1875 0.15625,0 0.296875,0.078125 0.296875,0.453125 0,0.21875 -0.03125,0.328125 -0.15625,0.84375 z m 0,0"
                 style="stroke:none" />
            </g>
          </g>
          <g
             id="id-68f33420-a0c0-4320-8d2c-1dbb8bf877be"
             style="fill:#000000;fill-opacity:1">
            <g
               transform="translate(293.848,157.747)"
               id="g1988">
              <path
                 id="id-fecfaa4d-3a88-4fd7-a788-05e36c699f29"
                 d="m 3.03125,-0.5625 c -0.046875,0.140625 -0.109375,0.375 -0.109375,0.40625 0,0.15625 0.125,0.21875 0.234375,0.21875 0.140625,0 0.25,-0.078125 0.28125,-0.140625 0.03125,-0.0625 0.09375,-0.296875 0.125,-0.4375 0.03125,-0.125 0.109375,-0.453125 0.15625,-0.625 0.03125,-0.15625 0.078125,-0.3125 0.109375,-0.46875 0.078125,-0.296875 0.078125,-0.3125 0.21875,-0.53125 C 4.265625,-2.484375 4.625,-2.875 5.15625,-2.875 c 0.390625,0 0.421875,0.3125 0.421875,0.484375 0,0.421875 -0.296875,1.1875 -0.421875,1.484375 -0.0625,0.203125 -0.09375,0.265625 -0.09375,0.375 0,0.375 0.296875,0.59375 0.65625,0.59375 0.703125,0 1,-0.953125 1,-1.0625 0,-0.09375 -0.078125,-0.09375 -0.109375,-0.09375 -0.09375,0 -0.09375,0.046875 -0.125,0.125 C 6.328125,-0.40625 6.015625,-0.125 5.75,-0.125 c -0.15625,0 -0.1875,-0.09375 -0.1875,-0.25 0,-0.15625 0.046875,-0.25 0.171875,-0.5625 0.078125,-0.21875 0.359375,-0.953125 0.359375,-1.34375 0,-0.109375 0,-0.40625 -0.25,-0.609375 -0.125,-0.078125 -0.328125,-0.1875 -0.65625,-0.1875 -0.625,0 -1,0.421875 -1.234375,0.703125 C 3.90625,-2.96875 3.40625,-3.078125 3.046875,-3.078125 2.46875,-3.078125 2.078125,-2.71875 1.875,-2.4375 1.828125,-2.921875 1.421875,-3.078125 1.125,-3.078125 c -0.296875,0 -0.453125,0.21875 -0.546875,0.375 -0.15625,0.265625 -0.25,0.65625 -0.25,0.703125 0,0.078125 0.09375,0.078125 0.125,0.078125 0.09375,0 0.09375,-0.015625 0.140625,-0.203125 0.109375,-0.40625 0.25,-0.75 0.515625,-0.75 0.1875,0 0.234375,0.15625 0.234375,0.34375 0,0.125 -0.0625,0.390625 -0.125,0.578125 -0.046875,0.1875 -0.109375,0.46875 -0.140625,0.625 L 0.84375,-0.4375 c -0.015625,0.09375 -0.0625,0.265625 -0.0625,0.28125 0,0.15625 0.125,0.21875 0.234375,0.21875 0.125,0 0.234375,-0.078125 0.28125,-0.140625 0.03125,-0.0625 0.078125,-0.296875 0.125,-0.4375 0.03125,-0.125 0.109375,-0.453125 0.140625,-0.625 0.046875,-0.15625 0.09375,-0.3125 0.125,-0.46875 0.078125,-0.28125 0.09375,-0.34375 0.296875,-0.625 C 2.171875,-2.515625 2.5,-2.875 3.03125,-2.875 c 0.390625,0 0.40625,0.359375 0.40625,0.484375 0,0.171875 -0.015625,0.265625 -0.125,0.65625 z m 0,0"
                 style="stroke:none" />
            </g>
          </g>
          <g
             id="id-3bf9f039-fda2-4d4c-afc7-4a4d991a275e"
             style="fill:#000000;fill-opacity:1">
            <g
               transform="translate(305.379,149.419)"
               id="g1992">
              <path
                 id="id-69df10ef-eed2-400e-aa61-f4a2ec048953"
                 d="M 6.171875,-5.21875 C 6.296875,-5.296875 6.375,-5.328125 6.375,-5.4375 c 0,-0.140625 -0.109375,-0.203125 -0.203125,-0.203125 -0.078125,0 -0.140625,0.03125 -0.1875,0.0625 l -5.25,2.859375 C 0.625,-2.640625 0.546875,-2.609375 0.546875,-2.5 c 0,0.125 0.078125,0.15625 0.1875,0.234375 l 5.25,2.859375 C 6.09375,0.65625 6.125,0.65625 6.171875,0.65625 6.296875,0.65625 6.375,0.5625 6.375,0.453125 6.375,0.34375 6.296875,0.3125 6.171875,0.234375 l -5,-2.734375 z m 3.046875,0 c 0.109375,-0.078125 0.1875,-0.109375 0.1875,-0.21875 0,-0.140625 -0.109375,-0.203125 -0.1875,-0.203125 -0.078125,0 -0.140625,0.03125 -0.1875,0.0625 l -5.25,2.859375 c -0.125,0.078125 -0.1875,0.109375 -0.1875,0.21875 0,0.125 0.0625,0.15625 0.1875,0.234375 L 9.015625,0.59375 c 0.125,0.0625 0.15625,0.0625 0.203125,0.0625 0.125,0 0.1875,-0.09375 0.1875,-0.203125 0,-0.109375 -0.078125,-0.140625 -0.1875,-0.21875 L 4.203125,-2.5 Z m 0,0"
                 style="stroke:none" />
            </g>
          </g>
          <g
             id="id-05372204-f469-4a5e-931e-71c1b1ef491d"
             style="fill:#000000;fill-opacity:1">
            <g
               transform="translate(318.109,149.419)"
               id="g1996">
              <path
                 id="id-39ae6091-5c16-403a-b051-b5d2fba596f4"
                 d="m 2.9375,-6.375 c 0,-0.25 0,-0.265625 -0.234375,-0.265625 C 2.078125,-6 1.203125,-6 0.890625,-6 v 0.3125 c 0.203125,0 0.78125,0 1.296875,-0.265625 v 5.171875 c 0,0.359375 -0.03125,0.46875 -0.921875,0.46875 h -0.3125 V 0 c 0.34375,-0.03125 1.203125,-0.03125 1.609375,-0.03125 0.390625,0 1.265625,0 1.609375,0.03125 v -0.3125 h -0.3125 c -0.90625,0 -0.921875,-0.109375 -0.921875,-0.46875 z m 0,0"
                 style="stroke:none" />
            </g>
          </g>
        </g>
      </g>
      <g
         transform="matrix(1.05833,0,0,1.05833,116.10587,46.296242)"
         ns21:version="1.0.1"
         ns21:texconverter="pdflatex"
         ns21:pdfconverter="inkscape"
         ns21:text="$A = (\\beta-\\alpha)r_{m}\\delta$"
         ns21:preamble="C:\\Users\\claum\\AppData\\Roaming\\inkscape\\extensions\\textext\\default_packages.tex"
         ns21:scale="3.0"
         ns21:alignment="middle center"
         ns21:jacobian_sqrt="1.05833"
         id="g2236">
        <defs
           id="id-7bf0da82-227d-4fe8-b70a-31a09f3a2d0a">
          <g
             id="id-b0e57ba0-a4ef-4428-9c7b-6a0d5af46c4f">
            <symbol
               id="id-294d0d0d-202d-4127-a8c4-9bc2afadc405"
               overflow="visible">
              <path
                 id="id-4fd21b16-871e-4b1a-b368-2975cbd4a95a"
                 d=""
                 style="stroke:none" />
            </symbol>
            <symbol
               id="id-32bc841d-f7e7-4a51-a94c-c3edbbef5c25"
               overflow="visible">
              <path
                 id="id-44e4d0e0-78b8-4388-bfec-4e370c0a4dcd"
                 d="M 1.78125,-1.140625 C 1.390625,-0.484375 1,-0.34375 0.5625,-0.3125 0.4375,-0.296875 0.34375,-0.296875 0.34375,-0.109375 0.34375,-0.046875 0.40625,0 0.484375,0 0.75,0 1.0625,-0.03125 1.328125,-0.03125 c 0.34375,0 0.6875,0.03125 1,0.03125 0.0625,0 0.1875,0 0.1875,-0.1875 0,-0.109375 -0.078125,-0.125 -0.15625,-0.125 -0.21875,-0.015625 -0.46875,-0.09375 -0.46875,-0.34375 0,-0.125 0.0625,-0.234375 0.140625,-0.375 l 0.765625,-1.265625 h 2.5 c 0.015625,0.203125 0.15625,1.5625 0.15625,1.65625 0,0.296875 -0.515625,0.328125 -0.71875,0.328125 C 4.59375,-0.3125 4.5,-0.3125 4.5,-0.109375 4.5,0 4.609375,0 4.640625,0 5.046875,0 5.46875,-0.03125 5.875,-0.03125 6.125,-0.03125 6.765625,0 7.015625,0 7.0625,0 7.1875,0 7.1875,-0.203125 7.1875,-0.3125 7.09375,-0.3125 6.953125,-0.3125 6.34375,-0.3125 6.34375,-0.375 6.3125,-0.671875 l -0.609375,-6.21875 c -0.015625,-0.203125 -0.015625,-0.25 -0.1875,-0.25 -0.15625,0 -0.203125,0.078125 -0.265625,0.171875 z M 2.984375,-2.609375 4.9375,-5.90625 5.265625,-2.609375 Z m 0,0"
                 style="stroke:none" />
            </symbol>
            <symbol
               id="id-1a87b539-5e8f-44e1-b426-a91ca299dadb"
               overflow="visible">
              <path
                 id="id-df6b9dc6-2cd4-4791-8387-ecf9837c2be3"
                 d="m 5.734375,-5.671875 c 0,-0.75 -0.546875,-1.359375 -1.359375,-1.359375 -0.578125,0 -0.859375,0.15625 -1.203125,0.40625 C 2.625,-6.21875 2.078125,-5.25 1.890625,-4.5 L 0.296875,1.828125 C 0.296875,1.875 0.34375,1.9375 0.421875,1.9375 0.5,1.9375 0.53125,1.90625 0.53125,1.890625 L 1.234375,-0.875 c 0.1875,0.609375 0.625,0.96875 1.359375,0.96875 C 3.3125,0.09375 4.0625,-0.25 4.515625,-0.6875 5,-1.140625 5.3125,-1.78125 5.3125,-2.515625 c 0,-0.71875 -0.375,-1.25 -0.734375,-1.484375 0.578125,-0.34375 1.15625,-0.953125 1.15625,-1.671875 z M 3.9375,-4.015625 c -0.125,0.046875 -0.234375,0.0625 -0.484375,0.0625 -0.140625,0 -0.328125,0.015625 -0.4375,-0.03125 0.03125,-0.109375 0.390625,-0.078125 0.5,-0.078125 0.203125,0 0.296875,0 0.421875,0.046875 z M 5.171875,-5.90625 c 0,0.703125 -0.375,1.421875 -0.890625,1.734375 C 4,-4.28125 3.8125,-4.296875 3.515625,-4.296875 c -0.21875,0 -0.78125,-0.015625 -0.78125,0.3125 0,0.28125 0.515625,0.25 0.6875,0.25 0.375,0 0.53125,0 0.828125,-0.125 0.375,0.359375 0.421875,0.671875 0.4375,1.125 0.015625,0.578125 -0.21875,1.328125 -0.5,1.71875 C 3.796875,-0.484375 3.125,-0.125 2.5625,-0.125 c -0.765625,0 -1.140625,-0.578125 -1.140625,-1.28125 0,-0.09375 0,-0.25 0.046875,-0.4375 L 2.109375,-4.359375 C 2.328125,-5.21875 3.046875,-6.8125 4.25,-6.8125 c 0.578125,0 0.921875,0.3125 0.921875,0.90625 z m 0,0"
                 style="stroke:none" />
            </symbol>
            <symbol
               id="id-d95864dc-c207-4f42-890b-12562afa3493"
               overflow="visible">
              <path
                 id="id-e6544381-fdbc-4aec-8a75-1292962de500"
                 d="m 4.75,-2.359375 c 0,-1.5625 -0.921875,-2.046875 -1.65625,-2.046875 -1.375,0 -2.6875,1.421875 -2.6875,2.828125 0,0.9375 0.59375,1.6875 1.625,1.6875 0.625,0 1.34375,-0.234375 2.09375,-0.84375 0.125,0.53125 0.453125,0.84375 0.90625,0.84375 0.53125,0 0.84375,-0.546875 0.84375,-0.703125 0,-0.078125 -0.0625,-0.109375 -0.125,-0.109375 -0.0625,0 -0.09375,0.03125 -0.125,0.109375 -0.1875,0.484375 -0.546875,0.484375 -0.5625,0.484375 -0.3125,0 -0.3125,-0.78125 -0.3125,-1.015625 0,-0.203125 0,-0.234375 0.109375,-0.34375 C 5.796875,-2.65625 6,-3.8125 6,-3.8125 6,-3.84375 5.984375,-3.921875 5.875,-3.921875 c -0.09375,0 -0.09375,0.03125 -0.140625,0.21875 -0.1875,0.625 -0.515625,1.375 -0.984375,1.96875 z m -0.65625,1.375 c -0.890625,0.765625 -1.65625,0.875 -2.046875,0.875 -0.59375,0 -0.90625,-0.453125 -0.90625,-1.09375 0,-0.484375 0.265625,-1.5625 0.578125,-2.0625 C 2.1875,-4 2.734375,-4.1875 3.078125,-4.1875 c 0.984375,0 0.984375,1.3125 0.984375,2.078125 0,0.375 0,0.953125 0.03125,1.125 z m 0,0"
                 style="stroke:none" />
            </symbol>
            <symbol
               id="id-0fee9991-1a30-4759-874e-d8e0fe9904a4"
               overflow="visible">
              <path
                 id="id-70d72c4e-b93c-4fe3-a116-c32986a8cc94"
                 d="m 0.875,-0.59375 c -0.03125,0.15625 -0.09375,0.390625 -0.09375,0.4375 0,0.171875 0.140625,0.265625 0.296875,0.265625 0.125,0 0.296875,-0.078125 0.375,-0.28125 C 1.46875,-0.203125 1.796875,-1.5625 1.84375,-1.75 c 0.078125,-0.328125 0.265625,-1.015625 0.3125,-1.296875 0.046875,-0.125 0.328125,-0.59375 0.5625,-0.8125 0.078125,-0.0625 0.375,-0.328125 0.796875,-0.328125 0.265625,0 0.40625,0.125 0.421875,0.125 -0.296875,0.046875 -0.515625,0.28125 -0.515625,0.546875 0,0.15625 0.109375,0.34375 0.375,0.34375 0.265625,0 0.546875,-0.234375 0.546875,-0.59375 0,-0.34375 -0.3125,-0.640625 -0.828125,-0.640625 C 2.875,-4.40625 2.4375,-3.921875 2.25,-3.640625 2.15625,-4.09375 1.796875,-4.40625 1.328125,-4.40625 0.875,-4.40625 0.6875,-4.015625 0.59375,-3.84375 0.421875,-3.5 0.296875,-2.90625 0.296875,-2.875 c 0,0.109375 0.09375,0.109375 0.109375,0.109375 0.109375,0 0.109375,-0.015625 0.171875,-0.234375 0.171875,-0.703125 0.375,-1.1875 0.734375,-1.1875 0.15625,0 0.296875,0.078125 0.296875,0.453125 0,0.21875 -0.03125,0.328125 -0.15625,0.84375 z m 0,0"
                 style="stroke:none" />
            </symbol>
            <symbol
               id="id-a72e5fc7-dc3e-47b3-966b-f3c3ccba8594"
               overflow="visible">
              <path
                 id="id-c93b8bd6-0d02-4755-8ac4-4a954373abc8"
                 d="M 2.625,-4.359375 C 1.390625,-4.0625 0.421875,-2.765625 0.421875,-1.5625 0.421875,-0.59375 1.0625,0.125 2,0.125 c 1.15625,0 1.984375,-1.578125 1.984375,-2.953125 0,-0.90625 -0.390625,-1.40625 -0.734375,-1.84375 C 2.890625,-5.125 2.296875,-5.875 2.296875,-6.3125 c 0,-0.21875 0.203125,-0.453125 0.546875,-0.453125 0.3125,0 0.5,0.125 0.71875,0.265625 0.203125,0.125 0.390625,0.25 0.546875,0.25 C 4.359375,-6.25 4.5,-6.484375 4.5,-6.65625 4.5,-6.875 4.34375,-6.890625 3.984375,-6.984375 3.46875,-7.09375 3.328125,-7.09375 3.171875,-7.09375 c -0.78125,0 -1.140625,0.4375 -1.140625,1.03125 0,0.546875 0.296875,1.09375 0.59375,1.703125 z m 0.125,0.21875 c 0.25,0.46875 0.546875,1 0.546875,1.71875 0,0.65625 -0.375,2.328125 -1.296875,2.328125 -0.546875,0 -0.96875,-0.421875 -0.96875,-1.1875 0,-0.625 0.375,-2.5 1.71875,-2.859375 z m 0,0"
                 style="stroke:none" />
            </symbol>
            <symbol
               id="id-042dcc96-c0b7-438a-b44d-205f1ddf24fe"
               overflow="visible">
              <path
                 id="id-8222a323-3eb2-4b83-8064-2803830a6781"
                 d=""
                 style="stroke:none" />
            </symbol>
            <symbol
               id="id-ebed43cf-a876-4491-93ca-3f8f17fa7ccd"
               overflow="visible">
              <path
                 id="id-cbfe8dda-fbef-40b7-8260-8975ebd3d773"
                 d="m 6.84375,-3.265625 c 0.15625,0 0.34375,0 0.34375,-0.1875 C 7.1875,-3.65625 7,-3.65625 6.859375,-3.65625 h -5.96875 c -0.140625,0 -0.328125,0 -0.328125,0.203125 0,0.1875 0.1875,0.1875 0.328125,0.1875 z m 0.015625,1.9375 c 0.140625,0 0.328125,0 0.328125,-0.203125 0,-0.1875 -0.1875,-0.1875 -0.34375,-0.1875 H 0.890625 c -0.140625,0 -0.328125,0 -0.328125,0.1875 0,0.203125 0.1875,0.203125 0.328125,0.203125 z m 0,0"
                 style="stroke:none" />
            </symbol>
            <symbol
               id="id-1e062c6d-1207-4498-9204-98ee04f64c0b"
               overflow="visible">
              <path
                 id="id-7359c2d1-9899-4067-a8ed-3424c28dc307"
                 d="m 3.296875,2.390625 c 0,-0.03125 0,-0.046875 -0.171875,-0.21875 C 1.890625,0.921875 1.5625,-0.96875 1.5625,-2.5 c 0,-1.734375 0.375,-3.46875 1.609375,-4.703125 0.125,-0.125 0.125,-0.140625 0.125,-0.171875 0,-0.078125 -0.03125,-0.109375 -0.09375,-0.109375 -0.109375,0 -1,0.6875 -1.59375,1.953125 -0.5,1.09375 -0.625,2.203125 -0.625,3.03125 0,0.78125 0.109375,1.984375 0.65625,3.125 C 2.25,1.84375 3.09375,2.5 3.203125,2.5 c 0.0625,0 0.09375,-0.03125 0.09375,-0.109375 z m 0,0"
                 style="stroke:none" />
            </symbol>
            <symbol
               id="id-690e2b35-368b-422d-b970-e3fdcb2c02a4"
               overflow="visible">
              <path
                 id="id-a5f86213-6c1e-4867-b4ed-f4ed570e77bd"
                 d="m 2.875,-2.5 c 0,-0.765625 -0.109375,-1.96875 -0.65625,-3.109375 -0.59375,-1.21875 -1.453125,-1.875 -1.546875,-1.875 -0.0625,0 -0.109375,0.046875 -0.109375,0.109375 0,0.03125 0,0.046875 0.1875,0.234375 0.984375,0.984375 1.546875,2.5625 1.546875,4.640625 0,1.71875 -0.359375,3.46875 -1.59375,4.71875 C 0.5625,2.34375 0.5625,2.359375 0.5625,2.390625 0.5625,2.453125 0.609375,2.5 0.671875,2.5 0.765625,2.5 1.671875,1.8125 2.25,0.546875 2.765625,-0.546875 2.875,-1.65625 2.875,-2.5 Z m 0,0"
                 style="stroke:none" />
            </symbol>
            <symbol
               id="id-1dbd53c9-fba4-47dd-80fd-af82f6577a91"
               overflow="visible">
              <path
                 id="id-5e9af9d9-fcfd-4804-a8b3-2e91ac05f6e2"
                 d=""
                 style="stroke:none" />
            </symbol>
            <symbol
               id="id-3b3a4e3d-be5d-4c84-a0e2-d3cebc8964a8"
               overflow="visible">
              <path
                 id="id-f1be4d80-3c78-4440-b843-dac0936db04b"
                 d="m 6.5625,-2.296875 c 0.171875,0 0.359375,0 0.359375,-0.203125 0,-0.1875 -0.1875,-0.1875 -0.359375,-0.1875 H 1.171875 c -0.171875,0 -0.34375,0 -0.34375,0.1875 0,0.203125 0.171875,0.203125 0.34375,0.203125 z m 0,0"
                 style="stroke:none" />
            </symbol>
            <symbol
               id="id-4afa673e-fcb4-4f7a-8795-30f1682acfad"
               overflow="visible">
              <path
                 id="id-89a52a74-038b-4eef-81cd-beafb421d22b"
                 d=""
                 style="stroke:none" />
            </symbol>
            <symbol
               id="id-8306dbdd-3e7b-45c9-80fe-7237c0f7a9c6"
               overflow="visible">
              <path
                 id="id-9323a350-e1b0-453b-96da-d14bfd7b071e"
                 d="m 3.03125,-0.5625 c -0.046875,0.140625 -0.109375,0.375 -0.109375,0.40625 0,0.15625 0.125,0.21875 0.234375,0.21875 0.140625,0 0.25,-0.078125 0.28125,-0.140625 0.03125,-0.0625 0.09375,-0.296875 0.125,-0.4375 0.03125,-0.125 0.109375,-0.453125 0.15625,-0.625 0.03125,-0.15625 0.078125,-0.3125 0.109375,-0.46875 0.078125,-0.296875 0.078125,-0.3125 0.21875,-0.53125 C 4.265625,-2.484375 4.625,-2.875 5.15625,-2.875 c 0.390625,0 0.421875,0.3125 0.421875,0.484375 0,0.421875 -0.296875,1.1875 -0.421875,1.484375 -0.0625,0.203125 -0.09375,0.265625 -0.09375,0.375 0,0.375 0.296875,0.59375 0.65625,0.59375 0.703125,0 1,-0.953125 1,-1.0625 0,-0.09375 -0.078125,-0.09375 -0.109375,-0.09375 -0.09375,0 -0.09375,0.046875 -0.125,0.125 C 6.328125,-0.40625 6.015625,-0.125 5.75,-0.125 c -0.15625,0 -0.1875,-0.09375 -0.1875,-0.25 0,-0.15625 0.046875,-0.25 0.171875,-0.5625 0.078125,-0.21875 0.359375,-0.953125 0.359375,-1.34375 0,-0.109375 0,-0.40625 -0.25,-0.609375 -0.125,-0.078125 -0.328125,-0.1875 -0.65625,-0.1875 -0.625,0 -1,0.421875 -1.234375,0.703125 C 3.90625,-2.96875 3.40625,-3.078125 3.046875,-3.078125 2.46875,-3.078125 2.078125,-2.71875 1.875,-2.4375 1.828125,-2.921875 1.421875,-3.078125 1.125,-3.078125 c -0.296875,0 -0.453125,0.21875 -0.546875,0.375 -0.15625,0.265625 -0.25,0.65625 -0.25,0.703125 0,0.078125 0.09375,0.078125 0.125,0.078125 0.09375,0 0.09375,-0.015625 0.140625,-0.203125 0.109375,-0.40625 0.25,-0.75 0.515625,-0.75 0.1875,0 0.234375,0.15625 0.234375,0.34375 0,0.125 -0.0625,0.390625 -0.125,0.578125 -0.046875,0.1875 -0.109375,0.46875 -0.140625,0.625 L 0.84375,-0.4375 c -0.015625,0.09375 -0.0625,0.265625 -0.0625,0.28125 0,0.15625 0.125,0.21875 0.234375,0.21875 0.125,0 0.234375,-0.078125 0.28125,-0.140625 0.03125,-0.0625 0.078125,-0.296875 0.125,-0.4375 0.03125,-0.125 0.109375,-0.453125 0.140625,-0.625 0.046875,-0.15625 0.09375,-0.3125 0.125,-0.46875 0.078125,-0.28125 0.09375,-0.34375 0.296875,-0.625 C 2.171875,-2.515625 2.5,-2.875 3.03125,-2.875 c 0.390625,0 0.40625,0.359375 0.40625,0.484375 0,0.171875 -0.015625,0.265625 -0.125,0.65625 z m 0,0"
                 style="stroke:none" />
            </symbol>
          </g>
        </defs>
        <g
           transform="translate(-149.056,-127.281)"
           id="id-1bbbba20-2785-4fa8-a832-bab26522864a">
          <g
             id="id-5cac7f80-207a-4660-89eb-1e398ca137d0"
             style="fill:#000000;fill-opacity:1">
            <g
               transform="translate(148.712,134.765)"
               id="g2196">
              <path
                 id="id-df9a13e8-10b0-46c4-abb5-319e574092ad"
                 d="M 1.78125,-1.140625 C 1.390625,-0.484375 1,-0.34375 0.5625,-0.3125 0.4375,-0.296875 0.34375,-0.296875 0.34375,-0.109375 0.34375,-0.046875 0.40625,0 0.484375,0 0.75,0 1.0625,-0.03125 1.328125,-0.03125 c 0.34375,0 0.6875,0.03125 1,0.03125 0.0625,0 0.1875,0 0.1875,-0.1875 0,-0.109375 -0.078125,-0.125 -0.15625,-0.125 -0.21875,-0.015625 -0.46875,-0.09375 -0.46875,-0.34375 0,-0.125 0.0625,-0.234375 0.140625,-0.375 l 0.765625,-1.265625 h 2.5 c 0.015625,0.203125 0.15625,1.5625 0.15625,1.65625 0,0.296875 -0.515625,0.328125 -0.71875,0.328125 C 4.59375,-0.3125 4.5,-0.3125 4.5,-0.109375 4.5,0 4.609375,0 4.640625,0 5.046875,0 5.46875,-0.03125 5.875,-0.03125 6.125,-0.03125 6.765625,0 7.015625,0 7.0625,0 7.1875,0 7.1875,-0.203125 7.1875,-0.3125 7.09375,-0.3125 6.953125,-0.3125 6.34375,-0.3125 6.34375,-0.375 6.3125,-0.671875 l -0.609375,-6.21875 c -0.015625,-0.203125 -0.015625,-0.25 -0.1875,-0.25 -0.15625,0 -0.203125,0.078125 -0.265625,0.171875 z M 2.984375,-2.609375 4.9375,-5.90625 5.265625,-2.609375 Z m 0,0"
                 style="stroke:none" />
            </g>
          </g>
          <g
             id="id-15d290e3-f173-4205-8df9-6128477d0496"
             style="fill:#000000;fill-opacity:1">
            <g
               transform="translate(158.952,134.765)"
               id="g2200">
              <path
                 id="id-caba7d3c-5887-4ddf-879b-a11fd79e1847"
                 d="m 6.84375,-3.265625 c 0.15625,0 0.34375,0 0.34375,-0.1875 C 7.1875,-3.65625 7,-3.65625 6.859375,-3.65625 h -5.96875 c -0.140625,0 -0.328125,0 -0.328125,0.203125 0,0.1875 0.1875,0.1875 0.328125,0.1875 z m 0.015625,1.9375 c 0.140625,0 0.328125,0 0.328125,-0.203125 0,-0.1875 -0.1875,-0.1875 -0.34375,-0.1875 H 0.890625 c -0.140625,0 -0.328125,0 -0.328125,0.1875 0,0.203125 0.1875,0.203125 0.328125,0.203125 z m 0,0"
                 style="stroke:none" />
            </g>
          </g>
          <g
             id="id-fb65a77a-43db-45a0-8a0a-6e1b0c915418"
             style="fill:#000000;fill-opacity:1">
            <g
               transform="translate(169.471,134.765)"
               id="g2204">
              <path
                 id="id-5f9ec655-8b54-4469-8060-41e79d0b182e"
                 d="m 3.296875,2.390625 c 0,-0.03125 0,-0.046875 -0.171875,-0.21875 C 1.890625,0.921875 1.5625,-0.96875 1.5625,-2.5 c 0,-1.734375 0.375,-3.46875 1.609375,-4.703125 0.125,-0.125 0.125,-0.140625 0.125,-0.171875 0,-0.078125 -0.03125,-0.109375 -0.09375,-0.109375 -0.109375,0 -1,0.6875 -1.59375,1.953125 -0.5,1.09375 -0.625,2.203125 -0.625,3.03125 0,0.78125 0.109375,1.984375 0.65625,3.125 C 2.25,1.84375 3.09375,2.5 3.203125,2.5 c 0.0625,0 0.09375,-0.03125 0.09375,-0.109375 z m 0,0"
                 style="stroke:none" />
            </g>
          </g>
          <g
             id="id-91c4cccc-9540-4f11-9f14-e8b0d08a2d05"
             style="fill:#000000;fill-opacity:1">
            <g
               transform="translate(173.342,134.765)"
               id="g2208">
              <path
                 id="id-29a49f3b-25cd-4026-af52-afe4217d7b07"
                 d="m 5.734375,-5.671875 c 0,-0.75 -0.546875,-1.359375 -1.359375,-1.359375 -0.578125,0 -0.859375,0.15625 -1.203125,0.40625 C 2.625,-6.21875 2.078125,-5.25 1.890625,-4.5 L 0.296875,1.828125 C 0.296875,1.875 0.34375,1.9375 0.421875,1.9375 0.5,1.9375 0.53125,1.90625 0.53125,1.890625 L 1.234375,-0.875 c 0.1875,0.609375 0.625,0.96875 1.359375,0.96875 C 3.3125,0.09375 4.0625,-0.25 4.515625,-0.6875 5,-1.140625 5.3125,-1.78125 5.3125,-2.515625 c 0,-0.71875 -0.375,-1.25 -0.734375,-1.484375 0.578125,-0.34375 1.15625,-0.953125 1.15625,-1.671875 z M 3.9375,-4.015625 c -0.125,0.046875 -0.234375,0.0625 -0.484375,0.0625 -0.140625,0 -0.328125,0.015625 -0.4375,-0.03125 0.03125,-0.109375 0.390625,-0.078125 0.5,-0.078125 0.203125,0 0.296875,0 0.421875,0.046875 z M 5.171875,-5.90625 c 0,0.703125 -0.375,1.421875 -0.890625,1.734375 C 4,-4.28125 3.8125,-4.296875 3.515625,-4.296875 c -0.21875,0 -0.78125,-0.015625 -0.78125,0.3125 0,0.28125 0.515625,0.25 0.6875,0.25 0.375,0 0.53125,0 0.828125,-0.125 0.375,0.359375 0.421875,0.671875 0.4375,1.125 0.015625,0.578125 -0.21875,1.328125 -0.5,1.71875 C 3.796875,-0.484375 3.125,-0.125 2.5625,-0.125 c -0.765625,0 -1.140625,-0.578125 -1.140625,-1.28125 0,-0.09375 0,-0.25 0.046875,-0.4375 L 2.109375,-4.359375 C 2.328125,-5.21875 3.046875,-6.8125 4.25,-6.8125 c 0.578125,0 0.921875,0.3125 0.921875,0.90625 z m 0,0"
                 style="stroke:none" />
            </g>
          </g>
          <g
             id="id-ba4c6d64-5189-4653-9c06-62c5daf57e72"
             style="fill:#000000;fill-opacity:1">
            <g
               transform="translate(181.717,134.765)"
               id="g2212">
              <path
                 id="id-cc8facaa-e8f8-4c2c-a026-df7f34af0ff1"
                 d="m 6.5625,-2.296875 c 0.171875,0 0.359375,0 0.359375,-0.203125 0,-0.1875 -0.1875,-0.1875 -0.359375,-0.1875 H 1.171875 c -0.171875,0 -0.34375,0 -0.34375,0.1875 0,0.203125 0.171875,0.203125 0.34375,0.203125 z m 0,0"
                 style="stroke:none" />
            </g>
          </g>
          <g
             id="id-063bb42d-3083-4869-8539-8ec5da961b38"
             style="fill:#000000;fill-opacity:1">
            <g
               transform="translate(191.679,134.765)"
               id="g2216">
              <path
                 id="id-e5b9b338-bf48-4557-94e3-55497a1dc2a9"
                 d="m 4.75,-2.359375 c 0,-1.5625 -0.921875,-2.046875 -1.65625,-2.046875 -1.375,0 -2.6875,1.421875 -2.6875,2.828125 0,0.9375 0.59375,1.6875 1.625,1.6875 0.625,0 1.34375,-0.234375 2.09375,-0.84375 0.125,0.53125 0.453125,0.84375 0.90625,0.84375 0.53125,0 0.84375,-0.546875 0.84375,-0.703125 0,-0.078125 -0.0625,-0.109375 -0.125,-0.109375 -0.0625,0 -0.09375,0.03125 -0.125,0.109375 -0.1875,0.484375 -0.546875,0.484375 -0.5625,0.484375 -0.3125,0 -0.3125,-0.78125 -0.3125,-1.015625 0,-0.203125 0,-0.234375 0.109375,-0.34375 C 5.796875,-2.65625 6,-3.8125 6,-3.8125 6,-3.84375 5.984375,-3.921875 5.875,-3.921875 c -0.09375,0 -0.09375,0.03125 -0.140625,0.21875 -0.1875,0.625 -0.515625,1.375 -0.984375,1.96875 z m -0.65625,1.375 c -0.890625,0.765625 -1.65625,0.875 -2.046875,0.875 -0.59375,0 -0.90625,-0.453125 -0.90625,-1.09375 0,-0.484375 0.265625,-1.5625 0.578125,-2.0625 C 2.1875,-4 2.734375,-4.1875 3.078125,-4.1875 c 0.984375,0 0.984375,1.3125 0.984375,2.078125 0,0.375 0,0.953125 0.03125,1.125 z m 0,0"
                 style="stroke:none" />
            </g>
          </g>
          <g
             id="id-5bec8c89-56eb-4416-9226-690ed14b40c5"
             style="fill:#000000;fill-opacity:1">
            <g
               transform="translate(198.089,134.765)"
               id="g2220">
              <path
                 id="id-4236e5f1-0fe9-4589-aca3-2281916de47c"
                 d="m 2.875,-2.5 c 0,-0.765625 -0.109375,-1.96875 -0.65625,-3.109375 -0.59375,-1.21875 -1.453125,-1.875 -1.546875,-1.875 -0.0625,0 -0.109375,0.046875 -0.109375,0.109375 0,0.03125 0,0.046875 0.1875,0.234375 0.984375,0.984375 1.546875,2.5625 1.546875,4.640625 0,1.71875 -0.359375,3.46875 -1.59375,4.71875 C 0.5625,2.34375 0.5625,2.359375 0.5625,2.390625 0.5625,2.453125 0.609375,2.5 0.671875,2.5 0.765625,2.5 1.671875,1.8125 2.25,0.546875 2.765625,-0.546875 2.875,-1.65625 2.875,-2.5 Z m 0,0"
                 style="stroke:none" />
            </g>
          </g>
          <g
             id="id-50ad3077-f14a-4aee-bd59-c5b2b51c8b2a"
             style="fill:#000000;fill-opacity:1">
            <g
               transform="translate(201.964,134.765)"
               id="g2224">
              <path
                 id="id-74c8a3a5-a0f5-4f7d-ae85-b27027a5fd5c"
                 d="m 0.875,-0.59375 c -0.03125,0.15625 -0.09375,0.390625 -0.09375,0.4375 0,0.171875 0.140625,0.265625 0.296875,0.265625 0.125,0 0.296875,-0.078125 0.375,-0.28125 C 1.46875,-0.203125 1.796875,-1.5625 1.84375,-1.75 c 0.078125,-0.328125 0.265625,-1.015625 0.3125,-1.296875 0.046875,-0.125 0.328125,-0.59375 0.5625,-0.8125 0.078125,-0.0625 0.375,-0.328125 0.796875,-0.328125 0.265625,0 0.40625,0.125 0.421875,0.125 -0.296875,0.046875 -0.515625,0.28125 -0.515625,0.546875 0,0.15625 0.109375,0.34375 0.375,0.34375 0.265625,0 0.546875,-0.234375 0.546875,-0.59375 0,-0.34375 -0.3125,-0.640625 -0.828125,-0.640625 C 2.875,-4.40625 2.4375,-3.921875 2.25,-3.640625 2.15625,-4.09375 1.796875,-4.40625 1.328125,-4.40625 0.875,-4.40625 0.6875,-4.015625 0.59375,-3.84375 0.421875,-3.5 0.296875,-2.90625 0.296875,-2.875 c 0,0.109375 0.09375,0.109375 0.109375,0.109375 0.109375,0 0.109375,-0.015625 0.171875,-0.234375 0.171875,-0.703125 0.375,-1.1875 0.734375,-1.1875 0.15625,0 0.296875,0.078125 0.296875,0.453125 0,0.21875 -0.03125,0.328125 -0.15625,0.84375 z m 0,0"
                 style="stroke:none" />
            </g>
          </g>
          <g
             id="id-53041930-4443-494b-99ae-e1cce8e08203"
             style="fill:#000000;fill-opacity:1">
            <g
               transform="translate(206.459,136.259)"
               id="g2228">
              <path
                 id="id-ea74730e-0215-4b1c-a5ab-893f92a3dca3"
                 d="m 3.03125,-0.5625 c -0.046875,0.140625 -0.109375,0.375 -0.109375,0.40625 0,0.15625 0.125,0.21875 0.234375,0.21875 0.140625,0 0.25,-0.078125 0.28125,-0.140625 0.03125,-0.0625 0.09375,-0.296875 0.125,-0.4375 0.03125,-0.125 0.109375,-0.453125 0.15625,-0.625 0.03125,-0.15625 0.078125,-0.3125 0.109375,-0.46875 0.078125,-0.296875 0.078125,-0.3125 0.21875,-0.53125 C 4.265625,-2.484375 4.625,-2.875 5.15625,-2.875 c 0.390625,0 0.421875,0.3125 0.421875,0.484375 0,0.421875 -0.296875,1.1875 -0.421875,1.484375 -0.0625,0.203125 -0.09375,0.265625 -0.09375,0.375 0,0.375 0.296875,0.59375 0.65625,0.59375 0.703125,0 1,-0.953125 1,-1.0625 0,-0.09375 -0.078125,-0.09375 -0.109375,-0.09375 -0.09375,0 -0.09375,0.046875 -0.125,0.125 C 6.328125,-0.40625 6.015625,-0.125 5.75,-0.125 c -0.15625,0 -0.1875,-0.09375 -0.1875,-0.25 0,-0.15625 0.046875,-0.25 0.171875,-0.5625 0.078125,-0.21875 0.359375,-0.953125 0.359375,-1.34375 0,-0.109375 0,-0.40625 -0.25,-0.609375 -0.125,-0.078125 -0.328125,-0.1875 -0.65625,-0.1875 -0.625,0 -1,0.421875 -1.234375,0.703125 C 3.90625,-2.96875 3.40625,-3.078125 3.046875,-3.078125 2.46875,-3.078125 2.078125,-2.71875 1.875,-2.4375 1.828125,-2.921875 1.421875,-3.078125 1.125,-3.078125 c -0.296875,0 -0.453125,0.21875 -0.546875,0.375 -0.15625,0.265625 -0.25,0.65625 -0.25,0.703125 0,0.078125 0.09375,0.078125 0.125,0.078125 0.09375,0 0.09375,-0.015625 0.140625,-0.203125 0.109375,-0.40625 0.25,-0.75 0.515625,-0.75 0.1875,0 0.234375,0.15625 0.234375,0.34375 0,0.125 -0.0625,0.390625 -0.125,0.578125 -0.046875,0.1875 -0.109375,0.46875 -0.140625,0.625 L 0.84375,-0.4375 c -0.015625,0.09375 -0.0625,0.265625 -0.0625,0.28125 0,0.15625 0.125,0.21875 0.234375,0.21875 0.125,0 0.234375,-0.078125 0.28125,-0.140625 0.03125,-0.0625 0.078125,-0.296875 0.125,-0.4375 0.03125,-0.125 0.109375,-0.453125 0.140625,-0.625 0.046875,-0.15625 0.09375,-0.3125 0.125,-0.46875 0.078125,-0.28125 0.09375,-0.34375 0.296875,-0.625 C 2.171875,-2.515625 2.5,-2.875 3.03125,-2.875 c 0.390625,0 0.40625,0.359375 0.40625,0.484375 0,0.171875 -0.015625,0.265625 -0.125,0.65625 z m 0,0"
                 style="stroke:none" />
            </g>
          </g>
          <g
             id="id-62d4d93b-eb3d-4adc-9bf9-3b9731a5b374"
             style="fill:#000000;fill-opacity:1">
            <g
               transform="translate(214.026,134.765)"
               id="g2232">
              <path
                 id="id-3c736c84-54b5-41b3-a521-37021b876425"
                 d="M 2.625,-4.359375 C 1.390625,-4.0625 0.421875,-2.765625 0.421875,-1.5625 0.421875,-0.59375 1.0625,0.125 2,0.125 c 1.15625,0 1.984375,-1.578125 1.984375,-2.953125 0,-0.90625 -0.390625,-1.40625 -0.734375,-1.84375 C 2.890625,-5.125 2.296875,-5.875 2.296875,-6.3125 c 0,-0.21875 0.203125,-0.453125 0.546875,-0.453125 0.3125,0 0.5,0.125 0.71875,0.265625 0.203125,0.125 0.390625,0.25 0.546875,0.25 C 4.359375,-6.25 4.5,-6.484375 4.5,-6.65625 4.5,-6.875 4.34375,-6.890625 3.984375,-6.984375 3.46875,-7.09375 3.328125,-7.09375 3.171875,-7.09375 c -0.78125,0 -1.140625,0.4375 -1.140625,1.03125 0,0.546875 0.296875,1.09375 0.59375,1.703125 z m 0.125,0.21875 c 0.25,0.46875 0.546875,1 0.546875,1.71875 0,0.65625 -0.375,2.328125 -1.296875,2.328125 -0.546875,0 -0.96875,-0.421875 -0.96875,-1.1875 0,-0.625 0.375,-2.5 1.71875,-2.859375 z m 0,0"
                 style="stroke:none" />
            </g>
          </g>
        </g>
      </g>
      <g
         transform="matrix(0.705556,0,0,0.705556,196.86137,202.01901)"
         ns21:version="1.0.1"
         ns21:texconverter="pdflatex"
         ns21:pdfconverter="inkscape"
         ns21:text="$x$"
         ns21:preamble="C:\\Users\\claum\\AppData\\Roaming\\inkscape\\extensions\\textext\\default_packages.tex"
         ns21:scale="2.0"
         ns21:alignment="middle center"
         ns21:jacobian_sqrt="0.705556"
         id="g2720">
        <defs
           id="id-819156fc-37e7-4bd4-87a2-926944e273f3">
          <g
             id="id-a164e376-7a57-4577-977c-ba72063ebb2b">
            <symbol
               id="id-e1072219-e003-47f6-aca4-ac3acd84d069"
               overflow="visible">
              <path
                 id="id-a293ba98-7ce7-4fe5-a4f5-e04b0fc50123"
                 d=""
                 style="stroke:none" />
            </symbol>
            <symbol
               id="id-97a5264a-a180-4131-9bf3-de4b8c7ff592"
               overflow="visible">
              <path
                 id="id-c28a4ced-c315-4a6b-84ea-c35d7bca3b33"
                 d="M 3.328125,-3.015625 C 3.390625,-3.265625 3.625,-4.1875 4.3125,-4.1875 c 0.046875,0 0.296875,0 0.5,0.125 C 4.53125,-4 4.34375,-3.765625 4.34375,-3.515625 c 0,0.15625 0.109375,0.34375 0.375,0.34375 0.21875,0 0.53125,-0.171875 0.53125,-0.578125 0,-0.515625 -0.578125,-0.65625 -0.921875,-0.65625 -0.578125,0 -0.921875,0.53125 -1.046875,0.75 -0.25,-0.65625 -0.78125,-0.75 -1.078125,-0.75 -1.03125,0 -1.609375,1.28125 -1.609375,1.53125 0,0.109375 0.109375,0.109375 0.125,0.109375 0.078125,0 0.109375,-0.03125 0.125,-0.109375 0.34375,-1.0625 1,-1.3125 1.34375,-1.3125 0.1875,0 0.53125,0.09375 0.53125,0.671875 0,0.3125 -0.171875,0.96875 -0.53125,2.375 -0.15625,0.609375 -0.515625,1.03125 -0.953125,1.03125 -0.0625,0 -0.28125,0 -0.5,-0.125 0.25,-0.0625 0.46875,-0.265625 0.46875,-0.546875 0,-0.265625 -0.21875,-0.34375 -0.359375,-0.34375 -0.3125,0 -0.546875,0.25 -0.546875,0.578125 0,0.453125 0.484375,0.65625 0.921875,0.65625 0.671875,0 1.03125,-0.703125 1.046875,-0.75 0.125,0.359375 0.484375,0.75 1.078125,0.75 1.03125,0 1.59375,-1.28125 1.59375,-1.53125 0,-0.109375 -0.078125,-0.109375 -0.109375,-0.109375 -0.09375,0 -0.109375,0.046875 -0.140625,0.109375 -0.328125,1.078125 -1,1.3125 -1.3125,1.3125 -0.390625,0 -0.546875,-0.3125 -0.546875,-0.65625 0,-0.21875 0.046875,-0.4375 0.15625,-0.875 z m 0,0"
                 style="stroke:none" />
            </symbol>
          </g>
        </defs>
        <g
           transform="translate(-149.009,-130.359)"
           id="id-9a36cee0-e3a8-4887-8bce-9adfedc4888f">
          <g
             id="id-729bd235-7039-47c5-b8e5-93e35677179f"
             style="fill:#000000;fill-opacity:1">
            <g
               transform="translate(148.712,134.765)"
               id="g2716">
              <path
                 id="id-88c34881-83d5-425f-a903-5b469bda8b67"
                 d="M 3.328125,-3.015625 C 3.390625,-3.265625 3.625,-4.1875 4.3125,-4.1875 c 0.046875,0 0.296875,0 0.5,0.125 C 4.53125,-4 4.34375,-3.765625 4.34375,-3.515625 c 0,0.15625 0.109375,0.34375 0.375,0.34375 0.21875,0 0.53125,-0.171875 0.53125,-0.578125 0,-0.515625 -0.578125,-0.65625 -0.921875,-0.65625 -0.578125,0 -0.921875,0.53125 -1.046875,0.75 -0.25,-0.65625 -0.78125,-0.75 -1.078125,-0.75 -1.03125,0 -1.609375,1.28125 -1.609375,1.53125 0,0.109375 0.109375,0.109375 0.125,0.109375 0.078125,0 0.109375,-0.03125 0.125,-0.109375 0.34375,-1.0625 1,-1.3125 1.34375,-1.3125 0.1875,0 0.53125,0.09375 0.53125,0.671875 0,0.3125 -0.171875,0.96875 -0.53125,2.375 -0.15625,0.609375 -0.515625,1.03125 -0.953125,1.03125 -0.0625,0 -0.28125,0 -0.5,-0.125 0.25,-0.0625 0.46875,-0.265625 0.46875,-0.546875 0,-0.265625 -0.21875,-0.34375 -0.359375,-0.34375 -0.3125,0 -0.546875,0.25 -0.546875,0.578125 0,0.453125 0.484375,0.65625 0.921875,0.65625 0.671875,0 1.03125,-0.703125 1.046875,-0.75 0.125,0.359375 0.484375,0.75 1.078125,0.75 1.03125,0 1.59375,-1.28125 1.59375,-1.53125 0,-0.109375 -0.078125,-0.109375 -0.109375,-0.109375 -0.09375,0 -0.109375,0.046875 -0.140625,0.109375 -0.328125,1.078125 -1,1.3125 -1.3125,1.3125 -0.390625,0 -0.546875,-0.3125 -0.546875,-0.65625 0,-0.21875 0.046875,-0.4375 0.15625,-0.875 z m 0,0"
                 style="stroke:none" />
            </g>
          </g>
        </g>
      </g>
      <g
         transform="matrix(0.705554 0 0 0.705554 13.7754 21.2288)"
         ns21:version="1.0.1"
         ns21:texconverter="pdflatex"
         ns21:pdfconverter="inkscape"
         ns21:text="$y$"
         ns21:preamble="C:\\Users\\claum\\AppData\\Roaming\\inkscape\\extensions\\textext\\default_packages.tex"
         ns21:scale="2.0"
         ns21:alignment="middle center"
         ns21:jacobian_sqrt="0.705554"
         id="g2942">
        <defs
           id="id-3d878fd0-2a4a-46fa-880a-ea11c08c48fb">
          <g
             id="id-732d78d4-3ae7-44d5-aaf3-859aa0297bde">
            <symbol
               id="id-1565f02c-629a-47b9-8473-76177fa48cf2"
               overflow="visible">
              <path
                 id="id-081cd20f-cdf2-4d6a-83dc-1e2fc7e9c337"
                 d=""
                 style="stroke:none" />
            </symbol>
            <symbol
               id="id-616e6e2a-81e6-4331-9d7c-4db1d30a5f7a"
               overflow="visible">
              <path
                 id="id-07421782-f6ed-42cd-a1ec-0fa5c9ce5f9a"
                 d="m 4.84375,-3.796875 c 0.046875,-0.140625 0.046875,-0.15625 0.046875,-0.234375 0,-0.171875 -0.140625,-0.265625 -0.296875,-0.265625 -0.09375,0 -0.25,0.0625 -0.34375,0.203125 -0.015625,0.0625 -0.109375,0.359375 -0.140625,0.546875 -0.078125,0.25 -0.140625,0.53125 -0.203125,0.796875 l -0.453125,1.796875 c -0.03125,0.140625 -0.46875,0.84375 -1.125,0.84375 -0.5,0 -0.609375,-0.4375 -0.609375,-0.8125 C 1.71875,-1.375 1.890625,-2 2.21875,-2.875 2.375,-3.28125 2.421875,-3.390625 2.421875,-3.59375 c 0,-0.4375 -0.3125,-0.8125 -0.8125,-0.8125 -0.953125,0 -1.3125,1.453125 -1.3125,1.53125 0,0.109375 0.09375,0.109375 0.109375,0.109375 0.109375,0 0.109375,-0.03125 0.15625,-0.1875 0.28125,-0.9375 0.671875,-1.234375 1.015625,-1.234375 0.078125,0 0.25,0 0.25,0.3125 0,0.25 -0.109375,0.515625 -0.171875,0.703125 -0.40625,1.0625 -0.578125,1.625 -0.578125,2.09375 0,0.890625 0.625,1.1875 1.21875,1.1875 0.390625,0 0.71875,-0.171875 1,-0.453125 -0.125,0.515625 -0.25,1.015625 -0.640625,1.546875 -0.265625,0.328125 -0.640625,0.625 -1.09375,0.625 -0.140625,0 -0.59375,-0.03125 -0.765625,-0.421875 0.15625,0 0.296875,0 0.421875,-0.125 C 1.328125,1.203125 1.421875,1.0625 1.421875,0.875 1.421875,0.5625 1.15625,0.53125 1.0625,0.53125 0.828125,0.53125 0.5,0.6875 0.5,1.171875 c 0,0.5 0.4375,0.875 1.0625,0.875 1.015625,0 2.046875,-0.90625 2.328125,-2.03125 z m 0,0"
                 style="stroke:none" />
            </symbol>
          </g>
        </defs>
        <g
           transform="translate(-149.009, -130.359)"
           id="id-b0baa90a-5b56-418e-a31e-b34b83116509">
          <g
             id="id-c48e2792-b87c-4f5c-b5e9-54beee7dc3d5"
             style="fill:#000000;fill-opacity:1">
            <g
               transform="translate(148.712, 134.765)"
               id="g2938">
              <path
                 id="id-eddd3191-b3bf-4002-9b62-5b5ddaac6795"
                 d="m 4.84375,-3.796875 c 0.046875,-0.140625 0.046875,-0.15625 0.046875,-0.234375 0,-0.171875 -0.140625,-0.265625 -0.296875,-0.265625 -0.09375,0 -0.25,0.0625 -0.34375,0.203125 -0.015625,0.0625 -0.109375,0.359375 -0.140625,0.546875 -0.078125,0.25 -0.140625,0.53125 -0.203125,0.796875 l -0.453125,1.796875 c -0.03125,0.140625 -0.46875,0.84375 -1.125,0.84375 -0.5,0 -0.609375,-0.4375 -0.609375,-0.8125 C 1.71875,-1.375 1.890625,-2 2.21875,-2.875 2.375,-3.28125 2.421875,-3.390625 2.421875,-3.59375 c 0,-0.4375 -0.3125,-0.8125 -0.8125,-0.8125 -0.953125,0 -1.3125,1.453125 -1.3125,1.53125 0,0.109375 0.09375,0.109375 0.109375,0.109375 0.109375,0 0.109375,-0.03125 0.15625,-0.1875 0.28125,-0.9375 0.671875,-1.234375 1.015625,-1.234375 0.078125,0 0.25,0 0.25,0.3125 0,0.25 -0.109375,0.515625 -0.171875,0.703125 -0.40625,1.0625 -0.578125,1.625 -0.578125,2.09375 0,0.890625 0.625,1.1875 1.21875,1.1875 0.390625,0 0.71875,-0.171875 1,-0.453125 -0.125,0.515625 -0.25,1.015625 -0.640625,1.546875 -0.265625,0.328125 -0.640625,0.625 -1.09375,0.625 -0.140625,0 -0.59375,-0.03125 -0.765625,-0.421875 0.15625,0 0.296875,0 0.421875,-0.125 C 1.328125,1.203125 1.421875,1.0625 1.421875,0.875 1.421875,0.5625 1.15625,0.53125 1.0625,0.53125 0.828125,0.53125 0.5,0.6875 0.5,1.171875 c 0,0.5 0.4375,0.875 1.0625,0.875 1.015625,0 2.046875,-0.90625 2.328125,-2.03125 z m 0,0"
                 style="stroke:none" />
            </g>
          </g>
        </g>
      </g>
    </g>
    <path
       transform="scale(0.26458333)"
       id="path7241"
       d="m 467.6391,458.25744 c -0.58227,-0.88444 -4.02022,-5.3045 -7.63987,-9.82236 -44.03557,-54.96275 -99.16227,-99.74255 -161.82411,-131.45085 -15.05425,-7.61778 -41.10892,-19.26343 -43.09785,-19.26343 -0.4569,0 -0.83072,-0.43773 -0.83072,-0.97272 0,-0.86876 11.91045,-32.6044 12.43238,-33.12633 0.11699,-0.117 2.59079,0.77776 5.49731,1.98834 2.90653,1.21058 5.60602,2.3084 5.99888,2.43961 2.9078,0.97115 3.94936,1.23765 4.36403,1.11664 0.26194,-0.0764 0.70508,0.23127 0.98476,0.6838 0.27968,0.45253 1.0064,0.89585 1.61494,0.98517 0.60854,0.0893 1.54065,0.492 2.07135,0.89487 0.53071,0.40286 3.0542,1.61284 5.60778,2.68884 2.55357,1.076 7.12206,3.23954 10.1522,4.80787 3.03014,1.56832 6.22081,2.98851 7.09036,3.15597 0.86956,0.16746 1.76535,0.55327 1.99065,0.85735 0.22531,0.30408 2.82036,1.76153 5.76679,3.23878 2.94642,1.47724 8.25,4.29489 11.78571,6.26144 3.53571,1.96656 7.3125,3.92308 8.39286,4.34784 1.08035,0.42475 1.96428,1.06226 1.96428,1.41669 0,0.35442 0.43297,0.64441 0.96214,0.64441 0.52917,0 1.69566,0.63618 2.5922,1.41374 0.89653,0.77756 1.88254,1.2577 2.19114,1.06698 0.30859,-0.19072 0.66889,-0.0635 0.80066,0.28265 0.29581,0.77715 9.64099,6.52234 10.6093,6.52234 0.38594,0 0.70171,0.24634 0.70171,0.54741 0,0.30107 1.84821,1.64936 4.10714,2.99619 2.25893,1.34683 4.53484,2.87131 5.05758,3.38773 0.52275,0.51642 1.24596,0.75631 1.60715,0.53308 0.36118,-0.22322 0.6567,-0.0737 0.6567,0.33224 0,0.40595 0.98138,1.24559 2.18084,1.86585 1.19946,0.62027 2.78322,1.67317 3.51946,2.33977 0.73623,0.66661 2.98791,2.33702 5.00373,3.71202 2.01581,1.375 5.89498,4.1875 8.62037,6.25 2.7254,2.0625 5.11734,3.75 5.31543,3.75 0.1981,0 0.9826,0.5625 1.74337,1.25 0.76075,0.6875 2.12683,1.80537 3.03571,2.48416 1.99282,1.4883 14.18057,11.29729 15.31225,12.32365 0.44142,0.40035 2.346,2.01362 4.23239,3.58505 1.8864,1.57142 4.14158,3.5 5.01151,4.28571 0.86994,0.78571 4.08294,3.67857 7.13999,6.42857 3.05705,2.75 6.94964,6.44082 8.65019,8.20181 1.70054,1.76099 3.0919,2.9956 3.0919,2.74357 0,-0.69012 16.73664,16.61928 25.22641,26.08971 2.42905,2.70963 5.73313,6.32925 7.3424,8.04361 1.60927,1.71437 2.7977,3.24527 2.64095,3.40202 -0.15675,0.15675 0.5355,0.9304 1.53834,1.71922 1.00283,0.78883 1.82333,1.64365 1.82333,1.89961 0,0.25597 0.72321,1.19865 1.60714,2.09486 0.88393,0.89621 2.41072,2.70052 3.39286,4.00958 0.98214,1.30907 3.33067,4.33798 5.21895,6.73093 1.88828,2.39293 4.05792,5.14378 4.82143,6.11299 0.7635,0.9692 1.37578,2.0942 1.36062,2.5 -0.023,0.61617 -6.82397,5.86343 -25.72222,19.84588 l -2.65612,1.96522 z"
       style="opacity:0.055;fill:#000000;stroke:#000000;stroke-width:0.704612" />
    <path
       transform="scale(0.26458333)"
       id="path7243"
       d="m 496.12462,433.61365 c -1.4293,-1.86607 -3.1598,-4.12863 -3.84555,-5.02791 -0.68575,-0.89929 -1.88967,-2.42927 -2.67538,-3.39998 -0.78572,-0.9707 -2.07143,-2.60923 -2.85714,-3.64117 -0.78572,-1.03194 -2.4625,-2.95731 -3.7262,-4.27859 -1.26368,-1.3213 -2.12741,-2.40235 -1.91938,-2.40235 0.20802,0 -0.44015,-0.88392 -1.44038,-1.96428 -1.00024,-1.08036 -3.19008,-3.55332 -4.86632,-5.49547 -1.67625,-1.94214 -4.78822,-5.47785 -6.91549,-7.85714 -5.11518,-5.72113 -31.96856,-32.36626 -38.55355,-38.25453 -2.85571,-2.55358 -5.61872,-5.03753 -6.14002,-5.51989 -0.5213,-0.48236 -3.64929,-3.08527 -6.95108,-5.78424 -5.59543,-4.57384 -7.26472,-5.95317 -10.52395,-8.69587 -1.56213,-1.31458 -3.74021,-2.9846 -11.10649,-8.51583 -3.14286,-2.35992 -6.036,-4.54321 -6.42921,-4.85175 -3.87327,-3.03929 -5.96745,-4.3548 -6.33978,-3.98249 -0.24491,0.24492 -0.4453,0.0786 -0.4453,-0.36968 0,-0.44825 -1.04464,-1.35025 -2.32142,-2.00443 -1.27679,-0.6542 -2.48215,-1.42731 -2.67858,-1.71805 -0.60163,-0.89047 -12.057,-8.55777 -12.78577,-8.55777 -0.37599,0 -1.13608,-0.45247 -1.68908,-1.00548 -1.37485,-1.37483 -8.87653,-6.13738 -9.66725,-6.13738 -0.35162,0 -1.39523,-0.65561 -2.31913,-1.4569 -0.9239,-0.80129 -4.10701,-2.80896 -7.07358,-4.46147 -2.96656,-1.65251 -6.03661,-3.37995 -6.82233,-3.83876 -0.78571,-0.4588 -3.19643,-1.70863 -5.35714,-2.77739 -2.16072,-1.06876 -4.08929,-2.14107 -4.28572,-2.38291 -0.75307,-0.92718 -19.28627,-10.13656 -19.29665,-9.58874 -0.006,0.31768 -0.24708,0.22804 -0.53571,-0.19919 -0.49207,-0.72837 -12.5399,-6.71112 -14.09621,-6.99993 -0.39285,-0.0729 -2.48214,-0.9671 -4.64285,-1.98711 -7.21185,-3.40448 -10.97136,-5.01056 -12.35036,-5.27613 -0.75175,-0.14478 -1.8021,-0.62447 -2.33409,-1.06599 -0.53199,-0.44151 -1.30277,-0.5954 -1.71284,-0.34196 -0.41006,0.25343 -0.74557,0.10142 -0.74557,-0.33781 0,-0.43922 -0.24462,-0.64741 -0.54359,-0.46263 -0.29898,0.18477 -1.05391,-0.0373 -1.67763,-0.49356 -1.00447,-0.73476 -0.41909,-2.69242 5.12409,-17.1362 3.44196,-8.96868 6.4202,-16.46877 6.61831,-16.66689 1.21836,-1.21835 41.01967,16.74884 62.03833,28.00549 70.45284,37.73135 131.68293,89.57496 181.9247,154.03591 l 3.72725,4.7821 -14.30203,10.75361 c -7.86612,5.91448 -14.42784,10.7536 -14.5816,10.7536 -0.15378,0 -1.44902,-1.52678 -2.87833,-3.39286 z"
       style="opacity:0.055;fill:#000000;stroke:#000000;stroke-width:0.704612" />
  </g>
</svg>
