<?xml version="1.0" encoding="UTF-8" standalone="no"?>
<svg
   xmlns:ns2="http://www.iki.fi/pav/software/textext/"
   xmlns:dc="http://purl.org/dc/elements/1.1/"
   xmlns:cc="http://creativecommons.org/ns#"
   xmlns:rdf="http://www.w3.org/1999/02/22-rdf-syntax-ns#"
   xmlns:svg="http://www.w3.org/2000/svg"
   xmlns="http://www.w3.org/2000/svg"
   xmlns:sodipodi="http://sodipodi.sourceforge.net/DTD/sodipodi-0.dtd"
   xmlns:inkscape="http://www.inkscape.org/namespaces/inkscape"
   sodipodi:docname="Esercizio2_5_1.svg"
   inkscape:version="1.0 (4035a4fb49, 2020-05-01)"
   width="24.5cm"
   height="20.5cm"
   viewBox="0 0 245 204.99999"
   version="1.1"
   id="svg2673">
  <defs
     id="defs2667">
    <marker
       inkscape:stockid="Arrow1Lstart"
       orient="auto"
       refY="0"
       refX="0"
       id="marker3465"
       style="overflow:visible"
       inkscape:isstock="true">
      <path
         id="path3463"
         d="M 0,0 5,-5 -12.5,0 5,5 Z"
         style="fill:#000000;fill-opacity:1;fill-rule:evenodd;stroke:#000000;stroke-width:1pt;stroke-opacity:1"
         transform="matrix(0.8,0,0,0.8,10,0)" />
    </marker>
    <marker
       inkscape:collect="always"
       inkscape:isstock="true"
       style="overflow:visible"
       id="marker3419"
       refX="0"
       refY="0"
       orient="auto"
       inkscape:stockid="Arrow1Lstart">
      <path
         transform="matrix(0.8,0,0,0.8,10,0)"
         style="fill:#000000;fill-opacity:1;fill-rule:evenodd;stroke:#000000;stroke-width:1pt;stroke-opacity:1"
         d="M 0,0 5,-5 -12.5,0 5,5 Z"
         id="path3417" />
    </marker>
    <marker
       inkscape:isstock="true"
       style="overflow:visible"
       id="Arrow1Lstart"
       refX="0"
       refY="0"
       orient="auto"
       inkscape:stockid="Arrow1Lstart">
      <path
         transform="matrix(0.8,0,0,0.8,10,0)"
         style="fill:#000000;fill-opacity:1;fill-rule:evenodd;stroke:#000000;stroke-width:1pt;stroke-opacity:1"
         d="M 0,0 5,-5 -12.5,0 5,5 Z"
         id="path898" />
    </marker>
    <marker
       inkscape:isstock="true"
       style="overflow:visible"
       id="marker3353"
       refX="0"
       refY="0"
       orient="auto"
       inkscape:stockid="Arrow1Lend">
      <path
         transform="matrix(-0.8,0,0,-0.8,-10,0)"
         style="fill:#000000;fill-opacity:1;fill-rule:evenodd;stroke:#000000;stroke-width:1pt;stroke-opacity:1"
         d="M 0,0 5,-5 -12.5,0 5,5 Z"
         id="path3351" />
    </marker>
    <marker
       inkscape:collect="always"
       inkscape:stockid="Arrow1Lend"
       orient="auto"
       refY="0"
       refX="0"
       id="marker3258"
       style="overflow:visible"
       inkscape:isstock="true">
      <path
         id="path3256"
         d="M 0,0 5,-5 -12.5,0 5,5 Z"
         style="fill:#000000;fill-opacity:1;fill-rule:evenodd;stroke:#000000;stroke-width:1pt;stroke-opacity:1"
         transform="matrix(-0.8,0,0,-0.8,-10,0)" />
    </marker>
    <marker
       inkscape:collect="always"
       inkscape:isstock="true"
       style="overflow:visible"
       id="Arrow1Lend"
       refX="0"
       refY="0"
       orient="auto"
       inkscape:stockid="Arrow1Lend">
      <path
         transform="matrix(-0.8,0,0,-0.8,-10,0)"
         style="fill:#000000;fill-opacity:1;fill-rule:evenodd;stroke:#000000;stroke-width:1pt;stroke-opacity:1"
         d="M 0,0 5,-5 -12.5,0 5,5 Z"
         id="path901" />
    </marker>
  </defs>
  <sodipodi:namedview
     inkscape:window-maximized="0"
     inkscape:window-y="0"
     inkscape:window-x="0"
     inkscape:window-height="738"
     inkscape:window-width="1366"
     units="cm"
     showgrid="true"
     inkscape:document-rotation="0"
     inkscape:current-layer="layer1"
     inkscape:document-units="mm"
     inkscape:cy="375.66999"
     inkscape:cx="552.96468"
     inkscape:zoom="0.7"
     inkscape:pageshadow="2"
     inkscape:pageopacity="0.0"
     borderopacity="1.0"
     bordercolor="#666666"
     pagecolor="#ffffff"
     id="base">
    <inkscape:grid
       units="cm"
       id="grid2675"
       type="xygrid" />
  </sodipodi:namedview>
  <metadata
     id="metadata2670">
    <rdf:RDF>
      <cc:Work
         rdf:about="">
        <dc:format>image/svg+xml</dc:format>
        <dc:type
           rdf:resource="http://purl.org/dc/dcmitype/StillImage" />
        <dc:title></dc:title>
      </cc:Work>
    </rdf:RDF>
  </metadata>
  <g
     id="layer1"
     inkscape:groupmode="layer"
     inkscape:label="Livello 1">
    <path
       d="M 235,-171.00001 A 145,145 0 0 1 161.17472,-44.75317 145,145 0 0 1 14.944427,-47.019629"
       sodipodi:arc-type="arc"
       sodipodi:open="true"
       sodipodi:end="2.1148689"
       sodipodi:start="0.00057062805"
       sodipodi:ry="145"
       sodipodi:rx="145"
       sodipodi:cy="-171.08275"
       sodipodi:cx="90.000023"
       sodipodi:type="arc"
       transform="scale(1,-1)"
       id="path3311"
       style="fill:none;stroke:#000000;stroke-width:0.264583;stroke-miterlimit:4;stroke-dasharray:1.05833, 1.05833;stroke-dashoffset:0" />
    <g
       transform="translate(-20,-9)"
       id="g4083">
      <path
         style="fill:none;stroke:#000000;stroke-width:0.265;stroke-linecap:butt;stroke-linejoin:miter;stroke-miterlimit:4;stroke-dasharray:none;stroke-opacity:1;marker-end:url(#Arrow1Lend)"
         d="M 20,180 H 263"
         id="path2677"
         sodipodi:nodetypes="cc" />
      <path
         id="path3254"
         d="M 110,190 V 10"
         style="fill:none;stroke:#000000;stroke-width:0.265;stroke-linecap:butt;stroke-linejoin:miter;stroke-miterlimit:4;stroke-dasharray:none;stroke-opacity:1;marker-end:url(#marker3258)" />
      <path
         style="fill:none;stroke:#000000;stroke-width:0.264583;stroke-linecap:butt;stroke-linejoin:miter;stroke-miterlimit:4;stroke-dasharray:0.793749, 0.793749;stroke-dashoffset:0;stroke-opacity:1"
         d="M 110,180 38.999998,47.999999"
         id="path3302" />
      <path
         style="fill:none;stroke:#000000;stroke-width:0.264583;stroke-linecap:butt;stroke-linejoin:miter;stroke-miterlimit:4;stroke-dasharray:1.05833, 1.05833;stroke-dashoffset:0;stroke-opacity:1"
         d="M 110,180 181,47.999999"
         id="path3306" />
      <path
         style="fill:none;stroke:#000000;stroke-width:0.264583px;stroke-linecap:butt;stroke-linejoin:miter;stroke-opacity:1"
         d="M 38.999998,47.999999 43.8,56.9"
         id="path3313"
         sodipodi:nodetypes="cc" />
      <path
         style="fill:none;stroke:#000000;stroke-width:0.264583px;stroke-linecap:butt;stroke-linejoin:miter;stroke-opacity:1"
         d="m 181.1,47.9 -4.9,8.9"
         id="path3315"
         sodipodi:nodetypes="cc" />
      <path
         style="opacity:0.157434;fill:#000000;fill-opacity:1;stroke:#000000;stroke-width:1.01015;stroke-miterlimit:4;stroke-dasharray:4.04061, 4.04061;stroke-dashoffset:0"
         d="m 657.45429,208.32889 c -46.69998,-23.75534 -100.15351,-41.52233 -151.0178,-50.1956 -24.01811,-4.09552 -40.83279,-5.91993 -67.42768,-7.31599 l -22.4759,-1.17983 v -8.32636 c 0,-5.71591 0.39588,-8.48609 1.26269,-8.83586 1.01016,-0.40761 1.01016,-0.52546 0,-0.58926 -0.90486,-0.0571 -1.26269,-2.51297 -1.26269,-8.66604 v -8.5863 h 10.02117 c 22.58847,0 59.47933,3.62935 88.4447,8.70126 50.94186,8.92004 104.16703,26.49548 151.3859,49.98902 l 16.50739,8.21318 -8.06945,14.78305 c -4.43819,8.13068 -8.34342,15.08375 -8.67828,15.45127 -0.33485,0.36751 -4.24537,-1.18163 -8.69005,-3.44254 z m 14.39974,-13.13557 c -0.22872,-0.69448 -1.51666,-1.3897 -2.86211,-1.54493 -2.36895,-0.27331 -2.38428,-0.23341 -0.48542,1.26269 2.37438,1.87075 3.9134,2.00051 3.34753,0.28224 z m -6.82359,-3.68 c 0,-0.91132 -2.38055,-2.12838 -4.16305,-2.12838 -1.43327,0 1.42353,2.94709 2.90036,2.99203 0.69448,0.0211 1.26269,-0.36751 1.26269,-0.86365 z m -7.07107,-3.10299 c 0,-1.2977 -4.0318,-3.41153 -4.88315,-2.56018 -0.36823,0.36823 0.21215,1.3142 1.28973,2.10215 2.28102,1.66792 3.59342,1.8352 3.59342,0.45803 z m -7.07107,-3.95834 c 0,-0.93108 -4.16142,-2.35402 -4.85527,-1.66018 -0.21878,0.21879 -0.0982,0.88261 0.26805,1.47516 0.80122,1.29641 4.58722,1.44911 4.58722,0.18502 z m -7.07107,-3.0802 c 0,-1.17865 -3.96186,-2.50383 -4.84509,-1.62061 -0.75707,0.75707 1.72865,2.52452 3.5824,2.54722 0.69448,0.008 1.26269,-0.40846 1.26269,-0.92661 z m -8.08122,-3.13023 c 0,-1.30202 -2.87799,-2.47778 -3.80238,-1.5534 -0.37664,0.37664 -0.0161,1.10769 0.80118,1.62456 1.9554,1.23664 3.0012,1.21184 3.0012,-0.0712 z m -7.07106,-2.96321 c 0,-0.53604 -0.88155,-1.44641 -1.959,-2.02304 -2.52056,-1.34896 -3.80629,0.46193 -1.34524,1.89469 2.2727,1.32311 3.30424,1.36318 3.30424,0.12835 z m -7.31855,-3.31854 c -0.50147,-1.52268 -4.80328,-2.33046 -4.80328,-0.90194 0,0.88237 1.69157,1.67359 4.37732,2.04745 0.46299,0.0644 0.65467,-0.45103 0.42596,-1.14551 z m -7.83374,-2.80962 c 0,-1.30203 -2.878,-2.47778 -3.80239,-1.5534 -0.37663,0.37664 -0.0161,1.10769 0.80118,1.62456 1.95541,1.23663 3.00121,1.21184 3.00121,-0.0712 z m -7.07107,-2.93069 c 0,-1.17865 -3.96187,-2.50383 -4.8451,-1.62061 -0.75706,0.75707 1.72866,2.52452 3.58241,2.54723 0.69448,0.008 1.26269,-0.40847 1.26269,-0.92662 z m -8.52683,-3.63573 c -2.19158,-1.65762 -3.595,-1.90798 -3.595,-0.64131 0,1.41396 1.2424,2.19026 3.45136,2.15654 2.06763,-0.0316 2.07014,-0.0581 0.14364,-1.51523 z m -6.87294,-1.73564 c -0.50147,-1.52268 -4.80328,-2.33045 -4.80328,-0.90194 0,0.88237 1.69157,1.67359 4.37732,2.04745 0.463,0.0644 0.65467,-0.45103 0.42596,-1.14551 z m -6.82359,-2.66016 c 0,-0.49081 -1.13642,-1.10963 -2.52538,-1.37515 -2.44633,-0.46764 -3.23491,0.21114 -1.85194,1.59411 0.98997,0.98997 4.37732,0.82053 4.37732,-0.21896 z m -8.08122,-2.06999 c 0,-1.17865 -3.96186,-2.50384 -4.84509,-1.62061 -0.75707,0.75707 1.72865,2.52451 3.5824,2.54722 0.69448,0.008 1.26269,-0.40847 1.26269,-0.92661 z m -8.32869,-2.34092 c -0.50147,-1.52267 -4.80329,-2.33045 -4.80329,-0.90194 0,0.88238 1.69157,1.67359 4.37733,2.04745 0.46299,0.0644 0.65467,-0.45103 0.42596,-1.14551 z m -7.07107,-2.0203 c -0.50147,-1.52268 -4.80329,-2.33046 -4.80329,-0.90194 0,0.88237 1.69157,1.67359 4.37733,2.04745 0.46299,0.0645 0.65467,-0.45103 0.42596,-1.14551 z m -8.29728,-2.71072 c -0.81808,-1.32366 -4.58723,-1.43661 -4.58723,-0.13746 0,0.51694 1.02278,1.10325 2.27285,1.30291 2.76387,0.44144 3.17846,0.23267 2.31438,-1.16545 z m -8.37474,-2.23847 c -0.64991,-0.6499 -1.90498,-0.79781 -2.96311,-0.3492 -1.62358,0.68833 -1.54389,0.85989 0.68971,1.4848 2.99415,0.83769 3.82945,0.42045 2.2734,-1.1356 z m -6.31401,-0.79112 c 0,-1.17865 -3.96187,-2.50383 -4.8451,-1.62061 -0.75707,0.75707 1.72866,2.52452 3.58241,2.54722 0.69448,0.008 1.26269,-0.40846 1.26269,-0.92661 z M 529.67,144.04584 c 0,-0.49082 -1.13642,-1.10964 -2.52538,-1.37515 -2.44634,-0.46765 -3.23492,0.21113 -1.85195,1.5941 0.98997,0.98998 4.37733,0.82054 4.37733,-0.21895 z m -8.54476,-2.07086 c -0.81807,-1.32366 -4.58723,-1.43661 -4.58723,-0.13747 0,0.51695 1.02278,1.10325 2.27285,1.30291 2.76388,0.44144 3.17846,0.23267 2.31438,-1.16544 z m -7.61768,-1.07736 c 0,-0.55559 -1.16325,-1.01015 -2.585,-1.01015 -1.4661,0 -2.31477,0.43723 -1.96069,1.01015 0.34337,0.55558 1.50662,1.01015 2.585,1.01015 1.07838,0 1.96069,-0.45457 1.96069,-1.01015 z m -7.64713,-0.89531 c 0.59439,-0.96173 -3.53459,-2.40183 -4.40134,-1.53508 -0.53144,0.53144 1.88891,2.38697 3.15002,2.41492 0.38389,0.008 0.94699,-0.38742 1.25132,-0.87984 z m -7.9687,-2.06794 c -0.81807,-1.32366 -4.58722,-1.43661 -4.58722,-0.13747 0,0.51695 1.02277,1.10325 2.27284,1.30291 2.76388,0.44144 3.17846,0.23267 2.31438,-1.16544 z m -7.61768,-1.07736 c 0,-0.55559 -1.13642,-1.01015 -2.52538,-1.01015 -1.38896,0 -2.52539,0.45456 -2.52539,1.01015 0,0.55558 1.13643,1.01015 2.52539,1.01015 1.38896,0 2.52538,-0.45457 2.52538,-1.01015 z m -8.08122,-1.01015 c 0,-0.55559 -1.13642,-1.01016 -2.52538,-1.01016 -1.38896,0 -2.52539,0.45457 -2.52539,1.01016 0,0.55558 1.13643,1.01015 2.52539,1.01015 1.38896,0 2.52538,-0.45457 2.52538,-1.01015 z m -16.16244,-0.89234 c 0,-1.02453 -4.19472,-2.32073 -4.9774,-1.53806 -0.65325,0.65326 2.02476,2.39422 3.71471,2.41493 0.69448,0.008 1.26269,-0.38609 1.26269,-0.87687 z m 7.57614,-0.11782 c -0.34337,-0.55558 -1.50662,-1.01015 -2.585,-1.01015 -1.07838,0 -1.96069,0.45457 -1.96069,1.01015 0,0.55559 1.16325,1.01016 2.585,1.01016 1.4661,0 2.31477,-0.43724 1.96069,-1.01016 z m -15.65736,-1.01015 c 0,-0.55558 -1.13643,-1.01015 -2.52539,-1.01015 -1.38895,0 -2.52538,0.45457 -2.52538,1.01015 0,0.55558 1.13643,1.01015 2.52538,1.01015 1.38896,0 2.52539,-0.45457 2.52539,-1.01015 z m -31.31473,-1.01015 c 0,-0.55559 -1.25007,-1.00319 -2.77792,-0.99469 -2.1647,0.0121 -2.44343,0.23163 -1.26269,0.99469 1.97639,1.27724 4.04061,1.27724 4.04061,0 z m 8.08122,0 c 0,-0.55559 -1.13642,-1.01016 -2.52538,-1.01016 -1.38896,0 -2.52539,0.45457 -2.52539,1.01016 0,0.55558 1.13643,1.01015 2.52539,1.01015 1.38896,0 2.52538,-0.45457 2.52538,-1.01015 z m 8.08122,0 c 0,-0.55559 -1.13642,-1.01016 -2.52538,-1.01016 -1.38896,0 -2.52538,0.45457 -2.52538,1.01016 0,0.55558 1.13642,1.01015 2.52538,1.01015 1.38896,0 2.52538,-0.45457 2.52538,-1.01015 z m 7.07107,0 c -1.9764,-1.27725 -4.04061,-1.27725 -4.04061,0 0,0.55558 1.25006,1.00319 2.77792,0.99468 2.16469,-0.0121 2.44343,-0.23163 1.26269,-0.99468 z"
         id="path3317"
         transform="scale(0.26458333)" />
      <path
         style="opacity:0.157;fill:#000000;fill-opacity:1;stroke:#000000;stroke-width:1.01015;stroke-miterlimit:4;stroke-dasharray:4.04061, 4.04061;stroke-dashoffset:0"
         d="m 163.17648,208.31697 c -1.28344,-2.35665 -5.06569,-9.40159 -8.40499,-15.65542 l -6.07146,-11.37061 16.99129,-8.35541 c 49.30764,-24.24689 102.97413,-41.56213 157.02914,-50.6647 25.45253,-4.28607 61.1091,-7.60603 81.91657,-7.62719 l 9.82241,-0.01 v 17.67767 17.67767 l -4.77165,0.01 c -9.34494,0.0191 -39.34238,2.04862 -53.25895,3.60325 -61.2398,6.84112 -121.93467,24.73029 -176.486,52.01736 -7.69577,3.84949 -14.09143,6.99533 -14.21257,6.99074 -0.12115,-0.005 -1.27035,-1.9365 -2.55379,-4.29315 z m -0.77955,-12.47411 c 0.87881,-0.33724 1.59785,-1.26237 1.59785,-2.05585 0,-1.12967 -0.43835,-1.2081 -2.02031,-0.36146 -1.11117,0.59468 -2.0203,1.51981 -2.0203,2.05585 0,1.14087 0.29708,1.18483 2.44276,0.36146 z m 8.20537,-4.50482 c 0.36622,-0.59255 0.45811,-1.2851 0.2042,-1.53901 -0.70456,-0.70456 -3.78127,0.69031 -3.78127,1.71429 0,1.2645 2.77116,1.12871 3.57707,-0.17528 z m 6.61916,-3.01394 c 1.0902,-0.58346 1.71459,-1.49382 1.38752,-2.02303 -0.70692,-1.14382 -4.51268,0.63502 -4.51268,2.10926 0,1.24692 0.66863,1.22847 3.12516,-0.0862 z m 7.95726,-3.95047 c 0.81729,-0.51686 1.19247,-1.23326 0.83374,-1.59199 -0.88322,-0.88323 -4.84509,0.44196 -4.84509,1.62061 0,1.20196 2.08909,1.18706 4.01135,-0.0286 z m 8.0263,-3.70048 c 0.23149,-0.20877 0.15211,-0.64837 -0.17641,-0.97689 -0.87053,-0.87053 -4.79017,0.5562 -4.79017,1.7436 0,0.88698 3.77996,0.30345 4.96658,-0.76671 z m 7.15525,-4.09255 c 0,-0.80136 -0.34093,-1.27301 -0.75762,-1.04809 -0.41669,0.22491 -1.58192,0.7031 -2.5894,1.06263 -1.00749,0.35954 -1.57525,1.0688 -1.26169,1.57615 0.85406,1.3819 4.60871,0.086 4.60871,-1.59069 z m 7.07106,-2.87627 c 0,-0.80552 -0.7712,-1.10117 -2.0203,-0.77452 -1.11117,0.29057 -2.02031,1.1146 -2.02031,1.83116 0,0.80552 0.77121,1.10117 2.02031,0.77452 1.11117,-0.29057 2.0203,-1.1146 2.0203,-1.83116 z m 6.62388,-1.91447 c 1.07758,-0.78795 1.65797,-1.73392 1.28973,-2.10215 -0.85135,-0.85135 -4.88315,1.26248 -4.88315,2.56018 0,1.37717 1.3124,1.20989 3.59342,-0.45803 z m 8.52841,-3.73594 c 0,-1.14818 -3.75125,-1.1676 -4.45861,-0.0231 -0.29547,0.47809 -0.29598,1.1105 -0.001,1.40536 0.79228,0.79229 4.45972,-0.34443 4.45972,-1.38228 z m 7.15369,-1.90249 c 0.51014,0 0.92753,-0.48618 0.92753,-1.08041 0,-1.57011 -4.30187,-0.69428 -4.85693,0.98884 -0.32953,0.99922 0.048,1.22509 1.26618,0.75762 0.95463,-0.36633 2.15308,-0.66605 2.66322,-0.66605 z m 7.53506,-3.09766 c 0.36622,-0.59255 0.48683,-1.25637 0.26804,-1.47517 -0.69384,-0.69383 -4.85526,0.7291 -4.85526,1.66019 0,1.26409 3.786,1.11138 4.58722,-0.18502 z m 8.54476,-3.15127 c 0,-1.32332 -4.29804,-0.5889 -4.75914,0.8132 -0.23457,0.7133 0.57472,0.94935 2.19372,0.63986 1.41098,-0.26973 2.56542,-0.92361 2.56542,-1.45306 z m 6.60753,-1.8995 c 0.36621,-0.59254 0.48683,-1.25637 0.26804,-1.47516 -0.69384,-0.69384 -4.85526,0.7291 -4.85526,1.66019 0,1.26408 3.786,1.11138 4.58722,-0.18503 z m 7.61723,-1.95309 c 0.51013,0 0.92753,-0.48619 0.92753,-1.08041 0,-1.57012 -4.30188,-0.69428 -4.85693,0.98884 -0.32953,0.99922 0.048,1.22508 1.26618,0.75761 0.95463,-0.36632 2.15307,-0.66604 2.66322,-0.66604 z m 7.9986,-3.14828 c 0,-1.14817 -3.75126,-1.16759 -4.45861,-0.0231 -0.29547,0.47809 -0.29598,1.11051 -0.001,1.40536 0.79217,0.79229 4.45962,-0.34443 4.45962,-1.38228 z m 8.08122,-2.0905 c 0,-1.32332 -4.29804,-0.58891 -4.75914,0.8132 -0.23457,0.7133 0.57472,0.94935 2.19372,0.63986 1.41098,-0.26973 2.56542,-0.92361 2.56542,-1.45306 z m 8.08122,-1.83229 c 0,-0.55559 -1.13642,-1.01015 -2.52538,-1.01015 -1.38896,0 -2.52538,0.45456 -2.52538,1.01015 0,0.55558 1.13642,1.01015 2.52538,1.01015 1.38896,0 2.52538,-0.45457 2.52538,-1.01015 z m 7.07107,-2.13812 c 0,-1.14818 -3.75127,-1.1676 -4.45862,-0.0231 -0.29546,0.47809 -0.29597,1.1105 -10e-4,1.40536 0.79218,0.79228 4.45963,-0.34443 4.45963,-1.38228 z m 7.99704,-1.52291 c 0.23149,-0.20877 0.15211,-0.64837 -0.17641,-0.97689 -0.87053,-0.87053 -4.79018,0.5562 -4.79018,1.7436 0,0.88698 3.77996,0.30345 4.96659,-0.76671 z m 7.70186,-1.45694 c 0.36621,-0.59255 0.48683,-1.25637 0.26804,-1.47516 -0.69384,-0.69384 -4.85527,0.7291 -4.85527,1.66018 0,1.26409 3.78601,1.11138 4.58723,-0.18502 z m 7.96829,-2.06861 c -0.8791,-1.42242 -4.4743,-1.03632 -4.4743,0.48051 0,0.92041 0.83122,1.21625 2.51362,0.89464 1.38248,-0.26428 2.26479,-0.8831 1.96068,-1.37515 z m 7.35591,-1.51983 c 0.23457,-0.71329 -0.57472,-0.94935 -2.19372,-0.63985 -1.41097,0.26972 -2.56542,0.9236 -2.56542,1.45306 0,1.32331 4.29804,0.5889 4.75914,-0.81321 z m 8.28867,-1.01553 c 0.23149,-0.20877 0.15211,-0.64838 -0.17641,-0.9769 -0.87053,-0.87053 -4.79018,0.55621 -4.79018,1.74361 0,0.88698 3.77996,0.30345 4.96659,-0.76671 z m 8.1654,-1.38974 c 0,-0.55558 -1.13643,-1.01015 -2.52539,-1.01015 -1.38896,0 -2.52538,0.45457 -2.52538,1.01015 0,0.55558 1.13642,1.01015 2.52538,1.01015 1.38896,0 2.52539,-0.45457 2.52539,-1.01015 z m 8.08122,-1.01015 c 0,-0.55559 -1.13643,-1.01015 -2.52539,-1.01015 -1.38895,0 -2.52538,0.45456 -2.52538,1.01015 0,0.55558 1.13643,1.01015 2.52538,1.01015 1.38896,0 2.52539,-0.45457 2.52539,-1.01015 z m 8.08122,-1.01015 c 0,-0.55559 -1.13643,-1.01016 -2.52538,-1.01016 -1.38896,0 -2.52539,0.45457 -2.52539,1.01016 0,0.55558 1.13643,1.01015 2.52539,1.01015 1.38895,0 2.52538,-0.45457 2.52538,-1.01015 z m 7.57614,-1.01016 c -0.34337,-0.55558 -1.50662,-1.01015 -2.585,-1.01015 -1.07838,0 -1.96069,0.45457 -1.96069,1.01015 0,0.55559 1.16326,1.01016 2.585,1.01016 1.4661,0 2.31477,-0.43724 1.96069,-1.01016 z m 6.53674,0.0395 c 2.01561,-1.27471 0.95516,-2.11275 -1.77126,-1.39978 -1.21956,0.31892 -1.96838,0.98275 -1.66405,1.47517 0.6986,1.13035 1.5586,1.11148 3.43531,-0.0754 z m 9.12063,-1.04961 c 0,-0.55558 -1.13643,-1.01015 -2.52539,-1.01015 -1.38896,0 -2.52538,0.45457 -2.52538,1.01015 0,0.55558 1.13642,1.01015 2.52538,1.01015 1.38896,0 2.52539,-0.45457 2.52539,-1.01015 z m 8.08122,-1.01015 c 0,-0.55559 -0.88231,-1.01016 -1.96069,-1.01016 -1.07838,0 -2.24163,0.45457 -2.585,1.01016 -0.35408,0.57291 0.49459,1.01015 1.96068,1.01015 1.42175,0 2.58501,-0.45457 2.58501,-1.01015 z m 8.08122,0 c 0,-0.55559 -1.13643,-1.01016 -2.52539,-1.01016 -1.38896,0 -2.52538,0.45457 -2.52538,1.01016 0,0.55558 1.13642,1.01015 2.52538,1.01015 1.38896,0 2.52539,-0.45457 2.52539,-1.01015 z m 8.08122,0 c 0,-0.55559 -1.13643,-1.01016 -2.52539,-1.01016 -1.38895,0 -2.52538,0.45457 -2.52538,1.01016 0,0.55558 1.13643,1.01015 2.52538,1.01015 1.38896,0 2.52539,-0.45457 2.52539,-1.01015 z m 7.07106,0 c 1.18074,-0.76306 0.90201,-0.98263 -1.26269,-0.99469 -1.52785,-0.008 -2.77792,0.4391 -2.77792,0.99469 0,1.27724 2.06422,1.27724 4.04061,0 z"
         id="path3319"
         transform="scale(0.26458333)" />
      <path
         style="fill:none;stroke:#000000;stroke-width:0.264583px;stroke-linecap:butt;stroke-linejoin:miter;stroke-opacity:1;marker-start:url(#marker3465)"
         d="M 154,47.000001 151,56"
         id="path3347"
         sodipodi:nodetypes="cc" />
      <path
         style="fill:none;stroke:#000000;stroke-width:0.264583px;stroke-linecap:butt;stroke-linejoin:miter;stroke-opacity:1;marker-start:url(#marker3419)"
         d="m 158,38 3,-9"
         id="path3349"
         sodipodi:nodetypes="cc" />
      <g
         id="g3564"
         ns2:jacobian_sqrt="1.23472"
         ns2:alignment="middle center"
         ns2:scale="3.5"
         ns2:preamble="C:\\Users\\claum\\AppData\\Roaming\\inkscape\\extensions\\textext\\default_packages.tex"
         ns2:text="$\\theta$"
         ns2:pdfconverter="inkscape"
         ns2:texconverter="pdflatex"
         ns2:version="1.0.1"
         transform="matrix(1.23472,0,0,1.23472,88.804019,95.389401)">
        <defs
           id="id-3c05c6b8-7875-4af7-a044-79f4bcc2bd71">
          <g
             id="id-930ecbb9-ef5e-4719-81fc-ce66226f9044">
            <symbol
               overflow="visible"
               id="id-a0f1b65b-1cea-4d12-ae87-f2d6bad0e871">
              <path
                 style="stroke:none"
                 d=""
                 id="id-1ccb02d5-9278-4baf-9263-bb56abc09b1a" />
            </symbol>
            <symbol
               overflow="visible"
               id="id-4623fc9d-ae8b-4133-9538-b63ff5aab8be">
              <path
                 style="stroke:none"
                 d="m 4.53125,-4.984375 c 0,-0.65625 -0.171875,-2.046875 -1.1875,-2.046875 -1.390625,0 -2.921875,2.8125 -2.921875,5.09375 0,0.9375 0.28125,2.046875 1.1875,2.046875 1.40625,0 2.921875,-2.859375 2.921875,-5.09375 z M 1.46875,-3.625 C 1.640625,-4.25 1.84375,-5.046875 2.25,-5.765625 2.515625,-6.25 2.875,-6.8125 3.328125,-6.8125 c 0.484375,0 0.546875,0.640625 0.546875,1.203125 0,0.5 -0.078125,1 -0.3125,1.984375 z m 2,0.328125 C 3.359375,-2.84375 3.15625,-2 2.765625,-1.28125 c -0.34375,0.6875 -0.71875,1.171875 -1.15625,1.171875 -0.328125,0 -0.53125,-0.296875 -0.53125,-1.21875 0,-0.421875 0.0625,-1 0.3125,-1.96875 z m 0,0"
                 id="id-1c5988a0-6ef0-4b6c-b74d-760c100720df" />
            </symbol>
          </g>
        </defs>
        <g
           id="id-5b2b2197-054f-47cb-a8df-3b5cf740748c"
           transform="translate(-149.134,-127.734)">
          <g
             style="fill:#000000;fill-opacity:1"
             id="id-dad0463f-387f-487d-8b81-cbebca817d19">
            <g
               id="g3560"
               transform="translate(148.712,134.765)">
              <path
                 style="stroke:none"
                 d="m 4.53125,-4.984375 c 0,-0.65625 -0.171875,-2.046875 -1.1875,-2.046875 -1.390625,0 -2.921875,2.8125 -2.921875,5.09375 0,0.9375 0.28125,2.046875 1.1875,2.046875 1.40625,0 2.921875,-2.859375 2.921875,-5.09375 z M 1.46875,-3.625 C 1.640625,-4.25 1.84375,-5.046875 2.25,-5.765625 2.515625,-6.25 2.875,-6.8125 3.328125,-6.8125 c 0.484375,0 0.546875,0.640625 0.546875,1.203125 0,0.5 -0.078125,1 -0.3125,1.984375 z m 2,0.328125 C 3.359375,-2.84375 3.15625,-2 2.765625,-1.28125 c -0.34375,0.6875 -0.71875,1.171875 -1.15625,1.171875 -0.328125,0 -0.53125,-0.296875 -0.53125,-1.21875 0,-0.421875 0.0625,-1 0.3125,-1.96875 z m 0,0"
                 id="id-5ec1e881-0b6f-453f-b907-e53ad9a9ec1a" />
            </g>
          </g>
        </g>
      </g>
      <g
         transform="matrix(1.23472,0,0,1.23472,126.23812,95.389401)"
         ns2:version="1.0.1"
         ns2:texconverter="pdflatex"
         ns2:pdfconverter="inkscape"
         ns2:text="$\\theta$"
         ns2:preamble="C:\\Users\\claum\\AppData\\Roaming\\inkscape\\extensions\\textext\\default_packages.tex"
         ns2:scale="3.5"
         ns2:alignment="middle center"
         ns2:jacobian_sqrt="1.23472"
         id="g3600">
        <defs
           id="defs3590">
          <g
             id="g3588">
            <symbol
               id="symbol3582"
               overflow="visible">
              <path
                 id="path3580"
                 d=""
                 style="stroke:none" />
            </symbol>
            <symbol
               id="symbol3586"
               overflow="visible">
              <path
                 id="path3584"
                 d="m 4.53125,-4.984375 c 0,-0.65625 -0.171875,-2.046875 -1.1875,-2.046875 -1.390625,0 -2.921875,2.8125 -2.921875,5.09375 0,0.9375 0.28125,2.046875 1.1875,2.046875 1.40625,0 2.921875,-2.859375 2.921875,-5.09375 z M 1.46875,-3.625 C 1.640625,-4.25 1.84375,-5.046875 2.25,-5.765625 2.515625,-6.25 2.875,-6.8125 3.328125,-6.8125 c 0.484375,0 0.546875,0.640625 0.546875,1.203125 0,0.5 -0.078125,1 -0.3125,1.984375 z m 2,0.328125 C 3.359375,-2.84375 3.15625,-2 2.765625,-1.28125 c -0.34375,0.6875 -0.71875,1.171875 -1.15625,1.171875 -0.328125,0 -0.53125,-0.296875 -0.53125,-1.21875 0,-0.421875 0.0625,-1 0.3125,-1.96875 z m 0,0"
                 style="stroke:none" />
            </symbol>
          </g>
        </defs>
        <g
           transform="translate(-149.134,-127.734)"
           id="g3598">
          <g
             id="g3596"
             style="fill:#000000;fill-opacity:1">
            <g
               transform="translate(148.712,134.765)"
               id="g3594">
              <path
                 id="path3592"
                 d="m 4.53125,-4.984375 c 0,-0.65625 -0.171875,-2.046875 -1.1875,-2.046875 -1.390625,0 -2.921875,2.8125 -2.921875,5.09375 0,0.9375 0.28125,2.046875 1.1875,2.046875 1.40625,0 2.921875,-2.859375 2.921875,-5.09375 z M 1.46875,-3.625 C 1.640625,-4.25 1.84375,-5.046875 2.25,-5.765625 2.515625,-6.25 2.875,-6.8125 3.328125,-6.8125 c 0.484375,0 0.546875,0.640625 0.546875,1.203125 0,0.5 -0.078125,1 -0.3125,1.984375 z m 2,0.328125 C 3.359375,-2.84375 3.15625,-2 2.765625,-1.28125 c -0.34375,0.6875 -0.71875,1.171875 -1.15625,1.171875 -0.328125,0 -0.53125,-0.296875 -0.53125,-1.21875 0,-0.421875 0.0625,-1 0.3125,-1.96875 z m 0,0"
                 style="stroke:none" />
            </g>
          </g>
        </g>
      </g>
      <g
         id="g3667"
         ns2:jacobian_sqrt="1.23472"
         ns2:alignment="middle center"
         ns2:scale="3.5"
         ns2:preamble="C:\\Users\\claum\\AppData\\Roaming\\inkscape\\extensions\\textext\\default_packages.tex"
         ns2:text="$\\mathbf{O}$"
         ns2:pdfconverter="inkscape"
         ns2:texconverter="pdflatex"
         ns2:version="1.0.1"
         transform="matrix(1.23472,0,0,1.23472,98.952281,180.58217)">
        <defs
           id="id-2c5f72a8-4c34-485e-a8ec-29b3f3179c4f">
          <g
             id="id-611be211-60e3-4a2e-8bca-8ddb8f29e9f8">
            <symbol
               overflow="visible"
               id="id-0f990b92-a3e6-4abb-b709-d82fc25a7bd7">
              <path
                 style="stroke:none"
                 d=""
                 id="id-7fc942bb-44dd-43dc-a270-8d559f781267" />
            </symbol>
            <symbol
               overflow="visible"
               id="id-818dfb7e-aeeb-4c7d-95b7-c7aa6178d4a3">
              <path
                 style="stroke:none"
                 d="m 7.96875,-3.375 c 0,-2.15625 -1.453125,-3.578125 -3.65625,-3.578125 -2.28125,0 -3.671875,1.484375 -3.671875,3.578125 0,2.0625 1.390625,3.484375 3.65625,3.484375 2.296875,0 3.671875,-1.4375 3.671875,-3.484375 z m -3.671875,3.0625 c -0.59375,0 -1.3125,-0.28125 -1.71875,-1.03125 C 2.25,-1.96875 2.15625,-2.671875 2.15625,-3.53125 c 0,-0.640625 0.03125,-1.484375 0.46875,-2.15625 0.421875,-0.609375 1.078125,-0.859375 1.671875,-0.859375 0.640625,0 1.328125,0.28125 1.71875,0.9375 0.390625,0.640625 0.421875,1.40625 0.421875,2.078125 0,0.703125 -0.03125,1.59375 -0.453125,2.28125 -0.453125,0.71875 -1.15625,0.9375 -1.6875,0.9375 z m 0,0"
                 id="id-e10772e9-34bc-4528-9b7f-9a214a824f8d" />
            </symbol>
          </g>
        </defs>
        <g
           id="id-71aa517f-da9c-4348-af5a-14032d831ded"
           transform="translate(-149.353,-127.812)">
          <g
             style="fill:#000000;fill-opacity:1"
             id="id-9a06ecaa-be9a-4f9e-b2de-df5dacb239d1">
            <g
               id="g3663"
               transform="translate(148.712,134.765)">
              <path
                 style="stroke:none"
                 d="m 7.96875,-3.375 c 0,-2.15625 -1.453125,-3.578125 -3.65625,-3.578125 -2.28125,0 -3.671875,1.484375 -3.671875,3.578125 0,2.0625 1.390625,3.484375 3.65625,3.484375 2.296875,0 3.671875,-1.4375 3.671875,-3.484375 z m -3.671875,3.0625 c -0.59375,0 -1.3125,-0.28125 -1.71875,-1.03125 C 2.25,-1.96875 2.15625,-2.671875 2.15625,-3.53125 c 0,-0.640625 0.03125,-1.484375 0.46875,-2.15625 0.421875,-0.609375 1.078125,-0.859375 1.671875,-0.859375 0.640625,0 1.328125,0.28125 1.71875,0.9375 0.390625,0.640625 0.421875,1.40625 0.421875,2.078125 0,0.703125 -0.03125,1.59375 -0.453125,2.28125 -0.453125,0.71875 -1.15625,0.9375 -1.6875,0.9375 z m 0,0"
                 id="id-525e9e73-b5eb-4e00-a50d-8eb9e225a0dc" />
            </g>
          </g>
        </g>
      </g>
      <path
         style="fill:none;stroke:#000000;stroke-width:0.264583px;stroke-linecap:butt;stroke-linejoin:miter;stroke-opacity:1"
         d="m 105,205 10,-10"
         id="path3683" />
      <path
         style="fill:none;stroke:#000000;stroke-width:0.264583px;stroke-linecap:butt;stroke-linejoin:miter;stroke-opacity:1"
         d="M 110,200 H 255"
         id="path3685" />
      <path
         style="fill:none;stroke:#000000;stroke-width:0.264583px;stroke-linecap:butt;stroke-linejoin:miter;stroke-opacity:1"
         d="m 250,205 10,-10"
         id="path3687" />
      <g
         id="g3788"
         ns2:jacobian_sqrt="1.37583"
         ns2:alignment="middle center"
         ns2:scale="3.9"
         ns2:preamble="C:\\Users\\claum\\AppData\\Roaming\\inkscape\\extensions\\textext\\default_packages.tex"
         ns2:text="$r_m$"
         ns2:pdfconverter="inkscape"
         ns2:texconverter="pdflatex"
         ns2:version="1.0.1"
         transform="matrix(1.37583,0,0,1.37583,177.44199,203.13008)">
        <defs
           id="id-47a37cf7-847e-43df-b4ae-458b708acec2">
          <g
             id="id-95f9f34b-2890-4786-8f6f-7d519afead7c">
            <symbol
               overflow="visible"
               id="id-9a4a7276-4719-4369-a27f-cff875c29185">
              <path
                 style="stroke:none"
                 d=""
                 id="id-76d73bea-5c23-4ec2-badc-78c81e2de417" />
            </symbol>
            <symbol
               overflow="visible"
               id="id-799d097e-9f6a-4bff-9e8d-58ea317d097b">
              <path
                 style="stroke:none"
                 d="m 0.875,-0.59375 c -0.03125,0.15625 -0.09375,0.390625 -0.09375,0.4375 0,0.171875 0.140625,0.265625 0.296875,0.265625 0.125,0 0.296875,-0.078125 0.375,-0.28125 C 1.46875,-0.203125 1.796875,-1.5625 1.84375,-1.75 c 0.078125,-0.328125 0.265625,-1.015625 0.3125,-1.296875 0.046875,-0.125 0.328125,-0.59375 0.5625,-0.8125 0.078125,-0.0625 0.375,-0.328125 0.796875,-0.328125 0.265625,0 0.40625,0.125 0.421875,0.125 -0.296875,0.046875 -0.515625,0.28125 -0.515625,0.546875 0,0.15625 0.109375,0.34375 0.375,0.34375 0.265625,0 0.546875,-0.234375 0.546875,-0.59375 0,-0.34375 -0.3125,-0.640625 -0.828125,-0.640625 C 2.875,-4.40625 2.4375,-3.921875 2.25,-3.640625 2.15625,-4.09375 1.796875,-4.40625 1.328125,-4.40625 0.875,-4.40625 0.6875,-4.015625 0.59375,-3.84375 0.421875,-3.5 0.296875,-2.90625 0.296875,-2.875 c 0,0.109375 0.09375,0.109375 0.109375,0.109375 0.109375,0 0.109375,-0.015625 0.171875,-0.234375 0.171875,-0.703125 0.375,-1.1875 0.734375,-1.1875 0.15625,0 0.296875,0.078125 0.296875,0.453125 0,0.21875 -0.03125,0.328125 -0.15625,0.84375 z m 0,0"
                 id="id-0d2b11e0-275b-4ae4-94d0-7771d41828da" />
            </symbol>
            <symbol
               overflow="visible"
               id="id-25bb6cf1-7fc0-4e57-ab68-0e80af539375">
              <path
                 style="stroke:none"
                 d=""
                 id="id-24a5d5d6-6212-4c9a-9bfe-c5b07b4ae28c" />
            </symbol>
            <symbol
               overflow="visible"
               id="id-e94da4a9-b862-460e-8acb-747b3cb31420">
              <path
                 style="stroke:none"
                 d="m 3.03125,-0.5625 c -0.046875,0.140625 -0.109375,0.375 -0.109375,0.40625 0,0.15625 0.125,0.21875 0.234375,0.21875 0.140625,0 0.25,-0.078125 0.28125,-0.140625 0.03125,-0.0625 0.09375,-0.296875 0.125,-0.4375 0.03125,-0.125 0.109375,-0.453125 0.15625,-0.625 0.03125,-0.15625 0.078125,-0.3125 0.109375,-0.46875 0.078125,-0.296875 0.078125,-0.3125 0.21875,-0.53125 C 4.265625,-2.484375 4.625,-2.875 5.15625,-2.875 c 0.390625,0 0.421875,0.3125 0.421875,0.484375 0,0.421875 -0.296875,1.1875 -0.421875,1.484375 -0.0625,0.203125 -0.09375,0.265625 -0.09375,0.375 0,0.375 0.296875,0.59375 0.65625,0.59375 0.703125,0 1,-0.953125 1,-1.0625 0,-0.09375 -0.078125,-0.09375 -0.109375,-0.09375 -0.09375,0 -0.09375,0.046875 -0.125,0.125 C 6.328125,-0.40625 6.015625,-0.125 5.75,-0.125 c -0.15625,0 -0.1875,-0.09375 -0.1875,-0.25 0,-0.15625 0.046875,-0.25 0.171875,-0.5625 0.078125,-0.21875 0.359375,-0.953125 0.359375,-1.34375 0,-0.109375 0,-0.40625 -0.25,-0.609375 -0.125,-0.078125 -0.328125,-0.1875 -0.65625,-0.1875 -0.625,0 -1,0.421875 -1.234375,0.703125 C 3.90625,-2.96875 3.40625,-3.078125 3.046875,-3.078125 2.46875,-3.078125 2.078125,-2.71875 1.875,-2.4375 1.828125,-2.921875 1.421875,-3.078125 1.125,-3.078125 c -0.296875,0 -0.453125,0.21875 -0.546875,0.375 -0.15625,0.265625 -0.25,0.65625 -0.25,0.703125 0,0.078125 0.09375,0.078125 0.125,0.078125 0.09375,0 0.09375,-0.015625 0.140625,-0.203125 0.109375,-0.40625 0.25,-0.75 0.515625,-0.75 0.1875,0 0.234375,0.15625 0.234375,0.34375 0,0.125 -0.0625,0.390625 -0.125,0.578125 -0.046875,0.1875 -0.109375,0.46875 -0.140625,0.625 L 0.84375,-0.4375 c -0.015625,0.09375 -0.0625,0.265625 -0.0625,0.28125 0,0.15625 0.125,0.21875 0.234375,0.21875 0.125,0 0.234375,-0.078125 0.28125,-0.140625 0.03125,-0.0625 0.078125,-0.296875 0.125,-0.4375 0.03125,-0.125 0.109375,-0.453125 0.140625,-0.625 0.046875,-0.15625 0.09375,-0.3125 0.125,-0.46875 0.078125,-0.28125 0.09375,-0.34375 0.296875,-0.625 C 2.171875,-2.515625 2.5,-2.875 3.03125,-2.875 c 0.390625,0 0.40625,0.359375 0.40625,0.484375 0,0.171875 -0.015625,0.265625 -0.125,0.65625 z m 0,0"
                 id="id-98794566-08d9-4c65-8da2-3f647906d4b7" />
            </symbol>
          </g>
        </defs>
        <g
           id="id-b8efdad6-8da7-44b2-a350-cbe5828256f9"
           transform="translate(-149.009,-130.359)">
          <g
             style="fill:#000000;fill-opacity:1"
             id="id-ee50edb8-6cd2-4b5b-982e-f7c759271552">
            <g
               id="g3780"
               transform="translate(148.712,134.765)">
              <path
                 style="stroke:none"
                 d="m 0.875,-0.59375 c -0.03125,0.15625 -0.09375,0.390625 -0.09375,0.4375 0,0.171875 0.140625,0.265625 0.296875,0.265625 0.125,0 0.296875,-0.078125 0.375,-0.28125 C 1.46875,-0.203125 1.796875,-1.5625 1.84375,-1.75 c 0.078125,-0.328125 0.265625,-1.015625 0.3125,-1.296875 0.046875,-0.125 0.328125,-0.59375 0.5625,-0.8125 0.078125,-0.0625 0.375,-0.328125 0.796875,-0.328125 0.265625,0 0.40625,0.125 0.421875,0.125 -0.296875,0.046875 -0.515625,0.28125 -0.515625,0.546875 0,0.15625 0.109375,0.34375 0.375,0.34375 0.265625,0 0.546875,-0.234375 0.546875,-0.59375 0,-0.34375 -0.3125,-0.640625 -0.828125,-0.640625 C 2.875,-4.40625 2.4375,-3.921875 2.25,-3.640625 2.15625,-4.09375 1.796875,-4.40625 1.328125,-4.40625 0.875,-4.40625 0.6875,-4.015625 0.59375,-3.84375 0.421875,-3.5 0.296875,-2.90625 0.296875,-2.875 c 0,0.109375 0.09375,0.109375 0.109375,0.109375 0.109375,0 0.109375,-0.015625 0.171875,-0.234375 0.171875,-0.703125 0.375,-1.1875 0.734375,-1.1875 0.15625,0 0.296875,0.078125 0.296875,0.453125 0,0.21875 -0.03125,0.328125 -0.15625,0.84375 z m 0,0"
                 id="id-44ffacef-12df-41fa-a397-081df2dd92f0" />
            </g>
          </g>
          <g
             style="fill:#000000;fill-opacity:1"
             id="id-1283a9a2-7324-4e61-8bdf-46778609e47a">
            <g
               id="g3784"
               transform="translate(153.207,136.259)">
              <path
                 style="stroke:none"
                 d="m 3.03125,-0.5625 c -0.046875,0.140625 -0.109375,0.375 -0.109375,0.40625 0,0.15625 0.125,0.21875 0.234375,0.21875 0.140625,0 0.25,-0.078125 0.28125,-0.140625 0.03125,-0.0625 0.09375,-0.296875 0.125,-0.4375 0.03125,-0.125 0.109375,-0.453125 0.15625,-0.625 0.03125,-0.15625 0.078125,-0.3125 0.109375,-0.46875 0.078125,-0.296875 0.078125,-0.3125 0.21875,-0.53125 C 4.265625,-2.484375 4.625,-2.875 5.15625,-2.875 c 0.390625,0 0.421875,0.3125 0.421875,0.484375 0,0.421875 -0.296875,1.1875 -0.421875,1.484375 -0.0625,0.203125 -0.09375,0.265625 -0.09375,0.375 0,0.375 0.296875,0.59375 0.65625,0.59375 0.703125,0 1,-0.953125 1,-1.0625 0,-0.09375 -0.078125,-0.09375 -0.109375,-0.09375 -0.09375,0 -0.09375,0.046875 -0.125,0.125 C 6.328125,-0.40625 6.015625,-0.125 5.75,-0.125 c -0.15625,0 -0.1875,-0.09375 -0.1875,-0.25 0,-0.15625 0.046875,-0.25 0.171875,-0.5625 0.078125,-0.21875 0.359375,-0.953125 0.359375,-1.34375 0,-0.109375 0,-0.40625 -0.25,-0.609375 -0.125,-0.078125 -0.328125,-0.1875 -0.65625,-0.1875 -0.625,0 -1,0.421875 -1.234375,0.703125 C 3.90625,-2.96875 3.40625,-3.078125 3.046875,-3.078125 2.46875,-3.078125 2.078125,-2.71875 1.875,-2.4375 1.828125,-2.921875 1.421875,-3.078125 1.125,-3.078125 c -0.296875,0 -0.453125,0.21875 -0.546875,0.375 -0.15625,0.265625 -0.25,0.65625 -0.25,0.703125 0,0.078125 0.09375,0.078125 0.125,0.078125 0.09375,0 0.09375,-0.015625 0.140625,-0.203125 0.109375,-0.40625 0.25,-0.75 0.515625,-0.75 0.1875,0 0.234375,0.15625 0.234375,0.34375 0,0.125 -0.0625,0.390625 -0.125,0.578125 -0.046875,0.1875 -0.109375,0.46875 -0.140625,0.625 L 0.84375,-0.4375 c -0.015625,0.09375 -0.0625,0.265625 -0.0625,0.28125 0,0.15625 0.125,0.21875 0.234375,0.21875 0.125,0 0.234375,-0.078125 0.28125,-0.140625 0.03125,-0.0625 0.078125,-0.296875 0.125,-0.4375 0.03125,-0.125 0.109375,-0.453125 0.140625,-0.625 0.046875,-0.15625 0.09375,-0.3125 0.125,-0.46875 0.078125,-0.28125 0.09375,-0.34375 0.296875,-0.625 C 2.171875,-2.515625 2.5,-2.875 3.03125,-2.875 c 0.390625,0 0.40625,0.359375 0.40625,0.484375 0,0.171875 -0.015625,0.265625 -0.125,0.65625 z m 0,0"
                 id="id-c54f45d4-bc37-476e-a8cd-3bbe32d5c75d" />
            </g>
          </g>
        </g>
      </g>
      <g
         id="g3930"
         ns2:jacobian_sqrt="1.37583"
         ns2:alignment="middle center"
         ns2:scale="3.9"
         ns2:preamble="C:\\Users\\claum\\AppData\\Roaming\\inkscape\\extensions\\textext\\default_packages.tex"
         ns2:text="$\\delta \\ll r_m$"
         ns2:pdfconverter="inkscape"
         ns2:texconverter="pdflatex"
         ns2:version="1.0.1"
         transform="matrix(1.37583,0,0,1.37583,162.79707,21.936658)">
        <defs
           id="id-7a49b721-617f-48db-ab38-98ceb5fd6c12">
          <g
             id="id-1233247f-b4ca-495e-bcb3-d7b14662528e">
            <symbol
               overflow="visible"
               id="id-21f930bf-64e9-4e6b-8d0a-1c234d346ad0">
              <path
                 style="stroke:none"
                 d=""
                 id="id-806d7059-d701-4d97-a854-b57e23e89d02" />
            </symbol>
            <symbol
               overflow="visible"
               id="id-8c02a24c-2b72-46a7-b9d7-ec2936ed465a">
              <path
                 style="stroke:none"
                 d="M 2.625,-4.359375 C 1.390625,-4.0625 0.421875,-2.765625 0.421875,-1.5625 0.421875,-0.59375 1.0625,0.125 2,0.125 c 1.15625,0 1.984375,-1.578125 1.984375,-2.953125 0,-0.90625 -0.390625,-1.40625 -0.734375,-1.84375 C 2.890625,-5.125 2.296875,-5.875 2.296875,-6.3125 c 0,-0.21875 0.203125,-0.453125 0.546875,-0.453125 0.3125,0 0.5,0.125 0.71875,0.265625 0.203125,0.125 0.390625,0.25 0.546875,0.25 C 4.359375,-6.25 4.5,-6.484375 4.5,-6.65625 4.5,-6.875 4.34375,-6.890625 3.984375,-6.984375 3.46875,-7.09375 3.328125,-7.09375 3.171875,-7.09375 c -0.78125,0 -1.140625,0.4375 -1.140625,1.03125 0,0.546875 0.296875,1.09375 0.59375,1.703125 z m 0.125,0.21875 c 0.25,0.46875 0.546875,1 0.546875,1.71875 0,0.65625 -0.375,2.328125 -1.296875,2.328125 -0.546875,0 -0.96875,-0.421875 -0.96875,-1.1875 0,-0.625 0.375,-2.5 1.71875,-2.859375 z m 0,0"
                 id="id-00da42de-b69b-4f5b-b0d4-16a115125ce0" />
            </symbol>
            <symbol
               overflow="visible"
               id="id-99a9eab7-17d9-4859-b0a2-997b6133dc4d">
              <path
                 style="stroke:none"
                 d="m 0.875,-0.59375 c -0.03125,0.15625 -0.09375,0.390625 -0.09375,0.4375 0,0.171875 0.140625,0.265625 0.296875,0.265625 0.125,0 0.296875,-0.078125 0.375,-0.28125 C 1.46875,-0.203125 1.796875,-1.5625 1.84375,-1.75 c 0.078125,-0.328125 0.265625,-1.015625 0.3125,-1.296875 0.046875,-0.125 0.328125,-0.59375 0.5625,-0.8125 0.078125,-0.0625 0.375,-0.328125 0.796875,-0.328125 0.265625,0 0.40625,0.125 0.421875,0.125 -0.296875,0.046875 -0.515625,0.28125 -0.515625,0.546875 0,0.15625 0.109375,0.34375 0.375,0.34375 0.265625,0 0.546875,-0.234375 0.546875,-0.59375 0,-0.34375 -0.3125,-0.640625 -0.828125,-0.640625 C 2.875,-4.40625 2.4375,-3.921875 2.25,-3.640625 2.15625,-4.09375 1.796875,-4.40625 1.328125,-4.40625 0.875,-4.40625 0.6875,-4.015625 0.59375,-3.84375 0.421875,-3.5 0.296875,-2.90625 0.296875,-2.875 c 0,0.109375 0.09375,0.109375 0.109375,0.109375 0.109375,0 0.109375,-0.015625 0.171875,-0.234375 0.171875,-0.703125 0.375,-1.1875 0.734375,-1.1875 0.15625,0 0.296875,0.078125 0.296875,0.453125 0,0.21875 -0.03125,0.328125 -0.15625,0.84375 z m 0,0"
                 id="id-3442b2f9-f8f7-40bf-8319-15fe34626c83" />
            </symbol>
            <symbol
               overflow="visible"
               id="id-b042f17d-a855-4847-81e5-2d5a3c952d94">
              <path
                 style="stroke:none"
                 d=""
                 id="id-2440e37e-4e03-4ffa-8b7f-eb9682bc63c6" />
            </symbol>
            <symbol
               overflow="visible"
               id="id-5a6a0331-5c5b-49aa-a922-287ac5aa66e8">
              <path
                 style="stroke:none"
                 d="M 6.171875,-5.21875 C 6.296875,-5.296875 6.375,-5.328125 6.375,-5.4375 c 0,-0.140625 -0.109375,-0.203125 -0.203125,-0.203125 -0.078125,0 -0.140625,0.03125 -0.1875,0.0625 l -5.25,2.859375 C 0.625,-2.640625 0.546875,-2.609375 0.546875,-2.5 c 0,0.125 0.078125,0.15625 0.1875,0.234375 l 5.25,2.859375 C 6.09375,0.65625 6.125,0.65625 6.171875,0.65625 6.296875,0.65625 6.375,0.5625 6.375,0.453125 6.375,0.34375 6.296875,0.3125 6.171875,0.234375 l -5,-2.734375 z m 3.046875,0 c 0.109375,-0.078125 0.1875,-0.109375 0.1875,-0.21875 0,-0.140625 -0.109375,-0.203125 -0.1875,-0.203125 -0.078125,0 -0.140625,0.03125 -0.1875,0.0625 l -5.25,2.859375 c -0.125,0.078125 -0.1875,0.109375 -0.1875,0.21875 0,0.125 0.0625,0.15625 0.1875,0.234375 L 9.015625,0.59375 c 0.125,0.0625 0.15625,0.0625 0.203125,0.0625 0.125,0 0.1875,-0.09375 0.1875,-0.203125 0,-0.109375 -0.078125,-0.140625 -0.1875,-0.21875 L 4.203125,-2.5 Z m 0,0"
                 id="id-0f01535a-b764-46f2-a156-4e8cd034a130" />
            </symbol>
            <symbol
               overflow="visible"
               id="id-cca7eb2f-8cf9-4edc-b0eb-fa9f485e25b9">
              <path
                 style="stroke:none"
                 d=""
                 id="id-4d1ad8ab-62d7-4178-bd6b-c4ffe205f200" />
            </symbol>
            <symbol
               overflow="visible"
               id="id-4265f645-26a6-499f-aeed-c99d9d2d966e">
              <path
                 style="stroke:none"
                 d="m 3.03125,-0.5625 c -0.046875,0.140625 -0.109375,0.375 -0.109375,0.40625 0,0.15625 0.125,0.21875 0.234375,0.21875 0.140625,0 0.25,-0.078125 0.28125,-0.140625 0.03125,-0.0625 0.09375,-0.296875 0.125,-0.4375 0.03125,-0.125 0.109375,-0.453125 0.15625,-0.625 0.03125,-0.15625 0.078125,-0.3125 0.109375,-0.46875 0.078125,-0.296875 0.078125,-0.3125 0.21875,-0.53125 C 4.265625,-2.484375 4.625,-2.875 5.15625,-2.875 c 0.390625,0 0.421875,0.3125 0.421875,0.484375 0,0.421875 -0.296875,1.1875 -0.421875,1.484375 -0.0625,0.203125 -0.09375,0.265625 -0.09375,0.375 0,0.375 0.296875,0.59375 0.65625,0.59375 0.703125,0 1,-0.953125 1,-1.0625 0,-0.09375 -0.078125,-0.09375 -0.109375,-0.09375 -0.09375,0 -0.09375,0.046875 -0.125,0.125 C 6.328125,-0.40625 6.015625,-0.125 5.75,-0.125 c -0.15625,0 -0.1875,-0.09375 -0.1875,-0.25 0,-0.15625 0.046875,-0.25 0.171875,-0.5625 0.078125,-0.21875 0.359375,-0.953125 0.359375,-1.34375 0,-0.109375 0,-0.40625 -0.25,-0.609375 -0.125,-0.078125 -0.328125,-0.1875 -0.65625,-0.1875 -0.625,0 -1,0.421875 -1.234375,0.703125 C 3.90625,-2.96875 3.40625,-3.078125 3.046875,-3.078125 2.46875,-3.078125 2.078125,-2.71875 1.875,-2.4375 1.828125,-2.921875 1.421875,-3.078125 1.125,-3.078125 c -0.296875,0 -0.453125,0.21875 -0.546875,0.375 -0.15625,0.265625 -0.25,0.65625 -0.25,0.703125 0,0.078125 0.09375,0.078125 0.125,0.078125 0.09375,0 0.09375,-0.015625 0.140625,-0.203125 0.109375,-0.40625 0.25,-0.75 0.515625,-0.75 0.1875,0 0.234375,0.15625 0.234375,0.34375 0,0.125 -0.0625,0.390625 -0.125,0.578125 -0.046875,0.1875 -0.109375,0.46875 -0.140625,0.625 L 0.84375,-0.4375 c -0.015625,0.09375 -0.0625,0.265625 -0.0625,0.28125 0,0.15625 0.125,0.21875 0.234375,0.21875 0.125,0 0.234375,-0.078125 0.28125,-0.140625 0.03125,-0.0625 0.078125,-0.296875 0.125,-0.4375 0.03125,-0.125 0.109375,-0.453125 0.140625,-0.625 0.046875,-0.15625 0.09375,-0.3125 0.125,-0.46875 0.078125,-0.28125 0.09375,-0.34375 0.296875,-0.625 C 2.171875,-2.515625 2.5,-2.875 3.03125,-2.875 c 0.390625,0 0.40625,0.359375 0.40625,0.484375 0,0.171875 -0.015625,0.265625 -0.125,0.65625 z m 0,0"
                 id="id-d7052849-104b-469f-a5a5-bcd335ea5883" />
            </symbol>
          </g>
        </defs>
        <g
           id="id-a4b045c8-684e-4e88-9e14-d9edad91e308"
           transform="translate(-149.134,-127.671)">
          <g
             style="fill:#000000;fill-opacity:1"
             id="id-0c79fc1e-6537-40f9-8679-62f851f71e09">
            <g
               id="g3914"
               transform="translate(148.712,134.765)">
              <path
                 style="stroke:none"
                 d="M 2.625,-4.359375 C 1.390625,-4.0625 0.421875,-2.765625 0.421875,-1.5625 0.421875,-0.59375 1.0625,0.125 2,0.125 c 1.15625,0 1.984375,-1.578125 1.984375,-2.953125 0,-0.90625 -0.390625,-1.40625 -0.734375,-1.84375 C 2.890625,-5.125 2.296875,-5.875 2.296875,-6.3125 c 0,-0.21875 0.203125,-0.453125 0.546875,-0.453125 0.3125,0 0.5,0.125 0.71875,0.265625 0.203125,0.125 0.390625,0.25 0.546875,0.25 C 4.359375,-6.25 4.5,-6.484375 4.5,-6.65625 4.5,-6.875 4.34375,-6.890625 3.984375,-6.984375 3.46875,-7.09375 3.328125,-7.09375 3.171875,-7.09375 c -0.78125,0 -1.140625,0.4375 -1.140625,1.03125 0,0.546875 0.296875,1.09375 0.59375,1.703125 z m 0.125,0.21875 c 0.25,0.46875 0.546875,1 0.546875,1.71875 0,0.65625 -0.375,2.328125 -1.296875,2.328125 -0.546875,0 -0.96875,-0.421875 -0.96875,-1.1875 0,-0.625 0.375,-2.5 1.71875,-2.859375 z m 0,0"
                 id="id-720fa644-43d2-4262-9f34-8129501c12c6" />
            </g>
          </g>
          <g
             style="fill:#000000;fill-opacity:1"
             id="id-42432b64-36c7-4bb3-9b4d-70203668885f">
            <g
               id="g3918"
               transform="translate(156.285,134.765)">
              <path
                 style="stroke:none"
                 d="M 6.171875,-5.21875 C 6.296875,-5.296875 6.375,-5.328125 6.375,-5.4375 c 0,-0.140625 -0.109375,-0.203125 -0.203125,-0.203125 -0.078125,0 -0.140625,0.03125 -0.1875,0.0625 l -5.25,2.859375 C 0.625,-2.640625 0.546875,-2.609375 0.546875,-2.5 c 0,0.125 0.078125,0.15625 0.1875,0.234375 l 5.25,2.859375 C 6.09375,0.65625 6.125,0.65625 6.171875,0.65625 6.296875,0.65625 6.375,0.5625 6.375,0.453125 6.375,0.34375 6.296875,0.3125 6.171875,0.234375 l -5,-2.734375 z m 3.046875,0 c 0.109375,-0.078125 0.1875,-0.109375 0.1875,-0.21875 0,-0.140625 -0.109375,-0.203125 -0.1875,-0.203125 -0.078125,0 -0.140625,0.03125 -0.1875,0.0625 l -5.25,2.859375 c -0.125,0.078125 -0.1875,0.109375 -0.1875,0.21875 0,0.125 0.0625,0.15625 0.1875,0.234375 L 9.015625,0.59375 c 0.125,0.0625 0.15625,0.0625 0.203125,0.0625 0.125,0 0.1875,-0.09375 0.1875,-0.203125 0,-0.109375 -0.078125,-0.140625 -0.1875,-0.21875 L 4.203125,-2.5 Z m 0,0"
                 id="id-7f8ea63d-4d53-4313-aac2-c3e5c0196e1e" />
            </g>
          </g>
          <g
             style="fill:#000000;fill-opacity:1"
             id="id-c9129a10-e815-4494-8ac7-af9ae932ef23">
            <g
               id="g3922"
               transform="translate(169.015,134.765)">
              <path
                 style="stroke:none"
                 d="m 0.875,-0.59375 c -0.03125,0.15625 -0.09375,0.390625 -0.09375,0.4375 0,0.171875 0.140625,0.265625 0.296875,0.265625 0.125,0 0.296875,-0.078125 0.375,-0.28125 C 1.46875,-0.203125 1.796875,-1.5625 1.84375,-1.75 c 0.078125,-0.328125 0.265625,-1.015625 0.3125,-1.296875 0.046875,-0.125 0.328125,-0.59375 0.5625,-0.8125 0.078125,-0.0625 0.375,-0.328125 0.796875,-0.328125 0.265625,0 0.40625,0.125 0.421875,0.125 -0.296875,0.046875 -0.515625,0.28125 -0.515625,0.546875 0,0.15625 0.109375,0.34375 0.375,0.34375 0.265625,0 0.546875,-0.234375 0.546875,-0.59375 0,-0.34375 -0.3125,-0.640625 -0.828125,-0.640625 C 2.875,-4.40625 2.4375,-3.921875 2.25,-3.640625 2.15625,-4.09375 1.796875,-4.40625 1.328125,-4.40625 0.875,-4.40625 0.6875,-4.015625 0.59375,-3.84375 0.421875,-3.5 0.296875,-2.90625 0.296875,-2.875 c 0,0.109375 0.09375,0.109375 0.109375,0.109375 0.109375,0 0.109375,-0.015625 0.171875,-0.234375 0.171875,-0.703125 0.375,-1.1875 0.734375,-1.1875 0.15625,0 0.296875,0.078125 0.296875,0.453125 0,0.21875 -0.03125,0.328125 -0.15625,0.84375 z m 0,0"
                 id="id-6586972a-61b2-43cd-9bd1-8f280e90ced7" />
            </g>
          </g>
          <g
             style="fill:#000000;fill-opacity:1"
             id="id-0275073e-dc3b-4ca9-9eda-27db9d04a45c">
            <g
               id="g3926"
               transform="translate(173.509,136.259)">
              <path
                 style="stroke:none"
                 d="m 3.03125,-0.5625 c -0.046875,0.140625 -0.109375,0.375 -0.109375,0.40625 0,0.15625 0.125,0.21875 0.234375,0.21875 0.140625,0 0.25,-0.078125 0.28125,-0.140625 0.03125,-0.0625 0.09375,-0.296875 0.125,-0.4375 0.03125,-0.125 0.109375,-0.453125 0.15625,-0.625 0.03125,-0.15625 0.078125,-0.3125 0.109375,-0.46875 0.078125,-0.296875 0.078125,-0.3125 0.21875,-0.53125 C 4.265625,-2.484375 4.625,-2.875 5.15625,-2.875 c 0.390625,0 0.421875,0.3125 0.421875,0.484375 0,0.421875 -0.296875,1.1875 -0.421875,1.484375 -0.0625,0.203125 -0.09375,0.265625 -0.09375,0.375 0,0.375 0.296875,0.59375 0.65625,0.59375 0.703125,0 1,-0.953125 1,-1.0625 0,-0.09375 -0.078125,-0.09375 -0.109375,-0.09375 -0.09375,0 -0.09375,0.046875 -0.125,0.125 C 6.328125,-0.40625 6.015625,-0.125 5.75,-0.125 c -0.15625,0 -0.1875,-0.09375 -0.1875,-0.25 0,-0.15625 0.046875,-0.25 0.171875,-0.5625 0.078125,-0.21875 0.359375,-0.953125 0.359375,-1.34375 0,-0.109375 0,-0.40625 -0.25,-0.609375 -0.125,-0.078125 -0.328125,-0.1875 -0.65625,-0.1875 -0.625,0 -1,0.421875 -1.234375,0.703125 C 3.90625,-2.96875 3.40625,-3.078125 3.046875,-3.078125 2.46875,-3.078125 2.078125,-2.71875 1.875,-2.4375 1.828125,-2.921875 1.421875,-3.078125 1.125,-3.078125 c -0.296875,0 -0.453125,0.21875 -0.546875,0.375 -0.15625,0.265625 -0.25,0.65625 -0.25,0.703125 0,0.078125 0.09375,0.078125 0.125,0.078125 0.09375,0 0.09375,-0.015625 0.140625,-0.203125 0.109375,-0.40625 0.25,-0.75 0.515625,-0.75 0.1875,0 0.234375,0.15625 0.234375,0.34375 0,0.125 -0.0625,0.390625 -0.125,0.578125 -0.046875,0.1875 -0.109375,0.46875 -0.140625,0.625 L 0.84375,-0.4375 c -0.015625,0.09375 -0.0625,0.265625 -0.0625,0.28125 0,0.15625 0.125,0.21875 0.234375,0.21875 0.125,0 0.234375,-0.078125 0.28125,-0.140625 0.03125,-0.0625 0.078125,-0.296875 0.125,-0.4375 0.03125,-0.125 0.109375,-0.453125 0.140625,-0.625 0.046875,-0.15625 0.09375,-0.3125 0.125,-0.46875 0.078125,-0.28125 0.09375,-0.34375 0.296875,-0.625 C 2.171875,-2.515625 2.5,-2.875 3.03125,-2.875 c 0.390625,0 0.40625,0.359375 0.40625,0.484375 0,0.171875 -0.015625,0.265625 -0.125,0.65625 z m 0,0"
                 id="id-04b916c8-7c6c-49f3-a186-76effda220a7" />
            </g>
          </g>
        </g>
      </g>
    </g>
    <path
       d="m 123.59049,-108.586 a 70,70 0 0 1 -67.18407,-0.002"
       sodipodi:arc-type="arc"
       sodipodi:open="true"
       sodipodi:end="2.0713465"
       sodipodi:start="1.0702965"
       sodipodi:ry="70"
       sodipodi:rx="70"
       sodipodi:cy="-170"
       sodipodi:cx="90"
       sodipodi:type="arc"
       transform="scale(1,-1)"
       id="path4205"
       style="opacity:1;fill:none;fill-opacity:1;stroke:#000000;stroke-width:0.264999;stroke-miterlimit:4;stroke-dasharray:none;stroke-dashoffset:0" />
    <path
       d="M 161.04947,-38.894082 A 150,150 0 0 1 18.93078,-38.904709 L 90,-171 Z"
       sodipodi:arc-type="slice"
       sodipodi:end="2.0643913"
       sodipodi:start="1.0773509"
       sodipodi:ry="150"
       sodipodi:rx="150"
       sodipodi:cy="-171"
       sodipodi:cx="90"
       sodipodi:type="arc"
       transform="scale(1,-1)"
       id="path4207"
       style="opacity:1;fill:none;fill-opacity:1;stroke:#000000;stroke-width:0.264999;stroke-miterlimit:4;stroke-dasharray:none;stroke-dashoffset:0" />
    <path
       d="M 156.26704,-47.676523 A 140,140 0 0 1 23.7024,-47.692951"
       sodipodi:arc-type="arc"
       sodipodi:open="true"
       sodipodi:end="2.0641182"
       sodipodi:start="1.0777223"
       sodipodi:ry="140"
       sodipodi:rx="140"
       sodipodi:cy="-171"
       sodipodi:cx="90"
       sodipodi:type="arc"
       transform="scale(1,-1)"
       id="path4209"
       style="opacity:1;fill:none;fill-opacity:1;stroke:#000000;stroke-width:0.264999;stroke-miterlimit:4;stroke-dasharray:none;stroke-dashoffset:0" />
    <g
       transform="matrix(1.37583,0,0,1.37583,237.292,174.819)"
       ns2:version="1.0.1"
       ns2:texconverter="pdflatex"
       ns2:pdfconverter="inkscape"
       ns2:text="$x$"
       ns2:preamble="C:\\Users\\claum\\AppData\\Roaming\\inkscape\\extensions\\textext\\default_packages.tex"
       ns2:scale="3.9"
       ns2:alignment="middle center"
       ns2:jacobian_sqrt="1.37583"
       id="g4337">
      <defs
         id="id-20775949-a05e-4d79-9969-f829c22a1d66">
        <g
           id="id-59e9965b-b753-4d36-86f0-5f90052fbdb7">
          <symbol
             id="id-7d94330e-07d0-4c8b-98f8-3a87fc12de24"
             overflow="visible">
            <path
               id="id-56bcdaea-b234-4984-a703-05c0476e838b"
               d=""
               style="stroke:none" />
          </symbol>
          <symbol
             id="id-0ef2d199-ae01-4562-979e-d987aa2dc695"
             overflow="visible">
            <path
               id="id-27f66d3b-5c0f-4bf4-9240-1ea713260469"
               d="M 3.328125,-3.015625 C 3.390625,-3.265625 3.625,-4.1875 4.3125,-4.1875 c 0.046875,0 0.296875,0 0.5,0.125 C 4.53125,-4 4.34375,-3.765625 4.34375,-3.515625 c 0,0.15625 0.109375,0.34375 0.375,0.34375 0.21875,0 0.53125,-0.171875 0.53125,-0.578125 0,-0.515625 -0.578125,-0.65625 -0.921875,-0.65625 -0.578125,0 -0.921875,0.53125 -1.046875,0.75 -0.25,-0.65625 -0.78125,-0.75 -1.078125,-0.75 -1.03125,0 -1.609375,1.28125 -1.609375,1.53125 0,0.109375 0.109375,0.109375 0.125,0.109375 0.078125,0 0.109375,-0.03125 0.125,-0.109375 0.34375,-1.0625 1,-1.3125 1.34375,-1.3125 0.1875,0 0.53125,0.09375 0.53125,0.671875 0,0.3125 -0.171875,0.96875 -0.53125,2.375 -0.15625,0.609375 -0.515625,1.03125 -0.953125,1.03125 -0.0625,0 -0.28125,0 -0.5,-0.125 0.25,-0.0625 0.46875,-0.265625 0.46875,-0.546875 0,-0.265625 -0.21875,-0.34375 -0.359375,-0.34375 -0.3125,0 -0.546875,0.25 -0.546875,0.578125 0,0.453125 0.484375,0.65625 0.921875,0.65625 0.671875,0 1.03125,-0.703125 1.046875,-0.75 0.125,0.359375 0.484375,0.75 1.078125,0.75 1.03125,0 1.59375,-1.28125 1.59375,-1.53125 0,-0.109375 -0.078125,-0.109375 -0.109375,-0.109375 -0.09375,0 -0.109375,0.046875 -0.140625,0.109375 -0.328125,1.078125 -1,1.3125 -1.3125,1.3125 -0.390625,0 -0.546875,-0.3125 -0.546875,-0.65625 0,-0.21875 0.046875,-0.4375 0.15625,-0.875 z m 0,0"
               style="stroke:none" />
          </symbol>
        </g>
      </defs>
      <g
         transform="translate(-149.009,-130.359)"
         id="id-8a7bc885-358a-4f4e-8489-74cec5d3d2a1">
        <g
           id="id-9c4c67db-0a08-48c8-9a74-04b3fc0b6619"
           style="fill:#000000;fill-opacity:1">
          <g
             transform="translate(148.712,134.765)"
             id="g4333">
            <path
               id="id-da18d7b7-5e7c-447f-9acb-b305dbf15b99"
               d="M 3.328125,-3.015625 C 3.390625,-3.265625 3.625,-4.1875 4.3125,-4.1875 c 0.046875,0 0.296875,0 0.5,0.125 C 4.53125,-4 4.34375,-3.765625 4.34375,-3.515625 c 0,0.15625 0.109375,0.34375 0.375,0.34375 0.21875,0 0.53125,-0.171875 0.53125,-0.578125 0,-0.515625 -0.578125,-0.65625 -0.921875,-0.65625 -0.578125,0 -0.921875,0.53125 -1.046875,0.75 -0.25,-0.65625 -0.78125,-0.75 -1.078125,-0.75 -1.03125,0 -1.609375,1.28125 -1.609375,1.53125 0,0.109375 0.109375,0.109375 0.125,0.109375 0.078125,0 0.109375,-0.03125 0.125,-0.109375 0.34375,-1.0625 1,-1.3125 1.34375,-1.3125 0.1875,0 0.53125,0.09375 0.53125,0.671875 0,0.3125 -0.171875,0.96875 -0.53125,2.375 -0.15625,0.609375 -0.515625,1.03125 -0.953125,1.03125 -0.0625,0 -0.28125,0 -0.5,-0.125 0.25,-0.0625 0.46875,-0.265625 0.46875,-0.546875 0,-0.265625 -0.21875,-0.34375 -0.359375,-0.34375 -0.3125,0 -0.546875,0.25 -0.546875,0.578125 0,0.453125 0.484375,0.65625 0.921875,0.65625 0.671875,0 1.03125,-0.703125 1.046875,-0.75 0.125,0.359375 0.484375,0.75 1.078125,0.75 1.03125,0 1.59375,-1.28125 1.59375,-1.53125 0,-0.109375 -0.078125,-0.109375 -0.109375,-0.109375 -0.09375,0 -0.109375,0.046875 -0.140625,0.109375 -0.328125,1.078125 -1,1.3125 -1.3125,1.3125 -0.390625,0 -0.546875,-0.3125 -0.546875,-0.65625 0,-0.21875 0.046875,-0.4375 0.15625,-0.875 z m 0,0"
               style="stroke:none" />
          </g>
        </g>
      </g>
    </g>
    <g
       transform="matrix(1.37583,0,0,1.37583,80.872682,1.4110346)"
       ns2:version="1.0.1"
       ns2:texconverter="pdflatex"
       ns2:pdfconverter="inkscape"
       ns2:text="$y$"
       ns2:preamble="C:\\Users\\claum\\AppData\\Roaming\\inkscape\\extensions\\textext\\default_packages.tex"
       ns2:scale="3.9"
       ns2:alignment="middle center"
       ns2:jacobian_sqrt="1.37583"
       id="g4630">
      <defs
         id="id-53cc0147-c482-4dcf-9584-d808a9cc040b">
        <g
           id="id-4ca4edef-c605-4bf6-884b-b702cd25861e">
          <symbol
             id="id-be9894a5-f1d0-428d-8fdc-a9c02ebad238"
             overflow="visible">
            <path
               id="id-c373a709-b3a9-48b2-877e-6b473ec6bce2"
               d=""
               style="stroke:none" />
          </symbol>
          <symbol
             id="id-30d6fa30-dfad-4ed9-a79f-feb90944e5c8"
             overflow="visible">
            <path
               id="id-a576d4ec-a3e1-487e-a9b5-35c4c525257e"
               d="m 4.84375,-3.796875 c 0.046875,-0.140625 0.046875,-0.15625 0.046875,-0.234375 0,-0.171875 -0.140625,-0.265625 -0.296875,-0.265625 -0.09375,0 -0.25,0.0625 -0.34375,0.203125 -0.015625,0.0625 -0.109375,0.359375 -0.140625,0.546875 -0.078125,0.25 -0.140625,0.53125 -0.203125,0.796875 l -0.453125,1.796875 c -0.03125,0.140625 -0.46875,0.84375 -1.125,0.84375 -0.5,0 -0.609375,-0.4375 -0.609375,-0.8125 C 1.71875,-1.375 1.890625,-2 2.21875,-2.875 2.375,-3.28125 2.421875,-3.390625 2.421875,-3.59375 c 0,-0.4375 -0.3125,-0.8125 -0.8125,-0.8125 -0.953125,0 -1.3125,1.453125 -1.3125,1.53125 0,0.109375 0.09375,0.109375 0.109375,0.109375 0.109375,0 0.109375,-0.03125 0.15625,-0.1875 0.28125,-0.9375 0.671875,-1.234375 1.015625,-1.234375 0.078125,0 0.25,0 0.25,0.3125 0,0.25 -0.109375,0.515625 -0.171875,0.703125 -0.40625,1.0625 -0.578125,1.625 -0.578125,2.09375 0,0.890625 0.625,1.1875 1.21875,1.1875 0.390625,0 0.71875,-0.171875 1,-0.453125 -0.125,0.515625 -0.25,1.015625 -0.640625,1.546875 -0.265625,0.328125 -0.640625,0.625 -1.09375,0.625 -0.140625,0 -0.59375,-0.03125 -0.765625,-0.421875 0.15625,0 0.296875,0 0.421875,-0.125 C 1.328125,1.203125 1.421875,1.0625 1.421875,0.875 1.421875,0.5625 1.15625,0.53125 1.0625,0.53125 0.828125,0.53125 0.5,0.6875 0.5,1.171875 c 0,0.5 0.4375,0.875 1.0625,0.875 1.015625,0 2.046875,-0.90625 2.328125,-2.03125 z m 0,0"
               style="stroke:none" />
          </symbol>
        </g>
      </defs>
      <g
         transform="translate(-149.009,-130.359)"
         id="id-8c57f78a-7761-4b06-a683-7354da000be4">
        <g
           id="id-8685848d-9bdf-4ea9-9e4b-55be6ec349e7"
           style="fill:#000000;fill-opacity:1">
          <g
             transform="translate(148.712,134.765)"
             id="g4626">
            <path
               id="id-7c78ee01-c325-4427-8ac1-070533d2213d"
               d="m 4.84375,-3.796875 c 0.046875,-0.140625 0.046875,-0.15625 0.046875,-0.234375 0,-0.171875 -0.140625,-0.265625 -0.296875,-0.265625 -0.09375,0 -0.25,0.0625 -0.34375,0.203125 -0.015625,0.0625 -0.109375,0.359375 -0.140625,0.546875 -0.078125,0.25 -0.140625,0.53125 -0.203125,0.796875 l -0.453125,1.796875 c -0.03125,0.140625 -0.46875,0.84375 -1.125,0.84375 -0.5,0 -0.609375,-0.4375 -0.609375,-0.8125 C 1.71875,-1.375 1.890625,-2 2.21875,-2.875 2.375,-3.28125 2.421875,-3.390625 2.421875,-3.59375 c 0,-0.4375 -0.3125,-0.8125 -0.8125,-0.8125 -0.953125,0 -1.3125,1.453125 -1.3125,1.53125 0,0.109375 0.09375,0.109375 0.109375,0.109375 0.109375,0 0.109375,-0.03125 0.15625,-0.1875 0.28125,-0.9375 0.671875,-1.234375 1.015625,-1.234375 0.078125,0 0.25,0 0.25,0.3125 0,0.25 -0.109375,0.515625 -0.171875,0.703125 -0.40625,1.0625 -0.578125,1.625 -0.578125,2.09375 0,0.890625 0.625,1.1875 1.21875,1.1875 0.390625,0 0.71875,-0.171875 1,-0.453125 -0.125,0.515625 -0.25,1.015625 -0.640625,1.546875 -0.265625,0.328125 -0.640625,0.625 -1.09375,0.625 -0.140625,0 -0.59375,-0.03125 -0.765625,-0.421875 0.15625,0 0.296875,0 0.421875,-0.125 C 1.328125,1.203125 1.421875,1.0625 1.421875,0.875 1.421875,0.5625 1.15625,0.53125 1.0625,0.53125 0.828125,0.53125 0.5,0.6875 0.5,1.171875 c 0,0.5 0.4375,0.875 1.0625,0.875 1.015625,0 2.046875,-0.90625 2.328125,-2.03125 z m 0,0"
               style="stroke:none" />
          </g>
        </g>
      </g>
    </g>
  </g>
</svg>
