<?xml version="1.0" encoding="UTF-8" standalone="no"?>
<svg
   xmlns:ns2="http://www.iki.fi/pav/software/textext/"
   xmlns:dc="http://purl.org/dc/elements/1.1/"
   xmlns:cc="http://creativecommons.org/ns#"
   xmlns:rdf="http://www.w3.org/1999/02/22-rdf-syntax-ns#"
   xmlns:svg="http://www.w3.org/2000/svg"
   xmlns="http://www.w3.org/2000/svg"
   xmlns:sodipodi="http://sodipodi.sourceforge.net/DTD/sodipodi-0.dtd"
   xmlns:inkscape="http://www.inkscape.org/namespaces/inkscape"
   sodipodi:docname="Figura3_7.svg"
   inkscape:version="1.0 (4035a4fb49, 2020-05-01)"
   id="svg3720"
   version="1.1"
   viewBox="0 0 330 345"
   height="34.5cm"
   width="33cm">
  <defs
     id="defs3714">
    <marker
       inkscape:isstock="true"
       style="overflow:visible"
       id="Arrow1Lstart"
       refX="0"
       refY="0"
       orient="auto"
       inkscape:stockid="Arrow1Lstart">
      <path
         transform="matrix(0.8,0,0,0.8,10,0)"
         style="fill:#000000;fill-opacity:1;fill-rule:evenodd;stroke:#000000;stroke-width:1pt;stroke-opacity:1"
         d="M 0,0 5,-5 -12.5,0 5,5 Z"
         id="path1803" />
    </marker>
    <marker
       inkscape:isstock="true"
       style="overflow:visible"
       id="marker4427"
       refX="0"
       refY="0"
       orient="auto"
       inkscape:stockid="Arrow1Lend">
      <path
         transform="matrix(-0.8,0,0,-0.8,-10,0)"
         style="fill:#000000;fill-opacity:1;fill-rule:evenodd;stroke:#000000;stroke-width:1pt;stroke-opacity:1"
         d="M 0,0 5,-5 -12.5,0 5,5 Z"
         id="path4425" />
    </marker>
    <marker
       inkscape:collect="always"
       inkscape:stockid="Arrow1Lend"
       orient="auto"
       refY="0"
       refX="0"
       id="marker4365"
       style="overflow:visible"
       inkscape:isstock="true">
      <path
         id="path4363"
         d="M 0,0 5,-5 -12.5,0 5,5 Z"
         style="fill:#000000;fill-opacity:1;fill-rule:evenodd;stroke:#000000;stroke-width:1pt;stroke-opacity:1"
         transform="matrix(-0.8,0,0,-0.8,-10,0)" />
    </marker>
    <marker
       inkscape:stockid="Arrow1Lend"
       orient="auto"
       refY="0"
       refX="0"
       id="marker4305"
       style="overflow:visible"
       inkscape:isstock="true">
      <path
         id="path4303"
         d="M 0,0 5,-5 -12.5,0 5,5 Z"
         style="fill:#000000;fill-opacity:1;fill-rule:evenodd;stroke:#000000;stroke-width:1pt;stroke-opacity:1"
         transform="matrix(-0.8,0,0,-0.8,-10,0)" />
    </marker>
    <marker
       inkscape:collect="always"
       inkscape:isstock="true"
       style="overflow:visible"
       id="Arrow1Lend"
       refX="0"
       refY="0"
       orient="auto"
       inkscape:stockid="Arrow1Lend">
      <path
         transform="matrix(-0.8,0,0,-0.8,-10,0)"
         style="fill:#000000;fill-opacity:1;fill-rule:evenodd;stroke:#000000;stroke-width:1pt;stroke-opacity:1"
         d="M 0,0 5,-5 -12.5,0 5,5 Z"
         id="path1806" />
    </marker>
  </defs>
  <sodipodi:namedview
     inkscape:window-maximized="0"
     inkscape:window-y="0"
     inkscape:window-x="0"
     inkscape:window-height="738"
     inkscape:window-width="1366"
     units="cm"
     showgrid="true"
     inkscape:document-rotation="0"
     inkscape:current-layer="layer1"
     inkscape:document-units="mm"
     inkscape:cy="508.65927"
     inkscape:cx="512.29402"
     inkscape:zoom="0.35"
     inkscape:pageshadow="2"
     inkscape:pageopacity="0.0"
     borderopacity="1.0"
     bordercolor="#666666"
     pagecolor="#ffffff"
     id="base">
    <inkscape:grid
       units="cm"
       id="grid3722"
       type="xygrid" />
  </sodipodi:namedview>
  <metadata
     id="metadata3717">
    <rdf:RDF>
      <cc:Work
         rdf:about="">
        <dc:format>image/svg+xml</dc:format>
        <dc:type
           rdf:resource="http://purl.org/dc/dcmitype/StillImage" />
        <dc:title></dc:title>
      </cc:Work>
    </rdf:RDF>
  </metadata>
  <g
     id="layer1"
     inkscape:groupmode="layer"
     inkscape:label="Livello 1">
    <g
       transform="translate(40,-15)"
       id="g4560">
      <path
         style="fill:none;stroke:#000000;stroke-width:0.265;stroke-linecap:butt;stroke-linejoin:miter;stroke-miterlimit:4;stroke-dasharray:none;stroke-opacity:1;marker-end:url(#Arrow1Lend)"
         d="M 0,319.99999 V 20"
         id="path3724" />
      <path
         sodipodi:nodetypes="cc"
         id="path4301"
         d="M 0,320 H 281"
         style="fill:none;stroke:#000000;stroke-width:0.265;stroke-linecap:butt;stroke-linejoin:miter;stroke-miterlimit:4;stroke-dasharray:none;stroke-opacity:1;marker-end:url(#marker4305)" />
      <path
         style="fill:none;stroke:#000000;stroke-width:0.264583px;stroke-linecap:butt;stroke-linejoin:miter;stroke-opacity:1"
         d="M 279.99999,60 H 0 v 260 z"
         id="path4353"
         sodipodi:nodetypes="cc" />
      <path
         id="path4361"
         d="M 93.3,320 V 20"
         style="fill:none;stroke:#000000;stroke-width:0.265;stroke-linecap:butt;stroke-linejoin:miter;stroke-miterlimit:4;stroke-dasharray:none;stroke-opacity:1;marker-end:url(#marker4365)"
         sodipodi:nodetypes="cc" />
      <path
         style="fill:none;stroke:#000000;stroke-width:0.264583px;stroke-linecap:butt;stroke-linejoin:miter;stroke-opacity:1"
         d="M -30,59.999998 V 319.99999"
         id="path4421" />
      <path
         id="path4423"
         d="M 280,146.6 H 0"
         style="fill:none;stroke:#000000;stroke-width:0.264583px;stroke-linecap:butt;stroke-linejoin:miter;stroke-opacity:1;marker-start:url(#Arrow1Lstart)"
         sodipodi:nodetypes="cc" />
      <path
         style="fill:none;stroke:#000000;stroke-width:0.264583px;stroke-linecap:butt;stroke-linejoin:miter;stroke-opacity:1"
         d="M 0,350 H 279.99999"
         id="path4515" />
      <path
         style="fill:none;stroke:#000000;stroke-width:0.264583px;stroke-linecap:butt;stroke-linejoin:miter;stroke-opacity:1"
         d="M -39.999999,330 -20,309.99998"
         id="path4517" />
      <path
         style="fill:none;stroke:#000000;stroke-width:0.264583px;stroke-linecap:butt;stroke-linejoin:miter;stroke-opacity:1"
         d="M -10,359.99999 10,340"
         id="path4519" />
      <path
         style="fill:none;stroke:#000000;stroke-width:0.264583px;stroke-linecap:butt;stroke-linejoin:miter;stroke-opacity:1"
         d="M 269.99999,359.99999 290,340"
         id="path4521" />
      <path
         style="fill:none;stroke:#000000;stroke-width:0.264583px;stroke-linecap:butt;stroke-linejoin:miter;stroke-opacity:1"
         d="M -39.999999,69.999999 -20,50"
         id="path4523" />
    </g>
    <path
       transform="scale(0.26458333)"
       id="path4616"
       d="M 153.94386,824.10678 V 500.64275 H 328.22957 502.51529 V 661.98693 823.33112 L 341.801,972.41847 C 253.40815,1054.4165 174.97957,1127.3704 167.51529,1134.5383 l -13.57143,13.0325 z"
       style="fill:#000000;stroke:#000000;stroke-width:2.86164;stroke-miterlimit:4;stroke-dasharray:none;opacity:0.1" />
    <path
       transform="scale(0.26458333)"
       id="path4618"
       d="M 153.94386,333.49989 V 172.07132 H 328.22957 502.51529 V 333.49989 494.92847 H 328.22957 153.94386 Z"
       style="opacity:0.1;fill:#000000;stroke:#000000;stroke-width:2.86164;stroke-miterlimit:4;stroke-dasharray:none" />
    <path
       transform="scale(0.26458333)"
       id="path4620"
       d="M 505.37243,333.49989 V 172.07132 H 854.6032 1203.834 l -8.5165,8.23407 c -4.6841,4.52873 -82.851,77.17159 -173.7042,161.42857 L 856.42566,494.92847 H 680.89905 505.37243 Z"
       style="opacity:0.1;fill:#000000;stroke:#000000;stroke-width:2.86164;stroke-miterlimit:4;stroke-dasharray:none" />
    <path
       transform="scale(0.26458333)"
       id="path4622"
       d="M 505.37243,661.2745 V 500.64275 h 172.10526 172.10526 l -12.81955,12.44544 c -7.05074,6.84499 -76.4624,71.32367 -154.24811,143.28595 -77.78572,71.96228 -149.46429,138.64613 -159.28572,148.1863 l -17.85714,17.3458 z"
       style="opacity:0.1;fill:#000000;stroke:#000000;stroke-width:2.86164;stroke-miterlimit:4;stroke-dasharray:none" />
    <circle
       r="3"
       cy="131.5984"
       cx="133.29529"
       id="path4624"
       style="opacity:1;fill:#000000;stroke:#000000;stroke-width:0.264999;stroke-miterlimit:4;stroke-dasharray:none" />
    <g
       transform="matrix(1.34056,0,0,1.34056,173.42937,320.83153)"
       ns2:version="1.0.1"
       ns2:texconverter="pdflatex"
       ns2:pdfconverter="inkscape"
       ns2:text="$b$"
       ns2:preamble="C:\\Users\\claum\\AppData\\Roaming\\inkscape\\extensions\\textext\\default_packages.tex"
       ns2:scale="3.8"
       ns2:alignment="middle center"
       ns2:inkscapeversion="1.0"
       ns2:jacobian_sqrt="1.34056"
       id="g4668">
      <defs
         id="id-a3c7d095-7ac7-4b8b-a6f8-bc0047327839">
        <g
           id="id-4c8d0b57-e5f6-4563-99b7-074361006f1f">
          <symbol
             id="id-62fb85ca-3738-4582-80c1-01508e9d4676"
             overflow="visible">
            <path
               id="id-da6829fa-00fb-49b9-9b14-058fd145948b"
               d=""
               style="stroke:none" />
          </symbol>
          <symbol
             id="id-0fccbec5-4d84-4188-9085-c80f3ce27e6b"
             overflow="visible">
            <path
               id="id-004a0229-a055-4773-9b4e-d371955571d0"
               d="m 2.375,-6.8125 c 0,0 0,-0.109375 -0.125,-0.109375 -0.21875,0 -0.953125,0.078125 -1.21875,0.109375 -0.078125,0 -0.1875,0.015625 -0.1875,0.1875 0,0.125 0.09375,0.125 0.25,0.125 0.46875,0 0.484375,0.0625 0.484375,0.171875 0,0.0625 -0.078125,0.40625 -0.125,0.609375 l -0.828125,3.25 c -0.109375,0.5 -0.15625,0.671875 -0.15625,1.015625 0,0.9375 0.53125,1.5625 1.265625,1.5625 1.171875,0 2.40625,-1.484375 2.40625,-2.921875 0,-0.90625 -0.53125,-1.59375 -1.328125,-1.59375 -0.453125,0 -0.875,0.296875 -1.171875,0.59375 z M 1.453125,-3.046875 C 1.5,-3.265625 1.5,-3.28125 1.59375,-3.390625 2.078125,-4.03125 2.53125,-4.1875 2.796875,-4.1875 c 0.359375,0 0.625,0.296875 0.625,0.9375 0,0.59375 -0.328125,1.734375 -0.515625,2.109375 -0.328125,0.671875 -0.78125,1.03125 -1.171875,1.03125 -0.34375,0 -0.671875,-0.265625 -0.671875,-1 0,-0.203125 0,-0.390625 0.15625,-1.015625 z m 0,0"
               style="stroke:none" />
          </symbol>
        </g>
      </defs>
      <g
         transform="translate(-149.181,-127.843)"
         id="id-8fd415a4-f437-421f-b186-031251ab7305">
        <g
           id="id-43b9b29d-816a-4338-9b8a-e059cfe68531"
           style="fill:#000000;fill-opacity:1">
          <g
             transform="translate(148.712,134.765)"
             id="g4664">
            <path
               id="id-57b54acc-acf5-4c3e-945f-ce9ecbfe3858"
               d="m 2.375,-6.8125 c 0,0 0,-0.109375 -0.125,-0.109375 -0.21875,0 -0.953125,0.078125 -1.21875,0.109375 -0.078125,0 -0.1875,0.015625 -0.1875,0.1875 0,0.125 0.09375,0.125 0.25,0.125 0.46875,0 0.484375,0.0625 0.484375,0.171875 0,0.0625 -0.078125,0.40625 -0.125,0.609375 l -0.828125,3.25 c -0.109375,0.5 -0.15625,0.671875 -0.15625,1.015625 0,0.9375 0.53125,1.5625 1.265625,1.5625 1.171875,0 2.40625,-1.484375 2.40625,-2.921875 0,-0.90625 -0.53125,-1.59375 -1.328125,-1.59375 -0.453125,0 -0.875,0.296875 -1.171875,0.59375 z M 1.453125,-3.046875 C 1.5,-3.265625 1.5,-3.28125 1.59375,-3.390625 2.078125,-4.03125 2.53125,-4.1875 2.796875,-4.1875 c 0.359375,0 0.625,0.296875 0.625,0.9375 0,0.59375 -0.328125,1.734375 -0.515625,2.109375 -0.328125,0.671875 -0.78125,1.03125 -1.171875,1.03125 -0.34375,0 -0.671875,-0.265625 -0.671875,-1 0,-0.203125 0,-0.390625 0.15625,-1.015625 z m 0,0"
               style="stroke:none" />
          </g>
        </g>
      </g>
    </g>
    <g
       transform="matrix(1.34056,0,0,1.34056,17.277155,165.87342)"
       ns2:version="1.0.1"
       ns2:texconverter="pdflatex"
       ns2:pdfconverter="inkscape"
       ns2:text="$h$"
       ns2:preamble="C:\\Users\\claum\\AppData\\Roaming\\inkscape\\extensions\\textext\\default_packages.tex"
       ns2:scale="3.8"
       ns2:alignment="middle center"
       ns2:inkscapeversion="1.0"
       ns2:jacobian_sqrt="1.34056"
       id="g4737">
      <defs
         id="id-300b6b8e-6b03-40ef-a413-18dec227ced1">
        <g
           id="id-1b0473d9-072a-4ac6-9faf-f944fbae2e6f">
          <symbol
             id="id-821a9343-dea6-40fb-869d-5c974ed87629"
             overflow="visible">
            <path
               id="id-d8b36abf-12b1-4dd6-9a57-32a55764c7fa"
               d=""
               style="stroke:none" />
          </symbol>
          <symbol
             id="id-c1ead022-af36-4030-9930-fa9c8d687598"
             overflow="visible">
            <path
               id="id-ff175e36-569a-4876-a277-c988ed61ba3a"
               d="m 2.859375,-6.8125 c 0,0 0,-0.109375 -0.125,-0.109375 -0.234375,0 -0.953125,0.078125 -1.21875,0.109375 -0.078125,0 -0.1875,0.015625 -0.1875,0.1875 0,0.125 0.09375,0.125 0.234375,0.125 0.484375,0 0.5,0.0625 0.5,0.171875 L 2.03125,-6.125 0.59375,-0.390625 c -0.046875,0.140625 -0.046875,0.15625 -0.046875,0.21875 0,0.234375 0.203125,0.28125 0.296875,0.28125 0.15625,0 0.3125,-0.125 0.359375,-0.265625 l 0.1875,-0.75 0.21875,-0.890625 C 1.671875,-2.03125 1.734375,-2.25 1.78125,-2.46875 1.796875,-2.53125 1.890625,-2.859375 1.890625,-2.921875 1.921875,-3.015625 2.234375,-3.5625 2.578125,-3.84375 2.796875,-4 3.09375,-4.1875 3.53125,-4.1875 c 0.421875,0 0.53125,0.34375 0.53125,0.703125 0,0.53125 -0.375,1.625 -0.609375,2.234375 C 3.375,-1.03125 3.3125,-0.90625 3.3125,-0.703125 c 0,0.46875 0.359375,0.8125 0.828125,0.8125 0.9375,0 1.296875,-1.453125 1.296875,-1.53125 0,-0.109375 -0.078125,-0.109375 -0.109375,-0.109375 -0.109375,0 -0.109375,0.03125 -0.15625,0.1875 -0.140625,0.53125 -0.46875,1.234375 -1.015625,1.234375 -0.171875,0 -0.234375,-0.09375 -0.234375,-0.328125 0,-0.25 0.078125,-0.484375 0.171875,-0.703125 0.15625,-0.4375 0.609375,-1.625 0.609375,-2.203125 0,-0.640625 -0.390625,-1.0625 -1.140625,-1.0625 -0.625,0 -1.109375,0.3125 -1.484375,0.765625 z m 0,0"
               style="stroke:none" />
          </symbol>
        </g>
      </defs>
      <g
         transform="translate(-149.259,-127.843)"
         id="id-562818da-829a-4674-aab7-dd2f1e16bbe5">
        <g
           id="id-1207c9a7-91ad-4660-bd20-1cfb4a145622"
           style="fill:#000000;fill-opacity:1">
          <g
             transform="translate(148.712,134.765)"
             id="g4733">
            <path
               id="id-1b52b354-45f9-4a45-a631-27ed32c25fa6"
               d="m 2.859375,-6.8125 c 0,0 0,-0.109375 -0.125,-0.109375 -0.234375,0 -0.953125,0.078125 -1.21875,0.109375 -0.078125,0 -0.1875,0.015625 -0.1875,0.1875 0,0.125 0.09375,0.125 0.234375,0.125 0.484375,0 0.5,0.0625 0.5,0.171875 L 2.03125,-6.125 0.59375,-0.390625 c -0.046875,0.140625 -0.046875,0.15625 -0.046875,0.21875 0,0.234375 0.203125,0.28125 0.296875,0.28125 0.15625,0 0.3125,-0.125 0.359375,-0.265625 l 0.1875,-0.75 0.21875,-0.890625 C 1.671875,-2.03125 1.734375,-2.25 1.78125,-2.46875 1.796875,-2.53125 1.890625,-2.859375 1.890625,-2.921875 1.921875,-3.015625 2.234375,-3.5625 2.578125,-3.84375 2.796875,-4 3.09375,-4.1875 3.53125,-4.1875 c 0.421875,0 0.53125,0.34375 0.53125,0.703125 0,0.53125 -0.375,1.625 -0.609375,2.234375 C 3.375,-1.03125 3.3125,-0.90625 3.3125,-0.703125 c 0,0.46875 0.359375,0.8125 0.828125,0.8125 0.9375,0 1.296875,-1.453125 1.296875,-1.53125 0,-0.109375 -0.078125,-0.109375 -0.109375,-0.109375 -0.109375,0 -0.109375,0.03125 -0.15625,0.1875 -0.140625,0.53125 -0.46875,1.234375 -1.015625,1.234375 -0.171875,0 -0.234375,-0.09375 -0.234375,-0.328125 0,-0.25 0.078125,-0.484375 0.171875,-0.703125 0.15625,-0.4375 0.609375,-1.625 0.609375,-2.203125 0,-0.640625 -0.390625,-1.0625 -1.140625,-1.0625 -0.625,0 -1.109375,0.3125 -1.484375,0.765625 z m 0,0"
               style="stroke:none" />
          </g>
        </g>
      </g>
    </g>
    <g
       transform="matrix(1.34056,0,0,1.34056,314.36094,307.95229)"
       ns2:version="1.0.1"
       ns2:texconverter="pdflatex"
       ns2:pdfconverter="inkscape"
       ns2:text="$x$"
       ns2:preamble="C:\\Users\\claum\\AppData\\Roaming\\inkscape\\extensions\\textext\\default_packages.tex"
       ns2:scale="3.8"
       ns2:alignment="middle center"
       ns2:inkscapeversion="1.0"
       ns2:jacobian_sqrt="1.34056"
       id="g4817">
      <defs
         id="id-fc5b5872-9244-4d0c-b496-84e3946f6774">
        <g
           id="id-7c080f3e-def4-4044-9071-12df1839144e">
          <symbol
             id="id-2543efea-8190-4195-99fc-5cbb0c646466"
             overflow="visible">
            <path
               id="id-43dd1914-94ee-4e2f-ad36-3625c2f9a5e3"
               d=""
               style="stroke:none" />
          </symbol>
          <symbol
             id="id-f53e5c37-9611-4ee3-88af-98c5f52a0216"
             overflow="visible">
            <path
               id="id-3162ed46-0701-4df4-aa1c-90788b7f76bb"
               d="M 3.328125,-3.015625 C 3.390625,-3.265625 3.625,-4.1875 4.3125,-4.1875 c 0.046875,0 0.296875,0 0.5,0.125 C 4.53125,-4 4.34375,-3.765625 4.34375,-3.515625 c 0,0.15625 0.109375,0.34375 0.375,0.34375 0.21875,0 0.53125,-0.171875 0.53125,-0.578125 0,-0.515625 -0.578125,-0.65625 -0.921875,-0.65625 -0.578125,0 -0.921875,0.53125 -1.046875,0.75 -0.25,-0.65625 -0.78125,-0.75 -1.078125,-0.75 -1.03125,0 -1.609375,1.28125 -1.609375,1.53125 0,0.109375 0.109375,0.109375 0.125,0.109375 0.078125,0 0.109375,-0.03125 0.125,-0.109375 0.34375,-1.0625 1,-1.3125 1.34375,-1.3125 0.1875,0 0.53125,0.09375 0.53125,0.671875 0,0.3125 -0.171875,0.96875 -0.53125,2.375 -0.15625,0.609375 -0.515625,1.03125 -0.953125,1.03125 -0.0625,0 -0.28125,0 -0.5,-0.125 0.25,-0.0625 0.46875,-0.265625 0.46875,-0.546875 0,-0.265625 -0.21875,-0.34375 -0.359375,-0.34375 -0.3125,0 -0.546875,0.25 -0.546875,0.578125 0,0.453125 0.484375,0.65625 0.921875,0.65625 0.671875,0 1.03125,-0.703125 1.046875,-0.75 0.125,0.359375 0.484375,0.75 1.078125,0.75 1.03125,0 1.59375,-1.28125 1.59375,-1.53125 0,-0.109375 -0.078125,-0.109375 -0.109375,-0.109375 -0.09375,0 -0.109375,0.046875 -0.140625,0.109375 -0.328125,1.078125 -1,1.3125 -1.3125,1.3125 -0.390625,0 -0.546875,-0.3125 -0.546875,-0.65625 0,-0.21875 0.046875,-0.4375 0.15625,-0.875 z m 0,0"
               style="stroke:none" />
          </symbol>
        </g>
      </defs>
      <g
         transform="translate(-149.009,-130.359)"
         id="id-83283a7a-b592-4b3e-a843-ada9fe7cacd9">
        <g
           id="id-a9544d62-0271-4a14-88a4-10e6b660d2cf"
           style="fill:#000000;fill-opacity:1">
          <g
             transform="translate(148.712,134.765)"
             id="g4813">
            <path
               id="id-4979f303-a4b6-4f4f-99b0-7dce2289818e"
               d="M 3.328125,-3.015625 C 3.390625,-3.265625 3.625,-4.1875 4.3125,-4.1875 c 0.046875,0 0.296875,0 0.5,0.125 C 4.53125,-4 4.34375,-3.765625 4.34375,-3.515625 c 0,0.15625 0.109375,0.34375 0.375,0.34375 0.21875,0 0.53125,-0.171875 0.53125,-0.578125 0,-0.515625 -0.578125,-0.65625 -0.921875,-0.65625 -0.578125,0 -0.921875,0.53125 -1.046875,0.75 -0.25,-0.65625 -0.78125,-0.75 -1.078125,-0.75 -1.03125,0 -1.609375,1.28125 -1.609375,1.53125 0,0.109375 0.109375,0.109375 0.125,0.109375 0.078125,0 0.109375,-0.03125 0.125,-0.109375 0.34375,-1.0625 1,-1.3125 1.34375,-1.3125 0.1875,0 0.53125,0.09375 0.53125,0.671875 0,0.3125 -0.171875,0.96875 -0.53125,2.375 -0.15625,0.609375 -0.515625,1.03125 -0.953125,1.03125 -0.0625,0 -0.28125,0 -0.5,-0.125 0.25,-0.0625 0.46875,-0.265625 0.46875,-0.546875 0,-0.265625 -0.21875,-0.34375 -0.359375,-0.34375 -0.3125,0 -0.546875,0.25 -0.546875,0.578125 0,0.453125 0.484375,0.65625 0.921875,0.65625 0.671875,0 1.03125,-0.703125 1.046875,-0.75 0.125,0.359375 0.484375,0.75 1.078125,0.75 1.03125,0 1.59375,-1.28125 1.59375,-1.53125 0,-0.109375 -0.078125,-0.109375 -0.109375,-0.109375 -0.09375,0 -0.109375,0.046875 -0.140625,0.109375 -0.328125,1.078125 -1,1.3125 -1.3125,1.3125 -0.390625,0 -0.546875,-0.3125 -0.546875,-0.65625 0,-0.21875 0.046875,-0.4375 0.15625,-0.875 z m 0,0"
               style="stroke:none" />
          </g>
        </g>
      </g>
    </g>
    <g
       transform="matrix(1.34056,0,0,1.34056,314.36094,133.95229)"
       ns2:version="1.0.1"
       ns2:texconverter="pdflatex"
       ns2:pdfconverter="inkscape"
       ns2:text="$x_0$"
       ns2:preamble="C:\\Users\\claum\\AppData\\Roaming\\inkscape\\extensions\\textext\\default_packages.tex"
       ns2:scale="3.8"
       ns2:alignment="middle center"
       ns2:inkscapeversion="1.0"
       ns2:jacobian_sqrt="1.34056"
       id="g4916">
      <defs
         id="id-162f6ceb-476f-4a98-ba1b-924155fb03dd">
        <g
           id="id-53c7a935-e75c-434a-9751-5ab6bfa109d1">
          <symbol
             id="id-1af19885-8873-4965-ba18-a164a7091545"
             overflow="visible">
            <path
               id="id-2bf3f8c9-7a27-4288-876f-cf53e92103e8"
               d=""
               style="stroke:none" />
          </symbol>
          <symbol
             id="id-df5ba758-5aa9-4300-855a-8f7d41298644"
             overflow="visible">
            <path
               id="id-ecff351f-61c3-4a67-bf7b-eb9fbb90b851"
               d="M 3.328125,-3.015625 C 3.390625,-3.265625 3.625,-4.1875 4.3125,-4.1875 c 0.046875,0 0.296875,0 0.5,0.125 C 4.53125,-4 4.34375,-3.765625 4.34375,-3.515625 c 0,0.15625 0.109375,0.34375 0.375,0.34375 0.21875,0 0.53125,-0.171875 0.53125,-0.578125 0,-0.515625 -0.578125,-0.65625 -0.921875,-0.65625 -0.578125,0 -0.921875,0.53125 -1.046875,0.75 -0.25,-0.65625 -0.78125,-0.75 -1.078125,-0.75 -1.03125,0 -1.609375,1.28125 -1.609375,1.53125 0,0.109375 0.109375,0.109375 0.125,0.109375 0.078125,0 0.109375,-0.03125 0.125,-0.109375 0.34375,-1.0625 1,-1.3125 1.34375,-1.3125 0.1875,0 0.53125,0.09375 0.53125,0.671875 0,0.3125 -0.171875,0.96875 -0.53125,2.375 -0.15625,0.609375 -0.515625,1.03125 -0.953125,1.03125 -0.0625,0 -0.28125,0 -0.5,-0.125 0.25,-0.0625 0.46875,-0.265625 0.46875,-0.546875 0,-0.265625 -0.21875,-0.34375 -0.359375,-0.34375 -0.3125,0 -0.546875,0.25 -0.546875,0.578125 0,0.453125 0.484375,0.65625 0.921875,0.65625 0.671875,0 1.03125,-0.703125 1.046875,-0.75 0.125,0.359375 0.484375,0.75 1.078125,0.75 1.03125,0 1.59375,-1.28125 1.59375,-1.53125 0,-0.109375 -0.078125,-0.109375 -0.109375,-0.109375 -0.09375,0 -0.109375,0.046875 -0.140625,0.109375 -0.328125,1.078125 -1,1.3125 -1.3125,1.3125 -0.390625,0 -0.546875,-0.3125 -0.546875,-0.65625 0,-0.21875 0.046875,-0.4375 0.15625,-0.875 z m 0,0"
               style="stroke:none" />
          </symbol>
          <symbol
             id="id-62620642-248b-4ee7-8efc-46634c6ce989"
             overflow="visible">
            <path
               id="id-d6961385-3b6d-4217-ad47-eed697199bfc"
               d=""
               style="stroke:none" />
          </symbol>
          <symbol
             id="id-0232e0d4-a613-40e7-8601-0120dcd5a3c7"
             overflow="visible">
            <path
               id="id-c46d2011-f9bc-45c0-901e-374775695919"
               d="M 3.59375,-2.21875 C 3.59375,-2.984375 3.5,-3.546875 3.1875,-4.03125 2.96875,-4.34375 2.53125,-4.625 1.984375,-4.625 c -1.625,0 -1.625,1.90625 -1.625,2.40625 0,0.5 0,2.359375 1.625,2.359375 1.609375,0 1.609375,-1.859375 1.609375,-2.359375 z M 1.984375,-0.0625 c -0.328125,0 -0.75,-0.1875 -0.890625,-0.75 C 1,-1.21875 1,-1.796875 1,-2.3125 1,-2.828125 1,-3.359375 1.09375,-3.734375 1.25,-4.28125 1.6875,-4.4375 1.984375,-4.4375 c 0.375,0 0.734375,0.234375 0.859375,0.640625 0.109375,0.375 0.125,0.875 0.125,1.484375 0,0.515625 0,1.03125 -0.09375,1.46875 -0.140625,0.640625 -0.609375,0.78125 -0.890625,0.78125 z m 0,0"
               style="stroke:none" />
          </symbol>
        </g>
      </defs>
      <g
         transform="translate(-149.009,-130.359)"
         id="id-e17d29fe-533b-4418-9a3a-26aed13111a6">
        <g
           id="id-acc69f19-21db-4af7-bea4-4b283eb2f67e"
           style="fill:#000000;fill-opacity:1">
          <g
             transform="translate(148.712,134.765)"
             id="g4908">
            <path
               id="id-192812c8-cfff-4ee5-ae70-36ddb3c4e8ce"
               d="M 3.328125,-3.015625 C 3.390625,-3.265625 3.625,-4.1875 4.3125,-4.1875 c 0.046875,0 0.296875,0 0.5,0.125 C 4.53125,-4 4.34375,-3.765625 4.34375,-3.515625 c 0,0.15625 0.109375,0.34375 0.375,0.34375 0.21875,0 0.53125,-0.171875 0.53125,-0.578125 0,-0.515625 -0.578125,-0.65625 -0.921875,-0.65625 -0.578125,0 -0.921875,0.53125 -1.046875,0.75 -0.25,-0.65625 -0.78125,-0.75 -1.078125,-0.75 -1.03125,0 -1.609375,1.28125 -1.609375,1.53125 0,0.109375 0.109375,0.109375 0.125,0.109375 0.078125,0 0.109375,-0.03125 0.125,-0.109375 0.34375,-1.0625 1,-1.3125 1.34375,-1.3125 0.1875,0 0.53125,0.09375 0.53125,0.671875 0,0.3125 -0.171875,0.96875 -0.53125,2.375 -0.15625,0.609375 -0.515625,1.03125 -0.953125,1.03125 -0.0625,0 -0.28125,0 -0.5,-0.125 0.25,-0.0625 0.46875,-0.265625 0.46875,-0.546875 0,-0.265625 -0.21875,-0.34375 -0.359375,-0.34375 -0.3125,0 -0.546875,0.25 -0.546875,0.578125 0,0.453125 0.484375,0.65625 0.921875,0.65625 0.671875,0 1.03125,-0.703125 1.046875,-0.75 0.125,0.359375 0.484375,0.75 1.078125,0.75 1.03125,0 1.59375,-1.28125 1.59375,-1.53125 0,-0.109375 -0.078125,-0.109375 -0.109375,-0.109375 -0.09375,0 -0.109375,0.046875 -0.140625,0.109375 -0.328125,1.078125 -1,1.3125 -1.3125,1.3125 -0.390625,0 -0.546875,-0.3125 -0.546875,-0.65625 0,-0.21875 0.046875,-0.4375 0.15625,-0.875 z m 0,0"
               style="stroke:none" />
          </g>
        </g>
        <g
           id="id-bd90278f-d05e-4604-ba75-6fea2c65e4f0"
           style="fill:#000000;fill-opacity:1">
          <g
             transform="translate(154.406,136.259)"
             id="g4912">
            <path
               id="id-3295a2d3-a420-4743-af43-c91b7d4f566b"
               d="M 3.59375,-2.21875 C 3.59375,-2.984375 3.5,-3.546875 3.1875,-4.03125 2.96875,-4.34375 2.53125,-4.625 1.984375,-4.625 c -1.625,0 -1.625,1.90625 -1.625,2.40625 0,0.5 0,2.359375 1.625,2.359375 1.609375,0 1.609375,-1.859375 1.609375,-2.359375 z M 1.984375,-0.0625 c -0.328125,0 -0.75,-0.1875 -0.890625,-0.75 C 1,-1.21875 1,-1.796875 1,-2.3125 1,-2.828125 1,-3.359375 1.09375,-3.734375 1.25,-4.28125 1.6875,-4.4375 1.984375,-4.4375 c 0.375,0 0.734375,0.234375 0.859375,0.640625 0.109375,0.375 0.125,0.875 0.125,1.484375 0,0.515625 0,1.03125 -0.09375,1.46875 -0.140625,0.640625 -0.609375,0.78125 -0.890625,0.78125 z m 0,0"
               style="stroke:none" />
          </g>
        </g>
      </g>
    </g>
    <g
       transform="matrix(1.34056,0,0,1.34056,28.978488,4.5543101)"
       ns2:version="1.0.1"
       ns2:texconverter="pdflatex"
       ns2:pdfconverter="inkscape"
       ns2:text="$y$"
       ns2:preamble="C:\\Users\\claum\\AppData\\Roaming\\inkscape\\extensions\\textext\\default_packages.tex"
       ns2:scale="3.8"
       ns2:alignment="middle center"
       ns2:inkscapeversion="1.0"
       ns2:jacobian_sqrt="1.34056"
       id="g5034">
      <defs
         id="id-2293093a-c4ce-41eb-a421-47fbde1d7ce0">
        <g
           id="id-f9364202-62d6-4d90-8f71-80c3ee5a12da">
          <symbol
             id="id-d8e0cc6a-e245-4a68-932d-901312846959"
             overflow="visible">
            <path
               id="id-83386c9e-e5d1-4117-950a-74d8d3992f7a"
               d=""
               style="stroke:none" />
          </symbol>
          <symbol
             id="id-f1dfdee5-b7c9-4ebd-98d9-ea1257e34121"
             overflow="visible">
            <path
               id="id-1086d644-b76a-4dbf-92a1-675144e23eda"
               d="m 4.84375,-3.796875 c 0.046875,-0.140625 0.046875,-0.15625 0.046875,-0.234375 0,-0.171875 -0.140625,-0.265625 -0.296875,-0.265625 -0.09375,0 -0.25,0.0625 -0.34375,0.203125 -0.015625,0.0625 -0.109375,0.359375 -0.140625,0.546875 -0.078125,0.25 -0.140625,0.53125 -0.203125,0.796875 l -0.453125,1.796875 c -0.03125,0.140625 -0.46875,0.84375 -1.125,0.84375 -0.5,0 -0.609375,-0.4375 -0.609375,-0.8125 C 1.71875,-1.375 1.890625,-2 2.21875,-2.875 2.375,-3.28125 2.421875,-3.390625 2.421875,-3.59375 c 0,-0.4375 -0.3125,-0.8125 -0.8125,-0.8125 -0.953125,0 -1.3125,1.453125 -1.3125,1.53125 0,0.109375 0.09375,0.109375 0.109375,0.109375 0.109375,0 0.109375,-0.03125 0.15625,-0.1875 0.28125,-0.9375 0.671875,-1.234375 1.015625,-1.234375 0.078125,0 0.25,0 0.25,0.3125 0,0.25 -0.109375,0.515625 -0.171875,0.703125 -0.40625,1.0625 -0.578125,1.625 -0.578125,2.09375 0,0.890625 0.625,1.1875 1.21875,1.1875 0.390625,0 0.71875,-0.171875 1,-0.453125 -0.125,0.515625 -0.25,1.015625 -0.640625,1.546875 -0.265625,0.328125 -0.640625,0.625 -1.09375,0.625 -0.140625,0 -0.59375,-0.03125 -0.765625,-0.421875 0.15625,0 0.296875,0 0.421875,-0.125 C 1.328125,1.203125 1.421875,1.0625 1.421875,0.875 1.421875,0.5625 1.15625,0.53125 1.0625,0.53125 0.828125,0.53125 0.5,0.6875 0.5,1.171875 c 0,0.5 0.4375,0.875 1.0625,0.875 1.015625,0 2.046875,-0.90625 2.328125,-2.03125 z m 0,0"
               style="stroke:none" />
          </symbol>
        </g>
      </defs>
      <g
         transform="translate(-149.009,-130.359)"
         id="id-b860a180-3081-4d46-9d0d-5d4734cb8a64">
        <g
           id="id-1e51aa5c-e40c-468b-9593-b8ffe76e1a31"
           style="fill:#000000;fill-opacity:1">
          <g
             transform="translate(148.712,134.765)"
             id="g5030">
            <path
               id="id-ce00d7ff-db3f-4907-b077-ef5a88d2139b"
               d="m 4.84375,-3.796875 c 0.046875,-0.140625 0.046875,-0.15625 0.046875,-0.234375 0,-0.171875 -0.140625,-0.265625 -0.296875,-0.265625 -0.09375,0 -0.25,0.0625 -0.34375,0.203125 -0.015625,0.0625 -0.109375,0.359375 -0.140625,0.546875 -0.078125,0.25 -0.140625,0.53125 -0.203125,0.796875 l -0.453125,1.796875 c -0.03125,0.140625 -0.46875,0.84375 -1.125,0.84375 -0.5,0 -0.609375,-0.4375 -0.609375,-0.8125 C 1.71875,-1.375 1.890625,-2 2.21875,-2.875 2.375,-3.28125 2.421875,-3.390625 2.421875,-3.59375 c 0,-0.4375 -0.3125,-0.8125 -0.8125,-0.8125 -0.953125,0 -1.3125,1.453125 -1.3125,1.53125 0,0.109375 0.09375,0.109375 0.109375,0.109375 0.109375,0 0.109375,-0.03125 0.15625,-0.1875 0.28125,-0.9375 0.671875,-1.234375 1.015625,-1.234375 0.078125,0 0.25,0 0.25,0.3125 0,0.25 -0.109375,0.515625 -0.171875,0.703125 -0.40625,1.0625 -0.578125,1.625 -0.578125,2.09375 0,0.890625 0.625,1.1875 1.21875,1.1875 0.390625,0 0.71875,-0.171875 1,-0.453125 -0.125,0.515625 -0.25,1.015625 -0.640625,1.546875 -0.265625,0.328125 -0.640625,0.625 -1.09375,0.625 -0.140625,0 -0.59375,-0.03125 -0.765625,-0.421875 0.15625,0 0.296875,0 0.421875,-0.125 C 1.328125,1.203125 1.421875,1.0625 1.421875,0.875 1.421875,0.5625 1.15625,0.53125 1.0625,0.53125 0.828125,0.53125 0.5,0.6875 0.5,1.171875 c 0,0.5 0.4375,0.875 1.0625,0.875 1.015625,0 2.046875,-0.90625 2.328125,-2.03125 z m 0,0"
               style="stroke:none" />
          </g>
        </g>
      </g>
    </g>
    <g
       transform="matrix(1.34056,0,0,1.34056,119.97849,4.5543101)"
       ns2:version="1.0.1"
       ns2:texconverter="pdflatex"
       ns2:pdfconverter="inkscape"
       ns2:text="$y_0$"
       ns2:preamble="C:\\Users\\claum\\AppData\\Roaming\\inkscape\\extensions\\textext\\default_packages.tex"
       ns2:scale="3.8"
       ns2:alignment="middle center"
       ns2:inkscapeversion="1.0"
       ns2:jacobian_sqrt="1.34056"
       id="g5162">
      <defs
         id="id-2aafc1a6-b8a8-4973-b683-d13bfdedaa3b">
        <g
           id="id-209e91e2-4316-4863-b776-18c36e083719">
          <symbol
             id="id-478859e1-5bed-4c45-9876-860fabcc1814"
             overflow="visible">
            <path
               id="id-384e230a-731d-4c33-b8d6-7a700c1c6d20"
               d=""
               style="stroke:none" />
          </symbol>
          <symbol
             id="id-9a2511c0-96d1-44d3-9255-1b0c17cbf4e9"
             overflow="visible">
            <path
               id="id-ac53f352-fdd8-4992-8a95-0610f6ddcb0a"
               d="m 4.84375,-3.796875 c 0.046875,-0.140625 0.046875,-0.15625 0.046875,-0.234375 0,-0.171875 -0.140625,-0.265625 -0.296875,-0.265625 -0.09375,0 -0.25,0.0625 -0.34375,0.203125 -0.015625,0.0625 -0.109375,0.359375 -0.140625,0.546875 -0.078125,0.25 -0.140625,0.53125 -0.203125,0.796875 l -0.453125,1.796875 c -0.03125,0.140625 -0.46875,0.84375 -1.125,0.84375 -0.5,0 -0.609375,-0.4375 -0.609375,-0.8125 C 1.71875,-1.375 1.890625,-2 2.21875,-2.875 2.375,-3.28125 2.421875,-3.390625 2.421875,-3.59375 c 0,-0.4375 -0.3125,-0.8125 -0.8125,-0.8125 -0.953125,0 -1.3125,1.453125 -1.3125,1.53125 0,0.109375 0.09375,0.109375 0.109375,0.109375 0.109375,0 0.109375,-0.03125 0.15625,-0.1875 0.28125,-0.9375 0.671875,-1.234375 1.015625,-1.234375 0.078125,0 0.25,0 0.25,0.3125 0,0.25 -0.109375,0.515625 -0.171875,0.703125 -0.40625,1.0625 -0.578125,1.625 -0.578125,2.09375 0,0.890625 0.625,1.1875 1.21875,1.1875 0.390625,0 0.71875,-0.171875 1,-0.453125 -0.125,0.515625 -0.25,1.015625 -0.640625,1.546875 -0.265625,0.328125 -0.640625,0.625 -1.09375,0.625 -0.140625,0 -0.59375,-0.03125 -0.765625,-0.421875 0.15625,0 0.296875,0 0.421875,-0.125 C 1.328125,1.203125 1.421875,1.0625 1.421875,0.875 1.421875,0.5625 1.15625,0.53125 1.0625,0.53125 0.828125,0.53125 0.5,0.6875 0.5,1.171875 c 0,0.5 0.4375,0.875 1.0625,0.875 1.015625,0 2.046875,-0.90625 2.328125,-2.03125 z m 0,0"
               style="stroke:none" />
          </symbol>
          <symbol
             id="id-77170bbb-eea2-46f5-9ddb-376e0b8de25b"
             overflow="visible">
            <path
               id="id-393224c0-5919-4c91-9898-22c1a9d4aee6"
               d=""
               style="stroke:none" />
          </symbol>
          <symbol
             id="id-d4daf817-c9be-4dd4-9212-4dd51b149859"
             overflow="visible">
            <path
               id="id-525d41c5-baef-4981-b8da-8bde03d23b2e"
               d="M 3.59375,-2.21875 C 3.59375,-2.984375 3.5,-3.546875 3.1875,-4.03125 2.96875,-4.34375 2.53125,-4.625 1.984375,-4.625 c -1.625,0 -1.625,1.90625 -1.625,2.40625 0,0.5 0,2.359375 1.625,2.359375 1.609375,0 1.609375,-1.859375 1.609375,-2.359375 z M 1.984375,-0.0625 c -0.328125,0 -0.75,-0.1875 -0.890625,-0.75 C 1,-1.21875 1,-1.796875 1,-2.3125 1,-2.828125 1,-3.359375 1.09375,-3.734375 1.25,-4.28125 1.6875,-4.4375 1.984375,-4.4375 c 0.375,0 0.734375,0.234375 0.859375,0.640625 0.109375,0.375 0.125,0.875 0.125,1.484375 0,0.515625 0,1.03125 -0.09375,1.46875 -0.140625,0.640625 -0.609375,0.78125 -0.890625,0.78125 z m 0,0"
               style="stroke:none" />
          </symbol>
        </g>
      </defs>
      <g
         transform="translate(-149.009,-130.359)"
         id="id-49728b22-7419-42df-9834-47edccc07910">
        <g
           id="id-26309925-7357-4119-b61f-cd2bedc8b7f7"
           style="fill:#000000;fill-opacity:1">
          <g
             transform="translate(148.712,134.765)"
             id="g5154">
            <path
               id="id-05ae897d-6600-49bb-8297-dc55478af419"
               d="m 4.84375,-3.796875 c 0.046875,-0.140625 0.046875,-0.15625 0.046875,-0.234375 0,-0.171875 -0.140625,-0.265625 -0.296875,-0.265625 -0.09375,0 -0.25,0.0625 -0.34375,0.203125 -0.015625,0.0625 -0.109375,0.359375 -0.140625,0.546875 -0.078125,0.25 -0.140625,0.53125 -0.203125,0.796875 l -0.453125,1.796875 c -0.03125,0.140625 -0.46875,0.84375 -1.125,0.84375 -0.5,0 -0.609375,-0.4375 -0.609375,-0.8125 C 1.71875,-1.375 1.890625,-2 2.21875,-2.875 2.375,-3.28125 2.421875,-3.390625 2.421875,-3.59375 c 0,-0.4375 -0.3125,-0.8125 -0.8125,-0.8125 -0.953125,0 -1.3125,1.453125 -1.3125,1.53125 0,0.109375 0.09375,0.109375 0.109375,0.109375 0.109375,0 0.109375,-0.03125 0.15625,-0.1875 0.28125,-0.9375 0.671875,-1.234375 1.015625,-1.234375 0.078125,0 0.25,0 0.25,0.3125 0,0.25 -0.109375,0.515625 -0.171875,0.703125 -0.40625,1.0625 -0.578125,1.625 -0.578125,2.09375 0,0.890625 0.625,1.1875 1.21875,1.1875 0.390625,0 0.71875,-0.171875 1,-0.453125 -0.125,0.515625 -0.25,1.015625 -0.640625,1.546875 -0.265625,0.328125 -0.640625,0.625 -1.09375,0.625 -0.140625,0 -0.59375,-0.03125 -0.765625,-0.421875 0.15625,0 0.296875,0 0.421875,-0.125 C 1.328125,1.203125 1.421875,1.0625 1.421875,0.875 1.421875,0.5625 1.15625,0.53125 1.0625,0.53125 0.828125,0.53125 0.5,0.6875 0.5,1.171875 c 0,0.5 0.4375,0.875 1.0625,0.875 1.015625,0 2.046875,-0.90625 2.328125,-2.03125 z m 0,0"
               style="stroke:none" />
          </g>
        </g>
        <g
           id="id-cf308e20-529b-4f6b-83dd-d9e7ed58f191"
           style="fill:#000000;fill-opacity:1">
          <g
             transform="translate(153.597,136.259)"
             id="g5158">
            <path
               id="id-91c8d43c-be95-4f83-bc9d-61410d5a317e"
               d="M 3.59375,-2.21875 C 3.59375,-2.984375 3.5,-3.546875 3.1875,-4.03125 2.96875,-4.34375 2.53125,-4.625 1.984375,-4.625 c -1.625,0 -1.625,1.90625 -1.625,2.40625 0,0.5 0,2.359375 1.625,2.359375 1.609375,0 1.609375,-1.859375 1.609375,-2.359375 z M 1.984375,-0.0625 c -0.328125,0 -0.75,-0.1875 -0.890625,-0.75 C 1,-1.21875 1,-1.796875 1,-2.3125 1,-2.828125 1,-3.359375 1.09375,-3.734375 1.25,-4.28125 1.6875,-4.4375 1.984375,-4.4375 c 0.375,0 0.734375,0.234375 0.859375,0.640625 0.109375,0.375 0.125,0.875 0.125,1.484375 0,0.515625 0,1.03125 -0.09375,1.46875 -0.140625,0.640625 -0.609375,0.78125 -0.890625,0.78125 z m 0,0"
               style="stroke:none" />
          </g>
        </g>
      </g>
    </g>
    <g
       transform="matrix(1.34056,0,0,1.34056,137.01998,134.07853)"
       ns2:version="1.0.1"
       ns2:texconverter="pdflatex"
       ns2:pdfconverter="inkscape"
       ns2:text="$\\mathbf{G}$"
       ns2:preamble="C:\\Users\\claum\\AppData\\Roaming\\inkscape\\extensions\\textext\\default_packages.tex"
       ns2:scale="3.8"
       ns2:alignment="middle center"
       ns2:inkscapeversion="1.0"
       ns2:jacobian_sqrt="1.34056"
       id="g5309">
      <defs
         id="id-2f52be26-3d65-475d-872c-835c1140c32b">
        <g
           id="id-fda836ea-a55c-4fd4-93bd-4f26b9eed4cb">
          <symbol
             id="id-25bd9326-08c8-4791-8d9f-916ff4b2c20b"
             overflow="visible">
            <path
               id="id-2f7e75b1-b11e-48c2-af25-f6707001162a"
               d=""
               style="stroke:none" />
          </symbol>
          <symbol
             id="id-08aee4ee-9d62-4c52-98bb-415adb0b43d8"
             overflow="visible">
            <path
               id="id-d9efea76-3420-4bec-9f75-e7e4971d3c3b"
               d="M 6.515625,-0.53125 C 6.8125,-0.265625 7.421875,0 7.484375,0 7.625,0 7.625,-0.125 7.625,-0.28125 v -2 H 8.421875 V -2.75 c -0.34375,0.03125 -1.21875,0.03125 -1.609375,0.03125 -0.578125,0 -1.5,0 -2.03125,-0.03125 v 0.46875 h 1.421875 v 1 c 0,0.1875 0,0.484375 -0.375,0.71875 C 5.5625,-0.421875 5.25,-0.359375 4.921875,-0.359375 c -0.859375,0 -1.71875,-0.28125 -2.203125,-0.90625 -0.421875,-0.546875 -0.5625,-1.25 -0.5625,-2.15625 0,-1.125 0.203125,-1.703125 0.578125,-2.1875 0.390625,-0.5 1.15625,-0.875 2.125,-0.875 1.0625,0 2.015625,0.765625 2.234375,2.03125 C 7.125,-4.265625 7.125,-4.25 7.359375,-4.25 c 0.25,0 0.265625,-0.015625 0.265625,-0.28125 v -2.140625 c 0,-0.1875 0,-0.28125 -0.171875,-0.28125 -0.09375,0 -0.109375,0.03125 -0.203125,0.09375 l -0.65625,0.59375 c -0.71875,-0.578125 -1.4375,-0.6875 -1.953125,-0.6875 -2.453125,0 -4,1.46875 -4,3.53125 0,1.984375 1.4375,3.53125 4.015625,3.53125 0.328125,0 1.359375,-0.015625 1.859375,-0.640625 z m 0,0"
               style="stroke:none" />
          </symbol>
        </g>
      </defs>
      <g
         transform="translate(-149.353,-127.812)"
         id="id-bc152cda-b2bd-4a12-991b-7a4f8ee0e856">
        <g
           id="id-653d55fc-1b0b-487a-bbb8-909c978acf1d"
           style="fill:#000000;fill-opacity:1">
          <g
             transform="translate(148.712,134.765)"
             id="g5305">
            <path
               id="id-24410949-43e2-473a-97bc-05d6210711f0"
               d="M 6.515625,-0.53125 C 6.8125,-0.265625 7.421875,0 7.484375,0 7.625,0 7.625,-0.125 7.625,-0.28125 v -2 H 8.421875 V -2.75 c -0.34375,0.03125 -1.21875,0.03125 -1.609375,0.03125 -0.578125,0 -1.5,0 -2.03125,-0.03125 v 0.46875 h 1.421875 v 1 c 0,0.1875 0,0.484375 -0.375,0.71875 C 5.5625,-0.421875 5.25,-0.359375 4.921875,-0.359375 c -0.859375,0 -1.71875,-0.28125 -2.203125,-0.90625 -0.421875,-0.546875 -0.5625,-1.25 -0.5625,-2.15625 0,-1.125 0.203125,-1.703125 0.578125,-2.1875 0.390625,-0.5 1.15625,-0.875 2.125,-0.875 1.0625,0 2.015625,0.765625 2.234375,2.03125 C 7.125,-4.265625 7.125,-4.25 7.359375,-4.25 c 0.25,0 0.265625,-0.015625 0.265625,-0.28125 v -2.140625 c 0,-0.1875 0,-0.28125 -0.171875,-0.28125 -0.09375,0 -0.109375,0.03125 -0.203125,0.09375 l -0.65625,0.59375 c -0.71875,-0.578125 -1.4375,-0.6875 -1.953125,-0.6875 -2.453125,0 -4,1.46875 -4,3.53125 0,1.984375 1.4375,3.53125 4.015625,3.53125 0.328125,0 1.359375,-0.015625 1.859375,-0.640625 z m 0,0"
               style="stroke:none" />
          </g>
        </g>
      </g>
    </g>
    <g
       transform="matrix(1.34056,0,0,1.34056,316.81667,33.349597)"
       ns2:version="1.0.1"
       ns2:texconverter="pdflatex"
       ns2:pdfconverter="inkscape"
       ns2:text="$\\mathbf{B}$"
       ns2:preamble="C:\\Users\\claum\\AppData\\Roaming\\inkscape\\extensions\\textext\\default_packages.tex"
       ns2:scale="3.8"
       ns2:alignment="middle center"
       ns2:inkscapeversion="1.0"
       ns2:jacobian_sqrt="1.34056"
       id="g5458">
      <defs
         id="id-757f28a0-a1e8-455b-9b8c-08c28a9d3215">
        <g
           id="id-e393763d-d8b0-4a89-8cbe-d8a856b74536">
          <symbol
             id="id-fcf918e2-724b-43a9-9765-2a1affa2119d"
             overflow="visible">
            <path
               id="id-c466f689-1370-48f3-9c29-ab2eb2cfa351"
               d=""
               style="stroke:none" />
          </symbol>
          <symbol
             id="id-1692a948-dc15-436d-9c1a-aab7f804600e"
             overflow="visible">
            <path
               id="id-e70b7032-26fe-41aa-98d5-e12c36a35690"
               d="M 2.765625,-3.734375 V -6.375 h 1.8125 c 1.015625,0 1.1875,0.796875 1.1875,1.25 0,0.765625 -0.46875,1.390625 -1.4375,1.390625 z M 5.46875,-3.5625 C 6.546875,-3.765625 7.1875,-4.359375 7.1875,-5.125 c 0,-0.921875 -0.875,-1.71875 -2.46875,-1.71875 H 0.390625 V -6.375 H 1.46875 v 5.90625 H 0.390625 V 0 h 4.625 C 6.671875,0 7.5,-0.875 7.5,-1.859375 7.5,-2.8125 6.65625,-3.484375 5.46875,-3.5625 Z M 4.609375,-0.46875 H 2.765625 V -3.375 h 1.9375 c 0.203125,0 0.671875,0 1.015625,0.421875 0.328125,0.421875 0.328125,0.984375 0.328125,1.09375 0,0.109375 0,1.390625 -1.4375,1.390625 z m 0,0"
               style="stroke:none" />
          </symbol>
        </g>
      </defs>
      <g
         transform="translate(-149.103,-127.921)"
         id="id-2fde3071-79b5-4a07-87a1-aeccea7fc312">
        <g
           id="id-53bd09ab-a5cc-47e4-a2cf-1a2a0fc90282"
           style="fill:#000000;fill-opacity:1">
          <g
             transform="translate(148.712,134.765)"
             id="g5454">
            <path
               id="id-41c762db-5525-41ec-8285-f7e2a7bf7936"
               d="M 2.765625,-3.734375 V -6.375 h 1.8125 c 1.015625,0 1.1875,0.796875 1.1875,1.25 0,0.765625 -0.46875,1.390625 -1.4375,1.390625 z M 5.46875,-3.5625 C 6.546875,-3.765625 7.1875,-4.359375 7.1875,-5.125 c 0,-0.921875 -0.875,-1.71875 -2.46875,-1.71875 H 0.390625 V -6.375 H 1.46875 v 5.90625 H 0.390625 V 0 h 4.625 C 6.671875,0 7.5,-0.875 7.5,-1.859375 7.5,-2.8125 6.65625,-3.484375 5.46875,-3.5625 Z M 4.609375,-0.46875 H 2.765625 V -3.375 h 1.9375 c 0.203125,0 0.671875,0 1.015625,0.421875 0.328125,0.421875 0.328125,0.984375 0.328125,1.09375 0,0.109375 0,1.390625 -1.4375,1.390625 z m 0,0"
               style="stroke:none" />
          </g>
        </g>
      </g>
    </g>
    <g
       transform="matrix(1.34056 0 0 1.34056 41.0625 33.3806)"
       ns2:version="1.0.1"
       ns2:texconverter="pdflatex"
       ns2:pdfconverter="inkscape"
       ns2:text="$\\mathbf{A}$"
       ns2:preamble="C:\\Users\\claum\\AppData\\Roaming\\inkscape\\extensions\\textext\\default_packages.tex"
       ns2:scale="3.8"
       ns2:alignment="middle center"
       ns2:inkscapeversion="1.0"
       ns2:jacobian_sqrt="1.34056"
       id="g5640">
      <defs
         id="id-1c36e55e-e824-4675-a055-c475a05fd43f">
        <g
           id="id-a495412a-1a50-4081-a7f8-a70d9de93bb3">
          <symbol
             id="id-7a1927eb-bafd-4f27-9f43-12d37292ea59"
             overflow="visible">
            <path
               id="id-6b098e4f-f331-4cee-a0e2-87175d0b67f7"
               d=""
               style="stroke:none" />
          </symbol>
          <symbol
             id="id-365eed19-7170-4265-ad43-f0265c6a42d9"
             overflow="visible">
            <path
               id="id-504238f9-432a-4e21-80e5-f37e74991760"
               d="m 4.71875,-6.703125 c -0.109375,-0.25 -0.21875,-0.25 -0.390625,-0.25 -0.28125,0 -0.328125,0.078125 -0.390625,0.25 l -2.46875,6 C 1.40625,-0.546875 1.375,-0.46875 0.625,-0.46875 H 0.40625 V 0 c 0.375,-0.015625 0.859375,-0.03125 1.171875,-0.03125 0.390625,0 0.9375,0 1.3125,0.03125 V -0.46875 C 2.875,-0.46875 2,-0.46875 2,-0.59375 c 0,-0.015625 0.03125,-0.109375 0.046875,-0.125 l 0.5,-1.203125 H 5.21875 L 5.8125,-0.46875 H 4.859375 V 0 C 5.25,-0.03125 6.1875,-0.03125 6.625,-0.03125 c 0.390625,0 1.265625,0 1.625,0.03125 V -0.46875 H 7.28125 Z M 3.875,-5.15625 5.015625,-2.390625 h -2.28125 z m 0,0"
               style="stroke:none" />
          </symbol>
        </g>
      </defs>
      <g
         transform="translate(-149.118, -127.812)"
         id="id-c35792b1-f75f-48cf-80cc-375a6325186f">
        <g
           id="id-ee874b01-b9c9-47f5-a8be-f86f943355f2"
           style="fill:#000000;fill-opacity:1">
          <g
             transform="translate(148.712, 134.765)"
             id="g5636">
            <path
               id="id-0b110232-8590-49dc-bbfb-4220169cf90f"
               d="m 4.71875,-6.703125 c -0.109375,-0.25 -0.21875,-0.25 -0.390625,-0.25 -0.28125,0 -0.328125,0.078125 -0.390625,0.25 l -2.46875,6 C 1.40625,-0.546875 1.375,-0.46875 0.625,-0.46875 H 0.40625 V 0 c 0.375,-0.015625 0.859375,-0.03125 1.171875,-0.03125 0.390625,0 0.9375,0 1.3125,0.03125 V -0.46875 C 2.875,-0.46875 2,-0.46875 2,-0.59375 c 0,-0.015625 0.03125,-0.109375 0.046875,-0.125 l 0.5,-1.203125 H 5.21875 L 5.8125,-0.46875 H 4.859375 V 0 C 5.25,-0.03125 6.1875,-0.03125 6.625,-0.03125 c 0.390625,0 1.265625,0 1.625,0.03125 V -0.46875 H 7.28125 Z M 3.875,-5.15625 5.015625,-2.390625 h -2.28125 z m 0,0"
               style="stroke:none" />
          </g>
        </g>
      </g>
    </g>
    <g
       transform="matrix(1.34056,0,0,1.34056,30.09908,306.09801)"
       ns2:version="1.0.1"
       ns2:texconverter="pdflatex"
       ns2:pdfconverter="inkscape"
       ns2:text="$\\mathbf{O}$"
       ns2:preamble="C:\\Users\\claum\\AppData\\Roaming\\inkscape\\extensions\\textext\\default_packages.tex"
       ns2:scale="3.8"
       ns2:alignment="middle center"
       ns2:inkscapeversion="1.0"
       ns2:jacobian_sqrt="1.34056"
       id="g5811">
      <defs
         id="id-399fe4a2-54df-46f0-b21f-168321aee47f">
        <g
           id="id-e125f427-cb3d-41c0-bd6d-958863224562">
          <symbol
             id="id-7ce8dc5f-1624-489b-843a-0339bb53374e"
             overflow="visible">
            <path
               id="id-7bc25296-774d-4cff-ae2e-2f8d1a412125"
               d=""
               style="stroke:none" />
          </symbol>
          <symbol
             id="id-2f69032f-5702-4b7f-8d2f-f5f1732d9a08"
             overflow="visible">
            <path
               id="id-91edca38-25cf-4128-8820-be5d2fc290bb"
               d="m 7.96875,-3.375 c 0,-2.15625 -1.453125,-3.578125 -3.65625,-3.578125 -2.28125,0 -3.671875,1.484375 -3.671875,3.578125 0,2.0625 1.390625,3.484375 3.65625,3.484375 2.296875,0 3.671875,-1.4375 3.671875,-3.484375 z m -3.671875,3.0625 c -0.59375,0 -1.3125,-0.28125 -1.71875,-1.03125 C 2.25,-1.96875 2.15625,-2.671875 2.15625,-3.53125 c 0,-0.640625 0.03125,-1.484375 0.46875,-2.15625 0.421875,-0.609375 1.078125,-0.859375 1.671875,-0.859375 0.640625,0 1.328125,0.28125 1.71875,0.9375 0.390625,0.640625 0.421875,1.40625 0.421875,2.078125 0,0.703125 -0.03125,1.59375 -0.453125,2.28125 -0.453125,0.71875 -1.15625,0.9375 -1.6875,0.9375 z m 0,0"
               style="stroke:none" />
          </symbol>
        </g>
      </defs>
      <g
         transform="translate(-149.353,-127.812)"
         id="id-5d6e0623-4b79-4e42-8791-249053c6c91f">
        <g
           id="id-637633e4-3e29-4cdc-9ffb-451c9a408148"
           style="fill:#000000;fill-opacity:1">
          <g
             transform="translate(148.712,134.765)"
             id="g5807">
            <path
               id="id-ca2377ae-f627-4a2d-a2ca-f165439f1f43"
               d="m 7.96875,-3.375 c 0,-2.15625 -1.453125,-3.578125 -3.65625,-3.578125 -2.28125,0 -3.671875,1.484375 -3.671875,3.578125 0,2.0625 1.390625,3.484375 3.65625,3.484375 2.296875,0 3.671875,-1.4375 3.671875,-3.484375 z m -3.671875,3.0625 c -0.59375,0 -1.3125,-0.28125 -1.71875,-1.03125 C 2.25,-1.96875 2.15625,-2.671875 2.15625,-3.53125 c 0,-0.640625 0.03125,-1.484375 0.46875,-2.15625 0.421875,-0.609375 1.078125,-0.859375 1.671875,-0.859375 0.640625,0 1.328125,0.28125 1.71875,0.9375 0.390625,0.640625 0.421875,1.40625 0.421875,2.078125 0,0.703125 -0.03125,1.59375 -0.453125,2.28125 -0.453125,0.71875 -1.15625,0.9375 -1.6875,0.9375 z m 0,0"
               style="stroke:none" />
          </g>
        </g>
      </g>
    </g>
  </g>
</svg>
