<?xml version="1.0" encoding="UTF-8" standalone="no"?>
<svg
   xmlns:ns21="http://www.iki.fi/pav/software/textext/"
   xmlns:dc="http://purl.org/dc/elements/1.1/"
   xmlns:cc="http://creativecommons.org/ns#"
   xmlns:rdf="http://www.w3.org/1999/02/22-rdf-syntax-ns#"
   xmlns:svg="http://www.w3.org/2000/svg"
   xmlns="http://www.w3.org/2000/svg"
   xmlns:sodipodi="http://sodipodi.sourceforge.net/DTD/sodipodi-0.dtd"
   xmlns:inkscape="http://www.inkscape.org/namespaces/inkscape"
   id="svg308"
   version="1.1"
   viewBox="0 0 195 189.99999"
   height="19cm"
   width="19.5cm"
   inkscape:version="1.0 (4035a4fb49, 2020-05-01)"
   sodipodi:docname="Figura2_6.svg">
  <defs
     id="defs302" />
  <sodipodi:namedview
     id="base"
     pagecolor="#ffffff"
     bordercolor="#666666"
     borderopacity="1.0"
     inkscape:pageopacity="0.0"
     inkscape:pageshadow="2"
     inkscape:zoom="0.7"
     inkscape:cx="349.4654"
     inkscape:cy="358.75871"
     inkscape:document-units="mm"
     inkscape:current-layer="layer1"
     inkscape:document-rotation="0"
     showgrid="true"
     units="cm"
     inkscape:window-width="1350"
     inkscape:window-height="729"
     inkscape:window-x="0"
     inkscape:window-y="0"
     inkscape:window-maximized="0">
    <inkscape:grid
       type="xygrid"
       id="grid310"
       units="cm" />
  </sodipodi:namedview>
  <metadata
     id="metadata305">
    <rdf:RDF>
      <cc:Work
         rdf:about="">
        <dc:format>image/svg+xml</dc:format>
        <dc:type
           rdf:resource="http://purl.org/dc/dcmitype/StillImage" />
        <dc:title></dc:title>
      </cc:Work>
    </rdf:RDF>
  </metadata>
  <g
     inkscape:label="Livello 1"
     inkscape:groupmode="layer"
     id="layer1">
    <path
       style="fill:none;stroke:#000000;stroke-width:0.264583px;stroke-linecap:butt;stroke-linejoin:miter;stroke-opacity:1"
       d="M 185,84.999998 110,185"
       id="path312" />
    <path
       style="fill:none;stroke:#000000;stroke-width:0.264583px;stroke-linecap:butt;stroke-linejoin:miter;stroke-opacity:1"
       d="M 110,185 5,110"
       id="path314"
       sodipodi:nodetypes="cc" />
    <path
       style="fill:none;stroke:#000000;stroke-width:0.264583px;stroke-linecap:butt;stroke-linejoin:miter;stroke-opacity:1"
       d="M 185,84.999998 129,45"
       id="path316"
       sodipodi:nodetypes="cc" />
    <path
       sodipodi:nodetypes="cc"
       id="path318"
       d="M 151,131 46,56"
       style="fill:none;stroke:#000000;stroke-width:0.264583px;stroke-linecap:butt;stroke-linejoin:miter;stroke-opacity:1" />
    <path
       style="fill:none;stroke:#000000;stroke-width:0.264583px;stroke-linecap:butt;stroke-linejoin:miter;stroke-opacity:1"
       d="M 80.7,164.1 156.5,64.6"
       id="path320"
       sodipodi:nodetypes="cc" />
    <path
       style="fill:none;stroke:#000000;stroke-width:0.264583px;stroke-linecap:butt;stroke-linejoin:miter;stroke-opacity:1"
       d="m 150.2,64.6 h 10"
       id="path324"
       sodipodi:nodetypes="cc" />
    <path
       style="fill:none;stroke:#000000;stroke-width:0.264583px;stroke-linecap:butt;stroke-linejoin:miter;stroke-opacity:1"
       d="m 115.2,110.2 h 10"
       id="path326"
       sodipodi:nodetypes="cc" />
    <path
       style="fill:none;stroke:#000000;stroke-width:0.264583px;stroke-linecap:butt;stroke-linejoin:miter;stroke-opacity:1"
       d="m 75.2,164.1 h 10"
       id="path328"
       sodipodi:nodetypes="cc" />
    <path
       style="fill:none;stroke:#000000;stroke-width:0.264583px;stroke-linecap:butt;stroke-linejoin:miter;stroke-opacity:1"
       d="m 105,185 h 10"
       id="path330" />
    <path
       style="fill:none;stroke:#000000;stroke-width:0.264583px;stroke-linecap:butt;stroke-linejoin:miter;stroke-opacity:1"
       d="m 180,84.999998 h 10"
       id="path332" />
    <path
       style="fill:none;stroke:#000000;stroke-width:0.264583px;stroke-linecap:butt;stroke-linejoin:miter;stroke-opacity:1"
       d="m 25,115 c 0,0 -12.294019,-8.46719 -15,-15 -1.9134174,-4.619398 -0.4926882,-10.024335 0,-15.000002 0.837409,-8.457007 2.818742,-16.786332 5,-25 1.352759,-5.0939 2.553943,-10.331532 5,-14.999999 C 23.867555,37.618505 27.949941,29.443099 34.999998,25 c 7.189676,-4.53109 16.640879,-3.467906 25,-5 9.971829,-1.827677 20.000001,-3.333333 30.000001,-5 10,-1.666667 19.870141,-5.4045483 30.000001,-5 6.86637,0.274217 14.38285,1.041486 20,5 4.91206,3.46162 8.25861,9.248593 10,15 1.44892,4.78546 1.91342,10.380602 0,14.999999 C 144.58804,58.065629 130.32724,65.338318 120,75 c -12.93771,12.103911 -24.627484,26.19236 -40.000002,35 -4.573048,2.62012 -9.906099,3.64724 -14.999999,5 -8.213668,2.18126 -16.518056,5.52807 -25,5 C 34.739721,119.67251 25,115 25,115"
       id="path334"
       sodipodi:nodetypes="csssssssssssssssc" />
    <path
       style="fill:none;stroke:#000000;stroke-width:0.264583px;stroke-linecap:butt;stroke-linejoin:miter;stroke-opacity:1"
       d="M 46,56 10,30"
       id="path336"
       sodipodi:nodetypes="cc" />
    <circle
       style="fill:#000000;fill-opacity:1;stroke:#000000;stroke-width:0.265;stroke-miterlimit:4;stroke-dasharray:none;stroke-dashoffset:0"
       id="path338"
       cx="129"
       cy="45"
       r="2" />
    <circle
       style="fill:#000000;fill-opacity:1;stroke:#000000;stroke-width:0.264999;stroke-miterlimit:4;stroke-dasharray:none;stroke-dashoffset:0"
       id="path1165"
       cx="60"
       cy="66"
       r="2" />
    <g
       id="g1201"
       ns21:jacobian_sqrt="0.705556"
       ns21:alignment="middle center"
       ns21:scale="2.0"
       ns21:preamble="C:\\Users\\claum\\AppData\\Roaming\\inkscape\\extensions\\textext\\default_packages.tex"
       ns21:text="$dA$"
       ns21:pdfconverter="inkscape"
       ns21:texconverter="pdflatex"
       ns21:version="1.0.1"
       transform="matrix(0.705556,0,0,0.705556,124.77291,37.177511)">
      <defs
         id="id-a84b751b-bc37-458b-91b1-0f43c44f5684">
        <g
           id="id-3fa894e0-7804-438a-92be-634678218be2">
          <symbol
             overflow="visible"
             id="id-3e7c0a97-acf2-4e04-bfd0-5db868eb2506">
            <path
               style="stroke:none"
               d=""
               id="id-9694c6a6-05ab-43a4-901f-b43ce74c6fa7" />
          </symbol>
          <symbol
             overflow="visible"
             id="id-c21931da-c5ac-4a18-9181-3e5953c768a2">
            <path
               style="stroke:none"
               d="m 5.140625,-6.8125 c 0,0 0,-0.109375 -0.125,-0.109375 -0.15625,0 -1.09375,0.09375 -1.265625,0.109375 -0.078125,0.015625 -0.140625,0.0625 -0.140625,0.1875 0,0.125 0.09375,0.125 0.234375,0.125 0.484375,0 0.5,0.0625 0.5,0.171875 L 4.3125,-6.125 3.71875,-3.765625 C 3.53125,-4.140625 3.25,-4.40625 2.796875,-4.40625 c -1.15625,0 -2.390625,1.46875 -2.390625,2.921875 0,0.9375 0.546875,1.59375 1.3125,1.59375 0.203125,0 0.703125,-0.046875 1.296875,-0.75 0.078125,0.421875 0.4375,0.75 0.90625,0.75 0.359375,0 0.578125,-0.234375 0.75,-0.546875 0.15625,-0.359375 0.296875,-0.96875 0.296875,-0.984375 0,-0.109375 -0.09375,-0.109375 -0.125,-0.109375 -0.09375,0 -0.109375,0.046875 -0.140625,0.1875 -0.171875,0.640625 -0.34375,1.234375 -0.75,1.234375 -0.28125,0 -0.296875,-0.265625 -0.296875,-0.453125 0,-0.25 0.015625,-0.3125 0.046875,-0.484375 z m -2.0625,5.625 C 3.015625,-1 3.015625,-0.984375 2.875,-0.8125 2.4375,-0.265625 2.03125,-0.109375 1.75,-0.109375 c -0.5,0 -0.640625,-0.546875 -0.640625,-0.9375 0,-0.5 0.3125,-1.71875 0.546875,-2.1875 0.3125,-0.578125 0.75,-0.953125 1.15625,-0.953125 0.640625,0 0.78125,0.8125 0.78125,0.875 0,0.0625 -0.015625,0.125 -0.03125,0.171875 z m 0,0"
               id="id-3becc180-da52-403c-bbdc-c55e0b522661" />
          </symbol>
          <symbol
             overflow="visible"
             id="id-637429be-5e49-4d5d-9543-938d10be5dec">
            <path
               style="stroke:none"
               d="M 1.78125,-1.140625 C 1.390625,-0.484375 1,-0.34375 0.5625,-0.3125 0.4375,-0.296875 0.34375,-0.296875 0.34375,-0.109375 0.34375,-0.046875 0.40625,0 0.484375,0 0.75,0 1.0625,-0.03125 1.328125,-0.03125 c 0.34375,0 0.6875,0.03125 1,0.03125 0.0625,0 0.1875,0 0.1875,-0.1875 0,-0.109375 -0.078125,-0.125 -0.15625,-0.125 -0.21875,-0.015625 -0.46875,-0.09375 -0.46875,-0.34375 0,-0.125 0.0625,-0.234375 0.140625,-0.375 l 0.765625,-1.265625 h 2.5 c 0.015625,0.203125 0.15625,1.5625 0.15625,1.65625 0,0.296875 -0.515625,0.328125 -0.71875,0.328125 C 4.59375,-0.3125 4.5,-0.3125 4.5,-0.109375 4.5,0 4.609375,0 4.640625,0 5.046875,0 5.46875,-0.03125 5.875,-0.03125 6.125,-0.03125 6.765625,0 7.015625,0 7.0625,0 7.1875,0 7.1875,-0.203125 7.1875,-0.3125 7.09375,-0.3125 6.953125,-0.3125 6.34375,-0.3125 6.34375,-0.375 6.3125,-0.671875 l -0.609375,-6.21875 c -0.015625,-0.203125 -0.015625,-0.25 -0.1875,-0.25 -0.15625,0 -0.203125,0.078125 -0.265625,0.171875 z M 2.984375,-2.609375 4.9375,-5.90625 5.265625,-2.609375 Z m 0,0"
               id="id-a7d31f70-9762-465f-8910-d0f934345d4b" />
          </symbol>
        </g>
      </defs>
      <g
         id="id-cd74b3af-1293-44d0-a902-7c7485573342"
         transform="translate(-149.118,-127.624)">
        <g
           style="fill:#000000;fill-opacity:1"
           id="id-8c5495cc-a13a-40b5-80af-14a412876f5b">
          <g
             id="g1194"
             transform="translate(148.712,134.765)">
            <path
               style="stroke:none"
               d="m 5.140625,-6.8125 c 0,0 0,-0.109375 -0.125,-0.109375 -0.15625,0 -1.09375,0.09375 -1.265625,0.109375 -0.078125,0.015625 -0.140625,0.0625 -0.140625,0.1875 0,0.125 0.09375,0.125 0.234375,0.125 0.484375,0 0.5,0.0625 0.5,0.171875 L 4.3125,-6.125 3.71875,-3.765625 C 3.53125,-4.140625 3.25,-4.40625 2.796875,-4.40625 c -1.15625,0 -2.390625,1.46875 -2.390625,2.921875 0,0.9375 0.546875,1.59375 1.3125,1.59375 0.203125,0 0.703125,-0.046875 1.296875,-0.75 0.078125,0.421875 0.4375,0.75 0.90625,0.75 0.359375,0 0.578125,-0.234375 0.75,-0.546875 0.15625,-0.359375 0.296875,-0.96875 0.296875,-0.984375 0,-0.109375 -0.09375,-0.109375 -0.125,-0.109375 -0.09375,0 -0.109375,0.046875 -0.140625,0.1875 -0.171875,0.640625 -0.34375,1.234375 -0.75,1.234375 -0.28125,0 -0.296875,-0.265625 -0.296875,-0.453125 0,-0.25 0.015625,-0.3125 0.046875,-0.484375 z m -2.0625,5.625 C 3.015625,-1 3.015625,-0.984375 2.875,-0.8125 2.4375,-0.265625 2.03125,-0.109375 1.75,-0.109375 c -0.5,0 -0.640625,-0.546875 -0.640625,-0.9375 0,-0.5 0.3125,-1.71875 0.546875,-2.1875 0.3125,-0.578125 0.75,-0.953125 1.15625,-0.953125 0.640625,0 0.78125,0.8125 0.78125,0.875 0,0.0625 -0.015625,0.125 -0.03125,0.171875 z m 0,0"
               id="id-b023138f-09df-4e4d-bfed-daf52047a38d" />
          </g>
          <g
             id="g1197"
             transform="translate(153.898,134.765)">
            <path
               style="stroke:none"
               d="M 1.78125,-1.140625 C 1.390625,-0.484375 1,-0.34375 0.5625,-0.3125 0.4375,-0.296875 0.34375,-0.296875 0.34375,-0.109375 0.34375,-0.046875 0.40625,0 0.484375,0 0.75,0 1.0625,-0.03125 1.328125,-0.03125 c 0.34375,0 0.6875,0.03125 1,0.03125 0.0625,0 0.1875,0 0.1875,-0.1875 0,-0.109375 -0.078125,-0.125 -0.15625,-0.125 -0.21875,-0.015625 -0.46875,-0.09375 -0.46875,-0.34375 0,-0.125 0.0625,-0.234375 0.140625,-0.375 l 0.765625,-1.265625 h 2.5 c 0.015625,0.203125 0.15625,1.5625 0.15625,1.65625 0,0.296875 -0.515625,0.328125 -0.71875,0.328125 C 4.59375,-0.3125 4.5,-0.3125 4.5,-0.109375 4.5,0 4.609375,0 4.640625,0 5.046875,0 5.46875,-0.03125 5.875,-0.03125 6.125,-0.03125 6.765625,0 7.015625,0 7.0625,0 7.1875,0 7.1875,-0.203125 7.1875,-0.3125 7.09375,-0.3125 6.953125,-0.3125 6.34375,-0.3125 6.34375,-0.375 6.3125,-0.671875 l -0.609375,-6.21875 c -0.015625,-0.203125 -0.015625,-0.25 -0.1875,-0.25 -0.15625,0 -0.203125,0.078125 -0.265625,0.171875 z M 2.984375,-2.609375 4.9375,-5.90625 5.265625,-2.609375 Z m 0,0"
               id="id-d839ae95-15dc-44b0-9d53-a6e61b226bd4" />
          </g>
        </g>
      </g>
    </g>
    <g
       id="g1265"
       ns21:jacobian_sqrt="0.705556"
       ns21:alignment="middle center"
       ns21:scale="2.0"
       ns21:preamble="C:\\Users\\claum\\AppData\\Roaming\\inkscape\\extensions\\textext\\default_packages.tex"
       ns21:text="$\\mathbf{G}$"
       ns21:pdfconverter="inkscape"
       ns21:texconverter="pdflatex"
       ns21:version="1.0.1"
       transform="matrix(0.705556,0,0,0.705556,61.078822,59.034548)">
      <defs
         id="id-96e5ac8f-9866-43da-a425-c654aa4bf04c">
        <g
           id="id-ba0a869a-2bbd-4050-967b-8c554448ef22">
          <symbol
             overflow="visible"
             id="id-f397a1fe-503e-41d9-99e5-ef60ae9ee606">
            <path
               style="stroke:none"
               d=""
               id="id-7ff5bd59-e859-47fd-aa8b-8398f01fa95f" />
          </symbol>
          <symbol
             overflow="visible"
             id="id-a7d6b635-2bae-4c39-b3c4-f0dd3e7565fc">
            <path
               style="stroke:none"
               d="M 6.515625,-0.53125 C 6.8125,-0.265625 7.421875,0 7.484375,0 7.625,0 7.625,-0.125 7.625,-0.28125 v -2 H 8.421875 V -2.75 c -0.34375,0.03125 -1.21875,0.03125 -1.609375,0.03125 -0.578125,0 -1.5,0 -2.03125,-0.03125 v 0.46875 h 1.421875 v 1 c 0,0.1875 0,0.484375 -0.375,0.71875 C 5.5625,-0.421875 5.25,-0.359375 4.921875,-0.359375 c -0.859375,0 -1.71875,-0.28125 -2.203125,-0.90625 -0.421875,-0.546875 -0.5625,-1.25 -0.5625,-2.15625 0,-1.125 0.203125,-1.703125 0.578125,-2.1875 0.390625,-0.5 1.15625,-0.875 2.125,-0.875 1.0625,0 2.015625,0.765625 2.234375,2.03125 C 7.125,-4.265625 7.125,-4.25 7.359375,-4.25 c 0.25,0 0.265625,-0.015625 0.265625,-0.28125 v -2.140625 c 0,-0.1875 0,-0.28125 -0.171875,-0.28125 -0.09375,0 -0.109375,0.03125 -0.203125,0.09375 l -0.65625,0.59375 c -0.71875,-0.578125 -1.4375,-0.6875 -1.953125,-0.6875 -2.453125,0 -4,1.46875 -4,3.53125 0,1.984375 1.4375,3.53125 4.015625,3.53125 0.328125,0 1.359375,-0.015625 1.859375,-0.640625 z m 0,0"
               id="id-733ee983-e5b5-498b-8451-1ca99e92c200" />
          </symbol>
        </g>
      </defs>
      <g
         id="id-b24d7391-6fef-47a9-b939-e403b4eae4eb"
         transform="translate(-149.353,-127.812)">
        <g
           style="fill:#000000;fill-opacity:1"
           id="id-7198505f-d00d-46c1-bc77-7ce6a6fef13a">
          <g
             id="g1261"
             transform="translate(148.712,134.765)">
            <path
               style="stroke:none"
               d="M 6.515625,-0.53125 C 6.8125,-0.265625 7.421875,0 7.484375,0 7.625,0 7.625,-0.125 7.625,-0.28125 v -2 H 8.421875 V -2.75 c -0.34375,0.03125 -1.21875,0.03125 -1.609375,0.03125 -0.578125,0 -1.5,0 -2.03125,-0.03125 v 0.46875 h 1.421875 v 1 c 0,0.1875 0,0.484375 -0.375,0.71875 C 5.5625,-0.421875 5.25,-0.359375 4.921875,-0.359375 c -0.859375,0 -1.71875,-0.28125 -2.203125,-0.90625 -0.421875,-0.546875 -0.5625,-1.25 -0.5625,-2.15625 0,-1.125 0.203125,-1.703125 0.578125,-2.1875 0.390625,-0.5 1.15625,-0.875 2.125,-0.875 1.0625,0 2.015625,0.765625 2.234375,2.03125 C 7.125,-4.265625 7.125,-4.25 7.359375,-4.25 c 0.25,0 0.265625,-0.015625 0.265625,-0.28125 v -2.140625 c 0,-0.1875 0,-0.28125 -0.171875,-0.28125 -0.09375,0 -0.109375,0.03125 -0.203125,0.09375 l -0.65625,0.59375 c -0.71875,-0.578125 -1.4375,-0.6875 -1.953125,-0.6875 -2.453125,0 -4,1.46875 -4,3.53125 0,1.984375 1.4375,3.53125 4.015625,3.53125 0.328125,0 1.359375,-0.015625 1.859375,-0.640625 z m 0,0"
               id="id-e5623693-57eb-406e-a15c-90e7375d9fd4" />
          </g>
        </g>
      </g>
    </g>
    <g
       id="g1336"
       ns21:jacobian_sqrt="0.705556"
       ns21:alignment="middle center"
       ns21:scale="2.0"
       ns21:preamble="C:\\Users\\claum\\AppData\\Roaming\\inkscape\\extensions\\textext\\default_packages.tex"
       ns21:text="$r$"
       ns21:pdfconverter="inkscape"
       ns21:texconverter="pdflatex"
       ns21:version="1.0.1"
       transform="matrix(0.705556,0,0,0.705556,2.688195,105.04106)">
      <defs
         id="id-c76858b5-174b-4163-80e6-e0ddb1b64336">
        <g
           id="id-262beb6b-9729-4d50-a45a-e60631c24289">
          <symbol
             overflow="visible"
             id="id-28ce9039-fe85-40d6-8de4-b04a32ff99f2">
            <path
               style="stroke:none"
               d=""
               id="id-75c1a055-0c85-4b5e-9785-3fc7c7a8ffe2" />
          </symbol>
          <symbol
             overflow="visible"
             id="id-362e6599-5259-4795-b451-4f92407eb6db">
            <path
               style="stroke:none"
               d="m 0.875,-0.59375 c -0.03125,0.15625 -0.09375,0.390625 -0.09375,0.4375 0,0.171875 0.140625,0.265625 0.296875,0.265625 0.125,0 0.296875,-0.078125 0.375,-0.28125 C 1.46875,-0.203125 1.796875,-1.5625 1.84375,-1.75 c 0.078125,-0.328125 0.265625,-1.015625 0.3125,-1.296875 0.046875,-0.125 0.328125,-0.59375 0.5625,-0.8125 0.078125,-0.0625 0.375,-0.328125 0.796875,-0.328125 0.265625,0 0.40625,0.125 0.421875,0.125 -0.296875,0.046875 -0.515625,0.28125 -0.515625,0.546875 0,0.15625 0.109375,0.34375 0.375,0.34375 0.265625,0 0.546875,-0.234375 0.546875,-0.59375 0,-0.34375 -0.3125,-0.640625 -0.828125,-0.640625 C 2.875,-4.40625 2.4375,-3.921875 2.25,-3.640625 2.15625,-4.09375 1.796875,-4.40625 1.328125,-4.40625 0.875,-4.40625 0.6875,-4.015625 0.59375,-3.84375 0.421875,-3.5 0.296875,-2.90625 0.296875,-2.875 c 0,0.109375 0.09375,0.109375 0.109375,0.109375 0.109375,0 0.109375,-0.015625 0.171875,-0.234375 0.171875,-0.703125 0.375,-1.1875 0.734375,-1.1875 0.15625,0 0.296875,0.078125 0.296875,0.453125 0,0.21875 -0.03125,0.328125 -0.15625,0.84375 z m 0,0"
               id="id-b65192e9-08ac-4944-bc8c-be7f81b04554" />
          </symbol>
        </g>
      </defs>
      <g
         id="id-e9888370-b1f9-4f1c-bb70-fa7b29fb24b3"
         transform="translate(-149.009,-130.359)">
        <g
           style="fill:#000000;fill-opacity:1"
           id="id-c857e42d-c099-460c-bcad-1a98b12579ea">
          <g
             id="g1332"
             transform="translate(148.712,134.765)">
            <path
               style="stroke:none"
               d="m 0.875,-0.59375 c -0.03125,0.15625 -0.09375,0.390625 -0.09375,0.4375 0,0.171875 0.140625,0.265625 0.296875,0.265625 0.125,0 0.296875,-0.078125 0.375,-0.28125 C 1.46875,-0.203125 1.796875,-1.5625 1.84375,-1.75 c 0.078125,-0.328125 0.265625,-1.015625 0.3125,-1.296875 0.046875,-0.125 0.328125,-0.59375 0.5625,-0.8125 0.078125,-0.0625 0.375,-0.328125 0.796875,-0.328125 0.265625,0 0.40625,0.125 0.421875,0.125 -0.296875,0.046875 -0.515625,0.28125 -0.515625,0.546875 0,0.15625 0.109375,0.34375 0.375,0.34375 0.265625,0 0.546875,-0.234375 0.546875,-0.59375 0,-0.34375 -0.3125,-0.640625 -0.828125,-0.640625 C 2.875,-4.40625 2.4375,-3.921875 2.25,-3.640625 2.15625,-4.09375 1.796875,-4.40625 1.328125,-4.40625 0.875,-4.40625 0.6875,-4.015625 0.59375,-3.84375 0.421875,-3.5 0.296875,-2.90625 0.296875,-2.875 c 0,0.109375 0.09375,0.109375 0.109375,0.109375 0.109375,0 0.109375,-0.015625 0.171875,-0.234375 0.171875,-0.703125 0.375,-1.1875 0.734375,-1.1875 0.15625,0 0.296875,0.078125 0.296875,0.453125 0,0.21875 -0.03125,0.328125 -0.15625,0.84375 z m 0,0"
               id="id-fb275aca-9e95-489b-b4a6-25a19c6f8d01" />
          </g>
        </g>
      </g>
    </g>
    <g
       id="g1440"
       ns21:jacobian_sqrt="0.705556"
       ns21:alignment="middle center"
       ns21:scale="2.0"
       ns21:preamble="C:\\Users\\claum\\AppData\\Roaming\\inkscape\\extensions\\textext\\default_packages.tex"
       ns21:text="\\newcommand{\\parallelsum}{\\mathbin{\\!/\\mkern-5mu/\\!}}\n$r_0\\, \\parallelsum\\, r$"
       ns21:pdfconverter="inkscape"
       ns21:texconverter="pdflatex"
       ns21:version="1.0.1"
       transform="matrix(0.705556,0,0,0.705556,4.502484,22.230971)">
      <defs
         id="id-b4e92f1c-0c4f-4153-bb8f-7697634c05bf">
        <g
           id="id-1470f537-49f6-484c-8cb3-63e9f23466d2">
          <symbol
             overflow="visible"
             id="id-edcfec93-6d67-4845-90f6-89d180bb29be">
            <path
               style="stroke:none"
               d=""
               id="id-2588a1db-01e2-47da-9ce5-0cf6f5b94ce7" />
          </symbol>
          <symbol
             overflow="visible"
             id="id-66eb86c2-192a-4285-8935-535471801068">
            <path
               style="stroke:none"
               d="m 0.875,-0.59375 c -0.03125,0.15625 -0.09375,0.390625 -0.09375,0.4375 0,0.171875 0.140625,0.265625 0.296875,0.265625 0.125,0 0.296875,-0.078125 0.375,-0.28125 C 1.46875,-0.203125 1.796875,-1.5625 1.84375,-1.75 c 0.078125,-0.328125 0.265625,-1.015625 0.3125,-1.296875 0.046875,-0.125 0.328125,-0.59375 0.5625,-0.8125 0.078125,-0.0625 0.375,-0.328125 0.796875,-0.328125 0.265625,0 0.40625,0.125 0.421875,0.125 -0.296875,0.046875 -0.515625,0.28125 -0.515625,0.546875 0,0.15625 0.109375,0.34375 0.375,0.34375 0.265625,0 0.546875,-0.234375 0.546875,-0.59375 0,-0.34375 -0.3125,-0.640625 -0.828125,-0.640625 C 2.875,-4.40625 2.4375,-3.921875 2.25,-3.640625 2.15625,-4.09375 1.796875,-4.40625 1.328125,-4.40625 0.875,-4.40625 0.6875,-4.015625 0.59375,-3.84375 0.421875,-3.5 0.296875,-2.90625 0.296875,-2.875 c 0,0.109375 0.09375,0.109375 0.109375,0.109375 0.109375,0 0.109375,-0.015625 0.171875,-0.234375 0.171875,-0.703125 0.375,-1.1875 0.734375,-1.1875 0.15625,0 0.296875,0.078125 0.296875,0.453125 0,0.21875 -0.03125,0.328125 -0.15625,0.84375 z m 0,0"
               id="id-14a34986-8318-4c05-ac72-0e81ceed0043" />
          </symbol>
          <symbol
             overflow="visible"
             id="id-aefe7270-49ee-4fd8-be6f-3564fb33a8d6">
            <path
               style="stroke:none"
               d="m 4.375,-7.09375 c 0.046875,-0.140625 0.046875,-0.171875 0.046875,-0.1875 0,-0.109375 -0.078125,-0.203125 -0.1875,-0.203125 -0.078125,0 -0.140625,0.03125 -0.171875,0.09375 l -3.46875,9.5 C 0.546875,2.25 0.546875,2.28125 0.546875,2.296875 0.546875,2.40625 0.640625,2.5 0.75,2.5 0.875,2.5 0.90625,2.421875 0.96875,2.25 Z m 0,0"
               id="id-c4717ec4-c23e-4a0a-9857-b6b067b23a80" />
          </symbol>
          <symbol
             overflow="visible"
             id="id-e46d5157-2190-4ccf-9d0b-8527fecb6f47">
            <path
               style="stroke:none"
               d=""
               id="id-a37bbac5-2b0a-409b-ad3e-79c555482b44" />
          </symbol>
          <symbol
             overflow="visible"
             id="id-47124a4f-6f6f-449b-ba01-4169da5a765b">
            <path
               style="stroke:none"
               d="M 3.59375,-2.21875 C 3.59375,-2.984375 3.5,-3.546875 3.1875,-4.03125 2.96875,-4.34375 2.53125,-4.625 1.984375,-4.625 c -1.625,0 -1.625,1.90625 -1.625,2.40625 0,0.5 0,2.359375 1.625,2.359375 1.609375,0 1.609375,-1.859375 1.609375,-2.359375 z M 1.984375,-0.0625 c -0.328125,0 -0.75,-0.1875 -0.890625,-0.75 C 1,-1.21875 1,-1.796875 1,-2.3125 1,-2.828125 1,-3.359375 1.09375,-3.734375 1.25,-4.28125 1.6875,-4.4375 1.984375,-4.4375 c 0.375,0 0.734375,0.234375 0.859375,0.640625 0.109375,0.375 0.125,0.875 0.125,1.484375 0,0.515625 0,1.03125 -0.09375,1.46875 -0.140625,0.640625 -0.609375,0.78125 -0.890625,0.78125 z m 0,0"
               id="id-2fbc4e3c-fe24-4e66-9344-8f722b387d7e" />
          </symbol>
        </g>
      </defs>
      <g
         id="id-ab699585-7cd7-4def-90b9-b3b9613dcdb4"
         transform="translate(-149.009,-127.281)">
        <g
           style="fill:#000000;fill-opacity:1"
           id="id-9d09585f-ef84-4a52-85a6-4919f5f47f80">
          <g
             id="g1420"
             transform="translate(148.712,134.765)">
            <path
               style="stroke:none"
               d="m 0.875,-0.59375 c -0.03125,0.15625 -0.09375,0.390625 -0.09375,0.4375 0,0.171875 0.140625,0.265625 0.296875,0.265625 0.125,0 0.296875,-0.078125 0.375,-0.28125 C 1.46875,-0.203125 1.796875,-1.5625 1.84375,-1.75 c 0.078125,-0.328125 0.265625,-1.015625 0.3125,-1.296875 0.046875,-0.125 0.328125,-0.59375 0.5625,-0.8125 0.078125,-0.0625 0.375,-0.328125 0.796875,-0.328125 0.265625,0 0.40625,0.125 0.421875,0.125 -0.296875,0.046875 -0.515625,0.28125 -0.515625,0.546875 0,0.15625 0.109375,0.34375 0.375,0.34375 0.265625,0 0.546875,-0.234375 0.546875,-0.59375 0,-0.34375 -0.3125,-0.640625 -0.828125,-0.640625 C 2.875,-4.40625 2.4375,-3.921875 2.25,-3.640625 2.15625,-4.09375 1.796875,-4.40625 1.328125,-4.40625 0.875,-4.40625 0.6875,-4.015625 0.59375,-3.84375 0.421875,-3.5 0.296875,-2.90625 0.296875,-2.875 c 0,0.109375 0.09375,0.109375 0.109375,0.109375 0.109375,0 0.109375,-0.015625 0.171875,-0.234375 0.171875,-0.703125 0.375,-1.1875 0.734375,-1.1875 0.15625,0 0.296875,0.078125 0.296875,0.453125 0,0.21875 -0.03125,0.328125 -0.15625,0.84375 z m 0,0"
               id="id-e801cf29-dd0c-4fac-b029-63b30b0d8474" />
          </g>
        </g>
        <g
           style="fill:#000000;fill-opacity:1"
           id="id-d2c38c46-6de3-4907-969d-7373da686859">
          <g
             id="g1424"
             transform="translate(153.207,136.259)">
            <path
               style="stroke:none"
               d="M 3.59375,-2.21875 C 3.59375,-2.984375 3.5,-3.546875 3.1875,-4.03125 2.96875,-4.34375 2.53125,-4.625 1.984375,-4.625 c -1.625,0 -1.625,1.90625 -1.625,2.40625 0,0.5 0,2.359375 1.625,2.359375 1.609375,0 1.609375,-1.859375 1.609375,-2.359375 z M 1.984375,-0.0625 c -0.328125,0 -0.75,-0.1875 -0.890625,-0.75 C 1,-1.21875 1,-1.796875 1,-2.3125 1,-2.828125 1,-3.359375 1.09375,-3.734375 1.25,-4.28125 1.6875,-4.4375 1.984375,-4.4375 c 0.375,0 0.734375,0.234375 0.859375,0.640625 0.109375,0.375 0.125,0.875 0.125,1.484375 0,0.515625 0,1.03125 -0.09375,1.46875 -0.140625,0.640625 -0.609375,0.78125 -0.890625,0.78125 z m 0,0"
               id="id-2926aba2-0adb-4d5f-8550-74d1f1e21533" />
          </g>
        </g>
        <g
           style="fill:#000000;fill-opacity:1"
           id="id-cddd71f0-7c42-4f5e-a331-32aa8e821c5f">
          <g
             id="g1428"
             transform="translate(159.89,134.765)">
            <path
               style="stroke:none"
               d="m 4.375,-7.09375 c 0.046875,-0.140625 0.046875,-0.171875 0.046875,-0.1875 0,-0.109375 -0.078125,-0.203125 -0.1875,-0.203125 -0.078125,0 -0.140625,0.03125 -0.171875,0.09375 l -3.46875,9.5 C 0.546875,2.25 0.546875,2.28125 0.546875,2.296875 0.546875,2.40625 0.640625,2.5 0.75,2.5 0.875,2.5 0.90625,2.421875 0.96875,2.25 Z m 0,0"
               id="id-50358a09-f9cd-4292-a1d1-63436fd6c1c9" />
          </g>
        </g>
        <g
           style="fill:#000000;fill-opacity:1"
           id="id-809490f4-a89a-4e6c-82b5-c058e03c521a">
          <g
             id="g1432"
             transform="translate(162.102,134.765)">
            <path
               style="stroke:none"
               d="m 4.375,-7.09375 c 0.046875,-0.140625 0.046875,-0.171875 0.046875,-0.1875 0,-0.109375 -0.078125,-0.203125 -0.1875,-0.203125 -0.078125,0 -0.140625,0.03125 -0.171875,0.09375 l -3.46875,9.5 C 0.546875,2.25 0.546875,2.28125 0.546875,2.296875 0.546875,2.40625 0.640625,2.5 0.75,2.5 0.875,2.5 0.90625,2.421875 0.96875,2.25 Z m 0,0"
               id="id-d6491d4c-e7f4-4e87-a6f8-272149b02806" />
          </g>
        </g>
        <g
           style="fill:#000000;fill-opacity:1"
           id="id-8cf9b0fb-27d3-4aa7-9f7d-97b2ed5d4bd1">
          <g
             id="g1436"
             transform="translate(169.295,134.765)">
            <path
               style="stroke:none"
               d="m 0.875,-0.59375 c -0.03125,0.15625 -0.09375,0.390625 -0.09375,0.4375 0,0.171875 0.140625,0.265625 0.296875,0.265625 0.125,0 0.296875,-0.078125 0.375,-0.28125 C 1.46875,-0.203125 1.796875,-1.5625 1.84375,-1.75 c 0.078125,-0.328125 0.265625,-1.015625 0.3125,-1.296875 0.046875,-0.125 0.328125,-0.59375 0.5625,-0.8125 0.078125,-0.0625 0.375,-0.328125 0.796875,-0.328125 0.265625,0 0.40625,0.125 0.421875,0.125 -0.296875,0.046875 -0.515625,0.28125 -0.515625,0.546875 0,0.15625 0.109375,0.34375 0.375,0.34375 0.265625,0 0.546875,-0.234375 0.546875,-0.59375 0,-0.34375 -0.3125,-0.640625 -0.828125,-0.640625 C 2.875,-4.40625 2.4375,-3.921875 2.25,-3.640625 2.15625,-4.09375 1.796875,-4.40625 1.328125,-4.40625 0.875,-4.40625 0.6875,-4.015625 0.59375,-3.84375 0.421875,-3.5 0.296875,-2.90625 0.296875,-2.875 c 0,0.109375 0.09375,0.109375 0.109375,0.109375 0.109375,0 0.109375,-0.015625 0.171875,-0.234375 0.171875,-0.703125 0.375,-1.1875 0.734375,-1.1875 0.15625,0 0.296875,0.078125 0.296875,0.453125 0,0.21875 -0.03125,0.328125 -0.15625,0.84375 z m 0,0"
               id="id-d316e861-e719-4698-8449-afb7d74d1334" />
          </g>
        </g>
      </g>
    </g>
    <g
       id="g1569"
       ns21:jacobian_sqrt="0.705556"
       ns21:alignment="middle center"
       ns21:scale="2.0"
       ns21:preamble="C:\\Users\\claum\\AppData\\Roaming\\inkscape\\extensions\\textext\\default_packages.tex"
       ns21:text="$\\lambda$"
       ns21:pdfconverter="inkscape"
       ns21:texconverter="pdflatex"
       ns21:version="1.0.1"
       transform="matrix(0.705556,0,0,0.705556,154.07378,134.84557)">
      <defs
         id="id-fd137d52-464c-424b-b80e-b4d3a3d6a5e2">
        <g
           id="id-0f26cde3-87b9-4741-ac49-cc6dbeab15e1">
          <symbol
             overflow="visible"
             id="id-16fa2c0c-002b-4700-b819-71bed9ef2e9d">
            <path
               style="stroke:none"
               d=""
               id="id-cd48d16f-80e0-4472-8658-d6fbe86b380f" />
          </symbol>
          <symbol
             overflow="visible"
             id="id-57797545-b648-4017-86e1-bc1d54a5f551">
            <path
               style="stroke:none"
               d="m 3.5625,-2.90625 c 0.40625,1.046875 0.890625,2.5625 1.046875,2.796875 0.15625,0.21875 0.25,0.21875 0.53125,0.21875 h 0.21875 c 0.09375,-0.015625 0.109375,-0.0625 0.109375,-0.09375 0,-0.03125 -0.03125,-0.0625 -0.0625,-0.09375 C 5.3125,-0.1875 5.25,-0.34375 5.1875,-0.53125 L 3.15625,-6.203125 c -0.21875,-0.578125 -0.75,-0.71875 -1.21875,-0.71875 -0.046875,0 -0.1875,0 -0.1875,0.109375 0,0.078125 0.078125,0.109375 0.09375,0.109375 C 2.171875,-6.65625 2.25,-6.59375 2.5,-5.90625 l 0.953125,2.703125 -2.75,2.734375 c -0.109375,0.125 -0.171875,0.171875 -0.171875,0.3125 0,0.171875 0.140625,0.28125 0.296875,0.28125 0.15625,0 0.25,-0.109375 0.328125,-0.203125 z m 0,0"
               id="id-94e60de2-38dd-4c25-8b73-1d1de8c902eb" />
          </symbol>
        </g>
      </defs>
      <g
         id="id-e5787277-2150-44a6-bf53-67c6f2ccdcaa"
         transform="translate(-149.243,-127.843)">
        <g
           style="fill:#000000;fill-opacity:1"
           id="id-51c282ca-7c1a-4117-8f08-74b3c9dde43a">
          <g
             id="g1565"
             transform="translate(148.712,134.765)">
            <path
               style="stroke:none"
               d="m 3.5625,-2.90625 c 0.40625,1.046875 0.890625,2.5625 1.046875,2.796875 0.15625,0.21875 0.25,0.21875 0.53125,0.21875 h 0.21875 c 0.09375,-0.015625 0.109375,-0.0625 0.109375,-0.09375 0,-0.03125 -0.03125,-0.0625 -0.0625,-0.09375 C 5.3125,-0.1875 5.25,-0.34375 5.1875,-0.53125 L 3.15625,-6.203125 c -0.21875,-0.578125 -0.75,-0.71875 -1.21875,-0.71875 -0.046875,0 -0.1875,0 -0.1875,0.109375 0,0.078125 0.078125,0.109375 0.09375,0.109375 C 2.171875,-6.65625 2.25,-6.59375 2.5,-5.90625 l 0.953125,2.703125 -2.75,2.734375 c -0.109375,0.125 -0.171875,0.171875 -0.171875,0.3125 0,0.171875 0.140625,0.28125 0.296875,0.28125 0.15625,0 0.25,-0.109375 0.328125,-0.203125 z m 0,0"
               id="id-7a134d97-653d-42bf-86b6-4a907478e175" />
          </g>
        </g>
      </g>
    </g>
    <g
       id="g1699"
       ns21:jacobian_sqrt="0.705556"
       ns21:alignment="middle center"
       ns21:scale="2.0"
       ns21:preamble="C:\\Users\\claum\\AppData\\Roaming\\inkscape\\extensions\\textext\\default_packages.tex"
       ns21:text="$\\lambda_G$"
       ns21:pdfconverter="inkscape"
       ns21:texconverter="pdflatex"
       ns21:version="1.0.1"
       transform="matrix(0.705556,0,0,0.705556,105.86111,136.16666)">
      <defs
         id="id-be35476c-580d-4402-a538-d4966f317411">
        <g
           id="id-e5a5c142-3ec4-4c4a-88c2-ad1bbd849afc">
          <symbol
             overflow="visible"
             id="id-311b655e-a6e7-4d12-9676-2b7ab5cb1dbc">
            <path
               style="stroke:none"
               d=""
               id="id-430ef7a5-99e1-4b4a-8fc8-18dc43348536" />
          </symbol>
          <symbol
             overflow="visible"
             id="id-f91c29c0-f1f9-4b54-abe2-43f75ae14505">
            <path
               style="stroke:none"
               d="m 3.5625,-2.90625 c 0.40625,1.046875 0.890625,2.5625 1.046875,2.796875 0.15625,0.21875 0.25,0.21875 0.53125,0.21875 h 0.21875 c 0.09375,-0.015625 0.109375,-0.0625 0.109375,-0.09375 0,-0.03125 -0.03125,-0.0625 -0.0625,-0.09375 C 5.3125,-0.1875 5.25,-0.34375 5.1875,-0.53125 L 3.15625,-6.203125 c -0.21875,-0.578125 -0.75,-0.71875 -1.21875,-0.71875 -0.046875,0 -0.1875,0 -0.1875,0.109375 0,0.078125 0.078125,0.109375 0.09375,0.109375 C 2.171875,-6.65625 2.25,-6.59375 2.5,-5.90625 l 0.953125,2.703125 -2.75,2.734375 c -0.109375,0.125 -0.171875,0.171875 -0.171875,0.3125 0,0.171875 0.140625,0.28125 0.296875,0.28125 0.15625,0 0.25,-0.109375 0.328125,-0.203125 z m 0,0"
               id="id-86f95c4a-3948-49d1-bdd9-01fbe8db2359" />
          </symbol>
          <symbol
             overflow="visible"
             id="id-974fb96d-7d5c-4616-ba8e-f16cabc6800b">
            <path
               style="stroke:none"
               d=""
               id="id-33e30c96-7011-411a-8c28-fdc45216d852" />
          </symbol>
          <symbol
             overflow="visible"
             id="id-771ebd4b-b61e-4c45-8096-557ad366fa0c">
            <path
               style="stroke:none"
               d="m 5.875,-4.8125 c 0,-0.03125 -0.015625,-0.09375 -0.09375,-0.09375 -0.046875,0 -0.0625,0.015625 -0.125,0.09375 l -0.5,0.53125 c -0.0625,-0.078125 -0.453125,-0.625 -1.3125,-0.625 -1.703125,0 -3.359375,1.5 -3.359375,3.078125 0,1.078125 0.828125,1.96875 2.15625,1.96875 0.625,0 1.265625,-0.15625 1.625,-0.546875 C 4.34375,-0.265625 4.53125,0 4.609375,0 4.671875,0 4.6875,-0.03125 4.71875,-0.1875 l 0.140625,-0.53125 c 0.03125,-0.125 0.125,-0.546875 0.15625,-0.625 0.078125,-0.3125 0.078125,-0.328125 0.5,-0.328125 0.046875,0 0.15625,0 0.15625,-0.140625 0,-0.078125 -0.0625,-0.109375 -0.109375,-0.109375 -0.234375,0 -0.53125,0.03125 -0.765625,0.03125 -0.171875,0 -0.40625,0 -0.578125,-0.015625 -0.171875,0 -0.375,-0.015625 -0.546875,-0.015625 -0.0625,0 -0.15625,0 -0.15625,0.15625 0,0.09375 0.078125,0.09375 0.25,0.09375 0.125,0 0.265625,0 0.40625,0.015625 0.21875,0.015625 0.21875,0.046875 0.21875,0.125 0,0.03125 0,0.046875 -0.046875,0.234375 -0.046875,0.1875 -0.125,0.5 -0.15625,0.578125 C 4,-0.296875 3.34375,-0.109375 2.796875,-0.109375 c -0.6875,0 -1.609375,-0.34375 -1.609375,-1.515625 0,-0.75 0.359375,-1.671875 0.875,-2.203125 0.71875,-0.703125 1.453125,-0.8125 1.84375,-0.8125 0.8125,0 1.28125,0.578125 1.28125,1.359375 0,0.1875 -0.015625,0.25 -0.015625,0.28125 0,0.09375 0.09375,0.09375 0.125,0.09375 0.109375,0 0.109375,-0.015625 0.140625,-0.15625 z m 0,0"
               id="id-ba9e03f5-ccf7-40cb-8e9a-7dabf5b43fc0" />
          </symbol>
        </g>
      </defs>
      <g
         id="id-cdb9757b-1f67-4653-87ae-f014fa8df9c0"
         transform="translate(-149.243,-127.843)">
        <g
           style="fill:#000000;fill-opacity:1"
           id="id-ef9a45c3-025f-4f51-a9f7-5849356ebf15">
          <g
             id="g1691"
             transform="translate(148.712,134.765)">
            <path
               style="stroke:none"
               d="m 3.5625,-2.90625 c 0.40625,1.046875 0.890625,2.5625 1.046875,2.796875 0.15625,0.21875 0.25,0.21875 0.53125,0.21875 h 0.21875 c 0.09375,-0.015625 0.109375,-0.0625 0.109375,-0.09375 0,-0.03125 -0.03125,-0.0625 -0.0625,-0.09375 C 5.3125,-0.1875 5.25,-0.34375 5.1875,-0.53125 L 3.15625,-6.203125 c -0.21875,-0.578125 -0.75,-0.71875 -1.21875,-0.71875 -0.046875,0 -0.1875,0 -0.1875,0.109375 0,0.078125 0.078125,0.109375 0.09375,0.109375 C 2.171875,-6.65625 2.25,-6.59375 2.5,-5.90625 l 0.953125,2.703125 -2.75,2.734375 c -0.109375,0.125 -0.171875,0.171875 -0.171875,0.3125 0,0.171875 0.140625,0.28125 0.296875,0.28125 0.15625,0 0.25,-0.109375 0.328125,-0.203125 z m 0,0"
               id="id-5217ae5f-63da-4b16-8207-84ebddd96315" />
          </g>
        </g>
        <g
           style="fill:#000000;fill-opacity:1"
           id="id-0ba9b7dc-ae78-41e8-ad57-ec03d62f9b7d">
          <g
             id="g1695"
             transform="translate(154.524,136.259)">
            <path
               style="stroke:none"
               d="m 5.875,-4.8125 c 0,-0.03125 -0.015625,-0.09375 -0.09375,-0.09375 -0.046875,0 -0.0625,0.015625 -0.125,0.09375 l -0.5,0.53125 c -0.0625,-0.078125 -0.453125,-0.625 -1.3125,-0.625 -1.703125,0 -3.359375,1.5 -3.359375,3.078125 0,1.078125 0.828125,1.96875 2.15625,1.96875 0.625,0 1.265625,-0.15625 1.625,-0.546875 C 4.34375,-0.265625 4.53125,0 4.609375,0 4.671875,0 4.6875,-0.03125 4.71875,-0.1875 l 0.140625,-0.53125 c 0.03125,-0.125 0.125,-0.546875 0.15625,-0.625 0.078125,-0.3125 0.078125,-0.328125 0.5,-0.328125 0.046875,0 0.15625,0 0.15625,-0.140625 0,-0.078125 -0.0625,-0.109375 -0.109375,-0.109375 -0.234375,0 -0.53125,0.03125 -0.765625,0.03125 -0.171875,0 -0.40625,0 -0.578125,-0.015625 -0.171875,0 -0.375,-0.015625 -0.546875,-0.015625 -0.0625,0 -0.15625,0 -0.15625,0.15625 0,0.09375 0.078125,0.09375 0.25,0.09375 0.125,0 0.265625,0 0.40625,0.015625 0.21875,0.015625 0.21875,0.046875 0.21875,0.125 0,0.03125 0,0.046875 -0.046875,0.234375 -0.046875,0.1875 -0.125,0.5 -0.15625,0.578125 C 4,-0.296875 3.34375,-0.109375 2.796875,-0.109375 c -0.6875,0 -1.609375,-0.34375 -1.609375,-1.515625 0,-0.75 0.359375,-1.671875 0.875,-2.203125 0.71875,-0.703125 1.453125,-0.8125 1.84375,-0.8125 0.8125,0 1.28125,0.578125 1.28125,1.359375 0,0.1875 -0.015625,0.25 -0.015625,0.28125 0,0.09375 0.09375,0.09375 0.125,0.09375 0.109375,0 0.109375,-0.015625 0.140625,-0.15625 z m 0,0"
               id="id-36ab1673-6544-496e-ae8d-98954ebc23e6" />
          </g>
        </g>
      </g>
    </g>
    <g
       id="g1854"
       ns21:jacobian_sqrt="0.705556"
       ns21:alignment="middle center"
       ns21:scale="2.0"
       ns21:preamble="C:\\Users\\claum\\AppData\\Roaming\\inkscape\\extensions\\textext\\default_packages.tex"
       ns21:text="$\\lambda_0$"
       ns21:pdfconverter="inkscape"
       ns21:texconverter="pdflatex"
       ns21:version="1.0.1"
       transform="matrix(0.705556,0,0,0.705556,141.93828,87.376125)">
      <defs
         id="id-f18a28b8-3196-4255-9528-56f30cdd904d">
        <g
           id="id-38a5a729-5a08-42ee-bc94-938275b9bccb">
          <symbol
             overflow="visible"
             id="id-ea6e48eb-5e6b-4335-9285-349c0352053a">
            <path
               style="stroke:none"
               d=""
               id="id-36ef67ad-9e45-45ed-8514-b2adad3ba453" />
          </symbol>
          <symbol
             overflow="visible"
             id="id-964ea609-3330-4111-8f60-4daec42e51a1">
            <path
               style="stroke:none"
               d="m 3.5625,-2.90625 c 0.40625,1.046875 0.890625,2.5625 1.046875,2.796875 0.15625,0.21875 0.25,0.21875 0.53125,0.21875 h 0.21875 c 0.09375,-0.015625 0.109375,-0.0625 0.109375,-0.09375 0,-0.03125 -0.03125,-0.0625 -0.0625,-0.09375 C 5.3125,-0.1875 5.25,-0.34375 5.1875,-0.53125 L 3.15625,-6.203125 c -0.21875,-0.578125 -0.75,-0.71875 -1.21875,-0.71875 -0.046875,0 -0.1875,0 -0.1875,0.109375 0,0.078125 0.078125,0.109375 0.09375,0.109375 C 2.171875,-6.65625 2.25,-6.59375 2.5,-5.90625 l 0.953125,2.703125 -2.75,2.734375 c -0.109375,0.125 -0.171875,0.171875 -0.171875,0.3125 0,0.171875 0.140625,0.28125 0.296875,0.28125 0.15625,0 0.25,-0.109375 0.328125,-0.203125 z m 0,0"
               id="id-be9656cb-8532-4ece-82b1-3b462a3c4ae1" />
          </symbol>
          <symbol
             overflow="visible"
             id="id-3506f6b7-6161-4860-8918-d5481147fb4d">
            <path
               style="stroke:none"
               d=""
               id="id-4f42c519-1b1b-4ab3-8961-c92499537364" />
          </symbol>
          <symbol
             overflow="visible"
             id="id-113ad3c7-b3ae-48de-b8dd-dacd53dbe4cd">
            <path
               style="stroke:none"
               d="M 3.59375,-2.21875 C 3.59375,-2.984375 3.5,-3.546875 3.1875,-4.03125 2.96875,-4.34375 2.53125,-4.625 1.984375,-4.625 c -1.625,0 -1.625,1.90625 -1.625,2.40625 0,0.5 0,2.359375 1.625,2.359375 1.609375,0 1.609375,-1.859375 1.609375,-2.359375 z M 1.984375,-0.0625 c -0.328125,0 -0.75,-0.1875 -0.890625,-0.75 C 1,-1.21875 1,-1.796875 1,-2.3125 1,-2.828125 1,-3.359375 1.09375,-3.734375 1.25,-4.28125 1.6875,-4.4375 1.984375,-4.4375 c 0.375,0 0.734375,0.234375 0.859375,0.640625 0.109375,0.375 0.125,0.875 0.125,1.484375 0,0.515625 0,1.03125 -0.09375,1.46875 -0.140625,0.640625 -0.609375,0.78125 -0.890625,0.78125 z m 0,0"
               id="id-6c996e7b-8cb8-4fb6-ad46-29fc935f6e70" />
          </symbol>
        </g>
      </defs>
      <g
         id="id-38f4aa26-98bf-41c3-a459-6024df26e4be"
         transform="translate(-149.243,-127.843)">
        <g
           style="fill:#000000;fill-opacity:1"
           id="id-0b18a56e-cc11-4f47-b960-0387ba1bc478">
          <g
             id="g1846"
             transform="translate(148.712,134.765)">
            <path
               style="stroke:none"
               d="m 3.5625,-2.90625 c 0.40625,1.046875 0.890625,2.5625 1.046875,2.796875 0.15625,0.21875 0.25,0.21875 0.53125,0.21875 h 0.21875 c 0.09375,-0.015625 0.109375,-0.0625 0.109375,-0.09375 0,-0.03125 -0.03125,-0.0625 -0.0625,-0.09375 C 5.3125,-0.1875 5.25,-0.34375 5.1875,-0.53125 L 3.15625,-6.203125 c -0.21875,-0.578125 -0.75,-0.71875 -1.21875,-0.71875 -0.046875,0 -0.1875,0 -0.1875,0.109375 0,0.078125 0.078125,0.109375 0.09375,0.109375 C 2.171875,-6.65625 2.25,-6.59375 2.5,-5.90625 l 0.953125,2.703125 -2.75,2.734375 c -0.109375,0.125 -0.171875,0.171875 -0.171875,0.3125 0,0.171875 0.140625,0.28125 0.296875,0.28125 0.15625,0 0.25,-0.109375 0.328125,-0.203125 z m 0,0"
               id="id-07333aa7-5fc5-46bd-ab12-6a997ef80b4b" />
          </g>
        </g>
        <g
           style="fill:#000000;fill-opacity:1"
           id="id-cab06ff1-4588-4094-a841-ece354cbda18">
          <g
             id="g1850"
             transform="translate(154.524,136.259)">
            <path
               style="stroke:none"
               d="M 3.59375,-2.21875 C 3.59375,-2.984375 3.5,-3.546875 3.1875,-4.03125 2.96875,-4.34375 2.53125,-4.625 1.984375,-4.625 c -1.625,0 -1.625,1.90625 -1.625,2.40625 0,0.5 0,2.359375 1.625,2.359375 1.609375,0 1.609375,-1.859375 1.609375,-2.359375 z M 1.984375,-0.0625 c -0.328125,0 -0.75,-0.1875 -0.890625,-0.75 C 1,-1.21875 1,-1.796875 1,-2.3125 1,-2.828125 1,-3.359375 1.09375,-3.734375 1.25,-4.28125 1.6875,-4.4375 1.984375,-4.4375 c 0.375,0 0.734375,0.234375 0.859375,0.640625 0.109375,0.375 0.125,0.875 0.125,1.484375 0,0.515625 0,1.03125 -0.09375,1.46875 -0.140625,0.640625 -0.609375,0.78125 -0.890625,0.78125 z m 0,0"
               id="id-4e3d385e-7640-4370-99a8-ab6f06f95998" />
          </g>
        </g>
      </g>
    </g>
    <path
       transform="scale(0.26458333)"
       id="path381"
       d="M 135.87511,449.20238 C 104.09847,440.13202 87.943601,430.69356 62.761883,406.48603 40.71244,385.28961 35.939662,376.49166 35.932665,357.03016 c -0.0055,-15.36595 4.875672,-53.48943 10.232461,-79.91831 5.187185,-25.59212 18.766517,-77.62105 23.63363,-90.55178 4.190051,-11.13194 16.472978,-34.44822 18.14719,-34.44822 0.65903,0 25.096144,17.2294 54.304694,38.28755 29.20855,21.05815 58.41622,42.06801 64.90592,46.68857 9.3186,6.63469 11.62148,8.96179 10.95295,11.06811 -0.46557,1.4669 0.2058,4.2731 1.49195,6.23599 2.02337,3.08805 3.24228,3.51568 9.04702,3.17387 l 6.70862,-0.39503 69.64286,49.76247 c 38.30357,27.36937 69.64285,50.28988 69.64285,50.9345 0,1.72047 -22.86984,21.55551 -38.91688,33.75264 -28.33135,21.53427 -44.57037,29.7249 -74.65455,37.65421 -9.42857,2.4851 -27.021,7.3574 -39.09428,10.82732 -43.25739,12.4324 -66.00545,14.83668 -86.10199,9.10033 z"
       style="fill:#000000;stroke:#000000;stroke-width:1.43082;opacity:0.03498542" />
    <path
       transform="scale(0.26458333)"
       id="path1206"
       d="m 306.23508,304.43598 c -67.43395,-48.21923 -70.56718,-50.65895 -70.9266,-55.2278 -0.49541,-6.29765 -4.18444,-8.9543 -10.97227,-7.90166 -5.04859,0.78291 -6.8893,-0.31011 -37.85715,-22.48009 -45.74449,-32.74858 -95.194053,-68.38152 -96.561763,-69.58157 -2.898428,-2.54313 16.896363,-30.72766 30.290263,-43.12836 17.82534,-16.503537 31.275,-21.207897 72.8072,-25.466173 33.43471,-3.428043 154.0724,-23.528218 187.34234,-31.21424 34.48748,-7.967296 49.43767,-10.176209 68.57143,-10.131528 66.41485,0.155089 99.01273,20.925358 116.50937,74.235861 3.43917,10.47881 3.99454,14.4921 4.0527,29.28571 0.0564,14.3514 -0.43416,18.38356 -3.0126,24.76223 -4.10657,10.15902 -13.271,25.23059 -19.97059,32.84312 l -5.43603,6.17677 -22.5,-16.05827 c -18.33112,-13.08295 -22.5,-16.6932 -22.5,-19.48498 0,-4.79132 -2.50504,-8.94911 -5.4074,-8.97503 -1.84147,-0.0164 -1.98762,-0.31498 -0.58861,-1.20234 1.02361,-0.64926 1.75106,-1.76441 1.61654,-2.47813 -0.6306,-3.3457 0.3411,-4.86908 3.10577,-4.86908 2.49946,0 2.85948,0.60774 2.11565,3.57143 -0.80787,3.21882 -0.47056,3.57143 3.41655,3.57143 2.37212,0 4.31293,-0.64286 4.31293,-1.42857 0,-0.78572 -0.59168,-1.42858 -1.31487,-1.42858 -0.72317,0 -1.76234,-4.17857 -2.30927,-9.28571 -0.54693,-5.10714 -1.40167,-9.2734 -1.89943,-9.25835 -0.49774,0.0151 -3.3413,4.19362 -6.31898,9.28571 -2.9777,5.0921 -6.10005,9.25835 -6.93856,9.25835 -0.83852,0 -1.15454,0.96429 -0.70227,2.14286 0.5042,1.31393 -10e-4,2.14286 -1.30636,2.14286 -1.17076,0 -2.83931,1.55974 -3.7079,3.46608 -3.60254,7.90671 3.33779,15.96566 10.81541,12.55862 3.14852,-1.43456 5.43556,-0.16658 25.35715,14.05848 12.04308,8.5994 22.08097,16.18769 22.3064,16.86286 0.6177,1.84996 -18.46715,18.4782 -51.12417,44.54343 -22.13528,17.66729 -38.95406,32.8959 -68.88388,62.37104 -21.77898,21.44815 -40.10041,38.97745 -40.71428,38.95402 -0.61387,-0.0234 -32.86389,-22.74413 -71.66672,-50.4904 z M 250.3571,240.08583 c 0,-1.11431 0.3902,-3.04288 0.86713,-4.28571 0.69194,-1.80317 -0.17392,-2.2597 -4.28572,-2.2597 -2.83407,0 -5.15284,0.64286 -5.15284,1.42857 0,0.78572 0.64286,1.42857 1.42857,1.42857 0.78572,0 1.42857,0.68556 1.42857,1.52346 0,0.8379 -1.76785,1.32004 -3.92857,1.07143 -3.29193,-0.37877 -4.00224,-1.21956 -4.38318,-5.1882 -0.76545,-7.97437 6.33854,-12.33442 9.74032,-5.97812 2.18225,4.07756 4.28572,3.52889 4.28572,-1.11788 0,-3.70369 -0.4289,-3.99369 -6.28324,-4.24847 -8.1866,-0.3563 -13.71676,3.67554 -13.71676,10.00041 0,6.94176 3.47153,9.65166 12.36427,9.65166 5.63923,0 7.63573,-0.52974 7.63573,-2.02602 z m 233.52178,-81.9312 c 0.47339,-1.23361 0.20428,-2.64862 -0.59801,-3.14446 -0.9797,-0.60548 -0.99559,-2.51639 -0.0484,-5.81907 1.99966,-6.97227 1.77429,-8.50782 -1.24867,-8.50782 -2.04171,0 -2.50579,0.8017 -1.99891,3.4532 0.52802,2.76218 -0.003,3.54834 -2.65036,3.92858 -4.48329,0.64377 -8.22737,7.24792 -5.78052,10.19619 2.3942,2.88485 11.20623,2.80862 12.3249,-0.10661 z"
       style="opacity:0.0349854;fill:#000000;stroke:#000000;stroke-width:1.43082" />
    <path
       transform="scale(0.26458333)"
       id="path1208"
       d="m 492.67974,152.15994 c 0.0932,-0.17187 1.20543,-2.05647 2.47166,-4.188 l 2.30224,-3.8755 0.31845,3.33979 c 0.17514,1.83688 0.36263,3.72148 0.41663,4.188 l 0.0982,0.84821 h -2.8883 c -2.69626,0 -2.87704,-0.0208 -2.71887,-0.3125 z"
       style="opacity:0.0349854;fill:#000000;stroke:#000000;stroke-width:0.178852" />
    <path
       transform="scale(0.26458333)"
       id="path1210"
       d="m 474.70363,159.05866 c -0.65302,-0.24157 -1.10791,-1.1944 -1.10866,-2.32225 -8.6e-4,-1.29108 0.74167,-4.22744 1.41734,-5.60495 0.71239,-1.45235 1.36614,-2.04028 2.58333,-2.32323 0.9076,-0.21098 1.02999,-0.20183 1.42158,0.1062 0.23567,0.18537 0.55866,0.66237 0.71775,1.05999 0.28318,0.70773 0.27404,0.78351 -0.43397,3.59963 -0.80829,3.21499 -0.95874,3.5774 -1.80753,4.35414 -1.18526,1.08463 -2.01016,1.41889 -2.78984,1.13047 z"
       style="opacity:0.0349854;fill:#000000;stroke:#000000;stroke-width:0.178852" />
  </g>
</svg>
