<?xml version="1.0" encoding="UTF-8" standalone="no"?>
<svg
   xmlns:ns2="http://www.iki.fi/pav/software/textext/"
   xmlns:dc="http://purl.org/dc/elements/1.1/"
   xmlns:cc="http://creativecommons.org/ns#"
   xmlns:rdf="http://www.w3.org/1999/02/22-rdf-syntax-ns#"
   xmlns:svg="http://www.w3.org/2000/svg"
   xmlns="http://www.w3.org/2000/svg"
   xmlns:sodipodi="http://sodipodi.sourceforge.net/DTD/sodipodi-0.dtd"
   xmlns:inkscape="http://www.inkscape.org/namespaces/inkscape"
   id="svg5576"
   version="1.1"
   viewBox="0 0 435 244.99999"
   height="24.5cm"
   width="43.5cm"
   inkscape:version="1.0 (4035a4fb49, 2020-05-01)"
   sodipodi:docname="Figura9_2.svg">
  <defs
     id="defs5570">
    <marker
       inkscape:isstock="true"
       style="overflow:visible"
       id="marker6589"
       refX="0"
       refY="0"
       orient="auto"
       inkscape:stockid="Arrow1Lend">
      <path
         transform="matrix(-0.8,0,0,-0.8,-10,0)"
         style="fill:#000000;fill-opacity:1;fill-rule:evenodd;stroke:#000000;stroke-width:1pt;stroke-opacity:1"
         d="M 0,0 5,-5 -12.5,0 5,5 Z"
         id="path6587" />
    </marker>
    <marker
       inkscape:collect="always"
       inkscape:stockid="Arrow1Lend"
       orient="auto"
       refY="0"
       refX="0"
       id="marker6533"
       style="overflow:visible"
       inkscape:isstock="true">
      <path
         id="path6531"
         d="M 0,0 5,-5 -12.5,0 5,5 Z"
         style="fill:#000000;fill-opacity:1;fill-rule:evenodd;stroke:#000000;stroke-width:1pt;stroke-opacity:1"
         transform="matrix(-0.8,0,0,-0.8,-10,0)" />
    </marker>
    <marker
       inkscape:collect="always"
       inkscape:isstock="true"
       style="overflow:visible"
       id="marker6485"
       refX="0"
       refY="0"
       orient="auto"
       inkscape:stockid="Arrow1Lend">
      <path
         transform="matrix(-0.8,0,0,-0.8,-10,0)"
         style="fill:#000000;fill-opacity:1;fill-rule:evenodd;stroke:#000000;stroke-width:1pt;stroke-opacity:1"
         d="M 0,0 5,-5 -12.5,0 5,5 Z"
         id="path6483" />
    </marker>
    <marker
       inkscape:isstock="true"
       style="overflow:visible"
       id="marker6403"
       refX="0"
       refY="0"
       orient="auto"
       inkscape:stockid="Arrow1Lend">
      <path
         transform="matrix(-0.8,0,0,-0.8,-10,0)"
         style="fill:#000000;fill-opacity:1;fill-rule:evenodd;stroke:#000000;stroke-width:1pt;stroke-opacity:1"
         d="M 0,0 5,-5 -12.5,0 5,5 Z"
         id="path6401" />
    </marker>
    <g
       id="id-47b58b54-6b20-4159-a4a7-474508c55758">
      <symbol
         overflow="visible"
         id="id-07918363-3558-4610-a0c9-1c24b46186b2">
        <path
           style="stroke:none"
           d=""
           id="id-ad023a07-befd-4467-8fcd-b04d81570ace" />
      </symbol>
      <symbol
         overflow="visible"
         id="id-cd59f0d0-7a2a-4074-91bb-25522b65d580">
        <path
           style="stroke:none"
           d="m 4.75,-2.359375 c 0,-1.5625 -0.921875,-2.046875 -1.65625,-2.046875 -1.375,0 -2.6875,1.421875 -2.6875,2.828125 0,0.9375 0.59375,1.6875 1.625,1.6875 0.625,0 1.34375,-0.234375 2.09375,-0.84375 0.125,0.53125 0.453125,0.84375 0.90625,0.84375 0.53125,0 0.84375,-0.546875 0.84375,-0.703125 0,-0.078125 -0.0625,-0.109375 -0.125,-0.109375 -0.0625,0 -0.09375,0.03125 -0.125,0.109375 -0.1875,0.484375 -0.546875,0.484375 -0.5625,0.484375 -0.3125,0 -0.3125,-0.78125 -0.3125,-1.015625 0,-0.203125 0,-0.234375 0.109375,-0.34375 C 5.796875,-2.65625 6,-3.8125 6,-3.8125 6,-3.84375 5.984375,-3.921875 5.875,-3.921875 c -0.09375,0 -0.09375,0.03125 -0.140625,0.21875 -0.1875,0.625 -0.515625,1.375 -0.984375,1.96875 z m -0.65625,1.375 c -0.890625,0.765625 -1.65625,0.875 -2.046875,0.875 -0.59375,0 -0.90625,-0.453125 -0.90625,-1.09375 0,-0.484375 0.265625,-1.5625 0.578125,-2.0625 C 2.1875,-4 2.734375,-4.1875 3.078125,-4.1875 c 0.984375,0 0.984375,1.3125 0.984375,2.078125 0,0.375 0,0.953125 0.03125,1.125 z m 0,0"
           id="id-3486cb98-5402-459d-bc06-fc669f0e4b05" />
      </symbol>
    </g>
    <g
       id="id-bf3570ba-b7b5-421d-a84d-0cfea900e74f">
      <symbol
         overflow="visible"
         id="id-a8f6b4b3-cf04-4c23-89ca-76b24d61d7ed">
        <path
           style="stroke:none"
           d=""
           id="id-ac2dda4d-f42d-4d04-bdb2-c6425e6dea41" />
      </symbol>
      <symbol
         overflow="visible"
         id="id-afe449b9-78e5-495c-937c-addfffaaf031">
        <path
           style="stroke:none"
           d="m 7.640625,-6.671875 c 0,-0.1875 0,-0.28125 -0.1875,-0.28125 -0.09375,0 -0.109375,0.03125 -0.1875,0.09375 l -0.65625,0.59375 c -0.625,-0.5 -1.28125,-0.6875 -1.96875,-0.6875 -2.484375,0 -4,1.484375 -4,3.53125 0,2.046875 1.515625,3.53125 4,3.53125 1.875,0 3,-1.21875 3,-2.375 0,-0.203125 -0.078125,-0.203125 -0.25,-0.203125 -0.125,0 -0.21875,0 -0.21875,0.171875 -0.078125,1.328125 -1.28125,1.9375 -2.28125,1.9375 -0.78125,0 -1.625,-0.234375 -2.140625,-0.84375 -0.46875,-0.578125 -0.59375,-1.3125 -0.59375,-2.21875 0,-0.5625 0.03125,-1.625 0.671875,-2.296875 0.640625,-0.65625 1.515625,-0.765625 2.03125,-0.765625 1.078125,0 2.015625,0.765625 2.234375,2.03125 C 7.125,-4.265625 7.140625,-4.25 7.359375,-4.25 c 0.265625,0 0.28125,-0.015625 0.28125,-0.28125 z m 0,0"
           id="id-f1ea325c-28fd-4cf0-9127-92146883d4e1" />
      </symbol>
    </g>
    <g
       id="id-a3dad378-92b7-43a1-b68a-3fa80cfbe6c8">
      <symbol
         overflow="visible"
         id="id-4dca04a5-4c05-4f12-abb4-5d5de6b4c4de">
        <path
           style="stroke:none"
           d=""
           id="id-ddcc3478-5534-47fc-886e-f17e912a3c84" />
      </symbol>
      <symbol
         overflow="visible"
         id="id-54aac1fd-3fb2-4b75-b71e-d4049b2b468d">
        <path
           style="stroke:none"
           d="M 6.515625,-0.53125 C 6.8125,-0.265625 7.421875,0 7.484375,0 7.625,0 7.625,-0.125 7.625,-0.28125 v -2 H 8.421875 V -2.75 c -0.34375,0.03125 -1.21875,0.03125 -1.609375,0.03125 -0.578125,0 -1.5,0 -2.03125,-0.03125 v 0.46875 h 1.421875 v 1 c 0,0.1875 0,0.484375 -0.375,0.71875 C 5.5625,-0.421875 5.25,-0.359375 4.921875,-0.359375 c -0.859375,0 -1.71875,-0.28125 -2.203125,-0.90625 -0.421875,-0.546875 -0.5625,-1.25 -0.5625,-2.15625 0,-1.125 0.203125,-1.703125 0.578125,-2.1875 0.390625,-0.5 1.15625,-0.875 2.125,-0.875 1.0625,0 2.015625,0.765625 2.234375,2.03125 C 7.125,-4.265625 7.125,-4.25 7.359375,-4.25 c 0.25,0 0.265625,-0.015625 0.265625,-0.28125 v -2.140625 c 0,-0.1875 0,-0.28125 -0.171875,-0.28125 -0.09375,0 -0.109375,0.03125 -0.203125,0.09375 l -0.65625,0.59375 c -0.71875,-0.578125 -1.4375,-0.6875 -1.953125,-0.6875 -2.453125,0 -4,1.46875 -4,3.53125 0,1.984375 1.4375,3.53125 4.015625,3.53125 0.328125,0 1.359375,-0.015625 1.859375,-0.640625 z m 0,0"
           id="id-39532095-c259-4e86-98be-8d7d2e386f25" />
      </symbol>
    </g>
    <g
       id="id-70f7515c-c567-4964-9cb7-9aee1f31a2e4">
      <symbol
         overflow="visible"
         id="id-d7feafc4-2828-4227-80d0-771a4cb80349">
        <path
           style="stroke:none"
           d=""
           id="id-828a8e22-1f10-4ceb-82a6-0fa480cd6b4a" />
      </symbol>
      <symbol
         overflow="visible"
         id="id-dd1f1a70-b93f-4c35-b211-d1bb55e63805">
        <path
           style="stroke:none"
           d="M 7.5,-6.375 H 8.578125 V -6.84375 C 8.1875,-6.8125 7.21875,-6.8125 6.78125,-6.8125 c -0.421875,0 -1.390625,0 -1.78125,-0.03125 V -6.375 h 1.078125 v 2.59375 H 2.875 V -6.375 h 1.078125 v -0.46875 c -0.375,0.03125 -1.34375,0.03125 -1.78125,0.03125 -0.421875,0 -1.40625,0 -1.78125,-0.03125 V -6.375 H 1.46875 v 5.90625 H 0.390625 V 0 c 0.375,-0.03125 1.359375,-0.03125 1.78125,-0.03125 0.4375,0 1.40625,0 1.78125,0.03125 V -0.46875 H 2.875 V -3.3125 h 3.203125 v 2.84375 H 5 V 0 c 0.390625,-0.03125 1.359375,-0.03125 1.78125,-0.03125 0.4375,0 1.40625,0 1.796875,0.03125 V -0.46875 H 7.5 Z m 0,0"
           id="id-2e40217b-bb02-4ecb-b44b-bb3c786ecc5c" />
      </symbol>
    </g>
    <marker
       inkscape:collect="always"
       inkscape:stockid="Arrow1Lend"
       orient="auto"
       refY="0"
       refX="0"
       id="Arrow1Lend"
       style="overflow:visible"
       inkscape:isstock="true">
      <path
         id="path888"
         d="M 0,0 5,-5 -12.5,0 5,5 Z"
         style="fill:#000000;fill-opacity:1;fill-rule:evenodd;stroke:#000000;stroke-width:1pt;stroke-opacity:1"
         transform="matrix(-0.8,0,0,-0.8,-10,0)" />
    </marker>
    <g
       id="id-17e09a94-1202-484c-9c9f-29b7ca5343ad">
      <symbol
         overflow="visible"
         id="id-aeb34122-c2df-4ef2-a67d-13b69b010361">
        <path
           style="stroke:none"
           d=""
           id="id-e016a2be-c47d-4193-a627-801f0479c0fd" />
      </symbol>
      <symbol
         overflow="visible"
         id="id-9a44170f-411a-4059-9eb2-37f6e84514ba">
        <path
           style="stroke:none"
           d="m 1.265625,-0.765625 1.0625,-1.03125 c 1.546875,-1.375 2.140625,-1.90625 2.140625,-2.90625 0,-1.140625 -0.890625,-1.9375 -2.109375,-1.9375 -1.125,0 -1.859375,0.921875 -1.859375,1.8125 0,0.546875 0.5,0.546875 0.53125,0.546875 0.171875,0 0.515625,-0.109375 0.515625,-0.53125 0,-0.25 -0.1875,-0.515625 -0.53125,-0.515625 -0.078125,0 -0.09375,0 -0.125,0.015625 0.21875,-0.65625 0.765625,-1.015625 1.34375,-1.015625 0.90625,0 1.328125,0.8125 1.328125,1.625 C 3.5625,-3.90625 3.078125,-3.125 2.515625,-2.5 l -1.90625,2.125 C 0.5,-0.265625 0.5,-0.234375 0.5,0 H 4.203125 L 4.46875,-1.734375 H 4.234375 C 4.171875,-1.4375 4.109375,-1 4,-0.84375 3.9375,-0.765625 3.28125,-0.765625 3.0625,-0.765625 Z m 0,0"
           id="id-e7149a58-a092-4c65-9fb3-5ab6bad4e910" />
      </symbol>
      <symbol
         overflow="visible"
         id="id-5181184e-b95b-42c5-9d3c-ee4c6192e54a">
        <path
           style="stroke:none"
           d=""
           id="id-84064881-706b-4fb7-9153-5d7e24477998" />
      </symbol>
      <symbol
         overflow="visible"
         id="id-17e3f953-5b30-44b5-80a0-28c070e34617">
        <path
           style="stroke:none"
           d="m 3.015625,-3.234375 h 0.96875 c 0.75,0 0.828125,0.15625 0.828125,0.4375 0,0.078125 0,0.1875 -0.0625,0.5 C 4.71875,-2.25 4.71875,-2.21875 4.71875,-2.1875 c 0,0.078125 0.0625,0.109375 0.109375,0.109375 0.109375,0 0.109375,-0.03125 0.15625,-0.203125 L 5.53125,-4.453125 C 5.5625,-4.5625 5.5625,-4.578125 5.5625,-4.609375 5.5625,-4.625 5.546875,-4.71875 5.4375,-4.71875 5.34375,-4.71875 5.328125,-4.671875 5.296875,-4.5 5.078125,-3.734375 4.859375,-3.546875 4,-3.546875 H 3.09375 l 0.640625,-2.53125 C 3.828125,-6.4375 3.84375,-6.46875 4.28125,-6.46875 h 1.3125 c 1.21875,0 1.453125,0.328125 1.453125,1.09375 0,0.234375 0,0.265625 -0.03125,0.546875 C 7,-4.703125 7,-4.6875 7,-4.65625 c 0,0.046875 0.03125,0.125 0.125,0.125 0.109375,0 0.109375,-0.0625 0.125,-0.25 L 7.453125,-6.515625 C 7.484375,-6.78125 7.4375,-6.78125 7.1875,-6.78125 H 2.296875 c -0.1875,0 -0.296875,0 -0.296875,0.203125 0,0.109375 0.09375,0.109375 0.28125,0.109375 0.375,0 0.65625,0 0.65625,0.171875 0,0.046875 0,0.0625 -0.0625,0.25 L 1.5625,-0.78125 c -0.09375,0.390625 -0.109375,0.46875 -0.90625,0.46875 -0.171875,0 -0.28125,0 -0.28125,0.1875 C 0.375,0 0.5,0 0.53125,0 0.8125,0 1.5625,-0.03125 1.84375,-0.03125 2.171875,-0.03125 3,0 3.328125,0 3.421875,0 3.53125,0 3.53125,-0.1875 3.53125,-0.265625 3.484375,-0.296875 3.484375,-0.296875 3.453125,-0.3125 3.421875,-0.3125 3.203125,-0.3125 c -0.21875,0 -0.265625,0 -0.515625,-0.015625 -0.296875,-0.03125 -0.328125,-0.078125 -0.328125,-0.203125 0,-0.015625 0,-0.078125 0.046875,-0.21875 z m 0,0"
           id="id-9e92f62f-8582-4b2c-87f7-a7cfa36bef65" />
      </symbol>
    </g>
    <g
       id="id-945cddc5-acb7-4ed1-ba36-0848d4a757d0">
      <symbol
         overflow="visible"
         id="id-e4031abd-2a2b-496e-a4ae-d5f48f5f142d">
        <path
           style="stroke:none"
           d=""
           id="id-753d3289-f13e-4618-98b4-a21b3a44d134" />
      </symbol>
      <symbol
         overflow="visible"
         id="id-ad8ff8af-f9bf-4ccc-9f29-faff7c314218">
        <path
           style="stroke:none"
           d="m 1.140625,-2.1875 c 0.125,-0.046875 0.46875,-0.265625 0.46875,-0.40625 0,-0.0625 -0.046875,-0.0625 -0.109375,-0.0625 -0.34375,0 -1.328125,0.421875 -1.328125,1.421875 0,0.71875 0.8125,1.453125 2.03125,1.453125 1.625,0 3.515625,-1.125 3.515625,-2.484375 0,-0.9375 -1,-1.40625 -1.8125,-1.765625 C 3.203125,-4.34375 2.75,-4.75 2.75,-5.328125 2.75,-5.53125 2.84375,-5.921875 3.15625,-6.1875 3.453125,-6.453125 4,-6.484375 4.140625,-6.484375 c 0.109375,0 0.53125,0.015625 0.96875,0.203125 0.1875,0.09375 0.4375,0.203125 0.4375,0.640625 0,0.140625 0,0.1875 -0.03125,0.296875 C 5.5,-5.3125 5.5,-5.28125 5.5,-5.25 c 0,0.078125 0.046875,0.078125 0.09375,0.078125 0.125,0 0.375,-0.109375 0.5625,-0.265625 0.140625,-0.109375 0.25,-0.234375 0.25,-0.625 0,-0.484375 -0.265625,-0.625 -0.53125,-0.75 -0.46875,-0.21875 -0.9375,-0.21875 -1.0625,-0.21875 -1.3125,0 -2.90625,1 -2.90625,2.140625 0,0.828125 0.859375,1.234375 1.34375,1.4375 0.703125,0.328125 1.609375,0.78125 1.609375,1.625 0,0.65625 -0.484375,1.5 -2,1.5 -1.015625,0 -1.828125,-0.65625 -1.828125,-1.34375 0,-0.171875 0.046875,-0.359375 0.109375,-0.515625 z m 0,0"
           id="id-ff77492f-564a-41ec-8d4a-3f257076e85a" />
      </symbol>
    </g>
  </defs>
  <sodipodi:namedview
     inkscape:window-maximized="0"
     inkscape:window-y="0"
     inkscape:window-x="0"
     inkscape:window-height="738"
     inkscape:window-width="1366"
     units="cm"
     showgrid="true"
     inkscape:document-rotation="0"
     inkscape:current-layer="layer1"
     inkscape:document-units="mm"
     inkscape:cy="314.6866"
     inkscape:cx="771.67684"
     inkscape:zoom="0.35"
     inkscape:pageshadow="2"
     inkscape:pageopacity="0.0"
     borderopacity="1.0"
     bordercolor="#666666"
     pagecolor="#ffffff"
     id="base">
    <inkscape:grid
       id="grid5578"
       type="xygrid" />
  </sodipodi:namedview>
  <metadata
     id="metadata5573">
    <rdf:RDF>
      <cc:Work
         rdf:about="">
        <dc:format>image/svg+xml</dc:format>
        <dc:type
           rdf:resource="http://purl.org/dc/dcmitype/StillImage" />
        <dc:title></dc:title>
      </cc:Work>
    </rdf:RDF>
  </metadata>
  <g
     id="layer1"
     inkscape:groupmode="layer"
     inkscape:label="Livello 1">
    <path
       id="path845"
       d="M 202.20584,110 V 210"
       style="fill:none;stroke:#000000;stroke-width:1.2;stroke-linecap:butt;stroke-linejoin:miter;stroke-miterlimit:4;stroke-dasharray:none;stroke-opacity:1" />
    <path
       style="fill:none;stroke:#000000;stroke-width:1.2;stroke-linecap:butt;stroke-linejoin:miter;stroke-miterlimit:4;stroke-dasharray:none;stroke-opacity:1"
       d="m 302.20584,110 h -100"
       id="path847" />
    <path
       id="path849"
       d="m 402.20584,110 h -100"
       style="fill:none;stroke:#000000;stroke-width:1.2;stroke-linecap:butt;stroke-linejoin:miter;stroke-miterlimit:4;stroke-dasharray:none;stroke-opacity:1" />
    <path
       style="fill:none;fill-opacity:1;stroke:#000000;stroke-width:0.799999;stroke-linecap:round;stroke-linejoin:bevel;stroke-miterlimit:4;stroke-dasharray:none"
       id="path1255"
       sodipodi:type="arc"
       sodipodi:cx="402.20575"
       sodipodi:cy="109.99999"
       sodipodi:rx="120"
       sodipodi:ry="120"
       sodipodi:start="2.6761892"
       sodipodi:end="3.137093"
       sodipodi:open="true"
       sodipodi:arc-type="arc"
       d="M 294.96888,163.854 A 120,120 0 0 1 282.20696,110.53995" />
    <g
       id="g1888"
       ns2:jacobian_sqrt="1.94028"
       ns2:inkscapeversion="1.0"
       ns2:alignment="middle center"
       ns2:scale="5.5"
       ns2:preamble="C:\\Users\\claum\\AppData\\Roaming\\inkscape\\extensions\\textext\\default_packages.tex"
       ns2:text="$\\alpha$"
       ns2:pdfconverter="inkscape"
       ns2:texconverter="pdflatex"
       ns2:version="1.0.1"
       transform="matrix(1.94028,0,0,1.94028,291.35189,128.84844)">
      <defs
         id="id-e729cc57-7d83-42a3-8e4e-e05cc62a5565">
        <g
           id="g5729">
          <symbol
             overflow="visible"
             id="symbol5723">
            <path
               style="stroke:none"
               d=""
               id="path5721" />
          </symbol>
          <symbol
             overflow="visible"
             id="symbol5727">
            <path
               style="stroke:none"
               d="m 4.75,-2.359375 c 0,-1.5625 -0.921875,-2.046875 -1.65625,-2.046875 -1.375,0 -2.6875,1.421875 -2.6875,2.828125 0,0.9375 0.59375,1.6875 1.625,1.6875 0.625,0 1.34375,-0.234375 2.09375,-0.84375 0.125,0.53125 0.453125,0.84375 0.90625,0.84375 0.53125,0 0.84375,-0.546875 0.84375,-0.703125 0,-0.078125 -0.0625,-0.109375 -0.125,-0.109375 -0.0625,0 -0.09375,0.03125 -0.125,0.109375 -0.1875,0.484375 -0.546875,0.484375 -0.5625,0.484375 -0.3125,0 -0.3125,-0.78125 -0.3125,-1.015625 0,-0.203125 0,-0.234375 0.109375,-0.34375 C 5.796875,-2.65625 6,-3.8125 6,-3.8125 6,-3.84375 5.984375,-3.921875 5.875,-3.921875 c -0.09375,0 -0.09375,0.03125 -0.140625,0.21875 -0.1875,0.625 -0.515625,1.375 -0.984375,1.96875 z m -0.65625,1.375 c -0.890625,0.765625 -1.65625,0.875 -2.046875,0.875 -0.59375,0 -0.90625,-0.453125 -0.90625,-1.09375 0,-0.484375 0.265625,-1.5625 0.578125,-2.0625 C 2.1875,-4 2.734375,-4.1875 3.078125,-4.1875 c 0.984375,0 0.984375,1.3125 0.984375,2.078125 0,0.375 0,0.953125 0.03125,1.125 z m 0,0"
               id="path5725" />
          </symbol>
        </g>
      </defs>
      <g
         id="id-88f48e4f-973b-43bd-8efd-1c9fad6a27f3"
         transform="translate(-149.118,-130.359)">
        <g
           style="fill:#000000;fill-opacity:1"
           id="id-15925e32-215e-4663-bf86-3d9678b12da5">
          <g
             id="g1884"
             transform="translate(148.712,134.765)">
            <path
               style="stroke:none"
               d="m 4.75,-2.359375 c 0,-1.5625 -0.921875,-2.046875 -1.65625,-2.046875 -1.375,0 -2.6875,1.421875 -2.6875,2.828125 0,0.9375 0.59375,1.6875 1.625,1.6875 0.625,0 1.34375,-0.234375 2.09375,-0.84375 0.125,0.53125 0.453125,0.84375 0.90625,0.84375 0.53125,0 0.84375,-0.546875 0.84375,-0.703125 0,-0.078125 -0.0625,-0.109375 -0.125,-0.109375 -0.0625,0 -0.09375,0.03125 -0.125,0.109375 -0.1875,0.484375 -0.546875,0.484375 -0.5625,0.484375 -0.3125,0 -0.3125,-0.78125 -0.3125,-1.015625 0,-0.203125 0,-0.234375 0.109375,-0.34375 C 5.796875,-2.65625 6,-3.8125 6,-3.8125 6,-3.84375 5.984375,-3.921875 5.875,-3.921875 c -0.09375,0 -0.09375,0.03125 -0.140625,0.21875 -0.1875,0.625 -0.515625,1.375 -0.984375,1.96875 z m -0.65625,1.375 c -0.890625,0.765625 -1.65625,0.875 -2.046875,0.875 -0.59375,0 -0.90625,-0.453125 -0.90625,-1.09375 0,-0.484375 0.265625,-1.5625 0.578125,-2.0625 C 2.1875,-4 2.734375,-4.1875 3.078125,-4.1875 c 0.984375,0 0.984375,1.3125 0.984375,2.078125 0,0.375 0,0.953125 0.03125,1.125 z m 0,0"
               id="id-2b87ce09-aae7-4d2f-8816-0a796dc774b4" />
          </g>
        </g>
      </g>
    </g>
    <g
       id="g3049"
       ns2:jacobian_sqrt="1.94028"
       ns2:inkscapeversion="1.0"
       ns2:alignment="middle center"
       ns2:scale="5.5"
       ns2:preamble="C:\\Users\\claum\\AppData\\Roaming\\inkscape\\extensions\\textext\\default_packages.tex"
       ns2:text="$\\mathbf{C}$"
       ns2:pdfconverter="inkscape"
       ns2:texconverter="pdflatex"
       ns2:version="1.0.1"
       transform="matrix(1.94028,0,0,1.94028,220.21983,213.878)">
      <defs
         id="id-8b5c75f9-780a-44de-9e7b-a842a2a76f66">
        <g
           id="g5745">
          <symbol
             overflow="visible"
             id="symbol5739">
            <path
               style="stroke:none"
               d=""
               id="path5737" />
          </symbol>
          <symbol
             overflow="visible"
             id="symbol5743">
            <path
               style="stroke:none"
               d="m 7.640625,-6.671875 c 0,-0.1875 0,-0.28125 -0.1875,-0.28125 -0.09375,0 -0.109375,0.03125 -0.1875,0.09375 l -0.65625,0.59375 c -0.625,-0.5 -1.28125,-0.6875 -1.96875,-0.6875 -2.484375,0 -4,1.484375 -4,3.53125 0,2.046875 1.515625,3.53125 4,3.53125 1.875,0 3,-1.21875 3,-2.375 0,-0.203125 -0.078125,-0.203125 -0.25,-0.203125 -0.125,0 -0.21875,0 -0.21875,0.171875 -0.078125,1.328125 -1.28125,1.9375 -2.28125,1.9375 -0.78125,0 -1.625,-0.234375 -2.140625,-0.84375 -0.46875,-0.578125 -0.59375,-1.3125 -0.59375,-2.21875 0,-0.5625 0.03125,-1.625 0.671875,-2.296875 0.640625,-0.65625 1.515625,-0.765625 2.03125,-0.765625 1.078125,0 2.015625,0.765625 2.234375,2.03125 C 7.125,-4.265625 7.140625,-4.25 7.359375,-4.25 c 0.265625,0 0.28125,-0.015625 0.28125,-0.28125 z m 0,0"
               id="path5741" />
          </symbol>
        </g>
      </defs>
      <g
         id="id-976eefc1-1a8a-44d1-bfde-436154a57242"
         transform="translate(-149.353,-127.812)">
        <g
           style="fill:#000000;fill-opacity:1"
           id="id-5d3fa3ee-1a6f-4013-aca5-8b2d481e04c3">
          <g
             id="g3045"
             transform="translate(148.712,134.765)">
            <path
               style="stroke:none"
               d="m 7.640625,-6.671875 c 0,-0.1875 0,-0.28125 -0.1875,-0.28125 -0.09375,0 -0.109375,0.03125 -0.1875,0.09375 l -0.65625,0.59375 c -0.625,-0.5 -1.28125,-0.6875 -1.96875,-0.6875 -2.484375,0 -4,1.484375 -4,3.53125 0,2.046875 1.515625,3.53125 4,3.53125 1.875,0 3,-1.21875 3,-2.375 0,-0.203125 -0.078125,-0.203125 -0.25,-0.203125 -0.125,0 -0.21875,0 -0.21875,0.171875 -0.078125,1.328125 -1.28125,1.9375 -2.28125,1.9375 -0.78125,0 -1.625,-0.234375 -2.140625,-0.84375 -0.46875,-0.578125 -0.59375,-1.3125 -0.59375,-2.21875 0,-0.5625 0.03125,-1.625 0.671875,-2.296875 0.640625,-0.65625 1.515625,-0.765625 2.03125,-0.765625 1.078125,0 2.015625,0.765625 2.234375,2.03125 C 7.125,-4.265625 7.140625,-4.25 7.359375,-4.25 c 0.265625,0 0.28125,-0.015625 0.28125,-0.28125 z m 0,0"
               id="id-0970bfb8-ce38-4c40-973d-a312559354f9" />
          </g>
        </g>
      </g>
    </g>
    <g
       id="g3297"
       ns2:jacobian_sqrt="1.94028"
       ns2:inkscapeversion="1.0"
       ns2:alignment="middle center"
       ns2:scale="5.5"
       ns2:preamble="C:\\Users\\claum\\AppData\\Roaming\\inkscape\\extensions\\textext\\default_packages.tex"
       ns2:text="$\\mathbf{G}$"
       ns2:pdfconverter="inkscape"
       ns2:texconverter="pdflatex"
       ns2:version="1.0.1"
       transform="matrix(1.94028,0,0,1.94028,218.86683,82.666)">
      <defs
         id="id-cc9f821b-c18d-4ab6-a13c-7393f907c5de">
        <g
           id="g5761">
          <symbol
             overflow="visible"
             id="symbol5755">
            <path
               style="stroke:none"
               d=""
               id="path5753" />
          </symbol>
          <symbol
             overflow="visible"
             id="symbol5759">
            <path
               style="stroke:none"
               d="M 6.515625,-0.53125 C 6.8125,-0.265625 7.421875,0 7.484375,0 7.625,0 7.625,-0.125 7.625,-0.28125 v -2 H 8.421875 V -2.75 c -0.34375,0.03125 -1.21875,0.03125 -1.609375,0.03125 -0.578125,0 -1.5,0 -2.03125,-0.03125 v 0.46875 h 1.421875 v 1 c 0,0.1875 0,0.484375 -0.375,0.71875 C 5.5625,-0.421875 5.25,-0.359375 4.921875,-0.359375 c -0.859375,0 -1.71875,-0.28125 -2.203125,-0.90625 -0.421875,-0.546875 -0.5625,-1.25 -0.5625,-2.15625 0,-1.125 0.203125,-1.703125 0.578125,-2.1875 0.390625,-0.5 1.15625,-0.875 2.125,-0.875 1.0625,0 2.015625,0.765625 2.234375,2.03125 C 7.125,-4.265625 7.125,-4.25 7.359375,-4.25 c 0.25,0 0.265625,-0.015625 0.265625,-0.28125 v -2.140625 c 0,-0.1875 0,-0.28125 -0.171875,-0.28125 -0.09375,0 -0.109375,0.03125 -0.203125,0.09375 l -0.65625,0.59375 c -0.71875,-0.578125 -1.4375,-0.6875 -1.953125,-0.6875 -2.453125,0 -4,1.46875 -4,3.53125 0,1.984375 1.4375,3.53125 4.015625,3.53125 0.328125,0 1.359375,-0.015625 1.859375,-0.640625 z m 0,0"
               id="path5757" />
          </symbol>
        </g>
      </defs>
      <g
         id="id-8618748c-dc47-4135-a69b-eddd45d1baab"
         transform="translate(-149.353,-127.812)">
        <g
           style="fill:#000000;fill-opacity:1"
           id="id-0bfa4b6b-e742-44f3-9179-f9fc02021cd1">
          <g
             id="g3293"
             transform="translate(148.712,134.765)">
            <path
               style="stroke:none"
               d="M 6.515625,-0.53125 C 6.8125,-0.265625 7.421875,0 7.484375,0 7.625,0 7.625,-0.125 7.625,-0.28125 v -2 H 8.421875 V -2.75 c -0.34375,0.03125 -1.21875,0.03125 -1.609375,0.03125 -0.578125,0 -1.5,0 -2.03125,-0.03125 v 0.46875 h 1.421875 v 1 c 0,0.1875 0,0.484375 -0.375,0.71875 C 5.5625,-0.421875 5.25,-0.359375 4.921875,-0.359375 c -0.859375,0 -1.71875,-0.28125 -2.203125,-0.90625 -0.421875,-0.546875 -0.5625,-1.25 -0.5625,-2.15625 0,-1.125 0.203125,-1.703125 0.578125,-2.1875 0.390625,-0.5 1.15625,-0.875 2.125,-0.875 1.0625,0 2.015625,0.765625 2.234375,2.03125 C 7.125,-4.265625 7.125,-4.25 7.359375,-4.25 c 0.25,0 0.265625,-0.015625 0.265625,-0.28125 v -2.140625 c 0,-0.1875 0,-0.28125 -0.171875,-0.28125 -0.09375,0 -0.109375,0.03125 -0.203125,0.09375 l -0.65625,0.59375 c -0.71875,-0.578125 -1.4375,-0.6875 -1.953125,-0.6875 -2.453125,0 -4,1.46875 -4,3.53125 0,1.984375 1.4375,3.53125 4.015625,3.53125 0.328125,0 1.359375,-0.015625 1.859375,-0.640625 z m 0,0"
               id="id-c2a7ce49-e3c5-4416-ab71-b7a1735603ef" />
          </g>
        </g>
      </g>
    </g>
    <g
       id="g3556"
       ns2:jacobian_sqrt="1.94028"
       ns2:inkscapeversion="1.0"
       ns2:alignment="middle center"
       ns2:scale="5.5"
       ns2:preamble="C:\\Users\\claum\\AppData\\Roaming\\inkscape\\extensions\\textext\\default_packages.tex"
       ns2:text="$\\mathbf{H}$"
       ns2:pdfconverter="inkscape"
       ns2:texconverter="pdflatex"
       ns2:version="1.0.1"
       transform="matrix(1.94028,0,0,1.94028,415.11469,84.63023)">
      <defs
         id="id-272eecd9-5268-4b48-94ce-c57f48a83ed4">
        <g
           id="g5777">
          <symbol
             overflow="visible"
             id="symbol5771">
            <path
               style="stroke:none"
               d=""
               id="path5769" />
          </symbol>
          <symbol
             overflow="visible"
             id="symbol5775">
            <path
               style="stroke:none"
               d="M 7.5,-6.375 H 8.578125 V -6.84375 C 8.1875,-6.8125 7.21875,-6.8125 6.78125,-6.8125 c -0.421875,0 -1.390625,0 -1.78125,-0.03125 V -6.375 h 1.078125 v 2.59375 H 2.875 V -6.375 h 1.078125 v -0.46875 c -0.375,0.03125 -1.34375,0.03125 -1.78125,0.03125 -0.421875,0 -1.40625,0 -1.78125,-0.03125 V -6.375 H 1.46875 v 5.90625 H 0.390625 V 0 c 0.375,-0.03125 1.359375,-0.03125 1.78125,-0.03125 0.4375,0 1.40625,0 1.78125,0.03125 V -0.46875 H 2.875 V -3.3125 h 3.203125 v 2.84375 H 5 V 0 c 0.390625,-0.03125 1.359375,-0.03125 1.78125,-0.03125 0.4375,0 1.40625,0 1.796875,0.03125 V -0.46875 H 7.5 Z m 0,0"
               id="path5773" />
          </symbol>
        </g>
      </defs>
      <g
         id="id-dd68859a-0b1b-4d11-b4c0-d8c29ba3187e"
         transform="translate(-149.103,-127.921)">
        <g
           style="fill:#000000;fill-opacity:1"
           id="id-8afd75e8-d831-4149-98b5-3f4d17ff2569">
          <g
             id="g3552"
             transform="translate(148.712,134.765)">
            <path
               style="stroke:none"
               d="M 7.5,-6.375 H 8.578125 V -6.84375 C 8.1875,-6.8125 7.21875,-6.8125 6.78125,-6.8125 c -0.421875,0 -1.390625,0 -1.78125,-0.03125 V -6.375 h 1.078125 v 2.59375 H 2.875 V -6.375 h 1.078125 v -0.46875 c -0.375,0.03125 -1.34375,0.03125 -1.78125,0.03125 -0.421875,0 -1.40625,0 -1.78125,-0.03125 V -6.375 H 1.46875 v 5.90625 H 0.390625 V 0 c 0.375,-0.03125 1.359375,-0.03125 1.78125,-0.03125 0.4375,0 1.40625,0 1.78125,0.03125 V -0.46875 H 2.875 V -3.3125 h 3.203125 v 2.84375 H 5 V 0 c 0.390625,-0.03125 1.359375,-0.03125 1.78125,-0.03125 0.4375,0 1.40625,0 1.796875,0.03125 V -0.46875 H 7.5 Z m 0,0"
               id="id-6b1cbe71-af20-418f-86a8-5afd7951d302" />
          </g>
        </g>
      </g>
    </g>
    <path
       id="path5785"
       d="m 202.20699,210.53996 200,-100"
       style="fill:none;stroke:#000000;stroke-width:1.2;stroke-linecap:butt;stroke-linejoin:miter;stroke-miterlimit:4;stroke-dasharray:none;stroke-opacity:1" />
    <path
       style="fill:none;stroke:#000000;stroke-width:0.799999;stroke-linecap:butt;stroke-linejoin:miter;stroke-miterlimit:4;stroke-dasharray:none;stroke-opacity:1;marker-end:url(#Arrow1Lend)"
       d="M 202.20699,5.5399558 V 95.539956"
       id="path883" />
    <path
       id="path6399"
       d="M 402.20699,5.5399558 V 95.539956"
       style="fill:none;stroke:#000000;stroke-width:0.799999;stroke-linecap:butt;stroke-linejoin:miter;stroke-miterlimit:4;stroke-dasharray:none;stroke-opacity:1;marker-end:url(#marker6403)" />
    <circle
       style="fill:#ffffff;fill-opacity:1;stroke:#000000;stroke-width:1.2;stroke-linecap:round;stroke-linejoin:bevel;stroke-miterlimit:4;stroke-dasharray:none"
       id="path877"
       cx="402.20575"
       cy="109.99999"
       r="10" />
    <path
       id="path6463"
       d="m 202.20699,110.53996 h -100"
       style="fill:none;stroke:#000000;stroke-width:1.2;stroke-linecap:butt;stroke-linejoin:miter;stroke-miterlimit:4;stroke-dasharray:none;stroke-opacity:1" />
    <path
       sodipodi:nodetypes="cc"
       style="fill:none;stroke:#000000;stroke-width:1.2;stroke-linecap:butt;stroke-linejoin:miter;stroke-miterlimit:4;stroke-dasharray:none;stroke-opacity:1"
       d="M 102.20699,110.53996 H 83.20698"
       id="path6465" />
    <circle
       style="fill:#ffffff;fill-opacity:1;stroke:#000000;stroke-width:1.2;stroke-linecap:round;stroke-linejoin:bevel;stroke-miterlimit:4;stroke-dasharray:none"
       id="path873"
       cx="202.20583"
       cy="109.99999"
       r="10" />
    <path
       d="m 97.27707,94.375482 c -1.31607,0.0099 -2.62735,-0.04673 -3.93306,0.139742 -1.91094,0.251582 -3.48592,1.431343 -5.10976,2.3935 -1.08383,0.582795 -2.01113,1.33704 -2.93959,2.132936 -1.14352,0.820026 -1.65819,2.05328 -2.14637,3.32084 -0.49635,1.04404 -0.76665,2.16486 -1.16077,3.24629 -0.41911,1.11657 -0.79981,2.25102 -1.14174,3.39488 -0.31994,1.12946 -0.35385,2.3042 -0.38744,3.46915 -0.0494,1.22921 -0.0671,2.42943 0.21863,3.62923 0.41434,1.36253 1.14244,2.5476 2.01024,3.66128 0.75468,1.01866 1.45249,2.07044 2.21667,3.08149 0.67684,0.94182 1.30287,1.8919 2.12403,2.7173 0.86565,0.8569 1.2852,2.02035 1.82692,3.08774 0.63823,1.44096 1.21635,2.90929 1.78008,4.38142 0.56734,1.51332 1.07463,3.03957 1.37075,4.62998 0.20467,1.15698 0.39152,2.32935 0.68071,3.46927 0.36796,1.13635 0.73644,2.2506 0.93448,3.43303 0.096,1.26775 0.27748,2.51963 0.45145,3.77853 0.17192,1.29417 0.23151,2.59869 0.26307,3.90261 0.0205,1.20238 0.0187,2.40498 0.0169,3.60748 -0.005,1.27651 0.0873,2.54382 -0.23117,3.78922 -0.26193,0.98122 -0.78288,1.87947 -1.48662,2.60826 -0.63849,0.72142 -1.37136,1.30567 -2.15934,1.85441 -1.19514,0.75652 -2.21201,1.7585 -3.30345,2.65247 -0.84961,0.85087 -1.70228,1.70998 -2.45263,2.6507 -0.83733,1.10426 -1.4842,2.28596 -1.86085,3.61895 -0.2494,1.17829 -0.26245,2.37973 -0.44553,3.56855 -0.17092,1.25172 -0.6862,2.43014 -1.12067,3.61088 -0.45655,1.15705 -0.67202,2.3741 -0.78423,3.60633 -0.0817,1.16304 -0.067,2.32982 -0.0661,3.4949 -0.0247,1.5272 -0.29544,3.04758 -0.52998,4.5554 -0.25945,1.57726 -0.42673,3.16641 -0.49471,4.76296 -0.0426,1.25188 -0.0426,2.50464 -0.0426,3.75709 0.008,1.19537 -0.0903,2.38557 0.2378,3.54574 0.27767,0.94432 0.66918,1.84259 1.00251,2.76592 0.29756,1.01982 0.74449,2.00611 1.22763,2.9516 0.45249,1.08377 1.23138,1.97329 1.81708,2.97706 0.59469,0.82734 1.2037,1.64657 1.85399,2.43216 1.04053,1.07363 2.23938,1.99961 3.11854,3.21637 0.67276,0.90131 1.167,1.9192 1.67052,2.92145 0.51132,1.04031 0.68737,2.17593 0.7832,3.31784 0.10335,1.22894 -0.1682,2.44119 -0.48996,3.61829 -0.41633,1.4532 -1.10131,2.77806 -1.88538,4.06151 -0.72856,1.12216 -1.84185,1.8532 -2.81015,2.73536 -0.53046,0.43747 -1.03214,0.90273 -1.56091,1.34371 0,0 2.44718,-0.98865 2.44718,-0.98865 v 0 c 0.52407,-0.44195 1.02378,-0.91005 1.55105,-1.34799 0.99617,-0.86477 2.06538,-1.65906 2.76957,-2.80436 0.77511,-1.30815 1.45092,-2.66237 1.86498,-4.13277 0.31873,-1.20497 0.5594,-2.44697 0.44759,-3.69952 -0.10237,-1.17428 -0.30378,-2.33736 -0.82634,-3.40716 -0.50177,-1.01873 -1.02029,-2.04139 -1.70219,-2.95254 -0.8786,-1.22327 -2.07482,-2.15908 -3.12029,-3.23537 -0.63885,-0.77693 -1.23052,-1.59031 -1.82583,-2.39991 -0.58691,-0.99707 -1.37166,-1.87544 -1.81839,-2.95687 -0.46741,-0.94401 -0.9087,-1.9182 -1.20054,-2.93146 -0.33587,-0.9147 -0.72332,-1.80667 -1,-2.74367 -0.30969,-1.13919 -0.18216,-2.31299 -0.20461,-3.48282 -0.002,-1.24754 -0.005,-2.49552 0.0405,-3.74243 0.0767,-1.58422 0.23025,-3.16292 0.48995,-4.72849 0.24012,-1.52311 0.53035,-3.05719 0.53363,-4.60283 -7e-5,-1.15829 -0.006,-2.31852 0.0812,-3.47429 0.12119,-1.21246 0.3531,-2.40553 0.80605,-3.54276 0.43098,-1.19825 0.95788,-2.38398 1.10082,-3.65935 0.1746,-1.17864 0.1847,-2.37532 0.46275,-3.53699 0.39866,-1.29875 1.06138,-2.45493 1.90255,-3.52262 0.76825,-0.91653 1.59792,-1.78724 2.47131,-2.60397 1.07799,-0.91132 2.12171,-1.87875 3.31831,-2.63529 0.78854,-0.5591 1.49784,-1.19153 2.14342,-1.9128 0.66492,-0.79819 1.18432,-1.69944 1.41751,-2.72161 0.27342,-1.26894 0.20998,-2.55287 0.20742,-3.84497 2e-4,-1.20491 0.007,-2.41004 -0.0186,-3.61475 -0.0382,-1.3115 -0.1088,-2.62286 -0.28372,-3.92428 -0.17109,-1.26215 -0.33292,-2.52072 -0.4508,-3.78883 -0.20731,-1.18621 -0.5753,-2.30914 -0.93932,-3.45267 -0.27759,-1.13798 -0.47591,-2.30007 -0.6816,-3.45255 -0.3159,-1.59956 -0.83505,-3.13744 -1.40388,-4.66383 -0.56046,-1.48317 -1.13999,-2.96116 -1.78517,-4.40919 -0.54554,-1.09757 -0.97261,-2.28782 -1.86111,-3.1651 -0.81735,-0.81395 -1.4338,-1.75407 -2.1035,-2.68784 -0.76898,-1.00937 -1.47202,-2.05886 -2.22705,-3.07945 -0.8453,-1.08166 -1.55814,-2.23277 -1.95263,-3.56112 -0.25285,-1.18176 -0.22648,-2.36773 -0.18335,-3.57251 0.0379,-1.1464 0.09,-2.3011 0.42086,-3.40807 0.35204,-1.13855 0.71907,-2.27537 1.1529,-3.38501 0.38707,-1.07871 0.65535,-2.19731 1.15432,-3.2351 0.50233,-1.24699 1.06094,-2.402407 2.19467,-3.202708 0.92525,-0.797462 1.89849,-1.495457 2.96632,-2.093606 0.15183,-0.08946 0.6094,-0.354195 0.45548,-0.268393 -0.60388,0.336606 -1.21636,0.658971 -1.80542,1.020868 -0.14905,0.09157 0.31973,-0.142205 0.48191,-0.207769 0.45562,-0.184187 0.91512,-0.368842 1.41008,-0.409998 1.29358,-0.216146 2.58921,-0.190357 3.8985,-0.164661 0,0 2.14134,-1.555771 2.14134,-1.555771 z"
       id="path6469"
       style="opacity:1;fill:#000000;stroke-width:1.2;stroke-linecap:round;stroke-linejoin:bevel;stroke-miterlimit:4;stroke-dasharray:none" />
    <path
       id="path6471"
       d="m 202.20698,210.53996 -104,-52"
       style="fill:none;stroke:#000000;stroke-width:1.2;stroke-linecap:butt;stroke-linejoin:miter;stroke-miterlimit:4;stroke-dasharray:none;stroke-opacity:1" />
    <path
       id="path6473"
       d="m 202.20698,210.53996 h -116"
       style="fill:none;stroke:#000000;stroke-width:1.2;stroke-linecap:butt;stroke-linejoin:miter;stroke-miterlimit:4;stroke-dasharray:none;stroke-opacity:1" />
    <path
       sodipodi:nodetypes="cc"
       id="path6481"
       d="m 77.20698,110.53996 h -61"
       style="fill:none;stroke:#000000;stroke-width:0.799999;stroke-linecap:butt;stroke-linejoin:miter;stroke-miterlimit:4;stroke-dasharray:none;stroke-opacity:1;marker-end:url(#marker6485)" />
    <path
       sodipodi:nodetypes="cc"
       style="fill:none;stroke:#000000;stroke-width:0.799999;stroke-linecap:butt;stroke-linejoin:miter;stroke-miterlimit:4;stroke-dasharray:none;stroke-opacity:1;marker-end:url(#marker6533)"
       d="m 77.20698,210.53996 h -60"
       id="path6529" />
    <path
       sodipodi:nodetypes="cc"
       id="path6585"
       d="m 92.20698,155.53996 -76,-38"
       style="fill:none;stroke:#000000;stroke-width:0.799999;stroke-linecap:butt;stroke-linejoin:miter;stroke-miterlimit:4;stroke-dasharray:none;stroke-opacity:1;marker-end:url(#marker6589)" />
    <circle
       style="fill:#ffffff;fill-opacity:1;stroke:#000000;stroke-width:1.2;stroke-linecap:round;stroke-linejoin:bevel;stroke-miterlimit:4;stroke-dasharray:none"
       id="path875"
       cx="202.20583"
       cy="210"
       r="10" />
    <g
       id="g1392"
       ns2:jacobian_sqrt="1.94028"
       ns2:alignment="middle center"
       ns2:scale="5.5"
       ns2:preamble="C:\\Users\\claum\\AppData\\Roaming\\inkscape\\extensions\\textext\\default_packages.tex"
       ns2:text="$2F$"
       ns2:pdfconverter="inkscape"
       ns2:texconverter="pdflatex"
       ns2:version="1.0.1"
       transform="matrix(1.94028,0,0,1.94028,213.23323,6.1141771)">
      <defs
         id="id-6cfcd3b9-0437-495a-9679-18f19df32034">
        <g
           id="g6766">
          <symbol
             overflow="visible"
             id="symbol6752">
            <path
               style="stroke:none"
               d=""
               id="path6750" />
          </symbol>
          <symbol
             overflow="visible"
             id="symbol6756">
            <path
               style="stroke:none"
               d="m 1.265625,-0.765625 1.0625,-1.03125 c 1.546875,-1.375 2.140625,-1.90625 2.140625,-2.90625 0,-1.140625 -0.890625,-1.9375 -2.109375,-1.9375 -1.125,0 -1.859375,0.921875 -1.859375,1.8125 0,0.546875 0.5,0.546875 0.53125,0.546875 0.171875,0 0.515625,-0.109375 0.515625,-0.53125 0,-0.25 -0.1875,-0.515625 -0.53125,-0.515625 -0.078125,0 -0.09375,0 -0.125,0.015625 0.21875,-0.65625 0.765625,-1.015625 1.34375,-1.015625 0.90625,0 1.328125,0.8125 1.328125,1.625 C 3.5625,-3.90625 3.078125,-3.125 2.515625,-2.5 l -1.90625,2.125 C 0.5,-0.265625 0.5,-0.234375 0.5,0 H 4.203125 L 4.46875,-1.734375 H 4.234375 C 4.171875,-1.4375 4.109375,-1 4,-0.84375 3.9375,-0.765625 3.28125,-0.765625 3.0625,-0.765625 Z m 0,0"
               id="path6754" />
          </symbol>
          <symbol
             overflow="visible"
             id="symbol6760">
            <path
               style="stroke:none"
               d=""
               id="path6758" />
          </symbol>
          <symbol
             overflow="visible"
             id="symbol6764">
            <path
               style="stroke:none"
               d="m 3.015625,-3.234375 h 0.96875 c 0.75,0 0.828125,0.15625 0.828125,0.4375 0,0.078125 0,0.1875 -0.0625,0.5 C 4.71875,-2.25 4.71875,-2.21875 4.71875,-2.1875 c 0,0.078125 0.0625,0.109375 0.109375,0.109375 0.109375,0 0.109375,-0.03125 0.15625,-0.203125 L 5.53125,-4.453125 C 5.5625,-4.5625 5.5625,-4.578125 5.5625,-4.609375 5.5625,-4.625 5.546875,-4.71875 5.4375,-4.71875 5.34375,-4.71875 5.328125,-4.671875 5.296875,-4.5 5.078125,-3.734375 4.859375,-3.546875 4,-3.546875 H 3.09375 l 0.640625,-2.53125 C 3.828125,-6.4375 3.84375,-6.46875 4.28125,-6.46875 h 1.3125 c 1.21875,0 1.453125,0.328125 1.453125,1.09375 0,0.234375 0,0.265625 -0.03125,0.546875 C 7,-4.703125 7,-4.6875 7,-4.65625 c 0,0.046875 0.03125,0.125 0.125,0.125 0.109375,0 0.109375,-0.0625 0.125,-0.25 L 7.453125,-6.515625 C 7.484375,-6.78125 7.4375,-6.78125 7.1875,-6.78125 H 2.296875 c -0.1875,0 -0.296875,0 -0.296875,0.203125 0,0.109375 0.09375,0.109375 0.28125,0.109375 0.375,0 0.65625,0 0.65625,0.171875 0,0.046875 0,0.0625 -0.0625,0.25 L 1.5625,-0.78125 c -0.09375,0.390625 -0.109375,0.46875 -0.90625,0.46875 -0.171875,0 -0.28125,0 -0.28125,0.1875 C 0.375,0 0.5,0 0.53125,0 0.8125,0 1.5625,-0.03125 1.84375,-0.03125 2.171875,-0.03125 3,0 3.328125,0 3.421875,0 3.53125,0 3.53125,-0.1875 3.53125,-0.265625 3.484375,-0.296875 3.484375,-0.296875 3.453125,-0.3125 3.421875,-0.3125 3.203125,-0.3125 c -0.21875,0 -0.265625,0 -0.515625,-0.015625 -0.296875,-0.03125 -0.328125,-0.078125 -0.328125,-0.203125 0,-0.015625 0,-0.078125 0.046875,-0.21875 z m 0,0"
               id="path6762" />
          </symbol>
        </g>
      </defs>
      <g
         id="id-f96165b1-d1af-4635-990d-864a5274a888"
         transform="translate(-149.212,-127.984)">
        <g
           style="fill:#000000;fill-opacity:1"
           id="id-1e6c3b2c-067f-4359-8483-56e1038418e0">
          <g
             id="g1384"
             transform="translate(148.712,134.765)">
            <path
               style="stroke:none"
               d="m 1.265625,-0.765625 1.0625,-1.03125 c 1.546875,-1.375 2.140625,-1.90625 2.140625,-2.90625 0,-1.140625 -0.890625,-1.9375 -2.109375,-1.9375 -1.125,0 -1.859375,0.921875 -1.859375,1.8125 0,0.546875 0.5,0.546875 0.53125,0.546875 0.171875,0 0.515625,-0.109375 0.515625,-0.53125 0,-0.25 -0.1875,-0.515625 -0.53125,-0.515625 -0.078125,0 -0.09375,0 -0.125,0.015625 0.21875,-0.65625 0.765625,-1.015625 1.34375,-1.015625 0.90625,0 1.328125,0.8125 1.328125,1.625 C 3.5625,-3.90625 3.078125,-3.125 2.515625,-2.5 l -1.90625,2.125 C 0.5,-0.265625 0.5,-0.234375 0.5,0 H 4.203125 L 4.46875,-1.734375 H 4.234375 C 4.171875,-1.4375 4.109375,-1 4,-0.84375 3.9375,-0.765625 3.28125,-0.765625 3.0625,-0.765625 Z m 0,0"
               id="id-aa64d355-e54f-49ac-85d8-3faf2e8fe320" />
          </g>
        </g>
        <g
           style="fill:#000000;fill-opacity:1"
           id="id-e4f7075c-7e5d-4080-b654-fb860ac4410c">
          <g
             id="g1388"
             transform="translate(153.694,134.765)">
            <path
               style="stroke:none"
               d="m 3.015625,-3.234375 h 0.96875 c 0.75,0 0.828125,0.15625 0.828125,0.4375 0,0.078125 0,0.1875 -0.0625,0.5 C 4.71875,-2.25 4.71875,-2.21875 4.71875,-2.1875 c 0,0.078125 0.0625,0.109375 0.109375,0.109375 0.109375,0 0.109375,-0.03125 0.15625,-0.203125 L 5.53125,-4.453125 C 5.5625,-4.5625 5.5625,-4.578125 5.5625,-4.609375 5.5625,-4.625 5.546875,-4.71875 5.4375,-4.71875 5.34375,-4.71875 5.328125,-4.671875 5.296875,-4.5 5.078125,-3.734375 4.859375,-3.546875 4,-3.546875 H 3.09375 l 0.640625,-2.53125 C 3.828125,-6.4375 3.84375,-6.46875 4.28125,-6.46875 h 1.3125 c 1.21875,0 1.453125,0.328125 1.453125,1.09375 0,0.234375 0,0.265625 -0.03125,0.546875 C 7,-4.703125 7,-4.6875 7,-4.65625 c 0,0.046875 0.03125,0.125 0.125,0.125 0.109375,0 0.109375,-0.0625 0.125,-0.25 L 7.453125,-6.515625 C 7.484375,-6.78125 7.4375,-6.78125 7.1875,-6.78125 H 2.296875 c -0.1875,0 -0.296875,0 -0.296875,0.203125 0,0.109375 0.09375,0.109375 0.28125,0.109375 0.375,0 0.65625,0 0.65625,0.171875 0,0.046875 0,0.0625 -0.0625,0.25 L 1.5625,-0.78125 c -0.09375,0.390625 -0.109375,0.46875 -0.90625,0.46875 -0.171875,0 -0.28125,0 -0.28125,0.1875 C 0.375,0 0.5,0 0.53125,0 0.8125,0 1.5625,-0.03125 1.84375,-0.03125 2.171875,-0.03125 3,0 3.328125,0 3.421875,0 3.53125,0 3.53125,-0.1875 3.53125,-0.265625 3.484375,-0.296875 3.484375,-0.296875 3.453125,-0.3125 3.421875,-0.3125 3.203125,-0.3125 c -0.21875,0 -0.265625,0 -0.515625,-0.015625 -0.296875,-0.03125 -0.328125,-0.078125 -0.328125,-0.203125 0,-0.015625 0,-0.078125 0.046875,-0.21875 z m 0,0"
               id="id-aa77a7c4-d273-429f-8030-e5a3741bd861" />
          </g>
        </g>
      </g>
    </g>
    <g
       transform="matrix(1.94028,0,0,1.94028,417.94499,6.1136858)"
       ns2:version="1.0.1"
       ns2:texconverter="pdflatex"
       ns2:pdfconverter="inkscape"
       ns2:text="$F$"
       ns2:preamble="C:\\Users\\claum\\AppData\\Roaming\\inkscape\\extensions\\textext\\default_packages.tex"
       ns2:scale="5.5"
       ns2:alignment="middle center"
       ns2:jacobian_sqrt="1.94028"
       id="g6947">
      <defs
         id="id-043a6d0f-c032-4eb4-ad68-6fc6601d9b3a">
        <g
           id="id-4da5356f-09da-4613-9872-812c622b20df">
          <symbol
             id="id-9a50958c-d5de-4b8f-a2b1-84c15d2c6be4"
             overflow="visible">
            <path
               id="id-d8ef3634-b6db-4fb5-9e0f-ea6cd93c9e96"
               d=""
               style="stroke:none" />
          </symbol>
          <symbol
             id="id-bfbc742d-7d6d-4aa8-ba04-97f74ff98b15"
             overflow="visible">
            <path
               id="id-adf94428-7863-40ad-bff4-f7c600e74be3"
               d="m 3.015625,-3.234375 h 0.96875 c 0.75,0 0.828125,0.15625 0.828125,0.4375 0,0.078125 0,0.1875 -0.0625,0.5 C 4.71875,-2.25 4.71875,-2.21875 4.71875,-2.1875 c 0,0.078125 0.0625,0.109375 0.109375,0.109375 0.109375,0 0.109375,-0.03125 0.15625,-0.203125 L 5.53125,-4.453125 C 5.5625,-4.5625 5.5625,-4.578125 5.5625,-4.609375 5.5625,-4.625 5.546875,-4.71875 5.4375,-4.71875 5.34375,-4.71875 5.328125,-4.671875 5.296875,-4.5 5.078125,-3.734375 4.859375,-3.546875 4,-3.546875 H 3.09375 l 0.640625,-2.53125 C 3.828125,-6.4375 3.84375,-6.46875 4.28125,-6.46875 h 1.3125 c 1.21875,0 1.453125,0.328125 1.453125,1.09375 0,0.234375 0,0.265625 -0.03125,0.546875 C 7,-4.703125 7,-4.6875 7,-4.65625 c 0,0.046875 0.03125,0.125 0.125,0.125 0.109375,0 0.109375,-0.0625 0.125,-0.25 L 7.453125,-6.515625 C 7.484375,-6.78125 7.4375,-6.78125 7.1875,-6.78125 H 2.296875 c -0.1875,0 -0.296875,0 -0.296875,0.203125 0,0.109375 0.09375,0.109375 0.28125,0.109375 0.375,0 0.65625,0 0.65625,0.171875 0,0.046875 0,0.0625 -0.0625,0.25 L 1.5625,-0.78125 c -0.09375,0.390625 -0.109375,0.46875 -0.90625,0.46875 -0.171875,0 -0.28125,0 -0.28125,0.1875 C 0.375,0 0.5,0 0.53125,0 0.8125,0 1.5625,-0.03125 1.84375,-0.03125 2.171875,-0.03125 3,0 3.328125,0 3.421875,0 3.53125,0 3.53125,-0.1875 3.53125,-0.265625 3.484375,-0.296875 3.484375,-0.296875 3.453125,-0.3125 3.421875,-0.3125 3.203125,-0.3125 c -0.21875,0 -0.265625,0 -0.515625,-0.015625 -0.296875,-0.03125 -0.328125,-0.078125 -0.328125,-0.203125 0,-0.015625 0,-0.078125 0.046875,-0.21875 z m 0,0"
               style="stroke:none" />
          </symbol>
        </g>
      </defs>
      <g
         transform="translate(-149.087,-127.984)"
         id="id-1fbd40d0-04c2-4be0-82ad-51d4d0520589">
        <g
           id="id-b615a5a4-b61d-4f4d-8ee2-a356834228a2"
           style="fill:#000000;fill-opacity:1">
          <g
             transform="translate(148.712,134.765)"
             id="g6943">
            <path
               id="id-cf6673bc-d476-4eff-9d29-b01b921d836b"
               d="m 3.015625,-3.234375 h 0.96875 c 0.75,0 0.828125,0.15625 0.828125,0.4375 0,0.078125 0,0.1875 -0.0625,0.5 C 4.71875,-2.25 4.71875,-2.21875 4.71875,-2.1875 c 0,0.078125 0.0625,0.109375 0.109375,0.109375 0.109375,0 0.109375,-0.03125 0.15625,-0.203125 L 5.53125,-4.453125 C 5.5625,-4.5625 5.5625,-4.578125 5.5625,-4.609375 5.5625,-4.625 5.546875,-4.71875 5.4375,-4.71875 5.34375,-4.71875 5.328125,-4.671875 5.296875,-4.5 5.078125,-3.734375 4.859375,-3.546875 4,-3.546875 H 3.09375 l 0.640625,-2.53125 C 3.828125,-6.4375 3.84375,-6.46875 4.28125,-6.46875 h 1.3125 c 1.21875,0 1.453125,0.328125 1.453125,1.09375 0,0.234375 0,0.265625 -0.03125,0.546875 C 7,-4.703125 7,-4.6875 7,-4.65625 c 0,0.046875 0.03125,0.125 0.125,0.125 0.109375,0 0.109375,-0.0625 0.125,-0.25 L 7.453125,-6.515625 C 7.484375,-6.78125 7.4375,-6.78125 7.1875,-6.78125 H 2.296875 c -0.1875,0 -0.296875,0 -0.296875,0.203125 0,0.109375 0.09375,0.109375 0.28125,0.109375 0.375,0 0.65625,0 0.65625,0.171875 0,0.046875 0,0.0625 -0.0625,0.25 L 1.5625,-0.78125 c -0.09375,0.390625 -0.109375,0.46875 -0.90625,0.46875 -0.171875,0 -0.28125,0 -0.28125,0.1875 C 0.375,0 0.5,0 0.53125,0 0.8125,0 1.5625,-0.03125 1.84375,-0.03125 2.171875,-0.03125 3,0 3.328125,0 3.421875,0 3.53125,0 3.53125,-0.1875 3.53125,-0.265625 3.484375,-0.296875 3.484375,-0.296875 3.453125,-0.3125 3.421875,-0.3125 3.203125,-0.3125 c -0.21875,0 -0.265625,0 -0.515625,-0.015625 -0.296875,-0.03125 -0.328125,-0.078125 -0.328125,-0.203125 0,-0.015625 0,-0.078125 0.046875,-0.21875 z m 0,0"
               style="stroke:none" />
          </g>
        </g>
      </g>
    </g>
    <path
       d="m 122.20778,210.17655 a 80,80 0 0 1 8.13819,-34.79337"
       sodipodi:arc-type="arc"
       sodipodi:open="true"
       sodipodi:end="3.5965898"
       sodipodi:start="3.1461353"
       sodipodi:ry="80"
       sodipodi:rx="80"
       sodipodi:cy="210.53996"
       sodipodi:cx="202.20695"
       sodipodi:type="arc"
       id="path6963"
       style="opacity:1;fill:none;stroke:#000000;stroke-width:1.2;stroke-linecap:round;stroke-linejoin:bevel;stroke-miterlimit:4;stroke-dasharray:none;stroke-opacity:1" />
    <g
       transform="matrix(1.94028,0,0,1.94028,135.05172,188.90105)"
       ns2:version="1.0.1"
       ns2:texconverter="pdflatex"
       ns2:pdfconverter="inkscape"
       ns2:text="$\\alpha$"
       ns2:preamble="C:\\Users\\claum\\AppData\\Roaming\\inkscape\\extensions\\textext\\default_packages.tex"
       ns2:scale="5.5"
       ns2:alignment="middle center"
       ns2:inkscapeversion="1.0"
       ns2:jacobian_sqrt="1.94028"
       id="g6985">
      <defs
         id="defs6975">
        <g
           id="g6973">
          <symbol
             id="symbol6967"
             overflow="visible">
            <path
               id="path6965"
               d=""
               style="stroke:none" />
          </symbol>
          <symbol
             id="symbol6971"
             overflow="visible">
            <path
               id="path6969"
               d="m 4.75,-2.359375 c 0,-1.5625 -0.921875,-2.046875 -1.65625,-2.046875 -1.375,0 -2.6875,1.421875 -2.6875,2.828125 0,0.9375 0.59375,1.6875 1.625,1.6875 0.625,0 1.34375,-0.234375 2.09375,-0.84375 0.125,0.53125 0.453125,0.84375 0.90625,0.84375 0.53125,0 0.84375,-0.546875 0.84375,-0.703125 0,-0.078125 -0.0625,-0.109375 -0.125,-0.109375 -0.0625,0 -0.09375,0.03125 -0.125,0.109375 -0.1875,0.484375 -0.546875,0.484375 -0.5625,0.484375 -0.3125,0 -0.3125,-0.78125 -0.3125,-1.015625 0,-0.203125 0,-0.234375 0.109375,-0.34375 C 5.796875,-2.65625 6,-3.8125 6,-3.8125 6,-3.84375 5.984375,-3.921875 5.875,-3.921875 c -0.09375,0 -0.09375,0.03125 -0.140625,0.21875 -0.1875,0.625 -0.515625,1.375 -0.984375,1.96875 z m -0.65625,1.375 c -0.890625,0.765625 -1.65625,0.875 -2.046875,0.875 -0.59375,0 -0.90625,-0.453125 -0.90625,-1.09375 0,-0.484375 0.265625,-1.5625 0.578125,-2.0625 C 2.1875,-4 2.734375,-4.1875 3.078125,-4.1875 c 0.984375,0 0.984375,1.3125 0.984375,2.078125 0,0.375 0,0.953125 0.03125,1.125 z m 0,0"
               style="stroke:none" />
          </symbol>
        </g>
      </defs>
      <g
         transform="translate(-149.118,-130.359)"
         id="g6983">
        <g
           id="g6981"
           style="fill:#000000;fill-opacity:1">
          <g
             transform="translate(148.712,134.765)"
             id="g6979">
            <path
               id="path6977"
               d="m 4.75,-2.359375 c 0,-1.5625 -0.921875,-2.046875 -1.65625,-2.046875 -1.375,0 -2.6875,1.421875 -2.6875,2.828125 0,0.9375 0.59375,1.6875 1.625,1.6875 0.625,0 1.34375,-0.234375 2.09375,-0.84375 0.125,0.53125 0.453125,0.84375 0.90625,0.84375 0.53125,0 0.84375,-0.546875 0.84375,-0.703125 0,-0.078125 -0.0625,-0.109375 -0.125,-0.109375 -0.0625,0 -0.09375,0.03125 -0.125,0.109375 -0.1875,0.484375 -0.546875,0.484375 -0.5625,0.484375 -0.3125,0 -0.3125,-0.78125 -0.3125,-1.015625 0,-0.203125 0,-0.234375 0.109375,-0.34375 C 5.796875,-2.65625 6,-3.8125 6,-3.8125 6,-3.84375 5.984375,-3.921875 5.875,-3.921875 c -0.09375,0 -0.09375,0.03125 -0.140625,0.21875 -0.1875,0.625 -0.515625,1.375 -0.984375,1.96875 z m -0.65625,1.375 c -0.890625,0.765625 -1.65625,0.875 -2.046875,0.875 -0.59375,0 -0.90625,-0.453125 -0.90625,-1.09375 0,-0.484375 0.265625,-1.5625 0.578125,-2.0625 C 2.1875,-4 2.734375,-4.1875 3.078125,-4.1875 c 0.984375,0 0.984375,1.3125 0.984375,2.078125 0,0.375 0,0.953125 0.03125,1.125 z m 0,0"
               style="stroke:none" />
          </g>
        </g>
      </g>
    </g>
    <g
       id="g1746"
       ns2:jacobian_sqrt="1.94028"
       ns2:inkscapeversion="1.0"
       ns2:alignment="middle center"
       ns2:scale="5.5"
       ns2:preamble="C:\\Users\\claum\\AppData\\Roaming\\inkscape\\extensions\\textext\\default_packages.tex"
       ns2:text="$\\mathcal{S}$"
       ns2:pdfconverter="inkscape"
       ns2:texconverter="pdflatex"
       ns2:version="1.0.1"
       transform="matrix(1.94028,0,0,1.94028,69.83885,228.26622)">
      <defs
         id="id-179b71b9-bdcf-4d11-b082-81c130c94fe2">
        <g
           id="g7034">
          <symbol
             overflow="visible"
             id="symbol7028">
            <path
               style="stroke:none"
               d=""
               id="path7026" />
          </symbol>
          <symbol
             overflow="visible"
             id="symbol7032">
            <path
               style="stroke:none"
               d="m 1.140625,-2.1875 c 0.125,-0.046875 0.46875,-0.265625 0.46875,-0.40625 0,-0.0625 -0.046875,-0.0625 -0.109375,-0.0625 -0.34375,0 -1.328125,0.421875 -1.328125,1.421875 0,0.71875 0.8125,1.453125 2.03125,1.453125 1.625,0 3.515625,-1.125 3.515625,-2.484375 0,-0.9375 -1,-1.40625 -1.8125,-1.765625 C 3.203125,-4.34375 2.75,-4.75 2.75,-5.328125 2.75,-5.53125 2.84375,-5.921875 3.15625,-6.1875 3.453125,-6.453125 4,-6.484375 4.140625,-6.484375 c 0.109375,0 0.53125,0.015625 0.96875,0.203125 0.1875,0.09375 0.4375,0.203125 0.4375,0.640625 0,0.140625 0,0.1875 -0.03125,0.296875 C 5.5,-5.3125 5.5,-5.28125 5.5,-5.25 c 0,0.078125 0.046875,0.078125 0.09375,0.078125 0.125,0 0.375,-0.109375 0.5625,-0.265625 0.140625,-0.109375 0.25,-0.234375 0.25,-0.625 0,-0.484375 -0.265625,-0.625 -0.53125,-0.75 -0.46875,-0.21875 -0.9375,-0.21875 -1.0625,-0.21875 -1.3125,0 -2.90625,1 -2.90625,2.140625 0,0.828125 0.859375,1.234375 1.34375,1.4375 0.703125,0.328125 1.609375,0.78125 1.609375,1.625 0,0.65625 -0.484375,1.5 -2,1.5 -1.015625,0 -1.828125,-0.65625 -1.828125,-1.34375 0,-0.171875 0.046875,-0.359375 0.109375,-0.515625 z m 0,0"
               id="path7030" />
          </symbol>
        </g>
      </defs>
      <g
         id="id-eabf6b24-d00d-454b-a42b-dc56f7d5f52e"
         transform="translate(-148.884,-127.734)">
        <g
           style="fill:#000000;fill-opacity:1"
           id="id-6b251e3c-e2c9-4142-8ef1-aa095b80a2d9">
          <g
             id="g1742"
             transform="translate(148.712,134.765)">
            <path
               style="stroke:none"
               d="m 1.140625,-2.1875 c 0.125,-0.046875 0.46875,-0.265625 0.46875,-0.40625 0,-0.0625 -0.046875,-0.0625 -0.109375,-0.0625 -0.34375,0 -1.328125,0.421875 -1.328125,1.421875 0,0.71875 0.8125,1.453125 2.03125,1.453125 1.625,0 3.515625,-1.125 3.515625,-2.484375 0,-0.9375 -1,-1.40625 -1.8125,-1.765625 C 3.203125,-4.34375 2.75,-4.75 2.75,-5.328125 2.75,-5.53125 2.84375,-5.921875 3.15625,-6.1875 3.453125,-6.453125 4,-6.484375 4.140625,-6.484375 c 0.109375,0 0.53125,0.015625 0.96875,0.203125 0.1875,0.09375 0.4375,0.203125 0.4375,0.640625 0,0.140625 0,0.1875 -0.03125,0.296875 C 5.5,-5.3125 5.5,-5.28125 5.5,-5.25 c 0,0.078125 0.046875,0.078125 0.09375,0.078125 0.125,0 0.375,-0.109375 0.5625,-0.265625 0.140625,-0.109375 0.25,-0.234375 0.25,-0.625 0,-0.484375 -0.265625,-0.625 -0.53125,-0.75 -0.46875,-0.21875 -0.9375,-0.21875 -1.0625,-0.21875 -1.3125,0 -2.90625,1 -2.90625,2.140625 0,0.828125 0.859375,1.234375 1.34375,1.4375 0.703125,0.328125 1.609375,0.78125 1.609375,1.625 0,0.65625 -0.484375,1.5 -2,1.5 -1.015625,0 -1.828125,-0.65625 -1.828125,-1.34375 0,-0.171875 0.046875,-0.359375 0.109375,-0.515625 z m 0,0"
               id="id-d8db36d2-ca89-41f1-aab7-981423a20600" />
          </g>
        </g>
      </g>
    </g>
    <g
       transform="matrix(1.94028,0,0,1.94028,13.3529,133.5097)"
       ns2:version="1.0.1"
       ns2:texconverter="pdflatex"
       ns2:pdfconverter="inkscape"
       ns2:text="$N_{CE}$"
       ns2:preamble="C:\\Users\\claum\\AppData\\Roaming\\inkscape\\extensions\\textext\\default_packages.tex"
       ns2:scale="5.5"
       ns2:alignment="middle center"
       ns2:jacobian_sqrt="1.94028"
       id="g7229">
      <defs
         id="id-299e1650-8702-4cba-9de1-34c623304664">
        <g
           id="id-b20d9115-2cc4-482c-abee-8004220fe39d">
          <symbol
             id="id-1356017d-6066-4dd4-bbca-979754f90bbc"
             overflow="visible">
            <path
               id="id-db235a44-933e-4fc5-9986-59ae6e57273f"
               d=""
               style="stroke:none" />
          </symbol>
          <symbol
             id="id-89302b84-8220-4c76-a9bb-5e7d95e3c08a"
             overflow="visible">
            <path
               id="id-0934731e-91f8-4b2a-8c4c-6c4a27a26e67"
               d="M 7.53125,-5.765625 C 7.640625,-6.15625 7.8125,-6.46875 8.609375,-6.5 c 0.046875,0 0.171875,-0.015625 0.171875,-0.203125 0,0 0,-0.109375 -0.125,-0.109375 -0.328125,0 -0.6875,0.03125 -1.015625,0.03125 -0.328125,0 -0.6875,-0.03125 -1.015625,-0.03125 -0.0625,0 -0.171875,0 -0.171875,0.203125 C 6.453125,-6.5 6.546875,-6.5 6.625,-6.5 c 0.578125,0.015625 0.6875,0.21875 0.6875,0.4375 0,0.03125 -0.03125,0.1875 -0.03125,0.203125 l -1.125,4.4375 L 3.953125,-6.625 C 3.875,-6.796875 3.875,-6.8125 3.640625,-6.8125 h -1.34375 c -0.1875,0 -0.28125,0 -0.28125,0.203125 0,0.109375 0.09375,0.109375 0.28125,0.109375 0.046875,0 0.671875,0 0.671875,0.09375 L 1.640625,-1.0625 c -0.109375,0.40625 -0.28125,0.71875 -1.078125,0.75 -0.0625,0 -0.171875,0.015625 -0.171875,0.203125 0,0.0625 0.046875,0.109375 0.125,0.109375 0.328125,0 0.671875,-0.03125 1,-0.03125 C 1.859375,-0.03125 2.21875,0 2.546875,0 2.59375,0 2.71875,0 2.71875,-0.203125 2.71875,-0.296875 2.625,-0.3125 2.515625,-0.3125 1.9375,-0.328125 1.859375,-0.546875 1.859375,-0.75 c 0,-0.0625 0.015625,-0.125 0.046875,-0.234375 l 1.3125,-5.25 C 3.265625,-6.1875 3.265625,-6.15625 3.3125,-6.0625 l 2.484375,5.875 C 5.859375,-0.015625 5.890625,0 5.984375,0 6.09375,0 6.09375,-0.03125 6.140625,-0.203125 Z m 0,0"
               style="stroke:none" />
          </symbol>
          <symbol
             id="id-126a7036-71e9-4043-9fbb-43ac9e473099"
             overflow="visible">
            <path
               id="id-2b362b6b-1006-460b-af75-1ed9e0c1ce64"
               d=""
               style="stroke:none" />
          </symbol>
          <symbol
             id="id-4a378ac8-e2ef-46c9-889c-66d4bbf18314"
             overflow="visible">
            <path
               id="id-be56a2ae-2741-4c01-bdc1-6f633bfaa258"
               d="m 5.875,-4.8125 c 0,-0.03125 -0.015625,-0.09375 -0.09375,-0.09375 -0.046875,0 -0.0625,0.015625 -0.125,0.09375 l -0.5,0.53125 c -0.0625,-0.078125 -0.453125,-0.625 -1.3125,-0.625 -1.703125,0 -3.359375,1.5 -3.359375,3.078125 0,1.140625 0.890625,1.96875 2.140625,1.96875 0.375,0 1.046875,-0.078125 1.765625,-0.6875 0.546875,-0.46875 0.703125,-1.0625 0.703125,-1.125 0,-0.09375 -0.078125,-0.09375 -0.125,-0.09375 -0.078125,0 -0.09375,0.03125 -0.125,0.109375 -0.28125,0.953125 -1.25,1.546875 -2.09375,1.546875 -0.75,0 -1.5625,-0.40625 -1.5625,-1.5 0,-0.203125 0.046875,-1.296875 0.84375,-2.1875 0.484375,-0.53125 1.21875,-0.84375 1.875,-0.84375 0.8125,0 1.28125,0.578125 1.28125,1.359375 0,0.1875 -0.015625,0.25 -0.015625,0.28125 0,0.09375 0.09375,0.09375 0.125,0.09375 0.109375,0 0.109375,-0.015625 0.140625,-0.15625 z m 0,0"
               style="stroke:none" />
          </symbol>
          <symbol
             id="id-bc34a328-236e-41c0-9c53-782d3a932578"
             overflow="visible">
            <path
               id="id-d6d80f18-7483-4d52-8bea-d1a159eec420"
               d="m 5.515625,-1.609375 c 0.046875,-0.09375 0.046875,-0.125 0.046875,-0.125 0,-0.046875 -0.03125,-0.09375 -0.125,-0.09375 -0.015625,0 -0.046875,0 -0.078125,0.015625 0,0.015625 -0.015625,0.03125 -0.09375,0.203125 C 4.8125,-0.59375 4.453125,-0.25 3.3125,-0.25 H 2.125 c -0.203125,0 -0.21875,-0.015625 -0.21875,-0.078125 0,0 0,-0.03125 0.03125,-0.140625 L 2.40625,-2.328125 H 3.1875 c 0.546875,0 0.625,0.078125 0.625,0.3125 0,0.078125 -0.015625,0.203125 -0.046875,0.3125 C 3.75,-1.640625 3.75,-1.625 3.75,-1.609375 c 0,0 0,0.09375 0.125,0.09375 0.09375,0 0.09375,-0.03125 0.125,-0.15625 l 0.390625,-1.53125 c 0.015625,-0.078125 0.015625,-0.09375 0.015625,-0.09375 0,-0.078125 -0.0625,-0.109375 -0.125,-0.109375 -0.09375,0 -0.09375,0.046875 -0.140625,0.1875 C 4,-2.671875 3.796875,-2.578125 3.203125,-2.578125 H 2.46875 L 2.890625,-4.25 c 0.046875,-0.203125 0.0625,-0.234375 0.34375,-0.234375 H 4.375 c 0.921875,0 1.140625,0.1875 1.140625,0.8125 0,0.1875 -0.03125,0.390625 -0.03125,0.421875 0,0.0625 0.03125,0.125 0.125,0.125 0.109375,0 0.109375,-0.0625 0.125,-0.1875 l 0.125,-1.203125 C 5.875,-4.734375 5.828125,-4.734375 5.65625,-4.734375 H 1.828125 c -0.140625,0 -0.21875,0 -0.21875,0.15625 0,0.09375 0.0625,0.09375 0.21875,0.09375 0.109375,0 0.140625,0 0.265625,0.015625 C 2.234375,-4.453125 2.25,-4.4375 2.25,-4.375 c 0,0.046875 -0.015625,0.125 -0.03125,0.15625 L 1.3125,-0.578125 C 1.234375,-0.296875 1.234375,-0.25 0.6875,-0.25 c -0.125,0 -0.203125,0 -0.203125,0.15625 C 0.484375,0 0.5625,0 0.6875,0 H 4.625 c 0.171875,0 0.1875,0 0.234375,-0.125 z m 0,0"
               style="stroke:none" />
          </symbol>
        </g>
      </defs>
      <g
         transform="translate(-149.103,-127.953)"
         id="id-97b53671-423b-4eba-86ad-c1d5eac651d5">
        <g
           id="id-0e71e2fc-5999-41bc-8a9b-b1af6535a58a"
           style="fill:#000000;fill-opacity:1">
          <g
             transform="translate(148.712,134.765)"
             id="g7217">
            <path
               id="id-8462c2be-8df5-4d73-a46f-505e8bbc188b"
               d="M 7.53125,-5.765625 C 7.640625,-6.15625 7.8125,-6.46875 8.609375,-6.5 c 0.046875,0 0.171875,-0.015625 0.171875,-0.203125 0,0 0,-0.109375 -0.125,-0.109375 -0.328125,0 -0.6875,0.03125 -1.015625,0.03125 -0.328125,0 -0.6875,-0.03125 -1.015625,-0.03125 -0.0625,0 -0.171875,0 -0.171875,0.203125 C 6.453125,-6.5 6.546875,-6.5 6.625,-6.5 c 0.578125,0.015625 0.6875,0.21875 0.6875,0.4375 0,0.03125 -0.03125,0.1875 -0.03125,0.203125 l -1.125,4.4375 L 3.953125,-6.625 C 3.875,-6.796875 3.875,-6.8125 3.640625,-6.8125 h -1.34375 c -0.1875,0 -0.28125,0 -0.28125,0.203125 0,0.109375 0.09375,0.109375 0.28125,0.109375 0.046875,0 0.671875,0 0.671875,0.09375 L 1.640625,-1.0625 c -0.109375,0.40625 -0.28125,0.71875 -1.078125,0.75 -0.0625,0 -0.171875,0.015625 -0.171875,0.203125 0,0.0625 0.046875,0.109375 0.125,0.109375 0.328125,0 0.671875,-0.03125 1,-0.03125 C 1.859375,-0.03125 2.21875,0 2.546875,0 2.59375,0 2.71875,0 2.71875,-0.203125 2.71875,-0.296875 2.625,-0.3125 2.515625,-0.3125 1.9375,-0.328125 1.859375,-0.546875 1.859375,-0.75 c 0,-0.0625 0.015625,-0.125 0.046875,-0.234375 l 1.3125,-5.25 C 3.265625,-6.1875 3.265625,-6.15625 3.3125,-6.0625 l 2.484375,5.875 C 5.859375,-0.015625 5.890625,0 5.984375,0 6.09375,0 6.09375,-0.03125 6.140625,-0.203125 Z m 0,0"
               style="stroke:none" />
          </g>
        </g>
        <g
           id="id-f94493ba-202a-4c04-b19b-e30cc9c6d144"
           style="fill:#000000;fill-opacity:1">
          <g
             transform="translate(156.717,136.259)"
             id="g7221">
            <path
               id="id-eb57a0bf-127f-4a31-b216-436aaac9831b"
               d="m 5.875,-4.8125 c 0,-0.03125 -0.015625,-0.09375 -0.09375,-0.09375 -0.046875,0 -0.0625,0.015625 -0.125,0.09375 l -0.5,0.53125 c -0.0625,-0.078125 -0.453125,-0.625 -1.3125,-0.625 -1.703125,0 -3.359375,1.5 -3.359375,3.078125 0,1.140625 0.890625,1.96875 2.140625,1.96875 0.375,0 1.046875,-0.078125 1.765625,-0.6875 0.546875,-0.46875 0.703125,-1.0625 0.703125,-1.125 0,-0.09375 -0.078125,-0.09375 -0.125,-0.09375 -0.078125,0 -0.09375,0.03125 -0.125,0.109375 -0.28125,0.953125 -1.25,1.546875 -2.09375,1.546875 -0.75,0 -1.5625,-0.40625 -1.5625,-1.5 0,-0.203125 0.046875,-1.296875 0.84375,-2.1875 0.484375,-0.53125 1.21875,-0.84375 1.875,-0.84375 0.8125,0 1.28125,0.578125 1.28125,1.359375 0,0.1875 -0.015625,0.25 -0.015625,0.28125 0,0.09375 0.09375,0.09375 0.125,0.09375 0.109375,0 0.109375,-0.015625 0.140625,-0.15625 z m 0,0"
               style="stroke:none" />
          </g>
        </g>
        <g
           id="id-df203e79-cef3-4ff7-b34f-7e810c2bd81e"
           style="fill:#000000;fill-opacity:1">
          <g
             transform="translate(162.919,136.259)"
             id="g7225">
            <path
               id="id-a2fdef6b-c963-40a9-9a8d-edc413c820f5"
               d="m 5.515625,-1.609375 c 0.046875,-0.09375 0.046875,-0.125 0.046875,-0.125 0,-0.046875 -0.03125,-0.09375 -0.125,-0.09375 -0.015625,0 -0.046875,0 -0.078125,0.015625 0,0.015625 -0.015625,0.03125 -0.09375,0.203125 C 4.8125,-0.59375 4.453125,-0.25 3.3125,-0.25 H 2.125 c -0.203125,0 -0.21875,-0.015625 -0.21875,-0.078125 0,0 0,-0.03125 0.03125,-0.140625 L 2.40625,-2.328125 H 3.1875 c 0.546875,0 0.625,0.078125 0.625,0.3125 0,0.078125 -0.015625,0.203125 -0.046875,0.3125 C 3.75,-1.640625 3.75,-1.625 3.75,-1.609375 c 0,0 0,0.09375 0.125,0.09375 0.09375,0 0.09375,-0.03125 0.125,-0.15625 l 0.390625,-1.53125 c 0.015625,-0.078125 0.015625,-0.09375 0.015625,-0.09375 0,-0.078125 -0.0625,-0.109375 -0.125,-0.109375 -0.09375,0 -0.09375,0.046875 -0.140625,0.1875 C 4,-2.671875 3.796875,-2.578125 3.203125,-2.578125 H 2.46875 L 2.890625,-4.25 c 0.046875,-0.203125 0.0625,-0.234375 0.34375,-0.234375 H 4.375 c 0.921875,0 1.140625,0.1875 1.140625,0.8125 0,0.1875 -0.03125,0.390625 -0.03125,0.421875 0,0.0625 0.03125,0.125 0.125,0.125 0.109375,0 0.109375,-0.0625 0.125,-0.1875 l 0.125,-1.203125 C 5.875,-4.734375 5.828125,-4.734375 5.65625,-4.734375 H 1.828125 c -0.140625,0 -0.21875,0 -0.21875,0.15625 0,0.09375 0.0625,0.09375 0.21875,0.09375 0.109375,0 0.140625,0 0.265625,0.015625 C 2.234375,-4.453125 2.25,-4.4375 2.25,-4.375 c 0,0.046875 -0.015625,0.125 -0.03125,0.15625 L 1.3125,-0.578125 C 1.234375,-0.296875 1.234375,-0.25 0.6875,-0.25 c -0.125,0 -0.203125,0 -0.203125,0.15625 C 0.484375,0 0.5625,0 0.6875,0 H 4.625 c 0.171875,0 0.1875,0 0.234375,-0.125 z m 0,0"
               style="stroke:none" />
          </g>
        </g>
      </g>
    </g>
    <g
       transform="matrix(1.94028,0,0,1.94028,2.8669802,217.63696)"
       ns2:version="1.0.1"
       ns2:texconverter="pdflatex"
       ns2:pdfconverter="inkscape"
       ns2:text="$N_{BC}$"
       ns2:preamble="C:\\Users\\claum\\AppData\\Roaming\\inkscape\\extensions\\textext\\default_packages.tex"
       ns2:scale="5.5"
       ns2:alignment="middle center"
       ns2:jacobian_sqrt="1.94028"
       id="g7582">
      <defs
         id="id-fd89979b-7e98-4ec8-a7a6-a78d8234116b">
        <g
           id="id-cd3488e3-14f2-46f8-a8d8-bc367003b9e7">
          <symbol
             id="id-fd08713f-d17d-4af7-9a54-f6c9b1a1aae3"
             overflow="visible">
            <path
               id="id-70b2ce13-6945-43c2-b589-dc0e3831aa02"
               d=""
               style="stroke:none" />
          </symbol>
          <symbol
             id="id-dca4b0de-e294-4b13-b43f-c59ef1950d46"
             overflow="visible">
            <path
               id="id-d6315be7-5a58-4ae8-8daa-1dcb0959ccdc"
               d="M 7.53125,-5.765625 C 7.640625,-6.15625 7.8125,-6.46875 8.609375,-6.5 c 0.046875,0 0.171875,-0.015625 0.171875,-0.203125 0,0 0,-0.109375 -0.125,-0.109375 -0.328125,0 -0.6875,0.03125 -1.015625,0.03125 -0.328125,0 -0.6875,-0.03125 -1.015625,-0.03125 -0.0625,0 -0.171875,0 -0.171875,0.203125 C 6.453125,-6.5 6.546875,-6.5 6.625,-6.5 c 0.578125,0.015625 0.6875,0.21875 0.6875,0.4375 0,0.03125 -0.03125,0.1875 -0.03125,0.203125 l -1.125,4.4375 L 3.953125,-6.625 C 3.875,-6.796875 3.875,-6.8125 3.640625,-6.8125 h -1.34375 c -0.1875,0 -0.28125,0 -0.28125,0.203125 0,0.109375 0.09375,0.109375 0.28125,0.109375 0.046875,0 0.671875,0 0.671875,0.09375 L 1.640625,-1.0625 c -0.109375,0.40625 -0.28125,0.71875 -1.078125,0.75 -0.0625,0 -0.171875,0.015625 -0.171875,0.203125 0,0.0625 0.046875,0.109375 0.125,0.109375 0.328125,0 0.671875,-0.03125 1,-0.03125 C 1.859375,-0.03125 2.21875,0 2.546875,0 2.59375,0 2.71875,0 2.71875,-0.203125 2.71875,-0.296875 2.625,-0.3125 2.515625,-0.3125 1.9375,-0.328125 1.859375,-0.546875 1.859375,-0.75 c 0,-0.0625 0.015625,-0.125 0.046875,-0.234375 l 1.3125,-5.25 C 3.265625,-6.1875 3.265625,-6.15625 3.3125,-6.0625 l 2.484375,5.875 C 5.859375,-0.015625 5.890625,0 5.984375,0 6.09375,0 6.09375,-0.03125 6.140625,-0.203125 Z m 0,0"
               style="stroke:none" />
          </symbol>
          <symbol
             id="id-74f292e5-7f4c-429c-aea6-18a32db271ea"
             overflow="visible">
            <path
               id="id-aeb05a3a-10d5-4873-9032-5aadcb83be7c"
               d=""
               style="stroke:none" />
          </symbol>
          <symbol
             id="id-c59a2877-ef9f-4a81-a0d0-792edd34815e"
             overflow="visible">
            <path
               id="id-593ec84c-0e2a-432b-9c49-59b73ba17992"
               d="M 1.328125,-0.546875 C 1.265625,-0.3125 1.25,-0.25 0.703125,-0.25 0.59375,-0.25 0.5,-0.25 0.5,-0.109375 0.5,0 0.578125,0 0.703125,0 H 3.40625 c 1.171875,0 2.078125,-0.796875 2.078125,-1.484375 0,-0.5 -0.453125,-0.921875 -1.203125,-1 0.84375,-0.15625 1.546875,-0.6875 1.546875,-1.28125 0,-0.53125 -0.53125,-1 -1.4375,-1 h -2.53125 c -0.140625,0 -0.234375,0 -0.234375,0.15625 0,0.09375 0.09375,0.09375 0.234375,0.09375 0,0 0.140625,0 0.265625,0.015625 0.140625,0.015625 0.15625,0.03125 0.15625,0.109375 0,0 0,0.046875 -0.03125,0.140625 z m 1.109375,-2.03125 0.421875,-1.6875 c 0.0625,-0.21875 0.0625,-0.25 0.359375,-0.25 h 1.0625 c 0.703125,0 0.875,0.46875 0.875,0.734375 0,0.5625 -0.640625,1.203125 -1.578125,1.203125 z M 2.109375,-0.25 C 1.890625,-0.25 1.875,-0.265625 1.875,-0.328125 c 0,0 0,-0.03125 0.03125,-0.140625 L 2.390625,-2.375 H 3.875 c 0.640625,0 0.90625,0.4375 0.90625,0.828125 0,0.703125 -0.71875,1.296875 -1.5625,1.296875 z m 0,0"
               style="stroke:none" />
          </symbol>
          <symbol
             id="id-832fc789-4a2c-4239-bac0-0ffe229491d6"
             overflow="visible">
            <path
               id="id-591eaeb3-b363-4fc0-ac34-3f1b0e3794ef"
               d="m 5.875,-4.8125 c 0,-0.03125 -0.015625,-0.09375 -0.09375,-0.09375 -0.046875,0 -0.0625,0.015625 -0.125,0.09375 l -0.5,0.53125 c -0.0625,-0.078125 -0.453125,-0.625 -1.3125,-0.625 -1.703125,0 -3.359375,1.5 -3.359375,3.078125 0,1.140625 0.890625,1.96875 2.140625,1.96875 0.375,0 1.046875,-0.078125 1.765625,-0.6875 0.546875,-0.46875 0.703125,-1.0625 0.703125,-1.125 0,-0.09375 -0.078125,-0.09375 -0.125,-0.09375 -0.078125,0 -0.09375,0.03125 -0.125,0.109375 -0.28125,0.953125 -1.25,1.546875 -2.09375,1.546875 -0.75,0 -1.5625,-0.40625 -1.5625,-1.5 0,-0.203125 0.046875,-1.296875 0.84375,-2.1875 0.484375,-0.53125 1.21875,-0.84375 1.875,-0.84375 0.8125,0 1.28125,0.578125 1.28125,1.359375 0,0.1875 -0.015625,0.25 -0.015625,0.28125 0,0.09375 0.09375,0.09375 0.125,0.09375 0.109375,0 0.109375,-0.015625 0.140625,-0.15625 z m 0,0"
               style="stroke:none" />
          </symbol>
        </g>
      </defs>
      <g
         transform="translate(-149.103,-127.953)"
         id="id-70a6847a-5bed-4bf9-bb36-47fd9a6b19aa">
        <g
           id="id-f1eaadbf-e799-4902-a284-67b2cb816033"
           style="fill:#000000;fill-opacity:1">
          <g
             transform="translate(148.712,134.765)"
             id="g7570">
            <path
               id="id-2f6efb28-0f67-4425-b8aa-1f4e57068ba9"
               d="M 7.53125,-5.765625 C 7.640625,-6.15625 7.8125,-6.46875 8.609375,-6.5 c 0.046875,0 0.171875,-0.015625 0.171875,-0.203125 0,0 0,-0.109375 -0.125,-0.109375 -0.328125,0 -0.6875,0.03125 -1.015625,0.03125 -0.328125,0 -0.6875,-0.03125 -1.015625,-0.03125 -0.0625,0 -0.171875,0 -0.171875,0.203125 C 6.453125,-6.5 6.546875,-6.5 6.625,-6.5 c 0.578125,0.015625 0.6875,0.21875 0.6875,0.4375 0,0.03125 -0.03125,0.1875 -0.03125,0.203125 l -1.125,4.4375 L 3.953125,-6.625 C 3.875,-6.796875 3.875,-6.8125 3.640625,-6.8125 h -1.34375 c -0.1875,0 -0.28125,0 -0.28125,0.203125 0,0.109375 0.09375,0.109375 0.28125,0.109375 0.046875,0 0.671875,0 0.671875,0.09375 L 1.640625,-1.0625 c -0.109375,0.40625 -0.28125,0.71875 -1.078125,0.75 -0.0625,0 -0.171875,0.015625 -0.171875,0.203125 0,0.0625 0.046875,0.109375 0.125,0.109375 0.328125,0 0.671875,-0.03125 1,-0.03125 C 1.859375,-0.03125 2.21875,0 2.546875,0 2.59375,0 2.71875,0 2.71875,-0.203125 2.71875,-0.296875 2.625,-0.3125 2.515625,-0.3125 1.9375,-0.328125 1.859375,-0.546875 1.859375,-0.75 c 0,-0.0625 0.015625,-0.125 0.046875,-0.234375 l 1.3125,-5.25 C 3.265625,-6.1875 3.265625,-6.15625 3.3125,-6.0625 l 2.484375,5.875 C 5.859375,-0.015625 5.890625,0 5.984375,0 6.09375,0 6.09375,-0.03125 6.140625,-0.203125 Z m 0,0"
               style="stroke:none" />
          </g>
        </g>
        <g
           id="id-010524f1-fa1d-4e85-b061-79ea79fb7ac5"
           style="fill:#000000;fill-opacity:1">
          <g
             transform="translate(156.717,136.259)"
             id="g7574">
            <path
               id="id-0784a3a4-3127-4575-921c-7ef733e2f772"
               d="M 1.328125,-0.546875 C 1.265625,-0.3125 1.25,-0.25 0.703125,-0.25 0.59375,-0.25 0.5,-0.25 0.5,-0.109375 0.5,0 0.578125,0 0.703125,0 H 3.40625 c 1.171875,0 2.078125,-0.796875 2.078125,-1.484375 0,-0.5 -0.453125,-0.921875 -1.203125,-1 0.84375,-0.15625 1.546875,-0.6875 1.546875,-1.28125 0,-0.53125 -0.53125,-1 -1.4375,-1 h -2.53125 c -0.140625,0 -0.234375,0 -0.234375,0.15625 0,0.09375 0.09375,0.09375 0.234375,0.09375 0,0 0.140625,0 0.265625,0.015625 0.140625,0.015625 0.15625,0.03125 0.15625,0.109375 0,0 0,0.046875 -0.03125,0.140625 z m 1.109375,-2.03125 0.421875,-1.6875 c 0.0625,-0.21875 0.0625,-0.25 0.359375,-0.25 h 1.0625 c 0.703125,0 0.875,0.46875 0.875,0.734375 0,0.5625 -0.640625,1.203125 -1.578125,1.203125 z M 2.109375,-0.25 C 1.890625,-0.25 1.875,-0.265625 1.875,-0.328125 c 0,0 0,-0.03125 0.03125,-0.140625 L 2.390625,-2.375 H 3.875 c 0.640625,0 0.90625,0.4375 0.90625,0.828125 0,0.703125 -0.71875,1.296875 -1.5625,1.296875 z m 0,0"
               style="stroke:none" />
          </g>
        </g>
        <g
           id="id-b2007eee-46a7-4d1c-beba-ad9c113b3691"
           style="fill:#000000;fill-opacity:1">
          <g
             transform="translate(163.079,136.259)"
             id="g7578">
            <path
               id="id-18abadce-9399-49fe-912c-a98634155798"
               d="m 5.875,-4.8125 c 0,-0.03125 -0.015625,-0.09375 -0.09375,-0.09375 -0.046875,0 -0.0625,0.015625 -0.125,0.09375 l -0.5,0.53125 c -0.0625,-0.078125 -0.453125,-0.625 -1.3125,-0.625 -1.703125,0 -3.359375,1.5 -3.359375,3.078125 0,1.140625 0.890625,1.96875 2.140625,1.96875 0.375,0 1.046875,-0.078125 1.765625,-0.6875 0.546875,-0.46875 0.703125,-1.0625 0.703125,-1.125 0,-0.09375 -0.078125,-0.09375 -0.125,-0.09375 -0.078125,0 -0.09375,0.03125 -0.125,0.109375 -0.28125,0.953125 -1.25,1.546875 -2.09375,1.546875 -0.75,0 -1.5625,-0.40625 -1.5625,-1.5 0,-0.203125 0.046875,-1.296875 0.84375,-2.1875 0.484375,-0.53125 1.21875,-0.84375 1.875,-0.84375 0.8125,0 1.28125,0.578125 1.28125,1.359375 0,0.1875 -0.015625,0.25 -0.015625,0.28125 0,0.09375 0.09375,0.09375 0.125,0.09375 0.109375,0 0.109375,-0.015625 0.140625,-0.15625 z m 0,0"
               style="stroke:none" />
          </g>
        </g>
      </g>
    </g>
    <g
       transform="matrix(1.94028,0,0,1.94028,7.3869802,87.729856)"
       ns2:version="1.0.1"
       ns2:texconverter="pdflatex"
       ns2:pdfconverter="inkscape"
       ns2:text="$N_{EG}$"
       ns2:preamble="C:\\Users\\claum\\AppData\\Roaming\\inkscape\\extensions\\textext\\default_packages.tex"
       ns2:scale="5.5"
       ns2:alignment="middle center"
       ns2:inkscapeversion="1.0"
       ns2:jacobian_sqrt="1.94028"
       id="g7843">
      <defs
         id="id-e8f68c21-da3c-488b-9525-15ee74f6e372">
        <g
           id="id-87bb7bb5-c05b-4929-b825-6c79e90d237e">
          <symbol
             id="id-01c2618e-b514-423b-8098-d9ca34644889"
             overflow="visible">
            <path
               id="id-9f7f2960-af9d-44b4-b2be-b511f03d193f"
               d=""
               style="stroke:none" />
          </symbol>
          <symbol
             id="id-e27a9f0d-e8c5-44ba-baa7-4920ad72e14a"
             overflow="visible">
            <path
               id="id-cca540b4-a536-4f82-8471-4d44eb172915"
               d="M 7.53125,-5.765625 C 7.640625,-6.15625 7.8125,-6.46875 8.609375,-6.5 c 0.046875,0 0.171875,-0.015625 0.171875,-0.203125 0,0 0,-0.109375 -0.125,-0.109375 -0.328125,0 -0.6875,0.03125 -1.015625,0.03125 -0.328125,0 -0.6875,-0.03125 -1.015625,-0.03125 -0.0625,0 -0.171875,0 -0.171875,0.203125 C 6.453125,-6.5 6.546875,-6.5 6.625,-6.5 c 0.578125,0.015625 0.6875,0.21875 0.6875,0.4375 0,0.03125 -0.03125,0.1875 -0.03125,0.203125 l -1.125,4.4375 L 3.953125,-6.625 C 3.875,-6.796875 3.875,-6.8125 3.640625,-6.8125 h -1.34375 c -0.1875,0 -0.28125,0 -0.28125,0.203125 0,0.109375 0.09375,0.109375 0.28125,0.109375 0.046875,0 0.671875,0 0.671875,0.09375 L 1.640625,-1.0625 c -0.109375,0.40625 -0.28125,0.71875 -1.078125,0.75 -0.0625,0 -0.171875,0.015625 -0.171875,0.203125 0,0.0625 0.046875,0.109375 0.125,0.109375 0.328125,0 0.671875,-0.03125 1,-0.03125 C 1.859375,-0.03125 2.21875,0 2.546875,0 2.59375,0 2.71875,0 2.71875,-0.203125 2.71875,-0.296875 2.625,-0.3125 2.515625,-0.3125 1.9375,-0.328125 1.859375,-0.546875 1.859375,-0.75 c 0,-0.0625 0.015625,-0.125 0.046875,-0.234375 l 1.3125,-5.25 C 3.265625,-6.1875 3.265625,-6.15625 3.3125,-6.0625 l 2.484375,5.875 C 5.859375,-0.015625 5.890625,0 5.984375,0 6.09375,0 6.09375,-0.03125 6.140625,-0.203125 Z m 0,0"
               style="stroke:none" />
          </symbol>
          <symbol
             id="id-60a6bb37-d770-4c4f-9efd-27cc328652b9"
             overflow="visible">
            <path
               id="id-8a855824-5289-4e0a-af33-55ff46b45c0d"
               d=""
               style="stroke:none" />
          </symbol>
          <symbol
             id="id-bef8f4b4-305e-4aa7-89bf-e25554c828b2"
             overflow="visible">
            <path
               id="id-411bb068-ff91-4519-8e01-a0ddbe24e827"
               d="m 5.515625,-1.609375 c 0.046875,-0.09375 0.046875,-0.125 0.046875,-0.125 0,-0.046875 -0.03125,-0.09375 -0.125,-0.09375 -0.015625,0 -0.046875,0 -0.078125,0.015625 0,0.015625 -0.015625,0.03125 -0.09375,0.203125 C 4.8125,-0.59375 4.453125,-0.25 3.3125,-0.25 H 2.125 c -0.203125,0 -0.21875,-0.015625 -0.21875,-0.078125 0,0 0,-0.03125 0.03125,-0.140625 L 2.40625,-2.328125 H 3.1875 c 0.546875,0 0.625,0.078125 0.625,0.3125 0,0.078125 -0.015625,0.203125 -0.046875,0.3125 C 3.75,-1.640625 3.75,-1.625 3.75,-1.609375 c 0,0 0,0.09375 0.125,0.09375 0.09375,0 0.09375,-0.03125 0.125,-0.15625 l 0.390625,-1.53125 c 0.015625,-0.078125 0.015625,-0.09375 0.015625,-0.09375 0,-0.078125 -0.0625,-0.109375 -0.125,-0.109375 -0.09375,0 -0.09375,0.046875 -0.140625,0.1875 C 4,-2.671875 3.796875,-2.578125 3.203125,-2.578125 H 2.46875 L 2.890625,-4.25 c 0.046875,-0.203125 0.0625,-0.234375 0.34375,-0.234375 H 4.375 c 0.921875,0 1.140625,0.1875 1.140625,0.8125 0,0.1875 -0.03125,0.390625 -0.03125,0.421875 0,0.0625 0.03125,0.125 0.125,0.125 0.109375,0 0.109375,-0.0625 0.125,-0.1875 l 0.125,-1.203125 C 5.875,-4.734375 5.828125,-4.734375 5.65625,-4.734375 H 1.828125 c -0.140625,0 -0.21875,0 -0.21875,0.15625 0,0.09375 0.0625,0.09375 0.21875,0.09375 0.109375,0 0.140625,0 0.265625,0.015625 C 2.234375,-4.453125 2.25,-4.4375 2.25,-4.375 c 0,0.046875 -0.015625,0.125 -0.03125,0.15625 L 1.3125,-0.578125 C 1.234375,-0.296875 1.234375,-0.25 0.6875,-0.25 c -0.125,0 -0.203125,0 -0.203125,0.15625 C 0.484375,0 0.5625,0 0.6875,0 H 4.625 c 0.171875,0 0.1875,0 0.234375,-0.125 z m 0,0"
               style="stroke:none" />
          </symbol>
          <symbol
             id="id-34121257-3f0b-4d33-b3cd-a1309073c1aa"
             overflow="visible">
            <path
               id="id-0ecb5cbf-cf3e-41cf-8b06-f5f633877478"
               d="m 5.875,-4.8125 c 0,-0.03125 -0.015625,-0.09375 -0.09375,-0.09375 -0.046875,0 -0.0625,0.015625 -0.125,0.09375 l -0.5,0.53125 c -0.0625,-0.078125 -0.453125,-0.625 -1.3125,-0.625 -1.703125,0 -3.359375,1.5 -3.359375,3.078125 0,1.078125 0.828125,1.96875 2.15625,1.96875 0.625,0 1.265625,-0.15625 1.625,-0.546875 C 4.34375,-0.265625 4.53125,0 4.609375,0 4.671875,0 4.6875,-0.03125 4.71875,-0.1875 l 0.140625,-0.53125 c 0.03125,-0.125 0.125,-0.546875 0.15625,-0.625 0.078125,-0.3125 0.078125,-0.328125 0.5,-0.328125 0.046875,0 0.15625,0 0.15625,-0.140625 0,-0.078125 -0.0625,-0.109375 -0.109375,-0.109375 -0.234375,0 -0.53125,0.03125 -0.765625,0.03125 -0.171875,0 -0.40625,0 -0.578125,-0.015625 -0.171875,0 -0.375,-0.015625 -0.546875,-0.015625 -0.0625,0 -0.15625,0 -0.15625,0.15625 0,0.09375 0.078125,0.09375 0.25,0.09375 0.125,0 0.265625,0 0.40625,0.015625 0.21875,0.015625 0.21875,0.046875 0.21875,0.125 0,0.03125 0,0.046875 -0.046875,0.234375 -0.046875,0.1875 -0.125,0.5 -0.15625,0.578125 C 4,-0.296875 3.34375,-0.109375 2.796875,-0.109375 c -0.6875,0 -1.609375,-0.34375 -1.609375,-1.515625 0,-0.75 0.359375,-1.671875 0.875,-2.203125 0.71875,-0.703125 1.453125,-0.8125 1.84375,-0.8125 0.8125,0 1.28125,0.578125 1.28125,1.359375 0,0.1875 -0.015625,0.25 -0.015625,0.28125 0,0.09375 0.09375,0.09375 0.125,0.09375 0.109375,0 0.109375,-0.015625 0.140625,-0.15625 z m 0,0"
               style="stroke:none" />
          </symbol>
        </g>
      </defs>
      <g
         transform="translate(-149.103,-127.953)"
         id="id-da79241c-6b80-41d4-8429-743ff790df31">
        <g
           id="id-f8fd4834-a23e-4032-85b1-aa2ddef27b09"
           style="fill:#000000;fill-opacity:1">
          <g
             transform="translate(148.712,134.765)"
             id="g7831">
            <path
               id="id-dc149f99-eed3-4d2b-a26b-aebb4273acba"
               d="M 7.53125,-5.765625 C 7.640625,-6.15625 7.8125,-6.46875 8.609375,-6.5 c 0.046875,0 0.171875,-0.015625 0.171875,-0.203125 0,0 0,-0.109375 -0.125,-0.109375 -0.328125,0 -0.6875,0.03125 -1.015625,0.03125 -0.328125,0 -0.6875,-0.03125 -1.015625,-0.03125 -0.0625,0 -0.171875,0 -0.171875,0.203125 C 6.453125,-6.5 6.546875,-6.5 6.625,-6.5 c 0.578125,0.015625 0.6875,0.21875 0.6875,0.4375 0,0.03125 -0.03125,0.1875 -0.03125,0.203125 l -1.125,4.4375 L 3.953125,-6.625 C 3.875,-6.796875 3.875,-6.8125 3.640625,-6.8125 h -1.34375 c -0.1875,0 -0.28125,0 -0.28125,0.203125 0,0.109375 0.09375,0.109375 0.28125,0.109375 0.046875,0 0.671875,0 0.671875,0.09375 L 1.640625,-1.0625 c -0.109375,0.40625 -0.28125,0.71875 -1.078125,0.75 -0.0625,0 -0.171875,0.015625 -0.171875,0.203125 0,0.0625 0.046875,0.109375 0.125,0.109375 0.328125,0 0.671875,-0.03125 1,-0.03125 C 1.859375,-0.03125 2.21875,0 2.546875,0 2.59375,0 2.71875,0 2.71875,-0.203125 2.71875,-0.296875 2.625,-0.3125 2.515625,-0.3125 1.9375,-0.328125 1.859375,-0.546875 1.859375,-0.75 c 0,-0.0625 0.015625,-0.125 0.046875,-0.234375 l 1.3125,-5.25 C 3.265625,-6.1875 3.265625,-6.15625 3.3125,-6.0625 l 2.484375,5.875 C 5.859375,-0.015625 5.890625,0 5.984375,0 6.09375,0 6.09375,-0.03125 6.140625,-0.203125 Z m 0,0"
               style="stroke:none" />
          </g>
        </g>
        <g
           id="id-11473242-93bb-4016-bb0e-bdef499edb9d"
           style="fill:#000000;fill-opacity:1">
          <g
             transform="translate(156.717,136.259)"
             id="g7835">
            <path
               id="id-15acc7bc-fbba-4ab0-b8e3-2b27a057bf2f"
               d="m 5.515625,-1.609375 c 0.046875,-0.09375 0.046875,-0.125 0.046875,-0.125 0,-0.046875 -0.03125,-0.09375 -0.125,-0.09375 -0.015625,0 -0.046875,0 -0.078125,0.015625 0,0.015625 -0.015625,0.03125 -0.09375,0.203125 C 4.8125,-0.59375 4.453125,-0.25 3.3125,-0.25 H 2.125 c -0.203125,0 -0.21875,-0.015625 -0.21875,-0.078125 0,0 0,-0.03125 0.03125,-0.140625 L 2.40625,-2.328125 H 3.1875 c 0.546875,0 0.625,0.078125 0.625,0.3125 0,0.078125 -0.015625,0.203125 -0.046875,0.3125 C 3.75,-1.640625 3.75,-1.625 3.75,-1.609375 c 0,0 0,0.09375 0.125,0.09375 0.09375,0 0.09375,-0.03125 0.125,-0.15625 l 0.390625,-1.53125 c 0.015625,-0.078125 0.015625,-0.09375 0.015625,-0.09375 0,-0.078125 -0.0625,-0.109375 -0.125,-0.109375 -0.09375,0 -0.09375,0.046875 -0.140625,0.1875 C 4,-2.671875 3.796875,-2.578125 3.203125,-2.578125 H 2.46875 L 2.890625,-4.25 c 0.046875,-0.203125 0.0625,-0.234375 0.34375,-0.234375 H 4.375 c 0.921875,0 1.140625,0.1875 1.140625,0.8125 0,0.1875 -0.03125,0.390625 -0.03125,0.421875 0,0.0625 0.03125,0.125 0.125,0.125 0.109375,0 0.109375,-0.0625 0.125,-0.1875 l 0.125,-1.203125 C 5.875,-4.734375 5.828125,-4.734375 5.65625,-4.734375 H 1.828125 c -0.140625,0 -0.21875,0 -0.21875,0.15625 0,0.09375 0.0625,0.09375 0.21875,0.09375 0.109375,0 0.140625,0 0.265625,0.015625 C 2.234375,-4.453125 2.25,-4.4375 2.25,-4.375 c 0,0.046875 -0.015625,0.125 -0.03125,0.15625 L 1.3125,-0.578125 C 1.234375,-0.296875 1.234375,-0.25 0.6875,-0.25 c -0.125,0 -0.203125,0 -0.203125,0.15625 C 0.484375,0 0.5625,0 0.6875,0 H 4.625 c 0.171875,0 0.1875,0 0.234375,-0.125 z m 0,0"
               style="stroke:none" />
          </g>
        </g>
        <g
           id="id-64380e50-4de7-4082-bc58-f4debe315756"
           style="fill:#000000;fill-opacity:1">
          <g
             transform="translate(162.949,136.259)"
             id="g7839">
            <path
               id="id-4d696c17-9093-4743-85d6-f96b4221d34b"
               d="m 5.875,-4.8125 c 0,-0.03125 -0.015625,-0.09375 -0.09375,-0.09375 -0.046875,0 -0.0625,0.015625 -0.125,0.09375 l -0.5,0.53125 c -0.0625,-0.078125 -0.453125,-0.625 -1.3125,-0.625 -1.703125,0 -3.359375,1.5 -3.359375,3.078125 0,1.078125 0.828125,1.96875 2.15625,1.96875 0.625,0 1.265625,-0.15625 1.625,-0.546875 C 4.34375,-0.265625 4.53125,0 4.609375,0 4.671875,0 4.6875,-0.03125 4.71875,-0.1875 l 0.140625,-0.53125 c 0.03125,-0.125 0.125,-0.546875 0.15625,-0.625 0.078125,-0.3125 0.078125,-0.328125 0.5,-0.328125 0.046875,0 0.15625,0 0.15625,-0.140625 0,-0.078125 -0.0625,-0.109375 -0.109375,-0.109375 -0.234375,0 -0.53125,0.03125 -0.765625,0.03125 -0.171875,0 -0.40625,0 -0.578125,-0.015625 -0.171875,0 -0.375,-0.015625 -0.546875,-0.015625 -0.0625,0 -0.15625,0 -0.15625,0.15625 0,0.09375 0.078125,0.09375 0.25,0.09375 0.125,0 0.265625,0 0.40625,0.015625 0.21875,0.015625 0.21875,0.046875 0.21875,0.125 0,0.03125 0,0.046875 -0.046875,0.234375 -0.046875,0.1875 -0.125,0.5 -0.15625,0.578125 C 4,-0.296875 3.34375,-0.109375 2.796875,-0.109375 c -0.6875,0 -1.609375,-0.34375 -1.609375,-1.515625 0,-0.75 0.359375,-1.671875 0.875,-2.203125 0.71875,-0.703125 1.453125,-0.8125 1.84375,-0.8125 0.8125,0 1.28125,0.578125 1.28125,1.359375 0,0.1875 -0.015625,0.25 -0.015625,0.28125 0,0.09375 0.09375,0.09375 0.125,0.09375 0.109375,0 0.109375,-0.015625 0.140625,-0.15625 z m 0,0"
               style="stroke:none" />
          </g>
        </g>
      </g>
    </g>
  </g>
</svg>
