<?xml version="1.0" encoding="UTF-8" standalone="no"?>
<svg
   xmlns:ns21="http://www.iki.fi/pav/software/textext/"
   xmlns:dc="http://purl.org/dc/elements/1.1/"
   xmlns:cc="http://creativecommons.org/ns#"
   xmlns:rdf="http://www.w3.org/1999/02/22-rdf-syntax-ns#"
   xmlns:svg="http://www.w3.org/2000/svg"
   xmlns="http://www.w3.org/2000/svg"
   xmlns:sodipodi="http://sodipodi.sourceforge.net/DTD/sodipodi-0.dtd"
   xmlns:inkscape="http://www.inkscape.org/namespaces/inkscape"
   width="18.1cm"
   height="9.1000004cm"
   viewBox="0 0 181 90.999998"
   version="1.1"
   id="svg1532"
   inkscape:version="1.0 (4035a4fb49, 2020-05-01)"
   sodipodi:docname="Esercizio1_5.svg">
  <defs
     id="defs1526">
    <marker
       inkscape:stockid="Arrow1Lend"
       orient="auto"
       refY="0"
       refX="0"
       id="marker6291"
       style="overflow:visible"
       inkscape:isstock="true">
      <path
         id="path6289"
         d="M 0,0 5,-5 -12.5,0 5,5 Z"
         style="fill:#000000;fill-opacity:1;fill-rule:evenodd;stroke:#000000;stroke-width:1pt;stroke-opacity:1"
         transform="matrix(-0.8,0,0,-0.8,-10,0)" />
    </marker>
    <marker
       inkscape:collect="always"
       inkscape:isstock="true"
       style="overflow:visible"
       id="marker2119"
       refX="0"
       refY="0"
       orient="auto"
       inkscape:stockid="Arrow1Lend">
      <path
         transform="matrix(-0.8,0,0,-0.8,-10,0)"
         style="fill:#000000;fill-opacity:1;fill-rule:evenodd;stroke:#000000;stroke-width:1pt;stroke-opacity:1"
         d="M 0,0 5,-5 -12.5,0 5,5 Z"
         id="path2117" />
    </marker>
  </defs>
  <sodipodi:namedview
     id="base"
     pagecolor="#ffffff"
     bordercolor="#666666"
     borderopacity="1.0"
     inkscape:pageopacity="0.0"
     inkscape:pageshadow="2"
     inkscape:zoom="0.70710678"
     inkscape:cx="255.15472"
     inkscape:cy="267.65912"
     inkscape:document-units="mm"
     inkscape:current-layer="layer1"
     inkscape:document-rotation="0"
     showgrid="true"
     units="cm"
     inkscape:window-width="1350"
     inkscape:window-height="729"
     inkscape:window-x="0"
     inkscape:window-y="0"
     inkscape:window-maximized="0">
    <inkscape:grid
       type="xygrid"
       id="grid1534"
       units="cm" />
  </sodipodi:namedview>
  <metadata
     id="metadata1529">
    <rdf:RDF>
      <cc:Work
         rdf:about="">
        <dc:format>image/svg+xml</dc:format>
        <dc:type
           rdf:resource="http://purl.org/dc/dcmitype/StillImage" />
        <dc:title></dc:title>
      </cc:Work>
    </rdf:RDF>
  </metadata>
  <g
     inkscape:label="Livello 1"
     inkscape:groupmode="layer"
     id="layer1">
    <path
       id="path5712"
       d="M 0,75 H 180"
       style="fill:none;stroke:#000000;stroke-width:0.260983px;stroke-linecap:butt;stroke-linejoin:miter;stroke-opacity:1;marker-end:url(#marker6291)" />
    <path
       style="fill:none;stroke:#000000;stroke-width:0.162762;stroke-linecap:butt;stroke-linejoin:miter;stroke-miterlimit:4;stroke-dasharray:none;stroke-opacity:1;marker-end:url(#marker2119)"
       d="M 85,75 V 5"
       id="path6281" />
    <path
       d="m 140,-75 a 54.999996,60 0 0 1 -27.50217,51.962888 54.999996,60 0 0 1 -55.002158,-0.0041 54.999996,60 0 0 1 -27.495668,-51.966978"
       sodipodi:arc-type="arc"
       sodipodi:open="true"
       sodipodi:end="3.141729"
       sodipodi:start="0"
       sodipodi:ry="60"
       sodipodi:rx="54.999996"
       sodipodi:cy="-75"
       sodipodi:cx="85"
       sodipodi:type="arc"
       transform="scale(1,-1)"
       id="path6335"
       style="opacity:1;fill:none;fill-opacity:1;stroke:#000000;stroke-width:0.261;stroke-miterlimit:4;stroke-dasharray:none" />
    <path
       id="path6345"
       d="M 79.999998,89.999999 89.999999,79.999998"
       style="fill:none;stroke:#000000;stroke-width:0.264583px;stroke-linecap:butt;stroke-linejoin:miter;stroke-opacity:1" />
    <path
       id="path6347"
       d="M 135,89.999999 145,79.999998"
       style="fill:none;stroke:#000000;stroke-width:0.264583px;stroke-linecap:butt;stroke-linejoin:miter;stroke-opacity:1" />
    <path
       id="path6349"
       d="M 84.999998,84.999998 H 140"
       style="fill:none;stroke:#000000;stroke-width:0.264583px;stroke-linecap:butt;stroke-linejoin:miter;stroke-opacity:1" />
    <path
       sodipodi:nodetypes="cc"
       id="path6351"
       d="M 84.999998,75 85,45.936"
       style="fill:none;stroke:#000000;stroke-width:0.264583px;stroke-linecap:butt;stroke-linejoin:miter;stroke-opacity:1" />
    <circle
       r="2"
       cy="45.999996"
       cx="85"
       id="path6353"
       style="opacity:1;fill:#000000;fill-opacity:1;stroke:#000000;stroke-width:0.261;stroke-miterlimit:4;stroke-dasharray:none" />
    <g
       transform="matrix(1.05833,0,0,1.05833,77.825142,3.700799)"
       ns21:version="1.0.1"
       ns21:texconverter="pdflatex"
       ns21:pdfconverter="inkscape"
       ns21:text="$y$"
       ns21:preamble="C:\\Users\\claum\\AppData\\Roaming\\inkscape\\extensions\\textext\\default_packages.tex"
       ns21:scale="3.0"
       ns21:alignment="middle center"
       ns21:inkscapeversion="1.0"
       ns21:jacobian_sqrt="1.05833"
       id="g6382">
      <defs
         id="id-dc421e78-0767-462b-adb4-52729ce3efcc">
        <g
           id="id-d70e48bd-7479-4307-bb2e-d4717b114c01">
          <symbol
             id="id-afa76c3d-da71-4a79-b702-2f8c1979a498"
             overflow="visible">
            <path
               id="id-062753c6-f537-44f2-99b8-93c0e7ff1ad4"
               d=""
               style="stroke:none" />
          </symbol>
          <symbol
             id="id-d37b138d-3f66-486b-af83-9479c4df1e04"
             overflow="visible">
            <path
               id="id-8e829aef-1400-4ddc-adc5-6006698f6928"
               d="m 4.84375,-3.796875 c 0.046875,-0.140625 0.046875,-0.15625 0.046875,-0.234375 0,-0.171875 -0.140625,-0.265625 -0.296875,-0.265625 -0.09375,0 -0.25,0.0625 -0.34375,0.203125 -0.015625,0.0625 -0.109375,0.359375 -0.140625,0.546875 -0.078125,0.25 -0.140625,0.53125 -0.203125,0.796875 l -0.453125,1.796875 c -0.03125,0.140625 -0.46875,0.84375 -1.125,0.84375 -0.5,0 -0.609375,-0.4375 -0.609375,-0.8125 C 1.71875,-1.375 1.890625,-2 2.21875,-2.875 2.375,-3.28125 2.421875,-3.390625 2.421875,-3.59375 c 0,-0.4375 -0.3125,-0.8125 -0.8125,-0.8125 -0.953125,0 -1.3125,1.453125 -1.3125,1.53125 0,0.109375 0.09375,0.109375 0.109375,0.109375 0.109375,0 0.109375,-0.03125 0.15625,-0.1875 0.28125,-0.9375 0.671875,-1.234375 1.015625,-1.234375 0.078125,0 0.25,0 0.25,0.3125 0,0.25 -0.109375,0.515625 -0.171875,0.703125 -0.40625,1.0625 -0.578125,1.625 -0.578125,2.09375 0,0.890625 0.625,1.1875 1.21875,1.1875 0.390625,0 0.71875,-0.171875 1,-0.453125 -0.125,0.515625 -0.25,1.015625 -0.640625,1.546875 -0.265625,0.328125 -0.640625,0.625 -1.09375,0.625 -0.140625,0 -0.59375,-0.03125 -0.765625,-0.421875 0.15625,0 0.296875,0 0.421875,-0.125 C 1.328125,1.203125 1.421875,1.0625 1.421875,0.875 1.421875,0.5625 1.15625,0.53125 1.0625,0.53125 0.828125,0.53125 0.5,0.6875 0.5,1.171875 c 0,0.5 0.4375,0.875 1.0625,0.875 1.015625,0 2.046875,-0.90625 2.328125,-2.03125 z m 0,0"
               style="stroke:none" />
          </symbol>
        </g>
      </defs>
      <g
         transform="translate(-149.009,-130.359)"
         id="id-97385b27-e79f-4acc-af3c-6836b92207ea">
        <g
           id="id-a1ba68dc-c74d-4df9-b73d-581aa6c27453"
           style="fill:#000000;fill-opacity:1">
          <g
             transform="translate(148.712,134.765)"
             id="g6378">
            <path
               id="id-47b605c3-ce16-4084-a1f8-273e7d7dc040"
               d="m 4.84375,-3.796875 c 0.046875,-0.140625 0.046875,-0.15625 0.046875,-0.234375 0,-0.171875 -0.140625,-0.265625 -0.296875,-0.265625 -0.09375,0 -0.25,0.0625 -0.34375,0.203125 -0.015625,0.0625 -0.109375,0.359375 -0.140625,0.546875 -0.078125,0.25 -0.140625,0.53125 -0.203125,0.796875 l -0.453125,1.796875 c -0.03125,0.140625 -0.46875,0.84375 -1.125,0.84375 -0.5,0 -0.609375,-0.4375 -0.609375,-0.8125 C 1.71875,-1.375 1.890625,-2 2.21875,-2.875 2.375,-3.28125 2.421875,-3.390625 2.421875,-3.59375 c 0,-0.4375 -0.3125,-0.8125 -0.8125,-0.8125 -0.953125,0 -1.3125,1.453125 -1.3125,1.53125 0,0.109375 0.09375,0.109375 0.109375,0.109375 0.109375,0 0.109375,-0.03125 0.15625,-0.1875 0.28125,-0.9375 0.671875,-1.234375 1.015625,-1.234375 0.078125,0 0.25,0 0.25,0.3125 0,0.25 -0.109375,0.515625 -0.171875,0.703125 -0.40625,1.0625 -0.578125,1.625 -0.578125,2.09375 0,0.890625 0.625,1.1875 1.21875,1.1875 0.390625,0 0.71875,-0.171875 1,-0.453125 -0.125,0.515625 -0.25,1.015625 -0.640625,1.546875 -0.265625,0.328125 -0.640625,0.625 -1.09375,0.625 -0.140625,0 -0.59375,-0.03125 -0.765625,-0.421875 0.15625,0 0.296875,0 0.421875,-0.125 C 1.328125,1.203125 1.421875,1.0625 1.421875,0.875 1.421875,0.5625 1.15625,0.53125 1.0625,0.53125 0.828125,0.53125 0.5,0.6875 0.5,1.171875 c 0,0.5 0.4375,0.875 1.0625,0.875 1.015625,0 2.046875,-0.90625 2.328125,-2.03125 z m 0,0"
               style="stroke:none" />
          </g>
        </g>
      </g>
    </g>
    <g
       transform="matrix(1.05833,0,0,1.05833,174.3534,77.841811)"
       ns21:version="1.0.1"
       ns21:texconverter="pdflatex"
       ns21:pdfconverter="inkscape"
       ns21:text="$x$"
       ns21:preamble="C:\\Users\\claum\\AppData\\Roaming\\inkscape\\extensions\\textext\\default_packages.tex"
       ns21:scale="3.0"
       ns21:alignment="middle center"
       ns21:inkscapeversion="1.0"
       ns21:jacobian_sqrt="1.05833"
       id="g6436">
      <defs
         id="id-e4ff9fa6-f2f7-412e-ac36-e486a31f1c7f">
        <g
           id="id-6af01369-0f60-4be1-ae14-ec0e189e34b6">
          <symbol
             id="id-bc679497-48b5-489b-b99e-ed46fde80834"
             overflow="visible">
            <path
               id="id-e54a274a-3249-4a39-977c-ea4d64eed349"
               d=""
               style="stroke:none" />
          </symbol>
          <symbol
             id="id-662b1299-8fde-45cc-b708-098c4c3d5675"
             overflow="visible">
            <path
               id="id-24a72074-7826-472f-ad85-29db5bf83de7"
               d="M 3.328125,-3.015625 C 3.390625,-3.265625 3.625,-4.1875 4.3125,-4.1875 c 0.046875,0 0.296875,0 0.5,0.125 C 4.53125,-4 4.34375,-3.765625 4.34375,-3.515625 c 0,0.15625 0.109375,0.34375 0.375,0.34375 0.21875,0 0.53125,-0.171875 0.53125,-0.578125 0,-0.515625 -0.578125,-0.65625 -0.921875,-0.65625 -0.578125,0 -0.921875,0.53125 -1.046875,0.75 -0.25,-0.65625 -0.78125,-0.75 -1.078125,-0.75 -1.03125,0 -1.609375,1.28125 -1.609375,1.53125 0,0.109375 0.109375,0.109375 0.125,0.109375 0.078125,0 0.109375,-0.03125 0.125,-0.109375 0.34375,-1.0625 1,-1.3125 1.34375,-1.3125 0.1875,0 0.53125,0.09375 0.53125,0.671875 0,0.3125 -0.171875,0.96875 -0.53125,2.375 -0.15625,0.609375 -0.515625,1.03125 -0.953125,1.03125 -0.0625,0 -0.28125,0 -0.5,-0.125 0.25,-0.0625 0.46875,-0.265625 0.46875,-0.546875 0,-0.265625 -0.21875,-0.34375 -0.359375,-0.34375 -0.3125,0 -0.546875,0.25 -0.546875,0.578125 0,0.453125 0.484375,0.65625 0.921875,0.65625 0.671875,0 1.03125,-0.703125 1.046875,-0.75 0.125,0.359375 0.484375,0.75 1.078125,0.75 1.03125,0 1.59375,-1.28125 1.59375,-1.53125 0,-0.109375 -0.078125,-0.109375 -0.109375,-0.109375 -0.09375,0 -0.109375,0.046875 -0.140625,0.109375 -0.328125,1.078125 -1,1.3125 -1.3125,1.3125 -0.390625,0 -0.546875,-0.3125 -0.546875,-0.65625 0,-0.21875 0.046875,-0.4375 0.15625,-0.875 z m 0,0"
               style="stroke:none" />
          </symbol>
        </g>
      </defs>
      <g
         transform="translate(-149.009,-130.359)"
         id="id-91e51286-5151-4208-98d0-443a0c59f062">
        <g
           id="id-5422990f-9b60-48c6-929a-0f3c914320bd"
           style="fill:#000000;fill-opacity:1">
          <g
             transform="translate(148.712,134.765)"
             id="g6432">
            <path
               id="id-5e0bb3d7-b61c-49bb-ab91-927dcafa7327"
               d="M 3.328125,-3.015625 C 3.390625,-3.265625 3.625,-4.1875 4.3125,-4.1875 c 0.046875,0 0.296875,0 0.5,0.125 C 4.53125,-4 4.34375,-3.765625 4.34375,-3.515625 c 0,0.15625 0.109375,0.34375 0.375,0.34375 0.21875,0 0.53125,-0.171875 0.53125,-0.578125 0,-0.515625 -0.578125,-0.65625 -0.921875,-0.65625 -0.578125,0 -0.921875,0.53125 -1.046875,0.75 -0.25,-0.65625 -0.78125,-0.75 -1.078125,-0.75 -1.03125,0 -1.609375,1.28125 -1.609375,1.53125 0,0.109375 0.109375,0.109375 0.125,0.109375 0.078125,0 0.109375,-0.03125 0.125,-0.109375 0.34375,-1.0625 1,-1.3125 1.34375,-1.3125 0.1875,0 0.53125,0.09375 0.53125,0.671875 0,0.3125 -0.171875,0.96875 -0.53125,2.375 -0.15625,0.609375 -0.515625,1.03125 -0.953125,1.03125 -0.0625,0 -0.28125,0 -0.5,-0.125 0.25,-0.0625 0.46875,-0.265625 0.46875,-0.546875 0,-0.265625 -0.21875,-0.34375 -0.359375,-0.34375 -0.3125,0 -0.546875,0.25 -0.546875,0.578125 0,0.453125 0.484375,0.65625 0.921875,0.65625 0.671875,0 1.03125,-0.703125 1.046875,-0.75 0.125,0.359375 0.484375,0.75 1.078125,0.75 1.03125,0 1.59375,-1.28125 1.59375,-1.53125 0,-0.109375 -0.078125,-0.109375 -0.109375,-0.109375 -0.09375,0 -0.109375,0.046875 -0.140625,0.109375 -0.328125,1.078125 -1,1.3125 -1.3125,1.3125 -0.390625,0 -0.546875,-0.3125 -0.546875,-0.65625 0,-0.21875 0.046875,-0.4375 0.15625,-0.875 z m 0,0"
               style="stroke:none" />
          </g>
        </g>
      </g>
    </g>
    <g
       transform="matrix(1.05833,0,0,1.05833,111.15547,76.511347)"
       ns21:version="1.0.1"
       ns21:texconverter="pdflatex"
       ns21:pdfconverter="inkscape"
       ns21:text="$R$"
       ns21:preamble="C:\\Users\\claum\\AppData\\Roaming\\inkscape\\extensions\\textext\\default_packages.tex"
       ns21:scale="3.0"
       ns21:alignment="middle center"
       ns21:inkscapeversion="1.0"
       ns21:jacobian_sqrt="1.05833"
       id="g6501">
      <defs
         id="id-77f192e5-61ad-49c1-9721-7c0621fd83ea">
        <g
           id="id-cd1aca54-dcf9-4769-b5f4-b390f7dbb0e3">
          <symbol
             id="id-18da0f1b-92c3-4c5b-86da-2355aab67911"
             overflow="visible">
            <path
               id="id-5196163d-593c-4745-806d-3f84b7d99f0a"
               d=""
               style="stroke:none" />
          </symbol>
          <symbol
             id="id-e57a786e-eef0-4bff-8b73-916babd05a7c"
             overflow="visible">
            <path
               id="id-c46b74f5-dfef-42eb-982f-77f7dfc0b995"
               d="m 3.734375,-6.125 c 0.0625,-0.234375 0.09375,-0.328125 0.28125,-0.359375 C 4.109375,-6.5 4.421875,-6.5 4.625,-6.5 c 0.703125,0 1.8125,0 1.8125,0.984375 0,0.34375 -0.15625,1.03125 -0.546875,1.421875 -0.265625,0.25 -0.78125,0.578125 -1.6875,0.578125 H 3.09375 Z m 1.4375,2.734375 c 1.015625,-0.21875 2.1875,-0.921875 2.1875,-1.921875 0,-0.859375 -0.890625,-1.5 -2.203125,-1.5 H 2.328125 c -0.203125,0 -0.296875,0 -0.296875,0.203125 C 2.03125,-6.5 2.125,-6.5 2.3125,-6.5 c 0.015625,0 0.203125,0 0.375,0.015625 0.1875,0.03125 0.265625,0.03125 0.265625,0.171875 0,0.03125 0,0.0625 -0.03125,0.1875 l -1.34375,5.34375 C 1.484375,-0.390625 1.46875,-0.3125 0.671875,-0.3125 0.5,-0.3125 0.40625,-0.3125 0.40625,-0.109375 0.40625,0 0.53125,0 0.546875,0 c 0.28125,0 0.984375,-0.03125 1.25,-0.03125 0.28125,0 1,0.03125 1.28125,0.03125 0.078125,0 0.1875,0 0.1875,-0.203125 0,-0.109375 -0.078125,-0.109375 -0.28125,-0.109375 -0.359375,0 -0.640625,0 -0.640625,-0.171875 0,-0.0625 0.015625,-0.109375 0.03125,-0.171875 l 0.65625,-2.640625 h 1.1875 c 0.90625,0 1.078125,0.5625 1.078125,0.90625 0,0.140625 -0.078125,0.453125 -0.140625,0.6875 C 5.09375,-1.421875 5,-1.0625 5,-0.859375 5,0.21875 6.203125,0.21875 6.328125,0.21875 c 0.84375,0 1.203125,-1 1.203125,-1.140625 0,-0.125 -0.109375,-0.125 -0.125,-0.125 -0.09375,0 -0.109375,0.0625 -0.125,0.140625 C 7.03125,-0.171875 6.59375,0 6.375,0 6.046875,0 5.96875,-0.21875 5.96875,-0.609375 c 0,-0.3125 0.0625,-0.8125 0.109375,-1.140625 0.015625,-0.140625 0.03125,-0.328125 0.03125,-0.46875 0,-0.765625 -0.671875,-1.078125 -0.9375,-1.171875 z m 0,0"
               style="stroke:none" />
          </symbol>
        </g>
      </defs>
      <g
         transform="translate(-149.118,-127.953)"
         id="id-8208dc5c-6af5-43b0-899d-c43e05b66dc9">
        <g
           id="id-0d094c39-1e33-4f16-bb98-611f168663fd"
           style="fill:#000000;fill-opacity:1">
          <g
             transform="translate(148.712,134.765)"
             id="g6497">
            <path
               id="id-736c5ebe-3c3c-4fbd-99ab-ecae5f1ab6c7"
               d="m 3.734375,-6.125 c 0.0625,-0.234375 0.09375,-0.328125 0.28125,-0.359375 C 4.109375,-6.5 4.421875,-6.5 4.625,-6.5 c 0.703125,0 1.8125,0 1.8125,0.984375 0,0.34375 -0.15625,1.03125 -0.546875,1.421875 -0.265625,0.25 -0.78125,0.578125 -1.6875,0.578125 H 3.09375 Z m 1.4375,2.734375 c 1.015625,-0.21875 2.1875,-0.921875 2.1875,-1.921875 0,-0.859375 -0.890625,-1.5 -2.203125,-1.5 H 2.328125 c -0.203125,0 -0.296875,0 -0.296875,0.203125 C 2.03125,-6.5 2.125,-6.5 2.3125,-6.5 c 0.015625,0 0.203125,0 0.375,0.015625 0.1875,0.03125 0.265625,0.03125 0.265625,0.171875 0,0.03125 0,0.0625 -0.03125,0.1875 l -1.34375,5.34375 C 1.484375,-0.390625 1.46875,-0.3125 0.671875,-0.3125 0.5,-0.3125 0.40625,-0.3125 0.40625,-0.109375 0.40625,0 0.53125,0 0.546875,0 c 0.28125,0 0.984375,-0.03125 1.25,-0.03125 0.28125,0 1,0.03125 1.28125,0.03125 0.078125,0 0.1875,0 0.1875,-0.203125 0,-0.109375 -0.078125,-0.109375 -0.28125,-0.109375 -0.359375,0 -0.640625,0 -0.640625,-0.171875 0,-0.0625 0.015625,-0.109375 0.03125,-0.171875 l 0.65625,-2.640625 h 1.1875 c 0.90625,0 1.078125,0.5625 1.078125,0.90625 0,0.140625 -0.078125,0.453125 -0.140625,0.6875 C 5.09375,-1.421875 5,-1.0625 5,-0.859375 5,0.21875 6.203125,0.21875 6.328125,0.21875 c 0.84375,0 1.203125,-1 1.203125,-1.140625 0,-0.125 -0.109375,-0.125 -0.125,-0.125 -0.09375,0 -0.109375,0.0625 -0.125,0.140625 C 7.03125,-0.171875 6.59375,0 6.375,0 6.046875,0 5.96875,-0.21875 5.96875,-0.609375 c 0,-0.3125 0.0625,-0.8125 0.109375,-1.140625 0.015625,-0.140625 0.03125,-0.328125 0.03125,-0.46875 0,-0.765625 -0.671875,-1.078125 -0.9375,-1.171875 z m 0,0"
               style="stroke:none" />
          </g>
        </g>
      </g>
    </g>
    <g
       transform="matrix(1.05833,0,0,1.05833,86.618249,37.551839)"
       ns21:version="1.0.1"
       ns21:texconverter="pdflatex"
       ns21:pdfconverter="inkscape"
       ns21:text="$\\mathbf{G}$"
       ns21:preamble="C:\\Users\\claum\\AppData\\Roaming\\inkscape\\extensions\\textext\\default_packages.tex"
       ns21:scale="3.0"
       ns21:alignment="middle center"
       ns21:inkscapeversion="1.0"
       ns21:jacobian_sqrt="1.05833"
       id="g6577">
      <defs
         id="id-de218fde-d3b0-435d-aecf-4bebfad99a95">
        <g
           id="id-8498beed-e238-432c-89e5-23339b3de96a">
          <symbol
             id="id-767ba72b-d3b6-4cf2-a427-8c0b70430226"
             overflow="visible">
            <path
               id="id-fb0e6928-a1b7-48f4-99e5-cb61d2399132"
               d=""
               style="stroke:none" />
          </symbol>
          <symbol
             id="id-7a4468c8-44c7-4421-bb6b-0fe91994e7a3"
             overflow="visible">
            <path
               id="id-691671e9-08f5-4e06-909d-d1b784e93a4f"
               d="M 6.515625,-0.53125 C 6.8125,-0.265625 7.421875,0 7.484375,0 7.625,0 7.625,-0.125 7.625,-0.28125 v -2 H 8.421875 V -2.75 c -0.34375,0.03125 -1.21875,0.03125 -1.609375,0.03125 -0.578125,0 -1.5,0 -2.03125,-0.03125 v 0.46875 h 1.421875 v 1 c 0,0.1875 0,0.484375 -0.375,0.71875 C 5.5625,-0.421875 5.25,-0.359375 4.921875,-0.359375 c -0.859375,0 -1.71875,-0.28125 -2.203125,-0.90625 -0.421875,-0.546875 -0.5625,-1.25 -0.5625,-2.15625 0,-1.125 0.203125,-1.703125 0.578125,-2.1875 0.390625,-0.5 1.15625,-0.875 2.125,-0.875 1.0625,0 2.015625,0.765625 2.234375,2.03125 C 7.125,-4.265625 7.125,-4.25 7.359375,-4.25 c 0.25,0 0.265625,-0.015625 0.265625,-0.28125 v -2.140625 c 0,-0.1875 0,-0.28125 -0.171875,-0.28125 -0.09375,0 -0.109375,0.03125 -0.203125,0.09375 l -0.65625,0.59375 c -0.71875,-0.578125 -1.4375,-0.6875 -1.953125,-0.6875 -2.453125,0 -4,1.46875 -4,3.53125 0,1.984375 1.4375,3.53125 4.015625,3.53125 0.328125,0 1.359375,-0.015625 1.859375,-0.640625 z m 0,0"
               style="stroke:none" />
          </symbol>
        </g>
      </defs>
      <g
         transform="translate(-149.353,-127.812)"
         id="id-fcb38b43-b7a4-44df-a321-617d65bf92c4">
        <g
           id="id-1e1d2956-cea8-408d-9be5-29d9d4bd9624"
           style="fill:#000000;fill-opacity:1">
          <g
             transform="translate(148.712,134.765)"
             id="g6573">
            <path
               id="id-11865346-7cd4-419e-ad69-8d45dba3aca8"
               d="M 6.515625,-0.53125 C 6.8125,-0.265625 7.421875,0 7.484375,0 7.625,0 7.625,-0.125 7.625,-0.28125 v -2 H 8.421875 V -2.75 c -0.34375,0.03125 -1.21875,0.03125 -1.609375,0.03125 -0.578125,0 -1.5,0 -2.03125,-0.03125 v 0.46875 h 1.421875 v 1 c 0,0.1875 0,0.484375 -0.375,0.71875 C 5.5625,-0.421875 5.25,-0.359375 4.921875,-0.359375 c -0.859375,0 -1.71875,-0.28125 -2.203125,-0.90625 -0.421875,-0.546875 -0.5625,-1.25 -0.5625,-2.15625 0,-1.125 0.203125,-1.703125 0.578125,-2.1875 0.390625,-0.5 1.15625,-0.875 2.125,-0.875 1.0625,0 2.015625,0.765625 2.234375,2.03125 C 7.125,-4.265625 7.125,-4.25 7.359375,-4.25 c 0.25,0 0.265625,-0.015625 0.265625,-0.28125 v -2.140625 c 0,-0.1875 0,-0.28125 -0.171875,-0.28125 -0.09375,0 -0.109375,0.03125 -0.203125,0.09375 l -0.65625,0.59375 c -0.71875,-0.578125 -1.4375,-0.6875 -1.953125,-0.6875 -2.453125,0 -4,1.46875 -4,3.53125 0,1.984375 1.4375,3.53125 4.015625,3.53125 0.328125,0 1.359375,-0.015625 1.859375,-0.640625 z m 0,0"
               style="stroke:none" />
          </g>
        </g>
      </g>
    </g>
    <path
       transform="scale(0.26458333)"
       id="path6593"
       d="m 114.99377,269.26336 c 1.55649,-32.45449 11.16278,-67.70617 26.36137,-96.73686 35.28172,-67.39128 97.59862,-109.614625 169.0626,-114.549797 l 10.25,-0.707846 v 54.128823 c 0,48.15541 -0.17055,54.12882 -1.54545,54.12882 -2.41201,0 -6.45455,4.63938 -6.45455,7.40749 0,3.95642 2.01763,7.35717 5.12972,8.64624 l 2.87028,1.18891 v 49.87868 49.87868 H 217.51271 114.35768 Z"
       style="opacity:0.0550724;fill:#000000;fill-opacity:1;stroke:#000000;stroke-width:0.986457;stroke-miterlimit:4;stroke-dasharray:none" />
    <path
       transform="scale(0.26458333)"
       id="path6603"
       d="m 322.17406,232.7765 0.006,-49.75 3.00272,-1.70868 c 3.39139,-1.92985 5.3496,-6.01694 4.39517,-9.1734 -0.83116,-2.74879 -4.38863,-6.61792 -6.08484,-6.61792 -1.08459,0 -1.32569,-9.84258 -1.32569,-54.11892 V 57.288661 l 9.75,0.70512 c 44.43116,3.213265 83.83234,19.575085 117.95538,48.982399 36.77834,31.69567 63.18787,77.93579 73.22958,128.21681 2.86359,14.33857 5.05456,32.77131 5.06162,42.58351 l 0.003,4.75 h -103 -103 z m 28.99368,-63.38021 c 0.825,-0.0959 2.175,0.007 3,0.22795 1.12979,0.30298 1.57589,-0.64667 1.8075,-3.84774 0.20937,-2.89371 0.76784,-4.25 1.75,-4.25 0.79337,0 1.4425,-0.675 1.4425,-1.5 0,-1.20833 -1.55556,-1.5 -8,-1.5 -6.44444,0 -8,0.29167 -8,1.5 0,1.00722 1.00738,1.5 3.06642,1.5 2.75523,0 3.03431,0.27908 2.75,2.75 -0.28339,2.46291 -0.76204,2.7822 -4.58494,3.0584 -3.62204,0.2617 -4.72007,-0.14315 -7.25,-2.67307 -2.60552,-2.60553 -2.98148,-3.69442 -2.98148,-8.63533 0,-4.91566 0.38165,-6.0355 2.92308,-8.57692 4.98082,-4.98082 12.02969,-3.67371 14.70392,2.72663 2.07483,4.96577 3.8186,3.72103 4.1729,-2.97871 0.30208,-5.71212 -0.83107,-7.23983 -3.43706,-4.63384 -0.71621,0.71621 -1.88131,0.71621 -3.7651,0 -10.10276,-3.84106 -21.59774,2.8855 -21.59774,12.63844 0,6.47306 2.38759,10.80412 7.3341,13.30393 4.02802,2.03565 5.93333,2.13742 16.6659,0.89026 z"
       style="opacity:0.055;fill:#000000;fill-opacity:1;stroke:#000000;stroke-width:0.986457;stroke-miterlimit:4;stroke-dasharray:none" />
  </g>
</svg>
