<?xml version="1.0" encoding="UTF-8" standalone="no"?>
<svg
   xmlns:ns21="http://www.iki.fi/pav/software/textext/"
   xmlns:dc="http://purl.org/dc/elements/1.1/"
   xmlns:cc="http://creativecommons.org/ns#"
   xmlns:rdf="http://www.w3.org/1999/02/22-rdf-syntax-ns#"
   xmlns:svg="http://www.w3.org/2000/svg"
   xmlns="http://www.w3.org/2000/svg"
   xmlns:sodipodi="http://sodipodi.sourceforge.net/DTD/sodipodi-0.dtd"
   xmlns:inkscape="http://www.inkscape.org/namespaces/inkscape"
   sodipodi:docname="Figura1_5.svg"
   inkscape:version="1.0 (4035a4fb49, 2020-05-01)"
   id="svg945"
   version="1.1"
   viewBox="0 0 135 100"
   height="10cm"
   width="13.5cm">
  <defs
     id="defs939">
    <marker
       inkscape:isstock="true"
       style="overflow:visible"
       id="marker2066"
       refX="0"
       refY="0"
       orient="auto"
       inkscape:stockid="Arrow1Lend">
      <path
         transform="matrix(-0.8,0,0,-0.8,-10,0)"
         style="fill:#000000;fill-opacity:1;fill-rule:evenodd;stroke:#000000;stroke-width:1pt;stroke-opacity:1"
         d="M 0,0 5,-5 -12.5,0 5,5 Z"
         id="path2064" />
    </marker>
    <marker
       inkscape:stockid="Arrow1Lend"
       orient="auto"
       refY="0"
       refX="0"
       id="Arrow1Lend"
       style="overflow:visible"
       inkscape:isstock="true"
       inkscape:collect="always">
      <path
         id="path1777"
         d="M 0,0 5,-5 -12.5,0 5,5 Z"
         style="fill:#000000;fill-opacity:1;fill-rule:evenodd;stroke:#000000;stroke-width:1pt;stroke-opacity:1"
         transform="matrix(-0.8,0,0,-0.8,-10,0)" />
    </marker>
  </defs>
  <sodipodi:namedview
     units="cm"
     id="base"
     pagecolor="#ffffff"
     bordercolor="#666666"
     borderopacity="1.0"
     inkscape:pageopacity="0.0"
     inkscape:pageshadow="2"
     inkscape:zoom="1.4"
     inkscape:cx="158.06018"
     inkscape:cy="192.74229"
     inkscape:document-units="mm"
     inkscape:current-layer="layer1"
     inkscape:document-rotation="0"
     showgrid="true"
     inkscape:window-width="1350"
     inkscape:window-height="729"
     inkscape:window-x="0"
     inkscape:window-y="0"
     inkscape:window-maximized="0">
    <inkscape:grid
       type="xygrid"
       id="grid947" />
  </sodipodi:namedview>
  <metadata
     id="metadata942">
    <rdf:RDF>
      <cc:Work
         rdf:about="">
        <dc:format>image/svg+xml</dc:format>
        <dc:type
           rdf:resource="http://purl.org/dc/dcmitype/StillImage" />
        <dc:title></dc:title>
      </cc:Work>
    </rdf:RDF>
  </metadata>
  <g
     inkscape:label="Livello 1"
     inkscape:groupmode="layer"
     id="layer1">
    <g
       transform="translate(-45,-4)"
       id="g2315">
      <g
         transform="translate(0,-5)"
         id="g2130">
        <path
           style="fill:none;stroke:#000000;stroke-width:0.265;stroke-linecap:butt;stroke-linejoin:miter;stroke-miterlimit:4;stroke-dasharray:none;stroke-opacity:1;marker-end:url(#Arrow1Lend)"
           d="M 95,100 V 10"
           id="path949" />
        <path
           style="fill:none;stroke:#000000;stroke-width:0.264583px;stroke-linecap:butt;stroke-linejoin:miter;stroke-opacity:1;marker-end:url(#marker2066)"
           d="M 45,65 H 175"
           id="path2062" />
        <path
           style="fill:none;stroke:#000000;stroke-width:0.264583px;stroke-linecap:butt;stroke-linejoin:miter;stroke-opacity:1"
           d="M 94.999999,105 C 88.179644,104.16038 81.284398,102.78003 75,100 69.504452,97.568935 63.976937,94.505005 59.999998,89.999999 57.533606,87.206113 54.52851,84.13514 52.861844,80.801807 51.195178,77.468473 50.264188,73.717403 50,69.999999 c -0.373618,-5.257203 1.996986,-11.069077 3.663652,-16.069077 1.666667,-5 2.88313,-9.949331 6.336346,-13.930923 C 62.441791,37.184588 70,30 70,30 c 0,0 2.364769,-2.364769 5,-5 2.635231,-2.635231 6.372914,-4.143761 9.999998,-5 4.866246,-1.148765 10.064564,-0.800911 15.000002,0 5.20241,0.844235 15,5 15,5 0,0 7.20611,2.533608 10,5 4.50501,3.976938 6.9838,9.802536 10,14.999999 1.87057,3.22333 4.14376,6.372916 5,10.000001 0.76584,3.244163 0.53394,6.709708 0,9.999999 -0.84423,5.202407 -2.98308,10.130727 -5,14.999999 -1.42618,3.443096 -2.18459,7.558208 -5,10.000001 -3.98159,3.453216 -6.7421,3.41767 -10.72369,6.870887 C 116.4609,99.312679 113.17019,103.04072 110,105 c -4.25325,2.62866 -10.037463,0.61092 -15.000001,0 z"
           id="path2104"
           sodipodi:nodetypes="ssssssscssscsssssssss" />
        <circle
           style="opacity:0.74212;fill:#4d4d4d;stroke:#6a6a6a;stroke-width:0.264999;stroke-miterlimit:4;stroke-dasharray:none"
           id="path2106"
           cx="115"
           cy="49"
           r="2.5" />
        <path
           style="fill:none;stroke:#000000;stroke-width:0.264583px;stroke-linecap:butt;stroke-linejoin:miter;stroke-opacity:1"
           d="M 115,51.6 V 64.999999"
           id="path2108"
           sodipodi:nodetypes="cc" />
        <path
           style="fill:none;stroke:#000000;stroke-width:0.264583px;stroke-linecap:butt;stroke-linejoin:miter;stroke-opacity:1"
           d="M 94.999999,48.999999 H 112.4"
           id="path2110"
           sodipodi:nodetypes="cc" />
      </g>
      <g
         id="g2352"
         ns21:jacobian_sqrt="0.529167"
         ns21:alignment="middle center"
         ns21:scale="1.5"
         ns21:preamble="C:\\Users\\claum\\AppData\\Roaming\\inkscape\\extensions\\textext\\default_packages.tex"
         ns21:text="$x$"
         ns21:pdfconverter="inkscape"
         ns21:texconverter="pdflatex"
         ns21:version="1.0.1"
         transform="matrix(0.529167,0,0,0.529167,173.39603,61.264259)">
        <defs
           id="defs2342">
          <g
             id="g2340">
            <symbol
               overflow="visible"
               id="symbol2334">
              <path
                 style="stroke:none"
                 d=""
                 id="path2332" />
            </symbol>
            <symbol
               overflow="visible"
               id="symbol2338">
              <path
                 style="stroke:none"
                 d="M 3.328125,-3.015625 C 3.390625,-3.265625 3.625,-4.1875 4.3125,-4.1875 c 0.046875,0 0.296875,0 0.5,0.125 C 4.53125,-4 4.34375,-3.765625 4.34375,-3.515625 c 0,0.15625 0.109375,0.34375 0.375,0.34375 0.21875,0 0.53125,-0.171875 0.53125,-0.578125 0,-0.515625 -0.578125,-0.65625 -0.921875,-0.65625 -0.578125,0 -0.921875,0.53125 -1.046875,0.75 -0.25,-0.65625 -0.78125,-0.75 -1.078125,-0.75 -1.03125,0 -1.609375,1.28125 -1.609375,1.53125 0,0.109375 0.109375,0.109375 0.125,0.109375 0.078125,0 0.109375,-0.03125 0.125,-0.109375 0.34375,-1.0625 1,-1.3125 1.34375,-1.3125 0.1875,0 0.53125,0.09375 0.53125,0.671875 0,0.3125 -0.171875,0.96875 -0.53125,2.375 -0.15625,0.609375 -0.515625,1.03125 -0.953125,1.03125 -0.0625,0 -0.28125,0 -0.5,-0.125 0.25,-0.0625 0.46875,-0.265625 0.46875,-0.546875 0,-0.265625 -0.21875,-0.34375 -0.359375,-0.34375 -0.3125,0 -0.546875,0.25 -0.546875,0.578125 0,0.453125 0.484375,0.65625 0.921875,0.65625 0.671875,0 1.03125,-0.703125 1.046875,-0.75 0.125,0.359375 0.484375,0.75 1.078125,0.75 1.03125,0 1.59375,-1.28125 1.59375,-1.53125 0,-0.109375 -0.078125,-0.109375 -0.109375,-0.109375 -0.09375,0 -0.109375,0.046875 -0.140625,0.109375 -0.328125,1.078125 -1,1.3125 -1.3125,1.3125 -0.390625,0 -0.546875,-0.3125 -0.546875,-0.65625 0,-0.21875 0.046875,-0.4375 0.15625,-0.875 z m 0,0"
                 id="path2336" />
            </symbol>
          </g>
        </defs>
        <g
           id="g2350"
           transform="translate(-149.009,-130.359)">
          <g
             style="fill:#000000;fill-opacity:1"
             id="g2348">
            <g
               id="g2346"
               transform="translate(148.712,134.765)">
              <path
                 style="stroke:none"
                 d="M 3.328125,-3.015625 C 3.390625,-3.265625 3.625,-4.1875 4.3125,-4.1875 c 0.046875,0 0.296875,0 0.5,0.125 C 4.53125,-4 4.34375,-3.765625 4.34375,-3.515625 c 0,0.15625 0.109375,0.34375 0.375,0.34375 0.21875,0 0.53125,-0.171875 0.53125,-0.578125 0,-0.515625 -0.578125,-0.65625 -0.921875,-0.65625 -0.578125,0 -0.921875,0.53125 -1.046875,0.75 -0.25,-0.65625 -0.78125,-0.75 -1.078125,-0.75 -1.03125,0 -1.609375,1.28125 -1.609375,1.53125 0,0.109375 0.109375,0.109375 0.125,0.109375 0.078125,0 0.109375,-0.03125 0.125,-0.109375 0.34375,-1.0625 1,-1.3125 1.34375,-1.3125 0.1875,0 0.53125,0.09375 0.53125,0.671875 0,0.3125 -0.171875,0.96875 -0.53125,2.375 -0.15625,0.609375 -0.515625,1.03125 -0.953125,1.03125 -0.0625,0 -0.28125,0 -0.5,-0.125 0.25,-0.0625 0.46875,-0.265625 0.46875,-0.546875 0,-0.265625 -0.21875,-0.34375 -0.359375,-0.34375 -0.3125,0 -0.546875,0.25 -0.546875,0.578125 0,0.453125 0.484375,0.65625 0.921875,0.65625 0.671875,0 1.03125,-0.703125 1.046875,-0.75 0.125,0.359375 0.484375,0.75 1.078125,0.75 1.03125,0 1.59375,-1.28125 1.59375,-1.53125 0,-0.109375 -0.078125,-0.109375 -0.109375,-0.109375 -0.09375,0 -0.109375,0.046875 -0.140625,0.109375 -0.328125,1.078125 -1,1.3125 -1.3125,1.3125 -0.390625,0 -0.546875,-0.3125 -0.546875,-0.65625 0,-0.21875 0.046875,-0.4375 0.15625,-0.875 z m 0,0"
                 id="path2344" />
            </g>
          </g>
        </g>
      </g>
      <g
         id="g2374"
         ns21:jacobian_sqrt="0.529167"
         ns21:alignment="middle center"
         ns21:scale="1.5"
         ns21:preamble="C:\\Users\\claum\\AppData\\Roaming\\inkscape\\extensions\\textext\\default_packages.tex"
         ns21:text="$y$"
         ns21:pdfconverter="inkscape"
         ns21:texconverter="pdflatex"
         ns21:version="1.0.1"
         transform="matrix(0.529167,0,0,0.529167,90.982617,4.5453794)">
        <defs
           id="defs2364">
          <g
             id="g2362">
            <symbol
               overflow="visible"
               id="symbol2356">
              <path
                 style="stroke:none"
                 d=""
                 id="path2354" />
            </symbol>
            <symbol
               overflow="visible"
               id="symbol2360">
              <path
                 style="stroke:none"
                 d="m 4.84375,-3.796875 c 0.046875,-0.140625 0.046875,-0.15625 0.046875,-0.234375 0,-0.171875 -0.140625,-0.265625 -0.296875,-0.265625 -0.09375,0 -0.25,0.0625 -0.34375,0.203125 -0.015625,0.0625 -0.109375,0.359375 -0.140625,0.546875 -0.078125,0.25 -0.140625,0.53125 -0.203125,0.796875 l -0.453125,1.796875 c -0.03125,0.140625 -0.46875,0.84375 -1.125,0.84375 -0.5,0 -0.609375,-0.4375 -0.609375,-0.8125 C 1.71875,-1.375 1.890625,-2 2.21875,-2.875 2.375,-3.28125 2.421875,-3.390625 2.421875,-3.59375 c 0,-0.4375 -0.3125,-0.8125 -0.8125,-0.8125 -0.953125,0 -1.3125,1.453125 -1.3125,1.53125 0,0.109375 0.09375,0.109375 0.109375,0.109375 0.109375,0 0.109375,-0.03125 0.15625,-0.1875 0.28125,-0.9375 0.671875,-1.234375 1.015625,-1.234375 0.078125,0 0.25,0 0.25,0.3125 0,0.25 -0.109375,0.515625 -0.171875,0.703125 -0.40625,1.0625 -0.578125,1.625 -0.578125,2.09375 0,0.890625 0.625,1.1875 1.21875,1.1875 0.390625,0 0.71875,-0.171875 1,-0.453125 -0.125,0.515625 -0.25,1.015625 -0.640625,1.546875 -0.265625,0.328125 -0.640625,0.625 -1.09375,0.625 -0.140625,0 -0.59375,-0.03125 -0.765625,-0.421875 0.15625,0 0.296875,0 0.421875,-0.125 C 1.328125,1.203125 1.421875,1.0625 1.421875,0.875 1.421875,0.5625 1.15625,0.53125 1.0625,0.53125 0.828125,0.53125 0.5,0.6875 0.5,1.171875 c 0,0.5 0.4375,0.875 1.0625,0.875 1.015625,0 2.046875,-0.90625 2.328125,-2.03125 z m 0,0"
                 id="path2358" />
            </symbol>
          </g>
        </defs>
        <g
           id="g2372"
           transform="translate(-149.009,-130.359)">
          <g
             style="fill:#000000;fill-opacity:1"
             id="g2370">
            <g
               id="g2368"
               transform="translate(148.712,134.765)">
              <path
                 style="stroke:none"
                 d="m 4.84375,-3.796875 c 0.046875,-0.140625 0.046875,-0.15625 0.046875,-0.234375 0,-0.171875 -0.140625,-0.265625 -0.296875,-0.265625 -0.09375,0 -0.25,0.0625 -0.34375,0.203125 -0.015625,0.0625 -0.109375,0.359375 -0.140625,0.546875 -0.078125,0.25 -0.140625,0.53125 -0.203125,0.796875 l -0.453125,1.796875 c -0.03125,0.140625 -0.46875,0.84375 -1.125,0.84375 -0.5,0 -0.609375,-0.4375 -0.609375,-0.8125 C 1.71875,-1.375 1.890625,-2 2.21875,-2.875 2.375,-3.28125 2.421875,-3.390625 2.421875,-3.59375 c 0,-0.4375 -0.3125,-0.8125 -0.8125,-0.8125 -0.953125,0 -1.3125,1.453125 -1.3125,1.53125 0,0.109375 0.09375,0.109375 0.109375,0.109375 0.109375,0 0.109375,-0.03125 0.15625,-0.1875 0.28125,-0.9375 0.671875,-1.234375 1.015625,-1.234375 0.078125,0 0.25,0 0.25,0.3125 0,0.25 -0.109375,0.515625 -0.171875,0.703125 -0.40625,1.0625 -0.578125,1.625 -0.578125,2.09375 0,0.890625 0.625,1.1875 1.21875,1.1875 0.390625,0 0.71875,-0.171875 1,-0.453125 -0.125,0.515625 -0.25,1.015625 -0.640625,1.546875 -0.265625,0.328125 -0.640625,0.625 -1.09375,0.625 -0.140625,0 -0.59375,-0.03125 -0.765625,-0.421875 0.15625,0 0.296875,0 0.421875,-0.125 C 1.328125,1.203125 1.421875,1.0625 1.421875,0.875 1.421875,0.5625 1.15625,0.53125 1.0625,0.53125 0.828125,0.53125 0.5,0.6875 0.5,1.171875 c 0,0.5 0.4375,0.875 1.0625,0.875 1.015625,0 2.046875,-0.90625 2.328125,-2.03125 z m 0,0"
                 id="path2366" />
            </g>
          </g>
        </g>
      </g>
      <g
         transform="matrix(0.529167,0,0,0.529167,90.065432,60.486067)"
         ns21:version="1.0.1"
         ns21:texconverter="pdflatex"
         ns21:pdfconverter="inkscape"
         ns21:text="$\\mathbf{O}$"
         ns21:preamble="C:\\Users\\claum\\AppData\\Roaming\\inkscape\\extensions\\textext\\default_packages.tex"
         ns21:scale="1.5"
         ns21:alignment="middle center"
         ns21:jacobian_sqrt="0.529167"
         id="g2461">
        <defs
           id="id-6e3644cf-82b2-4d6b-99ca-2d2c644eea87">
          <g
             id="id-8c700be1-f7fc-4c66-8269-c7efbe10ed1e">
            <symbol
               id="id-9eb48904-e898-4cd7-abe6-865e5162a6c3"
               overflow="visible">
              <path
                 id="id-311aa700-05dc-4d47-aa5c-1401de5c8351"
                 d=""
                 style="stroke:none" />
            </symbol>
            <symbol
               id="id-232e5f99-b45d-4f96-8245-51f0e0ef3d6b"
               overflow="visible">
              <path
                 id="id-2648a397-2e10-4c30-b714-75b2ede5aa1b"
                 d="m 7.96875,-3.375 c 0,-2.15625 -1.453125,-3.578125 -3.65625,-3.578125 -2.28125,0 -3.671875,1.484375 -3.671875,3.578125 0,2.0625 1.390625,3.484375 3.65625,3.484375 2.296875,0 3.671875,-1.4375 3.671875,-3.484375 z m -3.671875,3.0625 c -0.59375,0 -1.3125,-0.28125 -1.71875,-1.03125 C 2.25,-1.96875 2.15625,-2.671875 2.15625,-3.53125 c 0,-0.640625 0.03125,-1.484375 0.46875,-2.15625 0.421875,-0.609375 1.078125,-0.859375 1.671875,-0.859375 0.640625,0 1.328125,0.28125 1.71875,0.9375 0.390625,0.640625 0.421875,1.40625 0.421875,2.078125 0,0.703125 -0.03125,1.59375 -0.453125,2.28125 -0.453125,0.71875 -1.15625,0.9375 -1.6875,0.9375 z m 0,0"
                 style="stroke:none" />
            </symbol>
          </g>
        </defs>
        <g
           transform="translate(-149.353,-127.812)"
           id="id-b23644a9-276e-40de-b083-0d1f665ae398">
          <g
             id="id-4690c6c6-5e88-4d2d-8d88-fa3fd77330a1"
             style="fill:#000000;fill-opacity:1">
            <g
               transform="translate(148.712,134.765)"
               id="g2457">
              <path
                 id="id-cfaf3727-3427-4beb-9dee-7c7e66743841"
                 d="m 7.96875,-3.375 c 0,-2.15625 -1.453125,-3.578125 -3.65625,-3.578125 -2.28125,0 -3.671875,1.484375 -3.671875,3.578125 0,2.0625 1.390625,3.484375 3.65625,3.484375 2.296875,0 3.671875,-1.4375 3.671875,-3.484375 z m -3.671875,3.0625 c -0.59375,0 -1.3125,-0.28125 -1.71875,-1.03125 C 2.25,-1.96875 2.15625,-2.671875 2.15625,-3.53125 c 0,-0.640625 0.03125,-1.484375 0.46875,-2.15625 0.421875,-0.609375 1.078125,-0.859375 1.671875,-0.859375 0.640625,0 1.328125,0.28125 1.71875,0.9375 0.390625,0.640625 0.421875,1.40625 0.421875,2.078125 0,0.703125 -0.03125,1.59375 -0.453125,2.28125 -0.453125,0.71875 -1.15625,0.9375 -1.6875,0.9375 z m 0,0"
                 style="stroke:none" />
            </g>
          </g>
        </g>
      </g>
      <g
         transform="matrix(0.529167,0,0,0.529167,101.724,39.8606)"
         ns21:version="1.0.1"
         ns21:texconverter="pdflatex"
         ns21:pdfconverter="inkscape"
         ns21:text="$x_G$"
         ns21:preamble="C:\\Users\\claum\\AppData\\Roaming\\inkscape\\extensions\\textext\\default_packages.tex"
         ns21:scale="1.5"
         ns21:alignment="middle center"
         ns21:inkscapeversion="1.0"
         ns21:jacobian_sqrt="0.529167"
         id="g2570">
        <defs
           id="id-9ac50e9e-067a-4591-8d1c-0bcc88924b5d">
          <g
             id="id-131962c7-def5-4d33-8abb-7b3e49990e39">
            <symbol
               id="id-e256be71-de5d-4aaa-80db-f03c21c96f2b"
               overflow="visible">
              <path
                 id="id-cb723a0f-39e7-4672-882d-d5ec1fa973dd"
                 d=""
                 style="stroke:none" />
            </symbol>
            <symbol
               id="id-dee8f771-c280-46b2-a89a-18f20cb8c88d"
               overflow="visible">
              <path
                 id="id-cd122c5c-5414-4bd0-88b0-df20b350564c"
                 d="M 3.328125,-3.015625 C 3.390625,-3.265625 3.625,-4.1875 4.3125,-4.1875 c 0.046875,0 0.296875,0 0.5,0.125 C 4.53125,-4 4.34375,-3.765625 4.34375,-3.515625 c 0,0.15625 0.109375,0.34375 0.375,0.34375 0.21875,0 0.53125,-0.171875 0.53125,-0.578125 0,-0.515625 -0.578125,-0.65625 -0.921875,-0.65625 -0.578125,0 -0.921875,0.53125 -1.046875,0.75 -0.25,-0.65625 -0.78125,-0.75 -1.078125,-0.75 -1.03125,0 -1.609375,1.28125 -1.609375,1.53125 0,0.109375 0.109375,0.109375 0.125,0.109375 0.078125,0 0.109375,-0.03125 0.125,-0.109375 0.34375,-1.0625 1,-1.3125 1.34375,-1.3125 0.1875,0 0.53125,0.09375 0.53125,0.671875 0,0.3125 -0.171875,0.96875 -0.53125,2.375 -0.15625,0.609375 -0.515625,1.03125 -0.953125,1.03125 -0.0625,0 -0.28125,0 -0.5,-0.125 0.25,-0.0625 0.46875,-0.265625 0.46875,-0.546875 0,-0.265625 -0.21875,-0.34375 -0.359375,-0.34375 -0.3125,0 -0.546875,0.25 -0.546875,0.578125 0,0.453125 0.484375,0.65625 0.921875,0.65625 0.671875,0 1.03125,-0.703125 1.046875,-0.75 0.125,0.359375 0.484375,0.75 1.078125,0.75 1.03125,0 1.59375,-1.28125 1.59375,-1.53125 0,-0.109375 -0.078125,-0.109375 -0.109375,-0.109375 -0.09375,0 -0.109375,0.046875 -0.140625,0.109375 -0.328125,1.078125 -1,1.3125 -1.3125,1.3125 -0.390625,0 -0.546875,-0.3125 -0.546875,-0.65625 0,-0.21875 0.046875,-0.4375 0.15625,-0.875 z m 0,0"
                 style="stroke:none" />
            </symbol>
            <symbol
               id="id-77696a06-5c38-4aba-b7fa-b3fc78197abd"
               overflow="visible">
              <path
                 id="id-6bb4837d-e7eb-4e6f-a546-73a0d1724d06"
                 d=""
                 style="stroke:none" />
            </symbol>
            <symbol
               id="id-7bc0d40a-733a-4278-a9d9-93c480005d05"
               overflow="visible">
              <path
                 id="id-2f52877c-7903-4f57-91bb-31f1443e31c3"
                 d="m 5.875,-4.8125 c 0,-0.03125 -0.015625,-0.09375 -0.09375,-0.09375 -0.046875,0 -0.0625,0.015625 -0.125,0.09375 l -0.5,0.53125 c -0.0625,-0.078125 -0.453125,-0.625 -1.3125,-0.625 -1.703125,0 -3.359375,1.5 -3.359375,3.078125 0,1.078125 0.828125,1.96875 2.15625,1.96875 0.625,0 1.265625,-0.15625 1.625,-0.546875 C 4.34375,-0.265625 4.53125,0 4.609375,0 4.671875,0 4.6875,-0.03125 4.71875,-0.1875 l 0.140625,-0.53125 c 0.03125,-0.125 0.125,-0.546875 0.15625,-0.625 0.078125,-0.3125 0.078125,-0.328125 0.5,-0.328125 0.046875,0 0.15625,0 0.15625,-0.140625 0,-0.078125 -0.0625,-0.109375 -0.109375,-0.109375 -0.234375,0 -0.53125,0.03125 -0.765625,0.03125 -0.171875,0 -0.40625,0 -0.578125,-0.015625 -0.171875,0 -0.375,-0.015625 -0.546875,-0.015625 -0.0625,0 -0.15625,0 -0.15625,0.15625 0,0.09375 0.078125,0.09375 0.25,0.09375 0.125,0 0.265625,0 0.40625,0.015625 0.21875,0.015625 0.21875,0.046875 0.21875,0.125 0,0.03125 0,0.046875 -0.046875,0.234375 -0.046875,0.1875 -0.125,0.5 -0.15625,0.578125 C 4,-0.296875 3.34375,-0.109375 2.796875,-0.109375 c -0.6875,0 -1.609375,-0.34375 -1.609375,-1.515625 0,-0.75 0.359375,-1.671875 0.875,-2.203125 0.71875,-0.703125 1.453125,-0.8125 1.84375,-0.8125 0.8125,0 1.28125,0.578125 1.28125,1.359375 0,0.1875 -0.015625,0.25 -0.015625,0.28125 0,0.09375 0.09375,0.09375 0.125,0.09375 0.109375,0 0.109375,-0.015625 0.140625,-0.15625 z m 0,0"
                 style="stroke:none" />
            </symbol>
          </g>
        </defs>
        <g
           transform="translate(-149.009,-130.359)"
           id="id-257c8a6f-3036-439b-b95b-7fe6731f3ff7">
          <g
             id="id-f13bdf7b-6b29-4226-80b7-4b1626258274"
             style="fill:#000000;fill-opacity:1">
            <g
               transform="translate(148.712,134.765)"
               id="g2562">
              <path
                 id="id-8e3bbe6f-23de-47fe-b05f-a0084df9bcd2"
                 d="M 3.328125,-3.015625 C 3.390625,-3.265625 3.625,-4.1875 4.3125,-4.1875 c 0.046875,0 0.296875,0 0.5,0.125 C 4.53125,-4 4.34375,-3.765625 4.34375,-3.515625 c 0,0.15625 0.109375,0.34375 0.375,0.34375 0.21875,0 0.53125,-0.171875 0.53125,-0.578125 0,-0.515625 -0.578125,-0.65625 -0.921875,-0.65625 -0.578125,0 -0.921875,0.53125 -1.046875,0.75 -0.25,-0.65625 -0.78125,-0.75 -1.078125,-0.75 -1.03125,0 -1.609375,1.28125 -1.609375,1.53125 0,0.109375 0.109375,0.109375 0.125,0.109375 0.078125,0 0.109375,-0.03125 0.125,-0.109375 0.34375,-1.0625 1,-1.3125 1.34375,-1.3125 0.1875,0 0.53125,0.09375 0.53125,0.671875 0,0.3125 -0.171875,0.96875 -0.53125,2.375 -0.15625,0.609375 -0.515625,1.03125 -0.953125,1.03125 -0.0625,0 -0.28125,0 -0.5,-0.125 0.25,-0.0625 0.46875,-0.265625 0.46875,-0.546875 0,-0.265625 -0.21875,-0.34375 -0.359375,-0.34375 -0.3125,0 -0.546875,0.25 -0.546875,0.578125 0,0.453125 0.484375,0.65625 0.921875,0.65625 0.671875,0 1.03125,-0.703125 1.046875,-0.75 0.125,0.359375 0.484375,0.75 1.078125,0.75 1.03125,0 1.59375,-1.28125 1.59375,-1.53125 0,-0.109375 -0.078125,-0.109375 -0.109375,-0.109375 -0.09375,0 -0.109375,0.046875 -0.140625,0.109375 -0.328125,1.078125 -1,1.3125 -1.3125,1.3125 -0.390625,0 -0.546875,-0.3125 -0.546875,-0.65625 0,-0.21875 0.046875,-0.4375 0.15625,-0.875 z m 0,0"
                 style="stroke:none" />
            </g>
          </g>
          <g
             id="id-5a408362-0e8f-4b36-b306-be5ae92c1b46"
             style="fill:#000000;fill-opacity:1">
            <g
               transform="translate(154.406,136.259)"
               id="g2566">
              <path
                 id="id-1d5fff04-afd0-45c1-beff-ce90ecb12970"
                 d="m 5.875,-4.8125 c 0,-0.03125 -0.015625,-0.09375 -0.09375,-0.09375 -0.046875,0 -0.0625,0.015625 -0.125,0.09375 l -0.5,0.53125 c -0.0625,-0.078125 -0.453125,-0.625 -1.3125,-0.625 -1.703125,0 -3.359375,1.5 -3.359375,3.078125 0,1.078125 0.828125,1.96875 2.15625,1.96875 0.625,0 1.265625,-0.15625 1.625,-0.546875 C 4.34375,-0.265625 4.53125,0 4.609375,0 4.671875,0 4.6875,-0.03125 4.71875,-0.1875 l 0.140625,-0.53125 c 0.03125,-0.125 0.125,-0.546875 0.15625,-0.625 0.078125,-0.3125 0.078125,-0.328125 0.5,-0.328125 0.046875,0 0.15625,0 0.15625,-0.140625 0,-0.078125 -0.0625,-0.109375 -0.109375,-0.109375 -0.234375,0 -0.53125,0.03125 -0.765625,0.03125 -0.171875,0 -0.40625,0 -0.578125,-0.015625 -0.171875,0 -0.375,-0.015625 -0.546875,-0.015625 -0.0625,0 -0.15625,0 -0.15625,0.15625 0,0.09375 0.078125,0.09375 0.25,0.09375 0.125,0 0.265625,0 0.40625,0.015625 0.21875,0.015625 0.21875,0.046875 0.21875,0.125 0,0.03125 0,0.046875 -0.046875,0.234375 -0.046875,0.1875 -0.125,0.5 -0.15625,0.578125 C 4,-0.296875 3.34375,-0.109375 2.796875,-0.109375 c -0.6875,0 -1.609375,-0.34375 -1.609375,-1.515625 0,-0.75 0.359375,-1.671875 0.875,-2.203125 0.71875,-0.703125 1.453125,-0.8125 1.84375,-0.8125 0.8125,0 1.28125,0.578125 1.28125,1.359375 0,0.1875 -0.015625,0.25 -0.015625,0.28125 0,0.09375 0.09375,0.09375 0.125,0.09375 0.109375,0 0.109375,-0.015625 0.140625,-0.15625 z m 0,0"
                 style="stroke:none" />
            </g>
          </g>
        </g>
      </g>
      <g
         transform="matrix(0.529167,0,0,0.529167,115.98262,50.545379)"
         ns21:version="1.0.1"
         ns21:texconverter="pdflatex"
         ns21:pdfconverter="inkscape"
         ns21:text="$y_G$"
         ns21:preamble="C:\\Users\\claum\\AppData\\Roaming\\inkscape\\extensions\\textext\\default_packages.tex"
         ns21:scale="1.5"
         ns21:alignment="middle center"
         ns21:inkscapeversion="1.0"
         ns21:jacobian_sqrt="0.529167"
         id="g2693">
        <defs
           id="id-7c824552-422f-45a5-86a1-4fb68ae3a940">
          <g
             id="id-1a983d17-7ab2-44d7-bf69-8f4747c310fb">
            <symbol
               id="id-cb5d4b6d-915d-4216-a493-e6b49e779206"
               overflow="visible">
              <path
                 id="id-9d89e9bb-8bfd-4ff3-9f2c-17f96aef1257"
                 d=""
                 style="stroke:none" />
            </symbol>
            <symbol
               id="id-1c3540f9-6782-45ea-8096-6e95c865deed"
               overflow="visible">
              <path
                 id="id-668cdb47-25bd-438f-a514-5835a3bcb56f"
                 d="m 4.84375,-3.796875 c 0.046875,-0.140625 0.046875,-0.15625 0.046875,-0.234375 0,-0.171875 -0.140625,-0.265625 -0.296875,-0.265625 -0.09375,0 -0.25,0.0625 -0.34375,0.203125 -0.015625,0.0625 -0.109375,0.359375 -0.140625,0.546875 -0.078125,0.25 -0.140625,0.53125 -0.203125,0.796875 l -0.453125,1.796875 c -0.03125,0.140625 -0.46875,0.84375 -1.125,0.84375 -0.5,0 -0.609375,-0.4375 -0.609375,-0.8125 C 1.71875,-1.375 1.890625,-2 2.21875,-2.875 2.375,-3.28125 2.421875,-3.390625 2.421875,-3.59375 c 0,-0.4375 -0.3125,-0.8125 -0.8125,-0.8125 -0.953125,0 -1.3125,1.453125 -1.3125,1.53125 0,0.109375 0.09375,0.109375 0.109375,0.109375 0.109375,0 0.109375,-0.03125 0.15625,-0.1875 0.28125,-0.9375 0.671875,-1.234375 1.015625,-1.234375 0.078125,0 0.25,0 0.25,0.3125 0,0.25 -0.109375,0.515625 -0.171875,0.703125 -0.40625,1.0625 -0.578125,1.625 -0.578125,2.09375 0,0.890625 0.625,1.1875 1.21875,1.1875 0.390625,0 0.71875,-0.171875 1,-0.453125 -0.125,0.515625 -0.25,1.015625 -0.640625,1.546875 -0.265625,0.328125 -0.640625,0.625 -1.09375,0.625 -0.140625,0 -0.59375,-0.03125 -0.765625,-0.421875 0.15625,0 0.296875,0 0.421875,-0.125 C 1.328125,1.203125 1.421875,1.0625 1.421875,0.875 1.421875,0.5625 1.15625,0.53125 1.0625,0.53125 0.828125,0.53125 0.5,0.6875 0.5,1.171875 c 0,0.5 0.4375,0.875 1.0625,0.875 1.015625,0 2.046875,-0.90625 2.328125,-2.03125 z m 0,0"
                 style="stroke:none" />
            </symbol>
            <symbol
               id="id-d5bd82c6-92d1-49c7-bd47-7b591f4ffd8a"
               overflow="visible">
              <path
                 id="id-bc281ff2-b63c-447d-b9b0-a2725a5bde25"
                 d=""
                 style="stroke:none" />
            </symbol>
            <symbol
               id="id-d9e64ff4-11ca-4842-af2b-24ccab5ff743"
               overflow="visible">
              <path
                 id="id-f85f3064-35ea-4edf-add8-957d2087408c"
                 d="m 5.875,-4.8125 c 0,-0.03125 -0.015625,-0.09375 -0.09375,-0.09375 -0.046875,0 -0.0625,0.015625 -0.125,0.09375 l -0.5,0.53125 c -0.0625,-0.078125 -0.453125,-0.625 -1.3125,-0.625 -1.703125,0 -3.359375,1.5 -3.359375,3.078125 0,1.078125 0.828125,1.96875 2.15625,1.96875 0.625,0 1.265625,-0.15625 1.625,-0.546875 C 4.34375,-0.265625 4.53125,0 4.609375,0 4.671875,0 4.6875,-0.03125 4.71875,-0.1875 l 0.140625,-0.53125 c 0.03125,-0.125 0.125,-0.546875 0.15625,-0.625 0.078125,-0.3125 0.078125,-0.328125 0.5,-0.328125 0.046875,0 0.15625,0 0.15625,-0.140625 0,-0.078125 -0.0625,-0.109375 -0.109375,-0.109375 -0.234375,0 -0.53125,0.03125 -0.765625,0.03125 -0.171875,0 -0.40625,0 -0.578125,-0.015625 -0.171875,0 -0.375,-0.015625 -0.546875,-0.015625 -0.0625,0 -0.15625,0 -0.15625,0.15625 0,0.09375 0.078125,0.09375 0.25,0.09375 0.125,0 0.265625,0 0.40625,0.015625 0.21875,0.015625 0.21875,0.046875 0.21875,0.125 0,0.03125 0,0.046875 -0.046875,0.234375 -0.046875,0.1875 -0.125,0.5 -0.15625,0.578125 C 4,-0.296875 3.34375,-0.109375 2.796875,-0.109375 c -0.6875,0 -1.609375,-0.34375 -1.609375,-1.515625 0,-0.75 0.359375,-1.671875 0.875,-2.203125 0.71875,-0.703125 1.453125,-0.8125 1.84375,-0.8125 0.8125,0 1.28125,0.578125 1.28125,1.359375 0,0.1875 -0.015625,0.25 -0.015625,0.28125 0,0.09375 0.09375,0.09375 0.125,0.09375 0.109375,0 0.109375,-0.015625 0.140625,-0.15625 z m 0,0"
                 style="stroke:none" />
            </symbol>
          </g>
        </defs>
        <g
           transform="translate(-149.009,-130.359)"
           id="id-353bc323-a68f-4351-87f4-ca336efeafef">
          <g
             id="id-22b19e54-a468-40f0-887d-9a04a0a2f464"
             style="fill:#000000;fill-opacity:1">
            <g
               transform="translate(148.712,134.765)"
               id="g2685">
              <path
                 id="id-2132fd8d-fec6-4c03-83b1-3a09b720c128"
                 d="m 4.84375,-3.796875 c 0.046875,-0.140625 0.046875,-0.15625 0.046875,-0.234375 0,-0.171875 -0.140625,-0.265625 -0.296875,-0.265625 -0.09375,0 -0.25,0.0625 -0.34375,0.203125 -0.015625,0.0625 -0.109375,0.359375 -0.140625,0.546875 -0.078125,0.25 -0.140625,0.53125 -0.203125,0.796875 l -0.453125,1.796875 c -0.03125,0.140625 -0.46875,0.84375 -1.125,0.84375 -0.5,0 -0.609375,-0.4375 -0.609375,-0.8125 C 1.71875,-1.375 1.890625,-2 2.21875,-2.875 2.375,-3.28125 2.421875,-3.390625 2.421875,-3.59375 c 0,-0.4375 -0.3125,-0.8125 -0.8125,-0.8125 -0.953125,0 -1.3125,1.453125 -1.3125,1.53125 0,0.109375 0.09375,0.109375 0.109375,0.109375 0.109375,0 0.109375,-0.03125 0.15625,-0.1875 0.28125,-0.9375 0.671875,-1.234375 1.015625,-1.234375 0.078125,0 0.25,0 0.25,0.3125 0,0.25 -0.109375,0.515625 -0.171875,0.703125 -0.40625,1.0625 -0.578125,1.625 -0.578125,2.09375 0,0.890625 0.625,1.1875 1.21875,1.1875 0.390625,0 0.71875,-0.171875 1,-0.453125 -0.125,0.515625 -0.25,1.015625 -0.640625,1.546875 -0.265625,0.328125 -0.640625,0.625 -1.09375,0.625 -0.140625,0 -0.59375,-0.03125 -0.765625,-0.421875 0.15625,0 0.296875,0 0.421875,-0.125 C 1.328125,1.203125 1.421875,1.0625 1.421875,0.875 1.421875,0.5625 1.15625,0.53125 1.0625,0.53125 0.828125,0.53125 0.5,0.6875 0.5,1.171875 c 0,0.5 0.4375,0.875 1.0625,0.875 1.015625,0 2.046875,-0.90625 2.328125,-2.03125 z m 0,0"
                 style="stroke:none" />
            </g>
          </g>
          <g
             id="id-38acc0d4-2b24-4feb-a70a-87a735c5a271"
             style="fill:#000000;fill-opacity:1">
            <g
               transform="translate(153.597,136.259)"
               id="g2689">
              <path
                 id="id-bb7813d3-e4dd-4d70-afa6-e5a14269b317"
                 d="m 5.875,-4.8125 c 0,-0.03125 -0.015625,-0.09375 -0.09375,-0.09375 -0.046875,0 -0.0625,0.015625 -0.125,0.09375 l -0.5,0.53125 c -0.0625,-0.078125 -0.453125,-0.625 -1.3125,-0.625 -1.703125,0 -3.359375,1.5 -3.359375,3.078125 0,1.078125 0.828125,1.96875 2.15625,1.96875 0.625,0 1.265625,-0.15625 1.625,-0.546875 C 4.34375,-0.265625 4.53125,0 4.609375,0 4.671875,0 4.6875,-0.03125 4.71875,-0.1875 l 0.140625,-0.53125 c 0.03125,-0.125 0.125,-0.546875 0.15625,-0.625 0.078125,-0.3125 0.078125,-0.328125 0.5,-0.328125 0.046875,0 0.15625,0 0.15625,-0.140625 0,-0.078125 -0.0625,-0.109375 -0.109375,-0.109375 -0.234375,0 -0.53125,0.03125 -0.765625,0.03125 -0.171875,0 -0.40625,0 -0.578125,-0.015625 -0.171875,0 -0.375,-0.015625 -0.546875,-0.015625 -0.0625,0 -0.15625,0 -0.15625,0.15625 0,0.09375 0.078125,0.09375 0.25,0.09375 0.125,0 0.265625,0 0.40625,0.015625 0.21875,0.015625 0.21875,0.046875 0.21875,0.125 0,0.03125 0,0.046875 -0.046875,0.234375 -0.046875,0.1875 -0.125,0.5 -0.15625,0.578125 C 4,-0.296875 3.34375,-0.109375 2.796875,-0.109375 c -0.6875,0 -1.609375,-0.34375 -1.609375,-1.515625 0,-0.75 0.359375,-1.671875 0.875,-2.203125 0.71875,-0.703125 1.453125,-0.8125 1.84375,-0.8125 0.8125,0 1.28125,0.578125 1.28125,1.359375 0,0.1875 -0.015625,0.25 -0.015625,0.28125 0,0.09375 0.09375,0.09375 0.125,0.09375 0.109375,0 0.109375,-0.015625 0.140625,-0.15625 z m 0,0"
                 style="stroke:none" />
            </g>
          </g>
        </g>
      </g>
      <g
         transform="matrix(0.529167,0,0,0.529167,114.792,36.6518)"
         ns21:version="1.0.1"
         ns21:texconverter="pdflatex"
         ns21:pdfconverter="inkscape"
         ns21:text="$\\mathbf{G}$"
         ns21:preamble="C:\\Users\\claum\\AppData\\Roaming\\inkscape\\extensions\\textext\\default_packages.tex"
         ns21:scale="1.5"
         ns21:alignment="middle center"
         ns21:inkscapeversion="1.0"
         ns21:jacobian_sqrt="0.529167"
         id="g2811">
        <defs
           id="id-90543651-09ac-4aee-aef1-1b99efc12b33">
          <g
             id="id-401e6afa-5ad6-4919-8985-d922d35a1a43">
            <symbol
               id="id-6750948f-5e0a-4ce4-818f-fb78ffe45377"
               overflow="visible">
              <path
                 id="id-ceaad8d2-cdfb-453d-8fd8-3919fbf3209b"
                 d=""
                 style="stroke:none" />
            </symbol>
            <symbol
               id="id-861008ab-98d6-425e-948d-65b854ec10bc"
               overflow="visible">
              <path
                 id="id-e3a59b63-a54a-4c11-8df7-852316c4dd7b"
                 d="M 6.515625,-0.53125 C 6.8125,-0.265625 7.421875,0 7.484375,0 7.625,0 7.625,-0.125 7.625,-0.28125 v -2 H 8.421875 V -2.75 c -0.34375,0.03125 -1.21875,0.03125 -1.609375,0.03125 -0.578125,0 -1.5,0 -2.03125,-0.03125 v 0.46875 h 1.421875 v 1 c 0,0.1875 0,0.484375 -0.375,0.71875 C 5.5625,-0.421875 5.25,-0.359375 4.921875,-0.359375 c -0.859375,0 -1.71875,-0.28125 -2.203125,-0.90625 -0.421875,-0.546875 -0.5625,-1.25 -0.5625,-2.15625 0,-1.125 0.203125,-1.703125 0.578125,-2.1875 0.390625,-0.5 1.15625,-0.875 2.125,-0.875 1.0625,0 2.015625,0.765625 2.234375,2.03125 C 7.125,-4.265625 7.125,-4.25 7.359375,-4.25 c 0.25,0 0.265625,-0.015625 0.265625,-0.28125 v -2.140625 c 0,-0.1875 0,-0.28125 -0.171875,-0.28125 -0.09375,0 -0.109375,0.03125 -0.203125,0.09375 l -0.65625,0.59375 c -0.71875,-0.578125 -1.4375,-0.6875 -1.953125,-0.6875 -2.453125,0 -4,1.46875 -4,3.53125 0,1.984375 1.4375,3.53125 4.015625,3.53125 0.328125,0 1.359375,-0.015625 1.859375,-0.640625 z m 0,0"
                 style="stroke:none" />
            </symbol>
          </g>
        </defs>
        <g
           transform="translate(-149.353,-127.812)"
           id="id-3dc50db4-dcb0-4a60-b65c-3d3e7aa8e314">
          <g
             id="id-0d688931-11ce-418d-a959-506a055f8d8d"
             style="fill:#000000;fill-opacity:1">
            <g
               transform="translate(148.712,134.765)"
               id="g2807">
              <path
                 id="id-62b78ea9-d579-4f21-ac62-7d0e5a04bc1d"
                 d="M 6.515625,-0.53125 C 6.8125,-0.265625 7.421875,0 7.484375,0 7.625,0 7.625,-0.125 7.625,-0.28125 v -2 H 8.421875 V -2.75 c -0.34375,0.03125 -1.21875,0.03125 -1.609375,0.03125 -0.578125,0 -1.5,0 -2.03125,-0.03125 v 0.46875 h 1.421875 v 1 c 0,0.1875 0,0.484375 -0.375,0.71875 C 5.5625,-0.421875 5.25,-0.359375 4.921875,-0.359375 c -0.859375,0 -1.71875,-0.28125 -2.203125,-0.90625 -0.421875,-0.546875 -0.5625,-1.25 -0.5625,-2.15625 0,-1.125 0.203125,-1.703125 0.578125,-2.1875 0.390625,-0.5 1.15625,-0.875 2.125,-0.875 1.0625,0 2.015625,0.765625 2.234375,2.03125 C 7.125,-4.265625 7.125,-4.25 7.359375,-4.25 c 0.25,0 0.265625,-0.015625 0.265625,-0.28125 v -2.140625 c 0,-0.1875 0,-0.28125 -0.171875,-0.28125 -0.09375,0 -0.109375,0.03125 -0.203125,0.09375 l -0.65625,0.59375 c -0.71875,-0.578125 -1.4375,-0.6875 -1.953125,-0.6875 -2.453125,0 -4,1.46875 -4,3.53125 0,1.984375 1.4375,3.53125 4.015625,3.53125 0.328125,0 1.359375,-0.015625 1.859375,-0.640625 z m 0,0"
                 style="stroke:none" />
            </g>
          </g>
        </g>
      </g>
    </g>
    <path
       transform="scale(0.26458333)"
       id="path2317"
       d="m 21.697496,209.51117 c 0,-2.16752 6.722993,-24.08239 13.654427,-44.50918 8.201882,-24.17078 12.315349,-33.40161 19.181479,-43.0442 5.979335,-8.39721 61.870638,-63.3757 69.327658,-68.195405 13.89786,-8.98262 37.70973,-14.815416 56.93546,-13.946526 l 7.07107,0.319571 0.25828,85.10535 0.25827,85.10535 h -83.34332 c -45.838829,0 -83.343324,-0.37573 -83.343324,-0.83496 z"
       style="opacity:0.0291545;fill:#000000;stroke:#000000;stroke-width:1.01174" />
    <path
       transform="scale(0.26458333)"
       id="path2319"
       d="m 211.1011,365.46887 c -4.44467,-0.75807 -16.03617,-2.59119 -25.75889,-4.07359 C 145.80562,355.36719 123.28897,348.5931 97.520754,334.97437 81.493919,326.50404 72.778219,320.11812 60.537502,307.87705 45.256645,292.59575 35.578516,280.30657 30.210315,269.36795 22.715146,254.09527 18.591718,233.43666 20.144455,218.93742 l 0.703692,-6.57098 h 83.762263 83.76226 v 66.16499 c 0,43.43656 0.34699,66.16499 1.01015,66.16499 0.66315,0 1.01015,-22.72843 1.01015,-66.16499 v -66.16499 h 83.75307 83.75307 l -1.45041,6.31345 c -2.67971,11.6643 -4.56929,17.33479 -12.20228,36.61803 -4.17848,10.5561 -8.73401,22.37488 -10.1234,26.26397 -6.49265,18.17381 -13.19984,25.59515 -32.34752,35.79174 -14.63226,7.79203 -19.04407,11.0673 -33.88553,25.15614 -20.69031,19.6411 -27.07575,23.41957 -40.54369,23.991 -4.49018,0.19052 -11.80051,-0.27384 -16.24518,-1.0319 z M 183.57444,225.76824 c 2.42166,-2.18237 2.28403,-7.83478 -0.25254,-10.37134 -2.50349,-2.50349 -8.69226,-2.69462 -11.28467,-0.34852 -1.15386,1.04423 -1.84731,3.07104 -1.84731,5.39928 0,7.08649 7.92793,10.23798 13.38452,5.32058 z"
       style="opacity:0.0291545;fill:#000000;stroke:#000000;stroke-width:1.01174" />
    <path
       transform="scale(0.26458333)"
       id="path2321"
       d="m 265.14426,186.28956 v -24.05657 l 3.48988,-1.6642 c 10.25666,-4.89106 7.28641,-19.41811 -3.97028,-19.41811 -4.69985,0 -8.15703,2.2474 -9.71205,6.31346 l -0.86922,2.27284 H 222.23778 190.39297 V 95.058267 40.379551 l 6.31345,0.69686 c 16.61396,1.833799 34.18403,7.089909 65.88249,19.708827 24.86718,9.899442 34.78544,15.266568 42.5837,23.043571 7.23516,7.215452 16.47427,20.772021 25.64155,37.623901 3.47567,6.38922 9.24514,16.50742 12.82104,22.48489 7.74295,12.94312 12.67388,23.45907 14.56084,31.0532 1.47556,5.93846 1.81429,25.29265 0.55248,31.56726 l -0.76178,3.78807 h -46.42123 -46.42125 z m 9.30421,1.0756 c 0.84487,-0.97227 1.84605,-3.13147 2.22484,-4.79822 0.3788,-1.66675 0.92505,-3.82595 1.2139,-4.79823 0.33115,-1.11467 -0.0182,-1.76776 -0.9457,-1.76776 -0.8784,0 -1.73538,1.40987 -2.12751,3.5001 -0.97542,5.19945 -3.07521,5.94648 -2.25247,0.80135 0.48878,-3.05671 0.29122,-4.22833 -0.78246,-4.64034 -2.50783,-0.96234 -3.84381,1.83587 -2.75655,5.7736 0.68124,2.46727 0.64605,3.66378 -0.11523,3.91754 -1.75632,0.58545 0.0265,3.77973 2.10962,3.77973 1.0425,0 2.5867,-0.79549 3.43156,-1.76777 z m 13.53327,-1.01015 c 1.96125,-2.58362 1.71339,-3.28299 -1.16348,-3.28299 -1.88694,0 -2.4908,0.46967 -2.27285,1.76776 0.41075,2.4463 -3.5997,2.37227 -4.07103,-0.0751 -0.40522,-2.10415 2.47876,-5.73322 4.55612,-5.73322 0.7647,0 1.65202,0.68185 1.97182,1.51522 0.89651,2.33626 2.3856,1.79356 2.3856,-0.86945 0,-2.11639 -0.40768,-2.35234 -3.6236,-2.09717 -1.99298,0.15814 -4.4931,1.07441 -5.55584,2.03617 -1.86873,1.69118 -2.63465,6.45731 -1.2588,7.83316 1.4136,1.41361 7.70711,0.65108 9.03206,-1.09433 z m -52.16745,-40.59223 c 1.49999,-2.80275 1.3492,-3.09687 -1.58776,-3.09687 -1.9003,0 -2.47504,0.41283 -2.06442,1.48288 0.8424,2.19526 -1.31573,3.03796 -3.13108,1.22262 -1.42545,-1.42546 -1.41409,-1.81847 0.12023,-4.16014 1.96826,-3.00395 4.16156,-3.32989 5.56246,-0.82661 1.12589,2.01184 1.80288,1.64309 2.30277,-1.25428 0.30063,-1.74243 -0.17697,-2.00301 -3.47239,-1.89456 -5.96807,0.19639 -9.0523,4.01076 -7.18264,8.88301 0.93355,2.43279 8.10485,2.16267 9.45283,-0.35605 z m -12.30752,-3.60194 c 0.29697,-1.98663 0.27625,-1.98786 -1.24317,-0.0737 -1.91807,2.41632 -2.55215,1.8872 -1.88699,-1.57463 0.38729,-2.01566 0.97639,-2.53678 2.43618,-2.15503 1.30737,0.34188 1.92537,-0.0207 1.92537,-1.12955 0,-0.89817 -0.56821,-1.68136 -1.26269,-1.74042 -4.46689,-0.37986 -5.48595,-0.32346 -7.07107,0.39139 -0.97227,0.43847 -1.75331,1.57672 -1.73564,2.52945 0.0286,1.5423 0.19359,1.5188 1.50479,-0.21434 1.84571,-2.43965 2.80067,-1.60872 1.96729,1.71175 -0.47049,1.87457 -1.13667,2.3977 -2.57455,2.02168 -1.34159,-0.35083 -1.93981,0.0134 -1.93981,1.18112 0,1.38363 0.86446,1.63282 4.78914,1.38051 3.88841,-0.24999 4.84594,-0.68787 5.09115,-2.32819 z m 54.76947,-6.56599 c 0,-1.11117 0.45457,-2.02031 1.01016,-2.02031 0.55558,0 1.01015,-0.45457 1.01015,-1.01015 0,-0.55559 -2.04556,-1.01015 -4.54569,-1.01015 -2.50013,0 -4.54568,0.45456 -4.54568,1.01015 0,0.55558 0.68185,1.01015 1.51522,1.01015 0.83338,0 1.51523,0.45457 1.51523,1.01015 0,1.84381 -4.94831,1.06877 -6.02537,-0.94374 -1.74597,-3.26236 -1.18427,-5.98995 1.61064,-7.82125 2.59599,-1.70095 2.70962,-1.67853 5.00231,0.98687 3.0145,3.50457 3.45303,3.43367 3.45303,-0.55825 v -3.28561 l -5.06155,0.22538 c -8.0541,0.35865 -11.10921,3.16056 -9.67535,8.87349 1.04764,4.17413 3.34603,5.55357 9.25322,5.55357 4.81025,0 5.48368,-0.24811 5.48368,-2.0203 z"
       style="opacity:0.0291545;fill:#000000;stroke:#000000;stroke-width:1.01174" />
    <path
       transform="scale(0.26458333)"
       id="path2323"
       d="m 190.39297,181.05171 v -29.29442 h 31.75173 31.75174 l 0.69263,2.27284 c 0.92274,3.02795 3.47431,5.84332 6.26204,6.90946 2.26983,0.86807 2.27284,0.90136 2.27284,25.13788 v 24.26866 h -36.36549 -36.36549 z"
       style="opacity:0.0291545;fill:#000000;stroke:#000000;stroke-width:1.01174" />
    <path
       transform="scale(0.26458333)"
       id="path2325"
       d="m 175.44271,225.29639 c -2.01269,-2.01269 -1.51558,-8.65588 0.73797,-9.86195 4.14641,-2.21909 7.15689,5.86339 3.53354,9.48675 -1.90519,1.90518 -2.67399,1.97272 -4.27151,0.3752 z"
       style="opacity:0.0291545;fill:#000000;stroke:#000000;stroke-width:1.01174" />
    <path
       transform="scale(0.26458333)"
       id="path2327"
       d="m 176.75156,226.60531 c -0.24553,-0.0608 -0.60741,-0.19388 -0.80418,-0.29564 -0.4713,-0.24375 -1.21826,-1.04211 -1.50566,-1.60927 -1.01633,-2.00562 -0.96396,-5.73781 0.11231,-8.00441 0.45388,-0.95587 0.86098,-1.40695 1.59669,-1.76916 0.54166,-0.26667 0.67187,-0.29392 1.40408,-0.29392 0.73178,0 0.86265,0.0273 1.40309,0.29327 1.14169,0.56177 2.09157,1.89718 2.5858,3.6353 0.27055,0.95145 0.29411,3.07067 0.0442,3.97321 -0.35924,1.29729 -1.046,2.34154 -2.20928,3.35929 -0.94352,0.82548 -1.52784,0.9837 -2.62704,0.71133 z"
       style="opacity:0.0291545;fill:#000000;stroke:#000000;stroke-width:0.089426" />
  </g>
</svg>
