<?xml version="1.0" encoding="UTF-8" standalone="no"?>
<svg
   xmlns:ns21="http://www.iki.fi/pav/software/textext/"
   xmlns:dc="http://purl.org/dc/elements/1.1/"
   xmlns:cc="http://creativecommons.org/ns#"
   xmlns:rdf="http://www.w3.org/1999/02/22-rdf-syntax-ns#"
   xmlns:svg="http://www.w3.org/2000/svg"
   xmlns="http://www.w3.org/2000/svg"
   xmlns:sodipodi="http://sodipodi.sourceforge.net/DTD/sodipodi-0.dtd"
   xmlns:inkscape="http://www.inkscape.org/namespaces/inkscape"
   id="svg8"
   version="1.1"
   viewBox="0 0 170 169.99999"
   height="17cm"
   width="17cm"
   inkscape:version="1.0 (4035a4fb49, 2020-05-01)"
   sodipodi:docname="Figura2_2.svg">
  <defs
     id="defs2">
    <marker
       inkscape:isstock="true"
       style="overflow:visible"
       id="marker1117"
       refX="0"
       refY="0"
       orient="auto"
       inkscape:stockid="Arrow1Lend">
      <path
         transform="matrix(-0.8,0,0,-0.8,-10,0)"
         style="fill:#000000;fill-opacity:1;fill-rule:evenodd;stroke:#000000;stroke-width:1pt;stroke-opacity:1"
         d="M 0,0 5,-5 -12.5,0 5,5 Z"
         id="path1115" />
    </marker>
    <marker
       inkscape:stockid="Arrow1Lend"
       orient="auto"
       refY="0"
       refX="0"
       id="Arrow1Lend"
       style="overflow:visible"
       inkscape:isstock="true"
       inkscape:collect="always">
      <path
         id="path840"
         d="M 0,0 5,-5 -12.5,0 5,5 Z"
         style="fill:#000000;fill-opacity:1;fill-rule:evenodd;stroke:#000000;stroke-width:1pt;stroke-opacity:1"
         transform="matrix(-0.8,0,0,-0.8,-10,0)" />
    </marker>
  </defs>
  <sodipodi:namedview
     id="base"
     pagecolor="#ffffff"
     bordercolor="#666666"
     borderopacity="1.0"
     inkscape:pageopacity="0.0"
     inkscape:pageshadow="2"
     inkscape:zoom="0.70710678"
     inkscape:cx="255.52336"
     inkscape:cy="275.37764"
     inkscape:document-units="mm"
     inkscape:current-layer="layer1"
     inkscape:document-rotation="0"
     showgrid="true"
     units="cm"
     inkscape:window-width="1366"
     inkscape:window-height="738"
     inkscape:window-x="0"
     inkscape:window-y="0"
     inkscape:window-maximized="0">
    <inkscape:grid
       type="xygrid"
       id="grid10"
       units="cm" />
  </sodipodi:namedview>
  <metadata
     id="metadata5">
    <rdf:RDF>
      <cc:Work
         rdf:about="">
        <dc:format>image/svg+xml</dc:format>
        <dc:type
           rdf:resource="http://purl.org/dc/dcmitype/StillImage" />
        <dc:title></dc:title>
      </cc:Work>
    </rdf:RDF>
  </metadata>
  <g
     inkscape:label="Livello 1"
     inkscape:groupmode="layer"
     id="layer1">
    <g
       id="g1914"
       transform="translate(-14.113791,-15.829576)">
      <path
         id="path12"
         d="M 100.13229,180 V 20"
         style="fill:none;stroke:#000000;stroke-width:0.265;stroke-linecap:butt;stroke-linejoin:miter;stroke-miterlimit:4;stroke-dasharray:none;stroke-opacity:1;marker-end:url(#Arrow1Lend)" />
      <path
         style="fill:none;stroke:#000000;stroke-width:0.265;stroke-linecap:butt;stroke-linejoin:miter;stroke-miterlimit:4;stroke-dasharray:none;stroke-opacity:1;marker-end:url(#marker1117)"
         d="M 20,105 H 180"
         id="path1113" />
      <circle
         r="54.999996"
         cy="105"
         cx="100"
         id="path1159"
         style="fill:none;stroke:#000000;stroke-width:0.3;stroke-miterlimit:4;stroke-dasharray:none" />
      <path
         sodipodi:nodetypes="cc"
         id="path1163"
         d="M 100,105 50,50"
         style="fill:none;stroke:#000000;stroke-width:0.264583px;stroke-linecap:butt;stroke-linejoin:miter;stroke-opacity:1" />
      <path
         sodipodi:nodetypes="cc"
         id="path1167"
         d="M 150,160 100,105"
         style="fill:none;stroke:#000000;stroke-width:0.264583px;stroke-linecap:butt;stroke-linejoin:miter;stroke-opacity:1" />
      <circle
         r="1.5"
         cy="105"
         cx="100"
         id="path1169"
         style="fill:#000000;fill-opacity:1;stroke:#000000;stroke-width:0.3;stroke-miterlimit:4;stroke-dasharray:none" />
      <circle
         r="1.5"
         cy="75"
         cx="130"
         id="path1173"
         style="fill:#000000;fill-opacity:1;stroke:#000000;stroke-width:0.3;stroke-miterlimit:4;stroke-dasharray:none" />
      <path
         id="path1177"
         d="M 100,105 130,75"
         style="fill:none;stroke:#000000;stroke-width:0.264583px;stroke-linecap:butt;stroke-linejoin:miter;stroke-opacity:1" />
      <path
         d="m 120,-105 a 20,20 0 0 1 -5.88621,14.170424"
         sodipodi:arc-type="arc"
         sodipodi:open="true"
         sodipodi:end="0.78740043"
         sodipodi:start="0"
         sodipodi:ry="20"
         sodipodi:rx="20"
         sodipodi:cy="-105"
         sodipodi:cx="100"
         sodipodi:type="arc"
         transform="scale(1,-1)"
         id="path1179"
         style="fill:none;fill-opacity:1;stroke:#000000;stroke-width:0.3;stroke-miterlimit:4;stroke-dasharray:0.3, 0.3;stroke-dashoffset:0" />
      <path
         id="path1181"
         d="M 94.999999,175 105,165"
         style="fill:none;stroke:#000000;stroke-width:0.264583px;stroke-linecap:butt;stroke-linejoin:miter;stroke-opacity:1" />
      <path
         id="path1183"
         d="m 100,170 h 55"
         style="fill:none;stroke:#000000;stroke-width:0.264583px;stroke-linecap:butt;stroke-linejoin:miter;stroke-opacity:1" />
      <path
         id="path1185"
         d="m 150,175 10,-10"
         style="fill:none;stroke:#000000;stroke-width:0.264583px;stroke-linecap:butt;stroke-linejoin:miter;stroke-opacity:1" />
      <g
         transform="matrix(0.705556,0,0,0.705556,93.078822,106.03455)"
         ns21:version="1.0.1"
         ns21:texconverter="pdflatex"
         ns21:pdfconverter="inkscape"
         ns21:text="$\\mathbf{G}$"
         ns21:preamble="C:\\Users\\claum\\AppData\\Roaming\\inkscape\\extensions\\textext\\default_packages.tex"
         ns21:scale="2.0"
         ns21:alignment="middle center"
         ns21:jacobian_sqrt="0.705556"
         id="g1218">
        <defs
           id="id-c2cbf5cf-aa85-43af-b90e-8ae9a6b001c8">
          <g
             id="id-29fedf7d-91ef-4413-afc2-6943fae0aedc">
            <symbol
               id="id-1dfe4cb7-1cd5-4a23-aa83-4230d63290c5"
               overflow="visible">
              <path
                 id="id-bf5a996b-efc0-4a82-8c4c-983a145c62df"
                 d=""
                 style="stroke:none" />
            </symbol>
            <symbol
               id="id-c3047224-def5-4f61-8939-2b8faeb6fc3f"
               overflow="visible">
              <path
                 id="id-f1c5ef7e-61f6-48c5-adf2-2d2311807ebd"
                 d="M 6.515625,-0.53125 C 6.8125,-0.265625 7.421875,0 7.484375,0 7.625,0 7.625,-0.125 7.625,-0.28125 v -2 H 8.421875 V -2.75 c -0.34375,0.03125 -1.21875,0.03125 -1.609375,0.03125 -0.578125,0 -1.5,0 -2.03125,-0.03125 v 0.46875 h 1.421875 v 1 c 0,0.1875 0,0.484375 -0.375,0.71875 C 5.5625,-0.421875 5.25,-0.359375 4.921875,-0.359375 c -0.859375,0 -1.71875,-0.28125 -2.203125,-0.90625 -0.421875,-0.546875 -0.5625,-1.25 -0.5625,-2.15625 0,-1.125 0.203125,-1.703125 0.578125,-2.1875 0.390625,-0.5 1.15625,-0.875 2.125,-0.875 1.0625,0 2.015625,0.765625 2.234375,2.03125 C 7.125,-4.265625 7.125,-4.25 7.359375,-4.25 c 0.25,0 0.265625,-0.015625 0.265625,-0.28125 v -2.140625 c 0,-0.1875 0,-0.28125 -0.171875,-0.28125 -0.09375,0 -0.109375,0.03125 -0.203125,0.09375 l -0.65625,0.59375 c -0.71875,-0.578125 -1.4375,-0.6875 -1.953125,-0.6875 -2.453125,0 -4,1.46875 -4,3.53125 0,1.984375 1.4375,3.53125 4.015625,3.53125 0.328125,0 1.359375,-0.015625 1.859375,-0.640625 z m 0,0"
                 style="stroke:none" />
            </symbol>
          </g>
        </defs>
        <g
           transform="translate(-149.353,-127.812)"
           id="id-4ffdfcd2-7d26-4a11-8bcf-ed164d1bbcca">
          <g
             id="id-ec8efcdb-63c7-492b-b027-3c6725fd9064"
             style="fill:#000000;fill-opacity:1">
            <g
               transform="translate(148.712,134.765)"
               id="g1214">
              <path
                 id="id-53155f0c-2826-4ca2-81c6-1411eda40a31"
                 d="M 6.515625,-0.53125 C 6.8125,-0.265625 7.421875,0 7.484375,0 7.625,0 7.625,-0.125 7.625,-0.28125 v -2 H 8.421875 V -2.75 c -0.34375,0.03125 -1.21875,0.03125 -1.609375,0.03125 -0.578125,0 -1.5,0 -2.03125,-0.03125 v 0.46875 h 1.421875 v 1 c 0,0.1875 0,0.484375 -0.375,0.71875 C 5.5625,-0.421875 5.25,-0.359375 4.921875,-0.359375 c -0.859375,0 -1.71875,-0.28125 -2.203125,-0.90625 -0.421875,-0.546875 -0.5625,-1.25 -0.5625,-2.15625 0,-1.125 0.203125,-1.703125 0.578125,-2.1875 0.390625,-0.5 1.15625,-0.875 2.125,-0.875 1.0625,0 2.015625,0.765625 2.234375,2.03125 C 7.125,-4.265625 7.125,-4.25 7.359375,-4.25 c 0.25,0 0.265625,-0.015625 0.265625,-0.28125 v -2.140625 c 0,-0.1875 0,-0.28125 -0.171875,-0.28125 -0.09375,0 -0.109375,0.03125 -0.203125,0.09375 l -0.65625,0.59375 c -0.71875,-0.578125 -1.4375,-0.6875 -1.953125,-0.6875 -2.453125,0 -4,1.46875 -4,3.53125 0,1.984375 1.4375,3.53125 4.015625,3.53125 0.328125,0 1.359375,-0.015625 1.859375,-0.640625 z m 0,0"
                 style="stroke:none" />
            </g>
          </g>
        </g>
      </g>
      <g
         transform="matrix(0.705556,0,0,0.705556,133.28047,72.585499)"
         ns21:version="1.0.1"
         ns21:texconverter="pdflatex"
         ns21:pdfconverter="inkscape"
         ns21:text="$\\mathbf{P}$"
         ns21:preamble="C:\\Users\\claum\\AppData\\Roaming\\inkscape\\extensions\\textext\\default_packages.tex"
         ns21:scale="2.0"
         ns21:alignment="middle center"
         ns21:jacobian_sqrt="0.705556"
         id="g1276">
        <defs
           id="id-8af1c620-55d0-4828-80fd-944bdc01727f">
          <g
             id="id-92ee83a5-040e-4cf7-8dfc-24e1b68fa5ff">
            <symbol
               id="id-0714c74e-830a-4bf8-936e-fc0f854e7a64"
               overflow="visible">
              <path
                 id="id-61e24c39-c7f8-42f0-9f78-97276c20662a"
                 d=""
                 style="stroke:none" />
            </symbol>
            <symbol
               id="id-2c44ad6a-c5ca-4b65-acf1-00ded6da3d53"
               overflow="visible">
              <path
                 id="id-c533067a-63fc-47fd-9a95-07c86a534692"
                 d="m 2.875,-3.015625 h 1.765625 c 1.390625,0 2.546875,-0.71875 2.546875,-1.875 0,-1.09375 -0.984375,-1.953125 -2.640625,-1.953125 H 0.390625 V -6.375 H 1.46875 v 5.90625 H 0.390625 V 0 c 0.375,-0.03125 1.359375,-0.03125 1.78125,-0.03125 0.4375,0 1.40625,0 1.78125,0.03125 V -0.46875 H 2.875 Z m 1.28125,-0.40625 H 2.828125 V -6.375 h 1.34375 c 1.484375,0 1.484375,0.765625 1.484375,1.484375 0,0.703125 0,1.46875 -1.5,1.46875 z m 0,0"
                 style="stroke:none" />
            </symbol>
          </g>
        </defs>
        <g
           transform="translate(-149.103,-127.921)"
           id="id-90b25f59-2b6b-40ec-90e0-f7304f6f0f98">
          <g
             id="id-1370053a-b7a3-4106-b96e-e5f651e9bcb3"
             style="fill:#000000;fill-opacity:1">
            <g
               transform="translate(148.712,134.765)"
               id="g1272">
              <path
                 id="id-9ba3828a-4da0-4634-88a2-1f7159ecf252"
                 d="m 2.875,-3.015625 h 1.765625 c 1.390625,0 2.546875,-0.71875 2.546875,-1.875 0,-1.09375 -0.984375,-1.953125 -2.640625,-1.953125 H 0.390625 V -6.375 H 1.46875 v 5.90625 H 0.390625 V 0 c 0.375,-0.03125 1.359375,-0.03125 1.78125,-0.03125 0.4375,0 1.40625,0 1.78125,0.03125 V -0.46875 H 2.875 Z m 1.28125,-0.40625 H 2.828125 V -6.375 h 1.34375 c 1.484375,0 1.484375,0.765625 1.484375,1.484375 0,0.703125 0,1.46875 -1.5,1.46875 z m 0,0"
                 style="stroke:none" />
            </g>
          </g>
        </g>
      </g>
      <g
         transform="matrix(0.705556,0,0,0.705556,118.78733,92.880296)"
         ns21:version="1.0.1"
         ns21:texconverter="pdflatex"
         ns21:pdfconverter="inkscape"
         ns21:text="$\\varphi$"
         ns21:preamble="C:\\Users\\claum\\AppData\\Roaming\\inkscape\\extensions\\textext\\default_packages.tex"
         ns21:scale="2.0"
         ns21:alignment="middle center"
         ns21:jacobian_sqrt="0.705556"
         id="g1345">
        <defs
           id="id-c5f5b763-1e31-4996-8e7c-7573864dd564">
          <g
             id="id-b9dc8ce0-0b65-4cb7-819c-6aa7bf640569">
            <symbol
               id="id-8c85305d-a329-4a07-8997-4aa27ca63d4f"
               overflow="visible">
              <path
                 id="id-c8b39e1c-8148-494e-9685-9f45a9b99c34"
                 d=""
                 style="stroke:none" />
            </symbol>
            <symbol
               id="id-7f5acdf8-526c-433e-a528-e263d38bd092"
               overflow="visible">
              <path
                 id="id-75c24250-d733-4c7f-8922-e37b3a0ec174"
                 d="M 1.6875,1.6875 C 1.65625,1.828125 1.640625,1.84375 1.640625,1.890625 c 0,0.21875 0.1875,0.28125 0.296875,0.28125 0.046875,0 0.265625,-0.03125 0.359375,-0.265625 C 2.328125,1.828125 2.375,1.5 2.65625,0.09375 c 0.078125,0 0.15625,0.015625 0.328125,0.015625 1.65625,0 3.1875,-1.5625 3.1875,-3.140625 0,-0.78125 -0.390625,-1.375 -1.140625,-1.375 -1.4375,0 -2.046875,1.9375 -2.640625,3.875 C 1.3125,-0.734375 0.75,-1.28125 0.75,-2 c 0,-0.28125 0.234375,-1.375 0.828125,-2.0625 0.09375,-0.09375 0.09375,-0.109375 0.09375,-0.140625 0,-0.03125 -0.03125,-0.09375 -0.125,-0.09375 -0.28125,0 -1.046875,1.453125 -1.046875,2.40625 0,0.9375 0.65625,1.65625 1.71875,1.90625 z m 1.390625,-2.15625 c -0.09375,0 -0.109375,0 -0.1875,-0.015625 -0.125,0 -0.125,0 -0.125,-0.03125 0,-0.015625 0.171875,-0.9375 0.1875,-1.078125 0.3125,-1.28125 1.09375,-2.234375 1.984375,-2.234375 0.6875,0 0.953125,0.53125 0.953125,1.015625 0,1.125 -1.28125,2.34375 -2.8125,2.34375 z m 0,0"
                 style="stroke:none" />
            </symbol>
          </g>
        </defs>
        <g
           transform="translate(-149.212,-130.359)"
           id="id-6f6eb38c-71b5-4169-973b-d89a1c5589cd">
          <g
             id="id-6e95802a-59bb-49a7-b10b-579fc7c72372"
             style="fill:#000000;fill-opacity:1">
            <g
               transform="translate(148.712,134.765)"
               id="g1341">
              <path
                 id="id-5358e9dd-330f-4a9b-8d63-176db652162a"
                 d="M 1.6875,1.6875 C 1.65625,1.828125 1.640625,1.84375 1.640625,1.890625 c 0,0.21875 0.1875,0.28125 0.296875,0.28125 0.046875,0 0.265625,-0.03125 0.359375,-0.265625 C 2.328125,1.828125 2.375,1.5 2.65625,0.09375 c 0.078125,0 0.15625,0.015625 0.328125,0.015625 1.65625,0 3.1875,-1.5625 3.1875,-3.140625 0,-0.78125 -0.390625,-1.375 -1.140625,-1.375 -1.4375,0 -2.046875,1.9375 -2.640625,3.875 C 1.3125,-0.734375 0.75,-1.28125 0.75,-2 c 0,-0.28125 0.234375,-1.375 0.828125,-2.0625 0.09375,-0.09375 0.09375,-0.109375 0.09375,-0.140625 0,-0.03125 -0.03125,-0.09375 -0.125,-0.09375 -0.28125,0 -1.046875,1.453125 -1.046875,2.40625 0,0.9375 0.65625,1.65625 1.71875,1.90625 z m 1.390625,-2.15625 c -0.09375,0 -0.109375,0 -0.1875,-0.015625 -0.125,0 -0.125,0 -0.125,-0.03125 0,-0.015625 0.171875,-0.9375 0.1875,-1.078125 0.3125,-1.28125 1.09375,-2.234375 1.984375,-2.234375 0.6875,0 0.953125,0.53125 0.953125,1.015625 0,1.125 -1.28125,2.34375 -2.8125,2.34375 z m 0,0"
                 style="stroke:none" />
            </g>
          </g>
        </g>
      </g>
      <g
         transform="matrix(1.05833,0,0,1.05833,45.0323,47.561597)"
         ns21:version="1.0.1"
         ns21:texconverter="pdflatex"
         ns21:pdfconverter="inkscape"
         ns21:text="$r$"
         ns21:preamble="C:\\Users\\claum\\AppData\\Roaming\\inkscape\\extensions\\textext\\default_packages.tex"
         ns21:scale="3.0"
         ns21:alignment="middle center"
         ns21:jacobian_sqrt="1.05833"
         id="g1425">
        <defs
           id="id-8e0eeb38-4048-4bad-9fc8-07a9b4dbbca6">
          <g
             id="id-11f234b4-4bae-4418-b89f-0764d2dc7ba7">
            <symbol
               id="id-92ce86d9-1846-4375-8a50-01c7c782e72e"
               overflow="visible">
              <path
                 id="id-abe49c20-1f56-4f9e-b54f-7a1546e358b8"
                 d=""
                 style="stroke:none" />
            </symbol>
            <symbol
               id="id-b9fd8f66-46f3-4887-b65b-6b80ea886207"
               overflow="visible">
              <path
                 id="id-f47c0599-5b04-4932-beae-cf5fefd7d744"
                 d="m 0.875,-0.59375 c -0.03125,0.15625 -0.09375,0.390625 -0.09375,0.4375 0,0.171875 0.140625,0.265625 0.296875,0.265625 0.125,0 0.296875,-0.078125 0.375,-0.28125 C 1.46875,-0.203125 1.796875,-1.5625 1.84375,-1.75 c 0.078125,-0.328125 0.265625,-1.015625 0.3125,-1.296875 0.046875,-0.125 0.328125,-0.59375 0.5625,-0.8125 0.078125,-0.0625 0.375,-0.328125 0.796875,-0.328125 0.265625,0 0.40625,0.125 0.421875,0.125 -0.296875,0.046875 -0.515625,0.28125 -0.515625,0.546875 0,0.15625 0.109375,0.34375 0.375,0.34375 0.265625,0 0.546875,-0.234375 0.546875,-0.59375 0,-0.34375 -0.3125,-0.640625 -0.828125,-0.640625 C 2.875,-4.40625 2.4375,-3.921875 2.25,-3.640625 2.15625,-4.09375 1.796875,-4.40625 1.328125,-4.40625 0.875,-4.40625 0.6875,-4.015625 0.59375,-3.84375 0.421875,-3.5 0.296875,-2.90625 0.296875,-2.875 c 0,0.109375 0.09375,0.109375 0.109375,0.109375 0.109375,0 0.109375,-0.015625 0.171875,-0.234375 0.171875,-0.703125 0.375,-1.1875 0.734375,-1.1875 0.15625,0 0.296875,0.078125 0.296875,0.453125 0,0.21875 -0.03125,0.328125 -0.15625,0.84375 z m 0,0"
                 style="stroke:none" />
            </symbol>
          </g>
        </defs>
        <g
           transform="translate(-149.009,-130.359)"
           id="id-b1fcc247-14f9-4178-9f2b-b27e1c3eb639">
          <g
             id="id-60201f68-11a9-4f0f-949d-6d174569f588"
             style="fill:#000000;fill-opacity:1">
            <g
               transform="translate(148.712,134.765)"
               id="g1421">
              <path
                 id="id-a16fffc8-feff-42ac-a819-0f1ff6bfde4b"
                 d="m 0.875,-0.59375 c -0.03125,0.15625 -0.09375,0.390625 -0.09375,0.4375 0,0.171875 0.140625,0.265625 0.296875,0.265625 0.125,0 0.296875,-0.078125 0.375,-0.28125 C 1.46875,-0.203125 1.796875,-1.5625 1.84375,-1.75 c 0.078125,-0.328125 0.265625,-1.015625 0.3125,-1.296875 0.046875,-0.125 0.328125,-0.59375 0.5625,-0.8125 0.078125,-0.0625 0.375,-0.328125 0.796875,-0.328125 0.265625,0 0.40625,0.125 0.421875,0.125 -0.296875,0.046875 -0.515625,0.28125 -0.515625,0.546875 0,0.15625 0.109375,0.34375 0.375,0.34375 0.265625,0 0.546875,-0.234375 0.546875,-0.59375 0,-0.34375 -0.3125,-0.640625 -0.828125,-0.640625 C 2.875,-4.40625 2.4375,-3.921875 2.25,-3.640625 2.15625,-4.09375 1.796875,-4.40625 1.328125,-4.40625 0.875,-4.40625 0.6875,-4.015625 0.59375,-3.84375 0.421875,-3.5 0.296875,-2.90625 0.296875,-2.875 c 0,0.109375 0.09375,0.109375 0.109375,0.109375 0.109375,0 0.109375,-0.015625 0.171875,-0.234375 0.171875,-0.703125 0.375,-1.1875 0.734375,-1.1875 0.15625,0 0.296875,0.078125 0.296875,0.453125 0,0.21875 -0.03125,0.328125 -0.15625,0.84375 z m 0,0"
                 style="stroke:none" />
            </g>
          </g>
        </g>
      </g>
      <g
         id="g1461"
         ns21:jacobian_sqrt="1.05833"
         ns21:alignment="middle center"
         ns21:scale="3.0"
         ns21:preamble="C:\\Users\\claum\\AppData\\Roaming\\inkscape\\extensions\\textext\\default_packages.tex"
         ns21:text="$r$"
         ns21:pdfconverter="inkscape"
         ns21:texconverter="pdflatex"
         ns21:version="1.0.1"
         transform="matrix(1.05833,0,0,1.05833,115.77644,80.518898)">
        <defs
           id="defs1451">
          <g
             id="g1449">
            <symbol
               overflow="visible"
               id="symbol1443">
              <path
                 style="stroke:none"
                 d=""
                 id="path1441" />
            </symbol>
            <symbol
               overflow="visible"
               id="symbol1447">
              <path
                 style="stroke:none"
                 d="m 0.875,-0.59375 c -0.03125,0.15625 -0.09375,0.390625 -0.09375,0.4375 0,0.171875 0.140625,0.265625 0.296875,0.265625 0.125,0 0.296875,-0.078125 0.375,-0.28125 C 1.46875,-0.203125 1.796875,-1.5625 1.84375,-1.75 c 0.078125,-0.328125 0.265625,-1.015625 0.3125,-1.296875 0.046875,-0.125 0.328125,-0.59375 0.5625,-0.8125 0.078125,-0.0625 0.375,-0.328125 0.796875,-0.328125 0.265625,0 0.40625,0.125 0.421875,0.125 -0.296875,0.046875 -0.515625,0.28125 -0.515625,0.546875 0,0.15625 0.109375,0.34375 0.375,0.34375 0.265625,0 0.546875,-0.234375 0.546875,-0.59375 0,-0.34375 -0.3125,-0.640625 -0.828125,-0.640625 C 2.875,-4.40625 2.4375,-3.921875 2.25,-3.640625 2.15625,-4.09375 1.796875,-4.40625 1.328125,-4.40625 0.875,-4.40625 0.6875,-4.015625 0.59375,-3.84375 0.421875,-3.5 0.296875,-2.90625 0.296875,-2.875 c 0,0.109375 0.09375,0.109375 0.109375,0.109375 0.109375,0 0.109375,-0.015625 0.171875,-0.234375 0.171875,-0.703125 0.375,-1.1875 0.734375,-1.1875 0.15625,0 0.296875,0.078125 0.296875,0.453125 0,0.21875 -0.03125,0.328125 -0.15625,0.84375 z m 0,0"
                 id="path1445" />
            </symbol>
          </g>
        </defs>
        <g
           id="g1459"
           transform="translate(-149.009,-130.359)">
          <g
             style="fill:#000000;fill-opacity:1"
             id="g1457">
            <g
               id="g1455"
               transform="translate(148.712,134.765)">
              <path
                 style="stroke:none"
                 d="m 0.875,-0.59375 c -0.03125,0.15625 -0.09375,0.390625 -0.09375,0.4375 0,0.171875 0.140625,0.265625 0.296875,0.265625 0.125,0 0.296875,-0.078125 0.375,-0.28125 C 1.46875,-0.203125 1.796875,-1.5625 1.84375,-1.75 c 0.078125,-0.328125 0.265625,-1.015625 0.3125,-1.296875 0.046875,-0.125 0.328125,-0.59375 0.5625,-0.8125 0.078125,-0.0625 0.375,-0.328125 0.796875,-0.328125 0.265625,0 0.40625,0.125 0.421875,0.125 -0.296875,0.046875 -0.515625,0.28125 -0.515625,0.546875 0,0.15625 0.109375,0.34375 0.375,0.34375 0.265625,0 0.546875,-0.234375 0.546875,-0.59375 0,-0.34375 -0.3125,-0.640625 -0.828125,-0.640625 C 2.875,-4.40625 2.4375,-3.921875 2.25,-3.640625 2.15625,-4.09375 1.796875,-4.40625 1.328125,-4.40625 0.875,-4.40625 0.6875,-4.015625 0.59375,-3.84375 0.421875,-3.5 0.296875,-2.90625 0.296875,-2.875 c 0,0.109375 0.09375,0.109375 0.109375,0.109375 0.109375,0 0.109375,-0.015625 0.171875,-0.234375 0.171875,-0.703125 0.375,-1.1875 0.734375,-1.1875 0.15625,0 0.296875,0.078125 0.296875,0.453125 0,0.21875 -0.03125,0.328125 -0.15625,0.84375 z m 0,0"
                 id="path1453" />
            </g>
          </g>
        </g>
      </g>
      <g
         transform="matrix(1.05833,0,0,1.05833,122.15547,171.51135)"
         ns21:version="1.0.1"
         ns21:texconverter="pdflatex"
         ns21:pdfconverter="inkscape"
         ns21:text="$R$"
         ns21:preamble="C:\\Users\\claum\\AppData\\Roaming\\inkscape\\extensions\\textext\\default_packages.tex"
         ns21:scale="3.0"
         ns21:alignment="middle center"
         ns21:jacobian_sqrt="1.05833"
         id="g1549">
        <defs
           id="id-3e89db99-4a44-4f65-bcd4-c28ab72b1ecb">
          <g
             id="id-c632d338-3da5-44e4-b084-a049955bc309">
            <symbol
               id="id-d6c89ea6-a6bd-4405-8f00-4a8f7ab75909"
               overflow="visible">
              <path
                 id="id-1367dc92-4ccf-493e-b28e-b22a8e149319"
                 d=""
                 style="stroke:none" />
            </symbol>
            <symbol
               id="id-9467af73-9311-4cd6-8b5a-6da736f41cb8"
               overflow="visible">
              <path
                 id="id-5fac4866-5644-4b55-b6f8-a537c2e7bffc"
                 d="m 3.734375,-6.125 c 0.0625,-0.234375 0.09375,-0.328125 0.28125,-0.359375 C 4.109375,-6.5 4.421875,-6.5 4.625,-6.5 c 0.703125,0 1.8125,0 1.8125,0.984375 0,0.34375 -0.15625,1.03125 -0.546875,1.421875 -0.265625,0.25 -0.78125,0.578125 -1.6875,0.578125 H 3.09375 Z m 1.4375,2.734375 c 1.015625,-0.21875 2.1875,-0.921875 2.1875,-1.921875 0,-0.859375 -0.890625,-1.5 -2.203125,-1.5 H 2.328125 c -0.203125,0 -0.296875,0 -0.296875,0.203125 C 2.03125,-6.5 2.125,-6.5 2.3125,-6.5 c 0.015625,0 0.203125,0 0.375,0.015625 0.1875,0.03125 0.265625,0.03125 0.265625,0.171875 0,0.03125 0,0.0625 -0.03125,0.1875 l -1.34375,5.34375 C 1.484375,-0.390625 1.46875,-0.3125 0.671875,-0.3125 0.5,-0.3125 0.40625,-0.3125 0.40625,-0.109375 0.40625,0 0.53125,0 0.546875,0 c 0.28125,0 0.984375,-0.03125 1.25,-0.03125 0.28125,0 1,0.03125 1.28125,0.03125 0.078125,0 0.1875,0 0.1875,-0.203125 0,-0.109375 -0.078125,-0.109375 -0.28125,-0.109375 -0.359375,0 -0.640625,0 -0.640625,-0.171875 0,-0.0625 0.015625,-0.109375 0.03125,-0.171875 l 0.65625,-2.640625 h 1.1875 c 0.90625,0 1.078125,0.5625 1.078125,0.90625 0,0.140625 -0.078125,0.453125 -0.140625,0.6875 C 5.09375,-1.421875 5,-1.0625 5,-0.859375 5,0.21875 6.203125,0.21875 6.328125,0.21875 c 0.84375,0 1.203125,-1 1.203125,-1.140625 0,-0.125 -0.109375,-0.125 -0.125,-0.125 -0.09375,0 -0.109375,0.0625 -0.125,0.140625 C 7.03125,-0.171875 6.59375,0 6.375,0 6.046875,0 5.96875,-0.21875 5.96875,-0.609375 c 0,-0.3125 0.0625,-0.8125 0.109375,-1.140625 0.015625,-0.140625 0.03125,-0.328125 0.03125,-0.46875 0,-0.765625 -0.671875,-1.078125 -0.9375,-1.171875 z m 0,0"
                 style="stroke:none" />
            </symbol>
          </g>
        </defs>
        <g
           transform="translate(-149.118,-127.953)"
           id="id-f5765018-3682-4b26-9a48-c9fd135c9f7c">
          <g
             id="id-f50545f1-0601-4b46-ad55-52e1218ed752"
             style="fill:#000000;fill-opacity:1">
            <g
               transform="translate(148.712,134.765)"
               id="g1545">
              <path
                 id="id-174d3433-1112-4581-a79b-0dbddb62260b"
                 d="m 3.734375,-6.125 c 0.0625,-0.234375 0.09375,-0.328125 0.28125,-0.359375 C 4.109375,-6.5 4.421875,-6.5 4.625,-6.5 c 0.703125,0 1.8125,0 1.8125,0.984375 0,0.34375 -0.15625,1.03125 -0.546875,1.421875 -0.265625,0.25 -0.78125,0.578125 -1.6875,0.578125 H 3.09375 Z m 1.4375,2.734375 c 1.015625,-0.21875 2.1875,-0.921875 2.1875,-1.921875 0,-0.859375 -0.890625,-1.5 -2.203125,-1.5 H 2.328125 c -0.203125,0 -0.296875,0 -0.296875,0.203125 C 2.03125,-6.5 2.125,-6.5 2.3125,-6.5 c 0.015625,0 0.203125,0 0.375,0.015625 0.1875,0.03125 0.265625,0.03125 0.265625,0.171875 0,0.03125 0,0.0625 -0.03125,0.1875 l -1.34375,5.34375 C 1.484375,-0.390625 1.46875,-0.3125 0.671875,-0.3125 0.5,-0.3125 0.40625,-0.3125 0.40625,-0.109375 0.40625,0 0.53125,0 0.546875,0 c 0.28125,0 0.984375,-0.03125 1.25,-0.03125 0.28125,0 1,0.03125 1.28125,0.03125 0.078125,0 0.1875,0 0.1875,-0.203125 0,-0.109375 -0.078125,-0.109375 -0.28125,-0.109375 -0.359375,0 -0.640625,0 -0.640625,-0.171875 0,-0.0625 0.015625,-0.109375 0.03125,-0.171875 l 0.65625,-2.640625 h 1.1875 c 0.90625,0 1.078125,0.5625 1.078125,0.90625 0,0.140625 -0.078125,0.453125 -0.140625,0.6875 C 5.09375,-1.421875 5,-1.0625 5,-0.859375 5,0.21875 6.203125,0.21875 6.328125,0.21875 c 0.84375,0 1.203125,-1 1.203125,-1.140625 0,-0.125 -0.109375,-0.125 -0.125,-0.125 -0.09375,0 -0.109375,0.0625 -0.125,0.140625 C 7.03125,-0.171875 6.59375,0 6.375,0 6.046875,0 5.96875,-0.21875 5.96875,-0.609375 c 0,-0.3125 0.0625,-0.8125 0.109375,-1.140625 0.015625,-0.140625 0.03125,-0.328125 0.03125,-0.46875 0,-0.765625 -0.671875,-1.078125 -0.9375,-1.171875 z m 0,0"
                 style="stroke:none" />
            </g>
          </g>
        </g>
      </g>
      <g
         transform="matrix(1.05833,0,0,1.05833,174.79207,107.52852)"
         ns21:version="1.0.1"
         ns21:texconverter="pdflatex"
         ns21:pdfconverter="inkscape"
         ns21:text="$x$"
         ns21:preamble="C:\\Users\\claum\\AppData\\Roaming\\inkscape\\extensions\\textext\\default_packages.tex"
         ns21:scale="3.0"
         ns21:alignment="middle center"
         ns21:jacobian_sqrt="1.05833"
         id="g1662">
        <defs
           id="id-2f5f398e-9f88-47d6-b66b-ba16b2477a92">
          <g
             id="id-bc96a2f4-3141-47e4-8214-874a0ee4d183">
            <symbol
               id="id-11e0f41a-f80b-4135-a8de-22461338e7a0"
               overflow="visible">
              <path
                 id="id-1c748e13-0e78-4b7c-8222-b9e7e5ff1bd3"
                 d=""
                 style="stroke:none" />
            </symbol>
            <symbol
               id="id-8b218cfc-62a1-48e3-ba2e-1fa2e4a8a49b"
               overflow="visible">
              <path
                 id="id-cda7583e-8efb-48f8-ac57-ebe26f7048e3"
                 d="M 3.328125,-3.015625 C 3.390625,-3.265625 3.625,-4.1875 4.3125,-4.1875 c 0.046875,0 0.296875,0 0.5,0.125 C 4.53125,-4 4.34375,-3.765625 4.34375,-3.515625 c 0,0.15625 0.109375,0.34375 0.375,0.34375 0.21875,0 0.53125,-0.171875 0.53125,-0.578125 0,-0.515625 -0.578125,-0.65625 -0.921875,-0.65625 -0.578125,0 -0.921875,0.53125 -1.046875,0.75 -0.25,-0.65625 -0.78125,-0.75 -1.078125,-0.75 -1.03125,0 -1.609375,1.28125 -1.609375,1.53125 0,0.109375 0.109375,0.109375 0.125,0.109375 0.078125,0 0.109375,-0.03125 0.125,-0.109375 0.34375,-1.0625 1,-1.3125 1.34375,-1.3125 0.1875,0 0.53125,0.09375 0.53125,0.671875 0,0.3125 -0.171875,0.96875 -0.53125,2.375 -0.15625,0.609375 -0.515625,1.03125 -0.953125,1.03125 -0.0625,0 -0.28125,0 -0.5,-0.125 0.25,-0.0625 0.46875,-0.265625 0.46875,-0.546875 0,-0.265625 -0.21875,-0.34375 -0.359375,-0.34375 -0.3125,0 -0.546875,0.25 -0.546875,0.578125 0,0.453125 0.484375,0.65625 0.921875,0.65625 0.671875,0 1.03125,-0.703125 1.046875,-0.75 0.125,0.359375 0.484375,0.75 1.078125,0.75 1.03125,0 1.59375,-1.28125 1.59375,-1.53125 0,-0.109375 -0.078125,-0.109375 -0.109375,-0.109375 -0.09375,0 -0.109375,0.046875 -0.140625,0.109375 -0.328125,1.078125 -1,1.3125 -1.3125,1.3125 -0.390625,0 -0.546875,-0.3125 -0.546875,-0.65625 0,-0.21875 0.046875,-0.4375 0.15625,-0.875 z m 0,0"
                 style="stroke:none" />
            </symbol>
          </g>
        </defs>
        <g
           transform="translate(-149.009,-130.359)"
           id="id-363bc7a3-ed09-4cc9-90e1-cd0cef5bee38">
          <g
             id="id-01e3a382-db66-4a73-9812-6b827a41ec2e"
             style="fill:#000000;fill-opacity:1">
            <g
               transform="translate(148.712,134.765)"
               id="g1658">
              <path
                 id="id-1c0f93bf-269d-4e8d-a88f-e3c5ed31e42b"
                 d="M 3.328125,-3.015625 C 3.390625,-3.265625 3.625,-4.1875 4.3125,-4.1875 c 0.046875,0 0.296875,0 0.5,0.125 C 4.53125,-4 4.34375,-3.765625 4.34375,-3.515625 c 0,0.15625 0.109375,0.34375 0.375,0.34375 0.21875,0 0.53125,-0.171875 0.53125,-0.578125 0,-0.515625 -0.578125,-0.65625 -0.921875,-0.65625 -0.578125,0 -0.921875,0.53125 -1.046875,0.75 -0.25,-0.65625 -0.78125,-0.75 -1.078125,-0.75 -1.03125,0 -1.609375,1.28125 -1.609375,1.53125 0,0.109375 0.109375,0.109375 0.125,0.109375 0.078125,0 0.109375,-0.03125 0.125,-0.109375 0.34375,-1.0625 1,-1.3125 1.34375,-1.3125 0.1875,0 0.53125,0.09375 0.53125,0.671875 0,0.3125 -0.171875,0.96875 -0.53125,2.375 -0.15625,0.609375 -0.515625,1.03125 -0.953125,1.03125 -0.0625,0 -0.28125,0 -0.5,-0.125 0.25,-0.0625 0.46875,-0.265625 0.46875,-0.546875 0,-0.265625 -0.21875,-0.34375 -0.359375,-0.34375 -0.3125,0 -0.546875,0.25 -0.546875,0.578125 0,0.453125 0.484375,0.65625 0.921875,0.65625 0.671875,0 1.03125,-0.703125 1.046875,-0.75 0.125,0.359375 0.484375,0.75 1.078125,0.75 1.03125,0 1.59375,-1.28125 1.59375,-1.53125 0,-0.109375 -0.078125,-0.109375 -0.109375,-0.109375 -0.09375,0 -0.109375,0.046875 -0.140625,0.109375 -0.328125,1.078125 -1,1.3125 -1.3125,1.3125 -0.390625,0 -0.546875,-0.3125 -0.546875,-0.65625 0,-0.21875 0.046875,-0.4375 0.15625,-0.875 z m 0,0"
                 style="stroke:none" />
            </g>
          </g>
        </g>
      </g>
      <g
         transform="matrix(1.05833,0,0,1.05833,91.965249,20.090762)"
         ns21:version="1.0.1"
         ns21:texconverter="pdflatex"
         ns21:pdfconverter="inkscape"
         ns21:text="$y$"
         ns21:preamble="C:\\Users\\claum\\AppData\\Roaming\\inkscape\\extensions\\textext\\default_packages.tex"
         ns21:scale="3.0"
         ns21:alignment="middle center"
         ns21:jacobian_sqrt="1.05833"
         id="g1786">
        <defs
           id="id-3169aa59-7f95-4e49-b123-eb888c88efc5">
          <g
             id="id-9fc7fbf5-bd6c-4469-b645-cf6b2e9de1ca">
            <symbol
               id="id-b243c560-79ce-453c-a420-df0203ca1874"
               overflow="visible">
              <path
                 id="id-e35105dd-4f9a-4887-99ba-9892a2ef9e1d"
                 d=""
                 style="stroke:none" />
            </symbol>
            <symbol
               id="id-b74cee56-fbdf-40ea-8bbb-e4c83be8c466"
               overflow="visible">
              <path
                 id="id-5796455b-d442-4975-909b-2cda5ed9dd49"
                 d="m 4.84375,-3.796875 c 0.046875,-0.140625 0.046875,-0.15625 0.046875,-0.234375 0,-0.171875 -0.140625,-0.265625 -0.296875,-0.265625 -0.09375,0 -0.25,0.0625 -0.34375,0.203125 -0.015625,0.0625 -0.109375,0.359375 -0.140625,0.546875 -0.078125,0.25 -0.140625,0.53125 -0.203125,0.796875 l -0.453125,1.796875 c -0.03125,0.140625 -0.46875,0.84375 -1.125,0.84375 -0.5,0 -0.609375,-0.4375 -0.609375,-0.8125 C 1.71875,-1.375 1.890625,-2 2.21875,-2.875 2.375,-3.28125 2.421875,-3.390625 2.421875,-3.59375 c 0,-0.4375 -0.3125,-0.8125 -0.8125,-0.8125 -0.953125,0 -1.3125,1.453125 -1.3125,1.53125 0,0.109375 0.09375,0.109375 0.109375,0.109375 0.109375,0 0.109375,-0.03125 0.15625,-0.1875 0.28125,-0.9375 0.671875,-1.234375 1.015625,-1.234375 0.078125,0 0.25,0 0.25,0.3125 0,0.25 -0.109375,0.515625 -0.171875,0.703125 -0.40625,1.0625 -0.578125,1.625 -0.578125,2.09375 0,0.890625 0.625,1.1875 1.21875,1.1875 0.390625,0 0.71875,-0.171875 1,-0.453125 -0.125,0.515625 -0.25,1.015625 -0.640625,1.546875 -0.265625,0.328125 -0.640625,0.625 -1.09375,0.625 -0.140625,0 -0.59375,-0.03125 -0.765625,-0.421875 0.15625,0 0.296875,0 0.421875,-0.125 C 1.328125,1.203125 1.421875,1.0625 1.421875,0.875 1.421875,0.5625 1.15625,0.53125 1.0625,0.53125 0.828125,0.53125 0.5,0.6875 0.5,1.171875 c 0,0.5 0.4375,0.875 1.0625,0.875 1.015625,0 2.046875,-0.90625 2.328125,-2.03125 z m 0,0"
                 style="stroke:none" />
            </symbol>
          </g>
        </defs>
        <g
           transform="translate(-149.009,-130.359)"
           id="id-4df51108-ce16-4587-b07d-a4775280c6f5">
          <g
             id="id-3162a342-a50a-4866-bec5-feb6f9d10504"
             style="fill:#000000;fill-opacity:1">
            <g
               transform="translate(148.712,134.765)"
               id="g1782">
              <path
                 id="id-f3f7c1f4-fe03-488c-b752-4d1705e3dc50"
                 d="m 4.84375,-3.796875 c 0.046875,-0.140625 0.046875,-0.15625 0.046875,-0.234375 0,-0.171875 -0.140625,-0.265625 -0.296875,-0.265625 -0.09375,0 -0.25,0.0625 -0.34375,0.203125 -0.015625,0.0625 -0.109375,0.359375 -0.140625,0.546875 -0.078125,0.25 -0.140625,0.53125 -0.203125,0.796875 l -0.453125,1.796875 c -0.03125,0.140625 -0.46875,0.84375 -1.125,0.84375 -0.5,0 -0.609375,-0.4375 -0.609375,-0.8125 C 1.71875,-1.375 1.890625,-2 2.21875,-2.875 2.375,-3.28125 2.421875,-3.390625 2.421875,-3.59375 c 0,-0.4375 -0.3125,-0.8125 -0.8125,-0.8125 -0.953125,0 -1.3125,1.453125 -1.3125,1.53125 0,0.109375 0.09375,0.109375 0.109375,0.109375 0.109375,0 0.109375,-0.03125 0.15625,-0.1875 0.28125,-0.9375 0.671875,-1.234375 1.015625,-1.234375 0.078125,0 0.25,0 0.25,0.3125 0,0.25 -0.109375,0.515625 -0.171875,0.703125 -0.40625,1.0625 -0.578125,1.625 -0.578125,2.09375 0,0.890625 0.625,1.1875 1.21875,1.1875 0.390625,0 0.71875,-0.171875 1,-0.453125 -0.125,0.515625 -0.25,1.015625 -0.640625,1.546875 -0.265625,0.328125 -0.640625,0.625 -1.09375,0.625 -0.140625,0 -0.59375,-0.03125 -0.765625,-0.421875 0.15625,0 0.296875,0 0.421875,-0.125 C 1.328125,1.203125 1.421875,1.0625 1.421875,0.875 1.421875,0.5625 1.15625,0.53125 1.0625,0.53125 0.828125,0.53125 0.5,0.6875 0.5,1.171875 c 0,0.5 0.4375,0.875 1.0625,0.875 1.015625,0 2.046875,-0.90625 2.328125,-2.03125 z m 0,0"
                 style="stroke:none" />
            </g>
          </g>
        </g>
      </g>
    </g>
    <path
       transform="scale(0.26458333)"
       id="path7843"
       d="m 310.79116,543.42274 c -50.47661,-3.81034 -97.14984,-25.22067 -132.5,-60.78148 -29.55633,-29.73246 -49.44774,-67.38168 -56.87684,-107.65291 -1.68339,-9.12525 -3.62316,-26.78343 -3.62316,-32.98246 v -3.89404 h 99.53333 99.53334 l 3.46666,3.46667 3.46667,3.46666 v 99.53334 99.53333 l -4.25,-0.17471 c -2.3375,-0.0961 -6.275,-0.32757 -8.75,-0.5144 z m 6.99974,-186.56089 c 1.4e-4,-1.5125 0.45026,-2.75 1.00026,-2.75 0.55,0 1,-0.45 1,-1 0,-0.55 -2.475,-1 -5.5,-1 -3.025,0 -5.5,0.45 -5.5,1 0,0.55 0.933,1 2.07332,1 2.85213,0 2.12927,3.39676 -0.81223,3.81676 -3.04325,0.43452 -7.26109,-3.95044 -7.26109,-7.5488 0,-4.73568 2.60395,-7.42622 6.84502,-7.07266 2.65997,0.22175 3.92371,0.91723 4.64211,2.5547 1.61244,3.67529 3.51287,2.72856 3.51287,-1.75 0,-3.77002 -1.1512,-5.1824 -2.47638,-3.03821 -0.37945,0.61395 -1.53038,0.60594 -3.18242,-0.0222 -8.69487,-3.30578 -17.3441,6.01464 -12.94569,13.95031 2.08096,3.7545 5.45762,5.07492 12.35423,4.83106 6.09758,-0.21561 6.24974,-0.28794 6.25,-2.97099 z"
       style="opacity:0.04664723;fill:#000000;stroke:#000000;stroke-width:0.986457" />
    <path
       transform="scale(0.26458333)"
       id="path8418"
       d="m 325.79116,443.68692 c 0,-85.74466 0.20732,-100.57507 1.40599,-100.57507 1.04851,0 86.2547,92.78196 131.89133,143.61793 l 3.69676,4.11792 -7.24704,5.99043 c -33.3251,27.54664 -74.37103,43.47642 -120.49704,46.76449 l -9.25,0.65938 z"
       style="opacity:0.0466473;fill:#000000;stroke:#000000;stroke-width:0.986457" />
    <path
       transform="scale(0.26458333)"
       id="path8420"
       d="m 397.54116,415.56181 c -41.82211,-46.00832 -66.75,-74.18176 -66.75,-75.44068 0,-1.99903 0.51202,-2.00928 100.40544,-2.00928 h 100.40544 l -0.46531,8.25 c -3.05459,54.1586 -25.51905,103.50794 -63.47522,139.44068 l -3.37035,3.19068 z"
       style="opacity:0.0466473;fill:#000000;stroke:#000000;stroke-width:0.986457" />
    <path
       transform="scale(0.26458333)"
       id="path8422"
       d="m 400.53141,328.86043 c -0.30163,-3.98828 -1.50082,-9.95078 -2.66487,-13.25 -1.16404,-3.29922 -2.30668,-6.7877 -2.53919,-7.75218 -0.23251,-0.96447 -1.80683,-4.33947 -3.49849,-7.5 -2.88999,-5.39936 -4.24455,-7.34217 -9.78281,-14.03119 l -2.24511,-2.71161 27.03315,-27.04656 c 25.92444,-25.93729 27.17112,-27.03045 30.39714,-26.65383 6.33529,0.73961 9.9939,-6.36924 5.55993,-10.80321 -4.89005,-4.89005 -13.3067,0.17846 -10.94223,6.5894 0.66366,1.79943 -6.42023,9.27925 -51.04283,53.89566 -37.59758,37.59236 -52.25263,51.63771 -53.41419,51.19198 -1.45291,-0.55754 -1.60075,-9.85303 -1.60075,-100.64566 V 130.11185 l 3.25,8.3e-4 c 15.84032,0.004 41.10735,4.4827 59.75,10.59079 53.22708,17.43934 96.70237,55.31851 121.48574,105.84814 12.6494,25.79024 18.77512,49.89373 20.91852,82.31024 l 0.47938,7.25 h -65.29748 -65.29749 z m 0.66657,-22.23335 c 0.37587,-1.4976 1.57313,-2.72308 3.01358,-3.08461 3.96222,-0.99445 6.76684,-4.74989 6.40112,-8.5712 -0.25155,-2.62834 -0.82315,-3.43053 -2.62657,-3.68618 -3.09652,-0.43897 -4.95443,1.29193 -6.33585,5.9027 -1.01132,3.37548 -1.38448,3.71326 -3.09239,2.79921 -1.90334,-1.01864 -1.94016,-2.65363 -0.16399,-7.28225 0.33619,-0.87609 0.14801,-1.5929 -0.41818,-1.5929 -0.56619,0 -1.55488,1.59211 -2.19709,3.53802 -0.97223,2.94589 -0.89767,3.95005 0.4455,6 0.88723,1.35409 2.04164,2.46198 2.56535,2.46198 0.59694,0 0.58833,0.95703 -0.0231,2.5651 -1.25562,3.30251 -1.23957,3.4349 0.41634,3.4349 0.76538,0 1.67223,-1.11815 2.01523,-2.48477 z m -10.32505,-50.78789 c 1.68902,-6.69263 3.28001,-9.72734 5.09969,-9.72734 0.51511,0 0.71471,0.35899 0.44354,0.79775 -0.88064,1.4249 1.12887,3.51067 2.77407,2.87935 2.09614,-0.80436 2.06358,-4.56233 -0.0465,-5.37206 -0.9061,-0.34771 -2.92916,-0.14841 -4.49568,0.44289 -1.6774,0.63315 -3.07978,0.70039 -3.41155,0.16357 -1.65612,-2.67967 -7.4453,1.06118 -7.4453,4.81101 0,2.20082 1.62321,1.39621 2.97059,-1.47251 1.98612,-4.22864 2.31109,-1.12576 0.58126,5.5499 -2.00456,7.73582 -1.97925,9.42906 0.13481,9.02193 1.16311,-0.224 2.21697,-2.42618 3.39511,-7.09449 z m 69.91823,-23.72734 c 0,-0.55 -0.675,-1 -1.5,-1 -1,0 -1.5,-1 -1.5,-3 0,-2.78856 0.25875,-3 3.67126,-3 6.5857,0 9.88285,-6.09763 5.10623,-9.4433 -2.53966,-1.77884 -16.77749,-2.25128 -16.77749,-0.5567 0,0.55 0.675,1 1.5,1 1.2,0 1.5,1.5 1.5,7.5 0,6 -0.3,7.5 -1.5,7.5 -0.825,0 -1.5,0.45 -1.5,1 0,0.55 2.475,1 5.5,1 3.025,0 5.5,-0.45 5.5,-1 z"
       style="opacity:0.0466473;fill:#000000;stroke:#000000;stroke-width:0.986457" />
    <path
       transform="scale(0.26458333)"
       id="path8424"
       d="m 330.79116,334.36951 c 0,-0.95829 10.67095,-12.42026 23.71323,-25.47104 l 23.71324,-23.72868 3.77692,4.22103 c 4.92172,5.50045 13.26102,22.46175 15.10449,30.72103 0.79794,3.575 1.55839,6.95 1.68988,7.5 0.13149,0.55 0.18579,2.6875 0.12066,4.75 l -0.11842,3.75 h -34 c -31.65738,0 -34,-0.12005 -34,-1.74234 z"
       style="opacity:0.0466473;fill:#000000;stroke:#000000;stroke-width:0.986457" />
    <path
       transform="scale(0.26458333)"
       id="path8426"
       d="m 253.85676,257.47551 c -36.88608,-40.56759 -67.05233,-74.00775 -67.03611,-74.31146 0.0162,-0.30371 3.95372,-3.66672 8.75,-7.47335 26.73218,-21.21638 56.09716,-34.8554 89.22051,-41.43987 10.5599,-2.09917 27.86354,-4.13898 35.11076,-4.13898 h 3.89885 l -0.2548,100.16671 c -0.19357,76.09312 -0.53946,100.26158 -1.4392,100.56146 -0.65142,0.21712 -31.36392,-32.79691 -68.25001,-73.36451 z"
       style="opacity:0.0466473;fill:#000000;stroke:#000000;stroke-width:0.986457" />
    <path
       transform="scale(0.26458333)"
       id="path8428"
       d="m 457.13057,219.75241 v -3.74975 h 2.66772 c 2.36099,0 2.7675,0.0998 3.53553,0.86781 0.70847,0.70848 0.86781,1.22061 0.86781,2.78926 0,2.97846 -0.64871,3.55077 -4.208,3.7124 l -2.86306,0.13002 z"
       style="opacity:0.0466473;fill:#000000;stroke:#000000;stroke-width:0.348765" />
    <path
       transform="scale(0.26458333)"
       id="path8430"
       d="m 401.97425,300.41809 c 0.66684,-4.31846 2.98158,-7.4375 5.51963,-7.4375 1.94955,0 2.90733,1.95673 2.00955,4.10543 -0.94688,2.2662 -4.08636,4.39399 -6.48377,4.39438 l -1.20947,1.9e-4 z"
       style="opacity:0.0466473;fill:#000000;stroke:#000000;stroke-width:0.246614" />
    <path
       transform="scale(0.26458333)"
       id="path8432"
       d="m 117.90783,327.37236 c 2.69011,-49.20347 20.72355,-92.67088 53.74511,-129.54606 3.85483,-4.30469 8.4178,-8.98129 10.13994,-10.39245 l 3.13116,-2.56575 1.96234,2.04405 c 1.69298,1.76347 127.49443,140.32355 130.89709,144.17252 0.82697,0.93543 1.12181,2.07254 0.87089,3.35876 l -0.37933,1.94454 H 217.84497 117.41491 Z"
       style="opacity:0.0466473;fill:#000000;stroke:#000000;stroke-width:0.69753" />
  </g>
</svg>
