<?xml version="1.0" encoding="UTF-8" standalone="no"?>
<svg
   xmlns:ns1="http://www.iki.fi/pav/software/textext/"
   xmlns:dc="http://purl.org/dc/elements/1.1/"
   xmlns:cc="http://creativecommons.org/ns#"
   xmlns:rdf="http://www.w3.org/1999/02/22-rdf-syntax-ns#"
   xmlns:svg="http://www.w3.org/2000/svg"
   xmlns="http://www.w3.org/2000/svg"
   xmlns:sodipodi="http://sodipodi.sourceforge.net/DTD/sodipodi-0.dtd"
   xmlns:inkscape="http://www.inkscape.org/namespaces/inkscape"
   width="210mm"
   height="162mm"
   viewBox="0 0 210 162"
   version="1.1"
   id="svg8"
   inkscape:version="1.0 (4035a4fb49, 2020-05-01)"
   sodipodi:docname="figura13_3.svg">
  <defs
     id="defs2">
    <marker
       inkscape:stockid="Arrow1Sstart"
       orient="auto"
       refY="0"
       refX="0"
       id="Arrow1Sstart"
       style="overflow:visible"
       inkscape:isstock="true">
      <path
         id="path851"
         d="M 0,0 5,-5 -12.5,0 5,5 Z"
         style="fill:#000000;fill-opacity:1;fill-rule:evenodd;stroke:#000000;stroke-width:1pt;stroke-opacity:1"
         transform="matrix(0.2,0,0,0.2,1.2,0)" />
    </marker>
    <marker
       inkscape:stockid="Arrow1Mstart"
       orient="auto"
       refY="0"
       refX="0"
       id="marker1171"
       style="overflow:visible"
       inkscape:isstock="true">
      <path
         id="path1169"
         d="M 0,0 5,-5 -12.5,0 5,5 Z"
         style="fill:#000000;fill-opacity:1;fill-rule:evenodd;stroke:#000000;stroke-width:1pt;stroke-opacity:1"
         transform="matrix(0.4,0,0,0.4,4,0)" />
    </marker>
    <marker
       inkscape:isstock="true"
       style="overflow:visible"
       id="marker1117"
       refX="0"
       refY="0"
       orient="auto"
       inkscape:stockid="Arrow1Mstart"
       inkscape:collect="always">
      <path
         transform="matrix(0.4,0,0,0.4,4,0)"
         style="fill:#000000;fill-opacity:1;fill-rule:evenodd;stroke:#000000;stroke-width:1pt;stroke-opacity:1"
         d="M 0,0 5,-5 -12.5,0 5,5 Z"
         id="path1115" />
    </marker>
    <marker
       inkscape:stockid="Arrow1Mstart"
       orient="auto"
       refY="0"
       refX="0"
       id="Arrow1Mstart"
       style="overflow:visible"
       inkscape:isstock="true"
       inkscape:collect="always">
      <path
         id="path845"
         d="M 0,0 5,-5 -12.5,0 5,5 Z"
         style="fill:#000000;fill-opacity:1;fill-rule:evenodd;stroke:#000000;stroke-width:1pt;stroke-opacity:1"
         transform="matrix(0.4,0,0,0.4,4,0)" />
    </marker>
  </defs>
  <sodipodi:namedview
     id="base"
     pagecolor="#ffffff"
     bordercolor="#666666"
     borderopacity="1.0"
     inkscape:pageopacity="0.0"
     inkscape:pageshadow="2"
     inkscape:zoom="0.98994949"
     inkscape:cx="329.09321"
     inkscape:cy="366.84278"
     inkscape:document-units="mm"
     inkscape:current-layer="layer1"
     inkscape:document-rotation="0"
     showgrid="true"
     inkscape:window-width="1366"
     inkscape:window-height="715"
     inkscape:window-x="-8"
     inkscape:window-y="-8"
     inkscape:window-maximized="1">
    <inkscape:grid
       type="xygrid"
       id="grid10" />
  </sodipodi:namedview>
  <metadata
     id="metadata5">
    <rdf:RDF>
      <cc:Work
         rdf:about="">
        <dc:format>image/svg+xml</dc:format>
        <dc:type
           rdf:resource="http://purl.org/dc/dcmitype/StillImage" />
        <dc:title></dc:title>
      </cc:Work>
    </rdf:RDF>
  </metadata>
  <g
     inkscape:label="Livello 1"
     inkscape:groupmode="layer"
     id="layer1">
    <path
       style="fill:none;stroke:#000000;stroke-width:0.265;stroke-linecap:butt;stroke-linejoin:miter;stroke-miterlimit:4;stroke-dasharray:none;stroke-opacity:1;marker-start:url(#Arrow1Mstart)"
       d="M 5,6 V 26"
       id="path12" />
    <path
       id="path14"
       d="M 25,26 H 5"
       style="fill:none;stroke:#000000;stroke-width:0.264583px;stroke-linecap:butt;stroke-linejoin:miter;stroke-opacity:1;marker-start:url(#marker1117)" />
    <path
       style="fill:none;stroke:#000000;stroke-width:1;stroke-linecap:butt;stroke-linejoin:miter;stroke-miterlimit:4;stroke-dasharray:none;stroke-opacity:1"
       d="M 20,44.999999 105,45"
       id="path1143"
       sodipodi:nodetypes="cc" />
    <path
       style="fill:none;stroke:#000000;stroke-width:0.264583px;stroke-linecap:butt;stroke-linejoin:miter;stroke-opacity:1"
       d="M 100,39.999999 V 50"
       id="path1145" />
    <path
       style="fill:none;stroke:#000000;stroke-width:0.264583px;stroke-linecap:butt;stroke-linejoin:miter;stroke-opacity:1"
       d="M 105,39.999999 V 50"
       id="path1147" />
    <path
       style="fill:none;stroke:#000000;stroke-width:0.264583px;stroke-linecap:butt;stroke-linejoin:miter;stroke-opacity:1"
       d="M 110,39.999999 V 50"
       id="path1149" />
    <path
       sodipodi:nodetypes="cc"
       id="path1151"
       d="M 105,44.999999 190,45"
       style="fill:none;stroke:#000000;stroke-width:1;stroke-linecap:butt;stroke-linejoin:miter;stroke-miterlimit:4;stroke-dasharray:none;stroke-opacity:1" />
    <path
       style="fill:none;fill-opacity:0.691489;fill-rule:evenodd;stroke:#000000;stroke-width:1;stroke-linecap:round;stroke-linejoin:bevel;stroke-miterlimit:4;stroke-dasharray:none"
       id="path1155"
       d="m 19.230919,43.169104 c 0.142095,0.0227 0.279398,0.05479 0.412737,0.108712 0.100156,0.04076 0.187957,0.09627 0.261567,0.175427 0.06469,0.06645 0.11847,0.143875 0.151491,0.230706 0.04368,0.09165 0.05902,0.190267 0.06875,0.290218 0.0084,0.108514 0.0081,0.21744 0.0084,0.326203 -4e-6,0.117535 -4.24e-4,0.235071 -6.62e-4,0.352607 0.0067,0.09875 -0.0057,0.194625 -0.02196,0.2916 -0.04087,0.122904 -0.106291,0.234355 -0.151617,0.355539 -0.04357,0.119005 -0.05518,0.244385 -0.06136,0.369864 -0.0018,0.11062 -0.01359,0.221993 0.01732,0.32939 0.04258,0.111964 0.135748,0.178787 0.232975,0.240827 0.114302,0.05582 0.220946,0.125095 0.327125,0.194643 0.05836,0.03285 0.03061,0.01603 0.08346,0.0501 0,0 0.07848,-0.05041 0.07848,-0.05041 v 0 c -0.05314,-0.03443 -0.02531,-0.0177 -0.08366,-0.04991 -0.106437,-0.06919 -0.212696,-0.139382 -0.327314,-0.194664 -0.09558,-0.06028 -0.187651,-0.125355 -0.22925,-0.235165 -0.03004,-0.106516 -0.01763,-0.217032 -0.01612,-0.326575 0.0063,-0.124634 0.01858,-0.249097 0.06231,-0.367125 0.04611,-0.121372 0.112827,-0.233159 0.151416,-0.357442 0.01632,-0.09737 0.02748,-0.193847 0.02116,-0.292917 1.17e-4,-0.117504 3.17e-4,-0.235011 4.23e-4,-0.352518 -3.8e-5,-0.109064 2.31e-4,-0.218297 -0.0086,-0.327091 -0.01007,-0.10074 -0.02583,-0.200107 -0.06968,-0.292547 -0.03377,-0.08775 -0.0879,-0.166455 -0.153432,-0.233696 -0.07428,-0.08047 -0.162563,-0.137279 -0.26403,-0.178697 -0.133813,-0.05418 -0.271097,-0.08691 -0.413524,-0.110913 0,0 -0.07636,0.05384 -0.07636,0.05384 z" />
    <path
       style="fill:none;fill-opacity:0.691489;fill-rule:evenodd;stroke:#000000;stroke-width:1;stroke-linecap:round;stroke-linejoin:bevel;stroke-miterlimit:4;stroke-dasharray:none"
       id="path1157"
       d="m 190.40374,42.872834 c -0.17324,0.02432 -0.32401,0.107328 -0.47119,0.196406 -0.13562,0.09293 -0.25096,0.205292 -0.33909,0.343656 -0.0769,0.142608 -0.11168,0.299072 -0.10844,0.459994 0.015,0.116298 0.0661,0.223115 0.1388,0.313981 0.0774,0.09311 0.17333,0.170294 0.2674,0.246222 0.0801,0.05956 0.11671,0.138789 0.13425,0.23409 0.0117,0.09178 0.01,0.184578 0.009,0.276902 -0.003,0.09445 0.005,0.189505 -0.007,0.283353 -0.0176,0.09703 -0.0463,0.193273 -0.0768,0.28725 -0.0454,0.09779 -0.11486,0.181012 -0.17792,0.267671 -0.0725,0.08279 -0.13145,0.177416 -0.21161,0.253302 -0.0408,0.04181 -0.0739,0.08782 -0.10447,0.137292 0,0 0.085,-0.03745 0.085,-0.03745 v 0 c 0.0312,-0.04856 0.0645,-0.09433 0.10553,-0.135342 0.0784,-0.07786 0.13925,-0.170775 0.21077,-0.254683 0.0634,-0.08719 0.13389,-0.170841 0.17703,-0.27052 0.0299,-0.09471 0.0596,-0.190974 0.076,-0.288833 0.011,-0.09429 0.004,-0.189547 0.007,-0.284337 2.6e-4,-0.09287 0.002,-0.186245 -0.0102,-0.278505 -0.0185,-0.09714 -0.0563,-0.178713 -0.13789,-0.239607 -0.0938,-0.07511 -0.18912,-0.152183 -0.26625,-0.244562 -0.0718,-0.08893 -0.12189,-0.194218 -0.13609,-0.308497 -0.003,-0.159411 0.0326,-0.314367 0.11031,-0.454829 0.0891,-0.136983 0.20542,-0.248497 0.34106,-0.34022 -0.008,0.0032 -0.0311,0.01373 -0.0236,0.0097 0.10329,-0.05643 0.21789,-0.094 0.33279,-0.117462 0,0 0.0756,-0.05493 0.0756,-0.05493 z" />
    <path
       style="fill:none;fill-opacity:0.691489;fill-rule:evenodd;stroke:#000000;stroke-width:1;stroke-linecap:round;stroke-linejoin:bevel;stroke-miterlimit:4;stroke-dasharray:none;marker-start:url(#Arrow1Sstart)"
       id="path1159"
       sodipodi:type="arc"
       sodipodi:cx="105"
       sodipodi:cy="45"
       sodipodi:rx="12"
       sodipodi:ry="12"
       sodipodi:start="1.3627683"
       sodipodi:end="5.257643"
       sodipodi:arc-type="arc"
       d="M 107.47837,56.741281 A 12,12 0 0 1 94.359015,50.54702 12,12 0 0 1 96.793702,36.24462 12,12 0 0 1 111.22362,34.740053"
       sodipodi:open="true" />
    <text
       xml:space="preserve"
       style="font-size:8.46667px;line-height:1.25;font-family:'Arial Rounded MT Bold';-inkscape-font-specification:'Arial Rounded MT Bold, ';stroke-width:0.264583"
       x="95.656868"
       y="52.46772"
       id="text1163"><tspan
         sodipodi:role="line"
         id="tspan1161"
         x="95.656868"
         y="52.46772"
         style="stroke-width:0.264583">1</tspan></text>
    <text
       xml:space="preserve"
       style="font-size:8.46667px;line-height:1.25;font-family:'Arial Rounded MT Bold';-inkscape-font-specification:'Arial Rounded MT Bold, ';stroke-width:0.264583"
       x="109.99322"
       y="52.605877"
       id="text1167"><tspan
         sodipodi:role="line"
         id="tspan1165"
         x="109.99322"
         y="52.605877"
         style="stroke-width:0.264583">2</tspan></text>
    <g
       id="g1296"
       ns1:jacobian_sqrt="0.705556"
       ns1:inkscapeversion="1.0"
       ns1:alignment="middle center"
       ns1:scale="2.0"
       ns1:preamble="C:\\Users\\claum\\AppData\\Roaming\\inkscape\\extensions\\textext\\default_packages.tex"
       ns1:text="$H$"
       ns1:pdfconverter="inkscape"
       ns1:texconverter="pdflatex"
       ns1:version="1.0.1"
       transform="matrix(0.705556,0,0,0.705556,102.97639,34.586028)">
      <defs
         id="id-59c67a03-9251-4d3f-b324-bde6d1213821">
        <g
           id="id-660b6c3a-0736-4293-b297-e8e3d4138773">
          <symbol
             overflow="visible"
             id="id-7bd72701-3237-44af-bab5-0d9ac3a612e8">
            <path
               style="stroke:none"
               d=""
               id="id-37e2fd1f-16e7-42c4-8b79-f9b68f9886be" />
          </symbol>
          <symbol
             overflow="visible"
             id="id-8510d78c-501a-4e95-808d-d27f1be65744">
            <path
               style="stroke:none"
               d="M 7.609375,-6.046875 C 7.703125,-6.40625 7.71875,-6.5 8.4375,-6.5 c 0.265625,0 0.34375,0 0.34375,-0.203125 0,-0.109375 -0.109375,-0.109375 -0.140625,-0.109375 -0.28125,0 -1,0.03125 -1.28125,0.03125 -0.28125,0 -0.984375,-0.03125 -1.28125,-0.03125 -0.078125,0 -0.1875,0 -0.1875,0.203125 0,0.109375 0.09375,0.109375 0.28125,0.109375 0.015625,0 0.203125,0 0.375,0.015625 0.1875,0.03125 0.265625,0.03125 0.265625,0.171875 0,0.03125 0,0.046875 -0.03125,0.1875 L 6.1875,-3.703125 H 3.140625 l 0.59375,-2.34375 C 3.8125,-6.40625 3.84375,-6.5 4.5625,-6.5 c 0.265625,0 0.34375,0 0.34375,-0.203125 0,-0.109375 -0.109375,-0.109375 -0.140625,-0.109375 -0.28125,0 -1,0.03125 -1.28125,0.03125 -0.28125,0 -0.984375,-0.03125 -1.28125,-0.03125 -0.078125,0 -0.1875,0 -0.1875,0.203125 0,0.109375 0.09375,0.109375 0.28125,0.109375 0.015625,0 0.203125,0 0.375,0.015625 0.171875,0.03125 0.265625,0.03125 0.265625,0.171875 0,0.03125 0,0.0625 -0.03125,0.1875 L 1.5625,-0.78125 c -0.09375,0.390625 -0.109375,0.46875 -0.90625,0.46875 -0.171875,0 -0.265625,0 -0.265625,0.203125 C 0.390625,0 0.515625,0 0.53125,0 0.8125,0 1.515625,-0.03125 1.796875,-0.03125 2,-0.03125 2.21875,-0.015625 2.4375,-0.015625 2.65625,-0.015625 2.875,0 3.078125,0 3.15625,0 3.28125,0 3.28125,-0.203125 3.28125,-0.3125 3.1875,-0.3125 3,-0.3125 c -0.375,0 -0.640625,0 -0.640625,-0.171875 0,-0.0625 0.015625,-0.109375 0.015625,-0.171875 l 0.6875,-2.734375 h 3.03125 c -0.40625,1.65625 -0.640625,2.609375 -0.6875,2.75 C 5.3125,-0.3125 5.125,-0.3125 4.5,-0.3125 c -0.140625,0 -0.234375,0 -0.234375,0.203125 C 4.265625,0 4.390625,0 4.40625,0 4.6875,0 5.390625,-0.03125 5.671875,-0.03125 5.875,-0.03125 6.09375,-0.015625 6.3125,-0.015625 6.53125,-0.015625 6.75,0 6.953125,0 7.03125,0 7.15625,0 7.15625,-0.203125 7.15625,-0.3125 7.0625,-0.3125 6.875,-0.3125 c -0.359375,0 -0.640625,0 -0.640625,-0.171875 0,-0.0625 0.015625,-0.109375 0.03125,-0.171875 z m 0,0"
               id="id-73ee9b85-f030-4889-bb76-32e42c4198b0" />
          </symbol>
        </g>
      </defs>
      <g
         id="id-01496d17-cc2a-429e-8b51-355f167ccfcb"
         transform="translate(-149.103,-127.953)">
        <g
           style="fill:#000000;fill-opacity:1"
           id="id-da49fd3b-46e2-43d7-be0a-79bd9bffe9a4">
          <g
             id="g1292"
             transform="translate(148.712,134.765)">
            <path
               style="stroke:none"
               d="M 7.609375,-6.046875 C 7.703125,-6.40625 7.71875,-6.5 8.4375,-6.5 c 0.265625,0 0.34375,0 0.34375,-0.203125 0,-0.109375 -0.109375,-0.109375 -0.140625,-0.109375 -0.28125,0 -1,0.03125 -1.28125,0.03125 -0.28125,0 -0.984375,-0.03125 -1.28125,-0.03125 -0.078125,0 -0.1875,0 -0.1875,0.203125 0,0.109375 0.09375,0.109375 0.28125,0.109375 0.015625,0 0.203125,0 0.375,0.015625 0.1875,0.03125 0.265625,0.03125 0.265625,0.171875 0,0.03125 0,0.046875 -0.03125,0.1875 L 6.1875,-3.703125 H 3.140625 l 0.59375,-2.34375 C 3.8125,-6.40625 3.84375,-6.5 4.5625,-6.5 c 0.265625,0 0.34375,0 0.34375,-0.203125 0,-0.109375 -0.109375,-0.109375 -0.140625,-0.109375 -0.28125,0 -1,0.03125 -1.28125,0.03125 -0.28125,0 -0.984375,-0.03125 -1.28125,-0.03125 -0.078125,0 -0.1875,0 -0.1875,0.203125 0,0.109375 0.09375,0.109375 0.28125,0.109375 0.015625,0 0.203125,0 0.375,0.015625 0.171875,0.03125 0.265625,0.03125 0.265625,0.171875 0,0.03125 0,0.0625 -0.03125,0.1875 L 1.5625,-0.78125 c -0.09375,0.390625 -0.109375,0.46875 -0.90625,0.46875 -0.171875,0 -0.265625,0 -0.265625,0.203125 C 0.390625,0 0.515625,0 0.53125,0 0.8125,0 1.515625,-0.03125 1.796875,-0.03125 2,-0.03125 2.21875,-0.015625 2.4375,-0.015625 2.65625,-0.015625 2.875,0 3.078125,0 3.15625,0 3.28125,0 3.28125,-0.203125 3.28125,-0.3125 3.1875,-0.3125 3,-0.3125 c -0.375,0 -0.640625,0 -0.640625,-0.171875 0,-0.0625 0.015625,-0.109375 0.015625,-0.171875 l 0.6875,-2.734375 h 3.03125 c -0.40625,1.65625 -0.640625,2.609375 -0.6875,2.75 C 5.3125,-0.3125 5.125,-0.3125 4.5,-0.3125 c -0.140625,0 -0.234375,0 -0.234375,0.203125 C 4.265625,0 4.390625,0 4.40625,0 4.6875,0 5.390625,-0.03125 5.671875,-0.03125 5.875,-0.03125 6.09375,-0.015625 6.3125,-0.015625 6.53125,-0.015625 6.75,0 6.953125,0 7.03125,0 7.15625,0 7.15625,-0.203125 7.15625,-0.3125 7.0625,-0.3125 6.875,-0.3125 c -0.359375,0 -0.640625,0 -0.640625,-0.171875 0,-0.0625 0.015625,-0.109375 0.03125,-0.171875 z m 0,0"
               id="id-9a3281a9-2278-475a-8a76-a8e630bab88b" />
          </g>
        </g>
      </g>
    </g>
    <g
       id="g1360"
       ns1:jacobian_sqrt="0.705556"
       ns1:inkscapeversion="1.0"
       ns1:alignment="middle center"
       ns1:scale="2.0"
       ns1:preamble="C:\\Users\\claum\\AppData\\Roaming\\inkscape\\extensions\\textext\\default_packages.tex"
       ns1:text="$\\mathcal{M}$"
       ns1:pdfconverter="inkscape"
       ns1:texconverter="pdflatex"
       ns1:version="1.0.1"
       transform="matrix(0.705556,0,0,0.705556,86.042536,51.976302)">
      <defs
         id="id-dfbfc079-be76-4c68-900a-c20ce67a382f">
        <g
           id="id-bc452148-a6b6-4169-9e93-8114346e0882">
          <symbol
             overflow="visible"
             id="id-a0d16888-303c-482a-9f7f-38dc62a34116">
            <path
               style="stroke:none"
               d=""
               id="id-54c30c9b-c152-4230-8662-79872ad3dc0e" />
          </symbol>
          <symbol
             overflow="visible"
             id="id-d7d44e38-1a99-4768-a0be-d819d0b5d724">
            <path
               style="stroke:none"
               d="m 3.84375,-5.578125 c 0.265625,1.296875 0.703125,3.4375 1.265625,4.59375 0.21875,0.421875 0.328125,0.640625 0.4375,0.640625 0.03125,0 0.0625,0 0.234375,-0.171875 C 6.546875,-1.25 7.0625,-1.828125 7.75,-2.625 l 2.1875,-2.53125 c -0.140625,0.84375 -0.5,3.078125 -0.5,4.25 0,0.265625 0.015625,0.53125 0.046875,0.796875 0,0.109375 0.046875,0.40625 0.46875,0.40625 0.421875,0 1.171875,-0.453125 1.171875,-0.640625 0,-0.0625 -0.0625,-0.078125 -0.09375,-0.078125 -0.125,0 -0.328125,0.09375 -0.4375,0.15625 -0.234375,-0.03125 -0.25,-0.1875 -0.28125,-0.40625 -0.03125,-0.328125 -0.03125,-0.625 -0.03125,-0.65625 0,-1.109375 0.4375,-4.140625 0.734375,-5.375 0.01563,-0.0625 0.01563,-0.078125 0.01563,-0.171875 0,-0.03125 0,-0.140625 -0.07813,-0.140625 -0.03125,0 -0.04687,0 -0.234375,0.234375 -0.9375,1.125 -3.84375,4.625 -4.84375,5.453125 C 5.625,-1.859375 5.453125,-2.234375 5.109375,-3.625 4.8125,-4.75 4.640625,-5.578125 4.46875,-6.546875 4.453125,-6.6875 4.390625,-6.953125 4.390625,-6.984375 4.359375,-7.03125 4.3125,-7.03125 4.28125,-7.03125 c -0.171875,0 -0.59375,0.21875 -0.625,0.4375 -0.125,0.828125 -0.3125,2.140625 -1.015625,4.046875 -0.796875,2.125 -1.015625,2.125 -1.203125,2.125 -0.125,0 -0.5,-0.078125 -0.71875,-0.28125 C 0.671875,-0.75 0.640625,-0.75 0.625,-0.75 c -0.140625,0 -0.359375,0.453125 -0.359375,0.734375 0,0.078125 0,0.203125 0.328125,0.375 C 0.84375,0.484375 1.078125,0.5 1.125,0.5 1.75,0.5 2.328125,-0.921875 2.53125,-1.4375 3,-2.5625 3.5625,-4.140625 3.84375,-5.578125 Z m 0,0"
               id="id-d64ac2d7-2c48-4bfb-9524-b44736c0a82e" />
          </symbol>
        </g>
      </defs>
      <g
         id="id-c1647be8-a0d8-4eea-9971-b095cfc9f3bc"
         transform="translate(-148.978,-127.734)">
        <g
           style="fill:#000000;fill-opacity:1"
           id="id-aa78bb5c-9975-4b11-b182-d648e270bb7d">
          <g
             id="g1356"
             transform="translate(148.712,134.765)">
            <path
               style="stroke:none"
               d="m 3.84375,-5.578125 c 0.265625,1.296875 0.703125,3.4375 1.265625,4.59375 0.21875,0.421875 0.328125,0.640625 0.4375,0.640625 0.03125,0 0.0625,0 0.234375,-0.171875 C 6.546875,-1.25 7.0625,-1.828125 7.75,-2.625 l 2.1875,-2.53125 c -0.140625,0.84375 -0.5,3.078125 -0.5,4.25 0,0.265625 0.015625,0.53125 0.046875,0.796875 0,0.109375 0.046875,0.40625 0.46875,0.40625 0.421875,0 1.171875,-0.453125 1.171875,-0.640625 0,-0.0625 -0.0625,-0.078125 -0.09375,-0.078125 -0.125,0 -0.328125,0.09375 -0.4375,0.15625 -0.234375,-0.03125 -0.25,-0.1875 -0.28125,-0.40625 -0.03125,-0.328125 -0.03125,-0.625 -0.03125,-0.65625 0,-1.109375 0.4375,-4.140625 0.734375,-5.375 0.01563,-0.0625 0.01563,-0.078125 0.01563,-0.171875 0,-0.03125 0,-0.140625 -0.07813,-0.140625 -0.03125,0 -0.04687,0 -0.234375,0.234375 -0.9375,1.125 -3.84375,4.625 -4.84375,5.453125 C 5.625,-1.859375 5.453125,-2.234375 5.109375,-3.625 4.8125,-4.75 4.640625,-5.578125 4.46875,-6.546875 4.453125,-6.6875 4.390625,-6.953125 4.390625,-6.984375 4.359375,-7.03125 4.3125,-7.03125 4.28125,-7.03125 c -0.171875,0 -0.59375,0.21875 -0.625,0.4375 -0.125,0.828125 -0.3125,2.140625 -1.015625,4.046875 -0.796875,2.125 -1.015625,2.125 -1.203125,2.125 -0.125,0 -0.5,-0.078125 -0.71875,-0.28125 C 0.671875,-0.75 0.640625,-0.75 0.625,-0.75 c -0.140625,0 -0.359375,0.453125 -0.359375,0.734375 0,0.078125 0,0.203125 0.328125,0.375 C 0.84375,0.484375 1.078125,0.5 1.125,0.5 1.75,0.5 2.328125,-0.921875 2.53125,-1.4375 3,-2.5625 3.5625,-4.140625 3.84375,-5.578125 Z m 0,0"
               id="id-026d8403-043b-45fa-989f-3aeeb4b9daf2" />
          </g>
        </g>
      </g>
    </g>
    <g
       id="g1435"
       ns1:jacobian_sqrt="0.705556"
       ns1:inkscapeversion="1.0"
       ns1:alignment="middle center"
       ns1:scale="2.0"
       ns1:preamble="C:\\Users\\claum\\AppData\\Roaming\\inkscape\\extensions\\textext\\default_packages.tex"
       ns1:text="$x$"
       ns1:pdfconverter="inkscape"
       ns1:texconverter="pdflatex"
       ns1:version="1.0.1"
       transform="matrix(0.705556,0,0,0.705556,25.861372,24.019013)">
      <defs
         id="id-c2e10b81-95c9-48b5-a13a-d2ee76bbe207">
        <g
           id="id-50d398da-485e-44e0-bd8a-aad11f73c874">
          <symbol
             overflow="visible"
             id="id-96fb7540-6e48-4ed6-9d12-1408b60d809f">
            <path
               style="stroke:none"
               d=""
               id="id-9e44d6a6-37a8-481f-a891-9b1885c60f7a" />
          </symbol>
          <symbol
             overflow="visible"
             id="id-03cca190-a75b-4c94-8104-b6d0b53b06d3">
            <path
               style="stroke:none"
               d="M 3.328125,-3.015625 C 3.390625,-3.265625 3.625,-4.1875 4.3125,-4.1875 c 0.046875,0 0.296875,0 0.5,0.125 C 4.53125,-4 4.34375,-3.765625 4.34375,-3.515625 c 0,0.15625 0.109375,0.34375 0.375,0.34375 0.21875,0 0.53125,-0.171875 0.53125,-0.578125 0,-0.515625 -0.578125,-0.65625 -0.921875,-0.65625 -0.578125,0 -0.921875,0.53125 -1.046875,0.75 -0.25,-0.65625 -0.78125,-0.75 -1.078125,-0.75 -1.03125,0 -1.609375,1.28125 -1.609375,1.53125 0,0.109375 0.109375,0.109375 0.125,0.109375 0.078125,0 0.109375,-0.03125 0.125,-0.109375 0.34375,-1.0625 1,-1.3125 1.34375,-1.3125 0.1875,0 0.53125,0.09375 0.53125,0.671875 0,0.3125 -0.171875,0.96875 -0.53125,2.375 -0.15625,0.609375 -0.515625,1.03125 -0.953125,1.03125 -0.0625,0 -0.28125,0 -0.5,-0.125 0.25,-0.0625 0.46875,-0.265625 0.46875,-0.546875 0,-0.265625 -0.21875,-0.34375 -0.359375,-0.34375 -0.3125,0 -0.546875,0.25 -0.546875,0.578125 0,0.453125 0.484375,0.65625 0.921875,0.65625 0.671875,0 1.03125,-0.703125 1.046875,-0.75 0.125,0.359375 0.484375,0.75 1.078125,0.75 1.03125,0 1.59375,-1.28125 1.59375,-1.53125 0,-0.109375 -0.078125,-0.109375 -0.109375,-0.109375 -0.09375,0 -0.109375,0.046875 -0.140625,0.109375 -0.328125,1.078125 -1,1.3125 -1.3125,1.3125 -0.390625,0 -0.546875,-0.3125 -0.546875,-0.65625 0,-0.21875 0.046875,-0.4375 0.15625,-0.875 z m 0,0"
               id="id-4cbd6e57-dceb-498d-9dd8-cbfd5789fa58" />
          </symbol>
        </g>
      </defs>
      <g
         id="id-e0b89d5b-cabd-4c6f-ab97-9e31c638615e"
         transform="translate(-149.009,-130.359)">
        <g
           style="fill:#000000;fill-opacity:1"
           id="id-86112b34-c434-4cdb-bdb5-59ec3609ae03">
          <g
             id="g1431"
             transform="translate(148.712,134.765)">
            <path
               style="stroke:none"
               d="M 3.328125,-3.015625 C 3.390625,-3.265625 3.625,-4.1875 4.3125,-4.1875 c 0.046875,0 0.296875,0 0.5,0.125 C 4.53125,-4 4.34375,-3.765625 4.34375,-3.515625 c 0,0.15625 0.109375,0.34375 0.375,0.34375 0.21875,0 0.53125,-0.171875 0.53125,-0.578125 0,-0.515625 -0.578125,-0.65625 -0.921875,-0.65625 -0.578125,0 -0.921875,0.53125 -1.046875,0.75 -0.25,-0.65625 -0.78125,-0.75 -1.078125,-0.75 -1.03125,0 -1.609375,1.28125 -1.609375,1.53125 0,0.109375 0.109375,0.109375 0.125,0.109375 0.078125,0 0.109375,-0.03125 0.125,-0.109375 0.34375,-1.0625 1,-1.3125 1.34375,-1.3125 0.1875,0 0.53125,0.09375 0.53125,0.671875 0,0.3125 -0.171875,0.96875 -0.53125,2.375 -0.15625,0.609375 -0.515625,1.03125 -0.953125,1.03125 -0.0625,0 -0.28125,0 -0.5,-0.125 0.25,-0.0625 0.46875,-0.265625 0.46875,-0.546875 0,-0.265625 -0.21875,-0.34375 -0.359375,-0.34375 -0.3125,0 -0.546875,0.25 -0.546875,0.578125 0,0.453125 0.484375,0.65625 0.921875,0.65625 0.671875,0 1.03125,-0.703125 1.046875,-0.75 0.125,0.359375 0.484375,0.75 1.078125,0.75 1.03125,0 1.59375,-1.28125 1.59375,-1.53125 0,-0.109375 -0.078125,-0.109375 -0.109375,-0.109375 -0.09375,0 -0.109375,0.046875 -0.140625,0.109375 -0.328125,1.078125 -1,1.3125 -1.3125,1.3125 -0.390625,0 -0.546875,-0.3125 -0.546875,-0.65625 0,-0.21875 0.046875,-0.4375 0.15625,-0.875 z m 0,0"
               id="id-99d14c3d-ecc6-45e5-ba18-4974fcf01d65" />
          </g>
        </g>
      </g>
    </g>
    <g
       id="g1521"
       ns1:jacobian_sqrt="0.705556"
       ns1:inkscapeversion="1.0"
       ns1:alignment="middle center"
       ns1:scale="2.0"
       ns1:preamble="C:\\Users\\claum\\AppData\\Roaming\\inkscape\\extensions\\textext\\default_packages.tex"
       ns1:text="$y$"
       ns1:pdfconverter="inkscape"
       ns1:texconverter="pdflatex"
       ns1:version="1.0.1"
       transform="matrix(0.705556,0,0,0.705556,3.8834202,0.13385514)">
      <defs
         id="id-b0e916ca-c46b-4dd1-80e0-fa89e07d2ea6">
        <g
           id="id-276ae4ad-bcfb-47c2-b415-5b2ead2186f9">
          <symbol
             overflow="visible"
             id="id-9d329d9f-264d-46e9-a4ea-070c8058ec39">
            <path
               style="stroke:none"
               d=""
               id="id-1632d1b4-5342-411f-8892-465285600d4b" />
          </symbol>
          <symbol
             overflow="visible"
             id="id-a3ff0c83-1fd4-4b45-9c35-f128d02c24b2">
            <path
               style="stroke:none"
               d="m 4.84375,-3.796875 c 0.046875,-0.140625 0.046875,-0.15625 0.046875,-0.234375 0,-0.171875 -0.140625,-0.265625 -0.296875,-0.265625 -0.09375,0 -0.25,0.0625 -0.34375,0.203125 -0.015625,0.0625 -0.109375,0.359375 -0.140625,0.546875 -0.078125,0.25 -0.140625,0.53125 -0.203125,0.796875 l -0.453125,1.796875 c -0.03125,0.140625 -0.46875,0.84375 -1.125,0.84375 -0.5,0 -0.609375,-0.4375 -0.609375,-0.8125 C 1.71875,-1.375 1.890625,-2 2.21875,-2.875 2.375,-3.28125 2.421875,-3.390625 2.421875,-3.59375 c 0,-0.4375 -0.3125,-0.8125 -0.8125,-0.8125 -0.953125,0 -1.3125,1.453125 -1.3125,1.53125 0,0.109375 0.09375,0.109375 0.109375,0.109375 0.109375,0 0.109375,-0.03125 0.15625,-0.1875 0.28125,-0.9375 0.671875,-1.234375 1.015625,-1.234375 0.078125,0 0.25,0 0.25,0.3125 0,0.25 -0.109375,0.515625 -0.171875,0.703125 -0.40625,1.0625 -0.578125,1.625 -0.578125,2.09375 0,0.890625 0.625,1.1875 1.21875,1.1875 0.390625,0 0.71875,-0.171875 1,-0.453125 -0.125,0.515625 -0.25,1.015625 -0.640625,1.546875 -0.265625,0.328125 -0.640625,0.625 -1.09375,0.625 -0.140625,0 -0.59375,-0.03125 -0.765625,-0.421875 0.15625,0 0.296875,0 0.421875,-0.125 C 1.328125,1.203125 1.421875,1.0625 1.421875,0.875 1.421875,0.5625 1.15625,0.53125 1.0625,0.53125 0.828125,0.53125 0.5,0.6875 0.5,1.171875 c 0,0.5 0.4375,0.875 1.0625,0.875 1.015625,0 2.046875,-0.90625 2.328125,-2.03125 z m 0,0"
               id="id-70b43596-e5d5-4153-a1c9-8ceec978e1b0" />
          </symbol>
        </g>
      </defs>
      <g
         id="id-13236548-8970-43ab-a78b-810eaa0fd48b"
         transform="translate(-149.009,-130.359)">
        <g
           style="fill:#000000;fill-opacity:1"
           id="id-a5a31751-5682-40ac-8b15-145642a65a44">
          <g
             id="g1517"
             transform="translate(148.712,134.765)">
            <path
               style="stroke:none"
               d="m 4.84375,-3.796875 c 0.046875,-0.140625 0.046875,-0.15625 0.046875,-0.234375 0,-0.171875 -0.140625,-0.265625 -0.296875,-0.265625 -0.09375,0 -0.25,0.0625 -0.34375,0.203125 -0.015625,0.0625 -0.109375,0.359375 -0.140625,0.546875 -0.078125,0.25 -0.140625,0.53125 -0.203125,0.796875 l -0.453125,1.796875 c -0.03125,0.140625 -0.46875,0.84375 -1.125,0.84375 -0.5,0 -0.609375,-0.4375 -0.609375,-0.8125 C 1.71875,-1.375 1.890625,-2 2.21875,-2.875 2.375,-3.28125 2.421875,-3.390625 2.421875,-3.59375 c 0,-0.4375 -0.3125,-0.8125 -0.8125,-0.8125 -0.953125,0 -1.3125,1.453125 -1.3125,1.53125 0,0.109375 0.09375,0.109375 0.109375,0.109375 0.109375,0 0.109375,-0.03125 0.15625,-0.1875 0.28125,-0.9375 0.671875,-1.234375 1.015625,-1.234375 0.078125,0 0.25,0 0.25,0.3125 0,0.25 -0.109375,0.515625 -0.171875,0.703125 -0.40625,1.0625 -0.578125,1.625 -0.578125,2.09375 0,0.890625 0.625,1.1875 1.21875,1.1875 0.390625,0 0.71875,-0.171875 1,-0.453125 -0.125,0.515625 -0.25,1.015625 -0.640625,1.546875 -0.265625,0.328125 -0.640625,0.625 -1.09375,0.625 -0.140625,0 -0.59375,-0.03125 -0.765625,-0.421875 0.15625,0 0.296875,0 0.421875,-0.125 C 1.328125,1.203125 1.421875,1.0625 1.421875,0.875 1.421875,0.5625 1.15625,0.53125 1.0625,0.53125 0.828125,0.53125 0.5,0.6875 0.5,1.171875 c 0,0.5 0.4375,0.875 1.0625,0.875 1.015625,0 2.046875,-0.90625 2.328125,-2.03125 z m 0,0"
               id="id-6aefcddf-8703-4fcb-ab4b-811580fa3f0b" />
          </g>
        </g>
      </g>
    </g>
    <path
       sodipodi:nodetypes="cc"
       style="fill:none;stroke:#000000;stroke-width:0.264583;stroke-linecap:butt;stroke-linejoin:miter;stroke-miterlimit:4;stroke-dasharray:1.5875, 1.5875;stroke-dashoffset:0;stroke-opacity:1"
       d="M 105,50 V 160"
       id="path1555" />
    <path
       sodipodi:nodetypes="cc"
       id="path1557"
       d="m 20,135 h 85"
       style="fill:none;stroke:#000000;stroke-width:0.5;stroke-linecap:butt;stroke-linejoin:miter;stroke-miterlimit:4;stroke-dasharray:1, 0.5;stroke-dashoffset:0;stroke-opacity:1" />
    <path
       style="fill:none;stroke:#000000;stroke-width:0.5;stroke-linecap:butt;stroke-linejoin:miter;stroke-miterlimit:4;stroke-dasharray:1, 0.5;stroke-dashoffset:0;stroke-opacity:1"
       d="m 105,135 h 85"
       id="path1559"
       sodipodi:nodetypes="cc" />
    <path
       style="fill:none;stroke:#000000;stroke-width:1;stroke-linecap:butt;stroke-linejoin:miter;stroke-miterlimit:4;stroke-dasharray:none;stroke-opacity:1"
       d="m 20,115 85,40"
       id="path1561" />
    <path
       id="path1563"
       d="m 105,110 85,40"
       style="fill:none;stroke:#000000;stroke-width:1;stroke-linecap:butt;stroke-linejoin:miter;stroke-miterlimit:4;stroke-dasharray:none;stroke-opacity:1" />
    <path
       style="fill:none;stroke:#000000;stroke-width:1;stroke-linecap:butt;stroke-linejoin:miter;stroke-miterlimit:4;stroke-dasharray:none;stroke-opacity:1"
       d="M 105,155 V 110"
       id="path1565" />
    <path
       style="fill:none;fill-opacity:0.691489;fill-rule:evenodd;stroke:#000000;stroke-width:1;stroke-linecap:round;stroke-linejoin:bevel;stroke-miterlimit:4;stroke-dasharray:none;stroke-dashoffset:0"
       id="path1567"
       d="m 19.511151,136.44846 c -0.362619,-0.29952 -0.583032,-0.69586 -0.720828,-1.13801 -0.07646,-0.4639 0.09979,-0.67168 0.465544,-0.90735 -0.05068,0.0332 -0.204674,0.12965 -0.152041,0.0996 0.434062,-0.24758 0.852921,-0.5066 1.247164,-0.81303 0.341487,-0.27604 0.493566,-0.64614 0.56977,-1.06549 0.05737,-0.42958 0.0556,-0.85816 -0.06939,-1.27466 -0.161793,-0.39029 -0.48992,-0.65656 -0.822519,-0.89905 -0.420025,-0.32237 -0.829432,-0.6537 -1.18504,-1.04737 -0.296194,-0.38728 -0.503981,-0.83208 -0.631259,-1.30106 -0.07426,-0.42414 -0.141619,-0.86273 -0.01861,-1.2819 0.239642,-0.41825 0.597151,-0.75406 0.913166,-1.11449 0.311898,-0.31627 0.642035,-0.61826 0.986575,-0.89897 0.429047,-0.23336 0.788394,-0.53502 1.111457,-0.89889 0.355516,-0.41992 0.55521,-0.91291 0.653613,-1.44769 0.05102,-0.45435 -0.145264,-0.81374 -0.363701,-1.1915 -0.182385,-0.35319 -0.505811,-0.57857 -0.796667,-0.83309 -0.2774,-0.18036 -0.442511,-0.44169 -0.595874,-0.72525 -0.176105,-0.33358 -0.230966,-0.70344 -0.263708,-1.07395 -0.02448,-0.3779 -0.02171,-0.75686 -0.02116,-1.13534 0.01512,-0.36957 -0.02736,-0.74359 0.02678,-1.11021 0.05589,-0.34805 0.207891,-0.67965 0.393972,-0.97701 0.157782,-0.29433 0.398199,-0.52036 0.639609,-0.74481 0.408197,-0.33867 0.697086,-0.66871 0.880162,-1.16874 0.163288,-0.47507 0.03458,-0.88504 -0.270651,-1.25887 -0.371205,-0.33485 -0.809365,-0.58731 -1.230131,-0.85552 -0.267577,-0.17411 -0.133486,-0.0912 -0.401996,-0.24914 0,0 -0.31199,0.20235 -0.31199,0.20235 v 0 c 0.268149,0.15601 0.134145,0.0736 0.401661,0.24775 0.418557,0.26479 0.851399,0.5176 1.223032,0.84598 0.300136,0.36493 0.418184,0.76136 0.253151,1.2242 -0.18196,0.4768 -0.494321,0.83061 -0.887834,1.15326 -0.242829,0.22588 -0.478099,0.45866 -0.63648,0.75455 -0.182093,0.30499 -0.33568,0.63703 -0.387595,0.99101 -0.04709,0.36894 -0.01116,0.74329 -0.02401,1.11447 -4.23e-4,0.3795 -0.003,0.75951 0.02271,1.13836 0.03443,0.37532 0.09238,0.7495 0.270691,1.08736 0.154628,0.28723 0.321047,0.55495 0.602313,0.73688 0.287368,0.25258 0.611753,0.47122 0.791738,0.82186 0.214278,0.37053 0.406651,0.72243 0.351323,1.16818 -0.100942,0.52914 -0.303769,1.0153 -0.659511,1.42812 -0.327252,0.36046 -0.693664,0.65291 -1.116621,0.89502 -0.341413,0.28492 -0.675556,0.58205 -0.982641,0.90373 -0.319576,0.36079 -0.681672,0.70074 -0.908104,1.13058 -0.112964,0.42721 -0.0501,0.86987 0.02819,1.29957 0.130952,0.47385 0.341935,0.92331 0.641866,1.31492 0.356239,0.39631 0.765939,0.73062 1.187291,1.05515 0.327091,0.23567 0.65092,0.49629 0.809637,0.87839 0.122253,0.41141 0.121208,0.83553 0.06119,1.25895 -0.07978,0.41347 -0.238802,0.77269 -0.579487,1.04015 -0.600878,0.46091 -0.615844,0.43051 -1.097589,0.71138 -0.368992,0.24854 -0.526419,0.48651 -0.444349,0.95059 0.141901,0.44807 0.366671,0.84978 0.730367,1.15801 0,0 0.316817,-0.19901 0.316817,-0.19901 z" />
    <path
       style="fill:none;fill-opacity:0.691489;fill-rule:evenodd;stroke:#000000;stroke-width:1;stroke-linecap:round;stroke-linejoin:bevel;stroke-miterlimit:4;stroke-dasharray:none;stroke-dashoffset:0"
       id="path1569"
       d="m 190.56836,133.20612 c -0.44938,0.26299 -0.88856,0.53925 -1.11193,1.0247 -0.11296,0.4239 0.15158,0.73236 0.42603,1.0213 0.25497,0.2295 0.55472,0.39508 0.83567,0.58767 0.28952,0.19723 0.52078,0.40083 0.65132,0.73025 0.0926,0.34325 0.1209,0.70625 0.0803,1.05901 -0.0475,0.3872 -0.26241,0.72252 -0.4566,1.05176 -0.22882,0.32395 -0.55925,0.55227 -0.84695,0.81946 -0.23367,0.21852 -0.48188,0.41242 -0.75096,0.58546 -0.2623,0.24812 -0.3201,0.59856 -0.36131,0.94082 -0.0485,0.40807 -0.0262,0.81103 0.0832,1.20684 0.10014,0.44724 0.36791,0.79352 0.64013,1.14702 0.27422,0.35559 0.5392,0.7254 0.75063,1.1224 0.20908,0.34366 0.39393,0.68799 0.49718,1.0782 0.0804,0.42107 0.0842,0.85147 0.0888,1.27865 0.023,0.35885 -0.0304,0.70992 -0.14157,1.05044 -0.12001,0.38963 -0.32233,0.74548 -0.49589,1.11233 -0.20422,0.4314 -0.25946,0.90296 -0.29512,1.37287 -0.0526,0.42598 0.0897,0.82516 0.20491,1.22705 0.1484,0.419 0.48648,0.58534 0.85979,0.76011 0.16941,0.0784 0.31025,0.192 0.44771,0.3154 0,0 0.31705,-0.19648 0.31705,-0.19648 v 0 c -0.13911,-0.12669 -0.28144,-0.24374 -0.45339,-0.3249 -0.36378,-0.17103 -0.7009,-0.31917 -0.84398,-0.73252 -0.11454,-0.39799 -0.2529,-0.79315 -0.1994,-1.21497 0.0365,-0.4665 0.0949,-0.93347 0.3007,-1.36041 0.17586,-0.3675 0.37656,-0.72594 0.49544,-1.1177 0.10688,-0.34517 0.15964,-0.69851 0.13544,-1.06071 -0.005,-0.43007 -0.0103,-0.86338 -0.0928,-1.28706 -0.10564,-0.39223 -0.29115,-0.73959 -0.50153,-1.08557 -0.21333,-0.39826 -0.47962,-0.76963 -0.75419,-1.12748 -0.26978,-0.34987 -0.53491,-0.69107 -0.63269,-1.13461 -0.10698,-0.39179 -0.1249,-0.79091 -0.0759,-1.19415 0.0432,-0.33606 0.10381,-0.68005 0.37539,-0.91161 0.26607,-0.17721 0.51496,-0.37079 0.74739,-0.59064 0.29112,-0.26531 0.62057,-0.49896 0.8428,-0.82961 0.19626,-0.33286 0.40598,-0.67437 0.44988,-1.06613 0.0361,-0.359 0.01,-0.7272 -0.0881,-1.07541 -0.13486,-0.33583 -0.36673,-0.54713 -0.66264,-0.74904 -0.27789,-0.19288 -0.5772,-0.35496 -0.8321,-0.58092 -0.26616,-0.27695 -0.52585,-0.57286 -0.40608,-0.98092 0.23358,-0.46795 0.68044,-0.7484 1.12145,-1.00705 0,0 -0.34796,0.13615 -0.34796,0.13615 z" />
    <path
       id="path1571"
       d="M 105,155 H 10"
       style="fill:none;stroke:#000000;stroke-width:0.264583;stroke-linecap:butt;stroke-linejoin:miter;stroke-miterlimit:4;stroke-dasharray:1.5875, 1.5875;stroke-dashoffset:0;stroke-opacity:1"
       sodipodi:nodetypes="cc" />
    <path
       sodipodi:nodetypes="cc"
       style="fill:none;stroke:#000000;stroke-width:0.264583;stroke-linecap:butt;stroke-linejoin:miter;stroke-miterlimit:4;stroke-dasharray:1.5875, 1.5875;stroke-dashoffset:0;stroke-opacity:1"
       d="M 200,110 H 105"
       id="path1573" />
    <g
       transform="matrix(4.3151156,0,0,4.5067267,89.100445,109.94543)"
       ns1:version="1.0.1"
       ns1:texconverter="pdflatex"
       ns1:pdfconverter="inkscape"
       ns1:text="\\{"
       ns1:preamble="C:\\Users\\claum\\AppData\\Roaming\\inkscape\\extensions\\textext\\default_packages.tex"
       ns1:scale="2.0"
       ns1:alignment="middle center"
       ns1:inkscapeversion="1.0"
       ns1:jacobian_sqrt="0.705556"
       id="g183">
      <defs
         id="id-4b606139-792e-45af-ad79-837c8d73cade">
        <g
           id="id-28571a19-0d5d-44b0-8120-7d313b28f1d7">
          <symbol
             id="id-475ac194-c1c8-4641-8e64-15befab995bf"
             overflow="visible">
            <path
               id="id-83ebe828-4e9b-4bde-a622-b2fd20fe3745"
               d=""
               style="stroke:none" />
          </symbol>
          <symbol
             id="id-72227982-7162-4a1f-b028-659a38b7f948"
             overflow="visible">
            <path
               id="id-c4093e1b-6c1b-4847-a019-2742afe34839"
               d="m 2.828125,-6.15625 c 0,-0.390625 0.25,-1.03125 1.34375,-1.09375 C 4.21875,-7.265625 4.25,-7.3125 4.25,-7.359375 c 0,-0.125 -0.078125,-0.125 -0.1875,-0.125 -0.984375,0 -1.90625,0.515625 -1.90625,1.25 v 2.28125 c 0,0.390625 0,0.703125 -0.40625,1.03125 -0.34375,0.296875 -0.71875,0.3125 -0.9375,0.3125 C 0.75,-2.59375 0.71875,-2.546875 0.71875,-2.5 c 0,0.109375 0.0625,0.109375 0.15625,0.125 0.65625,0.03125 1.140625,0.390625 1.25,0.875 0.03125,0.109375 0.03125,0.140625 0.03125,0.5 v 1.96875 c 0,0.421875 0,0.734375 0.46875,1.109375 C 3.015625,2.375 3.671875,2.5 4.0625,2.5 4.171875,2.5 4.25,2.5 4.25,2.375 4.25,2.28125 4.203125,2.28125 4.09375,2.265625 3.46875,2.234375 2.984375,1.90625 2.84375,1.40625 2.828125,1.3125 2.828125,1.296875 2.828125,0.9375 v -2.09375 c 0,-0.453125 -0.09375,-0.625 -0.40625,-0.953125 C 2.21875,-2.3125 1.921875,-2.40625 1.640625,-2.5 c 0.828125,-0.21875 1.1875,-0.6875 1.1875,-1.265625 z m 0,0"
               style="stroke:none" />
          </symbol>
        </g>
      </defs>
      <g
         transform="translate(-149.431,-127.281)"
         id="id-d63ef165-9c7d-4c3e-a4bb-cb1bf2886af1">
        <g
           id="id-4959c652-c60f-47e6-81b4-b499a6a9834f"
           style="fill:#000000;fill-opacity:1">
          <g
             transform="translate(148.712,134.765)"
             id="g179">
            <path
               id="id-06205692-b539-4b2d-837a-c8cb2d431f69"
               d="m 2.828125,-6.15625 c 0,-0.390625 0.25,-1.03125 1.34375,-1.09375 C 4.21875,-7.265625 4.25,-7.3125 4.25,-7.359375 c 0,-0.125 -0.078125,-0.125 -0.1875,-0.125 -0.984375,0 -1.90625,0.515625 -1.90625,1.25 v 2.28125 c 0,0.390625 0,0.703125 -0.40625,1.03125 -0.34375,0.296875 -0.71875,0.3125 -0.9375,0.3125 C 0.75,-2.59375 0.71875,-2.546875 0.71875,-2.5 c 0,0.109375 0.0625,0.109375 0.15625,0.125 0.65625,0.03125 1.140625,0.390625 1.25,0.875 0.03125,0.109375 0.03125,0.140625 0.03125,0.5 v 1.96875 c 0,0.421875 0,0.734375 0.46875,1.109375 C 3.015625,2.375 3.671875,2.5 4.0625,2.5 4.171875,2.5 4.25,2.5 4.25,2.375 4.25,2.28125 4.203125,2.28125 4.09375,2.265625 3.46875,2.234375 2.984375,1.90625 2.84375,1.40625 2.828125,1.3125 2.828125,1.296875 2.828125,0.9375 v -2.09375 c 0,-0.453125 -0.09375,-0.625 -0.40625,-0.953125 C 2.21875,-2.3125 1.921875,-2.40625 1.640625,-2.5 c 0.828125,-0.21875 1.1875,-0.6875 1.1875,-1.265625 z m 0,0"
               style="stroke:none" />
          </g>
        </g>
      </g>
    </g>
    <path
       d="m 77.001524,154.7081 a 27.999998,28 0 0 1 2.622659,-11.54313"
       sodipodi:arc-type="arc"
       sodipodi:open="true"
       sodipodi:end="3.5779925"
       sodipodi:start="3.152018"
       sodipodi:ry="28"
       sodipodi:rx="27.999998"
       sodipodi:cy="155"
       sodipodi:cx="105"
       sodipodi:type="arc"
       id="path1046"
       style="fill:none;fill-opacity:0.691489;fill-rule:evenodd;stroke:#000000;stroke-width:0.5;stroke-linecap:round;stroke-linejoin:bevel;stroke-miterlimit:4;stroke-dasharray:none;stroke-dashoffset:0" />
    <path
       transform="scale(-1)"
       style="fill:none;fill-opacity:0.691489;fill-rule:evenodd;stroke:#000000;stroke-width:0.5;stroke-linecap:round;stroke-linejoin:bevel;stroke-miterlimit:4;stroke-dasharray:none;stroke-dashoffset:0"
       id="path1048"
       sodipodi:type="arc"
       sodipodi:cx="-105.00153"
       sodipodi:cy="-109.7081"
       sodipodi:rx="27.999998"
       sodipodi:ry="28"
       sodipodi:start="3.159176"
       sodipodi:end="3.5779925"
       sodipodi:open="true"
       sodipodi:arc-type="arc"
       d="m -132.9972,-110.20041 a 27.999998,28 0 0 1 2.61985,-11.34271" />
    <path
       sodipodi:nodetypes="cc"
       style="fill:none;stroke:#000000;stroke-width:0.5;stroke-linecap:butt;stroke-linejoin:miter;stroke-miterlimit:4;stroke-dasharray:none;stroke-dashoffset:0;stroke-opacity:1"
       d="m 10,135 v 20"
       id="path1050" />
    <path
       id="path1052"
       d="M 5,140 15,130"
       style="fill:none;stroke:#000000;stroke-width:0.264583px;stroke-linecap:butt;stroke-linejoin:miter;stroke-opacity:1" />
    <path
       style="fill:none;stroke:#000000;stroke-width:0.264583px;stroke-linecap:butt;stroke-linejoin:miter;stroke-opacity:1"
       d="M 5,160 15,150"
       id="path1054" />
    <path
       id="path1056"
       d="m 200,110 v 25"
       style="fill:none;stroke:#000000;stroke-width:0.559017;stroke-linecap:butt;stroke-linejoin:miter;stroke-miterlimit:4;stroke-dasharray:none;stroke-dashoffset:0;stroke-opacity:1"
       sodipodi:nodetypes="cc" />
    <path
       id="path1058"
       d="m 195,115 10,-10"
       style="fill:none;stroke:#000000;stroke-width:0.264583px;stroke-linecap:butt;stroke-linejoin:miter;stroke-opacity:1" />
    <path
       style="fill:none;stroke:#000000;stroke-width:0.264583px;stroke-linecap:butt;stroke-linejoin:miter;stroke-opacity:1"
       d="m 195,140 10,-10"
       id="path1060" />
    <path
       id="path1062"
       d="M 200,135 H 190"
       style="fill:none;stroke:#000000;stroke-width:0.0858421;stroke-linecap:butt;stroke-linejoin:miter;stroke-miterlimit:4;stroke-dasharray:0.515053, 0.515053;stroke-dashoffset:0;stroke-opacity:1"
       sodipodi:nodetypes="cc" />
    <path
       sodipodi:nodetypes="cc"
       style="fill:none;stroke:#000000;stroke-width:0.0858421;stroke-linecap:butt;stroke-linejoin:miter;stroke-miterlimit:4;stroke-dasharray:0.515053, 0.515053;stroke-dashoffset:0;stroke-opacity:1"
       d="M 20,135 H 10"
       id="path1064" />
    <g
       transform="matrix(0.705556,0,0,0.705556,81.176215,128.67726)"
       ns1:version="1.0.1"
       ns1:texconverter="pdflatex"
       ns1:pdfconverter="inkscape"
       ns1:text="$\\mathcal{M}$"
       ns1:preamble="C:\\Users\\claum\\AppData\\Roaming\\inkscape\\extensions\\textext\\default_packages.tex"
       ns1:scale="2.0"
       ns1:alignment="middle center"
       ns1:inkscapeversion="1.0"
       ns1:jacobian_sqrt="0.705556"
       id="g1086">
      <defs
         id="defs1076">
        <g
           id="g1074">
          <symbol
             id="symbol1068"
             overflow="visible">
            <path
               id="path1066"
               d=""
               style="stroke:none" />
          </symbol>
          <symbol
             id="symbol1072"
             overflow="visible">
            <path
               id="path1070"
               d="m 3.84375,-5.578125 c 0.265625,1.296875 0.703125,3.4375 1.265625,4.59375 0.21875,0.421875 0.328125,0.640625 0.4375,0.640625 0.03125,0 0.0625,0 0.234375,-0.171875 C 6.546875,-1.25 7.0625,-1.828125 7.75,-2.625 l 2.1875,-2.53125 c -0.140625,0.84375 -0.5,3.078125 -0.5,4.25 0,0.265625 0.015625,0.53125 0.046875,0.796875 0,0.109375 0.046875,0.40625 0.46875,0.40625 0.421875,0 1.171875,-0.453125 1.171875,-0.640625 0,-0.0625 -0.0625,-0.078125 -0.09375,-0.078125 -0.125,0 -0.328125,0.09375 -0.4375,0.15625 -0.234375,-0.03125 -0.25,-0.1875 -0.28125,-0.40625 -0.03125,-0.328125 -0.03125,-0.625 -0.03125,-0.65625 0,-1.109375 0.4375,-4.140625 0.734375,-5.375 0.01563,-0.0625 0.01563,-0.078125 0.01563,-0.171875 0,-0.03125 0,-0.140625 -0.07813,-0.140625 -0.03125,0 -0.04687,0 -0.234375,0.234375 -0.9375,1.125 -3.84375,4.625 -4.84375,5.453125 C 5.625,-1.859375 5.453125,-2.234375 5.109375,-3.625 4.8125,-4.75 4.640625,-5.578125 4.46875,-6.546875 4.453125,-6.6875 4.390625,-6.953125 4.390625,-6.984375 4.359375,-7.03125 4.3125,-7.03125 4.28125,-7.03125 c -0.171875,0 -0.59375,0.21875 -0.625,0.4375 -0.125,0.828125 -0.3125,2.140625 -1.015625,4.046875 -0.796875,2.125 -1.015625,2.125 -1.203125,2.125 -0.125,0 -0.5,-0.078125 -0.71875,-0.28125 C 0.671875,-0.75 0.640625,-0.75 0.625,-0.75 c -0.140625,0 -0.359375,0.453125 -0.359375,0.734375 0,0.078125 0,0.203125 0.328125,0.375 C 0.84375,0.484375 1.078125,0.5 1.125,0.5 1.75,0.5 2.328125,-0.921875 2.53125,-1.4375 3,-2.5625 3.5625,-4.140625 3.84375,-5.578125 Z m 0,0"
               style="stroke:none" />
          </symbol>
        </g>
      </defs>
      <g
         transform="translate(-148.978,-127.734)"
         id="g1084">
        <g
           id="g1082"
           style="fill:#000000;fill-opacity:1">
          <g
             transform="translate(148.712,134.765)"
             id="g1080">
            <path
               id="path1078"
               d="m 3.84375,-5.578125 c 0.265625,1.296875 0.703125,3.4375 1.265625,4.59375 0.21875,0.421875 0.328125,0.640625 0.4375,0.640625 0.03125,0 0.0625,0 0.234375,-0.171875 C 6.546875,-1.25 7.0625,-1.828125 7.75,-2.625 l 2.1875,-2.53125 c -0.140625,0.84375 -0.5,3.078125 -0.5,4.25 0,0.265625 0.015625,0.53125 0.046875,0.796875 0,0.109375 0.046875,0.40625 0.46875,0.40625 0.421875,0 1.171875,-0.453125 1.171875,-0.640625 0,-0.0625 -0.0625,-0.078125 -0.09375,-0.078125 -0.125,0 -0.328125,0.09375 -0.4375,0.15625 -0.234375,-0.03125 -0.25,-0.1875 -0.28125,-0.40625 -0.03125,-0.328125 -0.03125,-0.625 -0.03125,-0.65625 0,-1.109375 0.4375,-4.140625 0.734375,-5.375 0.01563,-0.0625 0.01563,-0.078125 0.01563,-0.171875 0,-0.03125 0,-0.140625 -0.07813,-0.140625 -0.03125,0 -0.04687,0 -0.234375,0.234375 -0.9375,1.125 -3.84375,4.625 -4.84375,5.453125 C 5.625,-1.859375 5.453125,-2.234375 5.109375,-3.625 4.8125,-4.75 4.640625,-5.578125 4.46875,-6.546875 4.453125,-6.6875 4.390625,-6.953125 4.390625,-6.984375 4.359375,-7.03125 4.3125,-7.03125 4.28125,-7.03125 c -0.171875,0 -0.59375,0.21875 -0.625,0.4375 -0.125,0.828125 -0.3125,2.140625 -1.015625,4.046875 -0.796875,2.125 -1.015625,2.125 -1.203125,2.125 -0.125,0 -0.5,-0.078125 -0.71875,-0.28125 C 0.671875,-0.75 0.640625,-0.75 0.625,-0.75 c -0.140625,0 -0.359375,0.453125 -0.359375,0.734375 0,0.078125 0,0.203125 0.328125,0.375 C 0.84375,0.484375 1.078125,0.5 1.125,0.5 1.75,0.5 2.328125,-0.921875 2.53125,-1.4375 3,-2.5625 3.5625,-4.140625 3.84375,-5.578125 Z m 0,0"
               style="stroke:none" />
          </g>
        </g>
      </g>
    </g>
    <g
       transform="matrix(0.705556,0,0,0.705556,83.265946,136.69297)"
       ns1:version="1.0.1"
       ns1:texconverter="pdflatex"
       ns1:pdfconverter="inkscape"
       ns1:text="\\textbf{(+)}"
       ns1:preamble="C:\\Users\\claum\\AppData\\Roaming\\inkscape\\extensions\\textext\\default_packages.tex"
       ns1:scale="2.0"
       ns1:alignment="middle center"
       ns1:inkscapeversion="1.0"
       ns1:jacobian_sqrt="0.705556"
       id="g1221">
      <defs
         id="id-03cfb702-c0b9-4255-a3c9-4bd99cd07e9f">
        <g
           id="id-e96dd3e3-aece-43ad-9ee5-ac953abe11f6">
          <symbol
             id="id-08fdead5-802d-46ea-a1a1-af4a8ce5f1c0"
             overflow="visible">
            <path
               id="id-2e67eab5-2539-495b-8f65-c518c4f5ee89"
               d=""
               style="stroke:none" />
          </symbol>
          <symbol
             id="id-f744a81b-230e-4051-8b13-cf71ef236abc"
             overflow="visible">
            <path
               id="id-ca4d4b0d-55ad-4a34-86ca-3fa7db70b915"
               d="M 3.78125,2.25 C 3.484375,1.96875 2.84375,1.359375 2.421875,0.09375 2.15625,-0.703125 2.046875,-1.609375 2.046875,-2.5 c 0,-1.953125 0.5,-3.515625 1.609375,-4.625 0.140625,-0.15625 0.15625,-0.15625 0.15625,-0.21875 0,-0.109375 -0.109375,-0.140625 -0.1875,-0.140625 -0.171875,0 -0.578125,0.375 -0.765625,0.546875 -1.546875,1.546875 -1.78125,3.375 -1.78125,4.4375 0,1.25 0.328125,2.34375 0.796875,3.171875 0.65625,1.140625 1.5625,1.8125 1.75,1.8125 0.078125,0 0.1875,-0.03125 0.1875,-0.140625 C 3.8125,2.296875 3.78125,2.25 3.78125,2.25 Z m 0,0"
               style="stroke:none" />
          </symbol>
          <symbol
             id="id-5f61aece-8f9d-4331-9fbd-c29365af5eae"
             overflow="visible">
            <path
               id="id-4f02c5b7-5be8-4f5b-9e2b-d7857b34b46b"
               d="m 4.75,-2.1875 h 3.078125 c 0.140625,0 0.4375,0 0.4375,-0.3125 0,-0.296875 -0.296875,-0.296875 -0.4375,-0.296875 H 4.75 v -3.09375 c 0,-0.125 0,-0.421875 -0.296875,-0.421875 -0.3125,0 -0.3125,0.296875 -0.3125,0.421875 v 3.09375 H 1.0625 c -0.140625,0 -0.421875,0 -0.421875,0.296875 0,0.3125 0.296875,0.3125 0.421875,0.3125 h 3.078125 v 3.078125 c 0,0.125 0,0.421875 0.3125,0.421875 C 4.75,1.3125 4.75,1.03125 4.75,0.890625 Z m 0,0"
               style="stroke:none" />
          </symbol>
          <symbol
             id="id-97b81414-1321-4ccb-af7f-1e9eddc14215"
             overflow="visible">
            <path
               id="id-98917098-3c41-4264-927a-42caae8b9591"
               d="M 3.375,-2.5 C 3.375,-3.734375 3.046875,-4.828125 2.578125,-5.65625 1.90625,-6.8125 1,-7.484375 0.8125,-7.484375 c -0.078125,0 -0.171875,0.03125 -0.171875,0.140625 0,0.0625 0,0.078125 0.171875,0.234375 1.25,1.28125 1.59375,3.046875 1.59375,4.609375 0,1.96875 -0.515625,3.53125 -1.609375,4.640625 -0.15625,0.140625 -0.15625,0.15625 -0.15625,0.203125 0,0.109375 0.09375,0.140625 0.171875,0.140625 0.171875,0 0.59375,-0.375 0.765625,-0.546875 C 3.140625,0.40625 3.375,-1.4375 3.375,-2.5 Z m 0,0"
               style="stroke:none" />
          </symbol>
        </g>
      </defs>
      <g
         transform="translate(-149.79,-127.281)"
         id="id-afc84f89-05d6-4218-a983-433c1aa54f09">
        <g
           id="id-76874b73-041b-4ed0-94f8-ea86762e9754"
           style="fill:#000000;fill-opacity:1">
          <g
             transform="translate(148.712,134.765)"
             id="g1211">
            <path
               id="id-07946911-759f-4b8c-800e-5a2e5c8e098d"
               d="M 3.78125,2.25 C 3.484375,1.96875 2.84375,1.359375 2.421875,0.09375 2.15625,-0.703125 2.046875,-1.609375 2.046875,-2.5 c 0,-1.953125 0.5,-3.515625 1.609375,-4.625 0.140625,-0.15625 0.15625,-0.15625 0.15625,-0.21875 0,-0.109375 -0.109375,-0.140625 -0.1875,-0.140625 -0.171875,0 -0.578125,0.375 -0.765625,0.546875 -1.546875,1.546875 -1.78125,3.375 -1.78125,4.4375 0,1.25 0.328125,2.34375 0.796875,3.171875 0.65625,1.140625 1.5625,1.8125 1.75,1.8125 0.078125,0 0.1875,-0.03125 0.1875,-0.140625 C 3.8125,2.296875 3.78125,2.25 3.78125,2.25 Z m 0,0"
               style="stroke:none" />
          </g>
          <g
             transform="translate(153.167,134.765)"
             id="g1214">
            <path
               id="id-815b446c-2f86-4eed-8a67-fc0c763e77fd"
               d="m 4.75,-2.1875 h 3.078125 c 0.140625,0 0.4375,0 0.4375,-0.3125 0,-0.296875 -0.296875,-0.296875 -0.4375,-0.296875 H 4.75 v -3.09375 c 0,-0.125 0,-0.421875 -0.296875,-0.421875 -0.3125,0 -0.3125,0.296875 -0.3125,0.421875 v 3.09375 H 1.0625 c -0.140625,0 -0.421875,0 -0.421875,0.296875 0,0.3125 0.296875,0.3125 0.421875,0.3125 h 3.078125 v 3.078125 c 0,0.125 0,0.421875 0.3125,0.421875 C 4.75,1.3125 4.75,1.03125 4.75,0.890625 Z m 0,0"
               style="stroke:none" />
          </g>
          <g
             transform="translate(162.078,134.765)"
             id="g1217">
            <path
               id="id-31ff10ae-828e-4ff2-a38e-739e92d21bbc"
               d="M 3.375,-2.5 C 3.375,-3.734375 3.046875,-4.828125 2.578125,-5.65625 1.90625,-6.8125 1,-7.484375 0.8125,-7.484375 c -0.078125,0 -0.171875,0.03125 -0.171875,0.140625 0,0.0625 0,0.078125 0.171875,0.234375 1.25,1.28125 1.59375,3.046875 1.59375,4.609375 0,1.96875 -0.515625,3.53125 -1.609375,4.640625 -0.15625,0.140625 -0.15625,0.15625 -0.15625,0.203125 0,0.109375 0.09375,0.140625 0.171875,0.140625 0.171875,0 0.59375,-0.375 0.765625,-0.546875 C 3.140625,0.40625 3.375,-1.4375 3.375,-2.5 Z m 0,0"
               style="stroke:none" />
          </g>
        </g>
      </g>
    </g>
    <g
       id="g1281"
       ns1:jacobian_sqrt="0.705556"
       ns1:inkscapeversion="1.0"
       ns1:alignment="middle center"
       ns1:scale="2.0"
       ns1:preamble="C:\\Users\\claum\\AppData\\Roaming\\inkscape\\extensions\\textext\\default_packages.tex"
       ns1:text="\\textbf{(+)}"
       ns1:pdfconverter="inkscape"
       ns1:texconverter="pdflatex"
       ns1:version="1.0.1"
       transform="matrix(0.705556,0,0,0.705556,176.26595,136.26302)">
      <defs
         id="defs1263">
        <g
           id="g1261">
          <symbol
             overflow="visible"
             id="symbol1247">
            <path
               style="stroke:none"
               d=""
               id="path1245" />
          </symbol>
          <symbol
             overflow="visible"
             id="symbol1251">
            <path
               style="stroke:none"
               d="M 3.78125,2.25 C 3.484375,1.96875 2.84375,1.359375 2.421875,0.09375 2.15625,-0.703125 2.046875,-1.609375 2.046875,-2.5 c 0,-1.953125 0.5,-3.515625 1.609375,-4.625 0.140625,-0.15625 0.15625,-0.15625 0.15625,-0.21875 0,-0.109375 -0.109375,-0.140625 -0.1875,-0.140625 -0.171875,0 -0.578125,0.375 -0.765625,0.546875 -1.546875,1.546875 -1.78125,3.375 -1.78125,4.4375 0,1.25 0.328125,2.34375 0.796875,3.171875 0.65625,1.140625 1.5625,1.8125 1.75,1.8125 0.078125,0 0.1875,-0.03125 0.1875,-0.140625 C 3.8125,2.296875 3.78125,2.25 3.78125,2.25 Z m 0,0"
               id="path1249" />
          </symbol>
          <symbol
             overflow="visible"
             id="symbol1255">
            <path
               style="stroke:none"
               d="m 4.75,-2.1875 h 3.078125 c 0.140625,0 0.4375,0 0.4375,-0.3125 0,-0.296875 -0.296875,-0.296875 -0.4375,-0.296875 H 4.75 v -3.09375 c 0,-0.125 0,-0.421875 -0.296875,-0.421875 -0.3125,0 -0.3125,0.296875 -0.3125,0.421875 v 3.09375 H 1.0625 c -0.140625,0 -0.421875,0 -0.421875,0.296875 0,0.3125 0.296875,0.3125 0.421875,0.3125 h 3.078125 v 3.078125 c 0,0.125 0,0.421875 0.3125,0.421875 C 4.75,1.3125 4.75,1.03125 4.75,0.890625 Z m 0,0"
               id="path1253" />
          </symbol>
          <symbol
             overflow="visible"
             id="symbol1259">
            <path
               style="stroke:none"
               d="M 3.375,-2.5 C 3.375,-3.734375 3.046875,-4.828125 2.578125,-5.65625 1.90625,-6.8125 1,-7.484375 0.8125,-7.484375 c -0.078125,0 -0.171875,0.03125 -0.171875,0.140625 0,0.0625 0,0.078125 0.171875,0.234375 1.25,1.28125 1.59375,3.046875 1.59375,4.609375 0,1.96875 -0.515625,3.53125 -1.609375,4.640625 -0.15625,0.140625 -0.15625,0.15625 -0.15625,0.203125 0,0.109375 0.09375,0.140625 0.171875,0.140625 0.171875,0 0.59375,-0.375 0.765625,-0.546875 C 3.140625,0.40625 3.375,-1.4375 3.375,-2.5 Z m 0,0"
               id="path1257" />
          </symbol>
        </g>
      </defs>
      <g
         id="g1279"
         transform="translate(-149.79,-127.281)">
        <g
           style="fill:#000000;fill-opacity:1"
           id="g1277">
          <g
             id="g1267"
             transform="translate(148.712,134.765)">
            <path
               style="stroke:none"
               d="M 3.78125,2.25 C 3.484375,1.96875 2.84375,1.359375 2.421875,0.09375 2.15625,-0.703125 2.046875,-1.609375 2.046875,-2.5 c 0,-1.953125 0.5,-3.515625 1.609375,-4.625 0.140625,-0.15625 0.15625,-0.15625 0.15625,-0.21875 0,-0.109375 -0.109375,-0.140625 -0.1875,-0.140625 -0.171875,0 -0.578125,0.375 -0.765625,0.546875 -1.546875,1.546875 -1.78125,3.375 -1.78125,4.4375 0,1.25 0.328125,2.34375 0.796875,3.171875 0.65625,1.140625 1.5625,1.8125 1.75,1.8125 0.078125,0 0.1875,-0.03125 0.1875,-0.140625 C 3.8125,2.296875 3.78125,2.25 3.78125,2.25 Z m 0,0"
               id="path1265" />
          </g>
          <g
             id="g1271"
             transform="translate(153.167,134.765)">
            <path
               style="stroke:none"
               d="m 4.75,-2.1875 h 3.078125 c 0.140625,0 0.4375,0 0.4375,-0.3125 0,-0.296875 -0.296875,-0.296875 -0.4375,-0.296875 H 4.75 v -3.09375 c 0,-0.125 0,-0.421875 -0.296875,-0.421875 -0.3125,0 -0.3125,0.296875 -0.3125,0.421875 v 3.09375 H 1.0625 c -0.140625,0 -0.421875,0 -0.421875,0.296875 0,0.3125 0.296875,0.3125 0.421875,0.3125 h 3.078125 v 3.078125 c 0,0.125 0,0.421875 0.3125,0.421875 C 4.75,1.3125 4.75,1.03125 4.75,0.890625 Z m 0,0"
               id="path1269" />
          </g>
          <g
             id="g1275"
             transform="translate(162.078,134.765)">
            <path
               style="stroke:none"
               d="M 3.375,-2.5 C 3.375,-3.734375 3.046875,-4.828125 2.578125,-5.65625 1.90625,-6.8125 1,-7.484375 0.8125,-7.484375 c -0.078125,0 -0.171875,0.03125 -0.171875,0.140625 0,0.0625 0,0.078125 0.171875,0.234375 1.25,1.28125 1.59375,3.046875 1.59375,4.609375 0,1.96875 -0.515625,3.53125 -1.609375,4.640625 -0.15625,0.140625 -0.15625,0.15625 -0.15625,0.203125 0,0.109375 0.09375,0.140625 0.171875,0.140625 0.171875,0 0.59375,-0.375 0.765625,-0.546875 C 3.140625,0.40625 3.375,-1.4375 3.375,-2.5 Z m 0,0"
               id="path1273" />
          </g>
        </g>
      </g>
    </g>
    <g
       transform="matrix(0.705556,0,0,0.705556,23.368137,123.0329)"
       ns1:version="1.0.1"
       ns1:texconverter="pdflatex"
       ns1:pdfconverter="inkscape"
       ns1:text="$\\mathbf{(-)}$"
       ns1:preamble="C:\\Users\\claum\\AppData\\Roaming\\inkscape\\extensions\\textext\\default_packages.tex"
       ns1:scale="2.0"
       ns1:alignment="middle center"
       ns1:inkscapeversion="1.0"
       ns1:jacobian_sqrt="0.705556"
       id="g1458">
      <defs
         id="id-448fa879-9f81-425c-a00f-4f2540ee058d">
        <g
           id="id-4c171c47-ac73-409a-90fb-4161045ba6fc">
          <symbol
             id="id-d7fac091-a671-4bc2-b573-5e8748debb25"
             overflow="visible">
            <path
               id="id-41550f87-734a-4eae-b890-e9baa98d3762"
               d=""
               style="stroke:none" />
          </symbol>
          <symbol
             id="id-9c6976b9-7cdc-4a65-8826-90a4498291fe"
             overflow="visible">
            <path
               id="id-260eefd6-b083-42bf-a14e-2ee86272f8c9"
               d="m 3.296875,2.390625 c 0,-0.03125 0,-0.046875 -0.171875,-0.21875 C 1.890625,0.921875 1.5625,-0.96875 1.5625,-2.5 c 0,-1.734375 0.375,-3.46875 1.609375,-4.703125 0.125,-0.125 0.125,-0.140625 0.125,-0.171875 0,-0.078125 -0.03125,-0.109375 -0.09375,-0.109375 -0.109375,0 -1,0.6875 -1.59375,1.953125 -0.5,1.09375 -0.625,2.203125 -0.625,3.03125 0,0.78125 0.109375,1.984375 0.65625,3.125 C 2.25,1.84375 3.09375,2.5 3.203125,2.5 c 0.0625,0 0.09375,-0.03125 0.09375,-0.109375 z m 0,0"
               style="stroke:none" />
          </symbol>
          <symbol
             id="id-446bbed0-056d-4df0-a3eb-c471f4740db1"
             overflow="visible">
            <path
               id="id-0d5a04a8-1ef2-45a2-8c75-504cc00bd941"
               d="m 2.875,-2.5 c 0,-0.765625 -0.109375,-1.96875 -0.65625,-3.109375 -0.59375,-1.21875 -1.453125,-1.875 -1.546875,-1.875 -0.0625,0 -0.109375,0.046875 -0.109375,0.109375 0,0.03125 0,0.046875 0.1875,0.234375 0.984375,0.984375 1.546875,2.5625 1.546875,4.640625 0,1.71875 -0.359375,3.46875 -1.59375,4.71875 C 0.5625,2.34375 0.5625,2.359375 0.5625,2.390625 0.5625,2.453125 0.609375,2.5 0.671875,2.5 0.765625,2.5 1.671875,1.8125 2.25,0.546875 2.765625,-0.546875 2.875,-1.65625 2.875,-2.5 Z m 0,0"
               style="stroke:none" />
          </symbol>
          <symbol
             id="id-8c9e6784-32e8-428b-81cc-e37b5ef06123"
             overflow="visible">
            <path
               id="id-5557f39b-e65a-4f06-b817-c6e6deef711c"
               d=""
               style="stroke:none" />
          </symbol>
          <symbol
             id="id-a60650b7-b06d-419d-9bc1-cc472f6bc232"
             overflow="visible">
            <path
               id="id-04ad4a52-8c39-4565-b072-29c851131547"
               d="m 6.5625,-2.296875 c 0.171875,0 0.359375,0 0.359375,-0.203125 0,-0.1875 -0.1875,-0.1875 -0.359375,-0.1875 H 1.171875 c -0.171875,0 -0.34375,0 -0.34375,0.1875 0,0.203125 0.171875,0.203125 0.34375,0.203125 z m 0,0"
               style="stroke:none" />
          </symbol>
        </g>
      </defs>
      <g
         transform="translate(-149.696,-127.281)"
         id="id-643a237c-b85d-42e8-9726-ced518c91f02">
        <g
           id="id-893be0d1-ca94-4261-bd48-a828364d76e0"
           style="fill:#000000;fill-opacity:1">
          <g
             transform="translate(148.712,134.765)"
             id="g1446">
            <path
               id="id-c37ba88b-277d-4b51-ac76-a5e3efad76eb"
               d="m 3.296875,2.390625 c 0,-0.03125 0,-0.046875 -0.171875,-0.21875 C 1.890625,0.921875 1.5625,-0.96875 1.5625,-2.5 c 0,-1.734375 0.375,-3.46875 1.609375,-4.703125 0.125,-0.125 0.125,-0.140625 0.125,-0.171875 0,-0.078125 -0.03125,-0.109375 -0.09375,-0.109375 -0.109375,0 -1,0.6875 -1.59375,1.953125 -0.5,1.09375 -0.625,2.203125 -0.625,3.03125 0,0.78125 0.109375,1.984375 0.65625,3.125 C 2.25,1.84375 3.09375,2.5 3.203125,2.5 c 0.0625,0 0.09375,-0.03125 0.09375,-0.109375 z m 0,0"
               style="stroke:none" />
          </g>
        </g>
        <g
           id="id-61ea73ef-d2e3-4500-a948-d24525c7c733"
           style="fill:#000000;fill-opacity:1">
          <g
             transform="translate(152.587,134.765)"
             id="g1450">
            <path
               id="id-e3a0e42d-cb8a-45fd-8c3f-8c65ee41e5bf"
               d="m 6.5625,-2.296875 c 0.171875,0 0.359375,0 0.359375,-0.203125 0,-0.1875 -0.1875,-0.1875 -0.359375,-0.1875 H 1.171875 c -0.171875,0 -0.34375,0 -0.34375,0.1875 0,0.203125 0.171875,0.203125 0.34375,0.203125 z m 0,0"
               style="stroke:none" />
          </g>
        </g>
        <g
           id="id-98a89338-6c7c-46cd-b546-5c2b2379bf54"
           style="fill:#000000;fill-opacity:1">
          <g
             transform="translate(160.335,134.765)"
             id="g1454">
            <path
               id="id-6da255e8-9248-44db-986c-54fd7e616e34"
               d="m 2.875,-2.5 c 0,-0.765625 -0.109375,-1.96875 -0.65625,-3.109375 -0.59375,-1.21875 -1.453125,-1.875 -1.546875,-1.875 -0.0625,0 -0.109375,0.046875 -0.109375,0.109375 0,0.03125 0,0.046875 0.1875,0.234375 0.984375,0.984375 1.546875,2.5625 1.546875,4.640625 0,1.71875 -0.359375,3.46875 -1.59375,4.71875 C 0.5625,2.34375 0.5625,2.359375 0.5625,2.390625 0.5625,2.453125 0.609375,2.5 0.671875,2.5 0.765625,2.5 1.671875,1.8125 2.25,0.546875 2.765625,-0.546875 2.875,-1.65625 2.875,-2.5 Z m 0,0"
               style="stroke:none" />
          </g>
        </g>
      </g>
    </g>
    <g
       id="g1530"
       ns1:jacobian_sqrt="0.705556"
       ns1:inkscapeversion="1.0"
       ns1:alignment="middle center"
       ns1:scale="2.0"
       ns1:preamble="C:\\Users\\claum\\AppData\\Roaming\\inkscape\\extensions\\textext\\default_packages.tex"
       ns1:text="$\\mathbf{(-)}$"
       ns1:pdfconverter="inkscape"
       ns1:texconverter="pdflatex"
       ns1:version="1.0.1"
       transform="matrix(0.705556,0,0,0.705556,108.33003,121.34019)">
      <defs
         id="defs1508">
        <g
           id="g1506">
          <symbol
             overflow="visible"
             id="symbol1488">
            <path
               style="stroke:none"
               d=""
               id="path1486" />
          </symbol>
          <symbol
             overflow="visible"
             id="symbol1492">
            <path
               style="stroke:none"
               d="m 3.296875,2.390625 c 0,-0.03125 0,-0.046875 -0.171875,-0.21875 C 1.890625,0.921875 1.5625,-0.96875 1.5625,-2.5 c 0,-1.734375 0.375,-3.46875 1.609375,-4.703125 0.125,-0.125 0.125,-0.140625 0.125,-0.171875 0,-0.078125 -0.03125,-0.109375 -0.09375,-0.109375 -0.109375,0 -1,0.6875 -1.59375,1.953125 -0.5,1.09375 -0.625,2.203125 -0.625,3.03125 0,0.78125 0.109375,1.984375 0.65625,3.125 C 2.25,1.84375 3.09375,2.5 3.203125,2.5 c 0.0625,0 0.09375,-0.03125 0.09375,-0.109375 z m 0,0"
               id="path1490" />
          </symbol>
          <symbol
             overflow="visible"
             id="symbol1496">
            <path
               style="stroke:none"
               d="m 2.875,-2.5 c 0,-0.765625 -0.109375,-1.96875 -0.65625,-3.109375 -0.59375,-1.21875 -1.453125,-1.875 -1.546875,-1.875 -0.0625,0 -0.109375,0.046875 -0.109375,0.109375 0,0.03125 0,0.046875 0.1875,0.234375 0.984375,0.984375 1.546875,2.5625 1.546875,4.640625 0,1.71875 -0.359375,3.46875 -1.59375,4.71875 C 0.5625,2.34375 0.5625,2.359375 0.5625,2.390625 0.5625,2.453125 0.609375,2.5 0.671875,2.5 0.765625,2.5 1.671875,1.8125 2.25,0.546875 2.765625,-0.546875 2.875,-1.65625 2.875,-2.5 Z m 0,0"
               id="path1494" />
          </symbol>
          <symbol
             overflow="visible"
             id="symbol1500">
            <path
               style="stroke:none"
               d=""
               id="path1498" />
          </symbol>
          <symbol
             overflow="visible"
             id="symbol1504">
            <path
               style="stroke:none"
               d="m 6.5625,-2.296875 c 0.171875,0 0.359375,0 0.359375,-0.203125 0,-0.1875 -0.1875,-0.1875 -0.359375,-0.1875 H 1.171875 c -0.171875,0 -0.34375,0 -0.34375,0.1875 0,0.203125 0.171875,0.203125 0.34375,0.203125 z m 0,0"
               id="path1502" />
          </symbol>
        </g>
      </defs>
      <g
         id="g1528"
         transform="translate(-149.696,-127.281)">
        <g
           style="fill:#000000;fill-opacity:1"
           id="g1514">
          <g
             id="g1512"
             transform="translate(148.712,134.765)">
            <path
               style="stroke:none"
               d="m 3.296875,2.390625 c 0,-0.03125 0,-0.046875 -0.171875,-0.21875 C 1.890625,0.921875 1.5625,-0.96875 1.5625,-2.5 c 0,-1.734375 0.375,-3.46875 1.609375,-4.703125 0.125,-0.125 0.125,-0.140625 0.125,-0.171875 0,-0.078125 -0.03125,-0.109375 -0.09375,-0.109375 -0.109375,0 -1,0.6875 -1.59375,1.953125 -0.5,1.09375 -0.625,2.203125 -0.625,3.03125 0,0.78125 0.109375,1.984375 0.65625,3.125 C 2.25,1.84375 3.09375,2.5 3.203125,2.5 c 0.0625,0 0.09375,-0.03125 0.09375,-0.109375 z m 0,0"
               id="path1510" />
          </g>
        </g>
        <g
           style="fill:#000000;fill-opacity:1"
           id="g1520">
          <g
             id="g1518"
             transform="translate(152.587,134.765)">
            <path
               style="stroke:none"
               d="m 6.5625,-2.296875 c 0.171875,0 0.359375,0 0.359375,-0.203125 0,-0.1875 -0.1875,-0.1875 -0.359375,-0.1875 H 1.171875 c -0.171875,0 -0.34375,0 -0.34375,0.1875 0,0.203125 0.171875,0.203125 0.34375,0.203125 z m 0,0"
               id="path1516" />
          </g>
        </g>
        <g
           style="fill:#000000;fill-opacity:1"
           id="g1526">
          <g
             id="g1524"
             transform="translate(160.335,134.765)">
            <path
               style="stroke:none"
               d="m 2.875,-2.5 c 0,-0.765625 -0.109375,-1.96875 -0.65625,-3.109375 -0.59375,-1.21875 -1.453125,-1.875 -1.546875,-1.875 -0.0625,0 -0.109375,0.046875 -0.109375,0.109375 0,0.03125 0,0.046875 0.1875,0.234375 0.984375,0.984375 1.546875,2.5625 1.546875,4.640625 0,1.71875 -0.359375,3.46875 -1.59375,4.71875 C 0.5625,2.34375 0.5625,2.359375 0.5625,2.390625 0.5625,2.453125 0.609375,2.5 0.671875,2.5 0.765625,2.5 1.671875,1.8125 2.25,0.546875 2.765625,-0.546875 2.875,-1.65625 2.875,-2.5 Z m 0,0"
               id="path1522" />
          </g>
        </g>
      </g>
    </g>
    <g
       transform="matrix(0.776112,0,0,0.776112,79.6286,148.412)"
       ns1:version="1.0.1"
       ns1:texconverter="pdflatex"
       ns1:pdfconverter="inkscape"
       ns1:text="$\\alpha_1$ "
       ns1:preamble="C:\\Users\\claum\\AppData\\Roaming\\inkscape\\extensions\\textext\\default_packages.tex"
       ns1:scale="2.2"
       ns1:alignment="middle center"
       ns1:inkscapeversion="1.0"
       ns1:jacobian_sqrt="0.776112"
       id="g1747">
      <defs
         id="id-51a02290-61b2-4ed7-ba0d-47e59f80b4a2">
        <g
           id="id-16804090-d1c9-4c34-9a49-7908aeaba911">
          <symbol
             id="id-fa300f77-292c-416e-97a6-96434dbd6315"
             overflow="visible">
            <path
               id="id-f8448656-274a-4806-92fa-c6abfaa74f00"
               d=""
               style="stroke:none" />
          </symbol>
          <symbol
             id="id-688f0493-ca7b-422e-a5de-30558f734d22"
             overflow="visible">
            <path
               id="id-354f89f3-1b9a-4b62-81c6-ff8cfaedcc5a"
               d="m 4.75,-2.359375 c 0,-1.5625 -0.921875,-2.046875 -1.65625,-2.046875 -1.375,0 -2.6875,1.421875 -2.6875,2.828125 0,0.9375 0.59375,1.6875 1.625,1.6875 0.625,0 1.34375,-0.234375 2.09375,-0.84375 0.125,0.53125 0.453125,0.84375 0.90625,0.84375 0.53125,0 0.84375,-0.546875 0.84375,-0.703125 0,-0.078125 -0.0625,-0.109375 -0.125,-0.109375 -0.0625,0 -0.09375,0.03125 -0.125,0.109375 -0.1875,0.484375 -0.546875,0.484375 -0.5625,0.484375 -0.3125,0 -0.3125,-0.78125 -0.3125,-1.015625 0,-0.203125 0,-0.234375 0.109375,-0.34375 C 5.796875,-2.65625 6,-3.8125 6,-3.8125 6,-3.84375 5.984375,-3.921875 5.875,-3.921875 c -0.09375,0 -0.09375,0.03125 -0.140625,0.21875 -0.1875,0.625 -0.515625,1.375 -0.984375,1.96875 z m -0.65625,1.375 c -0.890625,0.765625 -1.65625,0.875 -2.046875,0.875 -0.59375,0 -0.90625,-0.453125 -0.90625,-1.09375 0,-0.484375 0.265625,-1.5625 0.578125,-2.0625 C 2.1875,-4 2.734375,-4.1875 3.078125,-4.1875 c 0.984375,0 0.984375,1.3125 0.984375,2.078125 0,0.375 0,0.953125 0.03125,1.125 z m 0,0"
               style="stroke:none" />
          </symbol>
          <symbol
             id="id-4a52213d-dc93-43e6-8ab7-42accf2a940f"
             overflow="visible">
            <path
               id="id-4464fdc2-6a2d-4111-9987-6fc58ea5dc41"
               d=""
               style="stroke:none" />
          </symbol>
          <symbol
             id="id-d0ea481c-e2e2-4fd0-b847-af6cd7b51148"
             overflow="visible">
            <path
               id="id-c2c9d111-11e7-45b7-853b-47c7997bcb74"
               d="m 2.328125,-4.4375 c 0,-0.1875 0,-0.1875 -0.203125,-0.1875 -0.453125,0.4375 -1.078125,0.4375 -1.359375,0.4375 v 0.25 c 0.15625,0 0.625,0 1,-0.1875 v 3.546875 c 0,0.234375 0,0.328125 -0.6875,0.328125 H 0.8125 V 0 c 0.125,0 0.984375,-0.03125 1.234375,-0.03125 0.21875,0 1.09375,0.03125 1.25,0.03125 V -0.25 H 3.03125 c -0.703125,0 -0.703125,-0.09375 -0.703125,-0.328125 z m 0,0"
               style="stroke:none" />
          </symbol>
        </g>
      </defs>
      <g
         transform="translate(-149.118,-130.359)"
         id="id-4d9fe8de-34a2-471d-bece-ba1feef836a0">
        <g
           id="id-54e3ddb5-69a5-4336-85ea-43d0de7f7d08"
           style="fill:#000000;fill-opacity:1">
          <g
             transform="translate(148.712,134.765)"
             id="g1739">
            <path
               id="id-f398840e-0a30-4e1c-9709-62604351a1fb"
               d="m 4.75,-2.359375 c 0,-1.5625 -0.921875,-2.046875 -1.65625,-2.046875 -1.375,0 -2.6875,1.421875 -2.6875,2.828125 0,0.9375 0.59375,1.6875 1.625,1.6875 0.625,0 1.34375,-0.234375 2.09375,-0.84375 0.125,0.53125 0.453125,0.84375 0.90625,0.84375 0.53125,0 0.84375,-0.546875 0.84375,-0.703125 0,-0.078125 -0.0625,-0.109375 -0.125,-0.109375 -0.0625,0 -0.09375,0.03125 -0.125,0.109375 -0.1875,0.484375 -0.546875,0.484375 -0.5625,0.484375 -0.3125,0 -0.3125,-0.78125 -0.3125,-1.015625 0,-0.203125 0,-0.234375 0.109375,-0.34375 C 5.796875,-2.65625 6,-3.8125 6,-3.8125 6,-3.84375 5.984375,-3.921875 5.875,-3.921875 c -0.09375,0 -0.09375,0.03125 -0.140625,0.21875 -0.1875,0.625 -0.515625,1.375 -0.984375,1.96875 z m -0.65625,1.375 c -0.890625,0.765625 -1.65625,0.875 -2.046875,0.875 -0.59375,0 -0.90625,-0.453125 -0.90625,-1.09375 0,-0.484375 0.265625,-1.5625 0.578125,-2.0625 C 2.1875,-4 2.734375,-4.1875 3.078125,-4.1875 c 0.984375,0 0.984375,1.3125 0.984375,2.078125 0,0.375 0,0.953125 0.03125,1.125 z m 0,0"
               style="stroke:none" />
          </g>
        </g>
        <g
           id="id-0a979e34-06e5-4863-a18e-ec7ea2b83478"
           style="fill:#000000;fill-opacity:1">
          <g
             transform="translate(155.085,136.259)"
             id="g1743">
            <path
               id="id-621bc61f-e95f-4a32-b5a7-f286348888f9"
               d="m 2.328125,-4.4375 c 0,-0.1875 0,-0.1875 -0.203125,-0.1875 -0.453125,0.4375 -1.078125,0.4375 -1.359375,0.4375 v 0.25 c 0.15625,0 0.625,0 1,-0.1875 v 3.546875 c 0,0.234375 0,0.328125 -0.6875,0.328125 H 0.8125 V 0 c 0.125,0 0.984375,-0.03125 1.234375,-0.03125 0.21875,0 1.09375,0.03125 1.25,0.03125 V -0.25 H 3.03125 c -0.703125,0 -0.703125,-0.09375 -0.703125,-0.328125 z m 0,0"
               style="stroke:none" />
          </g>
        </g>
      </g>
    </g>
    <g
       transform="matrix(0.776112,0,0,0.776112,133.77473,112.31923)"
       ns1:version="1.0.1"
       ns1:texconverter="pdflatex"
       ns1:pdfconverter="inkscape"
       ns1:text="$\\alpha_2 = \\alpha_1$"
       ns1:preamble="C:\\Users\\claum\\AppData\\Roaming\\inkscape\\extensions\\textext\\default_packages.tex"
       ns1:scale="2.2"
       ns1:alignment="middle center"
       ns1:inkscapeversion="1.0"
       ns1:jacobian_sqrt="0.776112"
       id="g2256">
      <defs
         id="id-b228bc02-4808-459c-8c0c-23c00b04edc3">
        <g
           id="id-ef614317-0000-4f83-9cf0-f559d4d5f269">
          <symbol
             id="id-d59ca853-4776-4e08-9025-e82469b7aa82"
             overflow="visible">
            <path
               id="id-70db8995-e324-4ebb-8d61-03cdbd5b2b4b"
               d=""
               style="stroke:none" />
          </symbol>
          <symbol
             id="id-d99d3fba-da3e-4050-a267-17de68e35d95"
             overflow="visible">
            <path
               id="id-14ba0cdc-5bd5-4d50-8779-de72d09f1e48"
               d="m 4.75,-2.359375 c 0,-1.5625 -0.921875,-2.046875 -1.65625,-2.046875 -1.375,0 -2.6875,1.421875 -2.6875,2.828125 0,0.9375 0.59375,1.6875 1.625,1.6875 0.625,0 1.34375,-0.234375 2.09375,-0.84375 0.125,0.53125 0.453125,0.84375 0.90625,0.84375 0.53125,0 0.84375,-0.546875 0.84375,-0.703125 0,-0.078125 -0.0625,-0.109375 -0.125,-0.109375 -0.0625,0 -0.09375,0.03125 -0.125,0.109375 -0.1875,0.484375 -0.546875,0.484375 -0.5625,0.484375 -0.3125,0 -0.3125,-0.78125 -0.3125,-1.015625 0,-0.203125 0,-0.234375 0.109375,-0.34375 C 5.796875,-2.65625 6,-3.8125 6,-3.8125 6,-3.84375 5.984375,-3.921875 5.875,-3.921875 c -0.09375,0 -0.09375,0.03125 -0.140625,0.21875 -0.1875,0.625 -0.515625,1.375 -0.984375,1.96875 z m -0.65625,1.375 c -0.890625,0.765625 -1.65625,0.875 -2.046875,0.875 -0.59375,0 -0.90625,-0.453125 -0.90625,-1.09375 0,-0.484375 0.265625,-1.5625 0.578125,-2.0625 C 2.1875,-4 2.734375,-4.1875 3.078125,-4.1875 c 0.984375,0 0.984375,1.3125 0.984375,2.078125 0,0.375 0,0.953125 0.03125,1.125 z m 0,0"
               style="stroke:none" />
          </symbol>
          <symbol
             id="id-a7ec30ef-d8ea-49c7-9732-da4b01981756"
             overflow="visible">
            <path
               id="id-638670e6-e1f0-4abc-975f-5a25090df1c6"
               d=""
               style="stroke:none" />
          </symbol>
          <symbol
             id="id-21bd9ec9-626e-4308-9484-5f6de0099030"
             overflow="visible">
            <path
               id="id-65ff7117-2476-43f5-ab41-be83e5e2bd82"
               d="M 3.515625,-1.265625 H 3.28125 c -0.015625,0.15625 -0.09375,0.5625 -0.1875,0.625 C 3.046875,-0.59375 2.515625,-0.59375 2.40625,-0.59375 H 1.125 c 0.734375,-0.640625 0.984375,-0.84375 1.390625,-1.171875 0.515625,-0.40625 1,-0.84375 1,-1.5 0,-0.84375 -0.734375,-1.359375 -1.625,-1.359375 -0.859375,0 -1.453125,0.609375 -1.453125,1.25 0,0.34375 0.296875,0.390625 0.375,0.390625 0.15625,0 0.359375,-0.125 0.359375,-0.375 0,-0.125 -0.046875,-0.375 -0.40625,-0.375 C 0.984375,-4.21875 1.453125,-4.375 1.78125,-4.375 c 0.703125,0 1.0625,0.546875 1.0625,1.109375 0,0.609375 -0.4375,1.078125 -0.65625,1.328125 L 0.515625,-0.265625 C 0.4375,-0.203125 0.4375,-0.1875 0.4375,0 h 2.875 z m 0,0"
               style="stroke:none" />
          </symbol>
          <symbol
             id="id-6f735a90-364e-4c6e-913b-0dcfe82ce76d"
             overflow="visible">
            <path
               id="id-50b23f44-f760-4455-abbf-f3a1835a1156"
               d="m 2.328125,-4.4375 c 0,-0.1875 0,-0.1875 -0.203125,-0.1875 -0.453125,0.4375 -1.078125,0.4375 -1.359375,0.4375 v 0.25 c 0.15625,0 0.625,0 1,-0.1875 v 3.546875 c 0,0.234375 0,0.328125 -0.6875,0.328125 H 0.8125 V 0 c 0.125,0 0.984375,-0.03125 1.234375,-0.03125 0.21875,0 1.09375,0.03125 1.25,0.03125 V -0.25 H 3.03125 c -0.703125,0 -0.703125,-0.09375 -0.703125,-0.328125 z m 0,0"
               style="stroke:none" />
          </symbol>
          <symbol
             id="id-ca1ca837-5061-4589-9e3d-383dee184bb8"
             overflow="visible">
            <path
               id="id-4fca0274-9b36-42c2-bd52-e7257362df76"
               d=""
               style="stroke:none" />
          </symbol>
          <symbol
             id="id-dc89e4ab-6105-4890-9fc0-78b405f778d2"
             overflow="visible">
            <path
               id="id-f85d657a-4d7e-401d-84ab-c6b8593c15f6"
               d="m 6.84375,-3.265625 c 0.15625,0 0.34375,0 0.34375,-0.1875 C 7.1875,-3.65625 7,-3.65625 6.859375,-3.65625 h -5.96875 c -0.140625,0 -0.328125,0 -0.328125,0.203125 0,0.1875 0.1875,0.1875 0.328125,0.1875 z m 0.015625,1.9375 c 0.140625,0 0.328125,0 0.328125,-0.203125 0,-0.1875 -0.1875,-0.1875 -0.34375,-0.1875 H 0.890625 c -0.140625,0 -0.328125,0 -0.328125,0.1875 0,0.203125 0.1875,0.203125 0.328125,0.203125 z m 0,0"
               style="stroke:none" />
          </symbol>
        </g>
      </defs>
      <g
         transform="translate(-149.118,-130.359)"
         id="id-263e974e-ece0-4e33-932e-95c730649676">
        <g
           id="id-4edc39a3-7b55-4e33-8ee2-e9c293c19b07"
           style="fill:#000000;fill-opacity:1">
          <g
             transform="translate(148.712,134.765)"
             id="g2236">
            <path
               id="id-725321b9-9e50-4611-96ae-ae1d8665515e"
               d="m 4.75,-2.359375 c 0,-1.5625 -0.921875,-2.046875 -1.65625,-2.046875 -1.375,0 -2.6875,1.421875 -2.6875,2.828125 0,0.9375 0.59375,1.6875 1.625,1.6875 0.625,0 1.34375,-0.234375 2.09375,-0.84375 0.125,0.53125 0.453125,0.84375 0.90625,0.84375 0.53125,0 0.84375,-0.546875 0.84375,-0.703125 0,-0.078125 -0.0625,-0.109375 -0.125,-0.109375 -0.0625,0 -0.09375,0.03125 -0.125,0.109375 -0.1875,0.484375 -0.546875,0.484375 -0.5625,0.484375 -0.3125,0 -0.3125,-0.78125 -0.3125,-1.015625 0,-0.203125 0,-0.234375 0.109375,-0.34375 C 5.796875,-2.65625 6,-3.8125 6,-3.8125 6,-3.84375 5.984375,-3.921875 5.875,-3.921875 c -0.09375,0 -0.09375,0.03125 -0.140625,0.21875 -0.1875,0.625 -0.515625,1.375 -0.984375,1.96875 z m -0.65625,1.375 c -0.890625,0.765625 -1.65625,0.875 -2.046875,0.875 -0.59375,0 -0.90625,-0.453125 -0.90625,-1.09375 0,-0.484375 0.265625,-1.5625 0.578125,-2.0625 C 2.1875,-4 2.734375,-4.1875 3.078125,-4.1875 c 0.984375,0 0.984375,1.3125 0.984375,2.078125 0,0.375 0,0.953125 0.03125,1.125 z m 0,0"
               style="stroke:none" />
          </g>
        </g>
        <g
           id="id-a827d93b-f60f-44fb-9054-ddb808bfa596"
           style="fill:#000000;fill-opacity:1">
          <g
             transform="translate(155.085,136.259)"
             id="g2240">
            <path
               id="id-b96d4d7f-fdb6-41a4-aae7-3d03f098431e"
               d="M 3.515625,-1.265625 H 3.28125 c -0.015625,0.15625 -0.09375,0.5625 -0.1875,0.625 C 3.046875,-0.59375 2.515625,-0.59375 2.40625,-0.59375 H 1.125 c 0.734375,-0.640625 0.984375,-0.84375 1.390625,-1.171875 0.515625,-0.40625 1,-0.84375 1,-1.5 0,-0.84375 -0.734375,-1.359375 -1.625,-1.359375 -0.859375,0 -1.453125,0.609375 -1.453125,1.25 0,0.34375 0.296875,0.390625 0.375,0.390625 0.15625,0 0.359375,-0.125 0.359375,-0.375 0,-0.125 -0.046875,-0.375 -0.40625,-0.375 C 0.984375,-4.21875 1.453125,-4.375 1.78125,-4.375 c 0.703125,0 1.0625,0.546875 1.0625,1.109375 0,0.609375 -0.4375,1.078125 -0.65625,1.328125 L 0.515625,-0.265625 C 0.4375,-0.203125 0.4375,-0.1875 0.4375,0 h 2.875 z m 0,0"
               style="stroke:none" />
          </g>
        </g>
        <g
           id="id-cca8e291-a702-47b7-bcf5-f2478fdf2c3d"
           style="fill:#000000;fill-opacity:1">
          <g
             transform="translate(162.322,134.765)"
             id="g2244">
            <path
               id="id-2bd2a817-ecb5-478f-a64a-b2024727dee4"
               d="m 6.84375,-3.265625 c 0.15625,0 0.34375,0 0.34375,-0.1875 C 7.1875,-3.65625 7,-3.65625 6.859375,-3.65625 h -5.96875 c -0.140625,0 -0.328125,0 -0.328125,0.203125 0,0.1875 0.1875,0.1875 0.328125,0.1875 z m 0.015625,1.9375 c 0.140625,0 0.328125,0 0.328125,-0.203125 0,-0.1875 -0.1875,-0.1875 -0.34375,-0.1875 H 0.890625 c -0.140625,0 -0.328125,0 -0.328125,0.1875 0,0.203125 0.1875,0.203125 0.328125,0.203125 z m 0,0"
               style="stroke:none" />
          </g>
        </g>
        <g
           id="id-1c4a2215-73ca-45b9-9e2d-b939cf6b32ad"
           style="fill:#000000;fill-opacity:1">
          <g
             transform="translate(172.838,134.765)"
             id="g2248">
            <path
               id="id-b8f856b3-25a8-41ea-87d3-03663a1187c3"
               d="m 4.75,-2.359375 c 0,-1.5625 -0.921875,-2.046875 -1.65625,-2.046875 -1.375,0 -2.6875,1.421875 -2.6875,2.828125 0,0.9375 0.59375,1.6875 1.625,1.6875 0.625,0 1.34375,-0.234375 2.09375,-0.84375 0.125,0.53125 0.453125,0.84375 0.90625,0.84375 0.53125,0 0.84375,-0.546875 0.84375,-0.703125 0,-0.078125 -0.0625,-0.109375 -0.125,-0.109375 -0.0625,0 -0.09375,0.03125 -0.125,0.109375 -0.1875,0.484375 -0.546875,0.484375 -0.5625,0.484375 -0.3125,0 -0.3125,-0.78125 -0.3125,-1.015625 0,-0.203125 0,-0.234375 0.109375,-0.34375 C 5.796875,-2.65625 6,-3.8125 6,-3.8125 6,-3.84375 5.984375,-3.921875 5.875,-3.921875 c -0.09375,0 -0.09375,0.03125 -0.140625,0.21875 -0.1875,0.625 -0.515625,1.375 -0.984375,1.96875 z m -0.65625,1.375 c -0.890625,0.765625 -1.65625,0.875 -2.046875,0.875 -0.59375,0 -0.90625,-0.453125 -0.90625,-1.09375 0,-0.484375 0.265625,-1.5625 0.578125,-2.0625 C 2.1875,-4 2.734375,-4.1875 3.078125,-4.1875 c 0.984375,0 0.984375,1.3125 0.984375,2.078125 0,0.375 0,0.953125 0.03125,1.125 z m 0,0"
               style="stroke:none" />
          </g>
        </g>
        <g
           id="id-6b511074-5ec4-40c9-a892-534adc3d6cdb"
           style="fill:#000000;fill-opacity:1">
          <g
             transform="translate(179.211,136.259)"
             id="g2252">
            <path
               id="id-9f955e54-1f8c-45e3-9b82-191c1cf3afe2"
               d="m 2.328125,-4.4375 c 0,-0.1875 0,-0.1875 -0.203125,-0.1875 -0.453125,0.4375 -1.078125,0.4375 -1.359375,0.4375 v 0.25 c 0.15625,0 0.625,0 1,-0.1875 v 3.546875 c 0,0.234375 0,0.328125 -0.6875,0.328125 H 0.8125 V 0 c 0.125,0 0.984375,-0.03125 1.234375,-0.03125 0.21875,0 1.09375,0.03125 1.25,0.03125 V -0.25 H 3.03125 c -0.703125,0 -0.703125,-0.09375 -0.703125,-0.328125 z m 0,0"
               style="stroke:none" />
          </g>
        </g>
      </g>
    </g>
    <g
       transform="matrix(0.776112,0,0,0.776112,10.68206,140.74573)"
       ns1:version="1.0.1"
       ns1:texconverter="pdflatex"
       ns1:pdfconverter="inkscape"
       ns1:text="$M_{1}$"
       ns1:preamble="C:\\Users\\claum\\AppData\\Roaming\\inkscape\\extensions\\textext\\default_packages.tex"
       ns1:scale="2.2"
       ns1:alignment="middle center"
       ns1:inkscapeversion="1.0"
       ns1:jacobian_sqrt="0.776112"
       id="g2560">
      <defs
         id="id-2cb3979f-83aa-4ecd-acab-e66d3453e2df">
        <g
           id="id-9ea7edc5-dd31-4f2f-97e4-a0e5a0814047">
          <symbol
             id="id-ef90b5ef-b73d-43d9-bf97-5c2a13f3d45f"
             overflow="visible">
            <path
               id="id-5219e6a6-f507-4654-825a-3d6723a5e82b"
               d=""
               style="stroke:none" />
          </symbol>
          <symbol
             id="id-af3bf854-b9c6-4892-a2d8-5fa99a0c576d"
             overflow="visible">
            <path
               id="id-ae62e5d7-b8bd-498d-ba83-f03860da06a7"
               d="M 9.234375,-6.046875 C 9.328125,-6.40625 9.34375,-6.5 10.09375,-6.5 c 0.21875,0 0.3125,0 0.3125,-0.203125 0,-0.109375 -0.09375,-0.109375 -0.265625,-0.109375 h -1.3125 c -0.265625,0 -0.28125,0 -0.390625,0.1875 L 4.796875,-0.9375 4.015625,-6.578125 C 3.984375,-6.8125 3.96875,-6.8125 3.703125,-6.8125 H 2.34375 c -0.1875,0 -0.296875,0 -0.296875,0.1875 0,0.125 0.09375,0.125 0.28125,0.125 0.140625,0 0.3125,0.015625 0.4375,0.015625 0.15625,0.03125 0.21875,0.046875 0.21875,0.171875 0,0.03125 -0.015625,0.0625 -0.046875,0.1875 l -1.265625,5.0625 c -0.09375,0.40625 -0.265625,0.71875 -1.078125,0.75 -0.046875,0 -0.171875,0.015625 -0.171875,0.1875 0,0.09375 0.0625,0.125 0.140625,0.125 0.3125,0 0.65625,-0.03125 1,-0.03125 C 1.890625,-0.03125 2.25,0 2.578125,0 c 0.046875,0 0.1875,0 0.1875,-0.203125 0,-0.109375 -0.109375,-0.109375 -0.1875,-0.109375 -0.5625,0 -0.671875,-0.203125 -0.671875,-0.4375 0,-0.0625 0,-0.125 0.03125,-0.234375 L 3.296875,-6.40625 H 3.3125 l 0.859375,6.171875 C 4.1875,-0.109375 4.203125,0 4.3125,0 4.421875,0 4.484375,-0.109375 4.53125,-0.171875 l 4.03125,-6.3125 h 0.015625 l -1.4375,5.703125 c -0.09375,0.390625 -0.109375,0.46875 -0.90625,0.46875 -0.15625,0 -0.265625,0 -0.265625,0.1875 C 5.96875,0 6.078125,0 6.109375,0 6.390625,0 7.0625,-0.03125 7.34375,-0.03125 7.75,-0.03125 8.1875,0 8.59375,0 8.65625,0 8.78125,0 8.78125,-0.203125 8.78125,-0.3125 8.6875,-0.3125 8.5,-0.3125 c -0.359375,0 -0.640625,0 -0.640625,-0.171875 0,-0.046875 0,-0.0625 0.046875,-0.25 z m 0,0"
               style="stroke:none" />
          </symbol>
          <symbol
             id="id-9a71bd84-9cfb-40ed-9416-5fbd5f1db0c5"
             overflow="visible">
            <path
               id="id-7dc9b667-151e-44f0-9950-1a5309a5ab24"
               d=""
               style="stroke:none" />
          </symbol>
          <symbol
             id="id-6cb296bd-5064-4bd7-9295-53a8de3e1c53"
             overflow="visible">
            <path
               id="id-2f188890-dc70-4b15-b3e8-d3c554f1a6b8"
               d="m 2.328125,-4.4375 c 0,-0.1875 0,-0.1875 -0.203125,-0.1875 -0.453125,0.4375 -1.078125,0.4375 -1.359375,0.4375 v 0.25 c 0.15625,0 0.625,0 1,-0.1875 v 3.546875 c 0,0.234375 0,0.328125 -0.6875,0.328125 H 0.8125 V 0 c 0.125,0 0.984375,-0.03125 1.234375,-0.03125 0.21875,0 1.09375,0.03125 1.25,0.03125 V -0.25 H 3.03125 c -0.703125,0 -0.703125,-0.09375 -0.703125,-0.328125 z m 0,0"
               style="stroke:none" />
          </symbol>
        </g>
      </defs>
      <g
         transform="translate(-149.134,-127.953)"
         id="id-da1c2819-9842-43e7-a78a-da95c4be8724">
        <g
           id="id-26f16b44-9129-48e1-afaa-85747882d49a"
           style="fill:#000000;fill-opacity:1">
          <g
             transform="translate(148.712,134.765)"
             id="g2552">
            <path
               id="id-f4e47bd0-dfdb-4527-b2ad-486d321dc859"
               d="M 9.234375,-6.046875 C 9.328125,-6.40625 9.34375,-6.5 10.09375,-6.5 c 0.21875,0 0.3125,0 0.3125,-0.203125 0,-0.109375 -0.09375,-0.109375 -0.265625,-0.109375 h -1.3125 c -0.265625,0 -0.28125,0 -0.390625,0.1875 L 4.796875,-0.9375 4.015625,-6.578125 C 3.984375,-6.8125 3.96875,-6.8125 3.703125,-6.8125 H 2.34375 c -0.1875,0 -0.296875,0 -0.296875,0.1875 0,0.125 0.09375,0.125 0.28125,0.125 0.140625,0 0.3125,0.015625 0.4375,0.015625 0.15625,0.03125 0.21875,0.046875 0.21875,0.171875 0,0.03125 -0.015625,0.0625 -0.046875,0.1875 l -1.265625,5.0625 c -0.09375,0.40625 -0.265625,0.71875 -1.078125,0.75 -0.046875,0 -0.171875,0.015625 -0.171875,0.1875 0,0.09375 0.0625,0.125 0.140625,0.125 0.3125,0 0.65625,-0.03125 1,-0.03125 C 1.890625,-0.03125 2.25,0 2.578125,0 c 0.046875,0 0.1875,0 0.1875,-0.203125 0,-0.109375 -0.109375,-0.109375 -0.1875,-0.109375 -0.5625,0 -0.671875,-0.203125 -0.671875,-0.4375 0,-0.0625 0,-0.125 0.03125,-0.234375 L 3.296875,-6.40625 H 3.3125 l 0.859375,6.171875 C 4.1875,-0.109375 4.203125,0 4.3125,0 4.421875,0 4.484375,-0.109375 4.53125,-0.171875 l 4.03125,-6.3125 h 0.015625 l -1.4375,5.703125 c -0.09375,0.390625 -0.109375,0.46875 -0.90625,0.46875 -0.15625,0 -0.265625,0 -0.265625,0.1875 C 5.96875,0 6.078125,0 6.109375,0 6.390625,0 7.0625,-0.03125 7.34375,-0.03125 7.75,-0.03125 8.1875,0 8.59375,0 8.65625,0 8.78125,0 8.78125,-0.203125 8.78125,-0.3125 8.6875,-0.3125 8.5,-0.3125 c -0.359375,0 -0.640625,0 -0.640625,-0.171875 0,-0.046875 0,-0.0625 0.046875,-0.25 z m 0,0"
               style="stroke:none" />
          </g>
        </g>
        <g
           id="id-cf55c172-ca34-4cda-af0e-dd865ea17f60"
           style="fill:#000000;fill-opacity:1">
          <g
             transform="translate(158.377,136.259)"
             id="g2556">
            <path
               id="id-246e156b-8849-458a-8bc8-20f333b68c05"
               d="m 2.328125,-4.4375 c 0,-0.1875 0,-0.1875 -0.203125,-0.1875 -0.453125,0.4375 -1.078125,0.4375 -1.359375,0.4375 v 0.25 c 0.15625,0 0.625,0 1,-0.1875 v 3.546875 c 0,0.234375 0,0.328125 -0.6875,0.328125 H 0.8125 V 0 c 0.125,0 0.984375,-0.03125 1.234375,-0.03125 0.21875,0 1.09375,0.03125 1.25,0.03125 V -0.25 H 3.03125 c -0.703125,0 -0.703125,-0.09375 -0.703125,-0.328125 z m 0,0"
               style="stroke:none" />
          </g>
        </g>
      </g>
    </g>
    <g
       transform="matrix(0.776112,0,0,0.776112,189.16061,120.40618)"
       ns1:version="1.0.1"
       ns1:texconverter="pdflatex"
       ns1:pdfconverter="inkscape"
       ns1:text="$M_{2}$"
       ns1:preamble="C:\\Users\\claum\\AppData\\Roaming\\inkscape\\extensions\\textext\\default_packages.tex"
       ns1:scale="2.2"
       ns1:alignment="middle center"
       ns1:inkscapeversion="1.0"
       ns1:jacobian_sqrt="0.776112"
       id="g2867">
      <defs
         id="id-d794708f-9bf1-43d4-9de4-badb1c805a3c">
        <g
           id="id-8dc2e80d-fd55-4921-a03a-c0c6fdafe08c">
          <symbol
             id="id-491ddf85-8d81-45f6-a6e9-e495aab9621e"
             overflow="visible">
            <path
               id="id-12f5a881-4474-4d4b-8536-3d380ab5c9fe"
               d=""
               style="stroke:none" />
          </symbol>
          <symbol
             id="id-2dfbdc15-0395-45b7-8c40-4c7f4ba9aa41"
             overflow="visible">
            <path
               id="id-e4ddee33-8456-413c-9d33-e18f2d1c0cb6"
               d="M 9.234375,-6.046875 C 9.328125,-6.40625 9.34375,-6.5 10.09375,-6.5 c 0.21875,0 0.3125,0 0.3125,-0.203125 0,-0.109375 -0.09375,-0.109375 -0.265625,-0.109375 h -1.3125 c -0.265625,0 -0.28125,0 -0.390625,0.1875 L 4.796875,-0.9375 4.015625,-6.578125 C 3.984375,-6.8125 3.96875,-6.8125 3.703125,-6.8125 H 2.34375 c -0.1875,0 -0.296875,0 -0.296875,0.1875 0,0.125 0.09375,0.125 0.28125,0.125 0.140625,0 0.3125,0.015625 0.4375,0.015625 0.15625,0.03125 0.21875,0.046875 0.21875,0.171875 0,0.03125 -0.015625,0.0625 -0.046875,0.1875 l -1.265625,5.0625 c -0.09375,0.40625 -0.265625,0.71875 -1.078125,0.75 -0.046875,0 -0.171875,0.015625 -0.171875,0.1875 0,0.09375 0.0625,0.125 0.140625,0.125 0.3125,0 0.65625,-0.03125 1,-0.03125 C 1.890625,-0.03125 2.25,0 2.578125,0 c 0.046875,0 0.1875,0 0.1875,-0.203125 0,-0.109375 -0.109375,-0.109375 -0.1875,-0.109375 -0.5625,0 -0.671875,-0.203125 -0.671875,-0.4375 0,-0.0625 0,-0.125 0.03125,-0.234375 L 3.296875,-6.40625 H 3.3125 l 0.859375,6.171875 C 4.1875,-0.109375 4.203125,0 4.3125,0 4.421875,0 4.484375,-0.109375 4.53125,-0.171875 l 4.03125,-6.3125 h 0.015625 l -1.4375,5.703125 c -0.09375,0.390625 -0.109375,0.46875 -0.90625,0.46875 -0.15625,0 -0.265625,0 -0.265625,0.1875 C 5.96875,0 6.078125,0 6.109375,0 6.390625,0 7.0625,-0.03125 7.34375,-0.03125 7.75,-0.03125 8.1875,0 8.59375,0 8.65625,0 8.78125,0 8.78125,-0.203125 8.78125,-0.3125 8.6875,-0.3125 8.5,-0.3125 c -0.359375,0 -0.640625,0 -0.640625,-0.171875 0,-0.046875 0,-0.0625 0.046875,-0.25 z m 0,0"
               style="stroke:none" />
          </symbol>
          <symbol
             id="id-bafc9a00-de3b-407f-a192-ab0aefee84f7"
             overflow="visible">
            <path
               id="id-44b336cf-64ea-4b3b-8136-e53bf7938a33"
               d=""
               style="stroke:none" />
          </symbol>
          <symbol
             id="id-d6683e9e-450a-4c01-947e-c0c196718657"
             overflow="visible">
            <path
               id="id-9c35103f-3117-4f95-bcc9-e358eb2ede95"
               d="M 3.515625,-1.265625 H 3.28125 c -0.015625,0.15625 -0.09375,0.5625 -0.1875,0.625 C 3.046875,-0.59375 2.515625,-0.59375 2.40625,-0.59375 H 1.125 c 0.734375,-0.640625 0.984375,-0.84375 1.390625,-1.171875 0.515625,-0.40625 1,-0.84375 1,-1.5 0,-0.84375 -0.734375,-1.359375 -1.625,-1.359375 -0.859375,0 -1.453125,0.609375 -1.453125,1.25 0,0.34375 0.296875,0.390625 0.375,0.390625 0.15625,0 0.359375,-0.125 0.359375,-0.375 0,-0.125 -0.046875,-0.375 -0.40625,-0.375 C 0.984375,-4.21875 1.453125,-4.375 1.78125,-4.375 c 0.703125,0 1.0625,0.546875 1.0625,1.109375 0,0.609375 -0.4375,1.078125 -0.65625,1.328125 L 0.515625,-0.265625 C 0.4375,-0.203125 0.4375,-0.1875 0.4375,0 h 2.875 z m 0,0"
               style="stroke:none" />
          </symbol>
        </g>
      </defs>
      <g
         transform="translate(-149.134,-127.953)"
         id="id-71f04ebb-d962-43c5-849e-82887d5fb814">
        <g
           id="id-94a5dfca-a628-4584-a9b9-342e389c3137"
           style="fill:#000000;fill-opacity:1">
          <g
             transform="translate(148.712,134.765)"
             id="g2859">
            <path
               id="id-686a6ed5-9c15-4090-9919-690450dd5ddf"
               d="M 9.234375,-6.046875 C 9.328125,-6.40625 9.34375,-6.5 10.09375,-6.5 c 0.21875,0 0.3125,0 0.3125,-0.203125 0,-0.109375 -0.09375,-0.109375 -0.265625,-0.109375 h -1.3125 c -0.265625,0 -0.28125,0 -0.390625,0.1875 L 4.796875,-0.9375 4.015625,-6.578125 C 3.984375,-6.8125 3.96875,-6.8125 3.703125,-6.8125 H 2.34375 c -0.1875,0 -0.296875,0 -0.296875,0.1875 0,0.125 0.09375,0.125 0.28125,0.125 0.140625,0 0.3125,0.015625 0.4375,0.015625 0.15625,0.03125 0.21875,0.046875 0.21875,0.171875 0,0.03125 -0.015625,0.0625 -0.046875,0.1875 l -1.265625,5.0625 c -0.09375,0.40625 -0.265625,0.71875 -1.078125,0.75 -0.046875,0 -0.171875,0.015625 -0.171875,0.1875 0,0.09375 0.0625,0.125 0.140625,0.125 0.3125,0 0.65625,-0.03125 1,-0.03125 C 1.890625,-0.03125 2.25,0 2.578125,0 c 0.046875,0 0.1875,0 0.1875,-0.203125 0,-0.109375 -0.109375,-0.109375 -0.1875,-0.109375 -0.5625,0 -0.671875,-0.203125 -0.671875,-0.4375 0,-0.0625 0,-0.125 0.03125,-0.234375 L 3.296875,-6.40625 H 3.3125 l 0.859375,6.171875 C 4.1875,-0.109375 4.203125,0 4.3125,0 4.421875,0 4.484375,-0.109375 4.53125,-0.171875 l 4.03125,-6.3125 h 0.015625 l -1.4375,5.703125 c -0.09375,0.390625 -0.109375,0.46875 -0.90625,0.46875 -0.15625,0 -0.265625,0 -0.265625,0.1875 C 5.96875,0 6.078125,0 6.109375,0 6.390625,0 7.0625,-0.03125 7.34375,-0.03125 7.75,-0.03125 8.1875,0 8.59375,0 8.65625,0 8.78125,0 8.78125,-0.203125 8.78125,-0.3125 8.6875,-0.3125 8.5,-0.3125 c -0.359375,0 -0.640625,0 -0.640625,-0.171875 0,-0.046875 0,-0.0625 0.046875,-0.25 z m 0,0"
               style="stroke:none" />
          </g>
        </g>
        <g
           id="id-8fa2fb6c-c129-4989-9017-8965c8e27c33"
           style="fill:#000000;fill-opacity:1">
          <g
             transform="translate(158.377,136.259)"
             id="g2863">
            <path
               id="id-8c202cdc-1e1c-4850-a7a2-4c362467e3fe"
               d="M 3.515625,-1.265625 H 3.28125 c -0.015625,0.15625 -0.09375,0.5625 -0.1875,0.625 C 3.046875,-0.59375 2.515625,-0.59375 2.40625,-0.59375 H 1.125 c 0.734375,-0.640625 0.984375,-0.84375 1.390625,-1.171875 0.515625,-0.40625 1,-0.84375 1,-1.5 0,-0.84375 -0.734375,-1.359375 -1.625,-1.359375 -0.859375,0 -1.453125,0.609375 -1.453125,1.25 0,0.34375 0.296875,0.390625 0.375,0.390625 0.15625,0 0.359375,-0.125 0.359375,-0.375 0,-0.125 -0.046875,-0.375 -0.40625,-0.375 C 0.984375,-4.21875 1.453125,-4.375 1.78125,-4.375 c 0.703125,0 1.0625,0.546875 1.0625,1.109375 0,0.609375 -0.4375,1.078125 -0.65625,1.328125 L 0.515625,-0.265625 C 0.4375,-0.203125 0.4375,-0.1875 0.4375,0 h 2.875 z m 0,0"
               style="stroke:none" />
          </g>
        </g>
      </g>
    </g>
  </g>
</svg>
