<?xml version="1.0" encoding="UTF-8" standalone="no"?>
<svg
   xmlns:ns21="http://www.iki.fi/pav/software/textext/"
   xmlns:dc="http://purl.org/dc/elements/1.1/"
   xmlns:cc="http://creativecommons.org/ns#"
   xmlns:rdf="http://www.w3.org/1999/02/22-rdf-syntax-ns#"
   xmlns:svg="http://www.w3.org/2000/svg"
   xmlns="http://www.w3.org/2000/svg"
   xmlns:xlink="http://www.w3.org/1999/xlink"
   xmlns:sodipodi="http://sodipodi.sourceforge.net/DTD/sodipodi-0.dtd"
   xmlns:inkscape="http://www.inkscape.org/namespaces/inkscape"
   width="17.5cm"
   height="9.5cm"
   viewBox="0 0 175 95"
   version="1.1"
   id="svg8"
   inkscape:version="1.0 (4035a4fb49, 2020-05-01)"
   sodipodi:docname="Figura1_2.svg">
  <defs
     id="defs2">
    <linearGradient
       id="linearGradient1587"
       inkscape:collect="always">
      <stop
         id="stop1583"
         offset="0"
         style="stop-color:#000000;stop-opacity:1;" />
      <stop
         id="stop1585"
         offset="1"
         style="stop-color:#000000;stop-opacity:0;" />
    </linearGradient>
    <linearGradient
       id="linearGradient1577"
       inkscape:collect="always">
      <stop
         id="stop1573"
         offset="0"
         style="stop-color:#000000;stop-opacity:1;" />
      <stop
         id="stop1575"
         offset="1"
         style="stop-color:#000000;stop-opacity:0;" />
    </linearGradient>
    <linearGradient
       gradientUnits="userSpaceOnUse"
       y2="179.06087"
       x2="703.69769"
       y1="179.06087"
       x1="196.28246"
       id="linearGradient1579"
       xlink:href="#linearGradient1577"
       inkscape:collect="always" />
    <linearGradient
       gradientUnits="userSpaceOnUse"
       y2="216.64439"
       x2="413.42938"
       y1="216.64439"
       x1="119.38504"
       id="linearGradient1589"
       xlink:href="#linearGradient1587"
       inkscape:collect="always" />
  </defs>
  <sodipodi:namedview
     units="cm"
     id="base"
     pagecolor="#ffffff"
     bordercolor="#666666"
     borderopacity="1.0"
     inkscape:pageopacity="0.0"
     inkscape:pageshadow="2"
     inkscape:zoom="1.4"
     inkscape:cx="237.63741"
     inkscape:cy="150.27997"
     inkscape:document-units="mm"
     inkscape:current-layer="layer1"
     inkscape:document-rotation="0"
     showgrid="true"
     inkscape:window-width="1366"
     inkscape:window-height="715"
     inkscape:window-x="-8"
     inkscape:window-y="-8"
     inkscape:window-maximized="1">
    <inkscape:grid
       type="xygrid"
       id="grid10" />
  </sodipodi:namedview>
  <metadata
     id="metadata5">
    <rdf:RDF>
      <cc:Work
         rdf:about="">
        <dc:format>image/svg+xml</dc:format>
        <dc:type
           rdf:resource="http://purl.org/dc/dcmitype/StillImage" />
        <dc:title></dc:title>
      </cc:Work>
    </rdf:RDF>
  </metadata>
  <g
     inkscape:label="Livello 1"
     inkscape:groupmode="layer"
     id="layer1">
    <g
       id="g612"
       ns21:jacobian_sqrt="1.05833"
       ns21:alignment="middle center"
       ns21:scale="3.0"
       ns21:preamble="C:\\Users\\claum\\AppData\\Roaming\\inkscape\\extensions\\textext\\default_packages.tex"
       ns21:text="$r$"
       ns21:pdfconverter="inkscape"
       ns21:texconverter="pdflatex"
       ns21:version="1.0.1"
       transform="matrix(1.05833,0,0,1.05833,103.0323,88.561597)">
      <defs
         id="id-686792a4-def4-4305-a671-0faf8d9957e0">
        <g
           id="id-8395919d-dd04-4306-8d04-c603c1774072">
          <symbol
             overflow="visible"
             id="id-525e2d32-0b5f-49dd-ad3b-6d194e989581">
            <path
               style="stroke:none"
               d=""
               id="id-25c7b054-cea2-4d8c-86ae-7b179038a0f6" />
          </symbol>
          <symbol
             overflow="visible"
             id="id-06659fb7-6dc7-40fc-840f-a1a0f22bc19e">
            <path
               style="stroke:none"
               d="m 0.875,-0.59375 c -0.03125,0.15625 -0.09375,0.390625 -0.09375,0.4375 0,0.171875 0.140625,0.265625 0.296875,0.265625 0.125,0 0.296875,-0.078125 0.375,-0.28125 C 1.46875,-0.203125 1.796875,-1.5625 1.84375,-1.75 c 0.078125,-0.328125 0.265625,-1.015625 0.3125,-1.296875 0.046875,-0.125 0.328125,-0.59375 0.5625,-0.8125 0.078125,-0.0625 0.375,-0.328125 0.796875,-0.328125 0.265625,0 0.40625,0.125 0.421875,0.125 -0.296875,0.046875 -0.515625,0.28125 -0.515625,0.546875 0,0.15625 0.109375,0.34375 0.375,0.34375 0.265625,0 0.546875,-0.234375 0.546875,-0.59375 0,-0.34375 -0.3125,-0.640625 -0.828125,-0.640625 C 2.875,-4.40625 2.4375,-3.921875 2.25,-3.640625 2.15625,-4.09375 1.796875,-4.40625 1.328125,-4.40625 0.875,-4.40625 0.6875,-4.015625 0.59375,-3.84375 0.421875,-3.5 0.296875,-2.90625 0.296875,-2.875 c 0,0.109375 0.09375,0.109375 0.109375,0.109375 0.109375,0 0.109375,-0.015625 0.171875,-0.234375 0.171875,-0.703125 0.375,-1.1875 0.734375,-1.1875 0.15625,0 0.296875,0.078125 0.296875,0.453125 0,0.21875 -0.03125,0.328125 -0.15625,0.84375 z m 0,0"
               id="id-cccc502e-0189-4319-9770-c3c908235898" />
          </symbol>
        </g>
      </defs>
      <g
         id="id-b0a18c72-4ede-4f43-83f4-884b1d48c98e"
         transform="translate(-149.009,-130.359)">
        <g
           style="fill:#000000;fill-opacity:1"
           id="id-e793e489-b63b-4fff-b1bc-1697052379c8">
          <g
             id="g608"
             transform="translate(148.712,134.765)">
            <path
               style="stroke:none"
               d="m 0.875,-0.59375 c -0.03125,0.15625 -0.09375,0.390625 -0.09375,0.4375 0,0.171875 0.140625,0.265625 0.296875,0.265625 0.125,0 0.296875,-0.078125 0.375,-0.28125 C 1.46875,-0.203125 1.796875,-1.5625 1.84375,-1.75 c 0.078125,-0.328125 0.265625,-1.015625 0.3125,-1.296875 0.046875,-0.125 0.328125,-0.59375 0.5625,-0.8125 0.078125,-0.0625 0.375,-0.328125 0.796875,-0.328125 0.265625,0 0.40625,0.125 0.421875,0.125 -0.296875,0.046875 -0.515625,0.28125 -0.515625,0.546875 0,0.15625 0.109375,0.34375 0.375,0.34375 0.265625,0 0.546875,-0.234375 0.546875,-0.59375 0,-0.34375 -0.3125,-0.640625 -0.828125,-0.640625 C 2.875,-4.40625 2.4375,-3.921875 2.25,-3.640625 2.15625,-4.09375 1.796875,-4.40625 1.328125,-4.40625 0.875,-4.40625 0.6875,-4.015625 0.59375,-3.84375 0.421875,-3.5 0.296875,-2.90625 0.296875,-2.875 c 0,0.109375 0.09375,0.109375 0.109375,0.109375 0.109375,0 0.109375,-0.015625 0.171875,-0.234375 0.171875,-0.703125 0.375,-1.1875 0.734375,-1.1875 0.15625,0 0.296875,0.078125 0.296875,0.453125 0,0.21875 -0.03125,0.328125 -0.15625,0.84375 z m 0,0"
               id="id-02308131-79cf-423f-ba5a-450842fa2543" />
          </g>
        </g>
      </g>
    </g>
    <g
       transform="translate(-15.683611,-8.4871722)"
       id="g1717">
      <path
         sodipodi:nodetypes="cssssssssssssssssc"
         id="path12"
         d="m 45,90 c 0,0 -11.012099,-6.248594 -12.576413,-12.000002 -1.73545,-6.380614 -0.959295,-13.419417 0,-20 0.758389,-5.202407 2.294246,-10.331532 4.491576,-14.999999 C 40.389447,35.618505 44.056717,27.443099 50.38989,23 56.848487,18.46891 65.552228,17.223131 73.087863,15.861844 85.002747,13.70946 99.26068,11.873665 111.18131,11.396383 c 11.96979,-0.479252 21.55414,-0.534539 33.53168,-0.534539 7.48595,0 16.26904,0.0015 23.65834,1.336347 4.67341,0.844235 8.69754,2.348593 12.27427,5.801809 2.52912,2.441793 3.7224,6.372915 4.49157,10 0.68797,3.244163 1.20047,6.399396 1.20047,9.732729 0,3.333334 0.21246,7.328355 -1.20047,10.267271 -2.54718,5.298204 -7.06241,7.804821 -11.55398,11.138154 -4.49158,3.333334 -10.14372,5.554388 -15.39547,7.861845 -13.21177,5.804835 -26.66495,11.075913 -40.42419,14.999999 C 101.54812,86.624577 85.027672,90.32657 68.356194,91.999999 59.409341,92.898055 45,90 45,90"
         style="fill:none;stroke:#000000;stroke-width:0.25077px;stroke-linecap:butt;stroke-linejoin:miter;stroke-opacity:1" />
      <path
         id="path14"
         d="M 39.999999,10 120,94.999999"
         style="fill:none;stroke:#000000;stroke-width:0.264583px;stroke-linecap:butt;stroke-linejoin:miter;stroke-opacity:1" />
      <circle
         r="2"
         cy="65"
         cx="50"
         id="path16"
         style="opacity:0.74212;fill:#4d4d4d;stroke:#6a6a6a;stroke-width:0.264999" />
      <circle
         style="opacity:0.74212;fill:#4d4d4d;stroke:#6a6a6a;stroke-width:0.264999"
         id="circle18"
         cx="107.1325"
         cy="20.1325"
         r="2" />
      <path
         id="path20"
         d="m 50,64.999999 25.999998,-17"
         style="fill:none;stroke:#000000;stroke-width:0.264583px;stroke-linecap:butt;stroke-linejoin:miter;stroke-opacity:1" />
      <path
         sodipodi:nodetypes="ccc"
         style="fill:none;stroke:#000000;stroke-width:0.264583px;stroke-linecap:butt;stroke-linejoin:miter;stroke-opacity:1"
         d="M 107,20 81.000002,37 71,43"
         id="path22" />
      <g
         transform="matrix(0.529167,0,0,0.529167,41.528003,59.8248)"
         ns21:version="1.0.1"
         ns21:texconverter="pdflatex"
         ns21:pdfconverter="inkscape"
         ns21:text="$dA$"
         ns21:preamble="C:\\Users\\claum\\AppData\\Roaming\\inkscape\\extensions\\textext\\default_packages.tex"
         ns21:scale="1.5"
         ns21:alignment="middle center"
         ns21:jacobian_sqrt="0.529167"
         id="g50">
        <defs
           id="id-8fbdc7f5-2d40-493c-b7d5-fd41d5780648">
          <g
             id="id-83a77caf-6e79-47ca-9719-1e6204184570">
            <symbol
               id="id-358df122-f60d-4b67-8c04-1d08798f685c"
               overflow="visible">
              <path
                 id="id-b7745cd6-23c9-4bc9-9ee3-6dd5218ecd8f"
                 d=""
                 style="stroke:none" />
            </symbol>
            <symbol
               id="id-a22cd39e-b3ee-4f5d-9144-1ae9ae7e2e77"
               overflow="visible">
              <path
                 id="id-9dc674e0-5ddd-4fc2-9926-1dadd3f6d4a0"
                 d="m 5.140625,-6.8125 c 0,0 0,-0.109375 -0.125,-0.109375 -0.15625,0 -1.09375,0.09375 -1.265625,0.109375 -0.078125,0.015625 -0.140625,0.0625 -0.140625,0.1875 0,0.125 0.09375,0.125 0.234375,0.125 0.484375,0 0.5,0.0625 0.5,0.171875 L 4.3125,-6.125 3.71875,-3.765625 C 3.53125,-4.140625 3.25,-4.40625 2.796875,-4.40625 c -1.15625,0 -2.390625,1.46875 -2.390625,2.921875 0,0.9375 0.546875,1.59375 1.3125,1.59375 0.203125,0 0.703125,-0.046875 1.296875,-0.75 0.078125,0.421875 0.4375,0.75 0.90625,0.75 0.359375,0 0.578125,-0.234375 0.75,-0.546875 0.15625,-0.359375 0.296875,-0.96875 0.296875,-0.984375 0,-0.109375 -0.09375,-0.109375 -0.125,-0.109375 -0.09375,0 -0.109375,0.046875 -0.140625,0.1875 -0.171875,0.640625 -0.34375,1.234375 -0.75,1.234375 -0.28125,0 -0.296875,-0.265625 -0.296875,-0.453125 0,-0.25 0.015625,-0.3125 0.046875,-0.484375 z m -2.0625,5.625 C 3.015625,-1 3.015625,-0.984375 2.875,-0.8125 2.4375,-0.265625 2.03125,-0.109375 1.75,-0.109375 c -0.5,0 -0.640625,-0.546875 -0.640625,-0.9375 0,-0.5 0.3125,-1.71875 0.546875,-2.1875 0.3125,-0.578125 0.75,-0.953125 1.15625,-0.953125 0.640625,0 0.78125,0.8125 0.78125,0.875 0,0.0625 -0.015625,0.125 -0.03125,0.171875 z m 0,0"
                 style="stroke:none" />
            </symbol>
            <symbol
               id="id-c015a175-2061-4453-9af9-e0eead7f2f0a"
               overflow="visible">
              <path
                 id="id-d830dd11-2fa1-4476-8065-1ba5c006a756"
                 d="M 1.78125,-1.140625 C 1.390625,-0.484375 1,-0.34375 0.5625,-0.3125 0.4375,-0.296875 0.34375,-0.296875 0.34375,-0.109375 0.34375,-0.046875 0.40625,0 0.484375,0 0.75,0 1.0625,-0.03125 1.328125,-0.03125 c 0.34375,0 0.6875,0.03125 1,0.03125 0.0625,0 0.1875,0 0.1875,-0.1875 0,-0.109375 -0.078125,-0.125 -0.15625,-0.125 -0.21875,-0.015625 -0.46875,-0.09375 -0.46875,-0.34375 0,-0.125 0.0625,-0.234375 0.140625,-0.375 l 0.765625,-1.265625 h 2.5 c 0.015625,0.203125 0.15625,1.5625 0.15625,1.65625 0,0.296875 -0.515625,0.328125 -0.71875,0.328125 C 4.59375,-0.3125 4.5,-0.3125 4.5,-0.109375 4.5,0 4.609375,0 4.640625,0 5.046875,0 5.46875,-0.03125 5.875,-0.03125 6.125,-0.03125 6.765625,0 7.015625,0 7.0625,0 7.1875,0 7.1875,-0.203125 7.1875,-0.3125 7.09375,-0.3125 6.953125,-0.3125 6.34375,-0.3125 6.34375,-0.375 6.3125,-0.671875 l -0.609375,-6.21875 c -0.015625,-0.203125 -0.015625,-0.25 -0.1875,-0.25 -0.15625,0 -0.203125,0.078125 -0.265625,0.171875 z M 2.984375,-2.609375 4.9375,-5.90625 5.265625,-2.609375 Z m 0,0"
                 style="stroke:none" />
            </symbol>
          </g>
        </defs>
        <g
           transform="translate(-149.118,-127.624)"
           id="id-32b2c0e1-2c70-4769-967d-e21c2bfe149e">
          <g
             id="id-e251cd67-862a-4484-8cff-4809be4ed244"
             style="fill:#000000;fill-opacity:1">
            <g
               transform="translate(148.712,134.765)"
               id="g43">
              <path
                 id="id-972c9225-693d-4b19-9aea-53c08a9b150c"
                 d="m 5.140625,-6.8125 c 0,0 0,-0.109375 -0.125,-0.109375 -0.15625,0 -1.09375,0.09375 -1.265625,0.109375 -0.078125,0.015625 -0.140625,0.0625 -0.140625,0.1875 0,0.125 0.09375,0.125 0.234375,0.125 0.484375,0 0.5,0.0625 0.5,0.171875 L 4.3125,-6.125 3.71875,-3.765625 C 3.53125,-4.140625 3.25,-4.40625 2.796875,-4.40625 c -1.15625,0 -2.390625,1.46875 -2.390625,2.921875 0,0.9375 0.546875,1.59375 1.3125,1.59375 0.203125,0 0.703125,-0.046875 1.296875,-0.75 0.078125,0.421875 0.4375,0.75 0.90625,0.75 0.359375,0 0.578125,-0.234375 0.75,-0.546875 0.15625,-0.359375 0.296875,-0.96875 0.296875,-0.984375 0,-0.109375 -0.09375,-0.109375 -0.125,-0.109375 -0.09375,0 -0.109375,0.046875 -0.140625,0.1875 -0.171875,0.640625 -0.34375,1.234375 -0.75,1.234375 -0.28125,0 -0.296875,-0.265625 -0.296875,-0.453125 0,-0.25 0.015625,-0.3125 0.046875,-0.484375 z m -2.0625,5.625 C 3.015625,-1 3.015625,-0.984375 2.875,-0.8125 2.4375,-0.265625 2.03125,-0.109375 1.75,-0.109375 c -0.5,0 -0.640625,-0.546875 -0.640625,-0.9375 0,-0.5 0.3125,-1.71875 0.546875,-2.1875 0.3125,-0.578125 0.75,-0.953125 1.15625,-0.953125 0.640625,0 0.78125,0.8125 0.78125,0.875 0,0.0625 -0.015625,0.125 -0.03125,0.171875 z m 0,0"
                 style="stroke:none" />
            </g>
            <g
               transform="translate(153.898,134.765)"
               id="g46">
              <path
                 id="id-5f803921-f242-45e2-99e7-54df5caa92ad"
                 d="M 1.78125,-1.140625 C 1.390625,-0.484375 1,-0.34375 0.5625,-0.3125 0.4375,-0.296875 0.34375,-0.296875 0.34375,-0.109375 0.34375,-0.046875 0.40625,0 0.484375,0 0.75,0 1.0625,-0.03125 1.328125,-0.03125 c 0.34375,0 0.6875,0.03125 1,0.03125 0.0625,0 0.1875,0 0.1875,-0.1875 0,-0.109375 -0.078125,-0.125 -0.15625,-0.125 -0.21875,-0.015625 -0.46875,-0.09375 -0.46875,-0.34375 0,-0.125 0.0625,-0.234375 0.140625,-0.375 l 0.765625,-1.265625 h 2.5 c 0.015625,0.203125 0.15625,1.5625 0.15625,1.65625 0,0.296875 -0.515625,0.328125 -0.71875,0.328125 C 4.59375,-0.3125 4.5,-0.3125 4.5,-0.109375 4.5,0 4.609375,0 4.640625,0 5.046875,0 5.46875,-0.03125 5.875,-0.03125 6.125,-0.03125 6.765625,0 7.015625,0 7.0625,0 7.1875,0 7.1875,-0.203125 7.1875,-0.3125 7.09375,-0.3125 6.953125,-0.3125 6.34375,-0.3125 6.34375,-0.375 6.3125,-0.671875 l -0.609375,-6.21875 c -0.015625,-0.203125 -0.015625,-0.25 -0.1875,-0.25 -0.15625,0 -0.203125,0.078125 -0.265625,0.171875 z M 2.984375,-2.609375 4.9375,-5.90625 5.265625,-2.609375 Z m 0,0"
                 style="stroke:none" />
            </g>
          </g>
        </g>
      </g>
      <g
         id="g98"
         ns21:jacobian_sqrt="0.529167"
         ns21:alignment="middle center"
         ns21:scale="1.5"
         ns21:preamble="C:\\Users\\claum\\AppData\\Roaming\\inkscape\\extensions\\textext\\default_packages.tex"
         ns21:text="$dA$"
         ns21:pdfconverter="inkscape"
         ns21:texconverter="pdflatex"
         ns21:version="1.0.1"
         transform="matrix(0.529167,0,0,0.529167,98.891349,14.602014)">
        <defs
           id="defs84">
          <g
             id="g82">
            <symbol
               overflow="visible"
               id="symbol72">
              <path
                 style="stroke:none"
                 d=""
                 id="path70" />
            </symbol>
            <symbol
               overflow="visible"
               id="symbol76">
              <path
                 style="stroke:none"
                 d="m 5.140625,-6.8125 c 0,0 0,-0.109375 -0.125,-0.109375 -0.15625,0 -1.09375,0.09375 -1.265625,0.109375 -0.078125,0.015625 -0.140625,0.0625 -0.140625,0.1875 0,0.125 0.09375,0.125 0.234375,0.125 0.484375,0 0.5,0.0625 0.5,0.171875 L 4.3125,-6.125 3.71875,-3.765625 C 3.53125,-4.140625 3.25,-4.40625 2.796875,-4.40625 c -1.15625,0 -2.390625,1.46875 -2.390625,2.921875 0,0.9375 0.546875,1.59375 1.3125,1.59375 0.203125,0 0.703125,-0.046875 1.296875,-0.75 0.078125,0.421875 0.4375,0.75 0.90625,0.75 0.359375,0 0.578125,-0.234375 0.75,-0.546875 0.15625,-0.359375 0.296875,-0.96875 0.296875,-0.984375 0,-0.109375 -0.09375,-0.109375 -0.125,-0.109375 -0.09375,0 -0.109375,0.046875 -0.140625,0.1875 -0.171875,0.640625 -0.34375,1.234375 -0.75,1.234375 -0.28125,0 -0.296875,-0.265625 -0.296875,-0.453125 0,-0.25 0.015625,-0.3125 0.046875,-0.484375 z m -2.0625,5.625 C 3.015625,-1 3.015625,-0.984375 2.875,-0.8125 2.4375,-0.265625 2.03125,-0.109375 1.75,-0.109375 c -0.5,0 -0.640625,-0.546875 -0.640625,-0.9375 0,-0.5 0.3125,-1.71875 0.546875,-2.1875 0.3125,-0.578125 0.75,-0.953125 1.15625,-0.953125 0.640625,0 0.78125,0.8125 0.78125,0.875 0,0.0625 -0.015625,0.125 -0.03125,0.171875 z m 0,0"
                 id="path74" />
            </symbol>
            <symbol
               overflow="visible"
               id="symbol80">
              <path
                 style="stroke:none"
                 d="M 1.78125,-1.140625 C 1.390625,-0.484375 1,-0.34375 0.5625,-0.3125 0.4375,-0.296875 0.34375,-0.296875 0.34375,-0.109375 0.34375,-0.046875 0.40625,0 0.484375,0 0.75,0 1.0625,-0.03125 1.328125,-0.03125 c 0.34375,0 0.6875,0.03125 1,0.03125 0.0625,0 0.1875,0 0.1875,-0.1875 0,-0.109375 -0.078125,-0.125 -0.15625,-0.125 -0.21875,-0.015625 -0.46875,-0.09375 -0.46875,-0.34375 0,-0.125 0.0625,-0.234375 0.140625,-0.375 l 0.765625,-1.265625 h 2.5 c 0.015625,0.203125 0.15625,1.5625 0.15625,1.65625 0,0.296875 -0.515625,0.328125 -0.71875,0.328125 C 4.59375,-0.3125 4.5,-0.3125 4.5,-0.109375 4.5,0 4.609375,0 4.640625,0 5.046875,0 5.46875,-0.03125 5.875,-0.03125 6.125,-0.03125 6.765625,0 7.015625,0 7.0625,0 7.1875,0 7.1875,-0.203125 7.1875,-0.3125 7.09375,-0.3125 6.953125,-0.3125 6.34375,-0.3125 6.34375,-0.375 6.3125,-0.671875 l -0.609375,-6.21875 c -0.015625,-0.203125 -0.015625,-0.25 -0.1875,-0.25 -0.15625,0 -0.203125,0.078125 -0.265625,0.171875 z M 2.984375,-2.609375 4.9375,-5.90625 5.265625,-2.609375 Z m 0,0"
                 id="path78" />
            </symbol>
          </g>
        </defs>
        <g
           id="g96"
           transform="translate(-149.118,-127.624)">
          <g
             style="fill:#000000;fill-opacity:1"
             id="g94">
            <g
               id="g88"
               transform="translate(148.712,134.765)">
              <path
                 style="stroke:none"
                 d="m 5.140625,-6.8125 c 0,0 0,-0.109375 -0.125,-0.109375 -0.15625,0 -1.09375,0.09375 -1.265625,0.109375 -0.078125,0.015625 -0.140625,0.0625 -0.140625,0.1875 0,0.125 0.09375,0.125 0.234375,0.125 0.484375,0 0.5,0.0625 0.5,0.171875 L 4.3125,-6.125 3.71875,-3.765625 C 3.53125,-4.140625 3.25,-4.40625 2.796875,-4.40625 c -1.15625,0 -2.390625,1.46875 -2.390625,2.921875 0,0.9375 0.546875,1.59375 1.3125,1.59375 0.203125,0 0.703125,-0.046875 1.296875,-0.75 0.078125,0.421875 0.4375,0.75 0.90625,0.75 0.359375,0 0.578125,-0.234375 0.75,-0.546875 0.15625,-0.359375 0.296875,-0.96875 0.296875,-0.984375 0,-0.109375 -0.09375,-0.109375 -0.125,-0.109375 -0.09375,0 -0.109375,0.046875 -0.140625,0.1875 -0.171875,0.640625 -0.34375,1.234375 -0.75,1.234375 -0.28125,0 -0.296875,-0.265625 -0.296875,-0.453125 0,-0.25 0.015625,-0.3125 0.046875,-0.484375 z m -2.0625,5.625 C 3.015625,-1 3.015625,-0.984375 2.875,-0.8125 2.4375,-0.265625 2.03125,-0.109375 1.75,-0.109375 c -0.5,0 -0.640625,-0.546875 -0.640625,-0.9375 0,-0.5 0.3125,-1.71875 0.546875,-2.1875 0.3125,-0.578125 0.75,-0.953125 1.15625,-0.953125 0.640625,0 0.78125,0.8125 0.78125,0.875 0,0.0625 -0.015625,0.125 -0.03125,0.171875 z m 0,0"
                 id="path86" />
            </g>
            <g
               id="g92"
               transform="translate(153.898,134.765)">
              <path
                 style="stroke:none"
                 d="M 1.78125,-1.140625 C 1.390625,-0.484375 1,-0.34375 0.5625,-0.3125 0.4375,-0.296875 0.34375,-0.296875 0.34375,-0.109375 0.34375,-0.046875 0.40625,0 0.484375,0 0.75,0 1.0625,-0.03125 1.328125,-0.03125 c 0.34375,0 0.6875,0.03125 1,0.03125 0.0625,0 0.1875,0 0.1875,-0.1875 0,-0.109375 -0.078125,-0.125 -0.15625,-0.125 -0.21875,-0.015625 -0.46875,-0.09375 -0.46875,-0.34375 0,-0.125 0.0625,-0.234375 0.140625,-0.375 l 0.765625,-1.265625 h 2.5 c 0.015625,0.203125 0.15625,1.5625 0.15625,1.65625 0,0.296875 -0.515625,0.328125 -0.71875,0.328125 C 4.59375,-0.3125 4.5,-0.3125 4.5,-0.109375 4.5,0 4.609375,0 4.640625,0 5.046875,0 5.46875,-0.03125 5.875,-0.03125 6.125,-0.03125 6.765625,0 7.015625,0 7.0625,0 7.1875,0 7.1875,-0.203125 7.1875,-0.3125 7.09375,-0.3125 6.953125,-0.3125 6.34375,-0.3125 6.34375,-0.375 6.3125,-0.671875 l -0.609375,-6.21875 c -0.015625,-0.203125 -0.015625,-0.25 -0.1875,-0.25 -0.15625,0 -0.203125,0.078125 -0.265625,0.171875 z M 2.984375,-2.609375 4.9375,-5.90625 5.265625,-2.609375 Z m 0,0"
                 id="path90" />
            </g>
          </g>
        </g>
      </g>
      <g
         transform="matrix(0.529167,0,0,0.529167,60.103552,59.148306)"
         ns21:version="1.0.1"
         ns21:texconverter="pdflatex"
         ns21:pdfconverter="inkscape"
         ns21:text="$\\lambda&gt;0$"
         ns21:preamble="C:\\Users\\claum\\AppData\\Roaming\\inkscape\\extensions\\textext\\default_packages.tex"
         ns21:scale="1.5"
         ns21:alignment="middle center"
         ns21:jacobian_sqrt="0.529167"
         id="g258">
        <defs
           id="id-ffd17a7f-903d-429b-a714-1e0beefc0706">
          <g
             id="id-512b5d86-2bbb-4eac-8f1d-f8960e352bb7">
            <symbol
               id="id-8a5b6652-2431-4eac-bf7c-de1e3d7a0a5b"
               overflow="visible">
              <path
                 id="id-78b478d1-9527-4e91-9f42-9e3ccc5f2703"
                 d=""
                 style="stroke:none" />
            </symbol>
            <symbol
               id="id-896fc8af-f135-45c2-b149-a66bc347f9b8"
               overflow="visible">
              <path
                 id="id-c17274de-7ba3-42dc-81ed-e17303be574a"
                 d="m 3.5625,-2.90625 c 0.40625,1.046875 0.890625,2.5625 1.046875,2.796875 0.15625,0.21875 0.25,0.21875 0.53125,0.21875 h 0.21875 c 0.09375,-0.015625 0.109375,-0.0625 0.109375,-0.09375 0,-0.03125 -0.03125,-0.0625 -0.0625,-0.09375 C 5.3125,-0.1875 5.25,-0.34375 5.1875,-0.53125 L 3.15625,-6.203125 c -0.21875,-0.578125 -0.75,-0.71875 -1.21875,-0.71875 -0.046875,0 -0.1875,0 -0.1875,0.109375 0,0.078125 0.078125,0.109375 0.09375,0.109375 C 2.171875,-6.65625 2.25,-6.59375 2.5,-5.90625 l 0.953125,2.703125 -2.75,2.734375 c -0.109375,0.125 -0.171875,0.171875 -0.171875,0.3125 0,0.171875 0.140625,0.28125 0.296875,0.28125 0.15625,0 0.25,-0.109375 0.328125,-0.203125 z m 0,0"
                 style="stroke:none" />
            </symbol>
            <symbol
               id="id-eb941377-47e1-4fad-95b2-e2cc6da14912"
               overflow="visible">
              <path
                 id="id-b1facbd7-a6ad-449e-82a0-bd61381f5b07"
                 d="M 6.734375,-2.265625 C 6.84375,-2.328125 6.921875,-2.375 6.921875,-2.5 c 0,-0.109375 -0.078125,-0.15625 -0.1875,-0.21875 L 1.203125,-5.3125 C 1.078125,-5.390625 1.0625,-5.390625 1.03125,-5.390625 c -0.109375,0 -0.203125,0.09375 -0.203125,0.203125 0,0.09375 0.046875,0.15625 0.1875,0.21875 L 6.25,-2.5 1.015625,-0.015625 c -0.140625,0.0625 -0.1875,0.125 -0.1875,0.21875 0,0.109375 0.09375,0.203125 0.203125,0.203125 0.03125,0 0.046875,0 0.171875,-0.078125 z m 0,0"
                 style="stroke:none" />
            </symbol>
            <symbol
               id="id-851f464d-39df-4da7-8f85-64ac1f8378ba"
               overflow="visible">
              <path
                 id="id-cc0380d8-974b-4e7a-8ff1-c17d64b9001d"
                 d=""
                 style="stroke:none" />
            </symbol>
            <symbol
               id="id-be4434dc-6ce9-47b8-a6b2-2a81c5a28b86"
               overflow="visible">
              <path
                 id="id-8ca4f958-b7db-4c8f-b4ad-0fcb998a9879"
                 d="m 4.578125,-3.1875 c 0,-0.796875 -0.046875,-1.59375 -0.390625,-2.328125 -0.453125,-0.96875 -1.28125,-1.125 -1.6875,-1.125 -0.609375,0 -1.328125,0.265625 -1.75,1.1875 -0.3125,0.6875 -0.359375,1.46875 -0.359375,2.265625 0,0.75 0.03125,1.640625 0.453125,2.40625 0.421875,0.796875 1.15625,1 1.640625,1 0.53125,0 1.296875,-0.203125 1.734375,-1.15625 0.3125,-0.6875 0.359375,-1.46875 0.359375,-2.25 z M 2.484375,0 C 2.09375,0 1.5,-0.25 1.328125,-1.203125 1.21875,-1.796875 1.21875,-2.71875 1.21875,-3.3125 c 0,-0.640625 0,-1.296875 0.078125,-1.828125 0.1875,-1.1875 0.9375,-1.28125 1.1875,-1.28125 0.328125,0 0.984375,0.1875 1.171875,1.171875 0.109375,0.5625 0.109375,1.3125 0.109375,1.9375 0,0.75 0,1.421875 -0.109375,2.0625 C 3.5,-0.296875 2.9375,0 2.484375,0 Z m 0,0"
                 style="stroke:none" />
            </symbol>
          </g>
        </defs>
        <g
           transform="translate(-149.243,-127.843)"
           id="id-343eb156-5960-4072-9f3c-da3e46c4eb49">
          <g
             id="id-e0c9cd6f-1aa2-4864-b8b3-4e919fccf46b"
             style="fill:#000000;fill-opacity:1">
            <g
               transform="translate(148.712,134.765)"
               id="g246">
              <path
                 id="id-dd5a43c3-3780-44eb-a595-efdb0832d4d5"
                 d="m 3.5625,-2.90625 c 0.40625,1.046875 0.890625,2.5625 1.046875,2.796875 0.15625,0.21875 0.25,0.21875 0.53125,0.21875 h 0.21875 c 0.09375,-0.015625 0.109375,-0.0625 0.109375,-0.09375 0,-0.03125 -0.03125,-0.0625 -0.0625,-0.09375 C 5.3125,-0.1875 5.25,-0.34375 5.1875,-0.53125 L 3.15625,-6.203125 c -0.21875,-0.578125 -0.75,-0.71875 -1.21875,-0.71875 -0.046875,0 -0.1875,0 -0.1875,0.109375 0,0.078125 0.078125,0.109375 0.09375,0.109375 C 2.171875,-6.65625 2.25,-6.59375 2.5,-5.90625 l 0.953125,2.703125 -2.75,2.734375 c -0.109375,0.125 -0.171875,0.171875 -0.171875,0.3125 0,0.171875 0.140625,0.28125 0.296875,0.28125 0.15625,0 0.25,-0.109375 0.328125,-0.203125 z m 0,0"
                 style="stroke:none" />
            </g>
          </g>
          <g
             id="id-6bef1428-b359-4dcc-b340-c01790c17e51"
             style="fill:#000000;fill-opacity:1">
            <g
               transform="translate(157.293,134.765)"
               id="g250">
              <path
                 id="id-13fff9f8-2b90-44c5-bc84-91c33e540123"
                 d="M 6.734375,-2.265625 C 6.84375,-2.328125 6.921875,-2.375 6.921875,-2.5 c 0,-0.109375 -0.078125,-0.15625 -0.1875,-0.21875 L 1.203125,-5.3125 C 1.078125,-5.390625 1.0625,-5.390625 1.03125,-5.390625 c -0.109375,0 -0.203125,0.09375 -0.203125,0.203125 0,0.09375 0.046875,0.15625 0.1875,0.21875 L 6.25,-2.5 1.015625,-0.015625 c -0.140625,0.0625 -0.1875,0.125 -0.1875,0.21875 0,0.109375 0.09375,0.203125 0.203125,0.203125 0.03125,0 0.046875,0 0.171875,-0.078125 z m 0,0"
                 style="stroke:none" />
            </g>
          </g>
          <g
             id="id-08178ca3-53fa-423b-89d4-e9a35b91b5df"
             style="fill:#000000;fill-opacity:1">
            <g
               transform="translate(167.807,134.765)"
               id="g254">
              <path
                 id="id-adab2441-7a0a-44d5-8237-8b1107c454d4"
                 d="m 4.578125,-3.1875 c 0,-0.796875 -0.046875,-1.59375 -0.390625,-2.328125 -0.453125,-0.96875 -1.28125,-1.125 -1.6875,-1.125 -0.609375,0 -1.328125,0.265625 -1.75,1.1875 -0.3125,0.6875 -0.359375,1.46875 -0.359375,2.265625 0,0.75 0.03125,1.640625 0.453125,2.40625 0.421875,0.796875 1.15625,1 1.640625,1 0.53125,0 1.296875,-0.203125 1.734375,-1.15625 0.3125,-0.6875 0.359375,-1.46875 0.359375,-2.25 z M 2.484375,0 C 2.09375,0 1.5,-0.25 1.328125,-1.203125 1.21875,-1.796875 1.21875,-2.71875 1.21875,-3.3125 c 0,-0.640625 0,-1.296875 0.078125,-1.828125 0.1875,-1.1875 0.9375,-1.28125 1.1875,-1.28125 0.328125,0 0.984375,0.1875 1.171875,1.171875 0.109375,0.5625 0.109375,1.3125 0.109375,1.9375 0,0.75 0,1.421875 -0.109375,2.0625 C 3.5,-0.296875 2.9375,0 2.484375,0 Z m 0,0"
                 style="stroke:none" />
            </g>
          </g>
        </g>
      </g>
      <g
         transform="matrix(0.529167,0,0,0.529167,92.946455,29.660024)"
         ns21:version="1.0.1"
         ns21:texconverter="pdflatex"
         ns21:pdfconverter="inkscape"
         ns21:text="$\\lambda&lt;0$"
         ns21:preamble="C:\\Users\\claum\\AppData\\Roaming\\inkscape\\extensions\\textext\\default_packages.tex"
         ns21:scale="1.5"
         ns21:alignment="middle center"
         ns21:jacobian_sqrt="0.529167"
         id="g374">
        <defs
           id="id-3fbe14d4-f54a-47bf-a205-3cf73196b0bd">
          <g
             id="id-e31db4ec-9d15-491b-ac7a-53d2ec7aea34">
            <symbol
               id="id-75222a83-b115-4d34-befb-5fa886cf29a5"
               overflow="visible">
              <path
                 id="id-9eaf8ccf-332b-4450-8ba5-82fd28cb72ed"
                 d=""
                 style="stroke:none" />
            </symbol>
            <symbol
               id="id-cc105c0b-9e79-4e0d-a89b-9514cfa769ff"
               overflow="visible">
              <path
                 id="id-14a313c3-0f57-4bd7-91b1-b2fa15a03461"
                 d="m 3.5625,-2.90625 c 0.40625,1.046875 0.890625,2.5625 1.046875,2.796875 0.15625,0.21875 0.25,0.21875 0.53125,0.21875 h 0.21875 c 0.09375,-0.015625 0.109375,-0.0625 0.109375,-0.09375 0,-0.03125 -0.03125,-0.0625 -0.0625,-0.09375 C 5.3125,-0.1875 5.25,-0.34375 5.1875,-0.53125 L 3.15625,-6.203125 c -0.21875,-0.578125 -0.75,-0.71875 -1.21875,-0.71875 -0.046875,0 -0.1875,0 -0.1875,0.109375 0,0.078125 0.078125,0.109375 0.09375,0.109375 C 2.171875,-6.65625 2.25,-6.59375 2.5,-5.90625 l 0.953125,2.703125 -2.75,2.734375 c -0.109375,0.125 -0.171875,0.171875 -0.171875,0.3125 0,0.171875 0.140625,0.28125 0.296875,0.28125 0.15625,0 0.25,-0.109375 0.328125,-0.203125 z m 0,0"
                 style="stroke:none" />
            </symbol>
            <symbol
               id="id-95f9d24a-1bd3-47c5-bdee-3dc26ac4c728"
               overflow="visible">
              <path
                 id="id-f0a3c436-5339-43ac-947b-4b473c5bc181"
                 d="m 6.734375,-4.96875 c 0.109375,-0.0625 0.1875,-0.109375 0.1875,-0.21875 0,-0.109375 -0.09375,-0.203125 -0.203125,-0.203125 -0.03125,0 -0.046875,0 -0.171875,0.078125 l -5.53125,2.59375 c -0.109375,0.0625 -0.1875,0.109375 -0.1875,0.21875 0,0.125 0.078125,0.171875 0.1875,0.234375 l 5.53125,2.59375 C 6.671875,0.40625 6.6875,0.40625 6.71875,0.40625 c 0.109375,0 0.203125,-0.09375 0.203125,-0.203125 0,-0.109375 -0.078125,-0.15625 -0.1875,-0.21875 L 1.5,-2.5 Z m 0,0"
                 style="stroke:none" />
            </symbol>
            <symbol
               id="id-cd8e44ba-30c0-433a-8e9d-852b99bbc3d7"
               overflow="visible">
              <path
                 id="id-e6b5edd6-c0b4-4e37-a7bb-5cef7c5e53c8"
                 d=""
                 style="stroke:none" />
            </symbol>
            <symbol
               id="id-9f751786-4a3d-4122-8cea-b36166efe002"
               overflow="visible">
              <path
                 id="id-63cefdab-f569-46c9-8cf6-ef5167723d74"
                 d="m 4.578125,-3.1875 c 0,-0.796875 -0.046875,-1.59375 -0.390625,-2.328125 -0.453125,-0.96875 -1.28125,-1.125 -1.6875,-1.125 -0.609375,0 -1.328125,0.265625 -1.75,1.1875 -0.3125,0.6875 -0.359375,1.46875 -0.359375,2.265625 0,0.75 0.03125,1.640625 0.453125,2.40625 0.421875,0.796875 1.15625,1 1.640625,1 0.53125,0 1.296875,-0.203125 1.734375,-1.15625 0.3125,-0.6875 0.359375,-1.46875 0.359375,-2.25 z M 2.484375,0 C 2.09375,0 1.5,-0.25 1.328125,-1.203125 1.21875,-1.796875 1.21875,-2.71875 1.21875,-3.3125 c 0,-0.640625 0,-1.296875 0.078125,-1.828125 0.1875,-1.1875 0.9375,-1.28125 1.1875,-1.28125 0.328125,0 0.984375,0.1875 1.171875,1.171875 0.109375,0.5625 0.109375,1.3125 0.109375,1.9375 0,0.75 0,1.421875 -0.109375,2.0625 C 3.5,-0.296875 2.9375,0 2.484375,0 Z m 0,0"
                 style="stroke:none" />
            </symbol>
          </g>
        </defs>
        <g
           transform="translate(-149.243,-127.843)"
           id="id-dfb31221-64dd-4f43-9333-027608feba0e">
          <g
             id="id-0387ee88-de9c-4da2-9810-d965eb9af542"
             style="fill:#000000;fill-opacity:1">
            <g
               transform="translate(148.712,134.765)"
               id="g362">
              <path
                 id="id-628db8d9-ca87-491e-a72e-fa1697e06be4"
                 d="m 3.5625,-2.90625 c 0.40625,1.046875 0.890625,2.5625 1.046875,2.796875 0.15625,0.21875 0.25,0.21875 0.53125,0.21875 h 0.21875 c 0.09375,-0.015625 0.109375,-0.0625 0.109375,-0.09375 0,-0.03125 -0.03125,-0.0625 -0.0625,-0.09375 C 5.3125,-0.1875 5.25,-0.34375 5.1875,-0.53125 L 3.15625,-6.203125 c -0.21875,-0.578125 -0.75,-0.71875 -1.21875,-0.71875 -0.046875,0 -0.1875,0 -0.1875,0.109375 0,0.078125 0.078125,0.109375 0.09375,0.109375 C 2.171875,-6.65625 2.25,-6.59375 2.5,-5.90625 l 0.953125,2.703125 -2.75,2.734375 c -0.109375,0.125 -0.171875,0.171875 -0.171875,0.3125 0,0.171875 0.140625,0.28125 0.296875,0.28125 0.15625,0 0.25,-0.109375 0.328125,-0.203125 z m 0,0"
                 style="stroke:none" />
            </g>
          </g>
          <g
             id="id-d6d9b36c-5c12-43db-b670-3cee058fccc0"
             style="fill:#000000;fill-opacity:1">
            <g
               transform="translate(157.293,134.765)"
               id="g366">
              <path
                 id="id-d9252db3-044b-49b4-bd7a-d9607b6b8e70"
                 d="m 6.734375,-4.96875 c 0.109375,-0.0625 0.1875,-0.109375 0.1875,-0.21875 0,-0.109375 -0.09375,-0.203125 -0.203125,-0.203125 -0.03125,0 -0.046875,0 -0.171875,0.078125 l -5.53125,2.59375 c -0.109375,0.0625 -0.1875,0.109375 -0.1875,0.21875 0,0.125 0.078125,0.171875 0.1875,0.234375 l 5.53125,2.59375 C 6.671875,0.40625 6.6875,0.40625 6.71875,0.40625 c 0.109375,0 0.203125,-0.09375 0.203125,-0.203125 0,-0.109375 -0.078125,-0.15625 -0.1875,-0.21875 L 1.5,-2.5 Z m 0,0"
                 style="stroke:none" />
            </g>
          </g>
          <g
             id="id-56503b2b-d2cf-4fe8-9b1d-fb8f159029cf"
             style="fill:#000000;fill-opacity:1">
            <g
               transform="translate(167.807,134.765)"
               id="g370">
              <path
                 id="id-01f9b214-392d-42da-ac11-4dbb5261b186"
                 d="m 4.578125,-3.1875 c 0,-0.796875 -0.046875,-1.59375 -0.390625,-2.328125 -0.453125,-0.96875 -1.28125,-1.125 -1.6875,-1.125 -0.609375,0 -1.328125,0.265625 -1.75,1.1875 -0.3125,0.6875 -0.359375,1.46875 -0.359375,2.265625 0,0.75 0.03125,1.640625 0.453125,2.40625 0.421875,0.796875 1.15625,1 1.640625,1 0.53125,0 1.296875,-0.203125 1.734375,-1.15625 0.3125,-0.6875 0.359375,-1.46875 0.359375,-2.25 z M 2.484375,0 C 2.09375,0 1.5,-0.25 1.328125,-1.203125 1.21875,-1.796875 1.21875,-2.71875 1.21875,-3.3125 c 0,-0.640625 0,-1.296875 0.078125,-1.828125 0.1875,-1.1875 0.9375,-1.28125 1.1875,-1.28125 0.328125,0 0.984375,0.1875 1.171875,1.171875 0.109375,0.5625 0.109375,1.3125 0.109375,1.9375 0,0.75 0,1.421875 -0.109375,2.0625 C 3.5,-0.296875 2.9375,0 2.484375,0 Z m 0,0"
                 style="stroke:none" />
            </g>
          </g>
        </g>
      </g>
      <g
         transform="matrix(1.05833,0,0,1.05833,18.055371,14.92372)"
         ns21:version="1.0.1"
         ns21:texconverter="pdflatex"
         ns21:pdfconverter="inkscape"
         ns21:text="$(+)$"
         ns21:preamble="C:\\Users\\claum\\AppData\\Roaming\\inkscape\\extensions\\textext\\default_packages.tex"
         ns21:scale="3.0"
         ns21:alignment="middle center"
         ns21:jacobian_sqrt="1.05833"
         id="g746">
        <defs
           id="id-eac55c1d-fbe5-4ac2-a080-33f6ab59617b">
          <g
             id="id-ba2cb1c2-5f1a-4ba2-a400-e5c222bb93e3">
            <symbol
               id="id-685361c4-6fa6-4301-9e5d-6bd875ce7d20"
               overflow="visible">
              <path
                 id="id-cdb8a664-f191-46d1-8b78-7d778d601d4b"
                 d=""
                 style="stroke:none" />
            </symbol>
            <symbol
               id="id-a7461c28-ed03-4b54-a41c-21fd9a1202c1"
               overflow="visible">
              <path
                 id="id-a9106423-0b5b-4ef3-b3f5-96876cfd90b1"
                 d="m 3.296875,2.390625 c 0,-0.03125 0,-0.046875 -0.171875,-0.21875 C 1.890625,0.921875 1.5625,-0.96875 1.5625,-2.5 c 0,-1.734375 0.375,-3.46875 1.609375,-4.703125 0.125,-0.125 0.125,-0.140625 0.125,-0.171875 0,-0.078125 -0.03125,-0.109375 -0.09375,-0.109375 -0.109375,0 -1,0.6875 -1.59375,1.953125 -0.5,1.09375 -0.625,2.203125 -0.625,3.03125 0,0.78125 0.109375,1.984375 0.65625,3.125 C 2.25,1.84375 3.09375,2.5 3.203125,2.5 c 0.0625,0 0.09375,-0.03125 0.09375,-0.109375 z m 0,0"
                 style="stroke:none" />
            </symbol>
            <symbol
               id="id-5942baf7-de02-4793-b6e6-8af43d083ca3"
               overflow="visible">
              <path
                 id="id-f30c0935-8273-4089-9d51-048690571ea1"
                 d="m 4.078125,-2.296875 h 2.78125 C 7,-2.296875 7.1875,-2.296875 7.1875,-2.5 7.1875,-2.6875 7,-2.6875 6.859375,-2.6875 h -2.78125 v -2.796875 c 0,-0.140625 0,-0.328125 -0.203125,-0.328125 -0.203125,0 -0.203125,0.1875 -0.203125,0.328125 V -2.6875 h -2.78125 c -0.140625,0 -0.328125,0 -0.328125,0.1875 0,0.203125 0.1875,0.203125 0.328125,0.203125 h 2.78125 V 0.5 c 0,0.140625 0,0.328125 0.203125,0.328125 0.203125,0 0.203125,-0.1875 0.203125,-0.328125 z m 0,0"
                 style="stroke:none" />
            </symbol>
            <symbol
               id="id-62debcf6-76c5-4bd4-9076-483f5874a451"
               overflow="visible">
              <path
                 id="id-3acbcc55-aa64-4076-b010-112cf50cc815"
                 d="m 2.875,-2.5 c 0,-0.765625 -0.109375,-1.96875 -0.65625,-3.109375 -0.59375,-1.21875 -1.453125,-1.875 -1.546875,-1.875 -0.0625,0 -0.109375,0.046875 -0.109375,0.109375 0,0.03125 0,0.046875 0.1875,0.234375 0.984375,0.984375 1.546875,2.5625 1.546875,4.640625 0,1.71875 -0.359375,3.46875 -1.59375,4.71875 C 0.5625,2.34375 0.5625,2.359375 0.5625,2.390625 0.5625,2.453125 0.609375,2.5 0.671875,2.5 0.765625,2.5 1.671875,1.8125 2.25,0.546875 2.765625,-0.546875 2.875,-1.65625 2.875,-2.5 Z m 0,0"
                 style="stroke:none" />
            </symbol>
          </g>
        </defs>
        <g
           transform="translate(-149.696,-127.281)"
           id="id-05896386-bdda-4788-927c-a1a0598e6482">
          <g
             id="id-f759db47-d62c-44dd-9998-4eef4a51c572"
             style="fill:#000000;fill-opacity:1">
            <g
               transform="translate(148.712,134.765)"
               id="g736">
              <path
                 id="id-257af33f-1d49-4778-93ab-ca6830e081a7"
                 d="m 3.296875,2.390625 c 0,-0.03125 0,-0.046875 -0.171875,-0.21875 C 1.890625,0.921875 1.5625,-0.96875 1.5625,-2.5 c 0,-1.734375 0.375,-3.46875 1.609375,-4.703125 0.125,-0.125 0.125,-0.140625 0.125,-0.171875 0,-0.078125 -0.03125,-0.109375 -0.09375,-0.109375 -0.109375,0 -1,0.6875 -1.59375,1.953125 -0.5,1.09375 -0.625,2.203125 -0.625,3.03125 0,0.78125 0.109375,1.984375 0.65625,3.125 C 2.25,1.84375 3.09375,2.5 3.203125,2.5 c 0.0625,0 0.09375,-0.03125 0.09375,-0.109375 z m 0,0"
                 style="stroke:none" />
            </g>
            <g
               transform="translate(152.586,134.765)"
               id="g739">
              <path
                 id="id-f69fd92d-8bbd-4540-81a0-0f003b139b8c"
                 d="m 4.078125,-2.296875 h 2.78125 C 7,-2.296875 7.1875,-2.296875 7.1875,-2.5 7.1875,-2.6875 7,-2.6875 6.859375,-2.6875 h -2.78125 v -2.796875 c 0,-0.140625 0,-0.328125 -0.203125,-0.328125 -0.203125,0 -0.203125,0.1875 -0.203125,0.328125 V -2.6875 h -2.78125 c -0.140625,0 -0.328125,0 -0.328125,0.1875 0,0.203125 0.1875,0.203125 0.328125,0.203125 h 2.78125 V 0.5 c 0,0.140625 0,0.328125 0.203125,0.328125 0.203125,0 0.203125,-0.1875 0.203125,-0.328125 z m 0,0"
                 style="stroke:none" />
            </g>
            <g
               transform="translate(160.335,134.765)"
               id="g742">
              <path
                 id="id-5d059aee-ea09-417c-9551-e42aa2f6492d"
                 d="m 2.875,-2.5 c 0,-0.765625 -0.109375,-1.96875 -0.65625,-3.109375 -0.59375,-1.21875 -1.453125,-1.875 -1.546875,-1.875 -0.0625,0 -0.109375,0.046875 -0.109375,0.109375 0,0.03125 0,0.046875 0.1875,0.234375 0.984375,0.984375 1.546875,2.5625 1.546875,4.640625 0,1.71875 -0.359375,3.46875 -1.59375,4.71875 C 0.5625,2.34375 0.5625,2.359375 0.5625,2.390625 0.5625,2.453125 0.609375,2.5 0.671875,2.5 0.765625,2.5 1.671875,1.8125 2.25,0.546875 2.765625,-0.546875 2.875,-1.65625 2.875,-2.5 Z m 0,0"
                 style="stroke:none" />
            </g>
          </g>
        </g>
      </g>
      <g
         transform="matrix(1.05833,0,0,1.05833,127.99629,79.731289)"
         ns21:version="1.0.1"
         ns21:texconverter="pdflatex"
         ns21:pdfconverter="inkscape"
         ns21:text="$(-)$"
         ns21:preamble="C:\\Users\\claum\\AppData\\Roaming\\inkscape\\extensions\\textext\\default_packages.tex"
         ns21:scale="3.0"
         ns21:alignment="middle center"
         ns21:jacobian_sqrt="1.05833"
         id="g911">
        <defs
           id="id-11096b75-33e3-4255-82ae-46a70fb8526a">
          <g
             id="id-9c15999e-c188-4dd7-a485-7d49cfab42b8">
            <symbol
               id="id-a5a226ff-c58d-4485-8d3a-8dd8a4daec7e"
               overflow="visible">
              <path
                 id="id-874e9760-f460-49f3-9e9d-3a711719992c"
                 d=""
                 style="stroke:none" />
            </symbol>
            <symbol
               id="id-5e6f53d9-4973-4ccb-a5e6-c7730741d4de"
               overflow="visible">
              <path
                 id="id-2258a339-3a94-4c7b-89d3-453ad5934e86"
                 d="m 3.296875,2.390625 c 0,-0.03125 0,-0.046875 -0.171875,-0.21875 C 1.890625,0.921875 1.5625,-0.96875 1.5625,-2.5 c 0,-1.734375 0.375,-3.46875 1.609375,-4.703125 0.125,-0.125 0.125,-0.140625 0.125,-0.171875 0,-0.078125 -0.03125,-0.109375 -0.09375,-0.109375 -0.109375,0 -1,0.6875 -1.59375,1.953125 -0.5,1.09375 -0.625,2.203125 -0.625,3.03125 0,0.78125 0.109375,1.984375 0.65625,3.125 C 2.25,1.84375 3.09375,2.5 3.203125,2.5 c 0.0625,0 0.09375,-0.03125 0.09375,-0.109375 z m 0,0"
                 style="stroke:none" />
            </symbol>
            <symbol
               id="id-edad4902-67ba-43c5-8e90-d9b3f89a90d3"
               overflow="visible">
              <path
                 id="id-c1213d70-343d-4cc3-b772-d65e52c14055"
                 d="m 2.875,-2.5 c 0,-0.765625 -0.109375,-1.96875 -0.65625,-3.109375 -0.59375,-1.21875 -1.453125,-1.875 -1.546875,-1.875 -0.0625,0 -0.109375,0.046875 -0.109375,0.109375 0,0.03125 0,0.046875 0.1875,0.234375 0.984375,0.984375 1.546875,2.5625 1.546875,4.640625 0,1.71875 -0.359375,3.46875 -1.59375,4.71875 C 0.5625,2.34375 0.5625,2.359375 0.5625,2.390625 0.5625,2.453125 0.609375,2.5 0.671875,2.5 0.765625,2.5 1.671875,1.8125 2.25,0.546875 2.765625,-0.546875 2.875,-1.65625 2.875,-2.5 Z m 0,0"
                 style="stroke:none" />
            </symbol>
            <symbol
               id="id-486c19c6-44df-4086-a4c8-e5909513a323"
               overflow="visible">
              <path
                 id="id-ddbdc272-0d4f-425f-a01b-5f4e583db1e9"
                 d=""
                 style="stroke:none" />
            </symbol>
            <symbol
               id="id-9dd898da-2913-49fc-831a-537fc1425dc8"
               overflow="visible">
              <path
                 id="id-8fda8c0a-2149-4ce5-8579-617d5f59d86d"
                 d="m 6.5625,-2.296875 c 0.171875,0 0.359375,0 0.359375,-0.203125 0,-0.1875 -0.1875,-0.1875 -0.359375,-0.1875 H 1.171875 c -0.171875,0 -0.34375,0 -0.34375,0.1875 0,0.203125 0.171875,0.203125 0.34375,0.203125 z m 0,0"
                 style="stroke:none" />
            </symbol>
          </g>
        </defs>
        <g
           transform="translate(-149.696,-127.281)"
           id="id-737c30e2-1e9b-43d1-b4f0-9daa14ed0905">
          <g
             id="id-42ec8d1e-f88b-406d-b989-382973173918"
             style="fill:#000000;fill-opacity:1">
            <g
               transform="translate(148.712,134.765)"
               id="g899">
              <path
                 id="id-4b01e360-7b9d-4556-b563-89a341cf6dc0"
                 d="m 3.296875,2.390625 c 0,-0.03125 0,-0.046875 -0.171875,-0.21875 C 1.890625,0.921875 1.5625,-0.96875 1.5625,-2.5 c 0,-1.734375 0.375,-3.46875 1.609375,-4.703125 0.125,-0.125 0.125,-0.140625 0.125,-0.171875 0,-0.078125 -0.03125,-0.109375 -0.09375,-0.109375 -0.109375,0 -1,0.6875 -1.59375,1.953125 -0.5,1.09375 -0.625,2.203125 -0.625,3.03125 0,0.78125 0.109375,1.984375 0.65625,3.125 C 2.25,1.84375 3.09375,2.5 3.203125,2.5 c 0.0625,0 0.09375,-0.03125 0.09375,-0.109375 z m 0,0"
                 style="stroke:none" />
            </g>
          </g>
          <g
             id="id-9e610fd5-179a-4764-9313-2aa5300ada6f"
             style="fill:#000000;fill-opacity:1">
            <g
               transform="translate(152.587,134.765)"
               id="g903">
              <path
                 id="id-212f19c2-2ba7-4731-b005-cf08cff1eb70"
                 d="m 6.5625,-2.296875 c 0.171875,0 0.359375,0 0.359375,-0.203125 0,-0.1875 -0.1875,-0.1875 -0.359375,-0.1875 H 1.171875 c -0.171875,0 -0.34375,0 -0.34375,0.1875 0,0.203125 0.171875,0.203125 0.34375,0.203125 z m 0,0"
                 style="stroke:none" />
            </g>
          </g>
          <g
             id="id-fb3e46c2-ed5a-467d-8aa1-8bb334101ccb"
             style="fill:#000000;fill-opacity:1">
            <g
               transform="translate(160.335,134.765)"
               id="g907">
              <path
                 id="id-47b9f355-1d45-4587-94d7-4f600e98aa93"
                 d="m 2.875,-2.5 c 0,-0.765625 -0.109375,-1.96875 -0.65625,-3.109375 -0.59375,-1.21875 -1.453125,-1.875 -1.546875,-1.875 -0.0625,0 -0.109375,0.046875 -0.109375,0.109375 0,0.03125 0,0.046875 0.1875,0.234375 0.984375,0.984375 1.546875,2.5625 1.546875,4.640625 0,1.71875 -0.359375,3.46875 -1.59375,4.71875 C 0.5625,2.34375 0.5625,2.359375 0.5625,2.390625 0.5625,2.453125 0.609375,2.5 0.671875,2.5 0.765625,2.5 1.671875,1.8125 2.25,0.546875 2.765625,-0.546875 2.875,-1.65625 2.875,-2.5 Z m 0,0"
                 style="stroke:none" />
            </g>
          </g>
        </g>
      </g>
      <path
         style="opacity:0.0291545;fill:url(#linearGradient1579);fill-opacity:1;stroke:#000000;stroke-width:0.715408"
         d="m 342.74121,239.95152 c -39.9697,-42.46371 -72.55974,-77.31403 -72.42233,-77.44516 0.13742,-0.13114 8.7677,-5.3568 19.17842,-11.6126 10.41071,-6.25579 38.91941,-24.44842 63.35267,-40.42808 24.43325,-15.97966 44.63255,-29.053924 44.88734,-29.053924 0.25477,0 1.2805,0.642858 2.27937,1.428572 1.20025,0.944121 2.8977,1.428571 5.00552,1.428571 2.67476,0 3.58125,-0.39186 5.61796,-2.428571 2.07295,-2.072949 2.42857,-2.920168 2.42857,-5.785715 0,-2.865546 -0.35562,-3.712765 -2.42857,-5.785714 -2.05555,-2.055548 -2.93153,-2.428571 -5.70302,-2.428571 -2.58597,0 -3.75046,0.425322 -5.53843,2.022866 -1.89544,1.69358 -2.31654,2.656667 -2.58686,5.916414 l -0.32289,3.893548 -45.46011,29.721804 c -41.09738,26.86944 -80.21296,51.30251 -82.1316,51.30251 -0.7789,0 -72.2571,-75.643709 -72.2571,-76.467994 0,-0.881065 14.54983,-7.654944 21.98665,-10.2362 14.94606,-5.187643 29.2171,-8.33603 66.58478,-14.689515 62.76754,-10.672127 104.66471,-14.78287 167.82113,-16.465778 15.1052,-0.402503 27.64092,-0.982071 27.85715,-1.287929 0.54717,-0.773959 100.2931,0.300557 116.46458,1.254619 41.97602,2.476441 62.48369,7.938563 79.06659,21.059003 3.21878,2.5467 7.2025,6.331492 8.85273,8.41065 7.66143,9.652778 13.27278,26.916628 16.78394,51.637434 1.71173,12.0516 1.70909,39.15393 -0.004,47.04868 -3.24563,14.95245 -11.78142,26.0005 -31.61856,40.92455 -24.38694,18.34698 -33.71517,23.54387 -72.11951,40.1788 -67.74011,29.34165 -113.95883,46.20893 -164.53233,60.04511 -8.83928,2.4183 -16.58853,4.54371 -17.22053,4.72314 -0.79867,0.22674 -23.3122,-23.2198 -73.82127,-76.88052 z m 38.89895,-113.5224 c 0,-0.3833 -2.32995,-1.76766 -5.17765,-3.07635 l -5.17765,-2.37943 5.17765,-2.38653 c 4.48291,-2.06631 6.44235,-3.58991 4.64193,-3.60943 -1.15337,-0.0125 -12.32143,5.26672 -12.32143,5.82443 0,0.66931 10.58603,6.2334 11.96429,6.28853 0.49107,0.0196 0.89286,-0.27791 0.89286,-0.66122 z m -26.76623,-2.69398 2.31375,-2.6766 1.11836,2.6766 c 0.65462,1.56672 1.60945,2.67662 2.30266,2.67662 0.84315,0 1.03954,-0.36008 0.68178,-1.25 -0.27638,-0.6875 -1.47868,-3.90179 -2.67177,-7.14286 -1.9639,-5.33501 -2.34618,-5.89182 -4.03819,-5.88192 -1.16141,0.007 -1.53889,0.22064 -0.99711,0.56487 0.4795,0.30466 1.37064,1.96773 1.9803,3.6957 l 1.10849,3.14177 -2.87317,2.92754 c -1.58024,1.61015 -2.87316,3.15645 -2.87316,3.43622 0,1.28176 1.83893,0.27198 3.94806,-2.16794 z m 42.31571,0.53376 c 1.48294,-2.81869 0.75391,-9.2241 -1.23293,-10.83295 -2.04752,-1.65798 -3.02726,-1.64736 -5.13028,0.0556 -1.456,1.17899 -1.68627,1.99311 -1.68627,5.96164 0,5.64548 0.98632,7.1181 4.5653,6.81615 1.86245,-0.15712 2.79659,-0.69344 3.48418,-2.0004 z M 382.52208,68.976918 c 0.7383,-1.096607 0.67232,-2.565162 -0.11527,-2.565162 -0.36405,0 -0.8089,0.5625 -0.98856,1.25 -0.27414,1.048989 -0.33802,1.020273 -0.39728,-0.178571 -0.0389,-0.785714 0.53028,-3.741812 1.2647,-6.569105 0.73443,-2.827293 1.20351,-5.272347 1.0424,-5.433454 -0.1611,-0.161106 -1.09606,-0.13939 -2.07769,0.04826 -1.39089,0.265887 -1.61061,0.55102 -0.99562,1.292035 1.29976,1.566117 0.15595,3.697979 -1.9841,3.697979 -2.54562,0 -4.48765,2.532856 -4.48765,5.852941 0,1.46243 0.19528,2.854241 0.43395,3.092914 0.74462,0.744616 7.75249,0.33298 8.30512,-0.487837 z m 6.26093,0.351505 c 0,-0.360119 -0.32645,-0.763577 -0.72543,-0.896575 -1.55923,-0.519742 1.51782,-3.448663 3.62308,-3.448663 1.76632,0 2.10235,0.285423 2.10235,1.785714 0,0.982143 -0.32143,1.785714 -0.71428,1.785714 -0.39286,0 -0.71429,0.321429 -0.71429,0.714286 0,0.392857 1.28572,0.714286 2.85714,0.714286 2.7926,0 3.82468,-0.904455 1.88251,-1.649734 -0.66878,-0.256633 -1.13492,-2.42287 -1.48537,-6.902725 -0.34849,-4.454783 -0.77408,-6.440941 -1.33974,-6.252388 -0.45595,0.151984 -2.35173,2.822036 -4.21285,5.933448 -1.86111,3.111412 -4.03393,6.190779 -4.82848,6.843037 -2.01489,1.654057 -1.82014,2.028362 1.05536,2.028362 1.375,0 2.5,-0.294643 2.5,-0.654762 z"
         id="path748"
         transform="scale(0.26458333)" />
      <path
         style="opacity:0.03207;fill:url(#linearGradient1589);fill-opacity:1;stroke:#000000;stroke-width:0.715408"
         d="m 229.76278,347.10395 c -11.91406,-0.72504 -26.65045,-2.39267 -41.33691,-4.67784 -17.72471,-2.75791 -17.62828,-2.72742 -26.15732,-8.27166 -19.89563,-12.93302 -34.14292,-26.89738 -38.02305,-37.26795 -5.06987,-13.55045 -5.90408,-38.55153 -2.24428,-67.26046 3.8907,-30.52013 9.28154,-48.08093 24.45203,-79.6531 12.00083,-24.97562 20.93192,-39.28098 31.48635,-50.433197 6.72443,-7.105289 15.13805,-14.049501 16.58574,-13.6891 1.05541,0.262747 89.97196,94.755417 89.97196,95.614277 0,0.49599 -62.85533,42.02218 -85.1106,56.22943 l -3.68202,2.35051 -2.3894,-1.45674 c -1.31418,-0.80121 -3.1444,-1.45794 -4.06718,-1.45941 -2.97176,-0.005 -6.3672,2.1264 -7.63093,4.78952 -3.34099,7.04061 3.45316,14.36877 10.56624,11.39673 3.391,-1.41685 4.84173,-3.80977 5.02234,-8.28417 l 0.14869,-3.68334 44.6207,-29.18616 44.62071,-29.18616 4.06843,4.39688 c 2.23764,2.41829 30.72855,32.6826 63.31315,67.25403 32.58459,34.57143 59.19063,62.93027 59.12454,63.01965 -0.34511,0.46672 -33.8158,8.58231 -49.31896,11.9583 -33.15223,7.21927 -63.72474,12.43676 -91.78571,15.66409 -18.67545,2.14789 -29.42743,2.61526 -42.23452,1.83587 z M 165.73636,239.73504 c 0.75624,-1.18641 0.66484,-2.609 -0.16763,-2.609 -0.39286,0 -0.73967,0.5625 -0.77068,1.25 -0.031,0.6875 -0.2084,0.87857 -0.39418,0.42461 -0.28278,-0.69099 0.85643,-6.15579 2.32205,-11.13889 0.29374,-0.99871 -0.0728,-1.25 -1.82335,-1.25 -1.20504,0 -2.19099,0.32143 -2.19099,0.71428 0,0.39286 0.34379,0.71429 0.76397,0.71429 0.42018,0 0.66125,0.71131 0.53571,1.58069 -0.16643,1.15262 -0.88741,1.71474 -2.66225,2.07567 -3.32563,0.67629 -5.4489,4.42835 -4.28558,7.57309 0.49021,1.32518 1.11413,1.54233 4.36011,1.51751 2.08343,-0.0159 4.02419,-0.39944 4.31282,-0.85225 z m 6.26094,0.24815 c 0,-0.39286 -0.33274,-0.71429 -0.73942,-0.71429 -0.50132,0 -0.49323,-0.46001 0.0251,-1.42857 0.99309,-1.85561 5.71428,-2.0682 5.71428,-0.25732 0,0.64419 -0.5625,1.59825 -1.25,2.12014 -1.09587,0.83189 -0.83165,0.95169 2.14286,0.97161 3.23561,0.0216 4.49917,-0.82849 2.41822,-1.62702 -0.66877,-0.25663 -1.13492,-2.42288 -1.48537,-6.90273 -0.34777,-4.44556 -0.77463,-6.44075 -1.3378,-6.25303 -0.45489,0.15163 -2.58051,3.22347 -4.7236,6.82631 -2.14309,3.60283 -4.31678,6.55061 -4.83042,6.55061 -0.51363,0 -0.93388,0.32143 -0.93388,0.71429 0,0.39285 1.125,0.71428 2.5,0.71428 1.375,0 2.5,-0.32143 2.5,-0.71428 z m 79.6299,-4.23957 c 3.34641,-1.54604 6.08438,-2.98888 6.08438,-3.20631 0,-0.49848 -11.14014,-6.12555 -12.127,-6.12555 -2.04396,0 -0.19196,1.56453 4.30642,3.63797 l 5.03656,2.3215 -5.03656,2.33289 c -2.77011,1.28309 -5.03656,2.67435 -5.03656,3.09169 0,1.0722 0.0291,1.06338 6.77276,-2.05219 z m -20.62275,-0.75366 2.22145,-2.77662 0.84294,2.8135 c 0.58786,1.96211 1.24422,2.81349 2.16902,2.81349 1.21272,0 1.121,-0.55159 -1.07305,-6.45301 -2.89772,-7.7941 -2.9202,-7.83271 -4.56124,-7.83271 -1.26213,0 -1.2606,0.0958 0.0421,2.65103 1.86462,3.65736 1.72259,4.56627 -1.14843,7.34897 -1.375,1.3327 -2.5,2.84219 -2.5,3.35441 0,1.72459 1.77038,0.87674 4.00716,-1.91906 z m 41.73302,1.37343 c 1.01901,-1.90405 1.02191,-8.7081 0.004,-10.60911 -0.43225,-0.80768 -1.6353,-1.68169 -2.67342,-1.94224 -2.96125,-0.74323 -5.21412,2.33462 -5.21412,7.12347 0,4.83429 1.39685,6.90482 4.65823,6.90482 1.72991,0 2.66311,-0.4274 3.2248,-1.47694 z"
         id="path1581"
         transform="scale(0.26458333)" />
    </g>
  </g>
</svg>
