<?xml version="1.0" encoding="UTF-8" standalone="no"?>
<svg
   xmlns:ns2="http://www.iki.fi/pav/software/textext/"
   xmlns:dc="http://purl.org/dc/elements/1.1/"
   xmlns:cc="http://creativecommons.org/ns#"
   xmlns:rdf="http://www.w3.org/1999/02/22-rdf-syntax-ns#"
   xmlns:svg="http://www.w3.org/2000/svg"
   xmlns="http://www.w3.org/2000/svg"
   xmlns:sodipodi="http://sodipodi.sourceforge.net/DTD/sodipodi-0.dtd"
   xmlns:inkscape="http://www.inkscape.org/namespaces/inkscape"
   sodipodi:docname="esercizio11_1_3.svg"
   inkscape:version="1.0 (4035a4fb49, 2020-05-01)"
   id="svg8"
   version="1.1"
   viewBox="0 0 200 280"
   height="280mm"
   width="200mm">
  <defs
     id="defs2">
    <marker
       inkscape:stockid="Arrow1Mend"
       orient="auto"
       refY="0"
       refX="0"
       id="marker8459"
       style="overflow:visible"
       inkscape:isstock="true">
      <path
         id="path8457"
         d="M 0,0 5,-5 -12.5,0 5,5 Z"
         style="fill:#000000;fill-opacity:1;fill-rule:evenodd;stroke:#000000;stroke-width:1pt;stroke-opacity:1"
         transform="matrix(-0.4,0,0,-0.4,-4,0)" />
    </marker>
    <marker
       inkscape:stockid="Arrow1Mend"
       orient="auto"
       refY="0"
       refX="0"
       id="marker5236"
       style="overflow:visible"
       inkscape:isstock="true">
      <path
         id="path5234"
         d="M 0,0 5,-5 -12.5,0 5,5 Z"
         style="fill:#000000;fill-opacity:1;fill-rule:evenodd;stroke:#000000;stroke-width:1pt;stroke-opacity:1"
         transform="matrix(-0.4,0,0,-0.4,-4,0)" />
    </marker>
    <marker
       inkscape:collect="always"
       inkscape:isstock="true"
       style="overflow:visible"
       id="marker5164"
       refX="0"
       refY="0"
       orient="auto"
       inkscape:stockid="Arrow1Mend">
      <path
         transform="matrix(-0.4,0,0,-0.4,-4,0)"
         style="fill:#000000;fill-opacity:1;fill-rule:evenodd;stroke:#000000;stroke-width:1pt;stroke-opacity:1"
         d="M 0,0 5,-5 -12.5,0 5,5 Z"
         id="path5162" />
    </marker>
    <marker
       inkscape:collect="always"
       inkscape:stockid="Arrow1Mend"
       orient="auto"
       refY="0"
       refX="0"
       id="marker5100"
       style="overflow:visible"
       inkscape:isstock="true">
      <path
         id="path5098"
         d="M 0,0 5,-5 -12.5,0 5,5 Z"
         style="fill:#000000;fill-opacity:1;fill-rule:evenodd;stroke:#000000;stroke-width:1pt;stroke-opacity:1"
         transform="matrix(-0.4,0,0,-0.4,-4,0)" />
    </marker>
    <marker
       inkscape:stockid="Arrow1Mend"
       orient="auto"
       refY="0"
       refX="0"
       id="marker4433"
       style="overflow:visible"
       inkscape:isstock="true">
      <path
         id="path4431"
         d="M 0,0 5,-5 -12.5,0 5,5 Z"
         style="fill:#000000;fill-opacity:1;fill-rule:evenodd;stroke:#000000;stroke-width:1pt;stroke-opacity:1"
         transform="matrix(-0.4,0,0,-0.4,-4,0)" />
    </marker>
    <marker
       inkscape:collect="always"
       inkscape:isstock="true"
       style="overflow:visible"
       id="marker1558"
       refX="0"
       refY="0"
       orient="auto"
       inkscape:stockid="Arrow1Mend">
      <path
         transform="matrix(-0.4,0,0,-0.4,-4,0)"
         style="fill:#000000;fill-opacity:1;fill-rule:evenodd;stroke:#000000;stroke-width:1pt;stroke-opacity:1"
         d="M 0,0 5,-5 -12.5,0 5,5 Z"
         id="path1556" />
    </marker>
    <marker
       inkscape:collect="always"
       inkscape:stockid="Arrow1Mend"
       orient="auto"
       refY="0"
       refX="0"
       id="marker1193"
       style="overflow:visible"
       inkscape:isstock="true">
      <path
         id="path1191"
         d="M 0,0 5,-5 -12.5,0 5,5 Z"
         style="fill:#000000;fill-opacity:1;fill-rule:evenodd;stroke:#000000;stroke-width:1pt;stroke-opacity:1"
         transform="matrix(-0.4,0,0,-0.4,-4,0)" />
    </marker>
    <marker
       inkscape:collect="always"
       inkscape:isstock="true"
       style="overflow:visible"
       id="Arrow1Mend"
       refX="0"
       refY="0"
       orient="auto"
       inkscape:stockid="Arrow1Mend">
      <path
         transform="matrix(-0.4,0,0,-0.4,-4,0)"
         style="fill:#000000;fill-opacity:1;fill-rule:evenodd;stroke:#000000;stroke-width:1pt;stroke-opacity:1"
         d="M 0,0 5,-5 -12.5,0 5,5 Z"
         id="path884" />
    </marker>
  </defs>
  <sodipodi:namedview
     inkscape:window-maximized="0"
     inkscape:window-y="0"
     inkscape:window-x="0"
     inkscape:window-height="738"
     inkscape:window-width="1366"
     showgrid="true"
     inkscape:document-rotation="0"
     inkscape:current-layer="layer1"
     inkscape:document-units="mm"
     inkscape:cy="439.61572"
     inkscape:cx="696.32393"
     inkscape:zoom="0.35"
     inkscape:pageshadow="2"
     inkscape:pageopacity="0.0"
     borderopacity="1.0"
     bordercolor="#666666"
     pagecolor="#ffffff"
     id="base">
    <inkscape:grid
       id="grid10"
       type="xygrid" />
  </sodipodi:namedview>
  <metadata
     id="metadata5">
    <rdf:RDF>
      <cc:Work
         rdf:about="">
        <dc:format>image/svg+xml</dc:format>
        <dc:type
           rdf:resource="http://purl.org/dc/dcmitype/StillImage" />
        <dc:title></dc:title>
      </cc:Work>
    </rdf:RDF>
  </metadata>
  <g
     id="layer1"
     inkscape:groupmode="layer"
     inkscape:label="Livello 1">
    <path
       id="path867"
       d="M 20.000013,275.00227 V 5.0022794"
       style="fill:none;stroke:#000000;stroke-width:0.264583;stroke-linecap:butt;stroke-linejoin:miter;stroke-miterlimit:4;stroke-dasharray:1.05833, 0.264583;stroke-dashoffset:0;stroke-opacity:1" />
    <path
       sodipodi:nodetypes="ccccc"
       id="path871"
       d="M 20.000013,35.002278 V 5.0022794 H 180.00002 V 35.002279 l -160.000007,-1e-6"
       style="opacity:0.139942;fill:#000000;fill-opacity:1;stroke:#000000;stroke-width:0.5;stroke-linecap:butt;stroke-linejoin:miter;stroke-miterlimit:4;stroke-dasharray:none;stroke-opacity:1" />
    <path
       id="path873"
       d="M 20.000013,5.0022794 V 35.002278"
       style="fill:none;stroke:#000000;stroke-width:0.5;stroke-linecap:butt;stroke-linejoin:miter;stroke-miterlimit:4;stroke-dasharray:none;stroke-opacity:1;marker-end:url(#Arrow1Mend)" />
    <path
       sodipodi:nodetypes="cc"
       style="fill:none;stroke:#000000;stroke-width:0.8;stroke-linecap:butt;stroke-linejoin:miter;stroke-miterlimit:4;stroke-dasharray:none;stroke-opacity:1;marker-end:url(#marker1193)"
       d="M 100.00002,0.00227943 V 60.002279"
       id="path1151" />
    <path
       sodipodi:nodetypes="cc"
       id="path1217"
       d="M 20.000013,5.0022794 H 180.00002"
       style="fill:none;stroke:#000000;stroke-width:0.264583px;stroke-linecap:butt;stroke-linejoin:miter;stroke-opacity:1" />
    <path
       sodipodi:nodetypes="cc"
       id="path1219"
       d="m 20.000013,35.002278 160.000007,1e-6"
       style="fill:none;stroke:#000000;stroke-width:0.264583px;stroke-linecap:butt;stroke-linejoin:miter;stroke-opacity:1" />
    <path
       sodipodi:nodetypes="cc"
       id="path1221"
       d="M 180.00002,155.00228 H 20.000015"
       style="fill:none;stroke:#000000;stroke-width:0.264583;stroke-linecap:butt;stroke-linejoin:miter;stroke-miterlimit:4;stroke-dasharray:1.05833, 0.264583;stroke-dashoffset:0;stroke-opacity:1" />
    <path
       style="fill:none;stroke:#000000;stroke-width:0.264583;stroke-linecap:butt;stroke-linejoin:miter;stroke-miterlimit:4;stroke-dasharray:1.05833, 0.264583;stroke-dashoffset:0;stroke-opacity:1"
       d="M 180.00002,235.00228 V 0.00227943"
       id="path1223"
       sodipodi:nodetypes="cc" />
    <path
       sodipodi:open="true"
       d="M 20,234.99999 A 160,160 0 0 1 179.98292,75.002274"
       sodipodi:arc-type="arc"
       sodipodi:end="4.7122822"
       sodipodi:start="3.1416069"
       sodipodi:ry="160"
       sodipodi:rx="160"
       sodipodi:cy="235.00227"
       sodipodi:cx="180"
       sodipodi:type="arc"
       id="path1225"
       style="opacity:1;fill:none;fill-opacity:1;stroke:#000000;stroke-width:1;stroke-linecap:round;stroke-linejoin:bevel;stroke-miterlimit:4;stroke-dasharray:none;stroke-dashoffset:0" />
    <path
       style="fill:none;stroke:#000000;stroke-width:0.264583;stroke-linecap:butt;stroke-linejoin:miter;stroke-miterlimit:4;stroke-dasharray:1.05833, 0.264583;stroke-dashoffset:0;stroke-opacity:1"
       d="M 180.00002,235.00228 H 20.000015"
       id="path1227"
       sodipodi:nodetypes="cc" />
    <path
       sodipodi:nodetypes="cc"
       id="path1229"
       d="M 42.000014,155.00228 H 65.000015"
       style="fill:none;stroke:#000000;stroke-width:1;stroke-linecap:butt;stroke-linejoin:miter;stroke-miterlimit:4;stroke-dasharray:none;stroke-opacity:1" />
    <circle
       r="2.7"
       cy="154.99644"
       cx="44.716003"
       id="path1231"
       style="opacity:1;fill:#ffffff;fill-opacity:1;stroke:#000000;stroke-width:0.3;stroke-linecap:round;stroke-linejoin:bevel;stroke-miterlimit:4;stroke-dasharray:none;stroke-dashoffset:0" />
    <path
       style="fill:none;stroke:#000000;stroke-width:0.264583;stroke-linecap:butt;stroke-linejoin:miter;stroke-miterlimit:4;stroke-dasharray:1.05833, 0.264583;stroke-dashoffset:0;stroke-opacity:1"
       d="M 180.00002,75.002279 H 20.000015"
       id="path1253"
       sodipodi:nodetypes="cc" />
    <circle
       r="5"
       cy="75.002281"
       cx="180"
       id="path1235"
       style="opacity:1;fill:#ffffff;fill-opacity:1;stroke:#000000;stroke-width:0.3;stroke-linecap:round;stroke-linejoin:bevel;stroke-miterlimit:4;stroke-dasharray:none;stroke-dashoffset:0" />
    <path
       id="path1554"
       d="m 68.000015,155.00228 h 30"
       style="fill:none;stroke:#000000;stroke-width:0.9;stroke-linecap:butt;stroke-linejoin:miter;stroke-miterlimit:4;stroke-dasharray:none;stroke-opacity:1;marker-end:url(#marker1558)" />
    <g
       transform="matrix(1.76389,0,0,1.76389,371.00066,222.75476)"
       ns2:version="1.0.1"
       ns2:texconverter="pdflatex"
       ns2:pdfconverter="inkscape"
       ns2:text="$\\mathbf{B}$"
       ns2:preamble="C:\\Users\\claum\\AppData\\Roaming\\inkscape\\extensions\\textext\\default_packages.tex"
       ns2:scale="5.0"
       ns2:alignment="middle center"
       ns2:inkscapeversion="1.0"
       ns2:jacobian_sqrt="1.76389"
       id="g2709">
      <defs
         id="id-a3e78da8-2b52-472f-a2fd-b69351dcd8e5">
        <g
           id="id-1b1a3456-4699-41cb-adb8-6cad506704f4">
          <symbol
             id="id-a5c01616-c803-4ad3-b573-ba352aac3a1a"
             overflow="visible">
            <path
               id="id-e0d04779-add0-4c4f-a7af-4c6aa9d37232"
               d=""
               style="stroke:none" />
          </symbol>
          <symbol
             id="id-75c8438f-0e8f-41ad-8ef1-13435095e8e2"
             overflow="visible">
            <path
               id="id-b6ebf11e-af4a-4b1a-b310-056da2e23916"
               d="M 2.765625,-3.734375 V -6.375 h 1.8125 c 1.015625,0 1.1875,0.796875 1.1875,1.25 0,0.765625 -0.46875,1.390625 -1.4375,1.390625 z M 5.46875,-3.5625 C 6.546875,-3.765625 7.1875,-4.359375 7.1875,-5.125 c 0,-0.921875 -0.875,-1.71875 -2.46875,-1.71875 H 0.390625 V -6.375 H 1.46875 v 5.90625 H 0.390625 V 0 h 4.625 C 6.671875,0 7.5,-0.875 7.5,-1.859375 7.5,-2.8125 6.65625,-3.484375 5.46875,-3.5625 Z M 4.609375,-0.46875 H 2.765625 V -3.375 h 1.9375 c 0.203125,0 0.671875,0 1.015625,0.421875 0.328125,0.421875 0.328125,0.984375 0.328125,1.09375 0,0.109375 0,1.390625 -1.4375,1.390625 z m 0,0"
               style="stroke:none" />
          </symbol>
        </g>
      </defs>
      <g
         transform="translate(-149.103,-127.921)"
         id="id-8f0af36f-cc87-4ce3-b785-7ee66d4375c9">
        <g
           id="id-b80c1a5e-4ee8-466e-9273-64e0f50df43f"
           style="fill:#000000;fill-opacity:1">
          <g
             transform="translate(148.712,134.765)"
             id="g2705" />
        </g>
      </g>
    </g>
    <g
       transform="matrix(1.76389,0,0,1.76389,185.82702,79.057479)"
       ns2:version="1.0.1"
       ns2:texconverter="pdflatex"
       ns2:pdfconverter="inkscape"
       ns2:text="$\\mathbf{E}$"
       ns2:preamble="C:\\Users\\claum\\AppData\\Roaming\\inkscape\\extensions\\textext\\default_packages.tex"
       ns2:scale="5.0"
       ns2:alignment="middle center"
       ns2:inkscapeversion="1.0"
       ns2:jacobian_sqrt="1.76389"
       id="g3344">
      <defs
         id="id-174397d5-4c68-4f90-bc7a-014e344acddf">
        <g
           id="id-f94181d0-6e1c-4392-a142-cbdf21307748">
          <symbol
             id="id-98dc4a8c-841b-46c3-a0b3-422fccaa4a43"
             overflow="visible">
            <path
               id="id-fbdf4372-e21c-4360-9b83-87d6dddc0a07"
               d=""
               style="stroke:none" />
          </symbol>
          <symbol
             id="id-5379a191-eafa-4cdb-b707-ab07a101aae0"
             overflow="visible">
            <path
               id="id-d9e24505-c472-44e6-ae8d-4b150f2b422d"
               d="m 7.203125,-2.734375 h -0.46875 c -0.21875,1.375 -0.5,2.265625 -2.34375,2.265625 H 2.875 v -2.8125 h 0.546875 c 0.96875,0 1.0625,0.4375 1.0625,1.171875 h 0.46875 v -2.8125 h -0.46875 c 0,0.75 -0.09375,1.171875 -1.0625,1.171875 H 2.875 v -2.5625 h 1.515625 c 1.609375,0 1.875,0.734375 2.03125,1.9375 h 0.46875 l -0.3125,-2.40625 h -6.1875 V -6.3125 H 1.46875 v 5.84375 H 0.390625 V 0 H 6.75 Z m 0,0"
               style="stroke:none" />
          </symbol>
        </g>
      </defs>
      <g
         transform="translate(-149.103,-127.984)"
         id="id-1546ddf7-c65d-4c2f-9702-d65642377127">
        <g
           id="id-298364e7-65f8-4a32-8c7f-ea1d0b9bd0b6"
           style="fill:#000000;fill-opacity:1">
          <g
             transform="translate(148.712,134.765)"
             id="g3340">
            <path
               id="id-ba19fedf-e496-4eeb-a2f7-72cb0bbcaae1"
               d="m 7.203125,-2.734375 h -0.46875 c -0.21875,1.375 -0.5,2.265625 -2.34375,2.265625 H 2.875 v -2.8125 h 0.546875 c 0.96875,0 1.0625,0.4375 1.0625,1.171875 h 0.46875 v -2.8125 h -0.46875 c 0,0.75 -0.09375,1.171875 -1.0625,1.171875 H 2.875 v -2.5625 h 1.515625 c 1.609375,0 1.875,0.734375 2.03125,1.9375 h 0.46875 l -0.3125,-2.40625 h -6.1875 V -6.3125 H 1.46875 v 5.84375 H 0.390625 V 0 H 6.75 Z m 0,0"
               style="stroke:none" />
          </g>
        </g>
      </g>
    </g>
    <g
       transform="matrix(1.76389,0,0,1.76389,28.617415,140.79328)"
       ns2:version="1.0.1"
       ns2:texconverter="pdflatex"
       ns2:pdfconverter="inkscape"
       ns2:text="$\\mathbf{C}$"
       ns2:preamble="C:\\Users\\claum\\AppData\\Roaming\\inkscape\\extensions\\textext\\default_packages.tex"
       ns2:scale="5.0"
       ns2:alignment="middle center"
       ns2:inkscapeversion="1.0"
       ns2:jacobian_sqrt="1.76389"
       id="g3678">
      <defs
         id="id-3bdfc074-80c9-443b-8077-b9ed903c7b12">
        <g
           id="id-7f26f8df-a4b9-4af3-8951-9f09255a76eb">
          <symbol
             id="id-0454d733-d45b-48e9-9955-7becd802b0a1"
             overflow="visible">
            <path
               id="id-8d1c625b-098f-43a4-9779-5f5a8d57dfad"
               d=""
               style="stroke:none" />
          </symbol>
          <symbol
             id="id-b57c008b-259d-48e8-aab1-da5f489641d3"
             overflow="visible">
            <path
               id="id-88dd70f8-0918-4d00-93f9-dcc19e43121b"
               d="m 7.640625,-6.671875 c 0,-0.1875 0,-0.28125 -0.1875,-0.28125 -0.09375,0 -0.109375,0.03125 -0.1875,0.09375 l -0.65625,0.59375 c -0.625,-0.5 -1.28125,-0.6875 -1.96875,-0.6875 -2.484375,0 -4,1.484375 -4,3.53125 0,2.046875 1.515625,3.53125 4,3.53125 1.875,0 3,-1.21875 3,-2.375 0,-0.203125 -0.078125,-0.203125 -0.25,-0.203125 -0.125,0 -0.21875,0 -0.21875,0.171875 -0.078125,1.328125 -1.28125,1.9375 -2.28125,1.9375 -0.78125,0 -1.625,-0.234375 -2.140625,-0.84375 -0.46875,-0.578125 -0.59375,-1.3125 -0.59375,-2.21875 0,-0.5625 0.03125,-1.625 0.671875,-2.296875 0.640625,-0.65625 1.515625,-0.765625 2.03125,-0.765625 1.078125,0 2.015625,0.765625 2.234375,2.03125 C 7.125,-4.265625 7.140625,-4.25 7.359375,-4.25 c 0.265625,0 0.28125,-0.015625 0.28125,-0.28125 z m 0,0"
               style="stroke:none" />
          </symbol>
        </g>
      </defs>
      <g
         transform="translate(-149.353,-127.812)"
         id="id-d2335517-07ce-494f-8bb0-61bcff937fe2">
        <g
           id="id-c933ae34-6a15-4bc1-b059-bf50c45fc00c"
           style="fill:#000000;fill-opacity:1">
          <g
             transform="translate(148.712,134.765)"
             id="g3674">
            <path
               id="id-f39596f6-0c37-4fcc-a61d-1c4f8ec8b5ed"
               d="m 7.640625,-6.671875 c 0,-0.1875 0,-0.28125 -0.1875,-0.28125 -0.09375,0 -0.109375,0.03125 -0.1875,0.09375 l -0.65625,0.59375 c -0.625,-0.5 -1.28125,-0.6875 -1.96875,-0.6875 -2.484375,0 -4,1.484375 -4,3.53125 0,2.046875 1.515625,3.53125 4,3.53125 1.875,0 3,-1.21875 3,-2.375 0,-0.203125 -0.078125,-0.203125 -0.25,-0.203125 -0.125,0 -0.21875,0 -0.21875,0.171875 -0.078125,1.328125 -1.28125,1.9375 -2.28125,1.9375 -0.78125,0 -1.625,-0.234375 -2.140625,-0.84375 -0.46875,-0.578125 -0.59375,-1.3125 -0.59375,-2.21875 0,-0.5625 0.03125,-1.625 0.671875,-2.296875 0.640625,-0.65625 1.515625,-0.765625 2.03125,-0.765625 1.078125,0 2.015625,0.765625 2.234375,2.03125 C 7.125,-4.265625 7.140625,-4.25 7.359375,-4.25 c 0.265625,0 0.28125,-0.015625 0.28125,-0.28125 z m 0,0"
               style="stroke:none" />
          </g>
        </g>
      </g>
    </g>
    <g
       transform="matrix(1.76389,0,0,1.76389,2.8728302,217.56478)"
       ns2:version="1.0.1"
       ns2:texconverter="pdflatex"
       ns2:pdfconverter="inkscape"
       ns2:text="$\\mathbf{A}$"
       ns2:preamble="C:\\Users\\claum\\AppData\\Roaming\\inkscape\\extensions\\textext\\default_packages.tex"
       ns2:scale="5.0"
       ns2:alignment="middle center"
       ns2:inkscapeversion="1.0"
       ns2:jacobian_sqrt="1.76389"
       id="g4023">
      <defs
         id="id-27c8f50d-294a-4426-b323-f99190138730">
        <g
           id="id-3b011331-4de1-48ca-94de-717243873486">
          <symbol
             id="id-c2373372-91ee-40f0-86ce-cfd208698dbf"
             overflow="visible">
            <path
               id="id-4f206596-07fa-47ef-8f43-255ccf81b15f"
               d=""
               style="stroke:none" />
          </symbol>
          <symbol
             id="id-a0b1eea8-d3fc-4641-9481-c497c7c68695"
             overflow="visible">
            <path
               id="id-a051ccc8-c405-4928-b884-5f1213566fd3"
               d="m 4.71875,-6.703125 c -0.109375,-0.25 -0.21875,-0.25 -0.390625,-0.25 -0.28125,0 -0.328125,0.078125 -0.390625,0.25 l -2.46875,6 C 1.40625,-0.546875 1.375,-0.46875 0.625,-0.46875 H 0.40625 V 0 c 0.375,-0.015625 0.859375,-0.03125 1.171875,-0.03125 0.390625,0 0.9375,0 1.3125,0.03125 V -0.46875 C 2.875,-0.46875 2,-0.46875 2,-0.59375 c 0,-0.015625 0.03125,-0.109375 0.046875,-0.125 l 0.5,-1.203125 H 5.21875 L 5.8125,-0.46875 H 4.859375 V 0 C 5.25,-0.03125 6.1875,-0.03125 6.625,-0.03125 c 0.390625,0 1.265625,0 1.625,0.03125 V -0.46875 H 7.28125 Z M 3.875,-5.15625 5.015625,-2.390625 h -2.28125 z m 0,0"
               style="stroke:none" />
          </symbol>
        </g>
      </defs>
      <g
         transform="translate(-149.118,-127.812)"
         id="id-c2dfbfff-510a-40cf-bf1b-9b08a1b6722e">
        <g
           id="id-63c781ab-8dfb-4731-b57f-ad7c296cdcc6"
           style="fill:#000000;fill-opacity:1">
          <g
             transform="translate(148.712,134.765)"
             id="g4019">
            <path
               id="id-e9b29842-68eb-439d-838c-1685bd4f9163"
               d="m 4.71875,-6.703125 c -0.109375,-0.25 -0.21875,-0.25 -0.390625,-0.25 -0.28125,0 -0.328125,0.078125 -0.390625,0.25 l -2.46875,6 C 1.40625,-0.546875 1.375,-0.46875 0.625,-0.46875 H 0.40625 V 0 c 0.375,-0.015625 0.859375,-0.03125 1.171875,-0.03125 0.390625,0 0.9375,0 1.3125,0.03125 V -0.46875 C 2.875,-0.46875 2,-0.46875 2,-0.59375 c 0,-0.015625 0.03125,-0.109375 0.046875,-0.125 l 0.5,-1.203125 H 5.21875 L 5.8125,-0.46875 H 4.859375 V 0 C 5.25,-0.03125 6.1875,-0.03125 6.625,-0.03125 c 0.390625,0 1.265625,0 1.625,0.03125 V -0.46875 H 7.28125 Z M 3.875,-5.15625 5.015625,-2.390625 h -2.28125 z m 0,0"
               style="stroke:none" />
          </g>
        </g>
      </g>
    </g>
    <g
       transform="matrix(1.76389,0,0,1.76389,40.807248,207.72557)"
       ns2:version="1.0.1"
       ns2:texconverter="pdflatex"
       ns2:pdfconverter="inkscape"
       ns2:text="$\\frac{qL}{2}$"
       ns2:preamble="C:\\Users\\claum\\AppData\\Roaming\\inkscape\\extensions\\textext\\default_packages.tex"
       ns2:scale="5.0"
       ns2:alignment="middle center"
       ns2:inkscapeversion="1.0"
       ns2:jacobian_sqrt="1.76389"
       id="g5061">
      <defs
         id="id-61afb899-8560-41c6-94d2-73cd00a3fa56">
        <g
           id="id-a069abaf-2919-43c5-83e3-841fb3e9356a">
          <symbol
             id="id-19039b13-f9e8-4db4-b0fe-e8acf1400b54"
             overflow="visible">
            <path
               id="id-4b74f76f-a4f8-4440-b349-6a6876b8af6b"
               d=""
               style="stroke:none" />
          </symbol>
          <symbol
             id="id-ebdbc5d1-6de7-4c4a-ac12-74f06c677bce"
             overflow="visible">
            <path
               id="id-54374382-e29f-41d5-95d1-fb74849ad302"
               d="m 3.546875,-2.875 c 0,-0.03125 0.015625,-0.0625 0.015625,-0.09375 0,-0.046875 -0.03125,-0.109375 -0.09375,-0.109375 -0.0625,0 -0.359375,0.234375 -0.5,0.46875 -0.0625,-0.140625 -0.296875,-0.46875 -0.75,-0.46875 -0.890625,0 -1.796875,0.984375 -1.796875,1.984375 0,0.6875 0.453125,1.15625 1.0625,1.15625 0.390625,0 0.71875,-0.25 0.875,-0.375 C 2.34375,-0.296875 2.125,0.578125 2.109375,0.703125 2,1.09375 2,1.09375 1.5625,1.09375 c -0.078125,0 -0.171875,0 -0.171875,0.15625 0,0.046875 0.03125,0.109375 0.09375,0.109375 0.234375,0 0.5,-0.03125 0.734375,-0.03125 0.234375,0 0.53125,0.03125 0.75,0.03125 0.0625,0 0.125,-0.03125 0.125,-0.15625 C 3.09375,1.09375 3,1.09375 2.921875,1.09375 c -0.15625,0 -0.34375,0 -0.34375,-0.078125 0,-0.015625 0,-0.03125 0.03125,-0.15625 z M 2.5,-0.875 C 2.453125,-0.765625 2.453125,-0.75 2.375,-0.640625 2.09375,-0.3125 1.765625,-0.125 1.5,-0.125 c -0.265625,0 -0.515625,-0.1875 -0.515625,-0.671875 0,-0.375 0.203125,-1.140625 0.375,-1.421875 0.3125,-0.5625 0.671875,-0.65625 0.859375,-0.65625 0.484375,0 0.625,0.53125 0.625,0.609375 0,0.03125 -0.015625,0.078125 -0.015625,0.09375 z m 0,0"
               style="stroke:none" />
          </symbol>
          <symbol
             id="id-ee13dbe7-fea3-4b46-938c-f1c1a0f57d2f"
             overflow="visible">
            <path
               id="id-0543042f-0974-4fd6-bf39-6382a86ecde1"
               d="m 2.875,-4.1875 c 0.0625,-0.25 0.078125,-0.328125 0.71875,-0.328125 0.21875,0 0.28125,0 0.28125,-0.140625 0,-0.015625 0,-0.109375 -0.109375,-0.109375 -0.15625,0 -0.34375,0.015625 -0.515625,0.03125 -0.171875,0 -0.390625,0 -0.5625,0 -0.140625,0 -0.328125,0 -0.484375,0 -0.140625,0 -0.3125,-0.03125 -0.453125,-0.03125 -0.03125,0 -0.140625,0 -0.140625,0.15625 0,0.09375 0.078125,0.09375 0.21875,0.09375 0.015625,0 0.140625,0 0.265625,0.015625 0.15625,0.015625 0.171875,0.03125 0.171875,0.109375 0,0 0,0.046875 -0.03125,0.140625 l -0.9375,3.703125 C 1.234375,-0.3125 1.21875,-0.25 0.6875,-0.25 c -0.109375,0 -0.203125,0 -0.203125,0.140625 C 0.484375,0 0.5625,0 0.6875,0 h 3.5 c 0.1875,0 0.1875,0 0.25,-0.140625 0.0625,-0.1875 0.59375,-1.53125 0.59375,-1.59375 0,-0.015625 -0.015625,-0.09375 -0.125,-0.09375 -0.078125,0 -0.09375,0.03125 -0.140625,0.140625 C 4.5,-1.03125 4.1875,-0.25 2.921875,-0.25 H 2.125 c -0.203125,0 -0.21875,-0.015625 -0.21875,-0.078125 0,0 0,-0.03125 0.03125,-0.140625 z m 0,0"
               style="stroke:none" />
          </symbol>
          <symbol
             id="id-fcd88436-8ef9-42c0-b7eb-e0b3d6221ac0"
             overflow="visible">
            <path
               id="id-399a23cc-29e3-4130-9267-66310e7d5e5b"
               d=""
               style="stroke:none" />
          </symbol>
          <symbol
             id="id-2186f5e3-2c20-4258-8182-c5918ef8017a"
             overflow="visible">
            <path
               id="id-bd38353a-e419-4485-9658-c664bf27e72c"
               d="M 3.515625,-1.265625 H 3.28125 c -0.015625,0.15625 -0.09375,0.5625 -0.1875,0.625 C 3.046875,-0.59375 2.515625,-0.59375 2.40625,-0.59375 H 1.125 c 0.734375,-0.640625 0.984375,-0.84375 1.390625,-1.171875 0.515625,-0.40625 1,-0.84375 1,-1.5 0,-0.84375 -0.734375,-1.359375 -1.625,-1.359375 -0.859375,0 -1.453125,0.609375 -1.453125,1.25 0,0.34375 0.296875,0.390625 0.375,0.390625 0.15625,0 0.359375,-0.125 0.359375,-0.375 0,-0.125 -0.046875,-0.375 -0.40625,-0.375 C 0.984375,-4.21875 1.453125,-4.375 1.78125,-4.375 c 0.703125,0 1.0625,0.546875 1.0625,1.109375 0,0.609375 -0.4375,1.078125 -0.65625,1.328125 L 0.515625,-0.265625 C 0.4375,-0.203125 0.4375,-0.1875 0.4375,0 h 2.875 z m 0,0"
               style="stroke:none" />
          </symbol>
        </g>
      </defs>
      <g
         transform="translate(-149.906,-125.554)"
         id="id-cb8f42ef-a262-409f-88d7-9b0c94a06b44">
        <g
           id="id-b88ea29a-1df1-4a4f-b69f-80570cc011cb"
           style="fill:#000000;fill-opacity:1">
          <g
             transform="translate(149.908,130.32)"
             id="g5048">
            <path
               id="id-1830548f-c889-4557-86f6-71d58f8aec16"
               d="m 3.546875,-2.875 c 0,-0.03125 0.015625,-0.0625 0.015625,-0.09375 0,-0.046875 -0.03125,-0.109375 -0.09375,-0.109375 -0.0625,0 -0.359375,0.234375 -0.5,0.46875 -0.0625,-0.140625 -0.296875,-0.46875 -0.75,-0.46875 -0.890625,0 -1.796875,0.984375 -1.796875,1.984375 0,0.6875 0.453125,1.15625 1.0625,1.15625 0.390625,0 0.71875,-0.25 0.875,-0.375 C 2.34375,-0.296875 2.125,0.578125 2.109375,0.703125 2,1.09375 2,1.09375 1.5625,1.09375 c -0.078125,0 -0.171875,0 -0.171875,0.15625 0,0.046875 0.03125,0.109375 0.09375,0.109375 0.234375,0 0.5,-0.03125 0.734375,-0.03125 0.234375,0 0.53125,0.03125 0.75,0.03125 0.0625,0 0.125,-0.03125 0.125,-0.15625 C 3.09375,1.09375 3,1.09375 2.921875,1.09375 c -0.15625,0 -0.34375,0 -0.34375,-0.078125 0,-0.015625 0,-0.03125 0.03125,-0.15625 z M 2.5,-0.875 C 2.453125,-0.765625 2.453125,-0.75 2.375,-0.640625 2.09375,-0.3125 1.765625,-0.125 1.5,-0.125 c -0.265625,0 -0.515625,-0.1875 -0.515625,-0.671875 0,-0.375 0.203125,-1.140625 0.375,-1.421875 0.3125,-0.5625 0.671875,-0.65625 0.859375,-0.65625 0.484375,0 0.625,0.53125 0.625,0.609375 0,0.03125 -0.015625,0.078125 -0.015625,0.09375 z m 0,0"
               style="stroke:none" />
          </g>
        </g>
        <g
           id="id-aa8fe5ca-e40c-4b48-9085-784d5ca27c5a"
           style="fill:#000000;fill-opacity:1">
          <g
             transform="translate(153.811,130.32)"
             id="g5052">
            <path
               id="id-de127303-55fe-4e31-931d-61954bceb5a9"
               d="m 2.875,-4.1875 c 0.0625,-0.25 0.078125,-0.328125 0.71875,-0.328125 0.21875,0 0.28125,0 0.28125,-0.140625 0,-0.015625 0,-0.109375 -0.109375,-0.109375 -0.15625,0 -0.34375,0.015625 -0.515625,0.03125 -0.171875,0 -0.390625,0 -0.5625,0 -0.140625,0 -0.328125,0 -0.484375,0 -0.140625,0 -0.3125,-0.03125 -0.453125,-0.03125 -0.03125,0 -0.140625,0 -0.140625,0.15625 0,0.09375 0.078125,0.09375 0.21875,0.09375 0.015625,0 0.140625,0 0.265625,0.015625 0.15625,0.015625 0.171875,0.03125 0.171875,0.109375 0,0 0,0.046875 -0.03125,0.140625 l -0.9375,3.703125 C 1.234375,-0.3125 1.21875,-0.25 0.6875,-0.25 c -0.109375,0 -0.203125,0 -0.203125,0.140625 C 0.484375,0 0.5625,0 0.6875,0 h 3.5 c 0.1875,0 0.1875,0 0.25,-0.140625 0.0625,-0.1875 0.59375,-1.53125 0.59375,-1.59375 0,-0.015625 -0.015625,-0.09375 -0.125,-0.09375 -0.078125,0 -0.09375,0.03125 -0.140625,0.140625 C 4.5,-1.03125 4.1875,-0.25 2.921875,-0.25 H 2.125 c -0.203125,0 -0.21875,-0.015625 -0.21875,-0.078125 0,0 0,-0.03125 0.03125,-0.140625 z m 0,0"
               style="stroke:none" />
          </g>
        </g>
        <path
           id="id-daddc4aa-5fe1-4715-b24f-f7fd2ca7e768"
           transform="matrix(1,0,0,-1,149.908,132.274)"
           d="M -0.00175,5.625e-4 H 9.365437"
           style="fill:none;stroke:#000000;stroke-width:0.398;stroke-linecap:butt;stroke-linejoin:miter;stroke-miterlimit:10;stroke-opacity:1" />
        <g
           id="id-41b4f5e3-487b-4a0c-aabb-3903c651b837"
           style="fill:#000000;fill-opacity:1">
          <g
             transform="translate(152.606,138.2)"
             id="g5057">
            <path
               id="id-04d177e9-e3a8-4e76-a2cb-8d80c916514a"
               d="M 3.515625,-1.265625 H 3.28125 c -0.015625,0.15625 -0.09375,0.5625 -0.1875,0.625 C 3.046875,-0.59375 2.515625,-0.59375 2.40625,-0.59375 H 1.125 c 0.734375,-0.640625 0.984375,-0.84375 1.390625,-1.171875 0.515625,-0.40625 1,-0.84375 1,-1.5 0,-0.84375 -0.734375,-1.359375 -1.625,-1.359375 -0.859375,0 -1.453125,0.609375 -1.453125,1.25 0,0.34375 0.296875,0.390625 0.375,0.390625 0.15625,0 0.359375,-0.125 0.359375,-0.375 0,-0.125 -0.046875,-0.375 -0.40625,-0.375 C 0.984375,-4.21875 1.453125,-4.375 1.78125,-4.375 c 0.703125,0 1.0625,0.546875 1.0625,1.109375 0,0.609375 -0.4375,1.078125 -0.65625,1.328125 L 0.515625,-0.265625 C 0.4375,-0.203125 0.4375,-0.1875 0.4375,0 h 2.875 z m 0,0"
               style="stroke:none" />
          </g>
        </g>
      </g>
    </g>
    <path
       style="fill:none;stroke:#000000;stroke-width:0.9;stroke-linecap:butt;stroke-linejoin:miter;stroke-miterlimit:4;stroke-dasharray:none;stroke-opacity:1;marker-end:url(#marker5100)"
       d="M 180.00002,114.00228 V 84.002279"
       id="path5096" />
    <path
       id="path5160"
       d="m 20.000015,270.00228 v -30"
       style="fill:none;stroke:#000000;stroke-width:0.9;stroke-linecap:butt;stroke-linejoin:miter;stroke-miterlimit:4;stroke-dasharray:none;stroke-opacity:1;marker-end:url(#marker5164)" />
    <path
       style="fill:none;stroke:#000000;stroke-width:0.9;stroke-linecap:butt;stroke-linejoin:miter;stroke-miterlimit:4;stroke-dasharray:none;stroke-opacity:1;marker-end:url(#marker5236)"
       d="m 23.000015,235.00228 h 30"
       id="path5232" />
    <path
       d="m 65.544606,152.90718 c -0.16718,0.13538 -0.317805,0.29079 -0.454435,0.45665 -0.122153,0.13169 -0.185976,0.29299 -0.238387,0.46137 -0.05903,0.20053 -0.08916,0.40617 -0.108421,0.61378 -0.02734,0.22123 -0.01236,0.44109 0.01053,0.66156 0.02503,0.24834 0.03094,0.49797 0.03485,0.74737 0.0096,0.23298 -0.0085,0.46581 -0.04702,0.69554 -0.03345,0.11564 -0.07278,0.24071 -0.136256,0.34467 -0.0066,0.0108 -0.09816,0.12214 -0.105637,0.13129 -0.08155,0.10129 -0.593077,0.39525 -0.09137,0.0947 -0.172913,0.074 -0.356185,0.10585 -0.541803,0.12663 -0.101751,0.004 -0.202375,0.02 -0.302948,0.0348 0,0 -0.262173,0.19648 -0.262173,0.19648 v 0 c 0.100446,-0.0152 0.200673,-0.0344 0.302599,-0.0363 0.187012,-0.019 0.370824,-0.0479 0.547121,-0.11614 0.223332,-0.12494 0.471834,-0.239 0.650632,-0.42913 0.114593,-0.14451 0.195897,-0.3085 0.233209,-0.4906 0.03638,-0.23154 0.05424,-0.46583 0.04348,-0.70028 -0.0049,-0.25044 -0.01,-0.50113 -0.03469,-0.75059 -0.02246,-0.21848 -0.03568,-0.43622 -0.0084,-0.65537 0.02048,-0.20605 0.0526,-0.40998 0.113479,-0.60847 0.05396,-0.16495 0.12169,-0.32041 0.242216,-0.44919 0.139142,-0.16429 0.29002,-0.31956 0.460306,-0.45195 0,0 -0.306901,0.12316 -0.306901,0.12316 z"
       id="path7368"
       style="opacity:1;fill:#ffffff;fill-opacity:1;stroke:#000000;stroke-width:0.899999;stroke-linecap:round;stroke-linejoin:bevel;stroke-miterlimit:4;stroke-dasharray:none;stroke-dashoffset:0" />
    <g
       transform="matrix(1.76389,0,0,1.76389,106.12913,41.518565)"
       ns2:version="1.0.1"
       ns2:texconverter="pdflatex"
       ns2:pdfconverter="inkscape"
       ns2:text="$qL$"
       ns2:preamble="C:\\Users\\claum\\AppData\\Roaming\\inkscape\\extensions\\textext\\default_packages.tex"
       ns2:scale="5.0"
       ns2:alignment="middle center"
       ns2:inkscapeversion="1.0"
       ns2:jacobian_sqrt="1.76389"
       id="g7617">
      <defs
         id="id-eabb40bb-d52f-45ba-b71f-875f09aae3d0">
        <g
           id="id-3e6fb5f8-6413-47bb-bd44-db4a390bdb93">
          <symbol
             id="id-36665940-2ea0-437c-96de-e3000baf7ddd"
             overflow="visible">
            <path
               id="id-6c5d8949-14c7-4bfe-bad3-4927cb657835"
               d=""
               style="stroke:none" />
          </symbol>
          <symbol
             id="id-b5cf628c-6b82-4b2b-8e78-ebc0c6320cc1"
             overflow="visible">
            <path
               id="id-ec2cdcde-5cff-4d5c-8fc6-741fdc8d52d5"
               d="m 4.5,-4.296875 c 0,-0.046875 -0.03125,-0.09375 -0.09375,-0.09375 -0.109375,0 -0.515625,0.390625 -0.671875,0.6875 C 3.515625,-4.25 3.125,-4.40625 2.796875,-4.40625 c -1.171875,0 -2.390625,1.46875 -2.390625,2.921875 0,0.96875 0.578125,1.59375 1.3125,1.59375 0.421875,0 0.8125,-0.234375 1.171875,-0.59375 -0.09375,0.34375 -0.421875,1.6875 -0.453125,1.78125 -0.078125,0.28125 -0.15625,0.3125 -0.71875,0.328125 -0.125,0 -0.21875,0 -0.21875,0.203125 0,0 0,0.109375 0.125,0.109375 0.3125,0 0.671875,-0.03125 1,-0.03125 0.328125,0 0.6875,0.03125 1.03125,0.03125 0.046875,0 0.171875,0 0.171875,-0.203125 C 3.828125,1.625 3.734375,1.625 3.5625,1.625 3.09375,1.625 3.09375,1.5625 3.09375,1.46875 3.09375,1.390625 3.109375,1.328125 3.125,1.25 Z m -2.75,4.1875 c -0.609375,0 -0.640625,-0.765625 -0.640625,-0.9375 0,-0.484375 0.28125,-1.5625 0.453125,-1.984375 0.3125,-0.734375 0.828125,-1.15625 1.234375,-1.15625 0.65625,0 0.796875,0.8125 0.796875,0.875 0,0.0625 -0.546875,2.25 -0.578125,2.28125 C 2.859375,-0.75 2.296875,-0.109375 1.75,-0.109375 Z m 0,0"
               style="stroke:none" />
          </symbol>
          <symbol
             id="id-e6e062a5-bab7-4af3-8141-e281bb966fd8"
             overflow="visible">
            <path
               id="id-64f5c9a9-65fb-41c0-a142-0c3754c993d7"
               d="M 3.734375,-6.03125 C 3.8125,-6.390625 3.84375,-6.5 4.78125,-6.5 c 0.296875,0 0.375,0 0.375,-0.1875 0,-0.125 -0.109375,-0.125 -0.15625,-0.125 -0.328125,0 -1.140625,0.03125 -1.46875,0.03125 -0.296875,0 -1.03125,-0.03125 -1.328125,-0.03125 -0.0625,0 -0.1875,0 -0.1875,0.203125 0,0.109375 0.09375,0.109375 0.28125,0.109375 0.015625,0 0.203125,0 0.375,0.015625 0.171875,0.03125 0.265625,0.03125 0.265625,0.171875 0,0.03125 0,0.0625 -0.03125,0.1875 L 1.5625,-0.78125 c -0.09375,0.390625 -0.109375,0.46875 -0.90625,0.46875 -0.171875,0 -0.265625,0 -0.265625,0.203125 C 0.390625,0 0.484375,0 0.65625,0 h 4.625 C 5.515625,0 5.515625,0 5.578125,-0.171875 L 6.375,-2.328125 c 0.03125,-0.109375 0.03125,-0.125 0.03125,-0.140625 0,-0.03125 -0.03125,-0.109375 -0.109375,-0.109375 -0.09375,0 -0.109375,0.0625 -0.171875,0.21875 -0.34375,0.90625 -0.78125,2.046875 -2.5,2.046875 H 2.6875 c -0.140625,0 -0.171875,0 -0.21875,0 -0.109375,-0.015625 -0.140625,-0.03125 -0.140625,-0.109375 0,-0.03125 0,-0.046875 0.046875,-0.21875 z m 0,0"
               style="stroke:none" />
          </symbol>
        </g>
      </defs>
      <g
         transform="translate(-149.118,-127.953)"
         id="id-8c51f87d-690d-4dc6-978e-a45cce416bac">
        <g
           id="id-20b1bca6-9ed4-4c24-80a3-5566aca249be"
           style="fill:#000000;fill-opacity:1">
          <g
             transform="translate(148.712,134.765)"
             id="g7609">
            <path
               id="id-b965a599-3c73-4699-80c4-4a1e05181194"
               d="m 4.5,-4.296875 c 0,-0.046875 -0.03125,-0.09375 -0.09375,-0.09375 -0.109375,0 -0.515625,0.390625 -0.671875,0.6875 C 3.515625,-4.25 3.125,-4.40625 2.796875,-4.40625 c -1.171875,0 -2.390625,1.46875 -2.390625,2.921875 0,0.96875 0.578125,1.59375 1.3125,1.59375 0.421875,0 0.8125,-0.234375 1.171875,-0.59375 -0.09375,0.34375 -0.421875,1.6875 -0.453125,1.78125 -0.078125,0.28125 -0.15625,0.3125 -0.71875,0.328125 -0.125,0 -0.21875,0 -0.21875,0.203125 0,0 0,0.109375 0.125,0.109375 0.3125,0 0.671875,-0.03125 1,-0.03125 0.328125,0 0.6875,0.03125 1.03125,0.03125 0.046875,0 0.171875,0 0.171875,-0.203125 C 3.828125,1.625 3.734375,1.625 3.5625,1.625 3.09375,1.625 3.09375,1.5625 3.09375,1.46875 3.09375,1.390625 3.109375,1.328125 3.125,1.25 Z m -2.75,4.1875 c -0.609375,0 -0.640625,-0.765625 -0.640625,-0.9375 0,-0.484375 0.28125,-1.5625 0.453125,-1.984375 0.3125,-0.734375 0.828125,-1.15625 1.234375,-1.15625 0.65625,0 0.796875,0.8125 0.796875,0.875 0,0.0625 -0.546875,2.25 -0.578125,2.28125 C 2.859375,-0.75 2.296875,-0.109375 1.75,-0.109375 Z m 0,0"
               style="stroke:none" />
          </g>
        </g>
        <g
           id="id-f4ac90c7-ee19-43c9-9db2-f69682879f14"
           style="fill:#000000;fill-opacity:1">
          <g
             transform="translate(153.518,134.765)"
             id="g7613">
            <path
               id="id-1f6d2ebe-364a-4ce0-a74e-c470b25c65d1"
               d="M 3.734375,-6.03125 C 3.8125,-6.390625 3.84375,-6.5 4.78125,-6.5 c 0.296875,0 0.375,0 0.375,-0.1875 0,-0.125 -0.109375,-0.125 -0.15625,-0.125 -0.328125,0 -1.140625,0.03125 -1.46875,0.03125 -0.296875,0 -1.03125,-0.03125 -1.328125,-0.03125 -0.0625,0 -0.1875,0 -0.1875,0.203125 0,0.109375 0.09375,0.109375 0.28125,0.109375 0.015625,0 0.203125,0 0.375,0.015625 0.171875,0.03125 0.265625,0.03125 0.265625,0.171875 0,0.03125 0,0.0625 -0.03125,0.1875 L 1.5625,-0.78125 c -0.09375,0.390625 -0.109375,0.46875 -0.90625,0.46875 -0.171875,0 -0.265625,0 -0.265625,0.203125 C 0.390625,0 0.484375,0 0.65625,0 h 4.625 C 5.515625,0 5.515625,0 5.578125,-0.171875 L 6.375,-2.328125 c 0.03125,-0.109375 0.03125,-0.125 0.03125,-0.140625 0,-0.03125 -0.03125,-0.109375 -0.109375,-0.109375 -0.09375,0 -0.109375,0.0625 -0.171875,0.21875 -0.34375,0.90625 -0.78125,2.046875 -2.5,2.046875 H 2.6875 c -0.140625,0 -0.171875,0 -0.21875,0 -0.109375,-0.015625 -0.140625,-0.03125 -0.140625,-0.109375 0,-0.03125 0,-0.046875 0.046875,-0.21875 z m 0,0"
               style="stroke:none" />
          </g>
        </g>
      </g>
    </g>
    <g
       transform="matrix(1.76389,0,0,1.76389,22.992246,249.31939)"
       ns2:version="1.0.1"
       ns2:texconverter="pdflatex"
       ns2:pdfconverter="inkscape"
       ns2:text="$\\frac{9}{8}qL$"
       ns2:preamble="C:\\Users\\claum\\AppData\\Roaming\\inkscape\\extensions\\textext\\default_packages.tex"
       ns2:scale="5.0"
       ns2:alignment="middle center"
       ns2:inkscapeversion="1.0"
       ns2:jacobian_sqrt="1.76389"
       id="g7902">
      <defs
         id="id-dd691e25-f24a-4270-be84-56db201cf754">
        <g
           id="id-302fa11b-3e3c-403b-96ee-81e0278fffad">
          <symbol
             id="id-af577c45-eb8b-4f01-8604-389058f1a4b5"
             overflow="visible">
            <path
               id="id-64c6cdc4-1b69-47ad-8fba-c9451ef9593d"
               d=""
               style="stroke:none" />
          </symbol>
          <symbol
             id="id-ee6a1a23-aac0-47df-97ec-31ec617513de"
             overflow="visible">
            <path
               id="id-73b781ab-cdcb-4a69-9625-f9fc2270caad"
               d="m 2.90625,-2.078125 c 0,1.734375 -0.84375,2 -1.265625,2 -0.15625,0 -0.53125,-0.015625 -0.71875,-0.234375 0.296875,-0.03125 0.3125,-0.265625 0.3125,-0.328125 0,-0.171875 -0.125,-0.328125 -0.328125,-0.328125 -0.203125,0 -0.328125,0.140625 -0.328125,0.34375 0,0.46875 0.390625,0.765625 1.0625,0.765625 1,0 1.9375,-0.9375 1.9375,-2.4375 C 3.578125,-4.015625 2.8125,-4.625 2,-4.625 c -0.234375,0 -0.703125,0.03125 -1.109375,0.421875 -0.234375,0.234375 -0.515625,0.5 -0.515625,1.125 0,0.890625 0.703125,1.546875 1.515625,1.546875 0.5625,0 0.859375,-0.375 1.015625,-0.6875 z m -0.96875,0.34375 c -0.28125,0 -0.53125,-0.078125 -0.734375,-0.40625 -0.15625,-0.25 -0.15625,-0.546875 -0.15625,-0.9375 0,-0.40625 0,-0.671875 0.203125,-0.953125 0.171875,-0.25 0.390625,-0.390625 0.75,-0.390625 0.359375,0 0.578125,0.21875 0.6875,0.40625 0.1875,0.28125 0.203125,0.78125 0.203125,1.015625 0,0.90625 -0.515625,1.265625 -0.953125,1.265625 z m 0,0"
               style="stroke:none" />
          </symbol>
          <symbol
             id="id-13a5890c-9deb-47c1-b1f2-d7230b9de94d"
             overflow="visible">
            <path
               id="id-5c1ed321-c737-4a05-a9fe-52da4fd9f118"
               d="m 2.46875,-2.515625 c 0.546875,-0.265625 0.890625,-0.59375 0.890625,-1.078125 0,-0.671875 -0.703125,-1.03125 -1.375,-1.03125 -0.765625,0 -1.390625,0.5 -1.390625,1.15625 0,0.328125 0.15625,0.5625 0.28125,0.703125 0.125,0.15625 0.171875,0.1875 0.578125,0.421875 C 1.0625,-2.171875 0.375,-1.796875 0.375,-1.0625 c 0,0.765625 0.796875,1.203125 1.59375,1.203125 0.890625,0 1.609375,-0.5625 1.609375,-1.3125 0,-0.46875 -0.265625,-0.859375 -0.671875,-1.09375 -0.09375,-0.0625 -0.328125,-0.1875 -0.4375,-0.25 z m -1.125,-0.65625 c -0.1875,-0.109375 -0.375,-0.296875 -0.375,-0.5625 0,-0.4375 0.5,-0.6875 1,-0.6875 0.546875,0 1.03125,0.34375 1.03125,0.828125 0,0.625 -0.734375,0.9375 -0.734375,0.9375 -0.015625,0 -0.03125,0 -0.078125,-0.03125 z m 0.328125,0.96875 0.96875,0.546875 c 0.171875,0.109375 0.515625,0.3125 0.515625,0.71875 0,0.53125 -0.578125,0.859375 -1.171875,0.859375 -0.640625,0 -1.1875,-0.421875 -1.1875,-0.984375 0,-0.515625 0.375,-0.921875 0.875,-1.140625 z m 0,0"
               style="stroke:none" />
          </symbol>
          <symbol
             id="id-081e44fc-5673-42ff-a024-3cc4fc6ecd86"
             overflow="visible">
            <path
               id="id-92a2bdcb-7de1-49d0-b26f-42450dc0073e"
               d=""
               style="stroke:none" />
          </symbol>
          <symbol
             id="id-a9d8c5e0-4f69-4d1c-ae45-839e1c5a47e0"
             overflow="visible">
            <path
               id="id-a36b83ea-ca29-47e7-a36f-04f1935da128"
               d="m 4.5,-4.296875 c 0,-0.046875 -0.03125,-0.09375 -0.09375,-0.09375 -0.109375,0 -0.515625,0.390625 -0.671875,0.6875 C 3.515625,-4.25 3.125,-4.40625 2.796875,-4.40625 c -1.171875,0 -2.390625,1.46875 -2.390625,2.921875 0,0.96875 0.578125,1.59375 1.3125,1.59375 0.421875,0 0.8125,-0.234375 1.171875,-0.59375 -0.09375,0.34375 -0.421875,1.6875 -0.453125,1.78125 -0.078125,0.28125 -0.15625,0.3125 -0.71875,0.328125 -0.125,0 -0.21875,0 -0.21875,0.203125 0,0 0,0.109375 0.125,0.109375 0.3125,0 0.671875,-0.03125 1,-0.03125 0.328125,0 0.6875,0.03125 1.03125,0.03125 0.046875,0 0.171875,0 0.171875,-0.203125 C 3.828125,1.625 3.734375,1.625 3.5625,1.625 3.09375,1.625 3.09375,1.5625 3.09375,1.46875 3.09375,1.390625 3.109375,1.328125 3.125,1.25 Z m -2.75,4.1875 c -0.609375,0 -0.640625,-0.765625 -0.640625,-0.9375 0,-0.484375 0.28125,-1.5625 0.453125,-1.984375 0.3125,-0.734375 0.828125,-1.15625 1.234375,-1.15625 0.65625,0 0.796875,0.8125 0.796875,0.875 0,0.0625 -0.546875,2.25 -0.578125,2.28125 C 2.859375,-0.75 2.296875,-0.109375 1.75,-0.109375 Z m 0,0"
               style="stroke:none" />
          </symbol>
          <symbol
             id="id-3b36695a-f13b-4050-8a31-991006c833e6"
             overflow="visible">
            <path
               id="id-12c5d944-b427-4245-b38a-b79c68b4ad8c"
               d="M 3.734375,-6.03125 C 3.8125,-6.390625 3.84375,-6.5 4.78125,-6.5 c 0.296875,0 0.375,0 0.375,-0.1875 0,-0.125 -0.109375,-0.125 -0.15625,-0.125 -0.328125,0 -1.140625,0.03125 -1.46875,0.03125 -0.296875,0 -1.03125,-0.03125 -1.328125,-0.03125 -0.0625,0 -0.1875,0 -0.1875,0.203125 0,0.109375 0.09375,0.109375 0.28125,0.109375 0.015625,0 0.203125,0 0.375,0.015625 0.171875,0.03125 0.265625,0.03125 0.265625,0.171875 0,0.03125 0,0.0625 -0.03125,0.1875 L 1.5625,-0.78125 c -0.09375,0.390625 -0.109375,0.46875 -0.90625,0.46875 -0.171875,0 -0.265625,0 -0.265625,0.203125 C 0.390625,0 0.484375,0 0.65625,0 h 4.625 C 5.515625,0 5.515625,0 5.578125,-0.171875 L 6.375,-2.328125 c 0.03125,-0.109375 0.03125,-0.125 0.03125,-0.140625 0,-0.03125 -0.03125,-0.109375 -0.109375,-0.109375 -0.09375,0 -0.109375,0.0625 -0.171875,0.21875 -0.34375,0.90625 -0.78125,2.046875 -2.5,2.046875 H 2.6875 c -0.140625,0 -0.171875,0 -0.21875,0 -0.109375,-0.015625 -0.140625,-0.03125 -0.140625,-0.109375 0,-0.03125 0,-0.046875 0.046875,-0.21875 z m 0,0"
               style="stroke:none" />
          </symbol>
        </g>
      </defs>
      <g
         transform="translate(-149.906,-126.217)"
         id="id-75d6eb5b-dac9-4906-9e1f-3db3f3492231">
        <g
           id="id-b271c193-8094-4f1e-957c-52776375b788"
           style="fill:#000000;fill-opacity:1">
          <g
             transform="translate(149.908,130.842)"
             id="g7885">
            <path
               id="id-9efcfd42-a03d-4730-8a99-c7f76bc1ee06"
               d="m 2.90625,-2.078125 c 0,1.734375 -0.84375,2 -1.265625,2 -0.15625,0 -0.53125,-0.015625 -0.71875,-0.234375 0.296875,-0.03125 0.3125,-0.265625 0.3125,-0.328125 0,-0.171875 -0.125,-0.328125 -0.328125,-0.328125 -0.203125,0 -0.328125,0.140625 -0.328125,0.34375 0,0.46875 0.390625,0.765625 1.0625,0.765625 1,0 1.9375,-0.9375 1.9375,-2.4375 C 3.578125,-4.015625 2.8125,-4.625 2,-4.625 c -0.234375,0 -0.703125,0.03125 -1.109375,0.421875 -0.234375,0.234375 -0.515625,0.5 -0.515625,1.125 0,0.890625 0.703125,1.546875 1.515625,1.546875 0.5625,0 0.859375,-0.375 1.015625,-0.6875 z m -0.96875,0.34375 c -0.28125,0 -0.53125,-0.078125 -0.734375,-0.40625 -0.15625,-0.25 -0.15625,-0.546875 -0.15625,-0.9375 0,-0.40625 0,-0.671875 0.203125,-0.953125 0.171875,-0.25 0.390625,-0.390625 0.75,-0.390625 0.359375,0 0.578125,0.21875 0.6875,0.40625 0.1875,0.28125 0.203125,0.78125 0.203125,1.015625 0,0.90625 -0.515625,1.265625 -0.953125,1.265625 z m 0,0"
               style="stroke:none" />
          </g>
        </g>
        <path
           id="id-74c3e48a-7217-41f4-92b7-75d92b1038f9"
           transform="matrix(1,0,0,-1,149.908,132.274)"
           d="M -0.00175,5.625e-4 H 3.970906"
           style="fill:none;stroke:#000000;stroke-width:0.398;stroke-linecap:butt;stroke-linejoin:miter;stroke-miterlimit:10;stroke-opacity:1" />
        <g
           id="id-8bdc5954-6efa-4818-9a3f-643e3248c502"
           style="fill:#000000;fill-opacity:1">
          <g
             transform="translate(149.908,138.2)"
             id="g7890">
            <path
               id="id-105ddaaa-dd55-4ee6-92be-a61f99232e99"
               d="m 2.46875,-2.515625 c 0.546875,-0.265625 0.890625,-0.59375 0.890625,-1.078125 0,-0.671875 -0.703125,-1.03125 -1.375,-1.03125 -0.765625,0 -1.390625,0.5 -1.390625,1.15625 0,0.328125 0.15625,0.5625 0.28125,0.703125 0.125,0.15625 0.171875,0.1875 0.578125,0.421875 C 1.0625,-2.171875 0.375,-1.796875 0.375,-1.0625 c 0,0.765625 0.796875,1.203125 1.59375,1.203125 0.890625,0 1.609375,-0.5625 1.609375,-1.3125 0,-0.46875 -0.265625,-0.859375 -0.671875,-1.09375 -0.09375,-0.0625 -0.328125,-0.1875 -0.4375,-0.25 z m -1.125,-0.65625 c -0.1875,-0.109375 -0.375,-0.296875 -0.375,-0.5625 0,-0.4375 0.5,-0.6875 1,-0.6875 0.546875,0 1.03125,0.34375 1.03125,0.828125 0,0.625 -0.734375,0.9375 -0.734375,0.9375 -0.015625,0 -0.03125,0 -0.078125,-0.03125 z m 0.328125,0.96875 0.96875,0.546875 c 0.171875,0.109375 0.515625,0.3125 0.515625,0.71875 0,0.53125 -0.578125,0.859375 -1.171875,0.859375 -0.640625,0 -1.1875,-0.421875 -1.1875,-0.984375 0,-0.515625 0.375,-0.921875 0.875,-1.140625 z m 0,0"
               style="stroke:none" />
          </g>
        </g>
        <g
           id="id-d062ddfb-e4dc-4a48-a6f2-f962c9ad5efe"
           style="fill:#000000;fill-opacity:1">
          <g
             transform="translate(155.075,134.765)"
             id="g7894">
            <path
               id="id-8e15bcb5-7795-46ac-9e8f-dad7fcee6083"
               d="m 4.5,-4.296875 c 0,-0.046875 -0.03125,-0.09375 -0.09375,-0.09375 -0.109375,0 -0.515625,0.390625 -0.671875,0.6875 C 3.515625,-4.25 3.125,-4.40625 2.796875,-4.40625 c -1.171875,0 -2.390625,1.46875 -2.390625,2.921875 0,0.96875 0.578125,1.59375 1.3125,1.59375 0.421875,0 0.8125,-0.234375 1.171875,-0.59375 -0.09375,0.34375 -0.421875,1.6875 -0.453125,1.78125 -0.078125,0.28125 -0.15625,0.3125 -0.71875,0.328125 -0.125,0 -0.21875,0 -0.21875,0.203125 0,0 0,0.109375 0.125,0.109375 0.3125,0 0.671875,-0.03125 1,-0.03125 0.328125,0 0.6875,0.03125 1.03125,0.03125 0.046875,0 0.171875,0 0.171875,-0.203125 C 3.828125,1.625 3.734375,1.625 3.5625,1.625 3.09375,1.625 3.09375,1.5625 3.09375,1.46875 3.09375,1.390625 3.109375,1.328125 3.125,1.25 Z m -2.75,4.1875 c -0.609375,0 -0.640625,-0.765625 -0.640625,-0.9375 0,-0.484375 0.28125,-1.5625 0.453125,-1.984375 0.3125,-0.734375 0.828125,-1.15625 1.234375,-1.15625 0.65625,0 0.796875,0.8125 0.796875,0.875 0,0.0625 -0.546875,2.25 -0.578125,2.28125 C 2.859375,-0.75 2.296875,-0.109375 1.75,-0.109375 Z m 0,0"
               style="stroke:none" />
          </g>
        </g>
        <g
           id="id-1a0a4f0c-237f-4d3f-94bf-3d04d621c025"
           style="fill:#000000;fill-opacity:1">
          <g
             transform="translate(159.881,134.765)"
             id="g7898">
            <path
               id="id-4e9cec56-f8a7-46cf-b9fb-e473a09225e6"
               d="M 3.734375,-6.03125 C 3.8125,-6.390625 3.84375,-6.5 4.78125,-6.5 c 0.296875,0 0.375,0 0.375,-0.1875 0,-0.125 -0.109375,-0.125 -0.15625,-0.125 -0.328125,0 -1.140625,0.03125 -1.46875,0.03125 -0.296875,0 -1.03125,-0.03125 -1.328125,-0.03125 -0.0625,0 -0.1875,0 -0.1875,0.203125 0,0.109375 0.09375,0.109375 0.28125,0.109375 0.015625,0 0.203125,0 0.375,0.015625 0.171875,0.03125 0.265625,0.03125 0.265625,0.171875 0,0.03125 0,0.0625 -0.03125,0.1875 L 1.5625,-0.78125 c -0.09375,0.390625 -0.109375,0.46875 -0.90625,0.46875 -0.171875,0 -0.265625,0 -0.265625,0.203125 C 0.390625,0 0.484375,0 0.65625,0 h 4.625 C 5.515625,0 5.515625,0 5.578125,-0.171875 L 6.375,-2.328125 c 0.03125,-0.109375 0.03125,-0.125 0.03125,-0.140625 0,-0.03125 -0.03125,-0.109375 -0.109375,-0.109375 -0.09375,0 -0.109375,0.0625 -0.171875,0.21875 -0.34375,0.90625 -0.78125,2.046875 -2.5,2.046875 H 2.6875 c -0.140625,0 -0.171875,0 -0.21875,0 -0.109375,-0.015625 -0.140625,-0.03125 -0.140625,-0.109375 0,-0.03125 0,-0.046875 0.046875,-0.21875 z m 0,0"
               style="stroke:none" />
          </g>
        </g>
      </g>
    </g>
    <g
       transform="matrix(1.76389,0,0,1.76389,83.299285,159.00184)"
       ns2:version="1.0.1"
       ns2:texconverter="pdflatex"
       ns2:pdfconverter="inkscape"
       ns2:text="$\\mathbf{N}_{\\textup{CD}}$"
       ns2:preamble="C:\\Users\\claum\\AppData\\Roaming\\inkscape\\extensions\\textext\\default_packages.tex"
       ns2:scale="5.0"
       ns2:alignment="middle center"
       ns2:inkscapeversion="1.0"
       ns2:jacobian_sqrt="1.76389"
       id="g8135">
      <defs
         id="id-18adacab-874f-4a87-80cb-5170dc28829f">
        <g
           id="id-8668d1cb-37b7-4c1a-8233-ec6e7de041d1">
          <symbol
             id="id-b3ebe9d4-2eb4-49ba-b97d-5661d99e68e8"
             overflow="visible">
            <path
               id="id-7769420c-4139-4c36-923c-426d0e977a86"
               d=""
               style="stroke:none" />
          </symbol>
          <symbol
             id="id-417f9030-685c-482c-b066-860d4a29e3a1"
             overflow="visible">
            <path
               id="id-5effd402-0261-43de-a5ec-d71d5fd83db9"
               d="M 3,-6.703125 C 2.890625,-6.828125 2.875,-6.84375 2.671875,-6.84375 H 0.390625 V -6.375 H 1.46875 v 5.625 c 0,0.21875 -0.015625,0.21875 -0.296875,0.25 -0.234375,0.03125 -0.25,0.03125 -0.53125,0.03125 h -0.25 V 0 c 0.375,-0.03125 0.9375,-0.03125 1.328125,-0.03125 0.421875,0 0.9375,0 1.359375,0.03125 v -0.46875 h -0.25 C 2.640625,-0.46875 2.46875,-0.484375 2.296875,-0.5 2,-0.53125 2,-0.53125 2,-0.75 V -5.96875 L 6.953125,-0.125 C 7.0625,-0.015625 7.0625,0 7.234375,0 7.5,0 7.5,-0.09375 7.5,-0.3125 V -6.078125 C 7.5,-6.296875 7.5,-6.3125 7.78125,-6.34375 8.03125,-6.375 8.046875,-6.375 8.328125,-6.375 h 0.25 V -6.84375 C 8.1875,-6.8125 7.625,-6.8125 7.234375,-6.8125 c -0.421875,0 -0.9375,0 -1.34375,-0.03125 V -6.375 h 0.25 c 0.171875,0 0.34375,0.015625 0.53125,0.03125 0.28125,0.03125 0.296875,0.046875 0.296875,0.265625 v 4.03125 z m 0,0"
               style="stroke:none" />
          </symbol>
          <symbol
             id="id-ca1b1674-232c-49eb-9522-fc2a78c4fba7"
             overflow="visible">
            <path
               id="id-f683a4d0-d038-4856-8164-1a4054f5cd29"
               d=""
               style="stroke:none" />
          </symbol>
          <symbol
             id="id-deacd6e8-ad32-4a1a-81df-16248b5aeda3"
             overflow="visible">
            <path
               id="id-230d3b07-98d9-4f01-86b2-a35557f0f1ed"
               d="m 5.1875,-4.71875 c 0,-0.125 0,-0.1875 -0.09375,-0.1875 -0.03125,0 -0.0625,0 -0.125,0.09375 l -0.375,0.53125 c -0.28125,-0.296875 -0.765625,-0.625 -1.4375,-0.625 -1.46875,0 -2.671875,1.140625 -2.671875,2.515625 0,1.421875 1.234375,2.53125 2.671875,2.53125 1.234375,0 2.03125,-0.921875 2.03125,-1.765625 0,-0.078125 -0.015625,-0.140625 -0.125,-0.140625 -0.03125,0 -0.109375,0 -0.109375,0.09375 -0.0625,1.125 -1.015625,1.5625 -1.703125,1.5625 -0.734375,0 -2.015625,-0.453125 -2.015625,-2.265625 0,-1.890625 1.34375,-2.265625 2,-2.265625 0.703125,0 1.515625,0.453125 1.703125,1.65625 0.015625,0.078125 0.078125,0.078125 0.125,0.078125 0.125,0 0.125,-0.046875 0.125,-0.1875 z m 0,0"
               style="stroke:none" />
          </symbol>
          <symbol
             id="id-a76323bd-0cd7-4d26-b572-b1e78d281099"
             overflow="visible">
            <path
               id="id-4534649b-0ceb-4cde-b2b7-567d4228ee68"
               d="m 0.40625,-4.765625 v 0.25 h 0.171875 c 0.53125,0 0.546875,0.078125 0.546875,0.328125 v 3.625 c 0,0.234375 -0.015625,0.3125 -0.546875,0.3125 H 0.40625 V 0 h 2.75 C 4.4375,0 5.5,-1.03125 5.5,-2.34375 5.5,-3.671875 4.453125,-4.765625 3.15625,-4.765625 Z M 2.09375,-0.25 C 1.765625,-0.25 1.75,-0.3125 1.75,-0.515625 v -3.71875 c 0,-0.21875 0.015625,-0.28125 0.34375,-0.28125 h 0.859375 c 0.59375,0 1.109375,0.25 1.4375,0.65625 0.28125,0.375 0.390625,0.90625 0.390625,1.515625 0,0.8125 -0.203125,1.234375 -0.453125,1.515625 C 4.015625,-0.46875 3.515625,-0.25 2.96875,-0.25 Z m 0,0"
               style="stroke:none" />
          </symbol>
        </g>
      </defs>
      <g
         transform="translate(-149.103,-127.921)"
         id="id-1ee65eaf-5847-4b67-b064-58a5737253f2">
        <g
           id="id-bdad9ed2-73d8-44a6-a19d-0f5fdb6fec98"
           style="fill:#000000;fill-opacity:1">
          <g
             transform="translate(148.712,134.765)"
             id="g8124">
            <path
               id="id-7f82465f-14ab-42bf-85d4-17b99f248ec3"
               d="M 3,-6.703125 C 2.890625,-6.828125 2.875,-6.84375 2.671875,-6.84375 H 0.390625 V -6.375 H 1.46875 v 5.625 c 0,0.21875 -0.015625,0.21875 -0.296875,0.25 -0.234375,0.03125 -0.25,0.03125 -0.53125,0.03125 h -0.25 V 0 c 0.375,-0.03125 0.9375,-0.03125 1.328125,-0.03125 0.421875,0 0.9375,0 1.359375,0.03125 v -0.46875 h -0.25 C 2.640625,-0.46875 2.46875,-0.484375 2.296875,-0.5 2,-0.53125 2,-0.53125 2,-0.75 V -5.96875 L 6.953125,-0.125 C 7.0625,-0.015625 7.0625,0 7.234375,0 7.5,0 7.5,-0.09375 7.5,-0.3125 V -6.078125 C 7.5,-6.296875 7.5,-6.3125 7.78125,-6.34375 8.03125,-6.375 8.046875,-6.375 8.328125,-6.375 h 0.25 V -6.84375 C 8.1875,-6.8125 7.625,-6.8125 7.234375,-6.8125 c -0.421875,0 -0.9375,0 -1.34375,-0.03125 V -6.375 h 0.25 c 0.171875,0 0.34375,0.015625 0.53125,0.03125 0.28125,0.03125 0.296875,0.046875 0.296875,0.265625 v 4.03125 z m 0,0"
               style="stroke:none" />
          </g>
        </g>
        <g
           id="id-a511f156-a927-40de-b1da-e7357ede17ec"
           style="fill:#000000;fill-opacity:1">
          <g
             transform="translate(157.679,136.259)"
             id="g8128">
            <path
               id="id-defb1a04-2713-4370-962d-4935a9592cff"
               d="m 5.1875,-4.71875 c 0,-0.125 0,-0.1875 -0.09375,-0.1875 -0.03125,0 -0.0625,0 -0.125,0.09375 l -0.375,0.53125 c -0.28125,-0.296875 -0.765625,-0.625 -1.4375,-0.625 -1.46875,0 -2.671875,1.140625 -2.671875,2.515625 0,1.421875 1.234375,2.53125 2.671875,2.53125 1.234375,0 2.03125,-0.921875 2.03125,-1.765625 0,-0.078125 -0.015625,-0.140625 -0.125,-0.140625 -0.03125,0 -0.109375,0 -0.109375,0.09375 -0.0625,1.125 -1.015625,1.5625 -1.703125,1.5625 -0.734375,0 -2.015625,-0.453125 -2.015625,-2.265625 0,-1.890625 1.34375,-2.265625 2,-2.265625 0.703125,0 1.515625,0.453125 1.703125,1.65625 0.015625,0.078125 0.078125,0.078125 0.125,0.078125 0.125,0 0.125,-0.046875 0.125,-0.1875 z m 0,0"
               style="stroke:none" />
          </g>
          <g
             transform="translate(163.366,136.259)"
             id="g8131">
            <path
               id="id-3db6dd34-2278-49ab-99c2-8cf5460c05a0"
               d="m 0.40625,-4.765625 v 0.25 h 0.171875 c 0.53125,0 0.546875,0.078125 0.546875,0.328125 v 3.625 c 0,0.234375 -0.015625,0.3125 -0.546875,0.3125 H 0.40625 V 0 h 2.75 C 4.4375,0 5.5,-1.03125 5.5,-2.34375 5.5,-3.671875 4.453125,-4.765625 3.15625,-4.765625 Z M 2.09375,-0.25 C 1.765625,-0.25 1.75,-0.3125 1.75,-0.515625 v -3.71875 c 0,-0.21875 0.015625,-0.28125 0.34375,-0.28125 h 0.859375 c 0.59375,0 1.109375,0.25 1.4375,0.65625 0.28125,0.375 0.390625,0.90625 0.390625,1.515625 0,0.8125 -0.203125,1.234375 -0.453125,1.515625 C 4.015625,-0.46875 3.515625,-0.25 2.96875,-0.25 Z m 0,0"
               style="stroke:none" />
          </g>
        </g>
      </g>
    </g>
    <g
       transform="matrix(1.76389,0,0,1.76389,152.88679,102.97249)"
       ns2:version="1.0.1"
       ns2:texconverter="pdflatex"
       ns2:pdfconverter="inkscape"
       ns2:text="$\\mathbf{V}_E$"
       ns2:preamble="C:\\Users\\claum\\AppData\\Roaming\\inkscape\\extensions\\textext\\default_packages.tex"
       ns2:scale="5.0"
       ns2:alignment="middle center"
       ns2:inkscapeversion="1.0"
       ns2:jacobian_sqrt="1.76389"
       id="g8354">
      <defs
         id="id-8e822e75-ee35-490c-a7d8-bc277b4c7add">
        <g
           id="id-a19592e2-19c8-4596-a5e6-6f77143b39d6">
          <symbol
             id="id-fbf997ae-3f56-461d-980a-2e19c9661152"
             overflow="visible">
            <path
               id="id-366da90d-8dac-4989-b41c-9f10752e0028"
               d=""
               style="stroke:none" />
          </symbol>
          <symbol
             id="id-04792e28-f518-40dc-89a8-639b604a3a0a"
             overflow="visible">
            <path
               id="id-ff3dc4c5-252c-4377-b2d8-a65b57c3a8a1"
               d="M 7.375,-6.15625 C 7.4375,-6.28125 7.484375,-6.375 8.203125,-6.375 h 0.1875 v -0.46875 c -0.375,0.015625 -0.859375,0.03125 -1.125,0.03125 -0.390625,0 -0.921875,0 -1.296875,-0.03125 V -6.375 c 0.078125,0 0.875,0 0.875,0.125 0,0.046875 -0.03125,0.09375 -0.046875,0.125 L 4.78125,-1.59375 2.65625,-6.375 h 0.9375 v -0.46875 c -0.375,0.03125 -1.328125,0.03125 -1.765625,0.03125 -0.375,0 -1.21875,0 -1.5625,-0.03125 V -6.375 h 0.90625 l 2.75,6.203125 c 0.078125,0.171875 0.125,0.25 0.40625,0.25 0.15625,0 0.28125,0 0.390625,-0.234375 z m 0,0"
               style="stroke:none" />
          </symbol>
          <symbol
             id="id-3e2b2c35-0da4-4cc0-9e76-751fb153f2de"
             overflow="visible">
            <path
               id="id-6135a8a5-8674-4321-8610-98d930054c71"
               d=""
               style="stroke:none" />
          </symbol>
          <symbol
             id="id-b6494d92-d575-4adc-81d1-7dff867f9cee"
             overflow="visible">
            <path
               id="id-68573669-c0b3-44c9-b8e8-b9ff7c00d3bf"
               d="m 5.515625,-1.609375 c 0.046875,-0.09375 0.046875,-0.125 0.046875,-0.125 0,-0.046875 -0.03125,-0.09375 -0.125,-0.09375 -0.015625,0 -0.046875,0 -0.078125,0.015625 0,0.015625 -0.015625,0.03125 -0.09375,0.203125 C 4.8125,-0.59375 4.453125,-0.25 3.3125,-0.25 H 2.125 c -0.203125,0 -0.21875,-0.015625 -0.21875,-0.078125 0,0 0,-0.03125 0.03125,-0.140625 L 2.40625,-2.328125 H 3.1875 c 0.546875,0 0.625,0.078125 0.625,0.3125 0,0.078125 -0.015625,0.203125 -0.046875,0.3125 C 3.75,-1.640625 3.75,-1.625 3.75,-1.609375 c 0,0 0,0.09375 0.125,0.09375 0.09375,0 0.09375,-0.03125 0.125,-0.15625 l 0.390625,-1.53125 c 0.015625,-0.078125 0.015625,-0.09375 0.015625,-0.09375 0,-0.078125 -0.0625,-0.109375 -0.125,-0.109375 -0.09375,0 -0.09375,0.046875 -0.140625,0.1875 C 4,-2.671875 3.796875,-2.578125 3.203125,-2.578125 H 2.46875 L 2.890625,-4.25 c 0.046875,-0.203125 0.0625,-0.234375 0.34375,-0.234375 H 4.375 c 0.921875,0 1.140625,0.1875 1.140625,0.8125 0,0.1875 -0.03125,0.390625 -0.03125,0.421875 0,0.0625 0.03125,0.125 0.125,0.125 0.109375,0 0.109375,-0.0625 0.125,-0.1875 l 0.125,-1.203125 C 5.875,-4.734375 5.828125,-4.734375 5.65625,-4.734375 H 1.828125 c -0.140625,0 -0.21875,0 -0.21875,0.15625 0,0.09375 0.0625,0.09375 0.21875,0.09375 0.109375,0 0.140625,0 0.265625,0.015625 C 2.234375,-4.453125 2.25,-4.4375 2.25,-4.375 c 0,0.046875 -0.015625,0.125 -0.03125,0.15625 L 1.3125,-0.578125 C 1.234375,-0.296875 1.234375,-0.25 0.6875,-0.25 c -0.125,0 -0.203125,0 -0.203125,0.15625 C 0.484375,0 0.5625,0 0.6875,0 H 4.625 c 0.171875,0 0.1875,0 0.234375,-0.125 z m 0,0"
               style="stroke:none" />
          </symbol>
        </g>
      </defs>
      <g
         transform="translate(-148.978,-127.921)"
         id="id-7085ee7d-8907-40dd-9f1a-88213162c38a">
        <g
           id="id-999ab92b-2f04-4651-80f7-0b59373f6da9"
           style="fill:#000000;fill-opacity:1">
          <g
             transform="translate(148.712,134.765)"
             id="g8346">
            <path
               id="id-27bd4511-7b28-4262-a22b-8d2fb59bed22"
               d="M 7.375,-6.15625 C 7.4375,-6.28125 7.484375,-6.375 8.203125,-6.375 h 0.1875 v -0.46875 c -0.375,0.015625 -0.859375,0.03125 -1.125,0.03125 -0.390625,0 -0.921875,0 -1.296875,-0.03125 V -6.375 c 0.078125,0 0.875,0 0.875,0.125 0,0.046875 -0.03125,0.09375 -0.046875,0.125 L 4.78125,-1.59375 2.65625,-6.375 h 0.9375 v -0.46875 c -0.375,0.03125 -1.328125,0.03125 -1.765625,0.03125 -0.375,0 -1.21875,0 -1.5625,-0.03125 V -6.375 h 0.90625 l 2.75,6.203125 c 0.078125,0.171875 0.125,0.25 0.40625,0.25 0.15625,0 0.28125,0 0.390625,-0.234375 z m 0,0"
               style="stroke:none" />
          </g>
        </g>
        <g
           id="id-10ada7b2-bec9-4619-b373-9991636685b1"
           style="fill:#000000;fill-opacity:1">
          <g
             transform="translate(157.374,136.259)"
             id="g8350">
            <path
               id="id-033b022d-3ab2-4882-9457-af978ab4a1cf"
               d="m 5.515625,-1.609375 c 0.046875,-0.09375 0.046875,-0.125 0.046875,-0.125 0,-0.046875 -0.03125,-0.09375 -0.125,-0.09375 -0.015625,0 -0.046875,0 -0.078125,0.015625 0,0.015625 -0.015625,0.03125 -0.09375,0.203125 C 4.8125,-0.59375 4.453125,-0.25 3.3125,-0.25 H 2.125 c -0.203125,0 -0.21875,-0.015625 -0.21875,-0.078125 0,0 0,-0.03125 0.03125,-0.140625 L 2.40625,-2.328125 H 3.1875 c 0.546875,0 0.625,0.078125 0.625,0.3125 0,0.078125 -0.015625,0.203125 -0.046875,0.3125 C 3.75,-1.640625 3.75,-1.625 3.75,-1.609375 c 0,0 0,0.09375 0.125,0.09375 0.09375,0 0.09375,-0.03125 0.125,-0.15625 l 0.390625,-1.53125 c 0.015625,-0.078125 0.015625,-0.09375 0.015625,-0.09375 0,-0.078125 -0.0625,-0.109375 -0.125,-0.109375 -0.09375,0 -0.09375,0.046875 -0.140625,0.1875 C 4,-2.671875 3.796875,-2.578125 3.203125,-2.578125 H 2.46875 L 2.890625,-4.25 c 0.046875,-0.203125 0.0625,-0.234375 0.34375,-0.234375 H 4.375 c 0.921875,0 1.140625,0.1875 1.140625,0.8125 0,0.1875 -0.03125,0.390625 -0.03125,0.421875 0,0.0625 0.03125,0.125 0.125,0.125 0.109375,0 0.109375,-0.0625 0.125,-0.1875 l 0.125,-1.203125 C 5.875,-4.734375 5.828125,-4.734375 5.65625,-4.734375 H 1.828125 c -0.140625,0 -0.21875,0 -0.21875,0.15625 0,0.09375 0.0625,0.09375 0.21875,0.09375 0.109375,0 0.140625,0 0.265625,0.015625 C 2.234375,-4.453125 2.25,-4.4375 2.25,-4.375 c 0,0.046875 -0.015625,0.125 -0.03125,0.15625 L 1.3125,-0.578125 C 1.234375,-0.296875 1.234375,-0.25 0.6875,-0.25 c -0.125,0 -0.203125,0 -0.203125,0.15625 C 0.484375,0 0.5625,0 0.6875,0 H 4.625 c 0.171875,0 0.1875,0 0.234375,-0.125 z m 0,0"
               style="stroke:none" />
          </g>
        </g>
      </g>
    </g>
    <path
       style="fill:none;stroke:#000000;stroke-width:0.5;stroke-linecap:butt;stroke-linejoin:miter;stroke-miterlimit:4;stroke-dasharray:none;stroke-opacity:1;marker-end:url(#marker8459)"
       d="M 180,5 V 34.999999"
       id="path8455" />
  </g>
</svg>
