<?xml version="1.0" encoding="UTF-8" standalone="no"?>
<svg
   xmlns:ns2="http://www.iki.fi/pav/software/textext/"
   xmlns:dc="http://purl.org/dc/elements/1.1/"
   xmlns:cc="http://creativecommons.org/ns#"
   xmlns:rdf="http://www.w3.org/1999/02/22-rdf-syntax-ns#"
   xmlns:svg="http://www.w3.org/2000/svg"
   xmlns="http://www.w3.org/2000/svg"
   xmlns:sodipodi="http://sodipodi.sourceforge.net/DTD/sodipodi-0.dtd"
   xmlns:inkscape="http://www.inkscape.org/namespaces/inkscape"
   width="405mm"
   height="280mm"
   viewBox="0 0 405 280"
   version="1.1"
   id="svg8"
   inkscape:version="1.0 (4035a4fb49, 2020-05-01)"
   sodipodi:docname="esercizio11_1_2.svg">
  <defs
     id="defs2">
    <marker
       inkscape:isstock="true"
       style="overflow:visible"
       id="marker5236"
       refX="0"
       refY="0"
       orient="auto"
       inkscape:stockid="Arrow1Mend">
      <path
         transform="matrix(-0.4,0,0,-0.4,-4,0)"
         style="fill:#000000;fill-opacity:1;fill-rule:evenodd;stroke:#000000;stroke-width:1pt;stroke-opacity:1"
         d="M 0,0 5,-5 -12.5,0 5,5 Z"
         id="path5234" />
    </marker>
    <marker
       inkscape:stockid="Arrow1Mend"
       orient="auto"
       refY="0"
       refX="0"
       id="marker5164"
       style="overflow:visible"
       inkscape:isstock="true"
       inkscape:collect="always">
      <path
         id="path5162"
         d="M 0,0 5,-5 -12.5,0 5,5 Z"
         style="fill:#000000;fill-opacity:1;fill-rule:evenodd;stroke:#000000;stroke-width:1pt;stroke-opacity:1"
         transform="matrix(-0.4,0,0,-0.4,-4,0)" />
    </marker>
    <marker
       inkscape:isstock="true"
       style="overflow:visible"
       id="marker5100"
       refX="0"
       refY="0"
       orient="auto"
       inkscape:stockid="Arrow1Mend"
       inkscape:collect="always">
      <path
         transform="matrix(-0.4,0,0,-0.4,-4,0)"
         style="fill:#000000;fill-opacity:1;fill-rule:evenodd;stroke:#000000;stroke-width:1pt;stroke-opacity:1"
         d="M 0,0 5,-5 -12.5,0 5,5 Z"
         id="path5098" />
    </marker>
    <marker
       inkscape:isstock="true"
       style="overflow:visible"
       id="marker4433"
       refX="0"
       refY="0"
       orient="auto"
       inkscape:stockid="Arrow1Mend">
      <path
         transform="matrix(-0.4,0,0,-0.4,-4,0)"
         style="fill:#000000;fill-opacity:1;fill-rule:evenodd;stroke:#000000;stroke-width:1pt;stroke-opacity:1"
         d="M 0,0 5,-5 -12.5,0 5,5 Z"
         id="path4431" />
    </marker>
    <marker
       inkscape:stockid="Arrow1Mend"
       orient="auto"
       refY="0"
       refX="0"
       id="marker1558"
       style="overflow:visible"
       inkscape:isstock="true"
       inkscape:collect="always">
      <path
         id="path1556"
         d="M 0,0 5,-5 -12.5,0 5,5 Z"
         style="fill:#000000;fill-opacity:1;fill-rule:evenodd;stroke:#000000;stroke-width:1pt;stroke-opacity:1"
         transform="matrix(-0.4,0,0,-0.4,-4,0)" />
    </marker>
    <marker
       inkscape:isstock="true"
       style="overflow:visible"
       id="marker1193"
       refX="0"
       refY="0"
       orient="auto"
       inkscape:stockid="Arrow1Mend"
       inkscape:collect="always">
      <path
         transform="matrix(-0.4,0,0,-0.4,-4,0)"
         style="fill:#000000;fill-opacity:1;fill-rule:evenodd;stroke:#000000;stroke-width:1pt;stroke-opacity:1"
         d="M 0,0 5,-5 -12.5,0 5,5 Z"
         id="path1191" />
    </marker>
    <marker
       inkscape:stockid="Arrow1Mend"
       orient="auto"
       refY="0"
       refX="0"
       id="Arrow1Mend"
       style="overflow:visible"
       inkscape:isstock="true"
       inkscape:collect="always">
      <path
         id="path884"
         d="M 0,0 5,-5 -12.5,0 5,5 Z"
         style="fill:#000000;fill-opacity:1;fill-rule:evenodd;stroke:#000000;stroke-width:1pt;stroke-opacity:1"
         transform="matrix(-0.4,0,0,-0.4,-4,0)" />
    </marker>
  </defs>
  <sodipodi:namedview
     id="base"
     pagecolor="#ffffff"
     bordercolor="#666666"
     borderopacity="1.0"
     inkscape:pageopacity="0.0"
     inkscape:pageshadow="2"
     inkscape:zoom="0.35"
     inkscape:cx="579.51547"
     inkscape:cy="485.64887"
     inkscape:document-units="mm"
     inkscape:current-layer="layer1"
     inkscape:document-rotation="0"
     showgrid="true"
     inkscape:window-width="1366"
     inkscape:window-height="738"
     inkscape:window-x="0"
     inkscape:window-y="0"
     inkscape:window-maximized="0">
    <inkscape:grid
       type="xygrid"
       id="grid10" />
  </sodipodi:namedview>
  <metadata
     id="metadata5">
    <rdf:RDF>
      <cc:Work
         rdf:about="">
        <dc:format>image/svg+xml</dc:format>
        <dc:type
           rdf:resource="http://purl.org/dc/dcmitype/StillImage" />
        <dc:title></dc:title>
      </cc:Work>
    </rdf:RDF>
  </metadata>
  <g
     inkscape:label="Livello 1"
     inkscape:groupmode="layer"
     id="layer1">
    <path
       style="fill:none;stroke:#000000;stroke-width:0.264583;stroke-linecap:butt;stroke-linejoin:miter;stroke-miterlimit:4;stroke-dasharray:1.05833, 0.264583;stroke-dashoffset:0;stroke-opacity:1"
       d="M 44.999998,274.99999 V 5"
       id="path867" />
    <path
       id="path869"
       d="M 365,275 V 5.00001"
       style="fill:none;stroke:#000000;stroke-width:0.264583;stroke-linecap:butt;stroke-linejoin:miter;stroke-miterlimit:4;stroke-dasharray:1.05833, 0.264583;stroke-dashoffset:0;stroke-opacity:1" />
    <path
       style="opacity:0.139942;fill:#000000;fill-opacity:1;stroke:#000000;stroke-width:0.5;stroke-linecap:butt;stroke-linejoin:miter;stroke-miterlimit:4;stroke-dasharray:none;stroke-opacity:1"
       d="M 44.999998,34.999999 V 5 H 365 V 34.999999 H 44.999998"
       id="path871" />
    <path
       style="fill:none;stroke:#000000;stroke-width:0.5;stroke-linecap:butt;stroke-linejoin:miter;stroke-miterlimit:4;stroke-dasharray:none;stroke-opacity:1;marker-end:url(#Arrow1Mend)"
       d="M 44.999998,5 V 34.999999"
       id="path873" />
    <path
       id="path1151"
       d="M 365,5 V 34.999999"
       style="fill:none;stroke:#000000;stroke-width:0.5;stroke-linecap:butt;stroke-linejoin:miter;stroke-miterlimit:4;stroke-dasharray:none;stroke-opacity:1;marker-end:url(#marker1193)" />
    <path
       style="fill:none;stroke:#000000;stroke-width:0.264583px;stroke-linecap:butt;stroke-linejoin:miter;stroke-opacity:1"
       d="M 44.999998,5 H 365"
       id="path1217" />
    <path
       style="fill:none;stroke:#000000;stroke-width:0.264583px;stroke-linecap:butt;stroke-linejoin:miter;stroke-opacity:1"
       d="M 44.999998,34.999999 H 365"
       id="path1219" />
    <path
       style="fill:none;stroke:#000000;stroke-width:0.264583;stroke-linecap:butt;stroke-linejoin:miter;stroke-miterlimit:4;stroke-dasharray:1.05833, 0.264583;stroke-dashoffset:0;stroke-opacity:1"
       d="M 365,155 H 45"
       id="path1221"
       sodipodi:nodetypes="cc" />
    <path
       sodipodi:nodetypes="cc"
       id="path1223"
       d="M 205,235 V 0"
       style="fill:none;stroke:#000000;stroke-width:0.264583;stroke-linecap:butt;stroke-linejoin:miter;stroke-miterlimit:4;stroke-dasharray:1.05833, 0.264583;stroke-dashoffset:0;stroke-opacity:1" />
    <path
       style="opacity:1;fill:none;fill-opacity:1;stroke:#000000;stroke-width:1;stroke-linecap:round;stroke-linejoin:bevel;stroke-miterlimit:4;stroke-dasharray:none;stroke-dashoffset:0"
       id="path1225"
       sodipodi:type="arc"
       sodipodi:cx="204.99998"
       sodipodi:cy="235"
       sodipodi:rx="160"
       sodipodi:ry="160"
       sodipodi:start="3.1416069"
       sodipodi:end="4.4963924e-05"
       sodipodi:arc-type="arc"
       d="M 44.999985,234.99772 A 160,160 0 0 1 125.00338,96.433977 160,160 0 0 1 285.0048,96.438713 160,160 0 0 1 364.99998,235.00719"
       sodipodi:open="true" />
    <path
       sodipodi:nodetypes="cc"
       id="path1227"
       d="M 365,235 H 5"
       style="fill:none;stroke:#000000;stroke-width:0.264583;stroke-linecap:butt;stroke-linejoin:miter;stroke-miterlimit:4;stroke-dasharray:1.05833, 0.264583;stroke-dashoffset:0;stroke-opacity:1" />
    <path
       style="fill:none;stroke:#000000;stroke-width:1;stroke-linecap:butt;stroke-linejoin:miter;stroke-miterlimit:4;stroke-dasharray:none;stroke-opacity:1"
       d="M 66.999999,155 H 343"
       id="path1229" />
    <circle
       style="opacity:1;fill:#ffffff;fill-opacity:1;stroke:#000000;stroke-width:0.3;stroke-linecap:round;stroke-linejoin:bevel;stroke-miterlimit:4;stroke-dasharray:none;stroke-dashoffset:0"
       id="path1231"
       cx="69.715988"
       cy="154.99417"
       r="2.7" />
    <circle
       r="2.7"
       cy="155.00124"
       cx="340.36551"
       id="circle1233"
       style="opacity:1;fill:#ffffff;fill-opacity:1;stroke:#000000;stroke-width:0.3;stroke-linecap:round;stroke-linejoin:bevel;stroke-miterlimit:4;stroke-dasharray:none;stroke-dashoffset:0" />
    <path
       sodipodi:nodetypes="cc"
       id="path1253"
       d="M 365,75 H 45"
       style="fill:none;stroke:#000000;stroke-width:0.264583;stroke-linecap:butt;stroke-linejoin:miter;stroke-miterlimit:4;stroke-dasharray:1.05833, 0.264583;stroke-dashoffset:0;stroke-opacity:1" />
    <circle
       style="opacity:1;fill:#ffffff;fill-opacity:1;stroke:#000000;stroke-width:0.3;stroke-linecap:round;stroke-linejoin:bevel;stroke-miterlimit:4;stroke-dasharray:none;stroke-dashoffset:0"
       id="path1235"
       cx="204.99998"
       cy="75"
       r="5" />
    <path
       style="fill:none;stroke:#000000;stroke-width:0.9;stroke-linecap:butt;stroke-linejoin:miter;stroke-miterlimit:4;stroke-dasharray:none;stroke-opacity:1;marker-end:url(#marker1558)"
       d="M 380,155 H 350"
       id="path1554" />
    <g
       id="g2709"
       ns2:jacobian_sqrt="1.76389"
       ns2:inkscapeversion="1.0"
       ns2:alignment="middle center"
       ns2:scale="5.0"
       ns2:preamble="C:\\Users\\claum\\AppData\\Roaming\\inkscape\\extensions\\textext\\default_packages.tex"
       ns2:text="$\\mathbf{B}$"
       ns2:pdfconverter="inkscape"
       ns2:texconverter="pdflatex"
       ns2:version="1.0.1"
       transform="matrix(1.76389,0,0,1.76389,371.00066,222.75476)">
      <defs
         id="id-a3e78da8-2b52-472f-a2fd-b69351dcd8e5">
        <g
           id="id-1b1a3456-4699-41cb-adb8-6cad506704f4">
          <symbol
             overflow="visible"
             id="id-a5c01616-c803-4ad3-b573-ba352aac3a1a">
            <path
               style="stroke:none"
               d=""
               id="id-e0d04779-add0-4c4f-a7af-4c6aa9d37232" />
          </symbol>
          <symbol
             overflow="visible"
             id="id-75c8438f-0e8f-41ad-8ef1-13435095e8e2">
            <path
               style="stroke:none"
               d="M 2.765625,-3.734375 V -6.375 h 1.8125 c 1.015625,0 1.1875,0.796875 1.1875,1.25 0,0.765625 -0.46875,1.390625 -1.4375,1.390625 z M 5.46875,-3.5625 C 6.546875,-3.765625 7.1875,-4.359375 7.1875,-5.125 c 0,-0.921875 -0.875,-1.71875 -2.46875,-1.71875 H 0.390625 V -6.375 H 1.46875 v 5.90625 H 0.390625 V 0 h 4.625 C 6.671875,0 7.5,-0.875 7.5,-1.859375 7.5,-2.8125 6.65625,-3.484375 5.46875,-3.5625 Z M 4.609375,-0.46875 H 2.765625 V -3.375 h 1.9375 c 0.203125,0 0.671875,0 1.015625,0.421875 0.328125,0.421875 0.328125,0.984375 0.328125,1.09375 0,0.109375 0,1.390625 -1.4375,1.390625 z m 0,0"
               id="id-b6ebf11e-af4a-4b1a-b310-056da2e23916" />
          </symbol>
        </g>
      </defs>
      <g
         id="id-8f0af36f-cc87-4ce3-b785-7ee66d4375c9"
         transform="translate(-149.103,-127.921)">
        <g
           style="fill:#000000;fill-opacity:1"
           id="id-b80c1a5e-4ee8-466e-9273-64e0f50df43f">
          <g
             id="g2705"
             transform="translate(148.712,134.765)">
            <path
               style="stroke:none"
               d="M 2.765625,-3.734375 V -6.375 h 1.8125 c 1.015625,0 1.1875,0.796875 1.1875,1.25 0,0.765625 -0.46875,1.390625 -1.4375,1.390625 z M 5.46875,-3.5625 C 6.546875,-3.765625 7.1875,-4.359375 7.1875,-5.125 c 0,-0.921875 -0.875,-1.71875 -2.46875,-1.71875 H 0.390625 V -6.375 H 1.46875 v 5.90625 H 0.390625 V 0 h 4.625 C 6.671875,0 7.5,-0.875 7.5,-1.859375 7.5,-2.8125 6.65625,-3.484375 5.46875,-3.5625 Z M 4.609375,-0.46875 H 2.765625 V -3.375 h 1.9375 c 0.203125,0 0.671875,0 1.015625,0.421875 0.328125,0.421875 0.328125,0.984375 0.328125,1.09375 0,0.109375 0,1.390625 -1.4375,1.390625 z m 0,0"
               id="id-dcb121a3-8b96-4097-9465-a4e5040bbf2d" />
          </g>
        </g>
      </g>
    </g>
    <g
       id="g3021"
       ns2:jacobian_sqrt="1.76389"
       ns2:inkscapeversion="1.0"
       ns2:alignment="middle center"
       ns2:scale="5.0"
       ns2:preamble="C:\\Users\\claum\\AppData\\Roaming\\inkscape\\extensions\\textext\\default_packages.tex"
       ns2:text="$\\mathbf{D}$"
       ns2:pdfconverter="inkscape"
       ns2:texconverter="pdflatex"
       ns2:version="1.0.1"
       transform="matrix(1.76389,0,0,1.76389,343.435,139.928)">
      <defs
         id="id-cf87cf86-a47e-46d7-b729-b16bb1ba7b05">
        <g
           id="id-439773c4-53b3-4f1e-8418-9165ad1ae7e7">
          <symbol
             overflow="visible"
             id="id-aa333aa8-b41b-4547-a2f7-61b6f9214287">
            <path
               style="stroke:none"
               d=""
               id="id-5e11649c-9015-4b46-87cd-3a5285e29b47" />
          </symbol>
          <symbol
             overflow="visible"
             id="id-39443743-7eb6-4e2b-a896-9e968fca642d">
            <path
               style="stroke:none"
               d="m 1.46875,-6.375 v 5.90625 H 0.390625 V 0 H 4.6875 c 1.96875,0 3.453125,-1.21875 3.453125,-3.359375 0,-2.1875 -1.484375,-3.484375 -3.46875,-3.484375 H 0.390625 V -6.375 Z m 1.359375,5.90625 V -6.375 H 4.28125 c 0.65625,0 1.484375,0.1875 1.96875,0.890625 0.34375,0.515625 0.421875,1.1875 0.421875,2.109375 0,1.09375 -0.109375,1.625 -0.4375,2.0625 -0.46875,0.6875 -1.34375,0.84375 -1.953125,0.84375 z m 0,0"
               id="id-284a4320-a593-411a-be8a-39a0d19929f8" />
          </symbol>
        </g>
      </defs>
      <g
         id="id-4f6f430f-a978-4151-aa8e-78e630e23005"
         transform="translate(-149.103,-127.921)">
        <g
           style="fill:#000000;fill-opacity:1"
           id="id-08eb474e-33ad-43af-afbb-933217a7afaf">
          <g
             id="g3017"
             transform="translate(148.712,134.765)">
            <path
               style="stroke:none"
               d="m 1.46875,-6.375 v 5.90625 H 0.390625 V 0 H 4.6875 c 1.96875,0 3.453125,-1.21875 3.453125,-3.359375 0,-2.1875 -1.484375,-3.484375 -3.46875,-3.484375 H 0.390625 V -6.375 Z m 1.359375,5.90625 V -6.375 H 4.28125 c 0.65625,0 1.484375,0.1875 1.96875,0.890625 0.34375,0.515625 0.421875,1.1875 0.421875,2.109375 0,1.09375 -0.109375,1.625 -0.4375,2.0625 -0.46875,0.6875 -1.34375,0.84375 -1.953125,0.84375 z m 0,0"
               id="id-923ea48c-52a3-45d0-8cd0-527325dc2490" />
          </g>
        </g>
      </g>
    </g>
    <g
       id="g3344"
       ns2:jacobian_sqrt="1.76389"
       ns2:inkscapeversion="1.0"
       ns2:alignment="middle center"
       ns2:scale="5.0"
       ns2:preamble="C:\\Users\\claum\\AppData\\Roaming\\inkscape\\extensions\\textext\\default_packages.tex"
       ns2:text="$\\mathbf{E}$"
       ns2:pdfconverter="inkscape"
       ns2:texconverter="pdflatex"
       ns2:version="1.0.1"
       transform="matrix(1.76389,0,0,1.76389,210.827,79.0552)">
      <defs
         id="id-174397d5-4c68-4f90-bc7a-014e344acddf">
        <g
           id="id-f94181d0-6e1c-4392-a142-cbdf21307748">
          <symbol
             overflow="visible"
             id="id-98dc4a8c-841b-46c3-a0b3-422fccaa4a43">
            <path
               style="stroke:none"
               d=""
               id="id-fbdf4372-e21c-4360-9b83-87d6dddc0a07" />
          </symbol>
          <symbol
             overflow="visible"
             id="id-5379a191-eafa-4cdb-b707-ab07a101aae0">
            <path
               style="stroke:none"
               d="m 7.203125,-2.734375 h -0.46875 c -0.21875,1.375 -0.5,2.265625 -2.34375,2.265625 H 2.875 v -2.8125 h 0.546875 c 0.96875,0 1.0625,0.4375 1.0625,1.171875 h 0.46875 v -2.8125 h -0.46875 c 0,0.75 -0.09375,1.171875 -1.0625,1.171875 H 2.875 v -2.5625 h 1.515625 c 1.609375,0 1.875,0.734375 2.03125,1.9375 h 0.46875 l -0.3125,-2.40625 h -6.1875 V -6.3125 H 1.46875 v 5.84375 H 0.390625 V 0 H 6.75 Z m 0,0"
               id="id-d9e24505-c472-44e6-ae8d-4b150f2b422d" />
          </symbol>
        </g>
      </defs>
      <g
         id="id-1546ddf7-c65d-4c2f-9702-d65642377127"
         transform="translate(-149.103,-127.984)">
        <g
           style="fill:#000000;fill-opacity:1"
           id="id-298364e7-65f8-4a32-8c7f-ea1d0b9bd0b6">
          <g
             id="g3340"
             transform="translate(148.712,134.765)">
            <path
               style="stroke:none"
               d="m 7.203125,-2.734375 h -0.46875 c -0.21875,1.375 -0.5,2.265625 -2.34375,2.265625 H 2.875 v -2.8125 h 0.546875 c 0.96875,0 1.0625,0.4375 1.0625,1.171875 h 0.46875 v -2.8125 h -0.46875 c 0,0.75 -0.09375,1.171875 -1.0625,1.171875 H 2.875 v -2.5625 h 1.515625 c 1.609375,0 1.875,0.734375 2.03125,1.9375 h 0.46875 l -0.3125,-2.40625 h -6.1875 V -6.3125 H 1.46875 v 5.84375 H 0.390625 V 0 H 6.75 Z m 0,0"
               id="id-ba19fedf-e496-4eeb-a2f7-72cb0bbcaae1" />
          </g>
        </g>
      </g>
    </g>
    <g
       id="g3678"
       ns2:jacobian_sqrt="1.76389"
       ns2:inkscapeversion="1.0"
       ns2:alignment="middle center"
       ns2:scale="5.0"
       ns2:preamble="C:\\Users\\claum\\AppData\\Roaming\\inkscape\\extensions\\textext\\default_packages.tex"
       ns2:text="$\\mathbf{C}$"
       ns2:pdfconverter="inkscape"
       ns2:texconverter="pdflatex"
       ns2:version="1.0.1"
       transform="matrix(1.76389,0,0,1.76389,53.6174,140.791)">
      <defs
         id="id-3bdfc074-80c9-443b-8077-b9ed903c7b12">
        <g
           id="id-7f26f8df-a4b9-4af3-8951-9f09255a76eb">
          <symbol
             overflow="visible"
             id="id-0454d733-d45b-48e9-9955-7becd802b0a1">
            <path
               style="stroke:none"
               d=""
               id="id-8d1c625b-098f-43a4-9779-5f5a8d57dfad" />
          </symbol>
          <symbol
             overflow="visible"
             id="id-b57c008b-259d-48e8-aab1-da5f489641d3">
            <path
               style="stroke:none"
               d="m 7.640625,-6.671875 c 0,-0.1875 0,-0.28125 -0.1875,-0.28125 -0.09375,0 -0.109375,0.03125 -0.1875,0.09375 l -0.65625,0.59375 c -0.625,-0.5 -1.28125,-0.6875 -1.96875,-0.6875 -2.484375,0 -4,1.484375 -4,3.53125 0,2.046875 1.515625,3.53125 4,3.53125 1.875,0 3,-1.21875 3,-2.375 0,-0.203125 -0.078125,-0.203125 -0.25,-0.203125 -0.125,0 -0.21875,0 -0.21875,0.171875 -0.078125,1.328125 -1.28125,1.9375 -2.28125,1.9375 -0.78125,0 -1.625,-0.234375 -2.140625,-0.84375 -0.46875,-0.578125 -0.59375,-1.3125 -0.59375,-2.21875 0,-0.5625 0.03125,-1.625 0.671875,-2.296875 0.640625,-0.65625 1.515625,-0.765625 2.03125,-0.765625 1.078125,0 2.015625,0.765625 2.234375,2.03125 C 7.125,-4.265625 7.140625,-4.25 7.359375,-4.25 c 0.265625,0 0.28125,-0.015625 0.28125,-0.28125 z m 0,0"
               id="id-88dd70f8-0918-4d00-93f9-dcc19e43121b" />
          </symbol>
        </g>
      </defs>
      <g
         id="id-d2335517-07ce-494f-8bb0-61bcff937fe2"
         transform="translate(-149.353,-127.812)">
        <g
           style="fill:#000000;fill-opacity:1"
           id="id-c933ae34-6a15-4bc1-b059-bf50c45fc00c">
          <g
             id="g3674"
             transform="translate(148.712,134.765)">
            <path
               style="stroke:none"
               d="m 7.640625,-6.671875 c 0,-0.1875 0,-0.28125 -0.1875,-0.28125 -0.09375,0 -0.109375,0.03125 -0.1875,0.09375 l -0.65625,0.59375 c -0.625,-0.5 -1.28125,-0.6875 -1.96875,-0.6875 -2.484375,0 -4,1.484375 -4,3.53125 0,2.046875 1.515625,3.53125 4,3.53125 1.875,0 3,-1.21875 3,-2.375 0,-0.203125 -0.078125,-0.203125 -0.25,-0.203125 -0.125,0 -0.21875,0 -0.21875,0.171875 -0.078125,1.328125 -1.28125,1.9375 -2.28125,1.9375 -0.78125,0 -1.625,-0.234375 -2.140625,-0.84375 -0.46875,-0.578125 -0.59375,-1.3125 -0.59375,-2.21875 0,-0.5625 0.03125,-1.625 0.671875,-2.296875 0.640625,-0.65625 1.515625,-0.765625 2.03125,-0.765625 1.078125,0 2.015625,0.765625 2.234375,2.03125 C 7.125,-4.265625 7.140625,-4.25 7.359375,-4.25 c 0.265625,0 0.28125,-0.015625 0.28125,-0.28125 z m 0,0"
               id="id-f39596f6-0c37-4fcc-a61d-1c4f8ec8b5ed" />
          </g>
        </g>
      </g>
    </g>
    <g
       id="g4023"
       ns2:jacobian_sqrt="1.76389"
       ns2:inkscapeversion="1.0"
       ns2:alignment="middle center"
       ns2:scale="5.0"
       ns2:preamble="C:\\Users\\claum\\AppData\\Roaming\\inkscape\\extensions\\textext\\default_packages.tex"
       ns2:text="$\\mathbf{A}$"
       ns2:pdfconverter="inkscape"
       ns2:texconverter="pdflatex"
       ns2:version="1.0.1"
       transform="matrix(1.76389,0,0,1.76389,27.872815,217.5625)">
      <defs
         id="id-27c8f50d-294a-4426-b323-f99190138730">
        <g
           id="id-3b011331-4de1-48ca-94de-717243873486">
          <symbol
             overflow="visible"
             id="id-c2373372-91ee-40f0-86ce-cfd208698dbf">
            <path
               style="stroke:none"
               d=""
               id="id-4f206596-07fa-47ef-8f43-255ccf81b15f" />
          </symbol>
          <symbol
             overflow="visible"
             id="id-a0b1eea8-d3fc-4641-9481-c497c7c68695">
            <path
               style="stroke:none"
               d="m 4.71875,-6.703125 c -0.109375,-0.25 -0.21875,-0.25 -0.390625,-0.25 -0.28125,0 -0.328125,0.078125 -0.390625,0.25 l -2.46875,6 C 1.40625,-0.546875 1.375,-0.46875 0.625,-0.46875 H 0.40625 V 0 c 0.375,-0.015625 0.859375,-0.03125 1.171875,-0.03125 0.390625,0 0.9375,0 1.3125,0.03125 V -0.46875 C 2.875,-0.46875 2,-0.46875 2,-0.59375 c 0,-0.015625 0.03125,-0.109375 0.046875,-0.125 l 0.5,-1.203125 H 5.21875 L 5.8125,-0.46875 H 4.859375 V 0 C 5.25,-0.03125 6.1875,-0.03125 6.625,-0.03125 c 0.390625,0 1.265625,0 1.625,0.03125 V -0.46875 H 7.28125 Z M 3.875,-5.15625 5.015625,-2.390625 h -2.28125 z m 0,0"
               id="id-a051ccc8-c405-4928-b884-5f1213566fd3" />
          </symbol>
        </g>
      </defs>
      <g
         id="id-c2dfbfff-510a-40cf-bf1b-9b08a1b6722e"
         transform="translate(-149.118,-127.812)">
        <g
           style="fill:#000000;fill-opacity:1"
           id="id-63c781ab-8dfb-4731-b57f-ad7c296cdcc6">
          <g
             id="g4019"
             transform="translate(148.712,134.765)">
            <path
               style="stroke:none"
               d="m 4.71875,-6.703125 c -0.109375,-0.25 -0.21875,-0.25 -0.390625,-0.25 -0.28125,0 -0.328125,0.078125 -0.390625,0.25 l -2.46875,6 C 1.40625,-0.546875 1.375,-0.46875 0.625,-0.46875 H 0.40625 V 0 c 0.375,-0.015625 0.859375,-0.03125 1.171875,-0.03125 0.390625,0 0.9375,0 1.3125,0.03125 V -0.46875 C 2.875,-0.46875 2,-0.46875 2,-0.59375 c 0,-0.015625 0.03125,-0.109375 0.046875,-0.125 l 0.5,-1.203125 H 5.21875 L 5.8125,-0.46875 H 4.859375 V 0 C 5.25,-0.03125 6.1875,-0.03125 6.625,-0.03125 c 0.390625,0 1.265625,0 1.625,0.03125 V -0.46875 H 7.28125 Z M 3.875,-5.15625 5.015625,-2.390625 h -2.28125 z m 0,0"
               id="id-e9b29842-68eb-439d-838c-1685bd4f9163" />
          </g>
        </g>
      </g>
    </g>
    <g
       id="g4385"
       ns2:jacobian_sqrt="1.41111"
       ns2:inkscapeversion="1.0"
       ns2:alignment="middle center"
       ns2:scale="4.0"
       ns2:preamble="C:\\Users\\claum\\AppData\\Roaming\\inkscape\\extensions\\textext\\default_packages.tex"
       ns2:text="\\textsc{pendolo}"
       ns2:pdfconverter="inkscape"
       ns2:texconverter="pdflatex"
       ns2:version="1.0.1"
       transform="matrix(1.41111,0,0,1.41111,207.01545,156.85294)">
      <defs
         id="id-bf8f704a-04ae-4f1a-8b15-cdafc607f3e4">
        <g
           id="id-ad9e386b-7320-4b84-9bf8-f9515d28b82c">
          <symbol
             overflow="visible"
             id="id-fb8f3a8e-731e-4b02-a7be-6f6e83bcb4bd">
            <path
               style="stroke:none"
               d=""
               id="id-04281a22-856e-4a0d-92c9-d7ab551664ff" />
          </symbol>
          <symbol
             overflow="visible"
             id="id-3419b01b-af1c-40b7-9eda-53d089ceb34e">
            <path
               style="stroke:none"
               d="m 3.21875,-2.328125 c 1,0 1.828125,-0.625 1.828125,-1.390625 0,-0.71875 -0.75,-1.40625 -1.890625,-1.40625 H 0.453125 v 0.25 c 0.65625,0 0.71875,0.0625 0.71875,0.46875 v 3.6875 c 0,0.40625 -0.0625,0.46875 -0.71875,0.46875 V 0 C 0.734375,-0.015625 1.3125,-0.03125 1.53125,-0.03125 1.75,-0.03125 2.296875,-0.015625 2.609375,0 v -0.25 c -0.671875,0 -0.71875,-0.0625 -0.71875,-0.46875 v -1.609375 z m -1.359375,-2.125 C 1.859375,-4.84375 1.90625,-4.875 2.25,-4.875 h 0.6875 c 1.265625,0 1.265625,0.765625 1.265625,1.15625 0,0.390625 0,1.15625 -1.265625,1.15625 H 1.859375 Z m 0,0"
               id="id-e2f6b496-1869-4249-8362-e7154cbf3b9e" />
          </symbol>
          <symbol
             overflow="visible"
             id="id-3a3d7e0c-7bb1-4d1c-8e92-75e02961ad52">
            <path
               style="stroke:none"
               d="m 4.859375,-5.09375 h -4.4375 v 0.25 c 0.671875,0 0.71875,0.0625 0.71875,0.46875 v 3.65625 c 0,0.40625 -0.046875,0.46875 -0.71875,0.46875 V 0 h 4.5625 L 5.28125,-1.9375 h -0.25 C 4.859375,-0.734375 4.609375,-0.25 3.34375,-0.25 H 2.265625 c -0.359375,0 -0.40625,-0.03125 -0.40625,-0.421875 v -1.84375 H 2.5625 c 0.734375,0 0.859375,0.1875 0.859375,0.859375 h 0.25 v -1.984375 h -0.25 c 0,0.671875 -0.125,0.875 -0.859375,0.875 H 1.859375 v -1.65625 c 0,-0.390625 0.046875,-0.421875 0.40625,-0.421875 H 3.28125 c 1.15625,0 1.40625,0.34375 1.53125,1.4375 h 0.234375 z m 0,0"
               id="id-84329ae5-a647-4c6d-a072-6263e5133bd8" />
          </symbol>
          <symbol
             overflow="visible"
             id="id-d6babf67-52cb-4346-9acd-65962ac7ea5d">
            <path
               style="stroke:none"
               d="M 1.921875,-5 C 1.828125,-5.125 1.8125,-5.125 1.625,-5.125 H 0.421875 v 0.25 c 0.25,0 0.53125,0 0.71875,0.0625 V -1 c 0,0.21875 0,0.75 -0.71875,0.75 V 0 c 0.21875,-0.015625 0.671875,-0.03125 0.859375,-0.03125 0.15625,0 0.609375,0.015625 0.859375,0.03125 v -0.25 c -0.71875,0 -0.71875,-0.53125 -0.71875,-0.75 v -3.578125 l 0.109375,0.125 3.125,4.34375 C 4.734375,0 4.765625,0 4.828125,0 4.96875,0 4.96875,-0.0625 4.96875,-0.265625 v -3.84375 c 0,-0.234375 0,-0.765625 0.71875,-0.765625 v -0.25 c -0.21875,0.015625 -0.65625,0.03125 -0.859375,0.03125 -0.15625,0 -0.609375,-0.015625 -0.859375,-0.03125 v 0.25 c 0.71875,0 0.71875,0.53125 0.71875,0.765625 v 2.953125 z m 0,0"
               id="id-461f8f37-af99-4052-892f-d1b9fdba87e9" />
          </symbol>
          <symbol
             overflow="visible"
             id="id-a7579bdb-0647-410a-af57-5ae8be323448">
            <path
               style="stroke:none"
               d="m 1.171875,-0.71875 c 0,0.40625 -0.0625,0.46875 -0.71875,0.46875 V 0 H 3.25 C 4.65625,0 5.71875,-1.15625 5.71875,-2.515625 5.71875,-3.890625 4.6875,-5.125 3.25,-5.125 H 0.453125 v 0.25 c 0.65625,0 0.71875,0.0625 0.71875,0.46875 z M 2.25,-0.25 c -0.34375,0 -0.390625,-0.03125 -0.390625,-0.421875 v -3.78125 C 1.859375,-4.84375 1.90625,-4.875 2.25,-4.875 h 0.765625 c 0.859375,0 1.296875,0.46875 1.4375,0.640625 0.21875,0.28125 0.4375,0.703125 0.4375,1.71875 0,0.8125 -0.15625,1.234375 -0.359375,1.546875 C 4.359375,-0.75 3.9375,-0.25 3.015625,-0.25 Z m 0,0"
               id="id-d8a64582-a490-40d4-85d5-9216b3ee4fe9" />
          </symbol>
          <symbol
             overflow="visible"
             id="id-c0a98db3-a614-469e-93ad-3797159dcecb">
            <path
               style="stroke:none"
               d="m 5.828125,-2.546875 c 0,-1.484375 -1.1875,-2.71875 -2.65625,-2.71875 -1.484375,0 -2.65625,1.234375 -2.65625,2.71875 0,1.515625 1.203125,2.6875 2.65625,2.6875 1.453125,0 2.65625,-1.171875 2.65625,-2.6875 z M 3.171875,-0.125 c -0.703125,0 -1.8125,-0.5625 -1.8125,-2.53125 0,-1.875 1.140625,-2.359375 1.8125,-2.359375 0.671875,0 1.796875,0.5 1.796875,2.359375 0,1.96875 -1.09375,2.53125 -1.796875,2.53125 z m 0,0"
               id="id-0ac9ab69-28ab-4d1a-9ef0-8241836479d0" />
          </symbol>
          <symbol
             overflow="visible"
             id="id-fd1ba6f4-a2c2-406f-b0fd-4dfb8ec51013">
            <path
               style="stroke:none"
               d="m 4.71875,-1.9375 h -0.25 C 4.390625,-1.140625 4.28125,-0.25 2.890625,-0.25 h -0.625 c -0.359375,0 -0.40625,-0.03125 -0.40625,-0.421875 V -4.375 c 0,-0.5 0.15625,-0.5 0.90625,-0.5 v -0.25 c -0.296875,0.015625 -0.9375,0.03125 -1.234375,0.03125 -0.25,0 -0.75,-0.015625 -1.109375,-0.03125 v 0.25 c 0.671875,0 0.71875,0.0625 0.71875,0.46875 v 3.6875 c 0,0.40625 -0.046875,0.46875 -0.71875,0.46875 V 0 H 4.53125 Z m 0,0"
               id="id-33e196bf-1763-46a6-9b83-72f8bba24277" />
          </symbol>
        </g>
      </defs>
      <g
         id="id-01563dbc-c7d4-447b-9894-29c4ba96f2d8"
         transform="translate(-149.165,-129.499)">
        <g
           style="fill:#000000;fill-opacity:1"
           id="id-1dd03cc8-0db5-4912-ba90-75232e1f9e4a">
          <g
             id="g4363"
             transform="translate(148.712,134.765)">
            <path
               style="stroke:none"
               d="m 3.21875,-2.328125 c 1,0 1.828125,-0.625 1.828125,-1.390625 0,-0.71875 -0.75,-1.40625 -1.890625,-1.40625 H 0.453125 v 0.25 c 0.65625,0 0.71875,0.0625 0.71875,0.46875 v 3.6875 c 0,0.40625 -0.0625,0.46875 -0.71875,0.46875 V 0 C 0.734375,-0.015625 1.3125,-0.03125 1.53125,-0.03125 1.75,-0.03125 2.296875,-0.015625 2.609375,0 v -0.25 c -0.671875,0 -0.71875,-0.0625 -0.71875,-0.46875 v -1.609375 z m -1.359375,-2.125 C 1.859375,-4.84375 1.90625,-4.875 2.25,-4.875 h 0.6875 c 1.265625,0 1.265625,0.765625 1.265625,1.15625 0,0.390625 0,1.15625 -1.265625,1.15625 H 1.859375 Z m 0,0"
               id="id-5e1ab5a6-0dc9-405c-b8b4-2e30690bfbbf" />
          </g>
          <g
             id="g4366"
             transform="translate(154.269,134.765)">
            <path
               style="stroke:none"
               d="m 4.859375,-5.09375 h -4.4375 v 0.25 c 0.671875,0 0.71875,0.0625 0.71875,0.46875 v 3.65625 c 0,0.40625 -0.046875,0.46875 -0.71875,0.46875 V 0 h 4.5625 L 5.28125,-1.9375 h -0.25 C 4.859375,-0.734375 4.609375,-0.25 3.34375,-0.25 H 2.265625 c -0.359375,0 -0.40625,-0.03125 -0.40625,-0.421875 v -1.84375 H 2.5625 c 0.734375,0 0.859375,0.1875 0.859375,0.859375 h 0.25 v -1.984375 h -0.25 c 0,0.671875 -0.125,0.875 -0.859375,0.875 H 1.859375 v -1.65625 c 0,-0.390625 0.046875,-0.421875 0.40625,-0.421875 H 3.28125 c 1.15625,0 1.40625,0.34375 1.53125,1.4375 h 0.234375 z m 0,0"
               id="id-b0f6a60d-7817-49bd-b7aa-869ec03b1eb3" />
          </g>
          <g
             id="g4369"
             transform="translate(159.826,134.765)">
            <path
               style="stroke:none"
               d="M 1.921875,-5 C 1.828125,-5.125 1.8125,-5.125 1.625,-5.125 H 0.421875 v 0.25 c 0.25,0 0.53125,0 0.71875,0.0625 V -1 c 0,0.21875 0,0.75 -0.71875,0.75 V 0 c 0.21875,-0.015625 0.671875,-0.03125 0.859375,-0.03125 0.15625,0 0.609375,0.015625 0.859375,0.03125 v -0.25 c -0.71875,0 -0.71875,-0.53125 -0.71875,-0.75 v -3.578125 l 0.109375,0.125 3.125,4.34375 C 4.734375,0 4.765625,0 4.828125,0 4.96875,0 4.96875,-0.0625 4.96875,-0.265625 v -3.84375 c 0,-0.234375 0,-0.765625 0.71875,-0.765625 v -0.25 c -0.21875,0.015625 -0.65625,0.03125 -0.859375,0.03125 -0.15625,0 -0.609375,-0.015625 -0.859375,-0.03125 v 0.25 c 0.71875,0 0.71875,0.53125 0.71875,0.765625 v 2.953125 z m 0,0"
               id="id-64641633-dd37-422c-8233-e4ce42ab806a" />
          </g>
          <g
             id="g4372"
             transform="translate(165.936,134.765)">
            <path
               style="stroke:none"
               d="m 1.171875,-0.71875 c 0,0.40625 -0.0625,0.46875 -0.71875,0.46875 V 0 H 3.25 C 4.65625,0 5.71875,-1.15625 5.71875,-2.515625 5.71875,-3.890625 4.6875,-5.125 3.25,-5.125 H 0.453125 v 0.25 c 0.65625,0 0.71875,0.0625 0.71875,0.46875 z M 2.25,-0.25 c -0.34375,0 -0.390625,-0.03125 -0.390625,-0.421875 v -3.78125 C 1.859375,-4.84375 1.90625,-4.875 2.25,-4.875 h 0.765625 c 0.859375,0 1.296875,0.46875 1.4375,0.640625 0.21875,0.28125 0.4375,0.703125 0.4375,1.71875 0,0.8125 -0.15625,1.234375 -0.359375,1.546875 C 4.359375,-0.75 3.9375,-0.25 3.015625,-0.25 Z m 0,0"
               id="id-b30e8d5c-b122-48f5-ab93-c239f1fc73c4" />
          </g>
          <g
             id="g4375"
             transform="translate(172.157,134.765)">
            <path
               style="stroke:none"
               d="m 5.828125,-2.546875 c 0,-1.484375 -1.1875,-2.71875 -2.65625,-2.71875 -1.484375,0 -2.65625,1.234375 -2.65625,2.71875 0,1.515625 1.203125,2.6875 2.65625,2.6875 1.453125,0 2.65625,-1.171875 2.65625,-2.6875 z M 3.171875,-0.125 c -0.703125,0 -1.8125,-0.5625 -1.8125,-2.53125 0,-1.875 1.140625,-2.359375 1.8125,-2.359375 0.671875,0 1.796875,0.5 1.796875,2.359375 0,1.96875 -1.09375,2.53125 -1.796875,2.53125 z m 0,0"
               id="id-7cd0cfbd-16eb-4bad-9899-8f1ba49b11df" />
          </g>
          <g
             id="g4378"
             transform="translate(178.489,134.765)">
            <path
               style="stroke:none"
               d="m 4.71875,-1.9375 h -0.25 C 4.390625,-1.140625 4.28125,-0.25 2.890625,-0.25 h -0.625 c -0.359375,0 -0.40625,-0.03125 -0.40625,-0.421875 V -4.375 c 0,-0.5 0.15625,-0.5 0.90625,-0.5 v -0.25 c -0.296875,0.015625 -0.9375,0.03125 -1.234375,0.03125 -0.25,0 -0.75,-0.015625 -1.109375,-0.03125 v 0.25 c 0.671875,0 0.71875,0.0625 0.71875,0.46875 v 3.6875 c 0,0.40625 -0.046875,0.46875 -0.71875,0.46875 V 0 H 4.53125 Z m 0,0"
               id="id-44873272-12fd-4ad1-a616-bb1cd268b9ec" />
          </g>
          <g
             id="g4381"
             transform="translate(183.603,134.765)">
            <path
               style="stroke:none"
               d="m 5.828125,-2.546875 c 0,-1.484375 -1.1875,-2.71875 -2.65625,-2.71875 -1.484375,0 -2.65625,1.234375 -2.65625,2.71875 0,1.515625 1.203125,2.6875 2.65625,2.6875 1.453125,0 2.65625,-1.171875 2.65625,-2.6875 z M 3.171875,-0.125 c -0.703125,0 -1.8125,-0.5625 -1.8125,-2.53125 0,-1.875 1.140625,-2.359375 1.8125,-2.359375 0.671875,0 1.796875,0.5 1.796875,2.359375 0,1.96875 -1.09375,2.53125 -1.796875,2.53125 z m 0,0"
               id="id-e346a3cd-8494-46da-9540-309f8dc5dfcb" />
          </g>
        </g>
      </g>
    </g>
    <path
       id="path4429"
       d="M 205,0 V 65"
       style="fill:none;stroke:#000000;stroke-width:0.9;stroke-linecap:butt;stroke-linejoin:miter;stroke-miterlimit:4;stroke-dasharray:none;stroke-opacity:1;marker-end:url(#marker4433)"
       sodipodi:nodetypes="cc" />
    <g
       id="g4766"
       ns2:jacobian_sqrt="1.76389"
       ns2:inkscapeversion="1.0"
       ns2:alignment="middle center"
       ns2:scale="5.0"
       ns2:preamble="C:\\Users\\claum\\AppData\\Roaming\\inkscape\\extensions\\textext\\default_packages.tex"
       ns2:text="$2qL$"
       ns2:pdfconverter="inkscape"
       ns2:texconverter="pdflatex"
       ns2:version="1.0.1"
       transform="matrix(1.76389,0,0,1.76389,210.50722,49.516286)">
      <defs
         id="id-35302af6-9663-45aa-9208-fae84ae2b16f">
        <g
           id="id-652c3b88-ef07-4d9e-9306-b101b5d7783c">
          <symbol
             overflow="visible"
             id="id-4d34dc4f-85a0-4f5f-81c8-0a35024fffd4">
            <path
               style="stroke:none"
               d=""
               id="id-1e39d0b3-e4cc-44e6-9ee3-040315f1a0cb" />
          </symbol>
          <symbol
             overflow="visible"
             id="id-e5b51526-82a1-4785-90bc-bf3b145deadd">
            <path
               style="stroke:none"
               d="m 1.265625,-0.765625 1.0625,-1.03125 c 1.546875,-1.375 2.140625,-1.90625 2.140625,-2.90625 0,-1.140625 -0.890625,-1.9375 -2.109375,-1.9375 -1.125,0 -1.859375,0.921875 -1.859375,1.8125 0,0.546875 0.5,0.546875 0.53125,0.546875 0.171875,0 0.515625,-0.109375 0.515625,-0.53125 0,-0.25 -0.1875,-0.515625 -0.53125,-0.515625 -0.078125,0 -0.09375,0 -0.125,0.015625 0.21875,-0.65625 0.765625,-1.015625 1.34375,-1.015625 0.90625,0 1.328125,0.8125 1.328125,1.625 C 3.5625,-3.90625 3.078125,-3.125 2.515625,-2.5 l -1.90625,2.125 C 0.5,-0.265625 0.5,-0.234375 0.5,0 H 4.203125 L 4.46875,-1.734375 H 4.234375 C 4.171875,-1.4375 4.109375,-1 4,-0.84375 3.9375,-0.765625 3.28125,-0.765625 3.0625,-0.765625 Z m 0,0"
               id="id-81e808f0-c48c-42df-882e-96d7ecaae076" />
          </symbol>
          <symbol
             overflow="visible"
             id="id-83758851-35fb-47cb-89a1-246a7a8c1935">
            <path
               style="stroke:none"
               d=""
               id="id-1afea8b3-192c-48a6-8859-94dfca487a0e" />
          </symbol>
          <symbol
             overflow="visible"
             id="id-a1f97ee1-2b91-4463-b7ce-3d45bcbce151">
            <path
               style="stroke:none"
               d="m 4.5,-4.296875 c 0,-0.046875 -0.03125,-0.09375 -0.09375,-0.09375 -0.109375,0 -0.515625,0.390625 -0.671875,0.6875 C 3.515625,-4.25 3.125,-4.40625 2.796875,-4.40625 c -1.171875,0 -2.390625,1.46875 -2.390625,2.921875 0,0.96875 0.578125,1.59375 1.3125,1.59375 0.421875,0 0.8125,-0.234375 1.171875,-0.59375 -0.09375,0.34375 -0.421875,1.6875 -0.453125,1.78125 -0.078125,0.28125 -0.15625,0.3125 -0.71875,0.328125 -0.125,0 -0.21875,0 -0.21875,0.203125 0,0 0,0.109375 0.125,0.109375 0.3125,0 0.671875,-0.03125 1,-0.03125 0.328125,0 0.6875,0.03125 1.03125,0.03125 0.046875,0 0.171875,0 0.171875,-0.203125 C 3.828125,1.625 3.734375,1.625 3.5625,1.625 3.09375,1.625 3.09375,1.5625 3.09375,1.46875 3.09375,1.390625 3.109375,1.328125 3.125,1.25 Z m -2.75,4.1875 c -0.609375,0 -0.640625,-0.765625 -0.640625,-0.9375 0,-0.484375 0.28125,-1.5625 0.453125,-1.984375 0.3125,-0.734375 0.828125,-1.15625 1.234375,-1.15625 0.65625,0 0.796875,0.8125 0.796875,0.875 0,0.0625 -0.546875,2.25 -0.578125,2.28125 C 2.859375,-0.75 2.296875,-0.109375 1.75,-0.109375 Z m 0,0"
               id="id-1e45d394-230b-4966-bb48-c0f6cf898074" />
          </symbol>
          <symbol
             overflow="visible"
             id="id-0b138c58-595c-4009-ac55-cf1fe6f07169">
            <path
               style="stroke:none"
               d="M 3.734375,-6.03125 C 3.8125,-6.390625 3.84375,-6.5 4.78125,-6.5 c 0.296875,0 0.375,0 0.375,-0.1875 0,-0.125 -0.109375,-0.125 -0.15625,-0.125 -0.328125,0 -1.140625,0.03125 -1.46875,0.03125 -0.296875,0 -1.03125,-0.03125 -1.328125,-0.03125 -0.0625,0 -0.1875,0 -0.1875,0.203125 0,0.109375 0.09375,0.109375 0.28125,0.109375 0.015625,0 0.203125,0 0.375,0.015625 0.171875,0.03125 0.265625,0.03125 0.265625,0.171875 0,0.03125 0,0.0625 -0.03125,0.1875 L 1.5625,-0.78125 c -0.09375,0.390625 -0.109375,0.46875 -0.90625,0.46875 -0.171875,0 -0.265625,0 -0.265625,0.203125 C 0.390625,0 0.484375,0 0.65625,0 h 4.625 C 5.515625,0 5.515625,0 5.578125,-0.171875 L 6.375,-2.328125 c 0.03125,-0.109375 0.03125,-0.125 0.03125,-0.140625 0,-0.03125 -0.03125,-0.109375 -0.109375,-0.109375 -0.09375,0 -0.109375,0.0625 -0.171875,0.21875 -0.34375,0.90625 -0.78125,2.046875 -2.5,2.046875 H 2.6875 c -0.140625,0 -0.171875,0 -0.21875,0 -0.109375,-0.015625 -0.140625,-0.03125 -0.140625,-0.109375 0,-0.03125 0,-0.046875 0.046875,-0.21875 z m 0,0"
               id="id-c1f799db-a437-4f38-82e9-084a83c58eff" />
          </symbol>
        </g>
      </defs>
      <g
         id="id-eae84377-6b03-46af-a3d4-2dbed7d2bdd6"
         transform="translate(-149.212,-127.953)">
        <g
           style="fill:#000000;fill-opacity:1"
           id="id-d0740058-5b1f-4637-b4e9-cb9d44755152">
          <g
             id="g4754"
             transform="translate(148.712,134.765)">
            <path
               style="stroke:none"
               d="m 1.265625,-0.765625 1.0625,-1.03125 c 1.546875,-1.375 2.140625,-1.90625 2.140625,-2.90625 0,-1.140625 -0.890625,-1.9375 -2.109375,-1.9375 -1.125,0 -1.859375,0.921875 -1.859375,1.8125 0,0.546875 0.5,0.546875 0.53125,0.546875 0.171875,0 0.515625,-0.109375 0.515625,-0.53125 0,-0.25 -0.1875,-0.515625 -0.53125,-0.515625 -0.078125,0 -0.09375,0 -0.125,0.015625 0.21875,-0.65625 0.765625,-1.015625 1.34375,-1.015625 0.90625,0 1.328125,0.8125 1.328125,1.625 C 3.5625,-3.90625 3.078125,-3.125 2.515625,-2.5 l -1.90625,2.125 C 0.5,-0.265625 0.5,-0.234375 0.5,0 H 4.203125 L 4.46875,-1.734375 H 4.234375 C 4.171875,-1.4375 4.109375,-1 4,-0.84375 3.9375,-0.765625 3.28125,-0.765625 3.0625,-0.765625 Z m 0,0"
               id="id-b4e94d75-b4f9-482f-b74d-b3ce3f8856c0" />
          </g>
        </g>
        <g
           style="fill:#000000;fill-opacity:1"
           id="id-3df69209-4be9-4145-857e-940164591c03">
          <g
             id="g4758"
             transform="translate(153.694,134.765)">
            <path
               style="stroke:none"
               d="m 4.5,-4.296875 c 0,-0.046875 -0.03125,-0.09375 -0.09375,-0.09375 -0.109375,0 -0.515625,0.390625 -0.671875,0.6875 C 3.515625,-4.25 3.125,-4.40625 2.796875,-4.40625 c -1.171875,0 -2.390625,1.46875 -2.390625,2.921875 0,0.96875 0.578125,1.59375 1.3125,1.59375 0.421875,0 0.8125,-0.234375 1.171875,-0.59375 -0.09375,0.34375 -0.421875,1.6875 -0.453125,1.78125 -0.078125,0.28125 -0.15625,0.3125 -0.71875,0.328125 -0.125,0 -0.21875,0 -0.21875,0.203125 0,0 0,0.109375 0.125,0.109375 0.3125,0 0.671875,-0.03125 1,-0.03125 0.328125,0 0.6875,0.03125 1.03125,0.03125 0.046875,0 0.171875,0 0.171875,-0.203125 C 3.828125,1.625 3.734375,1.625 3.5625,1.625 3.09375,1.625 3.09375,1.5625 3.09375,1.46875 3.09375,1.390625 3.109375,1.328125 3.125,1.25 Z m -2.75,4.1875 c -0.609375,0 -0.640625,-0.765625 -0.640625,-0.9375 0,-0.484375 0.28125,-1.5625 0.453125,-1.984375 0.3125,-0.734375 0.828125,-1.15625 1.234375,-1.15625 0.65625,0 0.796875,0.8125 0.796875,0.875 0,0.0625 -0.546875,2.25 -0.578125,2.28125 C 2.859375,-0.75 2.296875,-0.109375 1.75,-0.109375 Z m 0,0"
               id="id-c66d6afa-7e67-4993-98d7-216731ae47c4" />
          </g>
        </g>
        <g
           style="fill:#000000;fill-opacity:1"
           id="id-fe34a9cb-4321-4cd1-85c8-2380d1ce6d31">
          <g
             id="g4762"
             transform="translate(158.5,134.765)">
            <path
               style="stroke:none"
               d="M 3.734375,-6.03125 C 3.8125,-6.390625 3.84375,-6.5 4.78125,-6.5 c 0.296875,0 0.375,0 0.375,-0.1875 0,-0.125 -0.109375,-0.125 -0.15625,-0.125 -0.328125,0 -1.140625,0.03125 -1.46875,0.03125 -0.296875,0 -1.03125,-0.03125 -1.328125,-0.03125 -0.0625,0 -0.1875,0 -0.1875,0.203125 0,0.109375 0.09375,0.109375 0.28125,0.109375 0.015625,0 0.203125,0 0.375,0.015625 0.171875,0.03125 0.265625,0.03125 0.265625,0.171875 0,0.03125 0,0.0625 -0.03125,0.1875 L 1.5625,-0.78125 c -0.09375,0.390625 -0.109375,0.46875 -0.90625,0.46875 -0.171875,0 -0.265625,0 -0.265625,0.203125 C 0.390625,0 0.484375,0 0.65625,0 h 4.625 C 5.515625,0 5.515625,0 5.578125,-0.171875 L 6.375,-2.328125 c 0.03125,-0.109375 0.03125,-0.125 0.03125,-0.140625 0,-0.03125 -0.03125,-0.109375 -0.109375,-0.109375 -0.09375,0 -0.109375,0.0625 -0.171875,0.21875 -0.34375,0.90625 -0.78125,2.046875 -2.5,2.046875 H 2.6875 c -0.140625,0 -0.171875,0 -0.21875,0 -0.109375,-0.015625 -0.140625,-0.03125 -0.140625,-0.109375 0,-0.03125 0,-0.046875 0.046875,-0.21875 z m 0,0"
               id="id-775c42f2-a171-4461-b084-18dc50032a95" />
          </g>
        </g>
      </g>
    </g>
    <g
       id="g5061"
       ns2:jacobian_sqrt="1.76389"
       ns2:inkscapeversion="1.0"
       ns2:alignment="middle center"
       ns2:scale="5.0"
       ns2:preamble="C:\\Users\\claum\\AppData\\Roaming\\inkscape\\extensions\\textext\\default_packages.tex"
       ns2:text="$\\frac{qL}{2}$"
       ns2:pdfconverter="inkscape"
       ns2:texconverter="pdflatex"
       ns2:version="1.0.1"
       transform="matrix(1.76389,0,0,1.76389,383.99956,143.14765)">
      <defs
         id="id-61afb899-8560-41c6-94d2-73cd00a3fa56">
        <g
           id="id-a069abaf-2919-43c5-83e3-841fb3e9356a">
          <symbol
             overflow="visible"
             id="id-19039b13-f9e8-4db4-b0fe-e8acf1400b54">
            <path
               style="stroke:none"
               d=""
               id="id-4b74f76f-a4f8-4440-b349-6a6876b8af6b" />
          </symbol>
          <symbol
             overflow="visible"
             id="id-ebdbc5d1-6de7-4c4a-ac12-74f06c677bce">
            <path
               style="stroke:none"
               d="m 3.546875,-2.875 c 0,-0.03125 0.015625,-0.0625 0.015625,-0.09375 0,-0.046875 -0.03125,-0.109375 -0.09375,-0.109375 -0.0625,0 -0.359375,0.234375 -0.5,0.46875 -0.0625,-0.140625 -0.296875,-0.46875 -0.75,-0.46875 -0.890625,0 -1.796875,0.984375 -1.796875,1.984375 0,0.6875 0.453125,1.15625 1.0625,1.15625 0.390625,0 0.71875,-0.25 0.875,-0.375 C 2.34375,-0.296875 2.125,0.578125 2.109375,0.703125 2,1.09375 2,1.09375 1.5625,1.09375 c -0.078125,0 -0.171875,0 -0.171875,0.15625 0,0.046875 0.03125,0.109375 0.09375,0.109375 0.234375,0 0.5,-0.03125 0.734375,-0.03125 0.234375,0 0.53125,0.03125 0.75,0.03125 0.0625,0 0.125,-0.03125 0.125,-0.15625 C 3.09375,1.09375 3,1.09375 2.921875,1.09375 c -0.15625,0 -0.34375,0 -0.34375,-0.078125 0,-0.015625 0,-0.03125 0.03125,-0.15625 z M 2.5,-0.875 C 2.453125,-0.765625 2.453125,-0.75 2.375,-0.640625 2.09375,-0.3125 1.765625,-0.125 1.5,-0.125 c -0.265625,0 -0.515625,-0.1875 -0.515625,-0.671875 0,-0.375 0.203125,-1.140625 0.375,-1.421875 0.3125,-0.5625 0.671875,-0.65625 0.859375,-0.65625 0.484375,0 0.625,0.53125 0.625,0.609375 0,0.03125 -0.015625,0.078125 -0.015625,0.09375 z m 0,0"
               id="id-54374382-e29f-41d5-95d1-fb74849ad302" />
          </symbol>
          <symbol
             overflow="visible"
             id="id-ee13dbe7-fea3-4b46-938c-f1c1a0f57d2f">
            <path
               style="stroke:none"
               d="m 2.875,-4.1875 c 0.0625,-0.25 0.078125,-0.328125 0.71875,-0.328125 0.21875,0 0.28125,0 0.28125,-0.140625 0,-0.015625 0,-0.109375 -0.109375,-0.109375 -0.15625,0 -0.34375,0.015625 -0.515625,0.03125 -0.171875,0 -0.390625,0 -0.5625,0 -0.140625,0 -0.328125,0 -0.484375,0 -0.140625,0 -0.3125,-0.03125 -0.453125,-0.03125 -0.03125,0 -0.140625,0 -0.140625,0.15625 0,0.09375 0.078125,0.09375 0.21875,0.09375 0.015625,0 0.140625,0 0.265625,0.015625 0.15625,0.015625 0.171875,0.03125 0.171875,0.109375 0,0 0,0.046875 -0.03125,0.140625 l -0.9375,3.703125 C 1.234375,-0.3125 1.21875,-0.25 0.6875,-0.25 c -0.109375,0 -0.203125,0 -0.203125,0.140625 C 0.484375,0 0.5625,0 0.6875,0 h 3.5 c 0.1875,0 0.1875,0 0.25,-0.140625 0.0625,-0.1875 0.59375,-1.53125 0.59375,-1.59375 0,-0.015625 -0.015625,-0.09375 -0.125,-0.09375 -0.078125,0 -0.09375,0.03125 -0.140625,0.140625 C 4.5,-1.03125 4.1875,-0.25 2.921875,-0.25 H 2.125 c -0.203125,0 -0.21875,-0.015625 -0.21875,-0.078125 0,0 0,-0.03125 0.03125,-0.140625 z m 0,0"
               id="id-0543042f-0974-4fd6-bf39-6382a86ecde1" />
          </symbol>
          <symbol
             overflow="visible"
             id="id-fcd88436-8ef9-42c0-b7eb-e0b3d6221ac0">
            <path
               style="stroke:none"
               d=""
               id="id-399a23cc-29e3-4130-9267-66310e7d5e5b" />
          </symbol>
          <symbol
             overflow="visible"
             id="id-2186f5e3-2c20-4258-8182-c5918ef8017a">
            <path
               style="stroke:none"
               d="M 3.515625,-1.265625 H 3.28125 c -0.015625,0.15625 -0.09375,0.5625 -0.1875,0.625 C 3.046875,-0.59375 2.515625,-0.59375 2.40625,-0.59375 H 1.125 c 0.734375,-0.640625 0.984375,-0.84375 1.390625,-1.171875 0.515625,-0.40625 1,-0.84375 1,-1.5 0,-0.84375 -0.734375,-1.359375 -1.625,-1.359375 -0.859375,0 -1.453125,0.609375 -1.453125,1.25 0,0.34375 0.296875,0.390625 0.375,0.390625 0.15625,0 0.359375,-0.125 0.359375,-0.375 0,-0.125 -0.046875,-0.375 -0.40625,-0.375 C 0.984375,-4.21875 1.453125,-4.375 1.78125,-4.375 c 0.703125,0 1.0625,0.546875 1.0625,1.109375 0,0.609375 -0.4375,1.078125 -0.65625,1.328125 L 0.515625,-0.265625 C 0.4375,-0.203125 0.4375,-0.1875 0.4375,0 h 2.875 z m 0,0"
               id="id-bd38353a-e419-4485-9658-c664bf27e72c" />
          </symbol>
        </g>
      </defs>
      <g
         id="id-cb8f42ef-a262-409f-88d7-9b0c94a06b44"
         transform="translate(-149.906,-125.554)">
        <g
           style="fill:#000000;fill-opacity:1"
           id="id-b88ea29a-1df1-4a4f-b69f-80570cc011cb">
          <g
             id="g5048"
             transform="translate(149.908,130.32)">
            <path
               style="stroke:none"
               d="m 3.546875,-2.875 c 0,-0.03125 0.015625,-0.0625 0.015625,-0.09375 0,-0.046875 -0.03125,-0.109375 -0.09375,-0.109375 -0.0625,0 -0.359375,0.234375 -0.5,0.46875 -0.0625,-0.140625 -0.296875,-0.46875 -0.75,-0.46875 -0.890625,0 -1.796875,0.984375 -1.796875,1.984375 0,0.6875 0.453125,1.15625 1.0625,1.15625 0.390625,0 0.71875,-0.25 0.875,-0.375 C 2.34375,-0.296875 2.125,0.578125 2.109375,0.703125 2,1.09375 2,1.09375 1.5625,1.09375 c -0.078125,0 -0.171875,0 -0.171875,0.15625 0,0.046875 0.03125,0.109375 0.09375,0.109375 0.234375,0 0.5,-0.03125 0.734375,-0.03125 0.234375,0 0.53125,0.03125 0.75,0.03125 0.0625,0 0.125,-0.03125 0.125,-0.15625 C 3.09375,1.09375 3,1.09375 2.921875,1.09375 c -0.15625,0 -0.34375,0 -0.34375,-0.078125 0,-0.015625 0,-0.03125 0.03125,-0.15625 z M 2.5,-0.875 C 2.453125,-0.765625 2.453125,-0.75 2.375,-0.640625 2.09375,-0.3125 1.765625,-0.125 1.5,-0.125 c -0.265625,0 -0.515625,-0.1875 -0.515625,-0.671875 0,-0.375 0.203125,-1.140625 0.375,-1.421875 0.3125,-0.5625 0.671875,-0.65625 0.859375,-0.65625 0.484375,0 0.625,0.53125 0.625,0.609375 0,0.03125 -0.015625,0.078125 -0.015625,0.09375 z m 0,0"
               id="id-1830548f-c889-4557-86f6-71d58f8aec16" />
          </g>
        </g>
        <g
           style="fill:#000000;fill-opacity:1"
           id="id-aa8fe5ca-e40c-4b48-9085-784d5ca27c5a">
          <g
             id="g5052"
             transform="translate(153.811,130.32)">
            <path
               style="stroke:none"
               d="m 2.875,-4.1875 c 0.0625,-0.25 0.078125,-0.328125 0.71875,-0.328125 0.21875,0 0.28125,0 0.28125,-0.140625 0,-0.015625 0,-0.109375 -0.109375,-0.109375 -0.15625,0 -0.34375,0.015625 -0.515625,0.03125 -0.171875,0 -0.390625,0 -0.5625,0 -0.140625,0 -0.328125,0 -0.484375,0 -0.140625,0 -0.3125,-0.03125 -0.453125,-0.03125 -0.03125,0 -0.140625,0 -0.140625,0.15625 0,0.09375 0.078125,0.09375 0.21875,0.09375 0.015625,0 0.140625,0 0.265625,0.015625 0.15625,0.015625 0.171875,0.03125 0.171875,0.109375 0,0 0,0.046875 -0.03125,0.140625 l -0.9375,3.703125 C 1.234375,-0.3125 1.21875,-0.25 0.6875,-0.25 c -0.109375,0 -0.203125,0 -0.203125,0.140625 C 0.484375,0 0.5625,0 0.6875,0 h 3.5 c 0.1875,0 0.1875,0 0.25,-0.140625 0.0625,-0.1875 0.59375,-1.53125 0.59375,-1.59375 0,-0.015625 -0.015625,-0.09375 -0.125,-0.09375 -0.078125,0 -0.09375,0.03125 -0.140625,0.140625 C 4.5,-1.03125 4.1875,-0.25 2.921875,-0.25 H 2.125 c -0.203125,0 -0.21875,-0.015625 -0.21875,-0.078125 0,0 0,-0.03125 0.03125,-0.140625 z m 0,0"
               id="id-de127303-55fe-4e31-931d-61954bceb5a9" />
          </g>
        </g>
        <path
           style="fill:none;stroke:#000000;stroke-width:0.398;stroke-linecap:butt;stroke-linejoin:miter;stroke-miterlimit:10;stroke-opacity:1"
           d="M -0.00175,5.625e-4 H 9.365437"
           transform="matrix(1,0,0,-1,149.908,132.274)"
           id="id-daddc4aa-5fe1-4715-b24f-f7fd2ca7e768" />
        <g
           style="fill:#000000;fill-opacity:1"
           id="id-41b4f5e3-487b-4a0c-aabb-3903c651b837">
          <g
             id="g5057"
             transform="translate(152.606,138.2)">
            <path
               style="stroke:none"
               d="M 3.515625,-1.265625 H 3.28125 c -0.015625,0.15625 -0.09375,0.5625 -0.1875,0.625 C 3.046875,-0.59375 2.515625,-0.59375 2.40625,-0.59375 H 1.125 c 0.734375,-0.640625 0.984375,-0.84375 1.390625,-1.171875 0.515625,-0.40625 1,-0.84375 1,-1.5 0,-0.84375 -0.734375,-1.359375 -1.625,-1.359375 -0.859375,0 -1.453125,0.609375 -1.453125,1.25 0,0.34375 0.296875,0.390625 0.375,0.390625 0.15625,0 0.359375,-0.125 0.359375,-0.375 0,-0.125 -0.046875,-0.375 -0.40625,-0.375 C 0.984375,-4.21875 1.453125,-4.375 1.78125,-4.375 c 0.703125,0 1.0625,0.546875 1.0625,1.109375 0,0.609375 -0.4375,1.078125 -0.65625,1.328125 L 0.515625,-0.265625 C 0.4375,-0.203125 0.4375,-0.1875 0.4375,0 h 2.875 z m 0,0"
               id="id-04d177e9-e3a8-4e76-a2cb-8d80c916514a" />
          </g>
        </g>
      </g>
    </g>
    <path
       id="path5096"
       d="M 365,270 V 240"
       style="fill:none;stroke:#000000;stroke-width:0.9;stroke-linecap:butt;stroke-linejoin:miter;stroke-miterlimit:4;stroke-dasharray:none;stroke-opacity:1;marker-end:url(#marker5100)" />
    <path
       style="fill:none;stroke:#000000;stroke-width:0.9;stroke-linecap:butt;stroke-linejoin:miter;stroke-miterlimit:4;stroke-dasharray:none;stroke-opacity:1;marker-end:url(#marker5164)"
       d="M 45,270 V 240"
       id="path5160" />
    <path
       id="path5232"
       d="M 10,235 H 40"
       style="fill:none;stroke:#000000;stroke-width:0.9;stroke-linecap:butt;stroke-linejoin:miter;stroke-miterlimit:4;stroke-dasharray:none;stroke-opacity:1;marker-end:url(#marker5236)" />
    <g
       id="g5527"
       ns2:jacobian_sqrt="1.76389"
       ns2:inkscapeversion="1.0"
       ns2:alignment="middle center"
       ns2:scale="5.0"
       ns2:preamble="C:\\Users\\claum\\AppData\\Roaming\\inkscape\\extensions\\textext\\default_packages.tex"
       ns2:text="$\\mathbf{H}_A$"
       ns2:pdfconverter="inkscape"
       ns2:texconverter="pdflatex"
       ns2:version="1.0.1"
       transform="matrix(1.76389,0,0,1.76389,1.968537,237.17274)">
      <defs
         id="id-dbb73716-226b-4131-aa7f-a76c48b34ca3">
        <g
           id="id-766a132f-8e08-47d4-a848-f6d38f2d7275">
          <symbol
             overflow="visible"
             id="id-6c62e611-5329-4139-a1f9-dd49d0ab5fc5">
            <path
               style="stroke:none"
               d=""
               id="id-94738ca8-d505-440b-a84b-1bb4fded2784" />
          </symbol>
          <symbol
             overflow="visible"
             id="id-b22a6b24-f43f-4c10-8b6c-93553fa734b1">
            <path
               style="stroke:none"
               d="M 7.5,-6.375 H 8.578125 V -6.84375 C 8.1875,-6.8125 7.21875,-6.8125 6.78125,-6.8125 c -0.421875,0 -1.390625,0 -1.78125,-0.03125 V -6.375 h 1.078125 v 2.59375 H 2.875 V -6.375 h 1.078125 v -0.46875 c -0.375,0.03125 -1.34375,0.03125 -1.78125,0.03125 -0.421875,0 -1.40625,0 -1.78125,-0.03125 V -6.375 H 1.46875 v 5.90625 H 0.390625 V 0 c 0.375,-0.03125 1.359375,-0.03125 1.78125,-0.03125 0.4375,0 1.40625,0 1.78125,0.03125 V -0.46875 H 2.875 V -3.3125 h 3.203125 v 2.84375 H 5 V 0 c 0.390625,-0.03125 1.359375,-0.03125 1.78125,-0.03125 0.4375,0 1.40625,0 1.796875,0.03125 V -0.46875 H 7.5 Z m 0,0"
               id="id-c0b62aef-e62a-42ba-a8d1-16bde0cac5b6" />
          </symbol>
          <symbol
             overflow="visible"
             id="id-f5cb8a4b-c5d5-467f-b125-577255f47547">
            <path
               style="stroke:none"
               d=""
               id="id-3039bfb3-9402-48ff-875a-f086e8d09b10" />
          </symbol>
          <symbol
             overflow="visible"
             id="id-9d880b1f-e851-4aed-bc11-42b8beadb423">
            <path
               style="stroke:none"
               d="m 1.4375,-0.84375 c -0.25,0.390625 -0.46875,0.5625 -0.875,0.59375 -0.078125,0 -0.171875,0 -0.171875,0.140625 C 0.390625,-0.03125 0.453125,0 0.5,0 0.671875,0 0.90625,-0.03125 1.09375,-0.03125 1.3125,-0.03125 1.609375,0 1.8125,0 1.84375,0 1.953125,0 1.953125,-0.15625 1.953125,-0.25 1.859375,-0.25 1.828125,-0.25 1.78125,-0.265625 1.53125,-0.265625 1.53125,-0.453125 c 0,-0.09375 0.0625,-0.203125 0.09375,-0.265625 l 0.5625,-0.875 h 2 L 4.34375,-0.4375 C 4.328125,-0.359375 4.28125,-0.25 3.875,-0.25 c -0.09375,0 -0.1875,0 -0.1875,0.15625 C 3.6875,-0.0625 3.703125,0 3.796875,0 4,0 4.5,-0.03125 4.703125,-0.03125 c 0.125,0 0.28125,0.015625 0.40625,0.015625 C 5.234375,-0.015625 5.375,0 5.5,0 5.59375,0 5.640625,-0.0625 5.640625,-0.140625 5.640625,-0.25 5.5625,-0.25 5.453125,-0.25 c -0.40625,0 -0.421875,-0.0625 -0.4375,-0.21875 l -0.625,-4.3125 C 4.375,-4.921875 4.359375,-4.96875 4.234375,-4.96875 4.09375,-4.96875 4.0625,-4.90625 4,-4.8125 Z m 0.921875,-1 L 3.8125,-4.125 4.140625,-1.84375 Z m 0,0"
               id="id-e3087a5b-1443-4a01-b572-468e0ff29184" />
          </symbol>
        </g>
      </defs>
      <g
         id="id-9607e26a-a555-4b40-add3-b08533d64f7a"
         transform="translate(-149.103,-127.921)">
        <g
           style="fill:#000000;fill-opacity:1"
           id="id-c7b2da54-b09b-4127-80d8-3a20a7b7acb3">
          <g
             id="g5519"
             transform="translate(148.712,134.765)">
            <path
               style="stroke:none"
               d="M 7.5,-6.375 H 8.578125 V -6.84375 C 8.1875,-6.8125 7.21875,-6.8125 6.78125,-6.8125 c -0.421875,0 -1.390625,0 -1.78125,-0.03125 V -6.375 h 1.078125 v 2.59375 H 2.875 V -6.375 h 1.078125 v -0.46875 c -0.375,0.03125 -1.34375,0.03125 -1.78125,0.03125 -0.421875,0 -1.40625,0 -1.78125,-0.03125 V -6.375 H 1.46875 v 5.90625 H 0.390625 V 0 c 0.375,-0.03125 1.359375,-0.03125 1.78125,-0.03125 0.4375,0 1.40625,0 1.78125,0.03125 V -0.46875 H 2.875 V -3.3125 h 3.203125 v 2.84375 H 5 V 0 c 0.390625,-0.03125 1.359375,-0.03125 1.78125,-0.03125 0.4375,0 1.40625,0 1.796875,0.03125 V -0.46875 H 7.5 Z m 0,0"
               id="id-79b4b447-b7d7-4935-8ed1-79a3b770248a" />
          </g>
        </g>
        <g
           style="fill:#000000;fill-opacity:1"
           id="id-7e5fd97f-b2ac-49fe-85b2-bb732b7ae81e">
          <g
             id="g5523"
             transform="translate(157.679,136.259)">
            <path
               style="stroke:none"
               d="m 1.4375,-0.84375 c -0.25,0.390625 -0.46875,0.5625 -0.875,0.59375 -0.078125,0 -0.171875,0 -0.171875,0.140625 C 0.390625,-0.03125 0.453125,0 0.5,0 0.671875,0 0.90625,-0.03125 1.09375,-0.03125 1.3125,-0.03125 1.609375,0 1.8125,0 1.84375,0 1.953125,0 1.953125,-0.15625 1.953125,-0.25 1.859375,-0.25 1.828125,-0.25 1.78125,-0.265625 1.53125,-0.265625 1.53125,-0.453125 c 0,-0.09375 0.0625,-0.203125 0.09375,-0.265625 l 0.5625,-0.875 h 2 L 4.34375,-0.4375 C 4.328125,-0.359375 4.28125,-0.25 3.875,-0.25 c -0.09375,0 -0.1875,0 -0.1875,0.15625 C 3.6875,-0.0625 3.703125,0 3.796875,0 4,0 4.5,-0.03125 4.703125,-0.03125 c 0.125,0 0.28125,0.015625 0.40625,0.015625 C 5.234375,-0.015625 5.375,0 5.5,0 5.59375,0 5.640625,-0.0625 5.640625,-0.140625 5.640625,-0.25 5.5625,-0.25 5.453125,-0.25 c -0.40625,0 -0.421875,-0.0625 -0.4375,-0.21875 l -0.625,-4.3125 C 4.375,-4.921875 4.359375,-4.96875 4.234375,-4.96875 4.09375,-4.96875 4.0625,-4.90625 4,-4.8125 Z m 0.921875,-1 L 3.8125,-4.125 4.140625,-1.84375 Z m 0,0"
               id="id-7d600c41-781c-49e1-be11-d8515936a3fa" />
          </g>
        </g>
      </g>
    </g>
    <g
       id="g5797"
       ns2:jacobian_sqrt="1.76389"
       ns2:inkscapeversion="1.0"
       ns2:alignment="middle center"
       ns2:scale="5.0"
       ns2:preamble="C:\\Users\\claum\\AppData\\Roaming\\inkscape\\extensions\\textext\\default_packages.tex"
       ns2:text="$\\mathbf{R}_A$"
       ns2:pdfconverter="inkscape"
       ns2:texconverter="pdflatex"
       ns2:version="1.0.1"
       transform="matrix(1.76389,0,0,1.76389,46.7897,261.173)">
      <defs
         id="id-3c3eec5a-9716-432c-826b-ef7e91d0a1c3">
        <g
           id="id-e276d13f-a6ec-47c8-b908-2a4c8e3e937d">
          <symbol
             overflow="visible"
             id="id-b5ca35a2-ceb4-4c7a-9c57-ae6d6658448f">
            <path
               style="stroke:none"
               d=""
               id="id-7afdbeab-9118-4028-b0c7-6342de2bd504" />
          </symbol>
          <symbol
             overflow="visible"
             id="id-38451d5d-a580-481e-a915-7a3e42379edf">
            <path
               style="stroke:none"
               d="M 2.828125,-3.59375 V -6.375 H 4 c 1.609375,0 1.625,0.78125 1.625,1.390625 0,0.5625 0,1.390625 -1.640625,1.390625 z m 2.65625,0.203125 C 6.640625,-3.6875 7.140625,-4.34375 7.140625,-5 c 0,-1 -1.09375,-1.84375 -2.96875,-1.84375 H 0.390625 V -6.375 H 1.46875 v 5.90625 H 0.390625 V 0 c 0.359375,-0.03125 1.328125,-0.03125 1.75,-0.03125 0.421875,0 1.390625,0 1.75,0.03125 v -0.46875 h -1.0625 v -2.765625 h 1.15625 c 0.140625,0 0.578125,0 0.890625,0.328125 0.3125,0.359375 0.3125,0.546875 0.3125,1.265625 0,0.65625 0,1.15625 0.703125,1.484375 0.4375,0.21875 1.0625,0.265625 1.46875,0.265625 1.0625,0 1.1875,-0.890625 1.1875,-1.0625 0,-0.21875 -0.140625,-0.21875 -0.234375,-0.21875 -0.203125,0 -0.21875,0.109375 -0.234375,0.234375 C 8.03125,-0.46875 7.75,-0.25 7.453125,-0.25 c -0.609375,0 -0.6875,-0.703125 -0.75,-1.125 C 6.6875,-1.484375 6.609375,-2.171875 6.59375,-2.21875 6.453125,-2.921875 5.90625,-3.234375 5.484375,-3.390625 Z m 0,0"
               id="id-35152276-9f34-47e2-b9bc-dbc9dd7a1b22" />
          </symbol>
          <symbol
             overflow="visible"
             id="id-882c2b16-ee60-41c4-8462-211d4cc0363e">
            <path
               style="stroke:none"
               d=""
               id="id-b4391a4c-6226-46eb-ade8-c9b580e4ec53" />
          </symbol>
          <symbol
             overflow="visible"
             id="id-d6d360c3-f5f5-4be4-8d9d-4759b450085b">
            <path
               style="stroke:none"
               d="m 1.4375,-0.84375 c -0.25,0.390625 -0.46875,0.5625 -0.875,0.59375 -0.078125,0 -0.171875,0 -0.171875,0.140625 C 0.390625,-0.03125 0.453125,0 0.5,0 0.671875,0 0.90625,-0.03125 1.09375,-0.03125 1.3125,-0.03125 1.609375,0 1.8125,0 1.84375,0 1.953125,0 1.953125,-0.15625 1.953125,-0.25 1.859375,-0.25 1.828125,-0.25 1.78125,-0.265625 1.53125,-0.265625 1.53125,-0.453125 c 0,-0.09375 0.0625,-0.203125 0.09375,-0.265625 l 0.5625,-0.875 h 2 L 4.34375,-0.4375 C 4.328125,-0.359375 4.28125,-0.25 3.875,-0.25 c -0.09375,0 -0.1875,0 -0.1875,0.15625 C 3.6875,-0.0625 3.703125,0 3.796875,0 4,0 4.5,-0.03125 4.703125,-0.03125 c 0.125,0 0.28125,0.015625 0.40625,0.015625 C 5.234375,-0.015625 5.375,0 5.5,0 5.59375,0 5.640625,-0.0625 5.640625,-0.140625 5.640625,-0.25 5.5625,-0.25 5.453125,-0.25 c -0.40625,0 -0.421875,-0.0625 -0.4375,-0.21875 l -0.625,-4.3125 C 4.375,-4.921875 4.359375,-4.96875 4.234375,-4.96875 4.09375,-4.96875 4.0625,-4.90625 4,-4.8125 Z m 0.921875,-1 L 3.8125,-4.125 4.140625,-1.84375 Z m 0,0"
               id="id-ab429ced-9313-490b-9f51-3ee1938ad046" />
          </symbol>
        </g>
      </defs>
      <g
         id="id-d46bd97f-a8d3-4e8e-8d84-3e3aa338915a"
         transform="translate(-149.103,-127.921)">
        <g
           style="fill:#000000;fill-opacity:1"
           id="id-15d6b6ae-8166-429c-b73b-900ce6c01a2f">
          <g
             id="g5789"
             transform="translate(148.712,134.765)">
            <path
               style="stroke:none"
               d="M 2.828125,-3.59375 V -6.375 H 4 c 1.609375,0 1.625,0.78125 1.625,1.390625 0,0.5625 0,1.390625 -1.640625,1.390625 z m 2.65625,0.203125 C 6.640625,-3.6875 7.140625,-4.34375 7.140625,-5 c 0,-1 -1.09375,-1.84375 -2.96875,-1.84375 H 0.390625 V -6.375 H 1.46875 v 5.90625 H 0.390625 V 0 c 0.359375,-0.03125 1.328125,-0.03125 1.75,-0.03125 0.421875,0 1.390625,0 1.75,0.03125 v -0.46875 h -1.0625 v -2.765625 h 1.15625 c 0.140625,0 0.578125,0 0.890625,0.328125 0.3125,0.359375 0.3125,0.546875 0.3125,1.265625 0,0.65625 0,1.15625 0.703125,1.484375 0.4375,0.21875 1.0625,0.265625 1.46875,0.265625 1.0625,0 1.1875,-0.890625 1.1875,-1.0625 0,-0.21875 -0.140625,-0.21875 -0.234375,-0.21875 -0.203125,0 -0.21875,0.109375 -0.234375,0.234375 C 8.03125,-0.46875 7.75,-0.25 7.453125,-0.25 c -0.609375,0 -0.6875,-0.703125 -0.75,-1.125 C 6.6875,-1.484375 6.609375,-2.171875 6.59375,-2.21875 6.453125,-2.921875 5.90625,-3.234375 5.484375,-3.390625 Z m 0,0"
               id="id-2e85dc66-556f-4d08-9c90-b49aaf74ac9e" />
          </g>
        </g>
        <g
           style="fill:#000000;fill-opacity:1"
           id="id-a6b282ac-e8c0-4896-8fe6-5f72e0f62e7d">
          <g
             id="g5793"
             transform="translate(157.305,136.259)">
            <path
               style="stroke:none"
               d="m 1.4375,-0.84375 c -0.25,0.390625 -0.46875,0.5625 -0.875,0.59375 -0.078125,0 -0.171875,0 -0.171875,0.140625 C 0.390625,-0.03125 0.453125,0 0.5,0 0.671875,0 0.90625,-0.03125 1.09375,-0.03125 1.3125,-0.03125 1.609375,0 1.8125,0 1.84375,0 1.953125,0 1.953125,-0.15625 1.953125,-0.25 1.859375,-0.25 1.828125,-0.25 1.78125,-0.265625 1.53125,-0.265625 1.53125,-0.453125 c 0,-0.09375 0.0625,-0.203125 0.09375,-0.265625 l 0.5625,-0.875 h 2 L 4.34375,-0.4375 C 4.328125,-0.359375 4.28125,-0.25 3.875,-0.25 c -0.09375,0 -0.1875,0 -0.1875,0.15625 C 3.6875,-0.0625 3.703125,0 3.796875,0 4,0 4.5,-0.03125 4.703125,-0.03125 c 0.125,0 0.28125,0.015625 0.40625,0.015625 C 5.234375,-0.015625 5.375,0 5.5,0 5.59375,0 5.640625,-0.0625 5.640625,-0.140625 5.640625,-0.25 5.5625,-0.25 5.453125,-0.25 c -0.40625,0 -0.421875,-0.0625 -0.4375,-0.21875 l -0.625,-4.3125 C 4.375,-4.921875 4.359375,-4.96875 4.234375,-4.96875 4.09375,-4.96875 4.0625,-4.90625 4,-4.8125 Z m 0.921875,-1 L 3.8125,-4.125 4.140625,-1.84375 Z m 0,0"
               id="id-b94b6df5-d7b0-4570-ac86-f0392aaaf452" />
          </g>
        </g>
      </g>
    </g>
    <g
       id="g6085"
       ns2:jacobian_sqrt="1.76389"
       ns2:inkscapeversion="1.0"
       ns2:alignment="middle center"
       ns2:scale="5.0"
       ns2:preamble="C:\\Users\\claum\\AppData\\Roaming\\inkscape\\extensions\\textext\\default_packages.tex"
       ns2:text="$\\mathbf{R}_B$"
       ns2:pdfconverter="inkscape"
       ns2:texconverter="pdflatex"
       ns2:version="1.0.1"
       transform="matrix(1.76389,0,0,1.76389,366.835,261.755)">
      <defs
         id="id-d31868d2-e419-4be2-a56f-58c4ada2c27b">
        <g
           id="id-c2938b9a-93ac-456e-89e5-78c0102c4e82">
          <symbol
             overflow="visible"
             id="id-6b274c3d-cc81-4cf7-a62e-1d590014e12b">
            <path
               style="stroke:none"
               d=""
               id="id-e7223d23-7f4c-45ed-aa9c-a9a51fdeadb9" />
          </symbol>
          <symbol
             overflow="visible"
             id="id-5956b2d7-0730-478f-8e10-13f03d67b093">
            <path
               style="stroke:none"
               d="M 2.828125,-3.59375 V -6.375 H 4 c 1.609375,0 1.625,0.78125 1.625,1.390625 0,0.5625 0,1.390625 -1.640625,1.390625 z m 2.65625,0.203125 C 6.640625,-3.6875 7.140625,-4.34375 7.140625,-5 c 0,-1 -1.09375,-1.84375 -2.96875,-1.84375 H 0.390625 V -6.375 H 1.46875 v 5.90625 H 0.390625 V 0 c 0.359375,-0.03125 1.328125,-0.03125 1.75,-0.03125 0.421875,0 1.390625,0 1.75,0.03125 v -0.46875 h -1.0625 v -2.765625 h 1.15625 c 0.140625,0 0.578125,0 0.890625,0.328125 0.3125,0.359375 0.3125,0.546875 0.3125,1.265625 0,0.65625 0,1.15625 0.703125,1.484375 0.4375,0.21875 1.0625,0.265625 1.46875,0.265625 1.0625,0 1.1875,-0.890625 1.1875,-1.0625 0,-0.21875 -0.140625,-0.21875 -0.234375,-0.21875 -0.203125,0 -0.21875,0.109375 -0.234375,0.234375 C 8.03125,-0.46875 7.75,-0.25 7.453125,-0.25 c -0.609375,0 -0.6875,-0.703125 -0.75,-1.125 C 6.6875,-1.484375 6.609375,-2.171875 6.59375,-2.21875 6.453125,-2.921875 5.90625,-3.234375 5.484375,-3.390625 Z m 0,0"
               id="id-9818487d-62f9-4a54-ac74-cd1e9227c204" />
          </symbol>
          <symbol
             overflow="visible"
             id="id-398ebc95-c22a-4c01-af58-4184672a5270">
            <path
               style="stroke:none"
               d=""
               id="id-e6406ac0-1637-44a8-ae60-3e1bd909da58" />
          </symbol>
          <symbol
             overflow="visible"
             id="id-4d408fce-6b38-47e9-a99d-9fdbc452ca0b">
            <path
               style="stroke:none"
               d="M 1.328125,-0.546875 C 1.265625,-0.3125 1.25,-0.25 0.703125,-0.25 0.59375,-0.25 0.5,-0.25 0.5,-0.109375 0.5,0 0.578125,0 0.703125,0 H 3.40625 c 1.171875,0 2.078125,-0.796875 2.078125,-1.484375 0,-0.5 -0.453125,-0.921875 -1.203125,-1 0.84375,-0.15625 1.546875,-0.6875 1.546875,-1.28125 0,-0.53125 -0.53125,-1 -1.4375,-1 h -2.53125 c -0.140625,0 -0.234375,0 -0.234375,0.15625 0,0.09375 0.09375,0.09375 0.234375,0.09375 0,0 0.140625,0 0.265625,0.015625 0.140625,0.015625 0.15625,0.03125 0.15625,0.109375 0,0 0,0.046875 -0.03125,0.140625 z m 1.109375,-2.03125 0.421875,-1.6875 c 0.0625,-0.21875 0.0625,-0.25 0.359375,-0.25 h 1.0625 c 0.703125,0 0.875,0.46875 0.875,0.734375 0,0.5625 -0.640625,1.203125 -1.578125,1.203125 z M 2.109375,-0.25 C 1.890625,-0.25 1.875,-0.265625 1.875,-0.328125 c 0,0 0,-0.03125 0.03125,-0.140625 L 2.390625,-2.375 H 3.875 c 0.640625,0 0.90625,0.4375 0.90625,0.828125 0,0.703125 -0.71875,1.296875 -1.5625,1.296875 z m 0,0"
               id="id-4f3861e3-4b2c-48d9-9fff-89b0f2be96a3" />
          </symbol>
        </g>
      </defs>
      <g
         id="id-c2c0f54b-40a5-471c-9a10-205c74378ae9"
         transform="translate(-149.103,-127.921)">
        <g
           style="fill:#000000;fill-opacity:1"
           id="id-60f2a853-7500-40a8-b641-d762eb231551">
          <g
             id="g6077"
             transform="translate(148.712,134.765)">
            <path
               style="stroke:none"
               d="M 2.828125,-3.59375 V -6.375 H 4 c 1.609375,0 1.625,0.78125 1.625,1.390625 0,0.5625 0,1.390625 -1.640625,1.390625 z m 2.65625,0.203125 C 6.640625,-3.6875 7.140625,-4.34375 7.140625,-5 c 0,-1 -1.09375,-1.84375 -2.96875,-1.84375 H 0.390625 V -6.375 H 1.46875 v 5.90625 H 0.390625 V 0 c 0.359375,-0.03125 1.328125,-0.03125 1.75,-0.03125 0.421875,0 1.390625,0 1.75,0.03125 v -0.46875 h -1.0625 v -2.765625 h 1.15625 c 0.140625,0 0.578125,0 0.890625,0.328125 0.3125,0.359375 0.3125,0.546875 0.3125,1.265625 0,0.65625 0,1.15625 0.703125,1.484375 0.4375,0.21875 1.0625,0.265625 1.46875,0.265625 1.0625,0 1.1875,-0.890625 1.1875,-1.0625 0,-0.21875 -0.140625,-0.21875 -0.234375,-0.21875 -0.203125,0 -0.21875,0.109375 -0.234375,0.234375 C 8.03125,-0.46875 7.75,-0.25 7.453125,-0.25 c -0.609375,0 -0.6875,-0.703125 -0.75,-1.125 C 6.6875,-1.484375 6.609375,-2.171875 6.59375,-2.21875 6.453125,-2.921875 5.90625,-3.234375 5.484375,-3.390625 Z m 0,0"
               id="id-c333786c-b0c3-43f4-9e1e-68a28ac21102" />
          </g>
        </g>
        <g
           style="fill:#000000;fill-opacity:1"
           id="id-8eddc36b-adaa-41a5-9ff9-3388e918f206">
          <g
             id="g6081"
             transform="translate(157.305,136.259)">
            <path
               style="stroke:none"
               d="M 1.328125,-0.546875 C 1.265625,-0.3125 1.25,-0.25 0.703125,-0.25 0.59375,-0.25 0.5,-0.25 0.5,-0.109375 0.5,0 0.578125,0 0.703125,0 H 3.40625 c 1.171875,0 2.078125,-0.796875 2.078125,-1.484375 0,-0.5 -0.453125,-0.921875 -1.203125,-1 0.84375,-0.15625 1.546875,-0.6875 1.546875,-1.28125 0,-0.53125 -0.53125,-1 -1.4375,-1 h -2.53125 c -0.140625,0 -0.234375,0 -0.234375,0.15625 0,0.09375 0.09375,0.09375 0.234375,0.09375 0,0 0.140625,0 0.265625,0.015625 0.140625,0.015625 0.15625,0.03125 0.15625,0.109375 0,0 0,0.046875 -0.03125,0.140625 z m 1.109375,-2.03125 0.421875,-1.6875 c 0.0625,-0.21875 0.0625,-0.25 0.359375,-0.25 h 1.0625 c 0.703125,0 0.875,0.46875 0.875,0.734375 0,0.5625 -0.640625,1.203125 -1.578125,1.203125 z M 2.109375,-0.25 C 1.890625,-0.25 1.875,-0.265625 1.875,-0.328125 c 0,0 0,-0.03125 0.03125,-0.140625 L 2.390625,-2.375 H 3.875 c 0.640625,0 0.90625,0.4375 0.90625,0.828125 0,0.703125 -0.71875,1.296875 -1.5625,1.296875 z m 0,0"
               id="id-ff834791-bc9a-4d2d-9f47-58f70b2551ca" />
          </g>
        </g>
      </g>
    </g>
  </g>
</svg>
