<?xml version="1.0" encoding="UTF-8" standalone="no"?>
<svg
   xmlns:ns1="http://www.iki.fi/pav/software/textext/"
   xmlns:dc="http://purl.org/dc/elements/1.1/"
   xmlns:cc="http://creativecommons.org/ns#"
   xmlns:rdf="http://www.w3.org/1999/02/22-rdf-syntax-ns#"
   xmlns:svg="http://www.w3.org/2000/svg"
   xmlns="http://www.w3.org/2000/svg"
   xmlns:sodipodi="http://sodipodi.sourceforge.net/DTD/sodipodi-0.dtd"
   xmlns:inkscape="http://www.inkscape.org/namespaces/inkscape"
   sodipodi:docname="Figura4_1.svg"
   inkscape:version="1.0 (4035a4fb49, 2020-05-01)"
   id="svg16"
   version="1.1"
   viewBox="0 0 360.99998 360.99997"
   height="36.099998cm"
   width="36.099998cm">
  <defs
     id="defs10">
    <marker
       inkscape:stockid="Arrow1Lstart"
       orient="auto"
       refY="0"
       refX="0"
       id="marker1409"
       style="overflow:visible"
       inkscape:isstock="true">
      <path
         id="path1407"
         d="M 0,0 5,-5 -12.5,0 5,5 Z"
         style="fill:#000000;fill-opacity:1;fill-rule:evenodd;stroke:#000000;stroke-width:1pt;stroke-opacity:1"
         transform="matrix(0.8,0,0,0.8,10,0)" />
    </marker>
    <marker
       inkscape:isstock="true"
       style="overflow:visible"
       id="marker1351"
       refX="0"
       refY="0"
       orient="auto"
       inkscape:stockid="Arrow1Lstart">
      <path
         transform="matrix(0.8,0,0,0.8,10,0)"
         style="fill:#000000;fill-opacity:1;fill-rule:evenodd;stroke:#000000;stroke-width:1pt;stroke-opacity:1"
         d="M 0,0 5,-5 -12.5,0 5,5 Z"
         id="path1349" />
    </marker>
    <marker
       inkscape:collect="always"
       inkscape:stockid="Arrow1Lstart"
       orient="auto"
       refY="0"
       refX="0"
       id="marker1269"
       style="overflow:visible"
       inkscape:isstock="true">
      <path
         id="path1267"
         d="M 0,0 5,-5 -12.5,0 5,5 Z"
         style="fill:#000000;fill-opacity:1;fill-rule:evenodd;stroke:#000000;stroke-width:1pt;stroke-opacity:1"
         transform="matrix(0.8,0,0,0.8,10,0)" />
    </marker>
    <marker
       inkscape:collect="always"
       inkscape:isstock="true"
       style="overflow:visible"
       id="Arrow1Lstart"
       refX="0"
       refY="0"
       orient="auto"
       inkscape:stockid="Arrow1Lstart">
      <path
         transform="matrix(0.8,0,0,0.8,10,0)"
         style="fill:#000000;fill-opacity:1;fill-rule:evenodd;stroke:#000000;stroke-width:1pt;stroke-opacity:1"
         d="M 0,0 5,-5 -12.5,0 5,5 Z"
         id="path851" />
    </marker>
    <marker
       inkscape:isstock="true"
       style="overflow:visible"
       id="marker1197"
       refX="0"
       refY="0"
       orient="auto"
       inkscape:stockid="Arrow1Lend">
      <path
         transform="matrix(-0.8,0,0,-0.8,-10,0)"
         style="fill:#000000;fill-opacity:1;fill-rule:evenodd;stroke:#000000;stroke-width:1pt;stroke-opacity:1"
         d="M 0,0 5,-5 -12.5,0 5,5 Z"
         id="path1195" />
    </marker>
    <marker
       inkscape:isstock="true"
       style="overflow:visible"
       id="marker1169"
       refX="0"
       refY="0"
       orient="auto"
       inkscape:stockid="Arrow1Lend">
      <path
         transform="matrix(-0.8,0,0,-0.8,-10,0)"
         style="fill:#000000;fill-opacity:1;fill-rule:evenodd;stroke:#000000;stroke-width:1pt;stroke-opacity:1"
         d="M 0,0 5,-5 -12.5,0 5,5 Z"
         id="path1167" />
    </marker>
  </defs>
  <sodipodi:namedview
     inkscape:window-maximized="0"
     inkscape:window-y="0"
     inkscape:window-x="0"
     inkscape:window-height="738"
     inkscape:window-width="1366"
     units="cm"
     showgrid="true"
     inkscape:document-rotation="0"
     inkscape:current-layer="layer1"
     inkscape:document-units="mm"
     inkscape:cy="614.76033"
     inkscape:cx="910.69321"
     inkscape:zoom="0.35"
     inkscape:pageshadow="2"
     inkscape:pageopacity="0.0"
     borderopacity="1.0"
     bordercolor="#666666"
     pagecolor="#ffffff"
     id="base">
    <inkscape:grid
       units="cm"
       id="grid18"
       type="xygrid" />
  </sodipodi:namedview>
  <metadata
     id="metadata13">
    <rdf:RDF>
      <cc:Work
         rdf:about="">
        <dc:format>image/svg+xml</dc:format>
        <dc:type
           rdf:resource="http://purl.org/dc/dcmitype/StillImage" />
        <dc:title></dc:title>
      </cc:Work>
    </rdf:RDF>
  </metadata>
  <g
     id="layer1"
     inkscape:groupmode="layer"
     inkscape:label="Livello 1">
    <g
       transform="translate(-0.13229,1)"
       id="g1652">
      <path
         style="fill:none;stroke:#000000;stroke-width:0.265;stroke-linecap:butt;stroke-linejoin:miter;stroke-miterlimit:4;stroke-dasharray:none;stroke-opacity:1;marker-start:url(#Arrow1Lstart)"
         d="M 180.13229,0 V 359.99999"
         id="path20" />
      <path
         style="fill:none;stroke:#000000;stroke-width:0.264583;stroke-linecap:butt;stroke-linejoin:miter;stroke-miterlimit:3.9;stroke-dasharray:none;stroke-opacity:1;marker-start:url(#marker1269)"
         d="M 140,4.500712 220,355.49929"
         id="path24" />
      <g
         id="g1575">
        <path
           style="fill:none;stroke:#000000;stroke-width:0.264583px;stroke-linecap:butt;stroke-linejoin:miter;stroke-opacity:1;marker-start:url(#marker1409)"
           d="M 360,180.13229 H 0"
           id="path22" />
        <path
           id="path26"
           d="M 355.46909,140 4.530917,220.26458"
           style="fill:none;stroke:#000000;stroke-width:0.264583px;stroke-linecap:butt;stroke-linejoin:miter;stroke-opacity:1;marker-start:url(#marker1351)" />
        <path
           d="m 230,-180 a 50,50 0 0 1 -1.25149,11.11679"
           sodipodi:arc-type="arc"
           sodipodi:open="true"
           sodipodi:end="0.22420964"
           sodipodi:start="0"
           sodipodi:ry="50"
           sodipodi:rx="50"
           sodipodi:cy="-180"
           sodipodi:cx="180"
           sodipodi:type="arc"
           transform="scale(1,-1)"
           id="path1459"
           style="fill:none;stroke:#000000;stroke-width:0.3;stroke-miterlimit:3.9;stroke-dasharray:none" />
        <path
           sodipodi:nodetypes="ssssssscssssssasss"
           id="path1461"
           d="M 180,319.99999 C 164.7849,313.19716 155.39799,296.37806 140,290 118.22395,280.98006 89.121161,293.78174 69.999999,279.99999 57.906717,271.28365 54.60994,254.17641 50,240 43.729803,220.71799 38.414001,200.21375 39.999999,180 40.82452,169.49137 45.216764,159.39318 50,150 63.01181,124.4478 79.399857,99.946335 100,79.999998 c 8.63428,-8.360244 30,-20 30,-20 0,0 32.15342,-18.070838 50,-19.999999 20.15844,-2.179066 40.47407,4.536556 60,10.000001 17.28661,4.836873 37.30705,7.307042 50,19.999999 12.69295,12.692956 15.16311,32.713391 19.99998,50.000001 5.46344,19.52593 8.32764,39.79321 10.00001,60 1.64961,19.93185 6.32455,41.02633 0,60 -5.27046,15.81138 -19.07996,27.40909 -29.99999,39.99999 -12.3546,14.24498 -24.70307,28.97459 -40,40 -6.04664,4.35818 -12.61239,9.01067 -20,10.00001 -16.84634,2.25603 -34.48358,-3.06246 -50,-10.00001 z"
           style="fill:none;stroke:#000000;stroke-width:0.264583px;stroke-linecap:butt;stroke-linejoin:miter;stroke-opacity:1" />
        <path
           transform="scale(0.26458333)"
           id="path1463"
           d="m 155.21242,665.95655 c 8.77929,-60.55369 82.39335,-195.24616 157.41205,-288.01856 50.61784,-62.59691 80.21476,-89.20929 140.01517,-125.8961 38.27157,-23.47913 113.71174,-62.42534 114.62068,-59.17325 2.60495,9.32019 109.49043,481.68116 109.49043,483.87302 0,1.79006 -93.59226,2.78632 -261.75298,2.78632 H 153.24479 Z"
           style="opacity:0.102041;fill:#000000;fill-opacity:1;stroke:#000000;stroke-width:2.85714;stroke-miterlimit:3.9;stroke-dasharray:none" />
        <path
           transform="scale(0.26458333)"
           id="path1465"
           d="M 625.4768,430.22813 C 596.49041,302.55733 572.27989,196.02751 571.67564,193.4952 c -0.8083,-3.38747 4.05861,-6.68884 18.41681,-12.49262 29.31653,-11.85016 64.36229,-23.44156 77.67303,-25.6904 l 11.84241,-2.00076 v 254.53685 c 0,139.99528 -0.32142,254.53048 -0.71428,254.52271 -0.39286,-0.009 -24.43042,-104.47206 -53.41681,-232.14285 z"
           style="opacity:0.102041;fill:#000000;fill-opacity:1;stroke:#000000;stroke-width:2.85714;stroke-miterlimit:3.9;stroke-dasharray:none" />
        <path
           transform="scale(0.26458333)"
           id="path1467"
           d="m 682.46504,415.54794 c 0,-235.47423 0.44391,-261.29323 4.51939,-262.85714 11.29266,-4.3334 64.14904,-0.12735 105.48061,8.39362 19.50716,4.02162 124.12664,31.58138 195.71428,51.55673 89.92918,25.09325 129.60138,61.76014 155.43828,143.6632 14.1935,44.99378 52.082,202.60965 49.2868,205.03311 -1.0938,0.94832 -503.89857,115.33337 -506.9733,115.33337 -2.69137,0 -3.46606,-58.36277 -3.46606,-261.12289 z"
           style="opacity:0.102041;fill:#000000;fill-opacity:1;stroke:#000000;stroke-width:2.85714;stroke-miterlimit:3.9;stroke-dasharray:none" />
        <path
           transform="scale(0.26458333)"
           id="path1469"
           d="m 869.88602,660.59678 c -1.06675,-10.41215 -1.48582,-19.38492 -0.93125,-19.93949 0.55456,-0.55456 71.64267,-17.1527 157.97353,-36.88475 86.3309,-19.73206 159.0759,-36.51598 161.6556,-37.29761 5.3079,-1.60826 8.3631,12.41637 13.7358,63.05305 1.6674,15.71428 3.6831,33.39285 4.4794,39.28571 l 1.4478,10.71429 H 1040.0362 871.82558 Z"
           style="opacity:0.102041;fill:#000000;fill-opacity:1;stroke:#000000;stroke-width:2.85714;stroke-miterlimit:3.9;stroke-dasharray:none" />
        <path
           transform="scale(0.26458333)"
           id="path1471"
           d="m 702.70313,678.46794 c 3.60108,-3.20649 157.84188,-36.25867 159.72111,-34.22655 1.23567,1.33619 3.12857,9.8223 4.20646,18.85801 l 1.9598,16.42858 h -83.53892 c -45.94641,0 -83.00321,-0.47702 -82.34845,-1.06004 z"
           style="opacity:0.102041;fill:#000000;fill-opacity:1;stroke:#000000;stroke-width:2.85714;stroke-miterlimit:3.9;stroke-dasharray:none" />
        <path
           transform="scale(0.26458333)"
           id="path1473"
           d="m 817.46504,1246.083 c -3.53572,-0.681 -6.44548,-1.4702 -6.46615,-1.7537 -0.0207,-0.2836 -28.76721,-126.5156 -63.88121,-280.51561 l -63.84363,-280 261.48522,-0.72932 c 143.81693,-0.40112 261.78023,-0.40112 262.14073,0 0.3606,0.40113 3.0069,20.65789 5.8806,45.01503 7.4377,63.03896 6.9797,134.11511 -1.0522,163.26722 -11.485,41.6859 -28.162,67.67666 -79.5522,123.98098 -17.1584,18.7992 -45.2779,50.2518 -62.4877,69.8947 -66.1283,75.4773 -127.37711,129.5206 -168.97473,149.0959 -24.44822,11.505 -59.1071,16.3947 -83.24873,11.7448 z"
           style="opacity:0.102041;fill:#000000;fill-opacity:1;stroke:#000000;stroke-width:2.85714;stroke-miterlimit:3.9;stroke-dasharray:none" />
        <path
           transform="scale(0.26458333)"
           id="path1475"
           d="m 775.32218,1239.4732 c -22.61519,-5.2313 -61.41762,-17.9077 -82.14286,-26.8352 l -10.71428,-4.6153 0.22556,-252.1045 c 0.12406,-138.65748 0.71329,-250.8188 1.30939,-249.24737 2.07647,5.47391 121.32219,531.18327 121.32219,534.86367 0,4.5979 -1.72444,4.4794 -30,-2.0613 z"
           style="opacity:0.102041;fill:#000000;fill-opacity:1;stroke:#000000;stroke-width:2.85714;stroke-miterlimit:3.9;stroke-dasharray:none" />
        <path
           transform="scale(0.26458333)"
           id="path1477"
           d="m 658.15549,1193.9978 c -9.41545,-6.1844 -29.98065,-23.2201 -45.7004,-37.8571 -52.05811,-48.4724 -67.93308,-58.9926 -103.0934,-68.319 -20.227,-5.3653 -30.02445,-5.9675 -92.92618,-5.7113 -79.11752,0.3223 -107.3696,-3.0181 -133.58572,-15.7944 -20.90634,-10.1887 -42.23905,-32.2034 -55.22812,-56.994 -17.08836,-32.61431 -68.69317,-201.99636 -63.09133,-207.08414 1.22123,-1.10916 116.00613,-27.93727 255.07755,-59.61802 139.07143,-31.68076 254.46429,-58.15352 256.42858,-58.82837 2.84005,-0.97574 3.57142,52.29113 3.57142,260.11189 0,143.73634 -0.975,261.33894 -2.16668,261.33894 -1.19169,0 -9.87026,-5.06 -19.28572,-11.2445 z"
           style="opacity:0.102041;fill:#000000;fill-opacity:1;stroke:#000000;stroke-width:2.85714;stroke-miterlimit:3.9;stroke-dasharray:none" />
        <path
           transform="scale(0.26458333)"
           id="path1479"
           d="m 161.25591,793.42356 c -6.00073,-18.28318 -11.62141,-104.74852 -7.10851,-109.35324 0.9253,-0.94412 114.71101,-1.3881 252.85714,-0.98661 l 251.17478,0.72998 -242.85714,55.49082 c -133.57143,30.51995 -245.09152,56.05868 -247.82242,56.75273 -2.73091,0.69404 -5.54064,-0.49111 -6.24385,-2.63368 z"
           style="opacity:0.102041;fill:#000000;fill-opacity:1;stroke:#000000;stroke-width:2.85714;stroke-miterlimit:3.9;stroke-dasharray:none" />
        <g
           transform="matrix(1.41111,0,0,1.41111,167.84116,183.62952)"
           ns1:version="1.0.1"
           ns1:texconverter="pdflatex"
           ns1:pdfconverter="inkscape"
           ns1:text="$\\mathbf{O}$"
           ns1:preamble="C:\\Users\\claum\\AppData\\Roaming\\inkscape\\extensions\\textext\\default_packages.tex"
           ns1:scale="4.0"
           ns1:alignment="middle center"
           ns1:jacobian_sqrt="1.41111"
           id="g1523">
          <defs
             id="id-cfb83a57-1944-4644-9eb4-2d4641e21e11">
            <g
               id="id-4b1f35ff-7811-449f-99e3-95627682a1e4">
              <symbol
                 id="id-9809cf78-5642-4109-aa4f-eed694206068"
                 overflow="visible">
                <path
                   id="id-0f6dfde1-9234-4624-b117-f8d9bd5ea560"
                   d=""
                   style="stroke:none" />
              </symbol>
              <symbol
                 id="id-2e4842f4-5fa1-4c4f-a2f1-adaf0a3948a6"
                 overflow="visible">
                <path
                   id="id-acc3356c-4477-44f8-9ef1-e35775498700"
                   d="m 7.96875,-3.375 c 0,-2.15625 -1.453125,-3.578125 -3.65625,-3.578125 -2.28125,0 -3.671875,1.484375 -3.671875,3.578125 0,2.0625 1.390625,3.484375 3.65625,3.484375 2.296875,0 3.671875,-1.4375 3.671875,-3.484375 z m -3.671875,3.0625 c -0.59375,0 -1.3125,-0.28125 -1.71875,-1.03125 C 2.25,-1.96875 2.15625,-2.671875 2.15625,-3.53125 c 0,-0.640625 0.03125,-1.484375 0.46875,-2.15625 0.421875,-0.609375 1.078125,-0.859375 1.671875,-0.859375 0.640625,0 1.328125,0.28125 1.71875,0.9375 0.390625,0.640625 0.421875,1.40625 0.421875,2.078125 0,0.703125 -0.03125,1.59375 -0.453125,2.28125 -0.453125,0.71875 -1.15625,0.9375 -1.6875,0.9375 z m 0,0"
                   style="stroke:none" />
              </symbol>
            </g>
          </defs>
          <g
             transform="translate(-149.353,-127.812)"
             id="id-ba9387b1-1897-4ac8-89f8-50e378d89a4f">
            <g
               id="id-98196c3a-2558-4e48-83ed-6468b179d810"
               style="fill:#000000;fill-opacity:1">
              <g
                 transform="translate(148.712,134.765)"
                 id="g1519">
                <path
                   id="id-c91796bf-4210-4a15-a768-8454e473b714"
                   d="m 7.96875,-3.375 c 0,-2.15625 -1.453125,-3.578125 -3.65625,-3.578125 -2.28125,0 -3.671875,1.484375 -3.671875,3.578125 0,2.0625 1.390625,3.484375 3.65625,3.484375 2.296875,0 3.671875,-1.4375 3.671875,-3.484375 z m -3.671875,3.0625 c -0.59375,0 -1.3125,-0.28125 -1.71875,-1.03125 C 2.25,-1.96875 2.15625,-2.671875 2.15625,-3.53125 c 0,-0.640625 0.03125,-1.484375 0.46875,-2.15625 0.421875,-0.609375 1.078125,-0.859375 1.671875,-0.859375 0.640625,0 1.328125,0.28125 1.71875,0.9375 0.390625,0.640625 0.421875,1.40625 0.421875,2.078125 0,0.703125 -0.03125,1.59375 -0.453125,2.28125 -0.453125,0.71875 -1.15625,0.9375 -1.6875,0.9375 z m 0,0"
                   style="stroke:none" />
              </g>
            </g>
          </g>
        </g>
      </g>
    </g>
    <g
       transform="matrix(1.41111,0,0,1.41111,348.80452,185.78907)"
       ns1:version="1.0.1"
       ns1:texconverter="pdflatex"
       ns1:pdfconverter="inkscape"
       ns1:text="$x$"
       ns1:preamble="C:\\Users\\claum\\AppData\\Roaming\\inkscape\\extensions\\textext\\default_packages.tex"
       ns1:scale="4.0"
       ns1:alignment="middle center"
       ns1:jacobian_sqrt="1.41111"
       id="g1757">
      <defs
         id="id-d5b1d9b5-3396-4581-a992-dc39383bfe98">
        <g
           id="id-d9bf0f40-cf16-4f21-85b8-07ef7540d962">
          <symbol
             id="id-3dacb2e0-1a9c-49a5-9489-ddc51d15d84d"
             overflow="visible">
            <path
               id="id-7aa1862b-4fc3-4fcf-ac04-5822d5ca7fbb"
               d=""
               style="stroke:none" />
          </symbol>
          <symbol
             id="id-2b77c538-c918-4b19-a2a7-7d09928f8c1e"
             overflow="visible">
            <path
               id="id-d42cd3ac-331c-4dd1-9c32-30303122ac53"
               d="M 3.328125,-3.015625 C 3.390625,-3.265625 3.625,-4.1875 4.3125,-4.1875 c 0.046875,0 0.296875,0 0.5,0.125 C 4.53125,-4 4.34375,-3.765625 4.34375,-3.515625 c 0,0.15625 0.109375,0.34375 0.375,0.34375 0.21875,0 0.53125,-0.171875 0.53125,-0.578125 0,-0.515625 -0.578125,-0.65625 -0.921875,-0.65625 -0.578125,0 -0.921875,0.53125 -1.046875,0.75 -0.25,-0.65625 -0.78125,-0.75 -1.078125,-0.75 -1.03125,0 -1.609375,1.28125 -1.609375,1.53125 0,0.109375 0.109375,0.109375 0.125,0.109375 0.078125,0 0.109375,-0.03125 0.125,-0.109375 0.34375,-1.0625 1,-1.3125 1.34375,-1.3125 0.1875,0 0.53125,0.09375 0.53125,0.671875 0,0.3125 -0.171875,0.96875 -0.53125,2.375 -0.15625,0.609375 -0.515625,1.03125 -0.953125,1.03125 -0.0625,0 -0.28125,0 -0.5,-0.125 0.25,-0.0625 0.46875,-0.265625 0.46875,-0.546875 0,-0.265625 -0.21875,-0.34375 -0.359375,-0.34375 -0.3125,0 -0.546875,0.25 -0.546875,0.578125 0,0.453125 0.484375,0.65625 0.921875,0.65625 0.671875,0 1.03125,-0.703125 1.046875,-0.75 0.125,0.359375 0.484375,0.75 1.078125,0.75 1.03125,0 1.59375,-1.28125 1.59375,-1.53125 0,-0.109375 -0.078125,-0.109375 -0.109375,-0.109375 -0.09375,0 -0.109375,0.046875 -0.140625,0.109375 -0.328125,1.078125 -1,1.3125 -1.3125,1.3125 -0.390625,0 -0.546875,-0.3125 -0.546875,-0.65625 0,-0.21875 0.046875,-0.4375 0.15625,-0.875 z m 0,0"
               style="stroke:none" />
          </symbol>
        </g>
      </defs>
      <g
         transform="translate(-149.009,-130.359)"
         id="id-c32bc041-b406-4246-9881-82a47defcf1d">
        <g
           id="id-4a5e9b56-9316-4733-8ef4-7f15b6408af1"
           style="fill:#000000;fill-opacity:1">
          <g
             transform="translate(148.712,134.765)"
             id="g1753">
            <path
               id="id-c3c6bc60-bf40-45e2-a9e1-03bcd4b49a4f"
               d="M 3.328125,-3.015625 C 3.390625,-3.265625 3.625,-4.1875 4.3125,-4.1875 c 0.046875,0 0.296875,0 0.5,0.125 C 4.53125,-4 4.34375,-3.765625 4.34375,-3.515625 c 0,0.15625 0.109375,0.34375 0.375,0.34375 0.21875,0 0.53125,-0.171875 0.53125,-0.578125 0,-0.515625 -0.578125,-0.65625 -0.921875,-0.65625 -0.578125,0 -0.921875,0.53125 -1.046875,0.75 -0.25,-0.65625 -0.78125,-0.75 -1.078125,-0.75 -1.03125,0 -1.609375,1.28125 -1.609375,1.53125 0,0.109375 0.109375,0.109375 0.125,0.109375 0.078125,0 0.109375,-0.03125 0.125,-0.109375 0.34375,-1.0625 1,-1.3125 1.34375,-1.3125 0.1875,0 0.53125,0.09375 0.53125,0.671875 0,0.3125 -0.171875,0.96875 -0.53125,2.375 -0.15625,0.609375 -0.515625,1.03125 -0.953125,1.03125 -0.0625,0 -0.28125,0 -0.5,-0.125 0.25,-0.0625 0.46875,-0.265625 0.46875,-0.546875 0,-0.265625 -0.21875,-0.34375 -0.359375,-0.34375 -0.3125,0 -0.546875,0.25 -0.546875,0.578125 0,0.453125 0.484375,0.65625 0.921875,0.65625 0.671875,0 1.03125,-0.703125 1.046875,-0.75 0.125,0.359375 0.484375,0.75 1.078125,0.75 1.03125,0 1.59375,-1.28125 1.59375,-1.53125 0,-0.109375 -0.078125,-0.109375 -0.109375,-0.109375 -0.09375,0 -0.109375,0.046875 -0.140625,0.109375 -0.328125,1.078125 -1,1.3125 -1.3125,1.3125 -0.390625,0 -0.546875,-0.3125 -0.546875,-0.65625 0,-0.21875 0.046875,-0.4375 0.15625,-0.875 z m 0,0"
               style="stroke:none" />
          </g>
        </g>
      </g>
    </g>
    <g
       transform="matrix(1.41111 0 0 1.41111 345.943 143.85)"
       ns1:version="1.0.1"
       ns1:texconverter="pdflatex"
       ns1:pdfconverter="inkscape"
       ns1:text="$x'$"
       ns1:preamble="C:\\Users\\claum\\AppData\\Roaming\\inkscape\\extensions\\textext\\default_packages.tex"
       ns1:scale="4.0"
       ns1:alignment="middle center"
       ns1:jacobian_sqrt="1.41111"
       id="g1869">
      <defs
         id="id-2a186dbd-121a-44b7-a18f-04e3708a037a">
        <g
           id="id-c6bda257-83c3-411b-819d-7cdb7ca5c8db">
          <symbol
             id="id-c71d411a-8f36-4219-85af-1cde2cb14641"
             overflow="visible">
            <path
               id="id-10f887d8-04b1-4aad-b340-f8fc56298c6e"
               d=""
               style="stroke:none" />
          </symbol>
          <symbol
             id="id-4f6bd9b4-77c4-4670-8b4d-450d53ff5635"
             overflow="visible">
            <path
               id="id-f018322a-a51b-4e58-803d-f147f0f1f602"
               d="M 3.328125,-3.015625 C 3.390625,-3.265625 3.625,-4.1875 4.3125,-4.1875 c 0.046875,0 0.296875,0 0.5,0.125 C 4.53125,-4 4.34375,-3.765625 4.34375,-3.515625 c 0,0.15625 0.109375,0.34375 0.375,0.34375 0.21875,0 0.53125,-0.171875 0.53125,-0.578125 0,-0.515625 -0.578125,-0.65625 -0.921875,-0.65625 -0.578125,0 -0.921875,0.53125 -1.046875,0.75 -0.25,-0.65625 -0.78125,-0.75 -1.078125,-0.75 -1.03125,0 -1.609375,1.28125 -1.609375,1.53125 0,0.109375 0.109375,0.109375 0.125,0.109375 0.078125,0 0.109375,-0.03125 0.125,-0.109375 0.34375,-1.0625 1,-1.3125 1.34375,-1.3125 0.1875,0 0.53125,0.09375 0.53125,0.671875 0,0.3125 -0.171875,0.96875 -0.53125,2.375 -0.15625,0.609375 -0.515625,1.03125 -0.953125,1.03125 -0.0625,0 -0.28125,0 -0.5,-0.125 0.25,-0.0625 0.46875,-0.265625 0.46875,-0.546875 0,-0.265625 -0.21875,-0.34375 -0.359375,-0.34375 -0.3125,0 -0.546875,0.25 -0.546875,0.578125 0,0.453125 0.484375,0.65625 0.921875,0.65625 0.671875,0 1.03125,-0.703125 1.046875,-0.75 0.125,0.359375 0.484375,0.75 1.078125,0.75 1.03125,0 1.59375,-1.28125 1.59375,-1.53125 0,-0.109375 -0.078125,-0.109375 -0.109375,-0.109375 -0.09375,0 -0.109375,0.046875 -0.140625,0.109375 -0.328125,1.078125 -1,1.3125 -1.3125,1.3125 -0.390625,0 -0.546875,-0.3125 -0.546875,-0.65625 0,-0.21875 0.046875,-0.4375 0.15625,-0.875 z m 0,0"
               style="stroke:none" />
          </symbol>
          <symbol
             id="id-7099292a-8bd7-4eea-bf8e-cee4f29fd6f7"
             overflow="visible">
            <path
               id="id-2f385995-4f47-4c19-a448-30a089845e67"
               d=""
               style="stroke:none" />
          </symbol>
          <symbol
             id="id-49dff864-441b-46c0-8376-6301442dd507"
             overflow="visible">
            <path
               id="id-8f248eef-b561-4b8d-9783-67fdefd85d4e"
               d="m 2.015625,-3.296875 c 0.0625,-0.109375 0.0625,-0.171875 0.0625,-0.21875 0,-0.21875 -0.1875,-0.375 -0.40625,-0.375 -0.265625,0 -0.34375,0.21875 -0.375,0.328125 L 0.375,-0.546875 c -0.015625,0.015625 -0.046875,0.09375 -0.046875,0.109375 0,0.078125 0.21875,0.15625 0.28125,0.15625 0.046875,0 0.046875,-0.015625 0.09375,-0.125 z m 0,0"
               style="stroke:none" />
          </symbol>
        </g>
      </defs>
      <g
         transform="translate(-149.009, -127.258)"
         id="id-6576db01-cbd6-47b7-9862-fa104d54cdc1">
        <g
           id="id-f6422249-5eb8-4242-ad40-559314ea15e7"
           style="fill:#000000;fill-opacity:1">
          <g
             transform="translate(148.712, 134.765)"
             id="g1861">
            <path
               id="id-70b04ac2-cf2f-4a48-ac38-47fff10c265b"
               d="M 3.328125,-3.015625 C 3.390625,-3.265625 3.625,-4.1875 4.3125,-4.1875 c 0.046875,0 0.296875,0 0.5,0.125 C 4.53125,-4 4.34375,-3.765625 4.34375,-3.515625 c 0,0.15625 0.109375,0.34375 0.375,0.34375 0.21875,0 0.53125,-0.171875 0.53125,-0.578125 0,-0.515625 -0.578125,-0.65625 -0.921875,-0.65625 -0.578125,0 -0.921875,0.53125 -1.046875,0.75 -0.25,-0.65625 -0.78125,-0.75 -1.078125,-0.75 -1.03125,0 -1.609375,1.28125 -1.609375,1.53125 0,0.109375 0.109375,0.109375 0.125,0.109375 0.078125,0 0.109375,-0.03125 0.125,-0.109375 0.34375,-1.0625 1,-1.3125 1.34375,-1.3125 0.1875,0 0.53125,0.09375 0.53125,0.671875 0,0.3125 -0.171875,0.96875 -0.53125,2.375 -0.15625,0.609375 -0.515625,1.03125 -0.953125,1.03125 -0.0625,0 -0.28125,0 -0.5,-0.125 0.25,-0.0625 0.46875,-0.265625 0.46875,-0.546875 0,-0.265625 -0.21875,-0.34375 -0.359375,-0.34375 -0.3125,0 -0.546875,0.25 -0.546875,0.578125 0,0.453125 0.484375,0.65625 0.921875,0.65625 0.671875,0 1.03125,-0.703125 1.046875,-0.75 0.125,0.359375 0.484375,0.75 1.078125,0.75 1.03125,0 1.59375,-1.28125 1.59375,-1.53125 0,-0.109375 -0.078125,-0.109375 -0.109375,-0.109375 -0.09375,0 -0.109375,0.046875 -0.140625,0.109375 -0.328125,1.078125 -1,1.3125 -1.3125,1.3125 -0.390625,0 -0.546875,-0.3125 -0.546875,-0.65625 0,-0.21875 0.046875,-0.4375 0.15625,-0.875 z m 0,0"
               style="stroke:none" />
          </g>
        </g>
        <g
           id="id-73835d85-a513-4177-bbcf-fcf6dce104f7"
           style="fill:#000000;fill-opacity:1">
          <g
             transform="translate(154.406, 131.149)"
             id="g1865">
            <path
               id="id-9985ed3f-af69-4bf2-b99f-3ea92c478a03"
               d="m 2.015625,-3.296875 c 0.0625,-0.109375 0.0625,-0.171875 0.0625,-0.21875 0,-0.21875 -0.1875,-0.375 -0.40625,-0.375 -0.265625,0 -0.34375,0.21875 -0.375,0.328125 L 0.375,-0.546875 c -0.015625,0.015625 -0.046875,0.09375 -0.046875,0.109375 0,0.078125 0.21875,0.15625 0.28125,0.15625 0.046875,0 0.046875,-0.015625 0.09375,-0.125 z m 0,0"
               style="stroke:none" />
          </g>
        </g>
      </g>
    </g>
    <g
       transform="matrix(1.41111 0 0 1.41111 127.042 5.2957)"
       ns1:version="1.0.1"
       ns1:texconverter="pdflatex"
       ns1:pdfconverter="inkscape"
       ns1:text="$y'$"
       ns1:preamble="C:\\Users\\claum\\AppData\\Roaming\\inkscape\\extensions\\textext\\default_packages.tex"
       ns1:scale="4.0"
       ns1:alignment="middle center"
       ns1:jacobian_sqrt="1.41111"
       id="g2020">
      <defs
         id="id-3b931f4a-d761-4a64-85d4-fe1f93647435">
        <g
           id="id-56d9107c-7ecf-438e-888c-8c800dd27bc7">
          <symbol
             id="id-4947fcab-1181-437a-b340-1b186bf31e2f"
             overflow="visible">
            <path
               id="id-84a6a0b1-1a19-4b06-877e-3632258b7cf9"
               d=""
               style="stroke:none" />
          </symbol>
          <symbol
             id="id-7e849a26-20bc-4bf1-b079-c4255c154f6d"
             overflow="visible">
            <path
               id="id-0654788c-33a3-496a-ac5f-e4dd84db26c4"
               d="m 4.84375,-3.796875 c 0.046875,-0.140625 0.046875,-0.15625 0.046875,-0.234375 0,-0.171875 -0.140625,-0.265625 -0.296875,-0.265625 -0.09375,0 -0.25,0.0625 -0.34375,0.203125 -0.015625,0.0625 -0.109375,0.359375 -0.140625,0.546875 -0.078125,0.25 -0.140625,0.53125 -0.203125,0.796875 l -0.453125,1.796875 c -0.03125,0.140625 -0.46875,0.84375 -1.125,0.84375 -0.5,0 -0.609375,-0.4375 -0.609375,-0.8125 C 1.71875,-1.375 1.890625,-2 2.21875,-2.875 2.375,-3.28125 2.421875,-3.390625 2.421875,-3.59375 c 0,-0.4375 -0.3125,-0.8125 -0.8125,-0.8125 -0.953125,0 -1.3125,1.453125 -1.3125,1.53125 0,0.109375 0.09375,0.109375 0.109375,0.109375 0.109375,0 0.109375,-0.03125 0.15625,-0.1875 0.28125,-0.9375 0.671875,-1.234375 1.015625,-1.234375 0.078125,0 0.25,0 0.25,0.3125 0,0.25 -0.109375,0.515625 -0.171875,0.703125 -0.40625,1.0625 -0.578125,1.625 -0.578125,2.09375 0,0.890625 0.625,1.1875 1.21875,1.1875 0.390625,0 0.71875,-0.171875 1,-0.453125 -0.125,0.515625 -0.25,1.015625 -0.640625,1.546875 -0.265625,0.328125 -0.640625,0.625 -1.09375,0.625 -0.140625,0 -0.59375,-0.03125 -0.765625,-0.421875 0.15625,0 0.296875,0 0.421875,-0.125 C 1.328125,1.203125 1.421875,1.0625 1.421875,0.875 1.421875,0.5625 1.15625,0.53125 1.0625,0.53125 0.828125,0.53125 0.5,0.6875 0.5,1.171875 c 0,0.5 0.4375,0.875 1.0625,0.875 1.015625,0 2.046875,-0.90625 2.328125,-2.03125 z m 0,0"
               style="stroke:none" />
          </symbol>
          <symbol
             id="id-93c13a89-ae2e-40e6-871a-9e84b1e65d5b"
             overflow="visible">
            <path
               id="id-03538ca1-413f-4b43-bb97-bb98fe2566dc"
               d=""
               style="stroke:none" />
          </symbol>
          <symbol
             id="id-3f790950-eaa5-4029-a386-a8631f5ec791"
             overflow="visible">
            <path
               id="id-00e33d7f-47cc-49f1-93be-5adb4517ccf0"
               d="m 2.015625,-3.296875 c 0.0625,-0.109375 0.0625,-0.171875 0.0625,-0.21875 0,-0.21875 -0.1875,-0.375 -0.40625,-0.375 -0.265625,0 -0.34375,0.21875 -0.375,0.328125 L 0.375,-0.546875 c -0.015625,0.015625 -0.046875,0.09375 -0.046875,0.109375 0,0.078125 0.21875,0.15625 0.28125,0.15625 0.046875,0 0.046875,-0.015625 0.09375,-0.125 z m 0,0"
               style="stroke:none" />
          </symbol>
        </g>
      </defs>
      <g
         transform="translate(-149.009, -127.258)"
         id="id-8145bb19-a102-4fce-b29c-b99cafc6c242">
        <g
           id="id-9234f4d7-a232-4953-82ad-e142dcab80a3"
           style="fill:#000000;fill-opacity:1">
          <g
             transform="translate(148.712, 134.765)"
             id="g2012">
            <path
               id="id-f5f7ee0d-633d-4985-a35b-995c7ad8ddca"
               d="m 4.84375,-3.796875 c 0.046875,-0.140625 0.046875,-0.15625 0.046875,-0.234375 0,-0.171875 -0.140625,-0.265625 -0.296875,-0.265625 -0.09375,0 -0.25,0.0625 -0.34375,0.203125 -0.015625,0.0625 -0.109375,0.359375 -0.140625,0.546875 -0.078125,0.25 -0.140625,0.53125 -0.203125,0.796875 l -0.453125,1.796875 c -0.03125,0.140625 -0.46875,0.84375 -1.125,0.84375 -0.5,0 -0.609375,-0.4375 -0.609375,-0.8125 C 1.71875,-1.375 1.890625,-2 2.21875,-2.875 2.375,-3.28125 2.421875,-3.390625 2.421875,-3.59375 c 0,-0.4375 -0.3125,-0.8125 -0.8125,-0.8125 -0.953125,0 -1.3125,1.453125 -1.3125,1.53125 0,0.109375 0.09375,0.109375 0.109375,0.109375 0.109375,0 0.109375,-0.03125 0.15625,-0.1875 0.28125,-0.9375 0.671875,-1.234375 1.015625,-1.234375 0.078125,0 0.25,0 0.25,0.3125 0,0.25 -0.109375,0.515625 -0.171875,0.703125 -0.40625,1.0625 -0.578125,1.625 -0.578125,2.09375 0,0.890625 0.625,1.1875 1.21875,1.1875 0.390625,0 0.71875,-0.171875 1,-0.453125 -0.125,0.515625 -0.25,1.015625 -0.640625,1.546875 -0.265625,0.328125 -0.640625,0.625 -1.09375,0.625 -0.140625,0 -0.59375,-0.03125 -0.765625,-0.421875 0.15625,0 0.296875,0 0.421875,-0.125 C 1.328125,1.203125 1.421875,1.0625 1.421875,0.875 1.421875,0.5625 1.15625,0.53125 1.0625,0.53125 0.828125,0.53125 0.5,0.6875 0.5,1.171875 c 0,0.5 0.4375,0.875 1.0625,0.875 1.015625,0 2.046875,-0.90625 2.328125,-2.03125 z m 0,0"
               style="stroke:none" />
          </g>
        </g>
        <g
           id="id-0c30842b-0618-4217-b22f-2133c1c77397"
           style="fill:#000000;fill-opacity:1">
          <g
             transform="translate(153.954, 131.149)"
             id="g2016">
            <path
               id="id-afba9a8e-b988-414a-89ec-a2b1fea7e55b"
               d="m 2.015625,-3.296875 c 0.0625,-0.109375 0.0625,-0.171875 0.0625,-0.21875 0,-0.21875 -0.1875,-0.375 -0.40625,-0.375 -0.265625,0 -0.34375,0.21875 -0.375,0.328125 L 0.375,-0.546875 c -0.015625,0.015625 -0.046875,0.09375 -0.046875,0.109375 0,0.078125 0.21875,0.15625 0.28125,0.15625 0.046875,0 0.046875,-0.015625 0.09375,-0.125 z m 0,0"
               style="stroke:none" />
          </g>
        </g>
      </g>
    </g>
    <g
       transform="matrix(1.41111,0,0,1.41111,170.76685,1.2677184)"
       ns1:version="1.0.1"
       ns1:texconverter="pdflatex"
       ns1:pdfconverter="inkscape"
       ns1:text="$y$"
       ns1:preamble="C:\\Users\\claum\\AppData\\Roaming\\inkscape\\extensions\\textext\\default_packages.tex"
       ns1:scale="4.0"
       ns1:alignment="middle center"
       ns1:jacobian_sqrt="1.41111"
       id="g2181">
      <defs
         id="id-9ee022af-425c-411f-97ec-55b241320aaa">
        <g
           id="id-78bd51f5-3618-44e6-8965-42d9039ffcf2">
          <symbol
             id="id-d1d6b336-fefa-45a8-a8e7-f27cf365b8a4"
             overflow="visible">
            <path
               id="id-645bb08d-53b0-445b-800f-1d326e66cd4a"
               d=""
               style="stroke:none" />
          </symbol>
          <symbol
             id="id-e2fad580-6772-49e7-946b-efed18459b55"
             overflow="visible">
            <path
               id="id-52ee342f-d11b-454b-9b6b-1e7c75bbd7f7"
               d="m 4.84375,-3.796875 c 0.046875,-0.140625 0.046875,-0.15625 0.046875,-0.234375 0,-0.171875 -0.140625,-0.265625 -0.296875,-0.265625 -0.09375,0 -0.25,0.0625 -0.34375,0.203125 -0.015625,0.0625 -0.109375,0.359375 -0.140625,0.546875 -0.078125,0.25 -0.140625,0.53125 -0.203125,0.796875 l -0.453125,1.796875 c -0.03125,0.140625 -0.46875,0.84375 -1.125,0.84375 -0.5,0 -0.609375,-0.4375 -0.609375,-0.8125 C 1.71875,-1.375 1.890625,-2 2.21875,-2.875 2.375,-3.28125 2.421875,-3.390625 2.421875,-3.59375 c 0,-0.4375 -0.3125,-0.8125 -0.8125,-0.8125 -0.953125,0 -1.3125,1.453125 -1.3125,1.53125 0,0.109375 0.09375,0.109375 0.109375,0.109375 0.109375,0 0.109375,-0.03125 0.15625,-0.1875 0.28125,-0.9375 0.671875,-1.234375 1.015625,-1.234375 0.078125,0 0.25,0 0.25,0.3125 0,0.25 -0.109375,0.515625 -0.171875,0.703125 -0.40625,1.0625 -0.578125,1.625 -0.578125,2.09375 0,0.890625 0.625,1.1875 1.21875,1.1875 0.390625,0 0.71875,-0.171875 1,-0.453125 -0.125,0.515625 -0.25,1.015625 -0.640625,1.546875 -0.265625,0.328125 -0.640625,0.625 -1.09375,0.625 -0.140625,0 -0.59375,-0.03125 -0.765625,-0.421875 0.15625,0 0.296875,0 0.421875,-0.125 C 1.328125,1.203125 1.421875,1.0625 1.421875,0.875 1.421875,0.5625 1.15625,0.53125 1.0625,0.53125 0.828125,0.53125 0.5,0.6875 0.5,1.171875 c 0,0.5 0.4375,0.875 1.0625,0.875 1.015625,0 2.046875,-0.90625 2.328125,-2.03125 z m 0,0"
               style="stroke:none" />
          </symbol>
        </g>
      </defs>
      <g
         transform="translate(-149.009,-130.359)"
         id="id-f0d777eb-074c-41bb-bbc2-9ba30cf59d98">
        <g
           id="id-8c8f8b07-619e-4f00-bb39-792e2973ba76"
           style="fill:#000000;fill-opacity:1">
          <g
             transform="translate(148.712,134.765)"
             id="g2177">
            <path
               id="id-0d7059c5-c69b-41dd-9664-ef7f250063d7"
               d="m 4.84375,-3.796875 c 0.046875,-0.140625 0.046875,-0.15625 0.046875,-0.234375 0,-0.171875 -0.140625,-0.265625 -0.296875,-0.265625 -0.09375,0 -0.25,0.0625 -0.34375,0.203125 -0.015625,0.0625 -0.109375,0.359375 -0.140625,0.546875 -0.078125,0.25 -0.140625,0.53125 -0.203125,0.796875 l -0.453125,1.796875 c -0.03125,0.140625 -0.46875,0.84375 -1.125,0.84375 -0.5,0 -0.609375,-0.4375 -0.609375,-0.8125 C 1.71875,-1.375 1.890625,-2 2.21875,-2.875 2.375,-3.28125 2.421875,-3.390625 2.421875,-3.59375 c 0,-0.4375 -0.3125,-0.8125 -0.8125,-0.8125 -0.953125,0 -1.3125,1.453125 -1.3125,1.53125 0,0.109375 0.09375,0.109375 0.109375,0.109375 0.109375,0 0.109375,-0.03125 0.15625,-0.1875 0.28125,-0.9375 0.671875,-1.234375 1.015625,-1.234375 0.078125,0 0.25,0 0.25,0.3125 0,0.25 -0.109375,0.515625 -0.171875,0.703125 -0.40625,1.0625 -0.578125,1.625 -0.578125,2.09375 0,0.890625 0.625,1.1875 1.21875,1.1875 0.390625,0 0.71875,-0.171875 1,-0.453125 -0.125,0.515625 -0.25,1.015625 -0.640625,1.546875 -0.265625,0.328125 -0.640625,0.625 -1.09375,0.625 -0.140625,0 -0.59375,-0.03125 -0.765625,-0.421875 0.15625,0 0.296875,0 0.421875,-0.125 C 1.328125,1.203125 1.421875,1.0625 1.421875,0.875 1.421875,0.5625 1.15625,0.53125 1.0625,0.53125 0.828125,0.53125 0.5,0.6875 0.5,1.171875 c 0,0.5 0.4375,0.875 1.0625,0.875 1.015625,0 2.046875,-0.90625 2.328125,-2.03125 z m 0,0"
               style="stroke:none" />
          </g>
        </g>
      </g>
    </g>
    <g
       transform="matrix(1.41111,0,0,1.41111,236.32431,169.4014)"
       ns1:version="1.0.1"
       ns1:texconverter="pdflatex"
       ns1:pdfconverter="inkscape"
       ns1:text="$\\varphi$"
       ns1:preamble="C:\\Users\\claum\\AppData\\Roaming\\inkscape\\extensions\\textext\\default_packages.tex"
       ns1:scale="4.0"
       ns1:alignment="middle center"
       ns1:jacobian_sqrt="1.41111"
       id="g2334">
      <defs
         id="id-48bae5b9-817f-467a-ab32-8f8ca18e82d9">
        <g
           id="id-bef17e65-2780-4042-8b71-7fd1c5a1727e">
          <symbol
             id="id-e1ba6d2d-a040-4cd6-85ab-60a8cbfa6b47"
             overflow="visible">
            <path
               id="id-f66150e5-bf0b-43d4-b07e-0d318b49c5b2"
               d=""
               style="stroke:none" />
          </symbol>
          <symbol
             id="id-5db16e9c-9285-4103-9201-64b35d8024cb"
             overflow="visible">
            <path
               id="id-882aaba3-4f8c-491b-81f3-5efd71d67997"
               d="M 1.6875,1.6875 C 1.65625,1.828125 1.640625,1.84375 1.640625,1.890625 c 0,0.21875 0.1875,0.28125 0.296875,0.28125 0.046875,0 0.265625,-0.03125 0.359375,-0.265625 C 2.328125,1.828125 2.375,1.5 2.65625,0.09375 c 0.078125,0 0.15625,0.015625 0.328125,0.015625 1.65625,0 3.1875,-1.5625 3.1875,-3.140625 0,-0.78125 -0.390625,-1.375 -1.140625,-1.375 -1.4375,0 -2.046875,1.9375 -2.640625,3.875 C 1.3125,-0.734375 0.75,-1.28125 0.75,-2 c 0,-0.28125 0.234375,-1.375 0.828125,-2.0625 0.09375,-0.09375 0.09375,-0.109375 0.09375,-0.140625 0,-0.03125 -0.03125,-0.09375 -0.125,-0.09375 -0.28125,0 -1.046875,1.453125 -1.046875,2.40625 0,0.9375 0.65625,1.65625 1.71875,1.90625 z m 1.390625,-2.15625 c -0.09375,0 -0.109375,0 -0.1875,-0.015625 -0.125,0 -0.125,0 -0.125,-0.03125 0,-0.015625 0.171875,-0.9375 0.1875,-1.078125 0.3125,-1.28125 1.09375,-2.234375 1.984375,-2.234375 0.6875,0 0.953125,0.53125 0.953125,1.015625 0,1.125 -1.28125,2.34375 -2.8125,2.34375 z m 0,0"
               style="stroke:none" />
          </symbol>
        </g>
      </defs>
      <g
         transform="translate(-149.212,-130.359)"
         id="id-345902d0-9209-4d02-aad8-24a3cb0794cd">
        <g
           id="id-44a62694-012f-4787-9321-20472821796b"
           style="fill:#000000;fill-opacity:1">
          <g
             transform="translate(148.712,134.765)"
             id="g2330">
            <path
               id="id-6f7d56f9-497b-4d8d-9bdd-f94f6d956951"
               d="M 1.6875,1.6875 C 1.65625,1.828125 1.640625,1.84375 1.640625,1.890625 c 0,0.21875 0.1875,0.28125 0.296875,0.28125 0.046875,0 0.265625,-0.03125 0.359375,-0.265625 C 2.328125,1.828125 2.375,1.5 2.65625,0.09375 c 0.078125,0 0.15625,0.015625 0.328125,0.015625 1.65625,0 3.1875,-1.5625 3.1875,-3.140625 0,-0.78125 -0.390625,-1.375 -1.140625,-1.375 -1.4375,0 -2.046875,1.9375 -2.640625,3.875 C 1.3125,-0.734375 0.75,-1.28125 0.75,-2 c 0,-0.28125 0.234375,-1.375 0.828125,-2.0625 0.09375,-0.09375 0.09375,-0.109375 0.09375,-0.140625 0,-0.03125 -0.03125,-0.09375 -0.125,-0.09375 -0.28125,0 -1.046875,1.453125 -1.046875,2.40625 0,0.9375 0.65625,1.65625 1.71875,1.90625 z m 1.390625,-2.15625 c -0.09375,0 -0.109375,0 -0.1875,-0.015625 -0.125,0 -0.125,0 -0.125,-0.03125 0,-0.015625 0.171875,-0.9375 0.1875,-1.078125 0.3125,-1.28125 1.09375,-2.234375 1.984375,-2.234375 0.6875,0 0.953125,0.53125 0.953125,1.015625 0,1.125 -1.28125,2.34375 -2.8125,2.34375 z m 0,0"
               style="stroke:none" />
          </g>
        </g>
      </g>
    </g>
  </g>
</svg>
