<?xml version="1.0" encoding="UTF-8" standalone="no"?>
<svg
   xmlns:ns1="http://www.iki.fi/pav/software/textext/"
   xmlns:dc="http://purl.org/dc/elements/1.1/"
   xmlns:cc="http://creativecommons.org/ns#"
   xmlns:rdf="http://www.w3.org/1999/02/22-rdf-syntax-ns#"
   xmlns:svg="http://www.w3.org/2000/svg"
   xmlns="http://www.w3.org/2000/svg"
   xmlns:sodipodi="http://sodipodi.sourceforge.net/DTD/sodipodi-0.dtd"
   xmlns:inkscape="http://www.inkscape.org/namespaces/inkscape"
   sodipodi:docname="Figura2_3.svg"
   inkscape:version="1.0 (4035a4fb49, 2020-05-01)"
   width="18cm"
   height="18cm"
   viewBox="0 0 180 180"
   version="1.1"
   id="svg8">
  <defs
     id="defs2">
    <marker
       inkscape:stockid="Arrow1Lend"
       orient="auto"
       refY="0"
       refX="0"
       id="marker1505"
       style="overflow:visible"
       inkscape:isstock="true">
      <path
         id="path1503"
         d="M 0,0 5,-5 -12.5,0 5,5 Z"
         style="fill:#000000;fill-opacity:1;fill-rule:evenodd;stroke:#000000;stroke-width:1pt;stroke-opacity:1"
         transform="matrix(-0.8,0,0,-0.8,-10,0)" />
    </marker>
    <marker
       inkscape:isstock="true"
       style="overflow:visible"
       id="marker1419"
       refX="0"
       refY="0"
       orient="auto"
       inkscape:stockid="Arrow1Lend">
      <path
         transform="matrix(-0.8,0,0,-0.8,-10,0)"
         style="fill:#000000;fill-opacity:1;fill-rule:evenodd;stroke:#000000;stroke-width:1pt;stroke-opacity:1"
         d="M 0,0 5,-5 -12.5,0 5,5 Z"
         id="path1417" />
    </marker>
    <marker
       inkscape:collect="always"
       inkscape:stockid="Arrow1Lend"
       orient="auto"
       refY="0"
       refX="0"
       id="marker1359"
       style="overflow:visible"
       inkscape:isstock="true">
      <path
         id="path1357"
         d="M 0,0 5,-5 -12.5,0 5,5 Z"
         style="fill:#000000;fill-opacity:1;fill-rule:evenodd;stroke:#000000;stroke-width:1pt;stroke-opacity:1"
         transform="matrix(-0.8,0,0,-0.8,-10,0)" />
    </marker>
    <marker
       inkscape:collect="always"
       inkscape:isstock="true"
       style="overflow:visible"
       id="marker1305"
       refX="0"
       refY="0"
       orient="auto"
       inkscape:stockid="Arrow1Lend">
      <path
         transform="matrix(-0.8,0,0,-0.8,-10,0)"
         style="fill:#000000;fill-opacity:1;fill-rule:evenodd;stroke:#000000;stroke-width:1pt;stroke-opacity:1"
         d="M 0,0 5,-5 -12.5,0 5,5 Z"
         id="path1303" />
    </marker>
    <marker
       inkscape:collect="always"
       inkscape:stockid="Arrow1Lend"
       orient="auto"
       refY="0"
       refX="0"
       id="marker1171"
       style="overflow:visible"
       inkscape:isstock="true">
      <path
         id="path1169"
         d="M 0,0 5,-5 -12.5,0 5,5 Z"
         style="fill:#000000;fill-opacity:1;fill-rule:evenodd;stroke:#000000;stroke-width:1pt;stroke-opacity:1"
         transform="matrix(-0.8,0,0,-0.8,-10,0)" />
    </marker>
    <marker
       inkscape:collect="always"
       inkscape:isstock="true"
       style="overflow:visible"
       id="Arrow1Lend"
       refX="0"
       refY="0"
       orient="auto"
       inkscape:stockid="Arrow1Lend">
      <path
         transform="matrix(-0.8,0,0,-0.8,-10,0)"
         style="fill:#000000;fill-opacity:1;fill-rule:evenodd;stroke:#000000;stroke-width:1pt;stroke-opacity:1"
         d="M 0,0 5,-5 -12.5,0 5,5 Z"
         id="path840" />
    </marker>
    <marker
       inkscape:isstock="true"
       style="overflow:visible"
       id="marker1115"
       refX="0"
       refY="0"
       orient="auto"
       inkscape:stockid="Arrow1Lstart">
      <path
         transform="matrix(0.8,0,0,0.8,10,0)"
         style="fill:#000000;fill-opacity:1;fill-rule:evenodd;stroke:#000000;stroke-width:1pt;stroke-opacity:1"
         d="M 0,0 5,-5 -12.5,0 5,5 Z"
         id="path1113" />
    </marker>
    <marker
       inkscape:isstock="true"
       style="overflow:visible"
       id="Arrow1Lstart"
       refX="0"
       refY="0"
       orient="auto"
       inkscape:stockid="Arrow1Lstart">
      <path
         transform="matrix(0.8,0,0,0.8,10,0)"
         style="fill:#000000;fill-opacity:1;fill-rule:evenodd;stroke:#000000;stroke-width:1pt;stroke-opacity:1"
         d="M 0,0 5,-5 -12.5,0 5,5 Z"
         id="path837" />
    </marker>
  </defs>
  <sodipodi:namedview
     inkscape:window-maximized="0"
     inkscape:window-y="0"
     inkscape:window-x="0"
     inkscape:window-height="738"
     inkscape:window-width="1366"
     units="cm"
     showgrid="true"
     inkscape:document-rotation="0"
     inkscape:current-layer="layer1"
     inkscape:document-units="mm"
     inkscape:cy="328.98938"
     inkscape:cx="388.46064"
     inkscape:zoom="0.7"
     inkscape:pageshadow="2"
     inkscape:pageopacity="0.0"
     borderopacity="1.0"
     bordercolor="#666666"
     pagecolor="#ffffff"
     id="base">
    <inkscape:grid
       units="cm"
       id="grid10"
       type="xygrid" />
  </sodipodi:namedview>
  <metadata
     id="metadata5">
    <rdf:RDF>
      <cc:Work
         rdf:about="">
        <dc:format>image/svg+xml</dc:format>
        <dc:type
           rdf:resource="http://purl.org/dc/dcmitype/StillImage" />
        <dc:title></dc:title>
      </cc:Work>
    </rdf:RDF>
  </metadata>
  <g
     id="layer1"
     inkscape:groupmode="layer"
     inkscape:label="Livello 1">
    <g
       transform="translate(0,-9.999999)"
       id="g2602">
      <g
         id="g1243"
         transform="translate(-70.132291,-5)">
        <path
           id="path12"
           d="M 95.132291,170 V 20"
           style="fill:none;stroke:#000000;stroke-width:0.265;stroke-linecap:butt;stroke-linejoin:miter;stroke-miterlimit:4;stroke-dasharray:none;stroke-opacity:1;marker-end:url(#Arrow1Lend)" />
        <path
           style="fill:none;stroke:#000000;stroke-width:0.265;stroke-linecap:butt;stroke-linejoin:miter;stroke-miterlimit:4;stroke-dasharray:none;stroke-opacity:1;marker-end:url(#marker1171)"
           d="M 95,170 H 245"
           id="path1167" />
      </g>
      <path
         style="fill:none;stroke:#000000;stroke-width:0.264583px;stroke-linecap:butt;stroke-linejoin:miter;stroke-opacity:1"
         d="M 25,165 160,69.999999 125,165 Z"
         id="path1269" />
      <path
         style="fill:none;stroke:#000000;stroke-width:0.264583;stroke-linecap:butt;stroke-linejoin:miter;stroke-miterlimit:4;stroke-dasharray:0.264583, 0.264583;stroke-dashoffset:0;stroke-opacity:1"
         d="M 160,69.999999 H 25"
         id="path1271" />
      <path
         style="fill:none;stroke:#000000;stroke-width:0.264583px;stroke-linecap:butt;stroke-linejoin:miter;stroke-opacity:1"
         d="M 25,69.999999 125,165 H 25 V 69.999999"
         id="path1273" />
      <path
         style="fill:none;stroke:#000000;stroke-width:0.264583px;stroke-linecap:butt;stroke-linejoin:miter;stroke-opacity:1"
         d="M 10,75 20,64.999999"
         id="path1275" />
      <path
         style="fill:none;stroke:#000000;stroke-width:0.264583px;stroke-linecap:butt;stroke-linejoin:miter;stroke-opacity:1"
         d="M 15,69.999999 V 165"
         id="path1277" />
      <path
         style="fill:none;stroke:#000000;stroke-width:0.264583px;stroke-linecap:butt;stroke-linejoin:miter;stroke-opacity:1"
         d="M 10,170 20,160"
         id="path1279" />
      <path
         style="fill:none;stroke:#000000;stroke-width:0.264583px;stroke-linecap:butt;stroke-linejoin:miter;stroke-opacity:1"
         d="M 20,180 30,170"
         id="path1281" />
      <path
         style="fill:none;stroke:#000000;stroke-width:0.264583px;stroke-linecap:butt;stroke-linejoin:miter;stroke-opacity:1"
         d="M 25,175 H 125"
         id="path1283" />
      <path
         style="fill:none;stroke:#000000;stroke-width:0.264583px;stroke-linecap:butt;stroke-linejoin:miter;stroke-opacity:1"
         d="m 120,180 10,-10"
         id="path1285" />
      <path
         style="fill:none;fill-opacity:1;stroke:#000000;stroke-width:0.264583px;stroke-linecap:butt;stroke-linejoin:miter;stroke-opacity:1"
         d="M 25,94.999999 H 155"
         id="path1287" />
      <path
         style="fill:none;fill-opacity:1;stroke:#000000;stroke-width:0.264583px;stroke-linecap:butt;stroke-linejoin:miter;stroke-opacity:1"
         d="M 25,105 H 155"
         id="path1289" />
      <path
         style="fill:none;stroke:#000000;stroke-width:0.264583;stroke-linecap:butt;stroke-linejoin:miter;stroke-miterlimit:4;stroke-dasharray:0.264583, 0.793749;stroke-dashoffset:0;stroke-opacity:1"
         d="M 25,100 H 165"
         id="path1291"
         sodipodi:nodetypes="cc" />
      <path
         style="fill:none;stroke:#000000;stroke-width:0.264583px;stroke-linecap:butt;stroke-linejoin:miter;stroke-opacity:1"
         d="M 160,105 170,94.999999"
         id="path1293" />
      <path
         style="fill:none;stroke:#000000;stroke-width:0.264583px;stroke-linecap:butt;stroke-linejoin:miter;stroke-opacity:1"
         d="M 165,165 V 100"
         id="path1297" />
      <path
         style="fill:none;stroke:#000000;stroke-width:0.264583px;stroke-linecap:butt;stroke-linejoin:miter;stroke-opacity:1"
         d="m 160,170 10,-10"
         id="path1299" />
      <path
         style="fill:none;stroke:#000000;stroke-width:0.264583px;stroke-linecap:butt;stroke-linejoin:miter;stroke-opacity:1;marker-end:url(#marker1305)"
         d="M 34.999998,115 V 105"
         id="path1301" />
      <path
         style="fill:none;stroke:#000000;stroke-width:0.264583px;stroke-linecap:butt;stroke-linejoin:miter;stroke-opacity:1;marker-end:url(#marker1359)"
         d="M 34.999998,84.999998 V 94.999999"
         id="path1349" />
      <path
         id="path1415"
         d="M 145,85 V 95.000001"
         style="fill:none;stroke:#000000;stroke-width:0.264583px;stroke-linecap:butt;stroke-linejoin:miter;stroke-opacity:1;marker-end:url(#marker1419)" />
      <path
         id="path1501"
         d="M 145,115 V 105"
         style="fill:none;stroke:#000000;stroke-width:0.264583px;stroke-linecap:butt;stroke-linejoin:miter;stroke-opacity:1;marker-end:url(#marker1505)" />
      <path
         style="fill:none;stroke:#000000;stroke-width:0.715411;stroke-miterlimit:4;stroke-dasharray:0.715411, 17.1699;stroke-dashoffset:0"
         d="m 95.282837,377.84907 v -17.84422 h 18.194073 c 13.67475,0 18.19407,0.21291 18.19407,0.85714 0,0.66667 0.19047,0.66667 0.85714,0 0.63954,-0.63954 8.49801,-0.85714 30.95531,-0.85714 h 30.09816 l 8.65323,8.2453 c 5.68899,5.4208 8.51575,8.60358 8.25188,9.29121 -0.27758,0.72337 0.0204,0.98914 0.96643,0.86184 0.91238,-0.12278 4.42311,2.7298 10.5446,8.56785 l 9.17683,8.75192 -67.94586,-0.0148 -67.945863,-0.0148 v -17.84422 z m 4.245283,0.0129 c 0,-0.39286 -0.321428,-0.71428 -0.714285,-0.71428 -0.392857,0 -0.714286,0.32142 -0.714286,0.71428 0,0.39286 0.321429,0.71429 0.714286,0.71429 0.392857,0 0.714285,-0.32143 0.714285,-0.71429 z m 4.28571,0 c 0,-0.39286 -0.32142,-0.71428 -0.71428,-0.71428 -0.39286,0 -0.71429,0.32142 -0.71429,0.71428 0,0.39286 0.32143,0.71429 0.71429,0.71429 0.39286,0 0.71428,-0.32143 0.71428,-0.71429 z m 4.28572,0 c 0,-0.39286 -0.48214,-0.71428 -1.07143,-0.71428 -0.58929,0 -1.07143,0.32142 -1.07143,0.71428 0,0.39286 0.48214,0.71429 1.07143,0.71429 0.58929,0 1.07143,-0.32143 1.07143,-0.71429 z m 3.57143,0 c 0,-0.39286 -0.32143,-0.71428 -0.71429,-0.71428 -0.39286,0 -0.71428,0.32142 -0.71428,0.71428 0,0.39286 0.32142,0.71429 0.71428,0.71429 0.39286,0 0.71429,-0.32143 0.71429,-0.71429 z m 4.28571,0 c 0,-0.39286 -0.48214,-0.71428 -1.07143,-0.71428 -0.58928,0 -1.07143,0.32142 -1.07143,0.71428 0,0.39286 0.48215,0.71429 1.07143,0.71429 0.58929,0 1.07143,-0.32143 1.07143,-0.71429 z m 3.57143,0 c 0,-0.39286 -0.32143,-0.71428 -0.71429,-0.71428 -0.39285,0 -0.71428,0.32142 -0.71428,0.71428 0,0.39286 0.32143,0.71429 0.71428,0.71429 0.39286,0 0.71429,-0.32143 0.71429,-0.71429 z m 4.28571,0 c 0,-0.39286 -0.32142,-0.71428 -0.71428,-0.71428 -0.39286,0 -0.71429,0.32142 -0.71429,0.71428 0,0.39286 0.32143,0.71429 0.71429,0.71429 0.39286,0 0.71428,-0.32143 0.71428,-0.71429 z m 4.28572,0 c 0,-0.39286 -0.48214,-0.71428 -1.07143,-0.71428 -0.58929,0 -1.07143,0.32142 -1.07143,0.71428 0,0.39286 0.48214,0.71429 1.07143,0.71429 0.58929,0 1.07143,-0.32143 1.07143,-0.71429 z m 3.57143,0 c 0,-0.39286 -0.32143,-0.71428 -0.71429,-0.71428 -0.39286,0 -0.71428,0.32142 -0.71428,0.71428 0,0.39286 0.32142,0.71429 0.71428,0.71429 0.39286,0 0.71429,-0.32143 0.71429,-0.71429 z m 4.28571,0 c 0,-0.39286 -0.48214,-0.71428 -1.07143,-0.71428 -0.58928,0 -1.07143,0.32142 -1.07143,0.71428 0,0.39286 0.48215,0.71429 1.07143,0.71429 0.58929,0 1.07143,-0.32143 1.07143,-0.71429 z m 3.57143,0 c 0,-0.39286 -0.32143,-0.71428 -0.71429,-0.71428 -0.39285,0 -0.71428,0.32142 -0.71428,0.71428 0,0.39286 0.32143,0.71429 0.71428,0.71429 0.39286,0 0.71429,-0.32143 0.71429,-0.71429 z m 4.28571,0 c 0,-0.39286 -0.32142,-0.71428 -0.71428,-0.71428 -0.39286,0 -0.71429,0.32142 -0.71429,0.71428 0,0.39286 0.32143,0.71429 0.71429,0.71429 0.39286,0 0.71428,-0.32143 0.71428,-0.71429 z m 4.28572,0 c 0,-0.39286 -0.48214,-0.71428 -1.07143,-0.71428 -0.58929,0 -1.07143,0.32142 -1.07143,0.71428 0,0.39286 0.48214,0.71429 1.07143,0.71429 0.58929,0 1.07143,-0.32143 1.07143,-0.71429 z m 3.57143,0 c 0,-0.39286 -0.32143,-0.71428 -0.71429,-0.71428 -0.39286,0 -0.71428,0.32142 -0.71428,0.71428 0,0.39286 0.32142,0.71429 0.71428,0.71429 0.39286,0 0.71429,-0.32143 0.71429,-0.71429 z m 4.28571,0 c 0,-0.39286 -0.48214,-0.71428 -1.07143,-0.71428 -0.58928,0 -1.07143,0.32142 -1.07143,0.71428 0,0.39286 0.48215,0.71429 1.07143,0.71429 0.58929,0 1.07143,-0.32143 1.07143,-0.71429 z m 3.57143,0 c 0,-0.39286 -0.32143,-0.71428 -0.71429,-0.71428 -0.39285,0 -0.71428,0.32142 -0.71428,0.71428 0,0.39286 0.32143,0.71429 0.71428,0.71429 0.39286,0 0.71429,-0.32143 0.71429,-0.71429 z m 4.28571,0 c 0,-0.39286 -0.32142,-0.71428 -0.71428,-0.71428 -0.39286,0 -0.71429,0.32142 -0.71429,0.71428 0,0.39286 0.32143,0.71429 0.71429,0.71429 0.39286,0 0.71428,-0.32143 0.71428,-0.71429 z m 4.28572,0 c 0,-0.39286 -0.48214,-0.71428 -1.07143,-0.71428 -0.58929,0 -1.07143,0.32142 -1.07143,0.71428 0,0.39286 0.48214,0.71429 1.07143,0.71429 0.58929,0 1.07143,-0.32143 1.07143,-0.71429 z m 3.57143,0 c 0,-0.39286 -0.32143,-0.71428 -0.71429,-0.71428 -0.39286,0 -0.71428,0.32142 -0.71428,0.71428 0,0.39286 0.32142,0.71429 0.71428,0.71429 0.39286,0 0.71429,-0.32143 0.71429,-0.71429 z m 4.28571,0 c 0,-0.39286 -0.48214,-0.71428 -1.07143,-0.71428 -0.58928,0 -1.07143,0.32142 -1.07143,0.71428 0,0.39286 0.48215,0.71429 1.07143,0.71429 0.58929,0 1.07143,-0.32143 1.07143,-0.71429 z m 3.57143,0 c 0,-0.39286 -0.32143,-0.71428 -0.71429,-0.71428 -0.39285,0 -0.71428,0.32142 -0.71428,0.71428 0,0.39286 0.32143,0.71429 0.71428,0.71429 0.39286,0 0.71429,-0.32143 0.71429,-0.71429 z m 4.28571,0 c 0,-0.39286 -0.32142,-0.71428 -0.71428,-0.71428 -0.39286,0 -0.71429,0.32142 -0.71429,0.71428 0,0.39286 0.32143,0.71429 0.71429,0.71429 0.39286,0 0.71428,-0.32143 0.71428,-0.71429 z m 4.28572,0 c 0,-0.39286 -0.48214,-0.71428 -1.07143,-0.71428 -0.58929,0 -1.07143,0.32142 -1.07143,0.71428 0,0.39286 0.48214,0.71429 1.07143,0.71429 0.58929,0 1.07143,-0.32143 1.07143,-0.71429 z m 3.57143,0 c 0,-0.39286 -0.32143,-0.71428 -0.71429,-0.71428 -0.39286,0 -0.71428,0.32142 -0.71428,0.71428 0,0.39286 0.32142,0.71429 0.71428,0.71429 0.39286,0 0.71429,-0.32143 0.71429,-0.71429 z m 4.28571,0 c 0,-0.39286 -0.48214,-0.71428 -1.07143,-0.71428 -0.58928,0 -1.07143,0.32142 -1.07143,0.71428 0,0.39286 0.48215,0.71429 1.07143,0.71429 0.58929,0 1.07143,-0.32143 1.07143,-0.71429 z m 3.57143,0 c 0,-0.39286 -0.32143,-0.71428 -0.71429,-0.71428 -0.39285,0 -0.71428,0.32142 -0.71428,0.71428 0,0.39286 0.32143,0.71429 0.71428,0.71429 0.39286,0 0.71429,-0.32143 0.71429,-0.71429 z m 4.28571,0 c 0,-0.39286 -0.32142,-0.71428 -0.71428,-0.71428 -0.39286,0 -0.71429,0.32142 -0.71429,0.71428 0,0.39286 0.32143,0.71429 0.71429,0.71429 0.39286,0 0.71428,-0.32143 0.71428,-0.71429 z m 4.28572,0 c 0,-0.39286 -0.48214,-0.71428 -1.07143,-0.71428 -0.58929,0 -1.07143,0.32142 -1.07143,0.71428 0,0.39286 0.48214,0.71429 1.07143,0.71429 0.58929,0 1.07143,-0.32143 1.07143,-0.71429 z"
         id="path1607"
         transform="scale(0.26458333)" />
      <path
         style="fill:none;stroke:#000000;stroke-width:0.715411;stroke-miterlimit:4;stroke-dasharray:0.715411, 17.1699;stroke-dashoffset:0"
         d="m 225.07962,387.32628 c -4.82118,-4.61607 -8.86971,-8.79465 -8.99673,-9.28572 -0.12702,-0.49107 -0.60916,-0.90898 -1.07143,-0.92869 -0.46227,-0.0197 -4.85834,-3.87395 -9.76905,-8.56499 l -8.92858,-8.52915 135.33164,-0.006 c 113.78769,-0.005 135.16513,0.14738 134.28572,0.95982 -0.57526,0.53145 -11.87936,8.56717 -25.12023,17.85715 l -24.07429,16.89087 H 325.29104 233.8454 Z m -5.5515,-9.46429 c 0,-0.39286 -0.32143,-0.71428 -0.71429,-0.71428 -0.39285,0 -0.71428,0.32142 -0.71428,0.71428 0,0.39286 0.32143,0.71429 0.71428,0.71429 0.39286,0 0.71429,-0.32143 0.71429,-0.71429 z m 4.28571,0 c 0,-0.39286 -0.32142,-0.71428 -0.71428,-0.71428 -0.39286,0 -0.71429,0.32142 -0.71429,0.71428 0,0.39286 0.32143,0.71429 0.71429,0.71429 0.39286,0 0.71428,-0.32143 0.71428,-0.71429 z m 4.28572,0 c 0,-0.39286 -0.48214,-0.71428 -1.07143,-0.71428 -0.58929,0 -1.07143,0.32142 -1.07143,0.71428 0,0.39286 0.48214,0.71429 1.07143,0.71429 0.58929,0 1.07143,-0.32143 1.07143,-0.71429 z m 3.57143,0 c 0,-0.39286 -0.32143,-0.71428 -0.71429,-0.71428 -0.39286,0 -0.71428,0.32142 -0.71428,0.71428 0,0.39286 0.32142,0.71429 0.71428,0.71429 0.39286,0 0.71429,-0.32143 0.71429,-0.71429 z m 4.28571,0 c 0,-0.39286 -0.48214,-0.71428 -1.07143,-0.71428 -0.58928,0 -1.07143,0.32142 -1.07143,0.71428 0,0.39286 0.48215,0.71429 1.07143,0.71429 0.58929,0 1.07143,-0.32143 1.07143,-0.71429 z m 3.57143,0 c 0,-0.39286 -0.32143,-0.71428 -0.71429,-0.71428 -0.39285,0 -0.71428,0.32142 -0.71428,0.71428 0,0.39286 0.32143,0.71429 0.71428,0.71429 0.39286,0 0.71429,-0.32143 0.71429,-0.71429 z m 4.28571,0 c 0,-0.39286 -0.32142,-0.71428 -0.71428,-0.71428 -0.39286,0 -0.71429,0.32142 -0.71429,0.71428 0,0.39286 0.32143,0.71429 0.71429,0.71429 0.39286,0 0.71428,-0.32143 0.71428,-0.71429 z m 4.28572,0 c 0,-0.39286 -0.48214,-0.71428 -1.07143,-0.71428 -0.58929,0 -1.07143,0.32142 -1.07143,0.71428 0,0.39286 0.48214,0.71429 1.07143,0.71429 0.58929,0 1.07143,-0.32143 1.07143,-0.71429 z m 3.57143,0 c 0,-0.39286 -0.32143,-0.71428 -0.71429,-0.71428 -0.39286,0 -0.71428,0.32142 -0.71428,0.71428 0,0.39286 0.32142,0.71429 0.71428,0.71429 0.39286,0 0.71429,-0.32143 0.71429,-0.71429 z m 4.28571,0 c 0,-0.39286 -0.48214,-0.71428 -1.07143,-0.71428 -0.58928,0 -1.07143,0.32142 -1.07143,0.71428 0,0.39286 0.48215,0.71429 1.07143,0.71429 0.58929,0 1.07143,-0.32143 1.07143,-0.71429 z m 3.57143,0 c 0,-0.39286 -0.32143,-0.71428 -0.71429,-0.71428 -0.39285,0 -0.71428,0.32142 -0.71428,0.71428 0,0.39286 0.32143,0.71429 0.71428,0.71429 0.39286,0 0.71429,-0.32143 0.71429,-0.71429 z m 4.28571,0 c 0,-0.39286 -0.32142,-0.71428 -0.71428,-0.71428 -0.39286,0 -0.71429,0.32142 -0.71429,0.71428 0,0.39286 0.32143,0.71429 0.71429,0.71429 0.39286,0 0.71428,-0.32143 0.71428,-0.71429 z m 4.28572,0 c 0,-0.39286 -0.48214,-0.71428 -1.07143,-0.71428 -0.58929,0 -1.07143,0.32142 -1.07143,0.71428 0,0.39286 0.48214,0.71429 1.07143,0.71429 0.58929,0 1.07143,-0.32143 1.07143,-0.71429 z m 3.57143,0 c 0,-0.39286 -0.32143,-0.71428 -0.71429,-0.71428 -0.39286,0 -0.71428,0.32142 -0.71428,0.71428 0,0.39286 0.32142,0.71429 0.71428,0.71429 0.39286,0 0.71429,-0.32143 0.71429,-0.71429 z m 4.28571,0 c 0,-0.39286 -0.48214,-0.71428 -1.07143,-0.71428 -0.58928,0 -1.07143,0.32142 -1.07143,0.71428 0,0.39286 0.48215,0.71429 1.07143,0.71429 0.58929,0 1.07143,-0.32143 1.07143,-0.71429 z m 3.57143,0 c 0,-0.39286 -0.32143,-0.71428 -0.71429,-0.71428 -0.39285,0 -0.71428,0.32142 -0.71428,0.71428 0,0.39286 0.32143,0.71429 0.71428,0.71429 0.39286,0 0.71429,-0.32143 0.71429,-0.71429 z m 4.28571,0 c 0,-0.39286 -0.32142,-0.71428 -0.71428,-0.71428 -0.39286,0 -0.71429,0.32142 -0.71429,0.71428 0,0.39286 0.32143,0.71429 0.71429,0.71429 0.39286,0 0.71428,-0.32143 0.71428,-0.71429 z m 4.28572,0 c 0,-0.39286 -0.48214,-0.71428 -1.07143,-0.71428 -0.58929,0 -1.07143,0.32142 -1.07143,0.71428 0,0.39286 0.48214,0.71429 1.07143,0.71429 0.58929,0 1.07143,-0.32143 1.07143,-0.71429 z m 3.57143,0 c 0,-0.39286 -0.32143,-0.71428 -0.71429,-0.71428 -0.39286,0 -0.71428,0.32142 -0.71428,0.71428 0,0.39286 0.32142,0.71429 0.71428,0.71429 0.39286,0 0.71429,-0.32143 0.71429,-0.71429 z m 4.28571,0 c 0,-0.39286 -0.48214,-0.71428 -1.07143,-0.71428 -0.58928,0 -1.07143,0.32142 -1.07143,0.71428 0,0.39286 0.48215,0.71429 1.07143,0.71429 0.58929,0 1.07143,-0.32143 1.07143,-0.71429 z m 3.57143,0 c 0,-0.39286 -0.32143,-0.71428 -0.71429,-0.71428 -0.39285,0 -0.71428,0.32142 -0.71428,0.71428 0,0.39286 0.32143,0.71429 0.71428,0.71429 0.39286,0 0.71429,-0.32143 0.71429,-0.71429 z m 4.28571,0 c 0,-0.39286 -0.32142,-0.71428 -0.71428,-0.71428 -0.39286,0 -0.71429,0.32142 -0.71429,0.71428 0,0.39286 0.32143,0.71429 0.71429,0.71429 0.39286,0 0.71428,-0.32143 0.71428,-0.71429 z m 4.28572,0 c 0,-0.39286 -0.48214,-0.71428 -1.07143,-0.71428 -0.58929,0 -1.07143,0.32142 -1.07143,0.71428 0,0.39286 0.48214,0.71429 1.07143,0.71429 0.58929,0 1.07143,-0.32143 1.07143,-0.71429 z m 3.57143,0 c 0,-0.39286 -0.32143,-0.71428 -0.71429,-0.71428 -0.39286,0 -0.71428,0.32142 -0.71428,0.71428 0,0.39286 0.32142,0.71429 0.71428,0.71429 0.39286,0 0.71429,-0.32143 0.71429,-0.71429 z m 4.28571,0 c 0,-0.39286 -0.48214,-0.71428 -1.07143,-0.71428 -0.58928,0 -1.07143,0.32142 -1.07143,0.71428 0,0.39286 0.48215,0.71429 1.07143,0.71429 0.58929,0 1.07143,-0.32143 1.07143,-0.71429 z m 3.57143,0 c 0,-0.39286 -0.32143,-0.71428 -0.71429,-0.71428 -0.39285,0 -0.71428,0.32142 -0.71428,0.71428 0,0.39286 0.32143,0.71429 0.71428,0.71429 0.39286,0 0.71429,-0.32143 0.71429,-0.71429 z m 4.28572,0 c 0,-0.39286 -0.32143,-0.71428 -0.71429,-0.71428 -0.39286,0 -0.71429,0.32142 -0.71429,0.71428 0,0.39286 0.32143,0.71429 0.71429,0.71429 0.39286,0 0.71429,-0.32143 0.71429,-0.71429 z m 4.28571,0 c 0,-0.39286 -0.48214,-0.71428 -1.07143,-0.71428 -0.58928,0 -1.07143,0.32142 -1.07143,0.71428 0,0.39286 0.48215,0.71429 1.07143,0.71429 0.58929,0 1.07143,-0.32143 1.07143,-0.71429 z m 3.57143,0 c 0,-0.39286 -0.32143,-0.71428 -0.71429,-0.71428 -0.39285,0 -0.71428,0.32142 -0.71428,0.71428 0,0.39286 0.32143,0.71429 0.71428,0.71429 0.39286,0 0.71429,-0.32143 0.71429,-0.71429 z m 4.28571,0 c 0,-0.39286 -0.48214,-0.71428 -1.07143,-0.71428 -0.58928,0 -1.07142,0.32142 -1.07142,0.71428 0,0.39286 0.48214,0.71429 1.07142,0.71429 0.58929,0 1.07143,-0.32143 1.07143,-0.71429 z m 3.57143,0 c 0,-0.39286 -0.32143,-0.71428 -0.71428,-0.71428 -0.39286,0 -0.71429,0.32142 -0.71429,0.71428 0,0.39286 0.32143,0.71429 0.71429,0.71429 0.39285,0 0.71428,-0.32143 0.71428,-0.71429 z m 4.28572,0 c 0,-0.39286 -0.32143,-0.71428 -0.71429,-0.71428 -0.39286,0 -0.71429,0.32142 -0.71429,0.71428 0,0.39286 0.32143,0.71429 0.71429,0.71429 0.39286,0 0.71429,-0.32143 0.71429,-0.71429 z m 4.28571,0 c 0,-0.39286 -0.48214,-0.71428 -1.07143,-0.71428 -0.58928,0 -1.07143,0.32142 -1.07143,0.71428 0,0.39286 0.48215,0.71429 1.07143,0.71429 0.58929,0 1.07143,-0.32143 1.07143,-0.71429 z m 3.57143,0 c 0,-0.39286 -0.32143,-0.71428 -0.71429,-0.71428 -0.39285,0 -0.71428,0.32142 -0.71428,0.71428 0,0.39286 0.32143,0.71429 0.71428,0.71429 0.39286,0 0.71429,-0.32143 0.71429,-0.71429 z m 4.28571,0 c 0,-0.39286 -0.48214,-0.71428 -1.07143,-0.71428 -0.58928,0 -1.07142,0.32142 -1.07142,0.71428 0,0.39286 0.48214,0.71429 1.07142,0.71429 0.58929,0 1.07143,-0.32143 1.07143,-0.71429 z m 3.57143,0 c 0,-0.39286 -0.32143,-0.71428 -0.71428,-0.71428 -0.39286,0 -0.71429,0.32142 -0.71429,0.71428 0,0.39286 0.32143,0.71429 0.71429,0.71429 0.39285,0 0.71428,-0.32143 0.71428,-0.71429 z m 4.28572,0 c 0,-0.39286 -0.32143,-0.71428 -0.71429,-0.71428 -0.39286,0 -0.71429,0.32142 -0.71429,0.71428 0,0.39286 0.32143,0.71429 0.71429,0.71429 0.39286,0 0.71429,-0.32143 0.71429,-0.71429 z m 4.28571,0 c 0,-0.39286 -0.48214,-0.71428 -1.07143,-0.71428 -0.58928,0 -1.07143,0.32142 -1.07143,0.71428 0,0.39286 0.48215,0.71429 1.07143,0.71429 0.58929,0 1.07143,-0.32143 1.07143,-0.71429 z m 3.57143,0 c 0,-0.39286 -0.32143,-0.71428 -0.71429,-0.71428 -0.39285,0 -0.71428,0.32142 -0.71428,0.71428 0,0.39286 0.32143,0.71429 0.71428,0.71429 0.39286,0 0.71429,-0.32143 0.71429,-0.71429 z m 4.28571,0 c 0,-0.39286 -0.48214,-0.71428 -1.07143,-0.71428 -0.58928,0 -1.07142,0.32142 -1.07142,0.71428 0,0.39286 0.48214,0.71429 1.07142,0.71429 0.58929,0 1.07143,-0.32143 1.07143,-0.71429 z m 3.57143,0 c 0,-0.39286 -0.32143,-0.71428 -0.71428,-0.71428 -0.39286,0 -0.71429,0.32142 -0.71429,0.71428 0,0.39286 0.32143,0.71429 0.71429,0.71429 0.39285,0 0.71428,-0.32143 0.71428,-0.71429 z m 4.28572,0 c 0,-0.39286 -0.32143,-0.71428 -0.71429,-0.71428 -0.39286,0 -0.71429,0.32142 -0.71429,0.71428 0,0.39286 0.32143,0.71429 0.71429,0.71429 0.39286,0 0.71429,-0.32143 0.71429,-0.71429 z m 4.28571,0 c 0,-0.39286 -0.48214,-0.71428 -1.07143,-0.71428 -0.58928,0 -1.07143,0.32142 -1.07143,0.71428 0,0.39286 0.48215,0.71429 1.07143,0.71429 0.58929,0 1.07143,-0.32143 1.07143,-0.71429 z m 3.57143,0 c 0,-0.39286 -0.32143,-0.71428 -0.71429,-0.71428 -0.39285,0 -0.71428,0.32142 -0.71428,0.71428 0,0.39286 0.32143,0.71429 0.71428,0.71429 0.39286,0 0.71429,-0.32143 0.71429,-0.71429 z m 4.28571,0 c 0,-0.39286 -0.48214,-0.71428 -1.07143,-0.71428 -0.58928,0 -1.07142,0.32142 -1.07142,0.71428 0,0.39286 0.48214,0.71429 1.07142,0.71429 0.58929,0 1.07143,-0.32143 1.07143,-0.71429 z m 3.57143,0 c 0,-0.39286 -0.32143,-0.71428 -0.71428,-0.71428 -0.39286,0 -0.71429,0.32142 -0.71429,0.71428 0,0.39286 0.32143,0.71429 0.71429,0.71429 0.39285,0 0.71428,-0.32143 0.71428,-0.71429 z m 4.28572,0 c 0,-0.39286 -0.32143,-0.71428 -0.71429,-0.71428 -0.39286,0 -0.71429,0.32142 -0.71429,0.71428 0,0.39286 0.32143,0.71429 0.71429,0.71429 0.39286,0 0.71429,-0.32143 0.71429,-0.71429 z m 4.28571,0 c 0,-0.39286 -0.48214,-0.71428 -1.07143,-0.71428 -0.58928,0 -1.07143,0.32142 -1.07143,0.71428 0,0.39286 0.48215,0.71429 1.07143,0.71429 0.58929,0 1.07143,-0.32143 1.07143,-0.71429 z m 3.57143,0 c 0,-0.39286 -0.32143,-0.71428 -0.71429,-0.71428 -0.39285,0 -0.71428,0.32142 -0.71428,0.71428 0,0.39286 0.32143,0.71429 0.71428,0.71429 0.39286,0 0.71429,-0.32143 0.71429,-0.71429 z m 4.28571,0 c 0,-0.39286 -0.48214,-0.71428 -1.07143,-0.71428 -0.58928,0 -1.07142,0.32142 -1.07142,0.71428 0,0.39286 0.48214,0.71429 1.07142,0.71429 0.58929,0 1.07143,-0.32143 1.07143,-0.71429 z m 3.57143,0 c 0,-0.39286 -0.32143,-0.71428 -0.71428,-0.71428 -0.39286,0 -0.71429,0.32142 -0.71429,0.71428 0,0.39286 0.32143,0.71429 0.71429,0.71429 0.39285,0 0.71428,-0.32143 0.71428,-0.71429 z m 4.28572,0 c 0,-0.39286 -0.32143,-0.71428 -0.71429,-0.71428 -0.39286,0 -0.71429,0.32142 -0.71429,0.71428 0,0.39286 0.32143,0.71429 0.71429,0.71429 0.39286,0 0.71429,-0.32143 0.71429,-0.71429 z m 4.28571,0 c 0,-0.39286 -0.48214,-0.71428 -1.07143,-0.71428 -0.58928,0 -1.07143,0.32142 -1.07143,0.71428 0,0.39286 0.48215,0.71429 1.07143,0.71429 0.58929,0 1.07143,-0.32143 1.07143,-0.71429 z m 3.57143,0 c 0,-0.39286 -0.32143,-0.71428 -0.71429,-0.71428 -0.39285,0 -0.71428,0.32142 -0.71428,0.71428 0,0.39286 0.32143,0.71429 0.71428,0.71429 0.39286,0 0.71429,-0.32143 0.71429,-0.71429 z m 4.28571,0 c 0,-0.39286 -0.48214,-0.71428 -1.07143,-0.71428 -0.58928,0 -1.07142,0.32142 -1.07142,0.71428 0,0.39286 0.48214,0.71429 1.07142,0.71429 0.58929,0 1.07143,-0.32143 1.07143,-0.71429 z m 3.57143,0 c 0,-0.39286 -0.32143,-0.71428 -0.71428,-0.71428 -0.39286,0 -0.71429,0.32142 -0.71429,0.71428 0,0.39286 0.32143,0.71429 0.71429,0.71429 0.39285,0 0.71428,-0.32143 0.71428,-0.71429 z"
         id="path1609"
         transform="scale(0.26458333)" />
      <path
         style="opacity:0.3;fill:#cccccc;stroke:#000000;stroke-width:0.715411;stroke-miterlimit:4;stroke-dasharray:0.715411, 17.1699;stroke-dashoffset:0"
         d="m 421.67287,394.50887 c 0.9811,-0.67932 6.67005,-4.67675 12.6421,-8.88317 7.87771,-5.54867 11.25992,-7.54302 12.32143,-7.26543 1.39828,0.36566 2.14672,-0.83699 0.8287,-1.33161 -0.34895,-0.13095 4.75359,-4.01488 11.33897,-8.63095 l 11.97342,-8.39286 h 38.30389 c 29.31572,0 38.30388,0.20113 38.30388,0.85714 0,0.66667 0.19048,0.66667 0.85715,0 0.58304,-0.58304 3.97879,-0.85714 10.61885,-0.85714 h 9.7617 l -6.52601,17.67857 -6.52601,17.67857 -67.84095,0.191 c -64.47872,0.18154 -67.75253,0.12979 -66.05712,-1.04412 z m 29.99811,-16.64688 c 0,-0.39286 -0.32143,-0.71428 -0.71429,-0.71428 -0.39285,0 -0.71428,0.32142 -0.71428,0.71428 0,0.39286 0.32143,0.71429 0.71428,0.71429 0.39286,0 0.71429,-0.32143 0.71429,-0.71429 z m 4.28571,0 c 0,-0.39286 -0.48214,-0.71428 -1.07143,-0.71428 -0.58928,0 -1.07142,0.32142 -1.07142,0.71428 0,0.39286 0.48214,0.71429 1.07142,0.71429 0.58929,0 1.07143,-0.32143 1.07143,-0.71429 z m 3.57143,0 c 0,-0.39286 -0.32143,-0.71428 -0.71428,-0.71428 -0.39286,0 -0.71429,0.32142 -0.71429,0.71428 0,0.39286 0.32143,0.71429 0.71429,0.71429 0.39285,0 0.71428,-0.32143 0.71428,-0.71429 z m 4.28572,0 c 0,-0.39286 -0.32143,-0.71428 -0.71429,-0.71428 -0.39286,0 -0.71429,0.32142 -0.71429,0.71428 0,0.39286 0.32143,0.71429 0.71429,0.71429 0.39286,0 0.71429,-0.32143 0.71429,-0.71429 z m 4.28571,0 c 0,-0.39286 -0.48214,-0.71428 -1.07143,-0.71428 -0.58928,0 -1.07143,0.32142 -1.07143,0.71428 0,0.39286 0.48215,0.71429 1.07143,0.71429 0.58929,0 1.07143,-0.32143 1.07143,-0.71429 z m 3.57143,0 c 0,-0.39286 -0.32143,-0.71428 -0.71429,-0.71428 -0.39285,0 -0.71428,0.32142 -0.71428,0.71428 0,0.39286 0.32143,0.71429 0.71428,0.71429 0.39286,0 0.71429,-0.32143 0.71429,-0.71429 z m 4.28571,0 c 0,-0.39286 -0.48214,-0.71428 -1.07143,-0.71428 -0.58928,0 -1.07142,0.32142 -1.07142,0.71428 0,0.39286 0.48214,0.71429 1.07142,0.71429 0.58929,0 1.07143,-0.32143 1.07143,-0.71429 z m 3.57143,0 c 0,-0.39286 -0.32143,-0.71428 -0.71428,-0.71428 -0.39286,0 -0.71429,0.32142 -0.71429,0.71428 0,0.39286 0.32143,0.71429 0.71429,0.71429 0.39285,0 0.71428,-0.32143 0.71428,-0.71429 z m 4.28572,0 c 0,-0.39286 -0.32143,-0.71428 -0.71429,-0.71428 -0.39286,0 -0.71429,0.32142 -0.71429,0.71428 0,0.39286 0.32143,0.71429 0.71429,0.71429 0.39286,0 0.71429,-0.32143 0.71429,-0.71429 z m 4.28571,0 c 0,-0.39286 -0.48214,-0.71428 -1.07143,-0.71428 -0.58928,0 -1.07143,0.32142 -1.07143,0.71428 0,0.39286 0.48215,0.71429 1.07143,0.71429 0.58929,0 1.07143,-0.32143 1.07143,-0.71429 z m 3.57143,0 c 0,-0.39286 -0.32143,-0.71428 -0.71429,-0.71428 -0.39285,0 -0.71428,0.32142 -0.71428,0.71428 0,0.39286 0.32143,0.71429 0.71428,0.71429 0.39286,0 0.71429,-0.32143 0.71429,-0.71429 z m 4.28571,0 c 0,-0.39286 -0.48214,-0.71428 -1.07143,-0.71428 -0.58928,0 -1.07142,0.32142 -1.07142,0.71428 0,0.39286 0.48214,0.71429 1.07142,0.71429 0.58929,0 1.07143,-0.32143 1.07143,-0.71429 z m 3.57143,0 c 0,-0.39286 -0.32143,-0.71428 -0.71428,-0.71428 -0.39286,0 -0.71429,0.32142 -0.71429,0.71428 0,0.39286 0.32143,0.71429 0.71429,0.71429 0.39285,0 0.71428,-0.32143 0.71428,-0.71429 z m 4.28572,0 c 0,-0.39286 -0.32143,-0.71428 -0.71429,-0.71428 -0.39286,0 -0.71429,0.32142 -0.71429,0.71428 0,0.39286 0.32143,0.71429 0.71429,0.71429 0.39286,0 0.71429,-0.32143 0.71429,-0.71429 z m 4.28571,0 c 0,-0.39286 -0.48214,-0.71428 -1.07143,-0.71428 -0.58928,0 -1.07143,0.32142 -1.07143,0.71428 0,0.39286 0.48215,0.71429 1.07143,0.71429 0.58929,0 1.07143,-0.32143 1.07143,-0.71429 z m 3.57143,0 c 0,-0.39286 -0.32143,-0.71428 -0.71429,-0.71428 -0.39285,0 -0.71428,0.32142 -0.71428,0.71428 0,0.39286 0.32143,0.71429 0.71428,0.71429 0.39286,0 0.71429,-0.32143 0.71429,-0.71429 z m 4.28571,0 c 0,-0.39286 -0.48214,-0.71428 -1.07143,-0.71428 -0.58928,0 -1.07142,0.32142 -1.07142,0.71428 0,0.39286 0.48214,0.71429 1.07142,0.71429 0.58929,0 1.07143,-0.32143 1.07143,-0.71429 z m 3.57143,0 c 0,-0.39286 -0.32143,-0.71428 -0.71428,-0.71428 -0.39286,0 -0.71429,0.32142 -0.71429,0.71428 0,0.39286 0.32143,0.71429 0.71429,0.71429 0.39285,0 0.71428,-0.32143 0.71428,-0.71429 z m 4.28572,0 c 0,-0.39286 -0.32143,-0.71428 -0.71429,-0.71428 -0.39286,0 -0.71429,0.32142 -0.71429,0.71428 0,0.39286 0.32143,0.71429 0.71429,0.71429 0.39286,0 0.71429,-0.32143 0.71429,-0.71429 z m 4.28571,0 c 0,-0.39286 -0.48214,-0.71428 -1.07143,-0.71428 -0.58928,0 -1.07143,0.32142 -1.07143,0.71428 0,0.39286 0.48215,0.71429 1.07143,0.71429 0.58929,0 1.07143,-0.32143 1.07143,-0.71429 z m 3.57143,0 c 0,-0.39286 -0.32143,-0.71428 -0.71429,-0.71428 -0.39285,0 -0.71428,0.32142 -0.71428,0.71428 0,0.39286 0.32143,0.71429 0.71428,0.71429 0.39286,0 0.71429,-0.32143 0.71429,-0.71429 z m 4.28571,0 c 0,-0.39286 -0.48214,-0.71428 -1.07143,-0.71428 -0.58928,0 -1.07142,0.32142 -1.07142,0.71428 0,0.39286 0.48214,0.71429 1.07142,0.71429 0.58929,0 1.07143,-0.32143 1.07143,-0.71429 z m 3.57143,0 c 0,-0.39286 -0.32143,-0.71428 -0.71428,-0.71428 -0.39286,0 -0.71429,0.32142 -0.71429,0.71428 0,0.39286 0.32143,0.71429 0.71429,0.71429 0.39285,0 0.71428,-0.32143 0.71428,-0.71429 z m 4.28572,0 c 0,-0.39286 -0.32143,-0.71428 -0.71429,-0.71428 -0.39286,0 -0.71429,0.32142 -0.71429,0.71428 0,0.39286 0.32143,0.71429 0.71429,0.71429 0.39286,0 0.71429,-0.32143 0.71429,-0.71429 z m 4.28571,0 c 0,-0.39286 -0.48214,-0.71428 -1.07143,-0.71428 -0.58928,0 -1.07143,0.32142 -1.07143,0.71428 0,0.39286 0.48215,0.71429 1.07143,0.71429 0.58929,0 1.07143,-0.32143 1.07143,-0.71429 z m 3.57143,0 c 0,-0.39286 -0.32143,-0.71428 -0.71429,-0.71428 -0.39285,0 -0.71428,0.32142 -0.71428,0.71428 0,0.39286 0.32143,0.71429 0.71428,0.71429 0.39286,0 0.71429,-0.32143 0.71429,-0.71429 z m 4.28571,0 c 0,-0.39286 -0.48214,-0.71428 -1.07143,-0.71428 -0.58928,0 -1.07142,0.32142 -1.07142,0.71428 0,0.39286 0.48214,0.71429 1.07142,0.71429 0.58929,0 1.07143,-0.32143 1.07143,-0.71429 z m 3.57143,0 c 0,-0.39286 -0.32143,-0.71428 -0.71428,-0.71428 -0.39286,0 -0.71429,0.32142 -0.71429,0.71428 0,0.39286 0.32143,0.71429 0.71429,0.71429 0.39285,0 0.71428,-0.32143 0.71428,-0.71429 z"
         id="path1611"
         transform="scale(0.26458333)" />
      <path
         style="opacity:0.3;fill:#cccccc;stroke:#000000;stroke-width:0.715411;stroke-miterlimit:4;stroke-dasharray:0.715411, 17.1699;stroke-dashoffset:0"
         d="m 96.153109,395.12624 c -0.613427,-0.37912 -0.848383,-5.16874 -0.853479,-17.39833 -0.0059,-14.15974 0.161202,-16.93975 1.038462,-17.27639 0.575021,-0.22066 8.575678,-0.40237 17.779228,-0.40381 12.54665,-0.002 16.80725,0.21576 17.02754,0.87012 0.23069,0.68526 0.51986,0.68625 1.34617,0.005 0.78979,-0.65149 8.51806,-0.86266 30.97393,-0.84634 l 29.92156,0.0217 2.89223,2.61589 c 1.59073,1.43874 2.81187,2.86424 2.71366,3.16777 -0.0982,0.30353 0.23183,0.55188 0.73344,0.55188 1.33363,0 10.85689,9.81604 10.86598,11.20003 0.004,0.64734 0.4095,1.3118 0.90058,1.47657 0.49107,0.16478 0.89528,-0.12898 0.89826,-0.65279 0.003,-0.52381 2.97619,1.99122 6.60714,5.58895 3.63095,3.59773 7.88745,7.67485 9.45888,9.06026 l 2.85714,2.51892 -67.15714,0.012 c -36.93642,0.007 -67.538036,-0.22341 -68.003581,-0.51113 z m 3.428583,-17.46068 c -0.08835,-0.85407 -1.068063,-0.68866 -1.375,0.23215 -0.157143,0.47142 0.1,0.72857 0.571428,0.57142 0.471429,-0.15714 0.833036,-0.51875 0.803572,-0.80357 z m 4.285718,0 c -0.0884,-0.85407 -1.06807,-0.68866 -1.375,0.23215 -0.15715,0.47142 0.1,0.72857 0.57142,0.57142 0.47143,-0.15714 0.83304,-0.51875 0.80358,-0.80357 z m 4.52771,0.29606 c 0.20893,-0.33806 0.19648,-0.79806 -0.0277,-1.02221 -0.55741,-0.55741 -2.41075,0.2106 -2.41075,0.999 0,0.81615 1.93697,0.83459 2.43843,0.0232 z m 3.32943,-0.29606 c -0.0883,-0.85407 -1.06806,-0.68866 -1.375,0.23215 -0.15714,0.47142 0.1,0.72857 0.57143,0.57142 0.47143,-0.15714 0.83303,-0.51875 0.80357,-0.80357 z m 4.52771,0.29606 c 0.20893,-0.33806 0.19648,-0.79806 -0.0277,-1.02221 -0.55741,-0.55741 -2.41075,0.2106 -2.41075,0.999 0,0.81615 1.93697,0.83459 2.43843,0.0232 z m 3.32943,-0.29606 c -0.0883,-0.85407 -1.06806,-0.68866 -1.375,0.23215 -0.15714,0.47142 0.1,0.72857 0.57143,0.57142 0.47143,-0.15714 0.83304,-0.51875 0.80357,-0.80357 z m 4.28572,0 c -0.0884,-0.85407 -1.06807,-0.68866 -1.375,0.23215 -0.15715,0.47142 0.1,0.72857 0.57142,0.57142 0.47143,-0.15714 0.83304,-0.51875 0.80358,-0.80357 z m 4.52771,0.29606 c 0.20893,-0.33806 0.19648,-0.79806 -0.0277,-1.02221 -0.55741,-0.55741 -2.41075,0.2106 -2.41075,0.999 0,0.81615 1.93697,0.83459 2.43843,0.0232 z m 3.32943,-0.29606 c -0.0883,-0.85407 -1.06806,-0.68866 -1.375,0.23215 -0.15714,0.47142 0.1,0.72857 0.57143,0.57142 0.47143,-0.15714 0.83303,-0.51875 0.80357,-0.80357 z m 4.52771,0.29606 c 0.20893,-0.33806 0.19648,-0.79806 -0.0277,-1.02221 -0.55741,-0.55741 -2.41075,0.2106 -2.41075,0.999 0,0.81615 1.93697,0.83459 2.43843,0.0232 z m 3.32943,-0.29606 c -0.0884,-0.85407 -1.06806,-0.68866 -1.375,0.23215 -0.15714,0.47142 0.1,0.72857 0.57143,0.57142 0.47143,-0.15714 0.83304,-0.51875 0.80357,-0.80357 z m 4.28572,0 c -0.0884,-0.85407 -1.06807,-0.68866 -1.375,0.23215 -0.15715,0.47142 0.1,0.72857 0.57142,0.57142 0.47143,-0.15714 0.83304,-0.51875 0.80358,-0.80357 z m 4.52771,0.29606 c 0.20893,-0.33806 0.19648,-0.79806 -0.0277,-1.02221 -0.55741,-0.55741 -2.41075,0.2106 -2.41075,0.999 0,0.81615 1.93697,0.83459 2.43843,0.0232 z m 3.32943,-0.29606 c -0.0883,-0.85407 -1.06806,-0.68866 -1.375,0.23215 -0.15714,0.47142 0.1,0.72857 0.57143,0.57142 0.47143,-0.15714 0.83303,-0.51875 0.80357,-0.80357 z m 4.52771,0.29606 c 0.20893,-0.33806 0.19648,-0.79806 -0.0277,-1.02221 -0.55741,-0.55741 -2.41075,0.2106 -2.41075,0.999 0,0.81615 1.93697,0.83459 2.43843,0.0232 z m 3.32943,-0.29606 c -0.0884,-0.85407 -1.06806,-0.68866 -1.375,0.23215 -0.15714,0.47142 0.1,0.72857 0.57143,0.57142 0.47143,-0.15714 0.83304,-0.51875 0.80357,-0.80357 z m 4.28572,0 c -0.0884,-0.85407 -1.06807,-0.68866 -1.375,0.23215 -0.15715,0.47142 0.1,0.72857 0.57142,0.57142 0.47143,-0.15714 0.83304,-0.51875 0.80358,-0.80357 z m 4.52771,0.29606 c 0.20893,-0.33806 0.19648,-0.79806 -0.0276,-1.02221 -0.55745,-0.55741 -2.41079,0.2106 -2.41079,0.999 0,0.81615 1.93697,0.83459 2.43843,0.0232 z m 3.32943,-0.29606 c -0.0883,-0.85407 -1.06807,-0.68866 -1.375,0.23215 -0.15714,0.47142 0.1,0.72857 0.57143,0.57142 0.47143,-0.15714 0.83303,-0.51875 0.80357,-0.80357 z m 4.52771,0.29606 c 0.20893,-0.33806 0.19648,-0.79806 -0.0276,-1.02221 -0.55745,-0.55741 -2.41079,0.2106 -2.41079,0.999 0,0.81615 1.93697,0.83459 2.43843,0.0232 z m 3.32943,-0.29606 c -0.0884,-0.85407 -1.06806,-0.68866 -1.375,0.23215 -0.15714,0.47142 0.1,0.72857 0.57143,0.57142 0.47143,-0.15714 0.83304,-0.51875 0.80357,-0.80357 z m 4.28572,0 c -0.0884,-0.85407 -1.06807,-0.68866 -1.375,0.23215 -0.15715,0.47142 0.1,0.72857 0.57142,0.57142 0.47143,-0.15714 0.83304,-0.51875 0.80358,-0.80357 z m 4.52771,0.29606 c 0.20893,-0.33806 0.19648,-0.79806 -0.0277,-1.02221 -0.55738,-0.55741 -2.41072,0.2106 -2.41072,0.999 0,0.81615 1.93697,0.83459 2.43843,0.0232 z m 3.32943,-0.29606 c -0.0883,-0.85407 -1.06807,-0.68866 -1.375,0.23215 -0.15714,0.47142 0.1,0.72857 0.57143,0.57142 0.47143,-0.15714 0.83303,-0.51875 0.80357,-0.80357 z m 4.52771,0.29606 c 0.20893,-0.33806 0.19648,-0.79806 -0.0277,-1.02221 -0.55738,-0.55741 -2.41072,0.2106 -2.41072,0.999 0,0.81615 1.93697,0.83459 2.43843,0.0232 z m 3.32943,-0.29606 c -0.0884,-0.85407 -1.06806,-0.68866 -1.375,0.23215 -0.15714,0.47142 0.1,0.72857 0.57143,0.57142 0.47143,-0.15714 0.83304,-0.51875 0.80357,-0.80357 z m 4.28572,0 c -0.0884,-0.85407 -1.06807,-0.68866 -1.375,0.23215 -0.15715,0.47142 0.1,0.72857 0.57142,0.57142 0.47143,-0.15714 0.83304,-0.51875 0.80358,-0.80357 z m 4.52771,0.29606 c 0.20893,-0.33806 0.19648,-0.79806 -0.0277,-1.02221 -0.55738,-0.55741 -2.41072,0.2106 -2.41072,0.999 0,0.81615 1.93697,0.83459 2.43843,0.0232 z"
         id="path1615"
         transform="scale(0.26458333)" />
      <g
         id="g1674"
         ns1:jacobian_sqrt="1.05833"
         ns1:alignment="middle center"
         ns1:scale="3.0"
         ns1:preamble="C:\\Users\\claum\\AppData\\Roaming\\inkscape\\extensions\\textext\\default_packages.tex"
         ns1:text="$x$"
         ns1:pdfconverter="inkscape"
         ns1:texconverter="pdflatex"
         ns1:version="1.0.1"
         transform="matrix(1.05833,0,0,1.05833,169.42136,167.3797)">
        <defs
           id="id-1143cb44-34b5-4647-9581-e710f31d2f71">
          <g
             id="id-7636496f-ceb1-44a6-99e6-0fefe1776c4d">
            <symbol
               overflow="visible"
               id="id-3cc0e1c1-eb7e-476c-9922-0dc55212f235">
              <path
                 style="stroke:none"
                 d=""
                 id="id-04fce5af-8f61-459d-8116-e753a1f54e5a" />
            </symbol>
            <symbol
               overflow="visible"
               id="id-94e912de-3cd5-4401-b2f1-042e1f593b5c">
              <path
                 style="stroke:none"
                 d="M 3.328125,-3.015625 C 3.390625,-3.265625 3.625,-4.1875 4.3125,-4.1875 c 0.046875,0 0.296875,0 0.5,0.125 C 4.53125,-4 4.34375,-3.765625 4.34375,-3.515625 c 0,0.15625 0.109375,0.34375 0.375,0.34375 0.21875,0 0.53125,-0.171875 0.53125,-0.578125 0,-0.515625 -0.578125,-0.65625 -0.921875,-0.65625 -0.578125,0 -0.921875,0.53125 -1.046875,0.75 -0.25,-0.65625 -0.78125,-0.75 -1.078125,-0.75 -1.03125,0 -1.609375,1.28125 -1.609375,1.53125 0,0.109375 0.109375,0.109375 0.125,0.109375 0.078125,0 0.109375,-0.03125 0.125,-0.109375 0.34375,-1.0625 1,-1.3125 1.34375,-1.3125 0.1875,0 0.53125,0.09375 0.53125,0.671875 0,0.3125 -0.171875,0.96875 -0.53125,2.375 -0.15625,0.609375 -0.515625,1.03125 -0.953125,1.03125 -0.0625,0 -0.28125,0 -0.5,-0.125 0.25,-0.0625 0.46875,-0.265625 0.46875,-0.546875 0,-0.265625 -0.21875,-0.34375 -0.359375,-0.34375 -0.3125,0 -0.546875,0.25 -0.546875,0.578125 0,0.453125 0.484375,0.65625 0.921875,0.65625 0.671875,0 1.03125,-0.703125 1.046875,-0.75 0.125,0.359375 0.484375,0.75 1.078125,0.75 1.03125,0 1.59375,-1.28125 1.59375,-1.53125 0,-0.109375 -0.078125,-0.109375 -0.109375,-0.109375 -0.09375,0 -0.109375,0.046875 -0.140625,0.109375 -0.328125,1.078125 -1,1.3125 -1.3125,1.3125 -0.390625,0 -0.546875,-0.3125 -0.546875,-0.65625 0,-0.21875 0.046875,-0.4375 0.15625,-0.875 z m 0,0"
                 id="id-91424b54-5eb8-4711-98fd-d2b45b739474" />
            </symbol>
          </g>
        </defs>
        <g
           id="id-f0c8f946-5b08-4c45-88b2-fea194230e3b"
           transform="translate(-149.009,-130.359)">
          <g
             style="fill:#000000;fill-opacity:1"
             id="id-1a2c9a69-28de-4538-8d0a-f356de7cdf0d">
            <g
               id="g1670"
               transform="translate(148.712,134.765)">
              <path
                 style="stroke:none"
                 d="M 3.328125,-3.015625 C 3.390625,-3.265625 3.625,-4.1875 4.3125,-4.1875 c 0.046875,0 0.296875,0 0.5,0.125 C 4.53125,-4 4.34375,-3.765625 4.34375,-3.515625 c 0,0.15625 0.109375,0.34375 0.375,0.34375 0.21875,0 0.53125,-0.171875 0.53125,-0.578125 0,-0.515625 -0.578125,-0.65625 -0.921875,-0.65625 -0.578125,0 -0.921875,0.53125 -1.046875,0.75 -0.25,-0.65625 -0.78125,-0.75 -1.078125,-0.75 -1.03125,0 -1.609375,1.28125 -1.609375,1.53125 0,0.109375 0.109375,0.109375 0.125,0.109375 0.078125,0 0.109375,-0.03125 0.125,-0.109375 0.34375,-1.0625 1,-1.3125 1.34375,-1.3125 0.1875,0 0.53125,0.09375 0.53125,0.671875 0,0.3125 -0.171875,0.96875 -0.53125,2.375 -0.15625,0.609375 -0.515625,1.03125 -0.953125,1.03125 -0.0625,0 -0.28125,0 -0.5,-0.125 0.25,-0.0625 0.46875,-0.265625 0.46875,-0.546875 0,-0.265625 -0.21875,-0.34375 -0.359375,-0.34375 -0.3125,0 -0.546875,0.25 -0.546875,0.578125 0,0.453125 0.484375,0.65625 0.921875,0.65625 0.671875,0 1.03125,-0.703125 1.046875,-0.75 0.125,0.359375 0.484375,0.75 1.078125,0.75 1.03125,0 1.59375,-1.28125 1.59375,-1.53125 0,-0.109375 -0.078125,-0.109375 -0.109375,-0.109375 -0.09375,0 -0.109375,0.046875 -0.140625,0.109375 -0.328125,1.078125 -1,1.3125 -1.3125,1.3125 -0.390625,0 -0.546875,-0.3125 -0.546875,-0.65625 0,-0.21875 0.046875,-0.4375 0.15625,-0.875 z m 0,0"
                 id="id-ad77a797-14a6-461a-8d26-56e1466d5c1a" />
            </g>
          </g>
        </g>
      </g>
      <g
         id="g1758"
         ns1:jacobian_sqrt="1.05833"
         ns1:alignment="middle center"
         ns1:scale="3.0"
         ns1:preamble="C:\\Users\\claum\\AppData\\Roaming\\inkscape\\extensions\\textext\\default_packages.tex"
         ns1:text="$y$"
         ns1:pdfconverter="inkscape"
         ns1:texconverter="pdflatex"
         ns1:version="1.0.1"
         transform="matrix(1.05833,0,0,1.05833,16.965249,15.090762)">
        <defs
           id="id-61323e94-745e-4555-9fbf-74e092527c2e">
          <g
             id="id-75b69b1c-3943-42fd-bc55-f3a0d2cf0b69">
            <symbol
               overflow="visible"
               id="id-ffce9987-5415-4471-9e15-cfe35cde2d55">
              <path
                 style="stroke:none"
                 d=""
                 id="id-93bdc051-3453-407b-84e0-8f7c2997d0fa" />
            </symbol>
            <symbol
               overflow="visible"
               id="id-f26a059c-e0b2-4a88-84c3-0ea90301f9fd">
              <path
                 style="stroke:none"
                 d="m 4.84375,-3.796875 c 0.046875,-0.140625 0.046875,-0.15625 0.046875,-0.234375 0,-0.171875 -0.140625,-0.265625 -0.296875,-0.265625 -0.09375,0 -0.25,0.0625 -0.34375,0.203125 -0.015625,0.0625 -0.109375,0.359375 -0.140625,0.546875 -0.078125,0.25 -0.140625,0.53125 -0.203125,0.796875 l -0.453125,1.796875 c -0.03125,0.140625 -0.46875,0.84375 -1.125,0.84375 -0.5,0 -0.609375,-0.4375 -0.609375,-0.8125 C 1.71875,-1.375 1.890625,-2 2.21875,-2.875 2.375,-3.28125 2.421875,-3.390625 2.421875,-3.59375 c 0,-0.4375 -0.3125,-0.8125 -0.8125,-0.8125 -0.953125,0 -1.3125,1.453125 -1.3125,1.53125 0,0.109375 0.09375,0.109375 0.109375,0.109375 0.109375,0 0.109375,-0.03125 0.15625,-0.1875 0.28125,-0.9375 0.671875,-1.234375 1.015625,-1.234375 0.078125,0 0.25,0 0.25,0.3125 0,0.25 -0.109375,0.515625 -0.171875,0.703125 -0.40625,1.0625 -0.578125,1.625 -0.578125,2.09375 0,0.890625 0.625,1.1875 1.21875,1.1875 0.390625,0 0.71875,-0.171875 1,-0.453125 -0.125,0.515625 -0.25,1.015625 -0.640625,1.546875 -0.265625,0.328125 -0.640625,0.625 -1.09375,0.625 -0.140625,0 -0.59375,-0.03125 -0.765625,-0.421875 0.15625,0 0.296875,0 0.421875,-0.125 C 1.328125,1.203125 1.421875,1.0625 1.421875,0.875 1.421875,0.5625 1.15625,0.53125 1.0625,0.53125 0.828125,0.53125 0.5,0.6875 0.5,1.171875 c 0,0.5 0.4375,0.875 1.0625,0.875 1.015625,0 2.046875,-0.90625 2.328125,-2.03125 z m 0,0"
                 id="id-93f50092-fa01-4d50-b8c2-8f836acefa2d" />
            </symbol>
          </g>
        </defs>
        <g
           id="id-02169925-dcb7-4ab1-9a39-c5ebd0562d6b"
           transform="translate(-149.009,-130.359)">
          <g
             style="fill:#000000;fill-opacity:1"
             id="id-6aab50cc-d67d-492e-976d-332b567ddfac">
            <g
               id="g1754"
               transform="translate(148.712,134.765)">
              <path
                 style="stroke:none"
                 d="m 4.84375,-3.796875 c 0.046875,-0.140625 0.046875,-0.15625 0.046875,-0.234375 0,-0.171875 -0.140625,-0.265625 -0.296875,-0.265625 -0.09375,0 -0.25,0.0625 -0.34375,0.203125 -0.015625,0.0625 -0.109375,0.359375 -0.140625,0.546875 -0.078125,0.25 -0.140625,0.53125 -0.203125,0.796875 l -0.453125,1.796875 c -0.03125,0.140625 -0.46875,0.84375 -1.125,0.84375 -0.5,0 -0.609375,-0.4375 -0.609375,-0.8125 C 1.71875,-1.375 1.890625,-2 2.21875,-2.875 2.375,-3.28125 2.421875,-3.390625 2.421875,-3.59375 c 0,-0.4375 -0.3125,-0.8125 -0.8125,-0.8125 -0.953125,0 -1.3125,1.453125 -1.3125,1.53125 0,0.109375 0.09375,0.109375 0.109375,0.109375 0.109375,0 0.109375,-0.03125 0.15625,-0.1875 0.28125,-0.9375 0.671875,-1.234375 1.015625,-1.234375 0.078125,0 0.25,0 0.25,0.3125 0,0.25 -0.109375,0.515625 -0.171875,0.703125 -0.40625,1.0625 -0.578125,1.625 -0.578125,2.09375 0,0.890625 0.625,1.1875 1.21875,1.1875 0.390625,0 0.71875,-0.171875 1,-0.453125 -0.125,0.515625 -0.25,1.015625 -0.640625,1.546875 -0.265625,0.328125 -0.640625,0.625 -1.09375,0.625 -0.140625,0 -0.59375,-0.03125 -0.765625,-0.421875 0.15625,0 0.296875,0 0.421875,-0.125 C 1.328125,1.203125 1.421875,1.0625 1.421875,0.875 1.421875,0.5625 1.15625,0.53125 1.0625,0.53125 0.828125,0.53125 0.5,0.6875 0.5,1.171875 c 0,0.5 0.4375,0.875 1.0625,0.875 1.015625,0 2.046875,-0.90625 2.328125,-2.03125 z m 0,0"
                 id="id-bcd532d1-105b-46cc-849f-048ad1e5c8ae" />
            </g>
          </g>
        </g>
      </g>
      <g
         id="g1858"
         ns1:jacobian_sqrt="1.05833"
         ns1:alignment="middle center"
         ns1:scale="3.0"
         ns1:preamble="C:\\Users\\claum\\AppData\\Roaming\\inkscape\\extensions\\textext\\default_packages.tex"
         ns1:text="$dy$"
         ns1:pdfconverter="inkscape"
         ns1:texconverter="pdflatex"
         ns1:version="1.0.1"
         transform="matrix(1.05833,0,0,1.05833,36.494017,108.65951)">
        <defs
           id="id-61c6f9d1-be55-43a2-9628-09ebd1c8f9f5">
          <g
             id="id-9441d2fe-0193-45ea-b92e-8e7b07a203bd">
            <symbol
               overflow="visible"
               id="id-90709047-a519-45e9-b116-ee85f88b7bc1">
              <path
                 style="stroke:none"
                 d=""
                 id="id-0dcf6b00-3e1d-498a-b322-509c1ade5db9" />
            </symbol>
            <symbol
               overflow="visible"
               id="id-6c3d7bcc-5bf9-43be-9fcb-ec0bfc117769">
              <path
                 style="stroke:none"
                 d="m 5.140625,-6.8125 c 0,0 0,-0.109375 -0.125,-0.109375 -0.15625,0 -1.09375,0.09375 -1.265625,0.109375 -0.078125,0.015625 -0.140625,0.0625 -0.140625,0.1875 0,0.125 0.09375,0.125 0.234375,0.125 0.484375,0 0.5,0.0625 0.5,0.171875 L 4.3125,-6.125 3.71875,-3.765625 C 3.53125,-4.140625 3.25,-4.40625 2.796875,-4.40625 c -1.15625,0 -2.390625,1.46875 -2.390625,2.921875 0,0.9375 0.546875,1.59375 1.3125,1.59375 0.203125,0 0.703125,-0.046875 1.296875,-0.75 0.078125,0.421875 0.4375,0.75 0.90625,0.75 0.359375,0 0.578125,-0.234375 0.75,-0.546875 0.15625,-0.359375 0.296875,-0.96875 0.296875,-0.984375 0,-0.109375 -0.09375,-0.109375 -0.125,-0.109375 -0.09375,0 -0.109375,0.046875 -0.140625,0.1875 -0.171875,0.640625 -0.34375,1.234375 -0.75,1.234375 -0.28125,0 -0.296875,-0.265625 -0.296875,-0.453125 0,-0.25 0.015625,-0.3125 0.046875,-0.484375 z m -2.0625,5.625 C 3.015625,-1 3.015625,-0.984375 2.875,-0.8125 2.4375,-0.265625 2.03125,-0.109375 1.75,-0.109375 c -0.5,0 -0.640625,-0.546875 -0.640625,-0.9375 0,-0.5 0.3125,-1.71875 0.546875,-2.1875 0.3125,-0.578125 0.75,-0.953125 1.15625,-0.953125 0.640625,0 0.78125,0.8125 0.78125,0.875 0,0.0625 -0.015625,0.125 -0.03125,0.171875 z m 0,0"
                 id="id-66165ba4-a95e-4c85-a7da-3297a7a7361f" />
            </symbol>
            <symbol
               overflow="visible"
               id="id-22ad9295-7c63-475a-9639-30d77210018f">
              <path
                 style="stroke:none"
                 d="m 4.84375,-3.796875 c 0.046875,-0.140625 0.046875,-0.15625 0.046875,-0.234375 0,-0.171875 -0.140625,-0.265625 -0.296875,-0.265625 -0.09375,0 -0.25,0.0625 -0.34375,0.203125 -0.015625,0.0625 -0.109375,0.359375 -0.140625,0.546875 -0.078125,0.25 -0.140625,0.53125 -0.203125,0.796875 l -0.453125,1.796875 c -0.03125,0.140625 -0.46875,0.84375 -1.125,0.84375 -0.5,0 -0.609375,-0.4375 -0.609375,-0.8125 C 1.71875,-1.375 1.890625,-2 2.21875,-2.875 2.375,-3.28125 2.421875,-3.390625 2.421875,-3.59375 c 0,-0.4375 -0.3125,-0.8125 -0.8125,-0.8125 -0.953125,0 -1.3125,1.453125 -1.3125,1.53125 0,0.109375 0.09375,0.109375 0.109375,0.109375 0.109375,0 0.109375,-0.03125 0.15625,-0.1875 0.28125,-0.9375 0.671875,-1.234375 1.015625,-1.234375 0.078125,0 0.25,0 0.25,0.3125 0,0.25 -0.109375,0.515625 -0.171875,0.703125 -0.40625,1.0625 -0.578125,1.625 -0.578125,2.09375 0,0.890625 0.625,1.1875 1.21875,1.1875 0.390625,0 0.71875,-0.171875 1,-0.453125 -0.125,0.515625 -0.25,1.015625 -0.640625,1.546875 -0.265625,0.328125 -0.640625,0.625 -1.09375,0.625 -0.140625,0 -0.59375,-0.03125 -0.765625,-0.421875 0.15625,0 0.296875,0 0.421875,-0.125 C 1.328125,1.203125 1.421875,1.0625 1.421875,0.875 1.421875,0.5625 1.15625,0.53125 1.0625,0.53125 0.828125,0.53125 0.5,0.6875 0.5,1.171875 c 0,0.5 0.4375,0.875 1.0625,0.875 1.015625,0 2.046875,-0.90625 2.328125,-2.03125 z m 0,0"
                 id="id-5653e47b-d45e-49b7-a6a7-677f385b30d4" />
            </symbol>
          </g>
        </defs>
        <g
           id="id-0dda095c-c502-49fa-8f11-02ef972f6e49"
           transform="translate(-149.118,-127.843)">
          <g
             style="fill:#000000;fill-opacity:1"
             id="id-57eeb506-ee96-4f46-8fc1-dfeb98a0a13d">
            <g
               id="g1851"
               transform="translate(148.712,134.765)">
              <path
                 style="stroke:none"
                 d="m 5.140625,-6.8125 c 0,0 0,-0.109375 -0.125,-0.109375 -0.15625,0 -1.09375,0.09375 -1.265625,0.109375 -0.078125,0.015625 -0.140625,0.0625 -0.140625,0.1875 0,0.125 0.09375,0.125 0.234375,0.125 0.484375,0 0.5,0.0625 0.5,0.171875 L 4.3125,-6.125 3.71875,-3.765625 C 3.53125,-4.140625 3.25,-4.40625 2.796875,-4.40625 c -1.15625,0 -2.390625,1.46875 -2.390625,2.921875 0,0.9375 0.546875,1.59375 1.3125,1.59375 0.203125,0 0.703125,-0.046875 1.296875,-0.75 0.078125,0.421875 0.4375,0.75 0.90625,0.75 0.359375,0 0.578125,-0.234375 0.75,-0.546875 0.15625,-0.359375 0.296875,-0.96875 0.296875,-0.984375 0,-0.109375 -0.09375,-0.109375 -0.125,-0.109375 -0.09375,0 -0.109375,0.046875 -0.140625,0.1875 -0.171875,0.640625 -0.34375,1.234375 -0.75,1.234375 -0.28125,0 -0.296875,-0.265625 -0.296875,-0.453125 0,-0.25 0.015625,-0.3125 0.046875,-0.484375 z m -2.0625,5.625 C 3.015625,-1 3.015625,-0.984375 2.875,-0.8125 2.4375,-0.265625 2.03125,-0.109375 1.75,-0.109375 c -0.5,0 -0.640625,-0.546875 -0.640625,-0.9375 0,-0.5 0.3125,-1.71875 0.546875,-2.1875 0.3125,-0.578125 0.75,-0.953125 1.15625,-0.953125 0.640625,0 0.78125,0.8125 0.78125,0.875 0,0.0625 -0.015625,0.125 -0.03125,0.171875 z m 0,0"
                 id="id-72ceb689-c21a-4b26-9099-f0abb31c28c2" />
            </g>
            <g
               id="g1854"
               transform="translate(153.898,134.765)">
              <path
                 style="stroke:none"
                 d="m 4.84375,-3.796875 c 0.046875,-0.140625 0.046875,-0.15625 0.046875,-0.234375 0,-0.171875 -0.140625,-0.265625 -0.296875,-0.265625 -0.09375,0 -0.25,0.0625 -0.34375,0.203125 -0.015625,0.0625 -0.109375,0.359375 -0.140625,0.546875 -0.078125,0.25 -0.140625,0.53125 -0.203125,0.796875 l -0.453125,1.796875 c -0.03125,0.140625 -0.46875,0.84375 -1.125,0.84375 -0.5,0 -0.609375,-0.4375 -0.609375,-0.8125 C 1.71875,-1.375 1.890625,-2 2.21875,-2.875 2.375,-3.28125 2.421875,-3.390625 2.421875,-3.59375 c 0,-0.4375 -0.3125,-0.8125 -0.8125,-0.8125 -0.953125,0 -1.3125,1.453125 -1.3125,1.53125 0,0.109375 0.09375,0.109375 0.109375,0.109375 0.109375,0 0.109375,-0.03125 0.15625,-0.1875 0.28125,-0.9375 0.671875,-1.234375 1.015625,-1.234375 0.078125,0 0.25,0 0.25,0.3125 0,0.25 -0.109375,0.515625 -0.171875,0.703125 -0.40625,1.0625 -0.578125,1.625 -0.578125,2.09375 0,0.890625 0.625,1.1875 1.21875,1.1875 0.390625,0 0.71875,-0.171875 1,-0.453125 -0.125,0.515625 -0.25,1.015625 -0.640625,1.546875 -0.265625,0.328125 -0.640625,0.625 -1.09375,0.625 -0.140625,0 -0.59375,-0.03125 -0.765625,-0.421875 0.15625,0 0.296875,0 0.421875,-0.125 C 1.328125,1.203125 1.421875,1.0625 1.421875,0.875 1.421875,0.5625 1.15625,0.53125 1.0625,0.53125 0.828125,0.53125 0.5,0.6875 0.5,1.171875 c 0,0.5 0.4375,0.875 1.0625,0.875 1.015625,0 2.046875,-0.90625 2.328125,-2.03125 z m 0,0"
                 id="id-3fbe0e6d-7218-4387-a904-61659a6fcc6a" />
            </g>
          </g>
        </g>
      </g>
      <g
         transform="matrix(1.05833,0,0,1.05833,132.65938,105.99806)"
         ns1:version="1.0.1"
         ns1:texconverter="pdflatex"
         ns1:pdfconverter="inkscape"
         ns1:text="$dy$"
         ns1:preamble="C:\\Users\\claum\\AppData\\Roaming\\inkscape\\extensions\\textext\\default_packages.tex"
         ns1:scale="3.0"
         ns1:alignment="middle center"
         ns1:jacobian_sqrt="1.05833"
         id="g1906">
        <defs
           id="defs1892">
          <g
             id="g1890">
            <symbol
               id="symbol1880"
               overflow="visible">
              <path
                 id="path1878"
                 d=""
                 style="stroke:none" />
            </symbol>
            <symbol
               id="symbol1884"
               overflow="visible">
              <path
                 id="path1882"
                 d="m 5.140625,-6.8125 c 0,0 0,-0.109375 -0.125,-0.109375 -0.15625,0 -1.09375,0.09375 -1.265625,0.109375 -0.078125,0.015625 -0.140625,0.0625 -0.140625,0.1875 0,0.125 0.09375,0.125 0.234375,0.125 0.484375,0 0.5,0.0625 0.5,0.171875 L 4.3125,-6.125 3.71875,-3.765625 C 3.53125,-4.140625 3.25,-4.40625 2.796875,-4.40625 c -1.15625,0 -2.390625,1.46875 -2.390625,2.921875 0,0.9375 0.546875,1.59375 1.3125,1.59375 0.203125,0 0.703125,-0.046875 1.296875,-0.75 0.078125,0.421875 0.4375,0.75 0.90625,0.75 0.359375,0 0.578125,-0.234375 0.75,-0.546875 0.15625,-0.359375 0.296875,-0.96875 0.296875,-0.984375 0,-0.109375 -0.09375,-0.109375 -0.125,-0.109375 -0.09375,0 -0.109375,0.046875 -0.140625,0.1875 -0.171875,0.640625 -0.34375,1.234375 -0.75,1.234375 -0.28125,0 -0.296875,-0.265625 -0.296875,-0.453125 0,-0.25 0.015625,-0.3125 0.046875,-0.484375 z m -2.0625,5.625 C 3.015625,-1 3.015625,-0.984375 2.875,-0.8125 2.4375,-0.265625 2.03125,-0.109375 1.75,-0.109375 c -0.5,0 -0.640625,-0.546875 -0.640625,-0.9375 0,-0.5 0.3125,-1.71875 0.546875,-2.1875 0.3125,-0.578125 0.75,-0.953125 1.15625,-0.953125 0.640625,0 0.78125,0.8125 0.78125,0.875 0,0.0625 -0.015625,0.125 -0.03125,0.171875 z m 0,0"
                 style="stroke:none" />
            </symbol>
            <symbol
               id="symbol1888"
               overflow="visible">
              <path
                 id="path1886"
                 d="m 4.84375,-3.796875 c 0.046875,-0.140625 0.046875,-0.15625 0.046875,-0.234375 0,-0.171875 -0.140625,-0.265625 -0.296875,-0.265625 -0.09375,0 -0.25,0.0625 -0.34375,0.203125 -0.015625,0.0625 -0.109375,0.359375 -0.140625,0.546875 -0.078125,0.25 -0.140625,0.53125 -0.203125,0.796875 l -0.453125,1.796875 c -0.03125,0.140625 -0.46875,0.84375 -1.125,0.84375 -0.5,0 -0.609375,-0.4375 -0.609375,-0.8125 C 1.71875,-1.375 1.890625,-2 2.21875,-2.875 2.375,-3.28125 2.421875,-3.390625 2.421875,-3.59375 c 0,-0.4375 -0.3125,-0.8125 -0.8125,-0.8125 -0.953125,0 -1.3125,1.453125 -1.3125,1.53125 0,0.109375 0.09375,0.109375 0.109375,0.109375 0.109375,0 0.109375,-0.03125 0.15625,-0.1875 0.28125,-0.9375 0.671875,-1.234375 1.015625,-1.234375 0.078125,0 0.25,0 0.25,0.3125 0,0.25 -0.109375,0.515625 -0.171875,0.703125 -0.40625,1.0625 -0.578125,1.625 -0.578125,2.09375 0,0.890625 0.625,1.1875 1.21875,1.1875 0.390625,0 0.71875,-0.171875 1,-0.453125 -0.125,0.515625 -0.25,1.015625 -0.640625,1.546875 -0.265625,0.328125 -0.640625,0.625 -1.09375,0.625 -0.140625,0 -0.59375,-0.03125 -0.765625,-0.421875 0.15625,0 0.296875,0 0.421875,-0.125 C 1.328125,1.203125 1.421875,1.0625 1.421875,0.875 1.421875,0.5625 1.15625,0.53125 1.0625,0.53125 0.828125,0.53125 0.5,0.6875 0.5,1.171875 c 0,0.5 0.4375,0.875 1.0625,0.875 1.015625,0 2.046875,-0.90625 2.328125,-2.03125 z m 0,0"
                 style="stroke:none" />
            </symbol>
          </g>
        </defs>
        <g
           transform="translate(-149.118,-127.843)"
           id="g1904">
          <g
             id="g1902"
             style="fill:#000000;fill-opacity:1">
            <g
               transform="translate(148.712,134.765)"
               id="g1896">
              <path
                 id="path1894"
                 d="m 5.140625,-6.8125 c 0,0 0,-0.109375 -0.125,-0.109375 -0.15625,0 -1.09375,0.09375 -1.265625,0.109375 -0.078125,0.015625 -0.140625,0.0625 -0.140625,0.1875 0,0.125 0.09375,0.125 0.234375,0.125 0.484375,0 0.5,0.0625 0.5,0.171875 L 4.3125,-6.125 3.71875,-3.765625 C 3.53125,-4.140625 3.25,-4.40625 2.796875,-4.40625 c -1.15625,0 -2.390625,1.46875 -2.390625,2.921875 0,0.9375 0.546875,1.59375 1.3125,1.59375 0.203125,0 0.703125,-0.046875 1.296875,-0.75 0.078125,0.421875 0.4375,0.75 0.90625,0.75 0.359375,0 0.578125,-0.234375 0.75,-0.546875 0.15625,-0.359375 0.296875,-0.96875 0.296875,-0.984375 0,-0.109375 -0.09375,-0.109375 -0.125,-0.109375 -0.09375,0 -0.109375,0.046875 -0.140625,0.1875 -0.171875,0.640625 -0.34375,1.234375 -0.75,1.234375 -0.28125,0 -0.296875,-0.265625 -0.296875,-0.453125 0,-0.25 0.015625,-0.3125 0.046875,-0.484375 z m -2.0625,5.625 C 3.015625,-1 3.015625,-0.984375 2.875,-0.8125 2.4375,-0.265625 2.03125,-0.109375 1.75,-0.109375 c -0.5,0 -0.640625,-0.546875 -0.640625,-0.9375 0,-0.5 0.3125,-1.71875 0.546875,-2.1875 0.3125,-0.578125 0.75,-0.953125 1.15625,-0.953125 0.640625,0 0.78125,0.8125 0.78125,0.875 0,0.0625 -0.015625,0.125 -0.03125,0.171875 z m 0,0"
                 style="stroke:none" />
            </g>
            <g
               transform="translate(153.898,134.765)"
               id="g1900">
              <path
                 id="path1898"
                 d="m 4.84375,-3.796875 c 0.046875,-0.140625 0.046875,-0.15625 0.046875,-0.234375 0,-0.171875 -0.140625,-0.265625 -0.296875,-0.265625 -0.09375,0 -0.25,0.0625 -0.34375,0.203125 -0.015625,0.0625 -0.109375,0.359375 -0.140625,0.546875 -0.078125,0.25 -0.140625,0.53125 -0.203125,0.796875 l -0.453125,1.796875 c -0.03125,0.140625 -0.46875,0.84375 -1.125,0.84375 -0.5,0 -0.609375,-0.4375 -0.609375,-0.8125 C 1.71875,-1.375 1.890625,-2 2.21875,-2.875 2.375,-3.28125 2.421875,-3.390625 2.421875,-3.59375 c 0,-0.4375 -0.3125,-0.8125 -0.8125,-0.8125 -0.953125,0 -1.3125,1.453125 -1.3125,1.53125 0,0.109375 0.09375,0.109375 0.109375,0.109375 0.109375,0 0.109375,-0.03125 0.15625,-0.1875 0.28125,-0.9375 0.671875,-1.234375 1.015625,-1.234375 0.078125,0 0.25,0 0.25,0.3125 0,0.25 -0.109375,0.515625 -0.171875,0.703125 -0.40625,1.0625 -0.578125,1.625 -0.578125,2.09375 0,0.890625 0.625,1.1875 1.21875,1.1875 0.390625,0 0.71875,-0.171875 1,-0.453125 -0.125,0.515625 -0.25,1.015625 -0.640625,1.546875 -0.265625,0.328125 -0.640625,0.625 -1.09375,0.625 -0.140625,0 -0.59375,-0.03125 -0.765625,-0.421875 0.15625,0 0.296875,0 0.421875,-0.125 C 1.328125,1.203125 1.421875,1.0625 1.421875,0.875 1.421875,0.5625 1.15625,0.53125 1.0625,0.53125 0.828125,0.53125 0.5,0.6875 0.5,1.171875 c 0,0.5 0.4375,0.875 1.0625,0.875 1.015625,0 2.046875,-0.90625 2.328125,-2.03125 z m 0,0"
                 style="stroke:none" />
            </g>
          </g>
        </g>
      </g>
      <g
         transform="matrix(1.05833,0,0,1.05833,16.965249,15.090762)"
         ns1:version="1.0.1"
         ns1:texconverter="pdflatex"
         ns1:pdfconverter="inkscape"
         ns1:text="$y$"
         ns1:preamble="C:\\Users\\claum\\AppData\\Roaming\\inkscape\\extensions\\textext\\default_packages.tex"
         ns1:scale="3.0"
         ns1:alignment="middle center"
         ns1:jacobian_sqrt="1.05833"
         id="g1928">
        <defs
           id="defs1918">
          <g
             id="g1916">
            <symbol
               id="symbol1910"
               overflow="visible">
              <path
                 id="path1908"
                 d=""
                 style="stroke:none" />
            </symbol>
            <symbol
               id="symbol1914"
               overflow="visible">
              <path
                 id="path1912"
                 d="m 4.84375,-3.796875 c 0.046875,-0.140625 0.046875,-0.15625 0.046875,-0.234375 0,-0.171875 -0.140625,-0.265625 -0.296875,-0.265625 -0.09375,0 -0.25,0.0625 -0.34375,0.203125 -0.015625,0.0625 -0.109375,0.359375 -0.140625,0.546875 -0.078125,0.25 -0.140625,0.53125 -0.203125,0.796875 l -0.453125,1.796875 c -0.03125,0.140625 -0.46875,0.84375 -1.125,0.84375 -0.5,0 -0.609375,-0.4375 -0.609375,-0.8125 C 1.71875,-1.375 1.890625,-2 2.21875,-2.875 2.375,-3.28125 2.421875,-3.390625 2.421875,-3.59375 c 0,-0.4375 -0.3125,-0.8125 -0.8125,-0.8125 -0.953125,0 -1.3125,1.453125 -1.3125,1.53125 0,0.109375 0.09375,0.109375 0.109375,0.109375 0.109375,0 0.109375,-0.03125 0.15625,-0.1875 0.28125,-0.9375 0.671875,-1.234375 1.015625,-1.234375 0.078125,0 0.25,0 0.25,0.3125 0,0.25 -0.109375,0.515625 -0.171875,0.703125 -0.40625,1.0625 -0.578125,1.625 -0.578125,2.09375 0,0.890625 0.625,1.1875 1.21875,1.1875 0.390625,0 0.71875,-0.171875 1,-0.453125 -0.125,0.515625 -0.25,1.015625 -0.640625,1.546875 -0.265625,0.328125 -0.640625,0.625 -1.09375,0.625 -0.140625,0 -0.59375,-0.03125 -0.765625,-0.421875 0.15625,0 0.296875,0 0.421875,-0.125 C 1.328125,1.203125 1.421875,1.0625 1.421875,0.875 1.421875,0.5625 1.15625,0.53125 1.0625,0.53125 0.828125,0.53125 0.5,0.6875 0.5,1.171875 c 0,0.5 0.4375,0.875 1.0625,0.875 1.015625,0 2.046875,-0.90625 2.328125,-2.03125 z m 0,0"
                 style="stroke:none" />
            </symbol>
          </g>
        </defs>
        <g
           transform="translate(-149.009,-130.359)"
           id="g1926">
          <g
             id="g1924"
             style="fill:#000000;fill-opacity:1">
            <g
               transform="translate(148.712,134.765)"
               id="g1922">
              <path
                 id="path1920"
                 d="m 4.84375,-3.796875 c 0.046875,-0.140625 0.046875,-0.15625 0.046875,-0.234375 0,-0.171875 -0.140625,-0.265625 -0.296875,-0.265625 -0.09375,0 -0.25,0.0625 -0.34375,0.203125 -0.015625,0.0625 -0.109375,0.359375 -0.140625,0.546875 -0.078125,0.25 -0.140625,0.53125 -0.203125,0.796875 l -0.453125,1.796875 c -0.03125,0.140625 -0.46875,0.84375 -1.125,0.84375 -0.5,0 -0.609375,-0.4375 -0.609375,-0.8125 C 1.71875,-1.375 1.890625,-2 2.21875,-2.875 2.375,-3.28125 2.421875,-3.390625 2.421875,-3.59375 c 0,-0.4375 -0.3125,-0.8125 -0.8125,-0.8125 -0.953125,0 -1.3125,1.453125 -1.3125,1.53125 0,0.109375 0.09375,0.109375 0.109375,0.109375 0.109375,0 0.109375,-0.03125 0.15625,-0.1875 0.28125,-0.9375 0.671875,-1.234375 1.015625,-1.234375 0.078125,0 0.25,0 0.25,0.3125 0,0.25 -0.109375,0.515625 -0.171875,0.703125 -0.40625,1.0625 -0.578125,1.625 -0.578125,2.09375 0,0.890625 0.625,1.1875 1.21875,1.1875 0.390625,0 0.71875,-0.171875 1,-0.453125 -0.125,0.515625 -0.25,1.015625 -0.640625,1.546875 -0.265625,0.328125 -0.640625,0.625 -1.09375,0.625 -0.140625,0 -0.59375,-0.03125 -0.765625,-0.421875 0.15625,0 0.296875,0 0.421875,-0.125 C 1.328125,1.203125 1.421875,1.0625 1.421875,0.875 1.421875,0.5625 1.15625,0.53125 1.0625,0.53125 0.828125,0.53125 0.5,0.6875 0.5,1.171875 c 0,0.5 0.4375,0.875 1.0625,0.875 1.015625,0 2.046875,-0.90625 2.328125,-2.03125 z m 0,0"
                 style="stroke:none" />
            </g>
          </g>
        </g>
      </g>
      <g
         id="g2070"
         ns1:jacobian_sqrt="1.05833"
         ns1:alignment="middle center"
         ns1:scale="3.0"
         ns1:preamble="C:\\Users\\claum\\AppData\\Roaming\\inkscape\\extensions\\textext\\default_packages.tex"
         ns1:text="$y$"
         ns1:pdfconverter="inkscape"
         ns1:texconverter="pdflatex"
         ns1:version="1.0.1"
         transform="matrix(1.05833,0,0,1.05833,16.965249,15.090762)">
        <defs
           id="defs2060">
          <g
             id="g2058">
            <symbol
               overflow="visible"
               id="symbol2052">
              <path
                 style="stroke:none"
                 d=""
                 id="path2050" />
            </symbol>
            <symbol
               overflow="visible"
               id="symbol2056">
              <path
                 style="stroke:none"
                 d="m 4.84375,-3.796875 c 0.046875,-0.140625 0.046875,-0.15625 0.046875,-0.234375 0,-0.171875 -0.140625,-0.265625 -0.296875,-0.265625 -0.09375,0 -0.25,0.0625 -0.34375,0.203125 -0.015625,0.0625 -0.109375,0.359375 -0.140625,0.546875 -0.078125,0.25 -0.140625,0.53125 -0.203125,0.796875 l -0.453125,1.796875 c -0.03125,0.140625 -0.46875,0.84375 -1.125,0.84375 -0.5,0 -0.609375,-0.4375 -0.609375,-0.8125 C 1.71875,-1.375 1.890625,-2 2.21875,-2.875 2.375,-3.28125 2.421875,-3.390625 2.421875,-3.59375 c 0,-0.4375 -0.3125,-0.8125 -0.8125,-0.8125 -0.953125,0 -1.3125,1.453125 -1.3125,1.53125 0,0.109375 0.09375,0.109375 0.109375,0.109375 0.109375,0 0.109375,-0.03125 0.15625,-0.1875 0.28125,-0.9375 0.671875,-1.234375 1.015625,-1.234375 0.078125,0 0.25,0 0.25,0.3125 0,0.25 -0.109375,0.515625 -0.171875,0.703125 -0.40625,1.0625 -0.578125,1.625 -0.578125,2.09375 0,0.890625 0.625,1.1875 1.21875,1.1875 0.390625,0 0.71875,-0.171875 1,-0.453125 -0.125,0.515625 -0.25,1.015625 -0.640625,1.546875 -0.265625,0.328125 -0.640625,0.625 -1.09375,0.625 -0.140625,0 -0.59375,-0.03125 -0.765625,-0.421875 0.15625,0 0.296875,0 0.421875,-0.125 C 1.328125,1.203125 1.421875,1.0625 1.421875,0.875 1.421875,0.5625 1.15625,0.53125 1.0625,0.53125 0.828125,0.53125 0.5,0.6875 0.5,1.171875 c 0,0.5 0.4375,0.875 1.0625,0.875 1.015625,0 2.046875,-0.90625 2.328125,-2.03125 z m 0,0"
                 id="path2054" />
            </symbol>
          </g>
        </defs>
        <g
           id="g2068"
           transform="translate(-149.009,-130.359)">
          <g
             style="fill:#000000;fill-opacity:1"
             id="g2066">
            <g
               id="g2064"
               transform="translate(148.712,134.765)">
              <path
                 style="stroke:none"
                 d="m 4.84375,-3.796875 c 0.046875,-0.140625 0.046875,-0.15625 0.046875,-0.234375 0,-0.171875 -0.140625,-0.265625 -0.296875,-0.265625 -0.09375,0 -0.25,0.0625 -0.34375,0.203125 -0.015625,0.0625 -0.109375,0.359375 -0.140625,0.546875 -0.078125,0.25 -0.140625,0.53125 -0.203125,0.796875 l -0.453125,1.796875 c -0.03125,0.140625 -0.46875,0.84375 -1.125,0.84375 -0.5,0 -0.609375,-0.4375 -0.609375,-0.8125 C 1.71875,-1.375 1.890625,-2 2.21875,-2.875 2.375,-3.28125 2.421875,-3.390625 2.421875,-3.59375 c 0,-0.4375 -0.3125,-0.8125 -0.8125,-0.8125 -0.953125,0 -1.3125,1.453125 -1.3125,1.53125 0,0.109375 0.09375,0.109375 0.109375,0.109375 0.109375,0 0.109375,-0.03125 0.15625,-0.1875 0.28125,-0.9375 0.671875,-1.234375 1.015625,-1.234375 0.078125,0 0.25,0 0.25,0.3125 0,0.25 -0.109375,0.515625 -0.171875,0.703125 -0.40625,1.0625 -0.578125,1.625 -0.578125,2.09375 0,0.890625 0.625,1.1875 1.21875,1.1875 0.390625,0 0.71875,-0.171875 1,-0.453125 -0.125,0.515625 -0.25,1.015625 -0.640625,1.546875 -0.265625,0.328125 -0.640625,0.625 -1.09375,0.625 -0.140625,0 -0.59375,-0.03125 -0.765625,-0.421875 0.15625,0 0.296875,0 0.421875,-0.125 C 1.328125,1.203125 1.421875,1.0625 1.421875,0.875 1.421875,0.5625 1.15625,0.53125 1.0625,0.53125 0.828125,0.53125 0.5,0.6875 0.5,1.171875 c 0,0.5 0.4375,0.875 1.0625,0.875 1.015625,0 2.046875,-0.90625 2.328125,-2.03125 z m 0,0"
                 id="path2062" />
            </g>
          </g>
        </g>
      </g>
      <g
         transform="matrix(1.05833,0,0,1.05833,167.96525,126.09076)"
         ns1:version="1.0.1"
         ns1:texconverter="pdflatex"
         ns1:pdfconverter="inkscape"
         ns1:text="$y$"
         ns1:preamble="C:\\Users\\claum\\AppData\\Roaming\\inkscape\\extensions\\textext\\default_packages.tex"
         ns1:scale="3.0"
         ns1:alignment="middle center"
         ns1:jacobian_sqrt="1.05833"
         id="g2104">
        <defs
           id="defs2094">
          <g
             id="g2092">
            <symbol
               id="symbol2086"
               overflow="visible">
              <path
                 id="path2084"
                 d=""
                 style="stroke:none" />
            </symbol>
            <symbol
               id="symbol2090"
               overflow="visible">
              <path
                 id="path2088"
                 d="m 4.84375,-3.796875 c 0.046875,-0.140625 0.046875,-0.15625 0.046875,-0.234375 0,-0.171875 -0.140625,-0.265625 -0.296875,-0.265625 -0.09375,0 -0.25,0.0625 -0.34375,0.203125 -0.015625,0.0625 -0.109375,0.359375 -0.140625,0.546875 -0.078125,0.25 -0.140625,0.53125 -0.203125,0.796875 l -0.453125,1.796875 c -0.03125,0.140625 -0.46875,0.84375 -1.125,0.84375 -0.5,0 -0.609375,-0.4375 -0.609375,-0.8125 C 1.71875,-1.375 1.890625,-2 2.21875,-2.875 2.375,-3.28125 2.421875,-3.390625 2.421875,-3.59375 c 0,-0.4375 -0.3125,-0.8125 -0.8125,-0.8125 -0.953125,0 -1.3125,1.453125 -1.3125,1.53125 0,0.109375 0.09375,0.109375 0.109375,0.109375 0.109375,0 0.109375,-0.03125 0.15625,-0.1875 0.28125,-0.9375 0.671875,-1.234375 1.015625,-1.234375 0.078125,0 0.25,0 0.25,0.3125 0,0.25 -0.109375,0.515625 -0.171875,0.703125 -0.40625,1.0625 -0.578125,1.625 -0.578125,2.09375 0,0.890625 0.625,1.1875 1.21875,1.1875 0.390625,0 0.71875,-0.171875 1,-0.453125 -0.125,0.515625 -0.25,1.015625 -0.640625,1.546875 -0.265625,0.328125 -0.640625,0.625 -1.09375,0.625 -0.140625,0 -0.59375,-0.03125 -0.765625,-0.421875 0.15625,0 0.296875,0 0.421875,-0.125 C 1.328125,1.203125 1.421875,1.0625 1.421875,0.875 1.421875,0.5625 1.15625,0.53125 1.0625,0.53125 0.828125,0.53125 0.5,0.6875 0.5,1.171875 c 0,0.5 0.4375,0.875 1.0625,0.875 1.015625,0 2.046875,-0.90625 2.328125,-2.03125 z m 0,0"
                 style="stroke:none" />
            </symbol>
          </g>
        </defs>
        <g
           transform="translate(-149.009,-130.359)"
           id="g2102">
          <g
             id="g2100"
             style="fill:#000000;fill-opacity:1">
            <g
               transform="translate(148.712,134.765)"
               id="g2098">
              <path
                 id="path2096"
                 d="m 4.84375,-3.796875 c 0.046875,-0.140625 0.046875,-0.15625 0.046875,-0.234375 0,-0.171875 -0.140625,-0.265625 -0.296875,-0.265625 -0.09375,0 -0.25,0.0625 -0.34375,0.203125 -0.015625,0.0625 -0.109375,0.359375 -0.140625,0.546875 -0.078125,0.25 -0.140625,0.53125 -0.203125,0.796875 l -0.453125,1.796875 c -0.03125,0.140625 -0.46875,0.84375 -1.125,0.84375 -0.5,0 -0.609375,-0.4375 -0.609375,-0.8125 C 1.71875,-1.375 1.890625,-2 2.21875,-2.875 2.375,-3.28125 2.421875,-3.390625 2.421875,-3.59375 c 0,-0.4375 -0.3125,-0.8125 -0.8125,-0.8125 -0.953125,0 -1.3125,1.453125 -1.3125,1.53125 0,0.109375 0.09375,0.109375 0.109375,0.109375 0.109375,0 0.109375,-0.03125 0.15625,-0.1875 0.28125,-0.9375 0.671875,-1.234375 1.015625,-1.234375 0.078125,0 0.25,0 0.25,0.3125 0,0.25 -0.109375,0.515625 -0.171875,0.703125 -0.40625,1.0625 -0.578125,1.625 -0.578125,2.09375 0,0.890625 0.625,1.1875 1.21875,1.1875 0.390625,0 0.71875,-0.171875 1,-0.453125 -0.125,0.515625 -0.25,1.015625 -0.640625,1.546875 -0.265625,0.328125 -0.640625,0.625 -1.09375,0.625 -0.140625,0 -0.59375,-0.03125 -0.765625,-0.421875 0.15625,0 0.296875,0 0.421875,-0.125 C 1.328125,1.203125 1.421875,1.0625 1.421875,0.875 1.421875,0.5625 1.15625,0.53125 1.0625,0.53125 0.828125,0.53125 0.5,0.6875 0.5,1.171875 c 0,0.5 0.4375,0.875 1.0625,0.875 1.015625,0 2.046875,-0.90625 2.328125,-2.03125 z m 0,0"
                 style="stroke:none" />
            </g>
          </g>
        </g>
      </g>
      <g
         id="g2248"
         ns1:jacobian_sqrt="1.05833"
         ns1:alignment="middle center"
         ns1:scale="3.0"
         ns1:preamble="C:\\Users\\claum\\AppData\\Roaming\\inkscape\\extensions\\textext\\default_packages.tex"
         ns1:text="$h$"
         ns1:pdfconverter="inkscape"
         ns1:texconverter="pdflatex"
         ns1:version="1.0.1"
         transform="matrix(1.05833,0,0,1.05833,5.8503995,111.7422)">
        <defs
           id="id-41a9ff70-aab9-4974-9eff-c4981dfbd79b">
          <g
             id="id-c703ecd3-525e-413e-9caa-f27f797dd5f5">
            <symbol
               overflow="visible"
               id="id-9749f93b-7372-4ecd-9afc-2536e060fd64">
              <path
                 style="stroke:none"
                 d=""
                 id="id-0b8887d0-926a-4438-9261-158d51a27125" />
            </symbol>
            <symbol
               overflow="visible"
               id="id-7a016ace-d0cf-482f-b68b-5ea637816054">
              <path
                 style="stroke:none"
                 d="m 2.859375,-6.8125 c 0,0 0,-0.109375 -0.125,-0.109375 -0.234375,0 -0.953125,0.078125 -1.21875,0.109375 -0.078125,0 -0.1875,0.015625 -0.1875,0.1875 0,0.125 0.09375,0.125 0.234375,0.125 0.484375,0 0.5,0.0625 0.5,0.171875 L 2.03125,-6.125 0.59375,-0.390625 c -0.046875,0.140625 -0.046875,0.15625 -0.046875,0.21875 0,0.234375 0.203125,0.28125 0.296875,0.28125 0.15625,0 0.3125,-0.125 0.359375,-0.265625 l 0.1875,-0.75 0.21875,-0.890625 C 1.671875,-2.03125 1.734375,-2.25 1.78125,-2.46875 1.796875,-2.53125 1.890625,-2.859375 1.890625,-2.921875 1.921875,-3.015625 2.234375,-3.5625 2.578125,-3.84375 2.796875,-4 3.09375,-4.1875 3.53125,-4.1875 c 0.421875,0 0.53125,0.34375 0.53125,0.703125 0,0.53125 -0.375,1.625 -0.609375,2.234375 C 3.375,-1.03125 3.3125,-0.90625 3.3125,-0.703125 c 0,0.46875 0.359375,0.8125 0.828125,0.8125 0.9375,0 1.296875,-1.453125 1.296875,-1.53125 0,-0.109375 -0.078125,-0.109375 -0.109375,-0.109375 -0.109375,0 -0.109375,0.03125 -0.15625,0.1875 -0.140625,0.53125 -0.46875,1.234375 -1.015625,1.234375 -0.171875,0 -0.234375,-0.09375 -0.234375,-0.328125 0,-0.25 0.078125,-0.484375 0.171875,-0.703125 0.15625,-0.4375 0.609375,-1.625 0.609375,-2.203125 0,-0.640625 -0.390625,-1.0625 -1.140625,-1.0625 -0.625,0 -1.109375,0.3125 -1.484375,0.765625 z m 0,0"
                 id="id-de493ee2-2845-4032-9013-83c7a71ad08f" />
            </symbol>
          </g>
        </defs>
        <g
           id="id-6c0d8416-610c-4fac-a9d4-e95b02fe12d0"
           transform="translate(-149.259,-127.843)">
          <g
             style="fill:#000000;fill-opacity:1"
             id="id-b255b171-ead1-497f-8c6a-627dd8cecdd3">
            <g
               id="g2244"
               transform="translate(148.712,134.765)">
              <path
                 style="stroke:none"
                 d="m 2.859375,-6.8125 c 0,0 0,-0.109375 -0.125,-0.109375 -0.234375,0 -0.953125,0.078125 -1.21875,0.109375 -0.078125,0 -0.1875,0.015625 -0.1875,0.1875 0,0.125 0.09375,0.125 0.234375,0.125 0.484375,0 0.5,0.0625 0.5,0.171875 L 2.03125,-6.125 0.59375,-0.390625 c -0.046875,0.140625 -0.046875,0.15625 -0.046875,0.21875 0,0.234375 0.203125,0.28125 0.296875,0.28125 0.15625,0 0.3125,-0.125 0.359375,-0.265625 l 0.1875,-0.75 0.21875,-0.890625 C 1.671875,-2.03125 1.734375,-2.25 1.78125,-2.46875 1.796875,-2.53125 1.890625,-2.859375 1.890625,-2.921875 1.921875,-3.015625 2.234375,-3.5625 2.578125,-3.84375 2.796875,-4 3.09375,-4.1875 3.53125,-4.1875 c 0.421875,0 0.53125,0.34375 0.53125,0.703125 0,0.53125 -0.375,1.625 -0.609375,2.234375 C 3.375,-1.03125 3.3125,-0.90625 3.3125,-0.703125 c 0,0.46875 0.359375,0.8125 0.828125,0.8125 0.9375,0 1.296875,-1.453125 1.296875,-1.53125 0,-0.109375 -0.078125,-0.109375 -0.109375,-0.109375 -0.109375,0 -0.109375,0.03125 -0.15625,0.1875 -0.140625,0.53125 -0.46875,1.234375 -1.015625,1.234375 -0.171875,0 -0.234375,-0.09375 -0.234375,-0.328125 0,-0.25 0.078125,-0.484375 0.171875,-0.703125 0.15625,-0.4375 0.609375,-1.625 0.609375,-2.203125 0,-0.640625 -0.390625,-1.0625 -1.140625,-1.0625 -0.625,0 -1.109375,0.3125 -1.484375,0.765625 z m 0,0"
                 id="id-7fde20e3-f500-4c8c-974a-960c51f36fc4" />
            </g>
          </g>
        </g>
      </g>
      <g
         id="g2417"
         ns1:jacobian_sqrt="1.05833"
         ns1:alignment="middle center"
         ns1:scale="3.0"
         ns1:preamble="C:\\Users\\claum\\AppData\\Roaming\\inkscape\\extensions\\textext\\default_packages.tex"
         ns1:text="$b$"
         ns1:pdfconverter="inkscape"
         ns1:texconverter="pdflatex"
         ns1:version="1.0.1"
         transform="matrix(1.05833,0,0,1.05833,72.958471,176.89884)">
        <defs
           id="id-82b32515-ec49-4f32-b508-d27b4b45550f">
          <g
             id="id-1968f09a-b067-48d1-ba2d-eb0b07bc589a">
            <symbol
               overflow="visible"
               id="id-2d0532e7-f26c-408b-a72b-7bc56171ceb2">
              <path
                 style="stroke:none"
                 d=""
                 id="id-0c3bfd0b-a5a6-42f8-8965-cb678f05b935" />
            </symbol>
            <symbol
               overflow="visible"
               id="id-a0b0d772-3efb-4f20-8b4a-b9f7783623d2">
              <path
                 style="stroke:none"
                 d="m 2.375,-6.8125 c 0,0 0,-0.109375 -0.125,-0.109375 -0.21875,0 -0.953125,0.078125 -1.21875,0.109375 -0.078125,0 -0.1875,0.015625 -0.1875,0.1875 0,0.125 0.09375,0.125 0.25,0.125 0.46875,0 0.484375,0.0625 0.484375,0.171875 0,0.0625 -0.078125,0.40625 -0.125,0.609375 l -0.828125,3.25 c -0.109375,0.5 -0.15625,0.671875 -0.15625,1.015625 0,0.9375 0.53125,1.5625 1.265625,1.5625 1.171875,0 2.40625,-1.484375 2.40625,-2.921875 0,-0.90625 -0.53125,-1.59375 -1.328125,-1.59375 -0.453125,0 -0.875,0.296875 -1.171875,0.59375 z M 1.453125,-3.046875 C 1.5,-3.265625 1.5,-3.28125 1.59375,-3.390625 2.078125,-4.03125 2.53125,-4.1875 2.796875,-4.1875 c 0.359375,0 0.625,0.296875 0.625,0.9375 0,0.59375 -0.328125,1.734375 -0.515625,2.109375 -0.328125,0.671875 -0.78125,1.03125 -1.171875,1.03125 -0.34375,0 -0.671875,-0.265625 -0.671875,-1 0,-0.203125 0,-0.390625 0.15625,-1.015625 z m 0,0"
                 id="id-beb46be9-9a23-4640-a9f9-e6534e61d5d0" />
            </symbol>
          </g>
        </defs>
        <g
           id="id-c5265fb0-ba64-4d2f-b9fe-f0fb43d030c6"
           transform="translate(-149.181,-127.843)">
          <g
             style="fill:#000000;fill-opacity:1"
             id="id-3cc2d47a-3a59-415e-ae80-9a2ef957badc">
            <g
               id="g2413"
               transform="translate(148.712,134.765)">
              <path
                 style="stroke:none"
                 d="m 2.375,-6.8125 c 0,0 0,-0.109375 -0.125,-0.109375 -0.21875,0 -0.953125,0.078125 -1.21875,0.109375 -0.078125,0 -0.1875,0.015625 -0.1875,0.1875 0,0.125 0.09375,0.125 0.25,0.125 0.46875,0 0.484375,0.0625 0.484375,0.171875 0,0.0625 -0.078125,0.40625 -0.125,0.609375 l -0.828125,3.25 c -0.109375,0.5 -0.15625,0.671875 -0.15625,1.015625 0,0.9375 0.53125,1.5625 1.265625,1.5625 1.171875,0 2.40625,-1.484375 2.40625,-2.921875 0,-0.90625 -0.53125,-1.59375 -1.328125,-1.59375 -0.453125,0 -0.875,0.296875 -1.171875,0.59375 z M 1.453125,-3.046875 C 1.5,-3.265625 1.5,-3.28125 1.59375,-3.390625 2.078125,-4.03125 2.53125,-4.1875 2.796875,-4.1875 c 0.359375,0 0.625,0.296875 0.625,0.9375 0,0.59375 -0.328125,1.734375 -0.515625,2.109375 -0.328125,0.671875 -0.78125,1.03125 -1.171875,1.03125 -0.34375,0 -0.671875,-0.265625 -0.671875,-1 0,-0.203125 0,-0.390625 0.15625,-1.015625 z m 0,0"
                 id="id-e3917f46-a18c-4614-af3b-a6ea342332f3" />
            </g>
          </g>
        </g>
      </g>
    </g>
  </g>
</svg>
