<?xml version="1.0" encoding="UTF-8" standalone="no"?>
<svg
   xmlns:ns2="http://www.iki.fi/pav/software/textext/"
   xmlns:dc="http://purl.org/dc/elements/1.1/"
   xmlns:cc="http://creativecommons.org/ns#"
   xmlns:rdf="http://www.w3.org/1999/02/22-rdf-syntax-ns#"
   xmlns:svg="http://www.w3.org/2000/svg"
   xmlns="http://www.w3.org/2000/svg"
   xmlns:sodipodi="http://sodipodi.sourceforge.net/DTD/sodipodi-0.dtd"
   xmlns:inkscape="http://www.inkscape.org/namespaces/inkscape"
   sodipodi:docname="Figura6_9c.svg"
   inkscape:version="1.0 (4035a4fb49, 2020-05-01)"
   id="svg4950"
   version="1.1"
   viewBox="0 0 400 399.99999"
   height="40cm"
   width="40cm">
  <defs
     id="defs4944">
    <g
       id="g1190">
      <symbol
         overflow="visible"
         id="symbol1176">
        <path
           style="stroke:none"
           d=""
           id="path1174" />
      </symbol>
      <symbol
         overflow="visible"
         id="symbol1180">
        <path
           style="stroke:none"
           d="m 7.640625,-6.671875 c 0,-0.1875 0,-0.28125 -0.1875,-0.28125 -0.09375,0 -0.109375,0.03125 -0.1875,0.09375 l -0.65625,0.59375 c -0.625,-0.5 -1.28125,-0.6875 -1.96875,-0.6875 -2.484375,0 -4,1.484375 -4,3.53125 0,2.046875 1.515625,3.53125 4,3.53125 1.875,0 3,-1.21875 3,-2.375 0,-0.203125 -0.078125,-0.203125 -0.25,-0.203125 -0.125,0 -0.21875,0 -0.21875,0.171875 -0.078125,1.328125 -1.28125,1.9375 -2.28125,1.9375 -0.78125,0 -1.625,-0.234375 -2.140625,-0.84375 -0.46875,-0.578125 -0.59375,-1.3125 -0.59375,-2.21875 0,-0.5625 0.03125,-1.625 0.671875,-2.296875 0.640625,-0.65625 1.515625,-0.765625 2.03125,-0.765625 1.078125,0 2.015625,0.765625 2.234375,2.03125 C 7.125,-4.265625 7.140625,-4.25 7.359375,-4.25 c 0.265625,0 0.28125,-0.015625 0.28125,-0.28125 z m 0,0"
           id="path1178" />
      </symbol>
      <symbol
         overflow="visible"
         id="symbol1184">
        <path
           style="stroke:none"
           d=""
           id="path1182" />
      </symbol>
      <symbol
         overflow="visible"
         id="symbol1188">
        <path
           style="stroke:none"
           d="m 2.328125,-4.4375 c 0,-0.1875 0,-0.1875 -0.203125,-0.1875 -0.453125,0.4375 -1.078125,0.4375 -1.359375,0.4375 v 0.25 c 0.15625,0 0.625,0 1,-0.1875 v 3.546875 c 0,0.234375 0,0.328125 -0.6875,0.328125 H 0.8125 V 0 c 0.125,0 0.984375,-0.03125 1.234375,-0.03125 0.21875,0 1.09375,0.03125 1.25,0.03125 V -0.25 H 3.03125 c -0.703125,0 -0.703125,-0.09375 -0.703125,-0.328125 z m 0,0"
           id="path1186" />
      </symbol>
    </g>
    <g
       id="g1274">
      <symbol
         id="symbol1260"
         overflow="visible">
        <path
           id="path1258"
           d=""
           style="stroke:none" />
      </symbol>
      <symbol
         id="symbol1264"
         overflow="visible">
        <path
           id="path1262"
           d="m 7.640625,-6.671875 c 0,-0.1875 0,-0.28125 -0.1875,-0.28125 -0.09375,0 -0.109375,0.03125 -0.1875,0.09375 l -0.65625,0.59375 c -0.625,-0.5 -1.28125,-0.6875 -1.96875,-0.6875 -2.484375,0 -4,1.484375 -4,3.53125 0,2.046875 1.515625,3.53125 4,3.53125 1.875,0 3,-1.21875 3,-2.375 0,-0.203125 -0.078125,-0.203125 -0.25,-0.203125 -0.125,0 -0.21875,0 -0.21875,0.171875 -0.078125,1.328125 -1.28125,1.9375 -2.28125,1.9375 -0.78125,0 -1.625,-0.234375 -2.140625,-0.84375 -0.46875,-0.578125 -0.59375,-1.3125 -0.59375,-2.21875 0,-0.5625 0.03125,-1.625 0.671875,-2.296875 0.640625,-0.65625 1.515625,-0.765625 2.03125,-0.765625 1.078125,0 2.015625,0.765625 2.234375,2.03125 C 7.125,-4.265625 7.140625,-4.25 7.359375,-4.25 c 0.265625,0 0.28125,-0.015625 0.28125,-0.28125 z m 0,0"
           style="stroke:none" />
      </symbol>
      <symbol
         id="symbol1268"
         overflow="visible">
        <path
           id="path1266"
           d=""
           style="stroke:none" />
      </symbol>
      <symbol
         id="symbol1272"
         overflow="visible">
        <path
           id="path1270"
           d="M 3.515625,-1.265625 H 3.28125 c -0.015625,0.15625 -0.09375,0.5625 -0.1875,0.625 C 3.046875,-0.59375 2.515625,-0.59375 2.40625,-0.59375 H 1.125 c 0.734375,-0.640625 0.984375,-0.84375 1.390625,-1.171875 0.515625,-0.40625 1,-0.84375 1,-1.5 0,-0.84375 -0.734375,-1.359375 -1.625,-1.359375 -0.859375,0 -1.453125,0.609375 -1.453125,1.25 0,0.34375 0.296875,0.390625 0.375,0.390625 0.15625,0 0.359375,-0.125 0.359375,-0.375 0,-0.125 -0.046875,-0.375 -0.40625,-0.375 C 0.984375,-4.21875 1.453125,-4.375 1.78125,-4.375 c 0.703125,0 1.0625,0.546875 1.0625,1.109375 0,0.609375 -0.4375,1.078125 -0.65625,1.328125 L 0.515625,-0.265625 C 0.4375,-0.203125 0.4375,-0.1875 0.4375,0 h 2.875 z m 0,0"
           style="stroke:none" />
      </symbol>
    </g>
    <g
       id="g1358">
      <symbol
         id="symbol1344"
         overflow="visible">
        <path
           id="path1342"
           d=""
           style="stroke:none" />
      </symbol>
      <symbol
         id="symbol1348"
         overflow="visible">
        <path
           id="path1346"
           d="m 7.640625,-6.671875 c 0,-0.1875 0,-0.28125 -0.1875,-0.28125 -0.09375,0 -0.109375,0.03125 -0.1875,0.09375 l -0.65625,0.59375 c -0.625,-0.5 -1.28125,-0.6875 -1.96875,-0.6875 -2.484375,0 -4,1.484375 -4,3.53125 0,2.046875 1.515625,3.53125 4,3.53125 1.875,0 3,-1.21875 3,-2.375 0,-0.203125 -0.078125,-0.203125 -0.25,-0.203125 -0.125,0 -0.21875,0 -0.21875,0.171875 -0.078125,1.328125 -1.28125,1.9375 -2.28125,1.9375 -0.78125,0 -1.625,-0.234375 -2.140625,-0.84375 -0.46875,-0.578125 -0.59375,-1.3125 -0.59375,-2.21875 0,-0.5625 0.03125,-1.625 0.671875,-2.296875 0.640625,-0.65625 1.515625,-0.765625 2.03125,-0.765625 1.078125,0 2.015625,0.765625 2.234375,2.03125 C 7.125,-4.265625 7.140625,-4.25 7.359375,-4.25 c 0.265625,0 0.28125,-0.015625 0.28125,-0.28125 z m 0,0"
           style="stroke:none" />
      </symbol>
      <symbol
         id="symbol1352"
         overflow="visible">
        <path
           id="path1350"
           d=""
           style="stroke:none" />
      </symbol>
      <symbol
         id="symbol1356"
         overflow="visible">
        <path
           id="path1354"
           d="m 1.90625,-2.328125 c 0.546875,0 0.9375,0.375 0.9375,1.125 0,0.859375 -0.515625,1.125 -0.90625,1.125 -0.28125,0 -0.90625,-0.078125 -1.1875,-0.5 0.328125,0 0.40625,-0.234375 0.40625,-0.390625 0,-0.21875 -0.171875,-0.375 -0.390625,-0.375 -0.1875,0 -0.390625,0.125 -0.390625,0.40625 0,0.65625 0.71875,1.078125 1.5625,1.078125 0.96875,0 1.640625,-0.65625 1.640625,-1.34375 0,-0.546875 -0.4375,-1.09375 -1.203125,-1.25 0.71875,-0.265625 0.984375,-0.78125 0.984375,-1.21875 0,-0.546875 -0.625,-0.953125 -1.40625,-0.953125 -0.765625,0 -1.359375,0.375 -1.359375,0.9375 0,0.234375 0.15625,0.359375 0.359375,0.359375 0.21875,0 0.359375,-0.15625 0.359375,-0.34375 0,-0.203125 -0.140625,-0.359375 -0.359375,-0.375 0.25,-0.296875 0.71875,-0.375 0.984375,-0.375 0.3125,0 0.75,0.15625 0.75,0.75 0,0.296875 -0.09375,0.625 -0.28125,0.828125 -0.21875,0.265625 -0.421875,0.28125 -0.765625,0.3125 -0.171875,0.015625 -0.1875,0.015625 -0.21875,0.015625 -0.015625,0 -0.078125,0.015625 -0.078125,0.09375 0,0.09375 0.0625,0.09375 0.1875,0.09375 z m 0,0"
           style="stroke:none" />
      </symbol>
    </g>
    <g
       id="g1442">
      <symbol
         id="symbol1428"
         overflow="visible">
        <path
           id="path1426"
           d=""
           style="stroke:none" />
      </symbol>
      <symbol
         id="symbol1432"
         overflow="visible">
        <path
           id="path1430"
           d="m 7.640625,-6.671875 c 0,-0.1875 0,-0.28125 -0.1875,-0.28125 -0.09375,0 -0.109375,0.03125 -0.1875,0.09375 l -0.65625,0.59375 c -0.625,-0.5 -1.28125,-0.6875 -1.96875,-0.6875 -2.484375,0 -4,1.484375 -4,3.53125 0,2.046875 1.515625,3.53125 4,3.53125 1.875,0 3,-1.21875 3,-2.375 0,-0.203125 -0.078125,-0.203125 -0.25,-0.203125 -0.125,0 -0.21875,0 -0.21875,0.171875 -0.078125,1.328125 -1.28125,1.9375 -2.28125,1.9375 -0.78125,0 -1.625,-0.234375 -2.140625,-0.84375 -0.46875,-0.578125 -0.59375,-1.3125 -0.59375,-2.21875 0,-0.5625 0.03125,-1.625 0.671875,-2.296875 0.640625,-0.65625 1.515625,-0.765625 2.03125,-0.765625 1.078125,0 2.015625,0.765625 2.234375,2.03125 C 7.125,-4.265625 7.140625,-4.25 7.359375,-4.25 c 0.265625,0 0.28125,-0.015625 0.28125,-0.28125 z m 0,0"
           style="stroke:none" />
      </symbol>
      <symbol
         id="symbol1436"
         overflow="visible">
        <path
           id="path1434"
           d=""
           style="stroke:none" />
      </symbol>
      <symbol
         id="symbol1440"
         overflow="visible">
        <path
           id="path1438"
           d="m 3.6875,-1.140625 v -0.25 H 2.90625 V -4.5 c 0,-0.140625 0,-0.203125 -0.140625,-0.203125 -0.09375,0 -0.125,0 -0.1875,0.109375 l -2.3125,3.203125 v 0.25 h 2.0625 v 0.5625 c 0,0.25 0,0.328125 -0.578125,0.328125 H 1.5625 V 0 C 1.921875,-0.015625 2.359375,-0.03125 2.609375,-0.03125 2.875,-0.03125 3.3125,-0.015625 3.671875,0 v -0.25 h -0.1875 C 2.90625,-0.25 2.90625,-0.328125 2.90625,-0.578125 v -0.5625 z M 2.375,-3.9375 v 2.546875 H 0.53125 Z m 0,0"
           style="stroke:none" />
      </symbol>
    </g>
    <g
       id="g1846">
      <symbol
         overflow="visible"
         id="symbol1832">
        <path
           style="stroke:none"
           d=""
           id="path1830" />
      </symbol>
      <symbol
         overflow="visible"
         id="symbol1836">
        <path
           style="stroke:none"
           d="m 2.046875,-3.984375 h 0.9375 c 0.203125,0 0.3125,0 0.3125,-0.203125 0,-0.109375 -0.109375,-0.109375 -0.28125,-0.109375 h -0.875 C 2.5,-5.71875 2.546875,-5.90625 2.546875,-5.96875 c 0,-0.171875 -0.125,-0.265625 -0.296875,-0.265625 -0.03125,0 -0.3125,0 -0.390625,0.359375 L 1.46875,-4.296875 h -0.9375 c -0.203125,0 -0.296875,0 -0.296875,0.1875 0,0.125 0.078125,0.125 0.28125,0.125 h 0.875 C 0.671875,-1.15625 0.625,-0.984375 0.625,-0.8125 0.625,-0.265625 1,0.109375 1.546875,0.109375 2.5625,0.109375 3.125,-1.34375 3.125,-1.421875 3.125,-1.53125 3.046875,-1.53125 3.015625,-1.53125 2.921875,-1.53125 2.90625,-1.5 2.859375,-1.390625 2.4375,-0.34375 1.90625,-0.109375 1.5625,-0.109375 c -0.203125,0 -0.3125,-0.125 -0.3125,-0.453125 0,-0.25 0.03125,-0.3125 0.0625,-0.484375 z m 0,0"
           id="path1834" />
      </symbol>
      <symbol
         overflow="visible"
         id="symbol1840">
        <path
           style="stroke:none"
           d=""
           id="path1838" />
      </symbol>
      <symbol
         overflow="visible"
         id="symbol1844">
        <path
           style="stroke:none"
           d="m 2.328125,-4.4375 c 0,-0.1875 0,-0.1875 -0.203125,-0.1875 -0.453125,0.4375 -1.078125,0.4375 -1.359375,0.4375 v 0.25 c 0.15625,0 0.625,0 1,-0.1875 v 3.546875 c 0,0.234375 0,0.328125 -0.6875,0.328125 H 0.8125 V 0 c 0.125,0 0.984375,-0.03125 1.234375,-0.03125 0.21875,0 1.09375,0.03125 1.25,0.03125 V -0.25 H 3.03125 c -0.703125,0 -0.703125,-0.09375 -0.703125,-0.328125 z m 0,0"
           id="path1842" />
      </symbol>
    </g>
    <g
       id="g1930">
      <symbol
         id="symbol1916"
         overflow="visible">
        <path
           id="path1914"
           d=""
           style="stroke:none" />
      </symbol>
      <symbol
         id="symbol1920"
         overflow="visible">
        <path
           id="path1918"
           d="m 2.046875,-3.984375 h 0.9375 c 0.203125,0 0.3125,0 0.3125,-0.203125 0,-0.109375 -0.109375,-0.109375 -0.28125,-0.109375 h -0.875 C 2.5,-5.71875 2.546875,-5.90625 2.546875,-5.96875 c 0,-0.171875 -0.125,-0.265625 -0.296875,-0.265625 -0.03125,0 -0.3125,0 -0.390625,0.359375 L 1.46875,-4.296875 h -0.9375 c -0.203125,0 -0.296875,0 -0.296875,0.1875 0,0.125 0.078125,0.125 0.28125,0.125 h 0.875 C 0.671875,-1.15625 0.625,-0.984375 0.625,-0.8125 0.625,-0.265625 1,0.109375 1.546875,0.109375 2.5625,0.109375 3.125,-1.34375 3.125,-1.421875 3.125,-1.53125 3.046875,-1.53125 3.015625,-1.53125 2.921875,-1.53125 2.90625,-1.5 2.859375,-1.390625 2.4375,-0.34375 1.90625,-0.109375 1.5625,-0.109375 c -0.203125,0 -0.3125,-0.125 -0.3125,-0.453125 0,-0.25 0.03125,-0.3125 0.0625,-0.484375 z m 0,0"
           style="stroke:none" />
      </symbol>
      <symbol
         id="symbol1924"
         overflow="visible">
        <path
           id="path1922"
           d=""
           style="stroke:none" />
      </symbol>
      <symbol
         id="symbol1928"
         overflow="visible">
        <path
           id="path1926"
           d="M 3.515625,-1.265625 H 3.28125 c -0.015625,0.15625 -0.09375,0.5625 -0.1875,0.625 C 3.046875,-0.59375 2.515625,-0.59375 2.40625,-0.59375 H 1.125 c 0.734375,-0.640625 0.984375,-0.84375 1.390625,-1.171875 0.515625,-0.40625 1,-0.84375 1,-1.5 0,-0.84375 -0.734375,-1.359375 -1.625,-1.359375 -0.859375,0 -1.453125,0.609375 -1.453125,1.25 0,0.34375 0.296875,0.390625 0.375,0.390625 0.15625,0 0.359375,-0.125 0.359375,-0.375 0,-0.125 -0.046875,-0.375 -0.40625,-0.375 C 0.984375,-4.21875 1.453125,-4.375 1.78125,-4.375 c 0.703125,0 1.0625,0.546875 1.0625,1.109375 0,0.609375 -0.4375,1.078125 -0.65625,1.328125 L 0.515625,-0.265625 C 0.4375,-0.203125 0.4375,-0.1875 0.4375,0 h 2.875 z m 0,0"
           style="stroke:none" />
      </symbol>
    </g>
    <g
       id="g2014">
      <symbol
         id="symbol2000"
         overflow="visible">
        <path
           id="path1998"
           d=""
           style="stroke:none" />
      </symbol>
      <symbol
         id="symbol2004"
         overflow="visible">
        <path
           id="path2002"
           d="m 2.046875,-3.984375 h 0.9375 c 0.203125,0 0.3125,0 0.3125,-0.203125 0,-0.109375 -0.109375,-0.109375 -0.28125,-0.109375 h -0.875 C 2.5,-5.71875 2.546875,-5.90625 2.546875,-5.96875 c 0,-0.171875 -0.125,-0.265625 -0.296875,-0.265625 -0.03125,0 -0.3125,0 -0.390625,0.359375 L 1.46875,-4.296875 h -0.9375 c -0.203125,0 -0.296875,0 -0.296875,0.1875 0,0.125 0.078125,0.125 0.28125,0.125 h 0.875 C 0.671875,-1.15625 0.625,-0.984375 0.625,-0.8125 0.625,-0.265625 1,0.109375 1.546875,0.109375 2.5625,0.109375 3.125,-1.34375 3.125,-1.421875 3.125,-1.53125 3.046875,-1.53125 3.015625,-1.53125 2.921875,-1.53125 2.90625,-1.5 2.859375,-1.390625 2.4375,-0.34375 1.90625,-0.109375 1.5625,-0.109375 c -0.203125,0 -0.3125,-0.125 -0.3125,-0.453125 0,-0.25 0.03125,-0.3125 0.0625,-0.484375 z m 0,0"
           style="stroke:none" />
      </symbol>
      <symbol
         id="symbol2008"
         overflow="visible">
        <path
           id="path2006"
           d=""
           style="stroke:none" />
      </symbol>
      <symbol
         id="symbol2012"
         overflow="visible">
        <path
           id="path2010"
           d="m 1.90625,-2.328125 c 0.546875,0 0.9375,0.375 0.9375,1.125 0,0.859375 -0.515625,1.125 -0.90625,1.125 -0.28125,0 -0.90625,-0.078125 -1.1875,-0.5 0.328125,0 0.40625,-0.234375 0.40625,-0.390625 0,-0.21875 -0.171875,-0.375 -0.390625,-0.375 -0.1875,0 -0.390625,0.125 -0.390625,0.40625 0,0.65625 0.71875,1.078125 1.5625,1.078125 0.96875,0 1.640625,-0.65625 1.640625,-1.34375 0,-0.546875 -0.4375,-1.09375 -1.203125,-1.25 0.71875,-0.265625 0.984375,-0.78125 0.984375,-1.21875 0,-0.546875 -0.625,-0.953125 -1.40625,-0.953125 -0.765625,0 -1.359375,0.375 -1.359375,0.9375 0,0.234375 0.15625,0.359375 0.359375,0.359375 0.21875,0 0.359375,-0.15625 0.359375,-0.34375 0,-0.203125 -0.140625,-0.359375 -0.359375,-0.375 0.25,-0.296875 0.71875,-0.375 0.984375,-0.375 0.3125,0 0.75,0.15625 0.75,0.75 0,0.296875 -0.09375,0.625 -0.28125,0.828125 -0.21875,0.265625 -0.421875,0.28125 -0.765625,0.3125 -0.171875,0.015625 -0.1875,0.015625 -0.21875,0.015625 -0.015625,0 -0.078125,0.015625 -0.078125,0.09375 0,0.09375 0.0625,0.09375 0.1875,0.09375 z m 0,0"
           style="stroke:none" />
      </symbol>
    </g>
    <g
       id="g2098">
      <symbol
         id="symbol2084"
         overflow="visible">
        <path
           id="path2082"
           d=""
           style="stroke:none" />
      </symbol>
      <symbol
         id="symbol2088"
         overflow="visible">
        <path
           id="path2086"
           d="m 2.046875,-3.984375 h 0.9375 c 0.203125,0 0.3125,0 0.3125,-0.203125 0,-0.109375 -0.109375,-0.109375 -0.28125,-0.109375 h -0.875 C 2.5,-5.71875 2.546875,-5.90625 2.546875,-5.96875 c 0,-0.171875 -0.125,-0.265625 -0.296875,-0.265625 -0.03125,0 -0.3125,0 -0.390625,0.359375 L 1.46875,-4.296875 h -0.9375 c -0.203125,0 -0.296875,0 -0.296875,0.1875 0,0.125 0.078125,0.125 0.28125,0.125 h 0.875 C 0.671875,-1.15625 0.625,-0.984375 0.625,-0.8125 0.625,-0.265625 1,0.109375 1.546875,0.109375 2.5625,0.109375 3.125,-1.34375 3.125,-1.421875 3.125,-1.53125 3.046875,-1.53125 3.015625,-1.53125 2.921875,-1.53125 2.90625,-1.5 2.859375,-1.390625 2.4375,-0.34375 1.90625,-0.109375 1.5625,-0.109375 c -0.203125,0 -0.3125,-0.125 -0.3125,-0.453125 0,-0.25 0.03125,-0.3125 0.0625,-0.484375 z m 0,0"
           style="stroke:none" />
      </symbol>
      <symbol
         id="symbol2092"
         overflow="visible">
        <path
           id="path2090"
           d=""
           style="stroke:none" />
      </symbol>
      <symbol
         id="symbol2096"
         overflow="visible">
        <path
           id="path2094"
           d="m 3.6875,-1.140625 v -0.25 H 2.90625 V -4.5 c 0,-0.140625 0,-0.203125 -0.140625,-0.203125 -0.09375,0 -0.125,0 -0.1875,0.109375 l -2.3125,3.203125 v 0.25 h 2.0625 v 0.5625 c 0,0.25 0,0.328125 -0.578125,0.328125 H 1.5625 V 0 C 1.921875,-0.015625 2.359375,-0.03125 2.609375,-0.03125 2.875,-0.03125 3.3125,-0.015625 3.671875,0 v -0.25 h -0.1875 C 2.90625,-0.25 2.90625,-0.328125 2.90625,-0.578125 v -0.5625 z M 2.375,-3.9375 v 2.546875 H 0.53125 Z m 0,0"
           style="stroke:none" />
      </symbol>
    </g>
  </defs>
  <sodipodi:namedview
     inkscape:window-maximized="1"
     inkscape:window-y="-8"
     inkscape:window-x="-8"
     inkscape:window-height="715"
     inkscape:window-width="1366"
     units="cm"
     showgrid="true"
     inkscape:document-rotation="0"
     inkscape:current-layer="layer1"
     inkscape:document-units="mm"
     inkscape:cy="553.75341"
     inkscape:cx="892.27621"
     inkscape:zoom="0.24748737"
     inkscape:pageshadow="2"
     inkscape:pageopacity="0.0"
     borderopacity="1.0"
     bordercolor="#666666"
     pagecolor="#ffffff"
     id="base">
    <inkscape:grid
       units="cm"
       id="grid4952"
       type="xygrid" />
  </sodipodi:namedview>
  <metadata
     id="metadata4947">
    <rdf:RDF>
      <cc:Work
         rdf:about="">
        <dc:format>image/svg+xml</dc:format>
        <dc:type
           rdf:resource="http://purl.org/dc/dcmitype/StillImage" />
        <dc:title></dc:title>
      </cc:Work>
    </rdf:RDF>
  </metadata>
  <g
     id="layer1"
     inkscape:groupmode="layer"
     inkscape:label="Livello 1">
    <path
       id="path4954"
       d="M 0,200.13229 H 399.99999"
       style="fill:none;stroke:#000000;stroke-width:0.264583px;stroke-linecap:butt;stroke-linejoin:miter;stroke-opacity:1" />
    <path
       style="fill:none;stroke:#000000;stroke-width:0.264583px;stroke-linecap:butt;stroke-linejoin:miter;stroke-opacity:1"
       d="M 200,400.13229 V 0.132295"
       id="path4956" />
    <path
       id="path4958"
       d="M 50,200 V 50"
       style="fill:none;stroke:#000000;stroke-width:0.264583px;stroke-linecap:butt;stroke-linejoin:miter;stroke-opacity:1" />
    <path
       style="fill:none;stroke:#000000;stroke-width:0.264583px;stroke-linecap:butt;stroke-linejoin:miter;stroke-opacity:1"
       d="M 50,350 V 200"
       id="path4960" />
    <path
       style="fill:none;stroke:#000000;stroke-width:0.264583px;stroke-linecap:butt;stroke-linejoin:miter;stroke-opacity:1"
       d="M 50,50 H 200"
       id="path4962" />
    <path
       id="path4964"
       d="M 200,50 H 350"
       style="fill:none;stroke:#000000;stroke-width:0.264583px;stroke-linecap:butt;stroke-linejoin:miter;stroke-opacity:1" />
    <path
       style="fill:none;stroke:#000000;stroke-width:0.264583px;stroke-linecap:butt;stroke-linejoin:miter;stroke-opacity:1"
       d="M 50,350 H 200"
       id="path4966" />
    <path
       id="path4968"
       d="M 200,350 H 350"
       style="fill:none;stroke:#000000;stroke-width:0.264583px;stroke-linecap:butt;stroke-linejoin:miter;stroke-opacity:1" />
    <path
       id="path4972"
       d="M 349.99998,50 V 69.999999 H 69.999999 V 330 H 349.99998 v 19.99998"
       style="fill:none;stroke:#000000;stroke-width:0.264583px;stroke-linecap:butt;stroke-linejoin:miter;stroke-opacity:1" />
    <path
       id="path4974"
       d="M 150,400 V 0"
       style="fill:none;stroke:#000000;stroke-width:0.264583px;stroke-linecap:butt;stroke-linejoin:miter;stroke-opacity:1" />
    <path
       id="path4976"
       d="M 150,90 V 200"
       style="fill:none;stroke:#000000;stroke-width:0.264583px;stroke-linecap:butt;stroke-linejoin:miter;stroke-opacity:1" />
    <path
       style="fill:none;stroke:#000000;stroke-width:0.264583px;stroke-linecap:butt;stroke-linejoin:miter;stroke-opacity:1"
       d="M 150,200 V 310"
       id="path4978" />
    <path
       id="path4980"
       d="M 110,200 150,89.999999 240,200 150,309.99998 110,200"
       style="fill:none;stroke:#000000;stroke-width:0.264583px;stroke-linecap:butt;stroke-linejoin:miter;stroke-opacity:1" />
    <path
       transform="scale(0.26458333)"
       id="path4982"
       d="M 570.11698,961.11753 V 758.03998 h 91.42857 91.42857 v 91.38571 91.38572 l -91.42857,111.69179 -91.42857,111.6919 z"
       style="fill:#000000;stroke:#000000;stroke-width:10.7987;opacity:0.1" />
    <path
       transform="scale(0.26458333)"
       id="path5545"
       d="m 758.68841,845.75427 v -87.71429 h 71.77275 71.77275 l -11.02223,13.57143 c -34.32317,42.26139 -127.9574,156.83881 -130.05371,159.14286 -1.3933,1.53137 -2.46956,-35.51249 -2.46956,-85 z"
       style="opacity:0.1;fill:#000000;stroke:#000000;stroke-width:10.7987" />
    <path
       transform="scale(0.26458333)"
       id="path5547"
       d="m 758.68841,666.61141 c 0,-47.14286 0.48875,-85.71429 1.08611,-85.71429 1.54007,0 138.91389,167.99226 138.91389,169.87559 0,0.85414 -31.5,1.55298 -70,1.55298 h -70 z"
       style="opacity:0.1;fill:#000000;stroke:#000000;stroke-width:10.7987" />
    <path
       transform="scale(0.26458333)"
       id="path5549"
       d="m 570.11698,550.42093 c 0,-111.04762 0.85911,-201.04566 1.90912,-199.99564 1.05002,1.05001 42.16715,51.08573 91.37141,111.19048 l 89.46229,109.28135 0.0572,90.71429 0.0572,90.71428 h -91.42857 -91.42857 z"
       style="opacity:0.1;fill:#000000;stroke:#000000;stroke-width:10.7987" />
    <path
       transform="scale(0.26458333)"
       id="path5551"
       d="m 420.04133,750.18284 c 1.08036,-2.75 32.61725,-89.21429 70.08198,-192.14286 37.46473,-102.92857 69.42257,-190.35714 71.01743,-194.28571 2.00456,-4.93777 2.95566,54.37912 3.08085,192.14285 l 0.18111,199.28572 h -73.16283 c -68.52242,0 -73.03824,-0.31715 -71.19854,-5 z"
       style="opacity:0.1;fill:#000000;stroke:#000000;stroke-width:10.7987" />
    <path
       transform="scale(0.26458333)"
       id="path5553"
       d="M 492.25984,960.1208 C 453.36698,852.89257 421.54555,764.20115 421.54555,763.02875 c 0,-1.1724 32.14286,-2.13163 71.42857,-2.13163 h 71.42858 v 197.14286 c 0,108.42862 -0.32143,197.12002 -0.71429,197.09202 -0.39286,-0.029 -32.53571,-87.783 -71.42857,-195.0112 z"
       style="opacity:0.1;fill:#000000;stroke:#000000;stroke-width:10.7987" />
    <circle
       r="1"
       cy="310"
       cx="150"
       id="path5555"
       style="opacity:1;fill:#000000;stroke:#000000;stroke-width:1" />
    <circle
       r="1"
       cy="200"
       cx="240"
       id="path5560"
       style="opacity:1;fill:#000000;stroke:#000000;stroke-width:1" />
    <circle
       r="1"
       cy="90"
       cx="150"
       id="path5562"
       style="opacity:1;fill:#000000;stroke:#000000;stroke-width:1" />
    <path
       transform="scale(0.26458333)"
       id="path5564"
       d="m 565.75447,360.22389 c -0.20239,-0.30947 -1.48085,-1.39218 -1.89955,-1.6087 -0.48404,-0.25031 -1.43945,-0.50434 -2.12051,-0.56383 l -0.70616,-0.0617 2.21229,-6.07143 c 1.21677,-3.33929 2.2244,-6.10215 2.23918,-6.13969 0.0148,-0.0375 0.22159,-0.0416 0.45957,-0.009 l 0.4327,0.0593 -0.0423,3.58038 c -0.0233,1.96921 -0.089,4.48439 -0.14607,5.5893 -0.0571,1.10491 -0.13248,2.80063 -0.1676,3.76825 l -0.0638,1.75932 z"
       style="opacity:0.1;fill:#000000;stroke:#000000;stroke-width:0.337458" />
    <circle
       r="1"
       cy="200"
       cx="109.99999"
       id="path5566"
       style="opacity:1;fill:#000000;stroke:#000000;stroke-width:1" />
    <path
       id="path5568"
       d="M 50,399.99999 V 0"
       style="fill:none;stroke:#000000;stroke-width:0.264583px;stroke-linecap:butt;stroke-linejoin:miter;stroke-opacity:1" />
    <path
       id="path5570"
       d="M 0,50 H 399.99999"
       style="fill:none;stroke:#000000;stroke-width:0.264583px;stroke-linecap:butt;stroke-linejoin:miter;stroke-opacity:1" />
    <path
       id="path5572"
       d="M 0,349.99998 H 399.99999"
       style="fill:none;stroke:#000000;stroke-width:0.264583px;stroke-linecap:butt;stroke-linejoin:miter;stroke-opacity:1" />
    <g
       id="g2594"
       ns2:jacobian_sqrt="1.41111"
       ns2:inkscapeversion="1.0"
       ns2:alignment="middle center"
       ns2:scale="4.0"
       ns2:preamble="C:\\Users\\claum\\AppData\\Roaming\\inkscape\\extensions\\textext\\default_packages.tex"
       ns2:text="$\\mathbf{C}_1$"
       ns2:pdfconverter="inkscape"
       ns2:texconverter="pdflatex"
       ns2:version="1.0.1"
       transform="matrix(1.41111,0,0,1.41111,152.12276,310.6033)">
      <defs
         id="id-94f779e0-e1d9-45bd-a420-a766d1b7ea02">
        <g
           id="g5647">
          <symbol
             overflow="visible"
             id="symbol5633">
            <path
               style="stroke:none"
               d=""
               id="path5631" />
          </symbol>
          <symbol
             overflow="visible"
             id="symbol5637">
            <path
               style="stroke:none"
               d="m 7.640625,-6.671875 c 0,-0.1875 0,-0.28125 -0.1875,-0.28125 -0.09375,0 -0.109375,0.03125 -0.1875,0.09375 l -0.65625,0.59375 c -0.625,-0.5 -1.28125,-0.6875 -1.96875,-0.6875 -2.484375,0 -4,1.484375 -4,3.53125 0,2.046875 1.515625,3.53125 4,3.53125 1.875,0 3,-1.21875 3,-2.375 0,-0.203125 -0.078125,-0.203125 -0.25,-0.203125 -0.125,0 -0.21875,0 -0.21875,0.171875 -0.078125,1.328125 -1.28125,1.9375 -2.28125,1.9375 -0.78125,0 -1.625,-0.234375 -2.140625,-0.84375 -0.46875,-0.578125 -0.59375,-1.3125 -0.59375,-2.21875 0,-0.5625 0.03125,-1.625 0.671875,-2.296875 0.640625,-0.65625 1.515625,-0.765625 2.03125,-0.765625 1.078125,0 2.015625,0.765625 2.234375,2.03125 C 7.125,-4.265625 7.140625,-4.25 7.359375,-4.25 c 0.265625,0 0.28125,-0.015625 0.28125,-0.28125 z m 0,0"
               id="path5635" />
          </symbol>
          <symbol
             overflow="visible"
             id="symbol5641">
            <path
               style="stroke:none"
               d=""
               id="path5639" />
          </symbol>
          <symbol
             overflow="visible"
             id="symbol5645">
            <path
               style="stroke:none"
               d="m 2.328125,-4.4375 c 0,-0.1875 0,-0.1875 -0.203125,-0.1875 -0.453125,0.4375 -1.078125,0.4375 -1.359375,0.4375 v 0.25 c 0.15625,0 0.625,0 1,-0.1875 v 3.546875 c 0,0.234375 0,0.328125 -0.6875,0.328125 H 0.8125 V 0 c 0.125,0 0.984375,-0.03125 1.234375,-0.03125 0.21875,0 1.09375,0.03125 1.25,0.03125 V -0.25 H 3.03125 c -0.703125,0 -0.703125,-0.09375 -0.703125,-0.328125 z m 0,0"
               id="path5643" />
          </symbol>
        </g>
      </defs>
      <g
         id="id-374663d8-431a-4bf6-a678-6398dc302a5a"
         transform="translate(-149.353,-127.812)">
        <g
           style="fill:#000000;fill-opacity:1"
           id="id-441d6bf1-9966-429e-aea0-ffe7369f32e3">
          <g
             id="g2586"
             transform="translate(148.712,134.765)">
            <path
               style="stroke:none"
               d="m 7.640625,-6.671875 c 0,-0.1875 0,-0.28125 -0.1875,-0.28125 -0.09375,0 -0.109375,0.03125 -0.1875,0.09375 l -0.65625,0.59375 c -0.625,-0.5 -1.28125,-0.6875 -1.96875,-0.6875 -2.484375,0 -4,1.484375 -4,3.53125 0,2.046875 1.515625,3.53125 4,3.53125 1.875,0 3,-1.21875 3,-2.375 0,-0.203125 -0.078125,-0.203125 -0.25,-0.203125 -0.125,0 -0.21875,0 -0.21875,0.171875 -0.078125,1.328125 -1.28125,1.9375 -2.28125,1.9375 -0.78125,0 -1.625,-0.234375 -2.140625,-0.84375 -0.46875,-0.578125 -0.59375,-1.3125 -0.59375,-2.21875 0,-0.5625 0.03125,-1.625 0.671875,-2.296875 0.640625,-0.65625 1.515625,-0.765625 2.03125,-0.765625 1.078125,0 2.015625,0.765625 2.234375,2.03125 C 7.125,-4.265625 7.140625,-4.25 7.359375,-4.25 c 0.265625,0 0.28125,-0.015625 0.28125,-0.28125 z m 0,0"
               id="id-f1b2061d-58ab-4eff-bb7a-df94b9bb05e0" />
          </g>
        </g>
        <g
           style="fill:#000000;fill-opacity:1"
           id="id-a832dbb4-fde2-4595-82ef-da1cacf9ef3a">
          <g
             id="g2590"
             transform="translate(156.987,136.259)">
            <path
               style="stroke:none"
               d="m 2.328125,-4.4375 c 0,-0.1875 0,-0.1875 -0.203125,-0.1875 -0.453125,0.4375 -1.078125,0.4375 -1.359375,0.4375 v 0.25 c 0.15625,0 0.625,0 1,-0.1875 v 3.546875 c 0,0.234375 0,0.328125 -0.6875,0.328125 H 0.8125 V 0 c 0.125,0 0.984375,-0.03125 1.234375,-0.03125 0.21875,0 1.09375,0.03125 1.25,0.03125 V -0.25 H 3.03125 c -0.703125,0 -0.703125,-0.09375 -0.703125,-0.328125 z m 0,0"
               id="id-276009ef-f0cf-4c67-b536-0ae48b668998" />
          </g>
        </g>
      </g>
    </g>
    <g
       transform="matrix(1.41111,0,0,1.41111,91.577966,184.03004)"
       ns2:version="1.0.1"
       ns2:texconverter="pdflatex"
       ns2:pdfconverter="inkscape"
       ns2:text="$\\mathbf{C}_2$"
       ns2:preamble="C:\\Users\\claum\\AppData\\Roaming\\inkscape\\extensions\\textext\\default_packages.tex"
       ns2:scale="4.0"
       ns2:alignment="middle center"
       ns2:inkscapeversion="1.0"
       ns2:jacobian_sqrt="1.41111"
       id="g1401">
      <defs
         id="id-edbe56b0-a857-49b5-81cc-2cf36eb8e28b">
        <g
           id="g5731">
          <symbol
             id="symbol5717"
             overflow="visible">
            <path
               id="path5715"
               d=""
               style="stroke:none" />
          </symbol>
          <symbol
             id="symbol5721"
             overflow="visible">
            <path
               id="path5719"
               d="m 7.640625,-6.671875 c 0,-0.1875 0,-0.28125 -0.1875,-0.28125 -0.09375,0 -0.109375,0.03125 -0.1875,0.09375 l -0.65625,0.59375 c -0.625,-0.5 -1.28125,-0.6875 -1.96875,-0.6875 -2.484375,0 -4,1.484375 -4,3.53125 0,2.046875 1.515625,3.53125 4,3.53125 1.875,0 3,-1.21875 3,-2.375 0,-0.203125 -0.078125,-0.203125 -0.25,-0.203125 -0.125,0 -0.21875,0 -0.21875,0.171875 -0.078125,1.328125 -1.28125,1.9375 -2.28125,1.9375 -0.78125,0 -1.625,-0.234375 -2.140625,-0.84375 -0.46875,-0.578125 -0.59375,-1.3125 -0.59375,-2.21875 0,-0.5625 0.03125,-1.625 0.671875,-2.296875 0.640625,-0.65625 1.515625,-0.765625 2.03125,-0.765625 1.078125,0 2.015625,0.765625 2.234375,2.03125 C 7.125,-4.265625 7.140625,-4.25 7.359375,-4.25 c 0.265625,0 0.28125,-0.015625 0.28125,-0.28125 z m 0,0"
               style="stroke:none" />
          </symbol>
          <symbol
             id="symbol5725"
             overflow="visible">
            <path
               id="path5723"
               d=""
               style="stroke:none" />
          </symbol>
          <symbol
             id="symbol5729"
             overflow="visible">
            <path
               id="path5727"
               d="M 3.515625,-1.265625 H 3.28125 c -0.015625,0.15625 -0.09375,0.5625 -0.1875,0.625 C 3.046875,-0.59375 2.515625,-0.59375 2.40625,-0.59375 H 1.125 c 0.734375,-0.640625 0.984375,-0.84375 1.390625,-1.171875 0.515625,-0.40625 1,-0.84375 1,-1.5 0,-0.84375 -0.734375,-1.359375 -1.625,-1.359375 -0.859375,0 -1.453125,0.609375 -1.453125,1.25 0,0.34375 0.296875,0.390625 0.375,0.390625 0.15625,0 0.359375,-0.125 0.359375,-0.375 0,-0.125 -0.046875,-0.375 -0.40625,-0.375 C 0.984375,-4.21875 1.453125,-4.375 1.78125,-4.375 c 0.703125,0 1.0625,0.546875 1.0625,1.109375 0,0.609375 -0.4375,1.078125 -0.65625,1.328125 L 0.515625,-0.265625 C 0.4375,-0.203125 0.4375,-0.1875 0.4375,0 h 2.875 z m 0,0"
               style="stroke:none" />
          </symbol>
        </g>
      </defs>
      <g
         transform="translate(-149.353,-127.812)"
         id="id-55143969-da7f-4267-8052-40940e2ef0b7">
        <g
           id="id-68a2d048-90f5-4824-bf18-2ca91a716c52"
           style="fill:#000000;fill-opacity:1">
          <g
             transform="translate(148.712,134.765)"
             id="g1393">
            <path
               id="id-b17d2154-1994-4570-b906-18f9f8f1166d"
               d="m 7.640625,-6.671875 c 0,-0.1875 0,-0.28125 -0.1875,-0.28125 -0.09375,0 -0.109375,0.03125 -0.1875,0.09375 l -0.65625,0.59375 c -0.625,-0.5 -1.28125,-0.6875 -1.96875,-0.6875 -2.484375,0 -4,1.484375 -4,3.53125 0,2.046875 1.515625,3.53125 4,3.53125 1.875,0 3,-1.21875 3,-2.375 0,-0.203125 -0.078125,-0.203125 -0.25,-0.203125 -0.125,0 -0.21875,0 -0.21875,0.171875 -0.078125,1.328125 -1.28125,1.9375 -2.28125,1.9375 -0.78125,0 -1.625,-0.234375 -2.140625,-0.84375 -0.46875,-0.578125 -0.59375,-1.3125 -0.59375,-2.21875 0,-0.5625 0.03125,-1.625 0.671875,-2.296875 0.640625,-0.65625 1.515625,-0.765625 2.03125,-0.765625 1.078125,0 2.015625,0.765625 2.234375,2.03125 C 7.125,-4.265625 7.140625,-4.25 7.359375,-4.25 c 0.265625,0 0.28125,-0.015625 0.28125,-0.28125 z m 0,0"
               style="stroke:none" />
          </g>
        </g>
        <g
           id="id-8bc27413-b09c-4487-8fc8-39455781b526"
           style="fill:#000000;fill-opacity:1">
          <g
             transform="translate(156.987,136.259)"
             id="g1397">
            <path
               id="id-e62005b7-49b5-44c8-b3ca-5e735bdf01dd"
               d="M 3.515625,-1.265625 H 3.28125 c -0.015625,0.15625 -0.09375,0.5625 -0.1875,0.625 C 3.046875,-0.59375 2.515625,-0.59375 2.40625,-0.59375 H 1.125 c 0.734375,-0.640625 0.984375,-0.84375 1.390625,-1.171875 0.515625,-0.40625 1,-0.84375 1,-1.5 0,-0.84375 -0.734375,-1.359375 -1.625,-1.359375 -0.859375,0 -1.453125,0.609375 -1.453125,1.25 0,0.34375 0.296875,0.390625 0.375,0.390625 0.15625,0 0.359375,-0.125 0.359375,-0.375 0,-0.125 -0.046875,-0.375 -0.40625,-0.375 C 0.984375,-4.21875 1.453125,-4.375 1.78125,-4.375 c 0.703125,0 1.0625,0.546875 1.0625,1.109375 0,0.609375 -0.4375,1.078125 -0.65625,1.328125 L 0.515625,-0.265625 C 0.4375,-0.203125 0.4375,-0.1875 0.4375,0 h 2.875 z m 0,0"
               style="stroke:none" />
          </g>
        </g>
      </g>
    </g>
    <g
       transform="matrix(1.41111,0,0,1.41111,154.88262,81.79094)"
       ns2:version="1.0.1"
       ns2:texconverter="pdflatex"
       ns2:pdfconverter="inkscape"
       ns2:text="$\\mathbf{C}_3$"
       ns2:preamble="C:\\Users\\claum\\AppData\\Roaming\\inkscape\\extensions\\textext\\default_packages.tex"
       ns2:scale="4.0"
       ns2:alignment="middle center"
       ns2:inkscapeversion="1.0"
       ns2:jacobian_sqrt="1.41111"
       id="g1714">
      <defs
         id="id-e84629d5-bbcf-4b37-956f-f59e8532eb24">
        <g
           id="g5815">
          <symbol
             id="symbol5801"
             overflow="visible">
            <path
               id="path5799"
               d=""
               style="stroke:none" />
          </symbol>
          <symbol
             id="symbol5805"
             overflow="visible">
            <path
               id="path5803"
               d="m 7.640625,-6.671875 c 0,-0.1875 0,-0.28125 -0.1875,-0.28125 -0.09375,0 -0.109375,0.03125 -0.1875,0.09375 l -0.65625,0.59375 c -0.625,-0.5 -1.28125,-0.6875 -1.96875,-0.6875 -2.484375,0 -4,1.484375 -4,3.53125 0,2.046875 1.515625,3.53125 4,3.53125 1.875,0 3,-1.21875 3,-2.375 0,-0.203125 -0.078125,-0.203125 -0.25,-0.203125 -0.125,0 -0.21875,0 -0.21875,0.171875 -0.078125,1.328125 -1.28125,1.9375 -2.28125,1.9375 -0.78125,0 -1.625,-0.234375 -2.140625,-0.84375 -0.46875,-0.578125 -0.59375,-1.3125 -0.59375,-2.21875 0,-0.5625 0.03125,-1.625 0.671875,-2.296875 0.640625,-0.65625 1.515625,-0.765625 2.03125,-0.765625 1.078125,0 2.015625,0.765625 2.234375,2.03125 C 7.125,-4.265625 7.140625,-4.25 7.359375,-4.25 c 0.265625,0 0.28125,-0.015625 0.28125,-0.28125 z m 0,0"
               style="stroke:none" />
          </symbol>
          <symbol
             id="symbol5809"
             overflow="visible">
            <path
               id="path5807"
               d=""
               style="stroke:none" />
          </symbol>
          <symbol
             id="symbol5813"
             overflow="visible">
            <path
               id="path5811"
               d="m 1.90625,-2.328125 c 0.546875,0 0.9375,0.375 0.9375,1.125 0,0.859375 -0.515625,1.125 -0.90625,1.125 -0.28125,0 -0.90625,-0.078125 -1.1875,-0.5 0.328125,0 0.40625,-0.234375 0.40625,-0.390625 0,-0.21875 -0.171875,-0.375 -0.390625,-0.375 -0.1875,0 -0.390625,0.125 -0.390625,0.40625 0,0.65625 0.71875,1.078125 1.5625,1.078125 0.96875,0 1.640625,-0.65625 1.640625,-1.34375 0,-0.546875 -0.4375,-1.09375 -1.203125,-1.25 0.71875,-0.265625 0.984375,-0.78125 0.984375,-1.21875 0,-0.546875 -0.625,-0.953125 -1.40625,-0.953125 -0.765625,0 -1.359375,0.375 -1.359375,0.9375 0,0.234375 0.15625,0.359375 0.359375,0.359375 0.21875,0 0.359375,-0.15625 0.359375,-0.34375 0,-0.203125 -0.140625,-0.359375 -0.359375,-0.375 0.25,-0.296875 0.71875,-0.375 0.984375,-0.375 0.3125,0 0.75,0.15625 0.75,0.75 0,0.296875 -0.09375,0.625 -0.28125,0.828125 -0.21875,0.265625 -0.421875,0.28125 -0.765625,0.3125 -0.171875,0.015625 -0.1875,0.015625 -0.21875,0.015625 -0.015625,0 -0.078125,0.015625 -0.078125,0.09375 0,0.09375 0.0625,0.09375 0.1875,0.09375 z m 0,0"
               style="stroke:none" />
          </symbol>
        </g>
      </defs>
      <g
         transform="translate(-149.353,-127.812)"
         id="id-d78edc69-e618-49ae-a173-ba5dd2d9c35c">
        <g
           id="id-2bebf1f6-4e11-4754-aeeb-199a2b415bd2"
           style="fill:#000000;fill-opacity:1">
          <g
             transform="translate(148.712,134.765)"
             id="g1706">
            <path
               id="id-fa8f0e28-954a-470f-9b1d-22b203818bc3"
               d="m 7.640625,-6.671875 c 0,-0.1875 0,-0.28125 -0.1875,-0.28125 -0.09375,0 -0.109375,0.03125 -0.1875,0.09375 l -0.65625,0.59375 c -0.625,-0.5 -1.28125,-0.6875 -1.96875,-0.6875 -2.484375,0 -4,1.484375 -4,3.53125 0,2.046875 1.515625,3.53125 4,3.53125 1.875,0 3,-1.21875 3,-2.375 0,-0.203125 -0.078125,-0.203125 -0.25,-0.203125 -0.125,0 -0.21875,0 -0.21875,0.171875 -0.078125,1.328125 -1.28125,1.9375 -2.28125,1.9375 -0.78125,0 -1.625,-0.234375 -2.140625,-0.84375 -0.46875,-0.578125 -0.59375,-1.3125 -0.59375,-2.21875 0,-0.5625 0.03125,-1.625 0.671875,-2.296875 0.640625,-0.65625 1.515625,-0.765625 2.03125,-0.765625 1.078125,0 2.015625,0.765625 2.234375,2.03125 C 7.125,-4.265625 7.140625,-4.25 7.359375,-4.25 c 0.265625,0 0.28125,-0.015625 0.28125,-0.28125 z m 0,0"
               style="stroke:none" />
          </g>
        </g>
        <g
           id="id-b5c21e91-991e-48dc-9448-64b1e352363c"
           style="fill:#000000;fill-opacity:1">
          <g
             transform="translate(156.987,136.259)"
             id="g1710">
            <path
               id="id-4bd2b904-089d-4b11-8558-1826e12b2f09"
               d="m 1.90625,-2.328125 c 0.546875,0 0.9375,0.375 0.9375,1.125 0,0.859375 -0.515625,1.125 -0.90625,1.125 -0.28125,0 -0.90625,-0.078125 -1.1875,-0.5 0.328125,0 0.40625,-0.234375 0.40625,-0.390625 0,-0.21875 -0.171875,-0.375 -0.390625,-0.375 -0.1875,0 -0.390625,0.125 -0.390625,0.40625 0,0.65625 0.71875,1.078125 1.5625,1.078125 0.96875,0 1.640625,-0.65625 1.640625,-1.34375 0,-0.546875 -0.4375,-1.09375 -1.203125,-1.25 0.71875,-0.265625 0.984375,-0.78125 0.984375,-1.21875 0,-0.546875 -0.625,-0.953125 -1.40625,-0.953125 -0.765625,0 -1.359375,0.375 -1.359375,0.9375 0,0.234375 0.15625,0.359375 0.359375,0.359375 0.21875,0 0.359375,-0.15625 0.359375,-0.34375 0,-0.203125 -0.140625,-0.359375 -0.359375,-0.375 0.25,-0.296875 0.71875,-0.375 0.984375,-0.375 0.3125,0 0.75,0.15625 0.75,0.75 0,0.296875 -0.09375,0.625 -0.28125,0.828125 -0.21875,0.265625 -0.421875,0.28125 -0.765625,0.3125 -0.171875,0.015625 -0.1875,0.015625 -0.21875,0.015625 -0.015625,0 -0.078125,0.015625 -0.078125,0.09375 0,0.09375 0.0625,0.09375 0.1875,0.09375 z m 0,0"
               style="stroke:none" />
          </g>
        </g>
      </g>
    </g>
    <g
       transform="matrix(1.41111,0,0,1.41111,240.57797,202.03004)"
       ns2:version="1.0.1"
       ns2:texconverter="pdflatex"
       ns2:pdfconverter="inkscape"
       ns2:text="$\\mathbf{C}_4$"
       ns2:preamble="C:\\Users\\claum\\AppData\\Roaming\\inkscape\\extensions\\textext\\default_packages.tex"
       ns2:scale="4.0"
       ns2:alignment="middle center"
       ns2:inkscapeversion="1.0"
       ns2:jacobian_sqrt="1.41111"
       id="g2045">
      <defs
         id="id-ca789b80-ed5d-42ee-ab65-a84a81f1d05c">
        <g
           id="g5899">
          <symbol
             id="symbol5885"
             overflow="visible">
            <path
               id="path5883"
               d=""
               style="stroke:none" />
          </symbol>
          <symbol
             id="symbol5889"
             overflow="visible">
            <path
               id="path5887"
               d="m 7.640625,-6.671875 c 0,-0.1875 0,-0.28125 -0.1875,-0.28125 -0.09375,0 -0.109375,0.03125 -0.1875,0.09375 l -0.65625,0.59375 c -0.625,-0.5 -1.28125,-0.6875 -1.96875,-0.6875 -2.484375,0 -4,1.484375 -4,3.53125 0,2.046875 1.515625,3.53125 4,3.53125 1.875,0 3,-1.21875 3,-2.375 0,-0.203125 -0.078125,-0.203125 -0.25,-0.203125 -0.125,0 -0.21875,0 -0.21875,0.171875 -0.078125,1.328125 -1.28125,1.9375 -2.28125,1.9375 -0.78125,0 -1.625,-0.234375 -2.140625,-0.84375 -0.46875,-0.578125 -0.59375,-1.3125 -0.59375,-2.21875 0,-0.5625 0.03125,-1.625 0.671875,-2.296875 0.640625,-0.65625 1.515625,-0.765625 2.03125,-0.765625 1.078125,0 2.015625,0.765625 2.234375,2.03125 C 7.125,-4.265625 7.140625,-4.25 7.359375,-4.25 c 0.265625,0 0.28125,-0.015625 0.28125,-0.28125 z m 0,0"
               style="stroke:none" />
          </symbol>
          <symbol
             id="symbol5893"
             overflow="visible">
            <path
               id="path5891"
               d=""
               style="stroke:none" />
          </symbol>
          <symbol
             id="symbol5897"
             overflow="visible">
            <path
               id="path5895"
               d="m 3.6875,-1.140625 v -0.25 H 2.90625 V -4.5 c 0,-0.140625 0,-0.203125 -0.140625,-0.203125 -0.09375,0 -0.125,0 -0.1875,0.109375 l -2.3125,3.203125 v 0.25 h 2.0625 v 0.5625 c 0,0.25 0,0.328125 -0.578125,0.328125 H 1.5625 V 0 C 1.921875,-0.015625 2.359375,-0.03125 2.609375,-0.03125 2.875,-0.03125 3.3125,-0.015625 3.671875,0 v -0.25 h -0.1875 C 2.90625,-0.25 2.90625,-0.328125 2.90625,-0.578125 v -0.5625 z M 2.375,-3.9375 v 2.546875 H 0.53125 Z m 0,0"
               style="stroke:none" />
          </symbol>
        </g>
      </defs>
      <g
         transform="translate(-149.353,-127.812)"
         id="id-4d7d7eee-3bcd-40ec-bcd5-ba5895075584">
        <g
           id="id-df9230f6-604f-43fa-92b9-d1267bab75c1"
           style="fill:#000000;fill-opacity:1">
          <g
             transform="translate(148.712,134.765)"
             id="g2037">
            <path
               id="id-b63d6c80-58ee-4361-9626-edcce649b92f"
               d="m 7.640625,-6.671875 c 0,-0.1875 0,-0.28125 -0.1875,-0.28125 -0.09375,0 -0.109375,0.03125 -0.1875,0.09375 l -0.65625,0.59375 c -0.625,-0.5 -1.28125,-0.6875 -1.96875,-0.6875 -2.484375,0 -4,1.484375 -4,3.53125 0,2.046875 1.515625,3.53125 4,3.53125 1.875,0 3,-1.21875 3,-2.375 0,-0.203125 -0.078125,-0.203125 -0.25,-0.203125 -0.125,0 -0.21875,0 -0.21875,0.171875 -0.078125,1.328125 -1.28125,1.9375 -2.28125,1.9375 -0.78125,0 -1.625,-0.234375 -2.140625,-0.84375 -0.46875,-0.578125 -0.59375,-1.3125 -0.59375,-2.21875 0,-0.5625 0.03125,-1.625 0.671875,-2.296875 0.640625,-0.65625 1.515625,-0.765625 2.03125,-0.765625 1.078125,0 2.015625,0.765625 2.234375,2.03125 C 7.125,-4.265625 7.140625,-4.25 7.359375,-4.25 c 0.265625,0 0.28125,-0.015625 0.28125,-0.28125 z m 0,0"
               style="stroke:none" />
          </g>
        </g>
        <g
           id="id-e3e4d68a-3cac-466e-b679-4158c51bd2dd"
           style="fill:#000000;fill-opacity:1">
          <g
             transform="translate(156.987,136.259)"
             id="g2041">
            <path
               id="id-f05e423b-28dc-4f0c-a21f-6a8068d35e24"
               d="m 3.6875,-1.140625 v -0.25 H 2.90625 V -4.5 c 0,-0.140625 0,-0.203125 -0.140625,-0.203125 -0.09375,0 -0.125,0 -0.1875,0.109375 l -2.3125,3.203125 v 0.25 h 2.0625 v 0.5625 c 0,0.25 0,0.328125 -0.578125,0.328125 H 1.5625 V 0 C 1.921875,-0.015625 2.359375,-0.03125 2.609375,-0.03125 2.875,-0.03125 3.3125,-0.015625 3.671875,0 v -0.25 h -0.1875 C 2.90625,-0.25 2.90625,-0.328125 2.90625,-0.578125 v -0.5625 z M 2.375,-3.9375 v 2.546875 H 0.53125 Z m 0,0"
               style="stroke:none" />
          </g>
        </g>
      </g>
    </g>
    <path
       id="path5910"
       d="M 349.99998,399.99999 V 0"
       style="fill:none;stroke:#000000;stroke-width:0.264583px;stroke-linecap:butt;stroke-linejoin:miter;stroke-opacity:1" />
    <g
       id="g4304"
       ns2:jacobian_sqrt="1.41111"
       ns2:inkscapeversion="1.0"
       ns2:alignment="middle center"
       ns2:scale="4.0"
       ns2:preamble="C:\\Users\\claum\\AppData\\Roaming\\inkscape\\extensions\\textext\\default_packages.tex"
       ns2:text="$t_1$"
       ns2:pdfconverter="inkscape"
       ns2:texconverter="pdflatex"
       ns2:version="1.0.1"
       transform="matrix(1.41111,0,0,1.41111,301.47813,35.680395)">
      <defs
         id="id-e0736738-79e5-4451-883b-5f15fdeb1fbe">
        <g
           id="g5985">
          <symbol
             overflow="visible"
             id="symbol5971">
            <path
               style="stroke:none"
               d=""
               id="path5969" />
          </symbol>
          <symbol
             overflow="visible"
             id="symbol5975">
            <path
               style="stroke:none"
               d="m 2.046875,-3.984375 h 0.9375 c 0.203125,0 0.3125,0 0.3125,-0.203125 0,-0.109375 -0.109375,-0.109375 -0.28125,-0.109375 h -0.875 C 2.5,-5.71875 2.546875,-5.90625 2.546875,-5.96875 c 0,-0.171875 -0.125,-0.265625 -0.296875,-0.265625 -0.03125,0 -0.3125,0 -0.390625,0.359375 L 1.46875,-4.296875 h -0.9375 c -0.203125,0 -0.296875,0 -0.296875,0.1875 0,0.125 0.078125,0.125 0.28125,0.125 h 0.875 C 0.671875,-1.15625 0.625,-0.984375 0.625,-0.8125 0.625,-0.265625 1,0.109375 1.546875,0.109375 2.5625,0.109375 3.125,-1.34375 3.125,-1.421875 3.125,-1.53125 3.046875,-1.53125 3.015625,-1.53125 2.921875,-1.53125 2.90625,-1.5 2.859375,-1.390625 2.4375,-0.34375 1.90625,-0.109375 1.5625,-0.109375 c -0.203125,0 -0.3125,-0.125 -0.3125,-0.453125 0,-0.25 0.03125,-0.3125 0.0625,-0.484375 z m 0,0"
               id="path5973" />
          </symbol>
          <symbol
             overflow="visible"
             id="symbol5979">
            <path
               style="stroke:none"
               d=""
               id="path5977" />
          </symbol>
          <symbol
             overflow="visible"
             id="symbol5983">
            <path
               style="stroke:none"
               d="m 2.328125,-4.4375 c 0,-0.1875 0,-0.1875 -0.203125,-0.1875 -0.453125,0.4375 -1.078125,0.4375 -1.359375,0.4375 v 0.25 c 0.15625,0 0.625,0 1,-0.1875 v 3.546875 c 0,0.234375 0,0.328125 -0.6875,0.328125 H 0.8125 V 0 c 0.125,0 0.984375,-0.03125 1.234375,-0.03125 0.21875,0 1.09375,0.03125 1.25,0.03125 V -0.25 H 3.03125 c -0.703125,0 -0.703125,-0.09375 -0.703125,-0.328125 z m 0,0"
               id="path5981" />
          </symbol>
        </g>
      </defs>
      <g
         id="id-fd4047d7-c85e-4691-a96a-b570baa4645e"
         transform="translate(-148.946,-128.531)">
        <g
           style="fill:#000000;fill-opacity:1"
           id="id-3dc0c354-0d11-4ac0-875c-f5cc9210cf87">
          <g
             id="g4296"
             transform="translate(148.712,134.765)">
            <path
               style="stroke:none"
               d="m 2.046875,-3.984375 h 0.9375 c 0.203125,0 0.3125,0 0.3125,-0.203125 0,-0.109375 -0.109375,-0.109375 -0.28125,-0.109375 h -0.875 C 2.5,-5.71875 2.546875,-5.90625 2.546875,-5.96875 c 0,-0.171875 -0.125,-0.265625 -0.296875,-0.265625 -0.03125,0 -0.3125,0 -0.390625,0.359375 L 1.46875,-4.296875 h -0.9375 c -0.203125,0 -0.296875,0 -0.296875,0.1875 0,0.125 0.078125,0.125 0.28125,0.125 h 0.875 C 0.671875,-1.15625 0.625,-0.984375 0.625,-0.8125 0.625,-0.265625 1,0.109375 1.546875,0.109375 2.5625,0.109375 3.125,-1.34375 3.125,-1.421875 3.125,-1.53125 3.046875,-1.53125 3.015625,-1.53125 2.921875,-1.53125 2.90625,-1.5 2.859375,-1.390625 2.4375,-0.34375 1.90625,-0.109375 1.5625,-0.109375 c -0.203125,0 -0.3125,-0.125 -0.3125,-0.453125 0,-0.25 0.03125,-0.3125 0.0625,-0.484375 z m 0,0"
               id="id-cd4932e8-e503-4687-9bb9-b88047d860d0" />
          </g>
        </g>
        <g
           style="fill:#000000;fill-opacity:1"
           id="id-b5d70793-b710-43c2-a8a8-47892c52664d">
          <g
             id="g4300"
             transform="translate(152.31,136.259)">
            <path
               style="stroke:none"
               d="m 2.328125,-4.4375 c 0,-0.1875 0,-0.1875 -0.203125,-0.1875 -0.453125,0.4375 -1.078125,0.4375 -1.359375,0.4375 v 0.25 c 0.15625,0 0.625,0 1,-0.1875 v 3.546875 c 0,0.234375 0,0.328125 -0.6875,0.328125 H 0.8125 V 0 c 0.125,0 0.984375,-0.03125 1.234375,-0.03125 0.21875,0 1.09375,0.03125 1.25,0.03125 V -0.25 H 3.03125 c -0.703125,0 -0.703125,-0.09375 -0.703125,-0.328125 z m 0,0"
               id="id-543be36b-3dbc-4bc2-ac76-71aeb1eecbad" />
          </g>
        </g>
      </g>
    </g>
    <g
       transform="matrix(1.41111,0,0,1.41111,352.36788,149.82553)"
       ns2:version="1.0.1"
       ns2:texconverter="pdflatex"
       ns2:pdfconverter="inkscape"
       ns2:text="$t_2$"
       ns2:preamble="C:\\Users\\claum\\AppData\\Roaming\\inkscape\\extensions\\textext\\default_packages.tex"
       ns2:scale="4.0"
       ns2:alignment="middle center"
       ns2:jacobian_sqrt="1.41111"
       id="g6255">
      <defs
         id="id-9018e174-981c-48c2-8ae3-e4975427e493">
        <g
           id="g6069">
          <symbol
             id="symbol6055"
             overflow="visible">
            <path
               id="path6053"
               d=""
               style="stroke:none" />
          </symbol>
          <symbol
             id="symbol6059"
             overflow="visible">
            <path
               id="path6057"
               d="m 2.046875,-3.984375 h 0.9375 c 0.203125,0 0.3125,0 0.3125,-0.203125 0,-0.109375 -0.109375,-0.109375 -0.28125,-0.109375 h -0.875 C 2.5,-5.71875 2.546875,-5.90625 2.546875,-5.96875 c 0,-0.171875 -0.125,-0.265625 -0.296875,-0.265625 -0.03125,0 -0.3125,0 -0.390625,0.359375 L 1.46875,-4.296875 h -0.9375 c -0.203125,0 -0.296875,0 -0.296875,0.1875 0,0.125 0.078125,0.125 0.28125,0.125 h 0.875 C 0.671875,-1.15625 0.625,-0.984375 0.625,-0.8125 0.625,-0.265625 1,0.109375 1.546875,0.109375 2.5625,0.109375 3.125,-1.34375 3.125,-1.421875 3.125,-1.53125 3.046875,-1.53125 3.015625,-1.53125 2.921875,-1.53125 2.90625,-1.5 2.859375,-1.390625 2.4375,-0.34375 1.90625,-0.109375 1.5625,-0.109375 c -0.203125,0 -0.3125,-0.125 -0.3125,-0.453125 0,-0.25 0.03125,-0.3125 0.0625,-0.484375 z m 0,0"
               style="stroke:none" />
          </symbol>
          <symbol
             id="symbol6063"
             overflow="visible">
            <path
               id="path6061"
               d=""
               style="stroke:none" />
          </symbol>
          <symbol
             id="symbol6067"
             overflow="visible">
            <path
               id="path6065"
               d="M 3.515625,-1.265625 H 3.28125 c -0.015625,0.15625 -0.09375,0.5625 -0.1875,0.625 C 3.046875,-0.59375 2.515625,-0.59375 2.40625,-0.59375 H 1.125 c 0.734375,-0.640625 0.984375,-0.84375 1.390625,-1.171875 0.515625,-0.40625 1,-0.84375 1,-1.5 0,-0.84375 -0.734375,-1.359375 -1.625,-1.359375 -0.859375,0 -1.453125,0.609375 -1.453125,1.25 0,0.34375 0.296875,0.390625 0.375,0.390625 0.15625,0 0.359375,-0.125 0.359375,-0.375 0,-0.125 -0.046875,-0.375 -0.40625,-0.375 C 0.984375,-4.21875 1.453125,-4.375 1.78125,-4.375 c 0.703125,0 1.0625,0.546875 1.0625,1.109375 0,0.609375 -0.4375,1.078125 -0.65625,1.328125 L 0.515625,-0.265625 C 0.4375,-0.203125 0.4375,-0.1875 0.4375,0 h 2.875 z m 0,0"
               style="stroke:none" />
          </symbol>
        </g>
      </defs>
      <g
         transform="translate(-148.946,-128.531)"
         id="id-91c0d13c-bf22-40c3-95f7-f1e1a9559f6b">
        <g
           id="id-4541b48c-ff86-4628-a00f-15c606b693ae"
           style="fill:#000000;fill-opacity:1">
          <g
             transform="translate(148.712,134.765)"
             id="g6247">
            <path
               id="id-297369ae-7392-4dcc-8107-30516528290e"
               d="m 2.046875,-3.984375 h 0.9375 c 0.203125,0 0.3125,0 0.3125,-0.203125 0,-0.109375 -0.109375,-0.109375 -0.28125,-0.109375 h -0.875 C 2.5,-5.71875 2.546875,-5.90625 2.546875,-5.96875 c 0,-0.171875 -0.125,-0.265625 -0.296875,-0.265625 -0.03125,0 -0.3125,0 -0.390625,0.359375 L 1.46875,-4.296875 h -0.9375 c -0.203125,0 -0.296875,0 -0.296875,0.1875 0,0.125 0.078125,0.125 0.28125,0.125 h 0.875 C 0.671875,-1.15625 0.625,-0.984375 0.625,-0.8125 0.625,-0.265625 1,0.109375 1.546875,0.109375 2.5625,0.109375 3.125,-1.34375 3.125,-1.421875 3.125,-1.53125 3.046875,-1.53125 3.015625,-1.53125 2.921875,-1.53125 2.90625,-1.5 2.859375,-1.390625 2.4375,-0.34375 1.90625,-0.109375 1.5625,-0.109375 c -0.203125,0 -0.3125,-0.125 -0.3125,-0.453125 0,-0.25 0.03125,-0.3125 0.0625,-0.484375 z m 0,0"
               style="stroke:none" />
          </g>
        </g>
        <g
           id="id-a76772e3-cf44-44bd-b8c2-00bd1473a98e"
           style="fill:#000000;fill-opacity:1">
          <g
             transform="translate(152.31,136.259)"
             id="g6251">
            <path
               id="id-39aaa73d-00a7-4733-ac89-7a1d5c9321f7"
               d="M 3.515625,-1.265625 H 3.28125 c -0.015625,0.15625 -0.09375,0.5625 -0.1875,0.625 C 3.046875,-0.59375 2.515625,-0.59375 2.40625,-0.59375 H 1.125 c 0.734375,-0.640625 0.984375,-0.84375 1.390625,-1.171875 0.515625,-0.40625 1,-0.84375 1,-1.5 0,-0.84375 -0.734375,-1.359375 -1.625,-1.359375 -0.859375,0 -1.453125,0.609375 -1.453125,1.25 0,0.34375 0.296875,0.390625 0.375,0.390625 0.15625,0 0.359375,-0.125 0.359375,-0.375 0,-0.125 -0.046875,-0.375 -0.40625,-0.375 C 0.984375,-4.21875 1.453125,-4.375 1.78125,-4.375 c 0.703125,0 1.0625,0.546875 1.0625,1.109375 0,0.609375 -0.4375,1.078125 -0.65625,1.328125 L 0.515625,-0.265625 C 0.4375,-0.203125 0.4375,-0.1875 0.4375,0 h 2.875 z m 0,0"
               style="stroke:none" />
          </g>
        </g>
      </g>
    </g>
    <g
       transform="matrix(1.41111,0,0,1.41111,295.30953,352.2665)"
       ns2:version="1.0.1"
       ns2:texconverter="pdflatex"
       ns2:pdfconverter="inkscape"
       ns2:text="$t_3$"
       ns2:preamble="C:\\Users\\claum\\AppData\\Roaming\\inkscape\\extensions\\textext\\default_packages.tex"
       ns2:scale="4.0"
       ns2:alignment="middle center"
       ns2:inkscapeversion="1.0"
       ns2:jacobian_sqrt="1.41111"
       id="g6681">
      <defs
         id="id-1cf45c53-36df-4635-b23d-df632e1aab1f">
        <g
           id="g6153">
          <symbol
             id="symbol6139"
             overflow="visible">
            <path
               id="path6137"
               d=""
               style="stroke:none" />
          </symbol>
          <symbol
             id="symbol6143"
             overflow="visible">
            <path
               id="path6141"
               d="m 2.046875,-3.984375 h 0.9375 c 0.203125,0 0.3125,0 0.3125,-0.203125 0,-0.109375 -0.109375,-0.109375 -0.28125,-0.109375 h -0.875 C 2.5,-5.71875 2.546875,-5.90625 2.546875,-5.96875 c 0,-0.171875 -0.125,-0.265625 -0.296875,-0.265625 -0.03125,0 -0.3125,0 -0.390625,0.359375 L 1.46875,-4.296875 h -0.9375 c -0.203125,0 -0.296875,0 -0.296875,0.1875 0,0.125 0.078125,0.125 0.28125,0.125 h 0.875 C 0.671875,-1.15625 0.625,-0.984375 0.625,-0.8125 0.625,-0.265625 1,0.109375 1.546875,0.109375 2.5625,0.109375 3.125,-1.34375 3.125,-1.421875 3.125,-1.53125 3.046875,-1.53125 3.015625,-1.53125 2.921875,-1.53125 2.90625,-1.5 2.859375,-1.390625 2.4375,-0.34375 1.90625,-0.109375 1.5625,-0.109375 c -0.203125,0 -0.3125,-0.125 -0.3125,-0.453125 0,-0.25 0.03125,-0.3125 0.0625,-0.484375 z m 0,0"
               style="stroke:none" />
          </symbol>
          <symbol
             id="symbol6147"
             overflow="visible">
            <path
               id="path6145"
               d=""
               style="stroke:none" />
          </symbol>
          <symbol
             id="symbol6151"
             overflow="visible">
            <path
               id="path6149"
               d="m 1.90625,-2.328125 c 0.546875,0 0.9375,0.375 0.9375,1.125 0,0.859375 -0.515625,1.125 -0.90625,1.125 -0.28125,0 -0.90625,-0.078125 -1.1875,-0.5 0.328125,0 0.40625,-0.234375 0.40625,-0.390625 0,-0.21875 -0.171875,-0.375 -0.390625,-0.375 -0.1875,0 -0.390625,0.125 -0.390625,0.40625 0,0.65625 0.71875,1.078125 1.5625,1.078125 0.96875,0 1.640625,-0.65625 1.640625,-1.34375 0,-0.546875 -0.4375,-1.09375 -1.203125,-1.25 0.71875,-0.265625 0.984375,-0.78125 0.984375,-1.21875 0,-0.546875 -0.625,-0.953125 -1.40625,-0.953125 -0.765625,0 -1.359375,0.375 -1.359375,0.9375 0,0.234375 0.15625,0.359375 0.359375,0.359375 0.21875,0 0.359375,-0.15625 0.359375,-0.34375 0,-0.203125 -0.140625,-0.359375 -0.359375,-0.375 0.25,-0.296875 0.71875,-0.375 0.984375,-0.375 0.3125,0 0.75,0.15625 0.75,0.75 0,0.296875 -0.09375,0.625 -0.28125,0.828125 -0.21875,0.265625 -0.421875,0.28125 -0.765625,0.3125 -0.171875,0.015625 -0.1875,0.015625 -0.21875,0.015625 -0.015625,0 -0.078125,0.015625 -0.078125,0.09375 0,0.09375 0.0625,0.09375 0.1875,0.09375 z m 0,0"
               style="stroke:none" />
          </symbol>
        </g>
      </defs>
      <g
         transform="translate(-148.946,-128.531)"
         id="id-3acdc0aa-745e-4f23-bab6-867dcb4b3224">
        <g
           id="id-4c9a2ac2-4586-48f0-883f-4e86e9034835"
           style="fill:#000000;fill-opacity:1">
          <g
             transform="translate(148.712,134.765)"
             id="g6673">
            <path
               id="id-da895930-12c0-4b6d-a6c7-032f01bfa8b5"
               d="m 2.046875,-3.984375 h 0.9375 c 0.203125,0 0.3125,0 0.3125,-0.203125 0,-0.109375 -0.109375,-0.109375 -0.28125,-0.109375 h -0.875 C 2.5,-5.71875 2.546875,-5.90625 2.546875,-5.96875 c 0,-0.171875 -0.125,-0.265625 -0.296875,-0.265625 -0.03125,0 -0.3125,0 -0.390625,0.359375 L 1.46875,-4.296875 h -0.9375 c -0.203125,0 -0.296875,0 -0.296875,0.1875 0,0.125 0.078125,0.125 0.28125,0.125 h 0.875 C 0.671875,-1.15625 0.625,-0.984375 0.625,-0.8125 0.625,-0.265625 1,0.109375 1.546875,0.109375 2.5625,0.109375 3.125,-1.34375 3.125,-1.421875 3.125,-1.53125 3.046875,-1.53125 3.015625,-1.53125 2.921875,-1.53125 2.90625,-1.5 2.859375,-1.390625 2.4375,-0.34375 1.90625,-0.109375 1.5625,-0.109375 c -0.203125,0 -0.3125,-0.125 -0.3125,-0.453125 0,-0.25 0.03125,-0.3125 0.0625,-0.484375 z m 0,0"
               style="stroke:none" />
          </g>
        </g>
        <g
           id="id-5d31228d-6af6-42c2-9f4c-58f67003f3da"
           style="fill:#000000;fill-opacity:1">
          <g
             transform="translate(152.31,136.259)"
             id="g6677">
            <path
               id="id-264a3e7a-b074-4f02-87c8-7a1bcfdde47b"
               d="m 1.90625,-2.328125 c 0.546875,0 0.9375,0.375 0.9375,1.125 0,0.859375 -0.515625,1.125 -0.90625,1.125 -0.28125,0 -0.90625,-0.078125 -1.1875,-0.5 0.328125,0 0.40625,-0.234375 0.40625,-0.390625 0,-0.21875 -0.171875,-0.375 -0.390625,-0.375 -0.1875,0 -0.390625,0.125 -0.390625,0.40625 0,0.65625 0.71875,1.078125 1.5625,1.078125 0.96875,0 1.640625,-0.65625 1.640625,-1.34375 0,-0.546875 -0.4375,-1.09375 -1.203125,-1.25 0.71875,-0.265625 0.984375,-0.78125 0.984375,-1.21875 0,-0.546875 -0.625,-0.953125 -1.40625,-0.953125 -0.765625,0 -1.359375,0.375 -1.359375,0.9375 0,0.234375 0.15625,0.359375 0.359375,0.359375 0.21875,0 0.359375,-0.15625 0.359375,-0.34375 0,-0.203125 -0.140625,-0.359375 -0.359375,-0.375 0.25,-0.296875 0.71875,-0.375 0.984375,-0.375 0.3125,0 0.75,0.15625 0.75,0.75 0,0.296875 -0.09375,0.625 -0.28125,0.828125 -0.21875,0.265625 -0.421875,0.28125 -0.765625,0.3125 -0.171875,0.015625 -0.1875,0.015625 -0.21875,0.015625 -0.015625,0 -0.078125,0.015625 -0.078125,0.09375 0,0.09375 0.0625,0.09375 0.1875,0.09375 z m 0,0"
               style="stroke:none" />
          </g>
        </g>
      </g>
    </g>
    <g
       transform="matrix(1.41111,0,0,1.41111,37.441834,286.82553)"
       ns2:version="1.0.1"
       ns2:texconverter="pdflatex"
       ns2:pdfconverter="inkscape"
       ns2:text="$t_4$"
       ns2:preamble="C:\\Users\\claum\\AppData\\Roaming\\inkscape\\extensions\\textext\\default_packages.tex"
       ns2:scale="4.0"
       ns2:alignment="middle center"
       ns2:inkscapeversion="1.0"
       ns2:jacobian_sqrt="1.41111"
       id="g6887">
      <defs
         id="id-ee4ce623-3b67-47ca-8ac3-fb83d57a5138">
        <g
           id="g6237">
          <symbol
             id="symbol6223"
             overflow="visible">
            <path
               id="path6221"
               d=""
               style="stroke:none" />
          </symbol>
          <symbol
             id="symbol6227"
             overflow="visible">
            <path
               id="path6225"
               d="m 2.046875,-3.984375 h 0.9375 c 0.203125,0 0.3125,0 0.3125,-0.203125 0,-0.109375 -0.109375,-0.109375 -0.28125,-0.109375 h -0.875 C 2.5,-5.71875 2.546875,-5.90625 2.546875,-5.96875 c 0,-0.171875 -0.125,-0.265625 -0.296875,-0.265625 -0.03125,0 -0.3125,0 -0.390625,0.359375 L 1.46875,-4.296875 h -0.9375 c -0.203125,0 -0.296875,0 -0.296875,0.1875 0,0.125 0.078125,0.125 0.28125,0.125 h 0.875 C 0.671875,-1.15625 0.625,-0.984375 0.625,-0.8125 0.625,-0.265625 1,0.109375 1.546875,0.109375 2.5625,0.109375 3.125,-1.34375 3.125,-1.421875 3.125,-1.53125 3.046875,-1.53125 3.015625,-1.53125 2.921875,-1.53125 2.90625,-1.5 2.859375,-1.390625 2.4375,-0.34375 1.90625,-0.109375 1.5625,-0.109375 c -0.203125,0 -0.3125,-0.125 -0.3125,-0.453125 0,-0.25 0.03125,-0.3125 0.0625,-0.484375 z m 0,0"
               style="stroke:none" />
          </symbol>
          <symbol
             id="symbol6231"
             overflow="visible">
            <path
               id="path6229"
               d=""
               style="stroke:none" />
          </symbol>
          <symbol
             id="symbol6235"
             overflow="visible">
            <path
               id="path6233"
               d="m 3.6875,-1.140625 v -0.25 H 2.90625 V -4.5 c 0,-0.140625 0,-0.203125 -0.140625,-0.203125 -0.09375,0 -0.125,0 -0.1875,0.109375 l -2.3125,3.203125 v 0.25 h 2.0625 v 0.5625 c 0,0.25 0,0.328125 -0.578125,0.328125 H 1.5625 V 0 C 1.921875,-0.015625 2.359375,-0.03125 2.609375,-0.03125 2.875,-0.03125 3.3125,-0.015625 3.671875,0 v -0.25 h -0.1875 C 2.90625,-0.25 2.90625,-0.328125 2.90625,-0.578125 v -0.5625 z M 2.375,-3.9375 v 2.546875 H 0.53125 Z m 0,0"
               style="stroke:none" />
          </symbol>
        </g>
      </defs>
      <g
         transform="translate(-148.946,-128.531)"
         id="id-b46e74bb-bfd0-4212-ad65-125f90c908fc">
        <g
           id="id-c23d2ab2-5919-4715-950c-ba28b751ec64"
           style="fill:#000000;fill-opacity:1">
          <g
             transform="translate(148.712,134.765)"
             id="g6879">
            <path
               id="id-31869293-ffc1-4505-a784-4a94e36dc69b"
               d="m 2.046875,-3.984375 h 0.9375 c 0.203125,0 0.3125,0 0.3125,-0.203125 0,-0.109375 -0.109375,-0.109375 -0.28125,-0.109375 h -0.875 C 2.5,-5.71875 2.546875,-5.90625 2.546875,-5.96875 c 0,-0.171875 -0.125,-0.265625 -0.296875,-0.265625 -0.03125,0 -0.3125,0 -0.390625,0.359375 L 1.46875,-4.296875 h -0.9375 c -0.203125,0 -0.296875,0 -0.296875,0.1875 0,0.125 0.078125,0.125 0.28125,0.125 h 0.875 C 0.671875,-1.15625 0.625,-0.984375 0.625,-0.8125 0.625,-0.265625 1,0.109375 1.546875,0.109375 2.5625,0.109375 3.125,-1.34375 3.125,-1.421875 3.125,-1.53125 3.046875,-1.53125 3.015625,-1.53125 2.921875,-1.53125 2.90625,-1.5 2.859375,-1.390625 2.4375,-0.34375 1.90625,-0.109375 1.5625,-0.109375 c -0.203125,0 -0.3125,-0.125 -0.3125,-0.453125 0,-0.25 0.03125,-0.3125 0.0625,-0.484375 z m 0,0"
               style="stroke:none" />
          </g>
        </g>
        <g
           id="id-aaff72d2-aab5-401a-97f0-1599e64c6197"
           style="fill:#000000;fill-opacity:1">
          <g
             transform="translate(152.31,136.259)"
             id="g6883">
            <path
               id="id-c86a4057-1fc4-4673-b808-ca2ce953e033"
               d="m 3.6875,-1.140625 v -0.25 H 2.90625 V -4.5 c 0,-0.140625 0,-0.203125 -0.140625,-0.203125 -0.09375,0 -0.125,0 -0.1875,0.109375 l -2.3125,3.203125 v 0.25 h 2.0625 v 0.5625 c 0,0.25 0,0.328125 -0.578125,0.328125 H 1.5625 V 0 C 1.921875,-0.015625 2.359375,-0.03125 2.609375,-0.03125 2.875,-0.03125 3.3125,-0.015625 3.671875,0 v -0.25 h -0.1875 C 2.90625,-0.25 2.90625,-0.328125 2.90625,-0.578125 v -0.5625 z M 2.375,-3.9375 v 2.546875 H 0.53125 Z m 0,0"
               style="stroke:none" />
          </g>
        </g>
      </g>
    </g>
  </g>
</svg>
