<?xml version="1.0" encoding="UTF-8" standalone="no"?>
<svg
   xmlns:ns21="http://www.iki.fi/pav/software/textext/"
   xmlns:dc="http://purl.org/dc/elements/1.1/"
   xmlns:cc="http://creativecommons.org/ns#"
   xmlns:rdf="http://www.w3.org/1999/02/22-rdf-syntax-ns#"
   xmlns:svg="http://www.w3.org/2000/svg"
   xmlns="http://www.w3.org/2000/svg"
   xmlns:sodipodi="http://sodipodi.sourceforge.net/DTD/sodipodi-0.dtd"
   xmlns:inkscape="http://www.inkscape.org/namespaces/inkscape"
   sodipodi:docname="Figura2_5.svg"
   inkscape:version="1.0 (4035a4fb49, 2020-05-01)"
   id="svg945"
   version="1.1"
   viewBox="0 0 135 101"
   height="10.1cm"
   width="13.5cm">
  <defs
     id="defs939">
    <marker
       inkscape:isstock="true"
       style="overflow:visible"
       id="marker2066"
       refX="0"
       refY="0"
       orient="auto"
       inkscape:stockid="Arrow1Lend">
      <path
         transform="matrix(-0.8,0,0,-0.8,-10,0)"
         style="fill:#000000;fill-opacity:1;fill-rule:evenodd;stroke:#000000;stroke-width:1pt;stroke-opacity:1"
         d="M 0,0 5,-5 -12.5,0 5,5 Z"
         id="path2064" />
    </marker>
    <marker
       inkscape:stockid="Arrow1Lend"
       orient="auto"
       refY="0"
       refX="0"
       id="Arrow1Lend"
       style="overflow:visible"
       inkscape:isstock="true"
       inkscape:collect="always">
      <path
         id="path1777"
         d="M 0,0 5,-5 -12.5,0 5,5 Z"
         style="fill:#000000;fill-opacity:1;fill-rule:evenodd;stroke:#000000;stroke-width:1pt;stroke-opacity:1"
         transform="matrix(-0.8,0,0,-0.8,-10,0)" />
    </marker>
  </defs>
  <sodipodi:namedview
     id="base"
     pagecolor="#ffffff"
     bordercolor="#666666"
     borderopacity="1.0"
     inkscape:pageopacity="0.0"
     inkscape:pageshadow="2"
     inkscape:zoom="0.98994949"
     inkscape:cx="147.64118"
     inkscape:cy="224.75831"
     inkscape:document-units="mm"
     inkscape:current-layer="layer1"
     inkscape:document-rotation="0"
     showgrid="true"
     inkscape:window-width="1366"
     inkscape:window-height="738"
     inkscape:window-x="0"
     inkscape:window-y="0"
     inkscape:window-maximized="0"
     units="cm">
    <inkscape:grid
       type="xygrid"
       id="grid947" />
  </sodipodi:namedview>
  <metadata
     id="metadata942">
    <rdf:RDF>
      <cc:Work
         rdf:about="">
        <dc:format>image/svg+xml</dc:format>
        <dc:type
           rdf:resource="http://purl.org/dc/dcmitype/StillImage" />
        <dc:title></dc:title>
      </cc:Work>
    </rdf:RDF>
  </metadata>
  <g
     inkscape:label="Livello 1"
     inkscape:groupmode="layer"
     id="layer1">
    <g
       transform="translate(-44.999999,-3.999999)"
       id="g3247">
      <g
         transform="translate(0,-5)"
         id="g2130">
        <path
           style="fill:none;stroke:#000000;stroke-width:0.265;stroke-linecap:butt;stroke-linejoin:miter;stroke-miterlimit:4;stroke-dasharray:none;stroke-opacity:1;marker-end:url(#Arrow1Lend)"
           d="M 95,100 V 10"
           id="path949" />
        <path
           style="fill:none;stroke:#000000;stroke-width:0.264583px;stroke-linecap:butt;stroke-linejoin:miter;stroke-opacity:1;marker-end:url(#marker2066)"
           d="M 45,65 H 175"
           id="path2062" />
        <path
           style="fill:none;stroke:#000000;stroke-width:0.264583px;stroke-linecap:butt;stroke-linejoin:miter;stroke-opacity:1"
           d="M 94.999999,105 C 88.179644,104.16038 81.284398,102.78003 75,100 69.504452,97.568935 63.976937,94.505005 59.999998,89.999999 57.533606,87.206113 54.52851,84.13514 52.861844,80.801807 51.195178,77.468473 50.264188,73.717403 50,69.999999 c -0.373618,-5.257203 1.996986,-11.069077 3.663652,-16.069077 1.666667,-5 2.88313,-9.949331 6.336346,-13.930923 C 62.441791,37.184588 70,30 70,30 c 0,0 2.364769,-2.364769 5,-5 2.635231,-2.635231 6.372914,-4.143761 9.999998,-5 4.866246,-1.148765 10.064564,-0.800911 15.000002,0 5.20241,0.844235 15,5 15,5 0,0 7.20611,2.533608 10,5 4.50501,3.976938 6.9838,9.802536 10,14.999999 1.87057,3.22333 4.14376,6.372916 5,10.000001 0.76584,3.244163 0.53394,6.709708 0,9.999999 -0.84423,5.202407 -2.98308,10.130727 -5,14.999999 -1.42618,3.443096 -2.18459,7.558208 -5,10.000001 -3.98159,3.453216 -6.7421,3.41767 -10.72369,6.870887 C 116.4609,99.312679 113.17019,103.04072 110,105 c -4.25325,2.62866 -10.037463,0.61092 -15.000001,0 z"
           id="path2104"
           sodipodi:nodetypes="ssssssscssscsssssssss" />
        <circle
           style="opacity:0.74212;fill:#4d4d4d;stroke:#6a6a6a;stroke-width:0.264999;stroke-miterlimit:4;stroke-dasharray:none"
           id="path2106"
           cx="115"
           cy="49"
           r="2.5" />
        <path
           style="fill:none;stroke:#000000;stroke-width:0.264583px;stroke-linecap:butt;stroke-linejoin:miter;stroke-opacity:1"
           d="M 115,51.6 V 64.999999"
           id="path2108"
           sodipodi:nodetypes="cc" />
        <path
           style="fill:none;stroke:#000000;stroke-width:0.264583px;stroke-linecap:butt;stroke-linejoin:miter;stroke-opacity:1"
           d="M 94.999999,48.999999 H 112.4"
           id="path2110"
           sodipodi:nodetypes="cc" />
      </g>
      <g
         transform="matrix(0.529167,0,0,0.529167,113.68419,36.602014)"
         ns21:version="1.0.1"
         ns21:texconverter="pdflatex"
         ns21:pdfconverter="inkscape"
         ns21:text="$dA$"
         ns21:preamble="C:\\Users\\claum\\AppData\\Roaming\\inkscape\\extensions\\textext\\default_packages.tex"
         ns21:scale="1.5"
         ns21:alignment="middle center"
         ns21:jacobian_sqrt="0.529167"
         id="g2187">
        <defs
           id="id-87656095-ab0a-479c-9ee6-38a935983472">
          <g
             id="id-b51dee28-2cf4-4876-84d4-f636bcd5144f">
            <symbol
               id="id-fa8954a2-2794-4cbb-8bd0-dca98265014d"
               overflow="visible">
              <path
                 id="id-f0eb926e-2257-4d86-9fce-720975f4b848"
                 d=""
                 style="stroke:none" />
            </symbol>
            <symbol
               id="id-ca659305-c303-405a-a849-3a7962d3dc78"
               overflow="visible">
              <path
                 id="id-6ce56968-e9cb-4a84-8213-0cd81ecd0f70"
                 d="m 5.140625,-6.8125 c 0,0 0,-0.109375 -0.125,-0.109375 -0.15625,0 -1.09375,0.09375 -1.265625,0.109375 -0.078125,0.015625 -0.140625,0.0625 -0.140625,0.1875 0,0.125 0.09375,0.125 0.234375,0.125 0.484375,0 0.5,0.0625 0.5,0.171875 L 4.3125,-6.125 3.71875,-3.765625 C 3.53125,-4.140625 3.25,-4.40625 2.796875,-4.40625 c -1.15625,0 -2.390625,1.46875 -2.390625,2.921875 0,0.9375 0.546875,1.59375 1.3125,1.59375 0.203125,0 0.703125,-0.046875 1.296875,-0.75 0.078125,0.421875 0.4375,0.75 0.90625,0.75 0.359375,0 0.578125,-0.234375 0.75,-0.546875 0.15625,-0.359375 0.296875,-0.96875 0.296875,-0.984375 0,-0.109375 -0.09375,-0.109375 -0.125,-0.109375 -0.09375,0 -0.109375,0.046875 -0.140625,0.1875 -0.171875,0.640625 -0.34375,1.234375 -0.75,1.234375 -0.28125,0 -0.296875,-0.265625 -0.296875,-0.453125 0,-0.25 0.015625,-0.3125 0.046875,-0.484375 z m -2.0625,5.625 C 3.015625,-1 3.015625,-0.984375 2.875,-0.8125 2.4375,-0.265625 2.03125,-0.109375 1.75,-0.109375 c -0.5,0 -0.640625,-0.546875 -0.640625,-0.9375 0,-0.5 0.3125,-1.71875 0.546875,-2.1875 0.3125,-0.578125 0.75,-0.953125 1.15625,-0.953125 0.640625,0 0.78125,0.8125 0.78125,0.875 0,0.0625 -0.015625,0.125 -0.03125,0.171875 z m 0,0"
                 style="stroke:none" />
            </symbol>
            <symbol
               id="id-8038c3ff-dd37-4d7c-b980-fcfa3ef042bd"
               overflow="visible">
              <path
                 id="id-9112cf82-65a3-4088-a27b-a4f85371ea7c"
                 d="M 1.78125,-1.140625 C 1.390625,-0.484375 1,-0.34375 0.5625,-0.3125 0.4375,-0.296875 0.34375,-0.296875 0.34375,-0.109375 0.34375,-0.046875 0.40625,0 0.484375,0 0.75,0 1.0625,-0.03125 1.328125,-0.03125 c 0.34375,0 0.6875,0.03125 1,0.03125 0.0625,0 0.1875,0 0.1875,-0.1875 0,-0.109375 -0.078125,-0.125 -0.15625,-0.125 -0.21875,-0.015625 -0.46875,-0.09375 -0.46875,-0.34375 0,-0.125 0.0625,-0.234375 0.140625,-0.375 l 0.765625,-1.265625 h 2.5 c 0.015625,0.203125 0.15625,1.5625 0.15625,1.65625 0,0.296875 -0.515625,0.328125 -0.71875,0.328125 C 4.59375,-0.3125 4.5,-0.3125 4.5,-0.109375 4.5,0 4.609375,0 4.640625,0 5.046875,0 5.46875,-0.03125 5.875,-0.03125 6.125,-0.03125 6.765625,0 7.015625,0 7.0625,0 7.1875,0 7.1875,-0.203125 7.1875,-0.3125 7.09375,-0.3125 6.953125,-0.3125 6.34375,-0.3125 6.34375,-0.375 6.3125,-0.671875 l -0.609375,-6.21875 c -0.015625,-0.203125 -0.015625,-0.25 -0.1875,-0.25 -0.15625,0 -0.203125,0.078125 -0.265625,0.171875 z M 2.984375,-2.609375 4.9375,-5.90625 5.265625,-2.609375 Z m 0,0"
                 style="stroke:none" />
            </symbol>
          </g>
        </defs>
        <g
           transform="translate(-149.118,-127.624)"
           id="id-83c795ae-7ed8-4ee1-b901-791367bf707e">
          <g
             id="id-ad09eb71-86a2-4e51-9f1f-3c09cfb6d366"
             style="fill:#000000;fill-opacity:1">
            <g
               transform="translate(148.712,134.765)"
               id="g2180">
              <path
                 id="id-9672a4b9-e5cf-4995-842d-4e65e622cb6e"
                 d="m 5.140625,-6.8125 c 0,0 0,-0.109375 -0.125,-0.109375 -0.15625,0 -1.09375,0.09375 -1.265625,0.109375 -0.078125,0.015625 -0.140625,0.0625 -0.140625,0.1875 0,0.125 0.09375,0.125 0.234375,0.125 0.484375,0 0.5,0.0625 0.5,0.171875 L 4.3125,-6.125 3.71875,-3.765625 C 3.53125,-4.140625 3.25,-4.40625 2.796875,-4.40625 c -1.15625,0 -2.390625,1.46875 -2.390625,2.921875 0,0.9375 0.546875,1.59375 1.3125,1.59375 0.203125,0 0.703125,-0.046875 1.296875,-0.75 0.078125,0.421875 0.4375,0.75 0.90625,0.75 0.359375,0 0.578125,-0.234375 0.75,-0.546875 0.15625,-0.359375 0.296875,-0.96875 0.296875,-0.984375 0,-0.109375 -0.09375,-0.109375 -0.125,-0.109375 -0.09375,0 -0.109375,0.046875 -0.140625,0.1875 -0.171875,0.640625 -0.34375,1.234375 -0.75,1.234375 -0.28125,0 -0.296875,-0.265625 -0.296875,-0.453125 0,-0.25 0.015625,-0.3125 0.046875,-0.484375 z m -2.0625,5.625 C 3.015625,-1 3.015625,-0.984375 2.875,-0.8125 2.4375,-0.265625 2.03125,-0.109375 1.75,-0.109375 c -0.5,0 -0.640625,-0.546875 -0.640625,-0.9375 0,-0.5 0.3125,-1.71875 0.546875,-2.1875 0.3125,-0.578125 0.75,-0.953125 1.15625,-0.953125 0.640625,0 0.78125,0.8125 0.78125,0.875 0,0.0625 -0.015625,0.125 -0.03125,0.171875 z m 0,0"
                 style="stroke:none" />
            </g>
            <g
               transform="translate(153.898,134.765)"
               id="g2183">
              <path
                 id="id-b4d76c62-6ced-4485-b572-b68f3f15845b"
                 d="M 1.78125,-1.140625 C 1.390625,-0.484375 1,-0.34375 0.5625,-0.3125 0.4375,-0.296875 0.34375,-0.296875 0.34375,-0.109375 0.34375,-0.046875 0.40625,0 0.484375,0 0.75,0 1.0625,-0.03125 1.328125,-0.03125 c 0.34375,0 0.6875,0.03125 1,0.03125 0.0625,0 0.1875,0 0.1875,-0.1875 0,-0.109375 -0.078125,-0.125 -0.15625,-0.125 -0.21875,-0.015625 -0.46875,-0.09375 -0.46875,-0.34375 0,-0.125 0.0625,-0.234375 0.140625,-0.375 l 0.765625,-1.265625 h 2.5 c 0.015625,0.203125 0.15625,1.5625 0.15625,1.65625 0,0.296875 -0.515625,0.328125 -0.71875,0.328125 C 4.59375,-0.3125 4.5,-0.3125 4.5,-0.109375 4.5,0 4.609375,0 4.640625,0 5.046875,0 5.46875,-0.03125 5.875,-0.03125 6.125,-0.03125 6.765625,0 7.015625,0 7.0625,0 7.1875,0 7.1875,-0.203125 7.1875,-0.3125 7.09375,-0.3125 6.953125,-0.3125 6.34375,-0.3125 6.34375,-0.375 6.3125,-0.671875 l -0.609375,-6.21875 c -0.015625,-0.203125 -0.015625,-0.25 -0.1875,-0.25 -0.15625,0 -0.203125,0.078125 -0.265625,0.171875 z M 2.984375,-2.609375 4.9375,-5.90625 5.265625,-2.609375 Z m 0,0"
                 style="stroke:none" />
            </g>
          </g>
        </g>
      </g>
      <g
         transform="matrix(0.529167,0,0,0.529167,103.39603,40.264259)"
         ns21:version="1.0.1"
         ns21:texconverter="pdflatex"
         ns21:pdfconverter="inkscape"
         ns21:text="$x$"
         ns21:preamble="C:\\Users\\claum\\AppData\\Roaming\\inkscape\\extensions\\textext\\default_packages.tex"
         ns21:scale="1.5"
         ns21:alignment="middle center"
         ns21:jacobian_sqrt="0.529167"
         id="g2248">
        <defs
           id="id-668aa7c9-fe08-47ae-b9b2-adf8a2efee5b">
          <g
             id="id-40bc55fe-ab35-4280-ad42-0756c788562c">
            <symbol
               id="id-a76eb24d-5876-4ae3-9b04-c8861f489182"
               overflow="visible">
              <path
                 id="id-1f248dfc-6e4a-4e26-87c7-625c3bfe457d"
                 d=""
                 style="stroke:none" />
            </symbol>
            <symbol
               id="id-5b2828a3-3fe8-4e55-9c8e-ab8b7b2f66d0"
               overflow="visible">
              <path
                 id="id-f525b08d-412e-461c-94c3-df88dd027f3a"
                 d="M 3.328125,-3.015625 C 3.390625,-3.265625 3.625,-4.1875 4.3125,-4.1875 c 0.046875,0 0.296875,0 0.5,0.125 C 4.53125,-4 4.34375,-3.765625 4.34375,-3.515625 c 0,0.15625 0.109375,0.34375 0.375,0.34375 0.21875,0 0.53125,-0.171875 0.53125,-0.578125 0,-0.515625 -0.578125,-0.65625 -0.921875,-0.65625 -0.578125,0 -0.921875,0.53125 -1.046875,0.75 -0.25,-0.65625 -0.78125,-0.75 -1.078125,-0.75 -1.03125,0 -1.609375,1.28125 -1.609375,1.53125 0,0.109375 0.109375,0.109375 0.125,0.109375 0.078125,0 0.109375,-0.03125 0.125,-0.109375 0.34375,-1.0625 1,-1.3125 1.34375,-1.3125 0.1875,0 0.53125,0.09375 0.53125,0.671875 0,0.3125 -0.171875,0.96875 -0.53125,2.375 -0.15625,0.609375 -0.515625,1.03125 -0.953125,1.03125 -0.0625,0 -0.28125,0 -0.5,-0.125 0.25,-0.0625 0.46875,-0.265625 0.46875,-0.546875 0,-0.265625 -0.21875,-0.34375 -0.359375,-0.34375 -0.3125,0 -0.546875,0.25 -0.546875,0.578125 0,0.453125 0.484375,0.65625 0.921875,0.65625 0.671875,0 1.03125,-0.703125 1.046875,-0.75 0.125,0.359375 0.484375,0.75 1.078125,0.75 1.03125,0 1.59375,-1.28125 1.59375,-1.53125 0,-0.109375 -0.078125,-0.109375 -0.109375,-0.109375 -0.09375,0 -0.109375,0.046875 -0.140625,0.109375 -0.328125,1.078125 -1,1.3125 -1.3125,1.3125 -0.390625,0 -0.546875,-0.3125 -0.546875,-0.65625 0,-0.21875 0.046875,-0.4375 0.15625,-0.875 z m 0,0"
                 style="stroke:none" />
            </symbol>
          </g>
        </defs>
        <g
           transform="translate(-149.009,-130.359)"
           id="id-20aaeec2-0a02-44e5-b68c-0178e553ac81">
          <g
             id="id-a1798505-eaa9-4310-bedc-10eea68ea1bc"
             style="fill:#000000;fill-opacity:1">
            <g
               transform="translate(148.712,134.765)"
               id="g2244">
              <path
                 id="id-a006cce4-0f8d-4b49-b33e-bc0f6c1863d9"
                 d="M 3.328125,-3.015625 C 3.390625,-3.265625 3.625,-4.1875 4.3125,-4.1875 c 0.046875,0 0.296875,0 0.5,0.125 C 4.53125,-4 4.34375,-3.765625 4.34375,-3.515625 c 0,0.15625 0.109375,0.34375 0.375,0.34375 0.21875,0 0.53125,-0.171875 0.53125,-0.578125 0,-0.515625 -0.578125,-0.65625 -0.921875,-0.65625 -0.578125,0 -0.921875,0.53125 -1.046875,0.75 -0.25,-0.65625 -0.78125,-0.75 -1.078125,-0.75 -1.03125,0 -1.609375,1.28125 -1.609375,1.53125 0,0.109375 0.109375,0.109375 0.125,0.109375 0.078125,0 0.109375,-0.03125 0.125,-0.109375 0.34375,-1.0625 1,-1.3125 1.34375,-1.3125 0.1875,0 0.53125,0.09375 0.53125,0.671875 0,0.3125 -0.171875,0.96875 -0.53125,2.375 -0.15625,0.609375 -0.515625,1.03125 -0.953125,1.03125 -0.0625,0 -0.28125,0 -0.5,-0.125 0.25,-0.0625 0.46875,-0.265625 0.46875,-0.546875 0,-0.265625 -0.21875,-0.34375 -0.359375,-0.34375 -0.3125,0 -0.546875,0.25 -0.546875,0.578125 0,0.453125 0.484375,0.65625 0.921875,0.65625 0.671875,0 1.03125,-0.703125 1.046875,-0.75 0.125,0.359375 0.484375,0.75 1.078125,0.75 1.03125,0 1.59375,-1.28125 1.59375,-1.53125 0,-0.109375 -0.078125,-0.109375 -0.109375,-0.109375 -0.09375,0 -0.109375,0.046875 -0.140625,0.109375 -0.328125,1.078125 -1,1.3125 -1.3125,1.3125 -0.390625,0 -0.546875,-0.3125 -0.546875,-0.65625 0,-0.21875 0.046875,-0.4375 0.15625,-0.875 z m 0,0"
                 style="stroke:none" />
            </g>
          </g>
        </g>
      </g>
      <g
         transform="matrix(0.529167,0,0,0.529167,116.41257,50.850391)"
         ns21:version="1.0.1"
         ns21:texconverter="pdflatex"
         ns21:pdfconverter="inkscape"
         ns21:text="$y$"
         ns21:preamble="C:\\Users\\claum\\AppData\\Roaming\\inkscape\\extensions\\textext\\default_packages.tex"
         ns21:scale="1.5"
         ns21:alignment="middle center"
         ns21:jacobian_sqrt="0.529167"
         id="g2316">
        <defs
           id="id-03e4f806-6f0a-49d0-a6e4-3553fa9cd117">
          <g
             id="id-544bb870-62a6-4a18-bfcd-3f39a75ef71a">
            <symbol
               id="id-fa53b123-1ea7-4567-9a49-96ad4200ef35"
               overflow="visible">
              <path
                 id="id-97a206b0-efb6-4035-bec2-c6bd54c5557e"
                 d=""
                 style="stroke:none" />
            </symbol>
            <symbol
               id="id-508710d7-38fe-4444-83a8-41e85e224a84"
               overflow="visible">
              <path
                 id="id-778fe0b7-d42e-4c49-a1f0-ac9e9c27a46d"
                 d="m 4.84375,-3.796875 c 0.046875,-0.140625 0.046875,-0.15625 0.046875,-0.234375 0,-0.171875 -0.140625,-0.265625 -0.296875,-0.265625 -0.09375,0 -0.25,0.0625 -0.34375,0.203125 -0.015625,0.0625 -0.109375,0.359375 -0.140625,0.546875 -0.078125,0.25 -0.140625,0.53125 -0.203125,0.796875 l -0.453125,1.796875 c -0.03125,0.140625 -0.46875,0.84375 -1.125,0.84375 -0.5,0 -0.609375,-0.4375 -0.609375,-0.8125 C 1.71875,-1.375 1.890625,-2 2.21875,-2.875 2.375,-3.28125 2.421875,-3.390625 2.421875,-3.59375 c 0,-0.4375 -0.3125,-0.8125 -0.8125,-0.8125 -0.953125,0 -1.3125,1.453125 -1.3125,1.53125 0,0.109375 0.09375,0.109375 0.109375,0.109375 0.109375,0 0.109375,-0.03125 0.15625,-0.1875 0.28125,-0.9375 0.671875,-1.234375 1.015625,-1.234375 0.078125,0 0.25,0 0.25,0.3125 0,0.25 -0.109375,0.515625 -0.171875,0.703125 -0.40625,1.0625 -0.578125,1.625 -0.578125,2.09375 0,0.890625 0.625,1.1875 1.21875,1.1875 0.390625,0 0.71875,-0.171875 1,-0.453125 -0.125,0.515625 -0.25,1.015625 -0.640625,1.546875 -0.265625,0.328125 -0.640625,0.625 -1.09375,0.625 -0.140625,0 -0.59375,-0.03125 -0.765625,-0.421875 0.15625,0 0.296875,0 0.421875,-0.125 C 1.328125,1.203125 1.421875,1.0625 1.421875,0.875 1.421875,0.5625 1.15625,0.53125 1.0625,0.53125 0.828125,0.53125 0.5,0.6875 0.5,1.171875 c 0,0.5 0.4375,0.875 1.0625,0.875 1.015625,0 2.046875,-0.90625 2.328125,-2.03125 z m 0,0"
                 style="stroke:none" />
            </symbol>
          </g>
        </defs>
        <g
           transform="translate(-149.009,-130.359)"
           id="id-f8cf2aac-7f90-4403-b535-c2d39b24801c">
          <g
             id="id-594dfe57-c5ad-4c96-9878-15ab798c3017"
             style="fill:#000000;fill-opacity:1">
            <g
               transform="translate(148.712,134.765)"
               id="g2312">
              <path
                 id="id-f17adbe6-2269-4870-a775-27db9a560949"
                 d="m 4.84375,-3.796875 c 0.046875,-0.140625 0.046875,-0.15625 0.046875,-0.234375 0,-0.171875 -0.140625,-0.265625 -0.296875,-0.265625 -0.09375,0 -0.25,0.0625 -0.34375,0.203125 -0.015625,0.0625 -0.109375,0.359375 -0.140625,0.546875 -0.078125,0.25 -0.140625,0.53125 -0.203125,0.796875 l -0.453125,1.796875 c -0.03125,0.140625 -0.46875,0.84375 -1.125,0.84375 -0.5,0 -0.609375,-0.4375 -0.609375,-0.8125 C 1.71875,-1.375 1.890625,-2 2.21875,-2.875 2.375,-3.28125 2.421875,-3.390625 2.421875,-3.59375 c 0,-0.4375 -0.3125,-0.8125 -0.8125,-0.8125 -0.953125,0 -1.3125,1.453125 -1.3125,1.53125 0,0.109375 0.09375,0.109375 0.109375,0.109375 0.109375,0 0.109375,-0.03125 0.15625,-0.1875 0.28125,-0.9375 0.671875,-1.234375 1.015625,-1.234375 0.078125,0 0.25,0 0.25,0.3125 0,0.25 -0.109375,0.515625 -0.171875,0.703125 -0.40625,1.0625 -0.578125,1.625 -0.578125,2.09375 0,0.890625 0.625,1.1875 1.21875,1.1875 0.390625,0 0.71875,-0.171875 1,-0.453125 -0.125,0.515625 -0.25,1.015625 -0.640625,1.546875 -0.265625,0.328125 -0.640625,0.625 -1.09375,0.625 -0.140625,0 -0.59375,-0.03125 -0.765625,-0.421875 0.15625,0 0.296875,0 0.421875,-0.125 C 1.328125,1.203125 1.421875,1.0625 1.421875,0.875 1.421875,0.5625 1.15625,0.53125 1.0625,0.53125 0.828125,0.53125 0.5,0.6875 0.5,1.171875 c 0,0.5 0.4375,0.875 1.0625,0.875 1.015625,0 2.046875,-0.90625 2.328125,-2.03125 z m 0,0"
                 style="stroke:none" />
            </g>
          </g>
        </g>
      </g>
      <g
         id="g2352"
         ns21:jacobian_sqrt="0.529167"
         ns21:alignment="middle center"
         ns21:scale="1.5"
         ns21:preamble="C:\\Users\\claum\\AppData\\Roaming\\inkscape\\extensions\\textext\\default_packages.tex"
         ns21:text="$x$"
         ns21:pdfconverter="inkscape"
         ns21:texconverter="pdflatex"
         ns21:version="1.0.1"
         transform="matrix(0.529167,0,0,0.529167,173.39603,61.264259)">
        <defs
           id="defs2342">
          <g
             id="g2340">
            <symbol
               overflow="visible"
               id="symbol2334">
              <path
                 style="stroke:none"
                 d=""
                 id="path2332" />
            </symbol>
            <symbol
               overflow="visible"
               id="symbol2338">
              <path
                 style="stroke:none"
                 d="M 3.328125,-3.015625 C 3.390625,-3.265625 3.625,-4.1875 4.3125,-4.1875 c 0.046875,0 0.296875,0 0.5,0.125 C 4.53125,-4 4.34375,-3.765625 4.34375,-3.515625 c 0,0.15625 0.109375,0.34375 0.375,0.34375 0.21875,0 0.53125,-0.171875 0.53125,-0.578125 0,-0.515625 -0.578125,-0.65625 -0.921875,-0.65625 -0.578125,0 -0.921875,0.53125 -1.046875,0.75 -0.25,-0.65625 -0.78125,-0.75 -1.078125,-0.75 -1.03125,0 -1.609375,1.28125 -1.609375,1.53125 0,0.109375 0.109375,0.109375 0.125,0.109375 0.078125,0 0.109375,-0.03125 0.125,-0.109375 0.34375,-1.0625 1,-1.3125 1.34375,-1.3125 0.1875,0 0.53125,0.09375 0.53125,0.671875 0,0.3125 -0.171875,0.96875 -0.53125,2.375 -0.15625,0.609375 -0.515625,1.03125 -0.953125,1.03125 -0.0625,0 -0.28125,0 -0.5,-0.125 0.25,-0.0625 0.46875,-0.265625 0.46875,-0.546875 0,-0.265625 -0.21875,-0.34375 -0.359375,-0.34375 -0.3125,0 -0.546875,0.25 -0.546875,0.578125 0,0.453125 0.484375,0.65625 0.921875,0.65625 0.671875,0 1.03125,-0.703125 1.046875,-0.75 0.125,0.359375 0.484375,0.75 1.078125,0.75 1.03125,0 1.59375,-1.28125 1.59375,-1.53125 0,-0.109375 -0.078125,-0.109375 -0.109375,-0.109375 -0.09375,0 -0.109375,0.046875 -0.140625,0.109375 -0.328125,1.078125 -1,1.3125 -1.3125,1.3125 -0.390625,0 -0.546875,-0.3125 -0.546875,-0.65625 0,-0.21875 0.046875,-0.4375 0.15625,-0.875 z m 0,0"
                 id="path2336" />
            </symbol>
          </g>
        </defs>
        <g
           id="g2350"
           transform="translate(-149.009,-130.359)">
          <g
             style="fill:#000000;fill-opacity:1"
             id="g2348">
            <g
               id="g2346"
               transform="translate(148.712,134.765)">
              <path
                 style="stroke:none"
                 d="M 3.328125,-3.015625 C 3.390625,-3.265625 3.625,-4.1875 4.3125,-4.1875 c 0.046875,0 0.296875,0 0.5,0.125 C 4.53125,-4 4.34375,-3.765625 4.34375,-3.515625 c 0,0.15625 0.109375,0.34375 0.375,0.34375 0.21875,0 0.53125,-0.171875 0.53125,-0.578125 0,-0.515625 -0.578125,-0.65625 -0.921875,-0.65625 -0.578125,0 -0.921875,0.53125 -1.046875,0.75 -0.25,-0.65625 -0.78125,-0.75 -1.078125,-0.75 -1.03125,0 -1.609375,1.28125 -1.609375,1.53125 0,0.109375 0.109375,0.109375 0.125,0.109375 0.078125,0 0.109375,-0.03125 0.125,-0.109375 0.34375,-1.0625 1,-1.3125 1.34375,-1.3125 0.1875,0 0.53125,0.09375 0.53125,0.671875 0,0.3125 -0.171875,0.96875 -0.53125,2.375 -0.15625,0.609375 -0.515625,1.03125 -0.953125,1.03125 -0.0625,0 -0.28125,0 -0.5,-0.125 0.25,-0.0625 0.46875,-0.265625 0.46875,-0.546875 0,-0.265625 -0.21875,-0.34375 -0.359375,-0.34375 -0.3125,0 -0.546875,0.25 -0.546875,0.578125 0,0.453125 0.484375,0.65625 0.921875,0.65625 0.671875,0 1.03125,-0.703125 1.046875,-0.75 0.125,0.359375 0.484375,0.75 1.078125,0.75 1.03125,0 1.59375,-1.28125 1.59375,-1.53125 0,-0.109375 -0.078125,-0.109375 -0.109375,-0.109375 -0.09375,0 -0.109375,0.046875 -0.140625,0.109375 -0.328125,1.078125 -1,1.3125 -1.3125,1.3125 -0.390625,0 -0.546875,-0.3125 -0.546875,-0.65625 0,-0.21875 0.046875,-0.4375 0.15625,-0.875 z m 0,0"
                 id="path2344" />
            </g>
          </g>
        </g>
      </g>
      <g
         id="g2374"
         ns21:jacobian_sqrt="0.529167"
         ns21:alignment="middle center"
         ns21:scale="1.5"
         ns21:preamble="C:\\Users\\claum\\AppData\\Roaming\\inkscape\\extensions\\textext\\default_packages.tex"
         ns21:text="$y$"
         ns21:pdfconverter="inkscape"
         ns21:texconverter="pdflatex"
         ns21:version="1.0.1"
         transform="matrix(0.529167,0,0,0.529167,90.982617,4.5453794)">
        <defs
           id="defs2364">
          <g
             id="g2362">
            <symbol
               overflow="visible"
               id="symbol2356">
              <path
                 style="stroke:none"
                 d=""
                 id="path2354" />
            </symbol>
            <symbol
               overflow="visible"
               id="symbol2360">
              <path
                 style="stroke:none"
                 d="m 4.84375,-3.796875 c 0.046875,-0.140625 0.046875,-0.15625 0.046875,-0.234375 0,-0.171875 -0.140625,-0.265625 -0.296875,-0.265625 -0.09375,0 -0.25,0.0625 -0.34375,0.203125 -0.015625,0.0625 -0.109375,0.359375 -0.140625,0.546875 -0.078125,0.25 -0.140625,0.53125 -0.203125,0.796875 l -0.453125,1.796875 c -0.03125,0.140625 -0.46875,0.84375 -1.125,0.84375 -0.5,0 -0.609375,-0.4375 -0.609375,-0.8125 C 1.71875,-1.375 1.890625,-2 2.21875,-2.875 2.375,-3.28125 2.421875,-3.390625 2.421875,-3.59375 c 0,-0.4375 -0.3125,-0.8125 -0.8125,-0.8125 -0.953125,0 -1.3125,1.453125 -1.3125,1.53125 0,0.109375 0.09375,0.109375 0.109375,0.109375 0.109375,0 0.109375,-0.03125 0.15625,-0.1875 0.28125,-0.9375 0.671875,-1.234375 1.015625,-1.234375 0.078125,0 0.25,0 0.25,0.3125 0,0.25 -0.109375,0.515625 -0.171875,0.703125 -0.40625,1.0625 -0.578125,1.625 -0.578125,2.09375 0,0.890625 0.625,1.1875 1.21875,1.1875 0.390625,0 0.71875,-0.171875 1,-0.453125 -0.125,0.515625 -0.25,1.015625 -0.640625,1.546875 -0.265625,0.328125 -0.640625,0.625 -1.09375,0.625 -0.140625,0 -0.59375,-0.03125 -0.765625,-0.421875 0.15625,0 0.296875,0 0.421875,-0.125 C 1.328125,1.203125 1.421875,1.0625 1.421875,0.875 1.421875,0.5625 1.15625,0.53125 1.0625,0.53125 0.828125,0.53125 0.5,0.6875 0.5,1.171875 c 0,0.5 0.4375,0.875 1.0625,0.875 1.015625,0 2.046875,-0.90625 2.328125,-2.03125 z m 0,0"
                 id="path2358" />
            </symbol>
          </g>
        </defs>
        <g
           id="g2372"
           transform="translate(-149.009,-130.359)">
          <g
             style="fill:#000000;fill-opacity:1"
             id="g2370">
            <g
               id="g2368"
               transform="translate(148.712,134.765)">
              <path
                 style="stroke:none"
                 d="m 4.84375,-3.796875 c 0.046875,-0.140625 0.046875,-0.15625 0.046875,-0.234375 0,-0.171875 -0.140625,-0.265625 -0.296875,-0.265625 -0.09375,0 -0.25,0.0625 -0.34375,0.203125 -0.015625,0.0625 -0.109375,0.359375 -0.140625,0.546875 -0.078125,0.25 -0.140625,0.53125 -0.203125,0.796875 l -0.453125,1.796875 c -0.03125,0.140625 -0.46875,0.84375 -1.125,0.84375 -0.5,0 -0.609375,-0.4375 -0.609375,-0.8125 C 1.71875,-1.375 1.890625,-2 2.21875,-2.875 2.375,-3.28125 2.421875,-3.390625 2.421875,-3.59375 c 0,-0.4375 -0.3125,-0.8125 -0.8125,-0.8125 -0.953125,0 -1.3125,1.453125 -1.3125,1.53125 0,0.109375 0.09375,0.109375 0.109375,0.109375 0.109375,0 0.109375,-0.03125 0.15625,-0.1875 0.28125,-0.9375 0.671875,-1.234375 1.015625,-1.234375 0.078125,0 0.25,0 0.25,0.3125 0,0.25 -0.109375,0.515625 -0.171875,0.703125 -0.40625,1.0625 -0.578125,1.625 -0.578125,2.09375 0,0.890625 0.625,1.1875 1.21875,1.1875 0.390625,0 0.71875,-0.171875 1,-0.453125 -0.125,0.515625 -0.25,1.015625 -0.640625,1.546875 -0.265625,0.328125 -0.640625,0.625 -1.09375,0.625 -0.140625,0 -0.59375,-0.03125 -0.765625,-0.421875 0.15625,0 0.296875,0 0.421875,-0.125 C 1.328125,1.203125 1.421875,1.0625 1.421875,0.875 1.421875,0.5625 1.15625,0.53125 1.0625,0.53125 0.828125,0.53125 0.5,0.6875 0.5,1.171875 c 0,0.5 0.4375,0.875 1.0625,0.875 1.015625,0 2.046875,-0.90625 2.328125,-2.03125 z m 0,0"
                 id="path2366" />
            </g>
          </g>
        </g>
      </g>
      <g
         transform="matrix(0.529167,0,0,0.529167,90.065432,60.486067)"
         ns21:version="1.0.1"
         ns21:texconverter="pdflatex"
         ns21:pdfconverter="inkscape"
         ns21:text="$\\mathbf{O}$"
         ns21:preamble="C:\\Users\\claum\\AppData\\Roaming\\inkscape\\extensions\\textext\\default_packages.tex"
         ns21:scale="1.5"
         ns21:alignment="middle center"
         ns21:jacobian_sqrt="0.529167"
         id="g2461">
        <defs
           id="id-6e3644cf-82b2-4d6b-99ca-2d2c644eea87">
          <g
             id="id-8c700be1-f7fc-4c66-8269-c7efbe10ed1e">
            <symbol
               id="id-9eb48904-e898-4cd7-abe6-865e5162a6c3"
               overflow="visible">
              <path
                 id="id-311aa700-05dc-4d47-aa5c-1401de5c8351"
                 d=""
                 style="stroke:none" />
            </symbol>
            <symbol
               id="id-232e5f99-b45d-4f96-8245-51f0e0ef3d6b"
               overflow="visible">
              <path
                 id="id-2648a397-2e10-4c30-b714-75b2ede5aa1b"
                 d="m 7.96875,-3.375 c 0,-2.15625 -1.453125,-3.578125 -3.65625,-3.578125 -2.28125,0 -3.671875,1.484375 -3.671875,3.578125 0,2.0625 1.390625,3.484375 3.65625,3.484375 2.296875,0 3.671875,-1.4375 3.671875,-3.484375 z m -3.671875,3.0625 c -0.59375,0 -1.3125,-0.28125 -1.71875,-1.03125 C 2.25,-1.96875 2.15625,-2.671875 2.15625,-3.53125 c 0,-0.640625 0.03125,-1.484375 0.46875,-2.15625 0.421875,-0.609375 1.078125,-0.859375 1.671875,-0.859375 0.640625,0 1.328125,0.28125 1.71875,0.9375 0.390625,0.640625 0.421875,1.40625 0.421875,2.078125 0,0.703125 -0.03125,1.59375 -0.453125,2.28125 -0.453125,0.71875 -1.15625,0.9375 -1.6875,0.9375 z m 0,0"
                 style="stroke:none" />
            </symbol>
          </g>
        </defs>
        <g
           transform="translate(-149.353,-127.812)"
           id="id-b23644a9-276e-40de-b083-0d1f665ae398">
          <g
             id="id-4690c6c6-5e88-4d2d-8d88-fa3fd77330a1"
             style="fill:#000000;fill-opacity:1">
            <g
               transform="translate(148.712,134.765)"
               id="g2457">
              <path
                 id="id-cfaf3727-3427-4beb-9dee-7c7e66743841"
                 d="m 7.96875,-3.375 c 0,-2.15625 -1.453125,-3.578125 -3.65625,-3.578125 -2.28125,0 -3.671875,1.484375 -3.671875,3.578125 0,2.0625 1.390625,3.484375 3.65625,3.484375 2.296875,0 3.671875,-1.4375 3.671875,-3.484375 z m -3.671875,3.0625 c -0.59375,0 -1.3125,-0.28125 -1.71875,-1.03125 C 2.25,-1.96875 2.15625,-2.671875 2.15625,-3.53125 c 0,-0.640625 0.03125,-1.484375 0.46875,-2.15625 0.421875,-0.609375 1.078125,-0.859375 1.671875,-0.859375 0.640625,0 1.328125,0.28125 1.71875,0.9375 0.390625,0.640625 0.421875,1.40625 0.421875,2.078125 0,0.703125 -0.03125,1.59375 -0.453125,2.28125 -0.453125,0.71875 -1.15625,0.9375 -1.6875,0.9375 z m 0,0"
                 style="stroke:none" />
            </g>
          </g>
        </g>
      </g>
    </g>
    <path
       style="fill:none;stroke:#000000;stroke-width:0.264583px;stroke-linecap:butt;stroke-linejoin:miter;stroke-opacity:1"
       d="M 50,55.999998 68,41.5"
       id="path186"
       sodipodi:nodetypes="cc" />
    <g
       id="g286"
       ns21:jacobian_sqrt="0.705556"
       ns21:inkscapeversion="1.0"
       ns21:alignment="middle center"
       ns21:scale="2.0"
       ns21:preamble="C:\\Users\\claum\\AppData\\Roaming\\inkscape\\extensions\\textext\\default_packages.tex"
       ns21:text="$r$"
       ns21:pdfconverter="inkscape"
       ns21:texconverter="pdflatex"
       ns21:version="1.0.1"
       transform="matrix(0.705556,0,0,0.705556,57.688195,44.041061)">
      <defs
         id="id-d321837d-2c67-41a7-8637-3baa94305496">
        <g
           id="id-52c6810f-c7f4-4030-b758-e4bb8de3a462">
          <symbol
             overflow="visible"
             id="id-ff2742d1-cc36-4045-9a16-d77785428df7">
            <path
               style="stroke:none"
               d=""
               id="id-0885c9ae-7dad-424d-acb5-6fadff3bedde" />
          </symbol>
          <symbol
             overflow="visible"
             id="id-dcf41c67-abc5-4341-9320-1ee0c30b2b89">
            <path
               style="stroke:none"
               d="m 0.875,-0.59375 c -0.03125,0.15625 -0.09375,0.390625 -0.09375,0.4375 0,0.171875 0.140625,0.265625 0.296875,0.265625 0.125,0 0.296875,-0.078125 0.375,-0.28125 C 1.46875,-0.203125 1.796875,-1.5625 1.84375,-1.75 c 0.078125,-0.328125 0.265625,-1.015625 0.3125,-1.296875 0.046875,-0.125 0.328125,-0.59375 0.5625,-0.8125 0.078125,-0.0625 0.375,-0.328125 0.796875,-0.328125 0.265625,0 0.40625,0.125 0.421875,0.125 -0.296875,0.046875 -0.515625,0.28125 -0.515625,0.546875 0,0.15625 0.109375,0.34375 0.375,0.34375 0.265625,0 0.546875,-0.234375 0.546875,-0.59375 0,-0.34375 -0.3125,-0.640625 -0.828125,-0.640625 C 2.875,-4.40625 2.4375,-3.921875 2.25,-3.640625 2.15625,-4.09375 1.796875,-4.40625 1.328125,-4.40625 0.875,-4.40625 0.6875,-4.015625 0.59375,-3.84375 0.421875,-3.5 0.296875,-2.90625 0.296875,-2.875 c 0,0.109375 0.09375,0.109375 0.109375,0.109375 0.109375,0 0.109375,-0.015625 0.171875,-0.234375 0.171875,-0.703125 0.375,-1.1875 0.734375,-1.1875 0.15625,0 0.296875,0.078125 0.296875,0.453125 0,0.21875 -0.03125,0.328125 -0.15625,0.84375 z m 0,0"
               id="id-1ffbfa9a-7ef9-43a3-85b3-3b79759197f4" />
          </symbol>
        </g>
      </defs>
      <g
         id="id-fd62e514-256a-4ae7-bbe2-22a727ad2f36"
         transform="translate(-149.009,-130.359)">
        <g
           style="fill:#000000;fill-opacity:1"
           id="id-1ff66406-839b-46e7-9d52-f3e28dc711ef">
          <g
             id="g282"
             transform="translate(148.712,134.765)">
            <path
               style="stroke:none"
               d="m 0.875,-0.59375 c -0.03125,0.15625 -0.09375,0.390625 -0.09375,0.4375 0,0.171875 0.140625,0.265625 0.296875,0.265625 0.125,0 0.296875,-0.078125 0.375,-0.28125 C 1.46875,-0.203125 1.796875,-1.5625 1.84375,-1.75 c 0.078125,-0.328125 0.265625,-1.015625 0.3125,-1.296875 0.046875,-0.125 0.328125,-0.59375 0.5625,-0.8125 0.078125,-0.0625 0.375,-0.328125 0.796875,-0.328125 0.265625,0 0.40625,0.125 0.421875,0.125 -0.296875,0.046875 -0.515625,0.28125 -0.515625,0.546875 0,0.15625 0.109375,0.34375 0.375,0.34375 0.265625,0 0.546875,-0.234375 0.546875,-0.59375 0,-0.34375 -0.3125,-0.640625 -0.828125,-0.640625 C 2.875,-4.40625 2.4375,-3.921875 2.25,-3.640625 2.15625,-4.09375 1.796875,-4.40625 1.328125,-4.40625 0.875,-4.40625 0.6875,-4.015625 0.59375,-3.84375 0.421875,-3.5 0.296875,-2.90625 0.296875,-2.875 c 0,0.109375 0.09375,0.109375 0.109375,0.109375 0.109375,0 0.109375,-0.015625 0.171875,-0.234375 0.171875,-0.703125 0.375,-1.1875 0.734375,-1.1875 0.15625,0 0.296875,0.078125 0.296875,0.453125 0,0.21875 -0.03125,0.328125 -0.15625,0.84375 z m 0,0"
               id="id-3f5e388a-d082-4bc4-aa8a-4a47999873e8" />
          </g>
        </g>
      </g>
    </g>
    <path
       transform="scale(0.26458333)"
       id="path8943"
       d="m 208.75541,365.07752 c -4.44467,-0.77005 -15.80889,-2.56408 -25.25381,-3.98674 -34.02407,-5.12492 -54.92172,-11.06469 -78.03861,-22.18105 C 80.61114,326.95908 66.69908,316.27051 48.384214,295.05639 32.770297,276.97077 26.446491,265.15317 22.220697,246.16336 20.166493,236.93221 19.25796,216.75525 20.78523,214.28407 c 0.515183,-0.83358 21.312205,-1.14251 76.913015,-1.14251 h 76.206905 l -2.02031,2.0203 c -5.1971,5.19711 -0.34521,13.94412 7.06744,12.74121 4.36272,-0.70797 6.06454,-2.90416 6.06454,-7.82624 0,-2.77162 -0.60336,-4.21287 -2.24507,-5.36277 -2.20393,-1.54369 -2.17616,-1.5725 1.51523,-1.5725 h 3.7603 v 65.65991 c 0,43.09985 0.34708,65.65992 1.01015,65.65992 0.66308,0 1.01016,-22.56007 1.01016,-65.65992 v -65.65991 h 83.8174 83.81741 l -0.62191,3.28299 c -1.52821,8.06728 -5.99488,21.73094 -12.13559,37.12311 -3.65722,9.16713 -8.17152,20.86878 -10.03177,26.00366 -4.93748,13.62897 -8.0786,19.24423 -13.96384,24.96257 -5.05341,4.91011 -7.25841,6.32975 -25.57672,16.46711 -8.99727,4.97909 -14.10978,9.07786 -31.86565,25.54717 -13.23228,12.2735 -19.29622,16.56819 -26.35234,18.66364 -6.11132,1.81486 -17.52953,1.76891 -28.39917,-0.11429 z"
       style="opacity:0.0466473;fill:#000000;stroke:#000000;stroke-width:0.996472" />
    <path
       transform="scale(0.26458333)"
       id="path8945"
       d="m 21.372111,210.2241 c 0,-4.73157 20.448813,-65.37765 25.411327,-75.36367 6.691413,-13.46506 9.413647,-16.52014 51.865343,-58.206948 21.437659,-21.0514 22.562639,-21.986759 31.819809,-26.456644 5.27804,-2.548539 13.16276,-5.555843 17.5216,-6.682897 10.11849,-2.616321 27.71628,-4.417567 34.67027,-3.548724 l 5.38682,0.673039 v 85.241494 85.2415 H 104.7097 c -47.886981,0 -83.337589,-0.38164 -83.337589,-0.89715 z"
       style="opacity:0.0466473;fill:#000000;stroke:#000000;stroke-width:0.996472" />
    <path
       transform="scale(0.26458333)"
       id="path8947"
       d="m 265.82903,186.49506 v -24.62618 l 3.07809,-1.27499 c 6.32815,-2.6212 7.90265,-10.96581 3.0862,-16.35635 -2.36111,-2.64254 -3.69489,-3.27598 -6.89799,-3.27598 -5.08301,0 -9.26816,2.73874 -10.03359,6.56592 l -0.59693,2.98462 H 222.2662 190.06759 V 95.363993 40.215889 l 5.3033,0.65829 c 12.22837,1.517888 23.1684,3.961928 34.12199,7.622973 18.1257,6.058192 50.03495,18.834871 60.07247,24.053419 14.81603,7.702915 24.76757,19.236212 39.37772,45.636649 3.22836,5.83363 9.93823,17.57064 14.91083,26.08226 4.97258,8.51161 10.46053,19.19398 12.19543,23.73858 3.03384,7.94724 3.15555,8.86111 3.18557,23.92029 0.0172,8.61155 -0.29499,16.45286 -0.69369,17.42513 -0.67541,1.6471 -3.86465,1.76777 -46.71854,1.76777 h -45.99364 z m 11.72779,-0.73318 c 2.26949,-6.94291 2.51878,-8.98582 1.09652,-8.98582 -0.74598,0 -1.77742,1.67011 -2.29209,3.71135 -0.51468,2.04125 -1.55168,3.91331 -2.30447,4.16013 -1.02341,0.33556 -1.17634,-0.15476 -0.60623,-1.94359 1.30967,-4.10931 1.05735,-5.42281 -1.0417,-5.42281 -1.22614,0 -2.13118,0.78571 -2.32714,2.02031 -0.26937,1.69706 -0.14056,1.77786 0.80507,0.50507 0.8696,-1.17046 0.97231,-0.73953 0.4514,1.89396 -0.46957,2.37394 -0.25812,3.67291 0.69632,4.27768 1.06785,0.67662 0.98012,0.87191 -0.39709,0.88396 -2.0163,0.0177 -2.4169,2.65042 -0.50508,3.31942 2.50952,0.87814 5.32612,-1.05951 6.42449,-4.41966 z M 229.4838,144.93184 c 0.70278,-0.8468 0.98103,-1.83639 0.61832,-2.1991 -0.3627,-0.36269 -1.32216,0.2165 -2.13212,1.28711 -1.64881,2.17939 -2.00703,0.77488 -0.87791,-3.44213 0.46537,-1.73803 0.84918,-2.00592 1.45938,-1.0186 0.62583,1.01261 1.11263,1.05495 1.99417,0.17341 1.81875,-1.81875 0.27616,-3.16054 -3.63353,-3.16054 -3.35056,0 -7.32244,2.38265 -6.06614,3.63896 0.31351,0.31351 1.10792,0.0321 1.76537,-0.62534 1.87193,-1.87193 2.57367,-1.41634 2.04867,1.33004 -0.3114,1.62896 -1.15809,2.52538 -2.3853,2.52538 -1.0464,0 -1.90255,0.68185 -1.90255,1.51523 0,2.08255 7.37942,2.06278 9.11164,-0.0244 z m 39.20763,-8.93405 c 0.225,-1.17225 -0.0573,-1.6281 -0.74499,-1.20307 -1.36109,0.8412 -1.38714,1.19208 0.40797,-5.49583 0.82019,-3.05571 1.49664,-5.66948 1.50324,-5.80837 0.007,-0.1389 -0.89179,-0.25254 -1.99641,-0.25254 -1.47092,0 -1.944,0.59716 -1.76776,2.23144 0.16552,1.53495 -0.38996,2.35711 -1.77968,2.63408 -2.88018,0.57402 -4.25304,1.9122 -4.99515,4.86899 -0.90133,3.59119 0.93988,5.36268 5.31993,5.11847 2.70411,-0.15077 3.78741,-0.71026 4.05285,-2.09317 z m 5.96452,0.1229 c -0.28879,-2.72381 3.67891,-3.84962 4.64986,-1.31937 0.33107,0.86276 0.16165,1.56864 -0.3765,1.56864 -0.53815,0 -0.97845,0.45457 -0.97845,1.01015 0,0.55559 1.3637,1.01016 3.03046,1.01016 1.66675,0 3.03045,-0.45457 3.03045,-1.01016 0,-0.55558 -0.45456,-1.01015 -1.01015,-1.01015 -0.55558,0 -1.01515,-1.25006 -1.02127,-2.77792 -0.0184,-4.59199 -1.20524,-10.35406 -2.13272,-10.35406 -0.47814,0 -2.25947,2.46317 -3.95852,5.47371 -1.69904,3.01054 -3.74849,6.0209 -4.55432,6.68968 -2.18732,1.81532 -1.7757,2.9889 1.04832,2.9889 2.00346,0 2.46465,-0.46053 2.27284,-2.26958 z"
       style="opacity:0.0466473;fill:#000000;stroke:#000000;stroke-width:0.996472" />
    <path
       transform="scale(0.26458333)"
       id="path8949"
       d="m 193.13412,209.75881 c 0.81354,-0.74934 15.39979,-12.53868 32.4139,-26.19855 l 30.93475,-24.83612 3.66297,1.66028 3.66298,1.66028 v 24.53827 24.53828 h -36.07687 c -30.32785,0 -35.84117,-0.21711 -34.59773,-1.36244 z"
       style="opacity:0.0466473;fill:#000000;stroke:#000000;stroke-width:0.996472" />
    <path
       transform="scale(0.26458333)"
       id="path8951"
       d="M 190.06759,180.97324 V 152.5324 h 32.20706 c 31.47229,0 32.21925,0.0466 32.7411,2.04214 0.44251,1.69216 -4.77405,6.30614 -30.4393,26.92316 -17.03533,13.68457 -31.76882,25.56398 -32.7411,26.3987 -1.67766,1.44031 -1.76776,0.0681 -1.76776,-26.92316 z m 32.55725,-6.9751 c 1.24876,-4.40587 1.59134,-4.77069 4.1896,-4.46156 2.28614,0.272 2.76131,-0.0181 2.47391,-1.51047 -0.51696,-2.68433 -9.55888,-2.91551 -10.96912,-0.28045 -0.53764,1.00458 -0.97752,2.31097 -0.97752,2.90308 0,1.75795 1.83102,1.22338 2.36756,-0.69121 0.27247,-0.97227 0.24723,0.61872 -0.0561,3.53554 -0.70445,6.77445 1.10743,7.08241 2.97164,0.50507 z"
       style="opacity:0.0466473;fill:#000000;stroke:#000000;stroke-width:0.996472" />
  </g>
</svg>
