<?xml version="1.0" encoding="UTF-8" standalone="no"?>
<svg
   xmlns:ns21="http://www.iki.fi/pav/software/textext/"
   xmlns:dc="http://purl.org/dc/elements/1.1/"
   xmlns:cc="http://creativecommons.org/ns#"
   xmlns:rdf="http://www.w3.org/1999/02/22-rdf-syntax-ns#"
   xmlns:svg="http://www.w3.org/2000/svg"
   xmlns="http://www.w3.org/2000/svg"
   xmlns:sodipodi="http://sodipodi.sourceforge.net/DTD/sodipodi-0.dtd"
   xmlns:inkscape="http://www.inkscape.org/namespaces/inkscape"
   sodipodi:docname="Figura1_4.svg"
   inkscape:version="1.0 (4035a4fb49, 2020-05-01)"
   id="svg8"
   version="1.1"
   viewBox="0 0 160 95"
   height="9.5cm"
   width="16cm">
  <defs
     id="defs2" />
  <sodipodi:namedview
     units="cm"
     inkscape:window-maximized="1"
     inkscape:window-y="-8"
     inkscape:window-x="-8"
     inkscape:window-height="715"
     inkscape:window-width="1366"
     showgrid="true"
     inkscape:document-rotation="0"
     inkscape:current-layer="layer1"
     inkscape:document-units="mm"
     inkscape:cy="121.32686"
     inkscape:cx="207.09366"
     inkscape:zoom="0.98994949"
     inkscape:pageshadow="2"
     inkscape:pageopacity="0.0"
     borderopacity="1.0"
     bordercolor="#666666"
     pagecolor="#ffffff"
     id="base">
    <inkscape:grid
       id="grid10"
       type="xygrid" />
  </sodipodi:namedview>
  <metadata
     id="metadata5">
    <rdf:RDF>
      <cc:Work
         rdf:about="">
        <dc:format>image/svg+xml</dc:format>
        <dc:type
           rdf:resource="http://purl.org/dc/dcmitype/StillImage" />
        <dc:title></dc:title>
      </cc:Work>
    </rdf:RDF>
  </metadata>
  <g
     id="layer1"
     inkscape:groupmode="layer"
     inkscape:label="Livello 1">
    <g
       transform="matrix(1.05833,0,0,1.05833,90.0323,88.561597)"
       ns21:version="1.0.1"
       ns21:texconverter="pdflatex"
       ns21:pdfconverter="inkscape"
       ns21:text="$r$"
       ns21:preamble="C:\\Users\\claum\\AppData\\Roaming\\inkscape\\extensions\\textext\\default_packages.tex"
       ns21:scale="3.0"
       ns21:alignment="middle center"
       ns21:jacobian_sqrt="1.05833"
       id="g612">
      <defs
         id="id-686792a4-def4-4305-a671-0faf8d9957e0">
        <g
           id="id-8395919d-dd04-4306-8d04-c603c1774072">
          <symbol
             id="id-525e2d32-0b5f-49dd-ad3b-6d194e989581"
             overflow="visible">
            <path
               id="id-25c7b054-cea2-4d8c-86ae-7b179038a0f6"
               d=""
               style="stroke:none" />
          </symbol>
          <symbol
             id="id-06659fb7-6dc7-40fc-840f-a1a0f22bc19e"
             overflow="visible">
            <path
               id="id-cccc502e-0189-4319-9770-c3c908235898"
               d="m 0.875,-0.59375 c -0.03125,0.15625 -0.09375,0.390625 -0.09375,0.4375 0,0.171875 0.140625,0.265625 0.296875,0.265625 0.125,0 0.296875,-0.078125 0.375,-0.28125 C 1.46875,-0.203125 1.796875,-1.5625 1.84375,-1.75 c 0.078125,-0.328125 0.265625,-1.015625 0.3125,-1.296875 0.046875,-0.125 0.328125,-0.59375 0.5625,-0.8125 0.078125,-0.0625 0.375,-0.328125 0.796875,-0.328125 0.265625,0 0.40625,0.125 0.421875,0.125 -0.296875,0.046875 -0.515625,0.28125 -0.515625,0.546875 0,0.15625 0.109375,0.34375 0.375,0.34375 0.265625,0 0.546875,-0.234375 0.546875,-0.59375 0,-0.34375 -0.3125,-0.640625 -0.828125,-0.640625 C 2.875,-4.40625 2.4375,-3.921875 2.25,-3.640625 2.15625,-4.09375 1.796875,-4.40625 1.328125,-4.40625 0.875,-4.40625 0.6875,-4.015625 0.59375,-3.84375 0.421875,-3.5 0.296875,-2.90625 0.296875,-2.875 c 0,0.109375 0.09375,0.109375 0.109375,0.109375 0.109375,0 0.109375,-0.015625 0.171875,-0.234375 0.171875,-0.703125 0.375,-1.1875 0.734375,-1.1875 0.15625,0 0.296875,0.078125 0.296875,0.453125 0,0.21875 -0.03125,0.328125 -0.15625,0.84375 z m 0,0"
               style="stroke:none" />
          </symbol>
        </g>
      </defs>
      <g
         transform="translate(-149.009,-130.359)"
         id="id-b0a18c72-4ede-4f43-83f4-884b1d48c98e">
        <g
           id="id-e793e489-b63b-4fff-b1bc-1697052379c8"
           style="fill:#000000;fill-opacity:1">
          <g
             transform="translate(148.712,134.765)"
             id="g608">
            <path
               id="id-02308131-79cf-423f-ba5a-450842fa2543"
               d="m 0.875,-0.59375 c -0.03125,0.15625 -0.09375,0.390625 -0.09375,0.4375 0,0.171875 0.140625,0.265625 0.296875,0.265625 0.125,0 0.296875,-0.078125 0.375,-0.28125 C 1.46875,-0.203125 1.796875,-1.5625 1.84375,-1.75 c 0.078125,-0.328125 0.265625,-1.015625 0.3125,-1.296875 0.046875,-0.125 0.328125,-0.59375 0.5625,-0.8125 0.078125,-0.0625 0.375,-0.328125 0.796875,-0.328125 0.265625,0 0.40625,0.125 0.421875,0.125 -0.296875,0.046875 -0.515625,0.28125 -0.515625,0.546875 0,0.15625 0.109375,0.34375 0.375,0.34375 0.265625,0 0.546875,-0.234375 0.546875,-0.59375 0,-0.34375 -0.3125,-0.640625 -0.828125,-0.640625 C 2.875,-4.40625 2.4375,-3.921875 2.25,-3.640625 2.15625,-4.09375 1.796875,-4.40625 1.328125,-4.40625 0.875,-4.40625 0.6875,-4.015625 0.59375,-3.84375 0.421875,-3.5 0.296875,-2.90625 0.296875,-2.875 c 0,0.109375 0.09375,0.109375 0.109375,0.109375 0.109375,0 0.109375,-0.015625 0.171875,-0.234375 0.171875,-0.703125 0.375,-1.1875 0.734375,-1.1875 0.15625,0 0.296875,0.078125 0.296875,0.453125 0,0.21875 -0.03125,0.328125 -0.15625,0.84375 z m 0,0"
               style="stroke:none" />
          </g>
        </g>
      </g>
    </g>
    <g
       transform="translate(-30,-8)"
       id="g2028">
      <path
         style="fill:none;stroke:#000000;stroke-width:0.25077px;stroke-linecap:butt;stroke-linejoin:miter;stroke-opacity:1"
         d="m 45,90 c 0,0 -11.012099,-6.248594 -12.576413,-12.000002 -1.73545,-6.380614 -0.959295,-13.419417 0,-20 0.758389,-5.202407 2.294246,-10.331532 4.491576,-14.999999 C 40.389447,35.618505 44.056717,27.443099 50.38989,23 56.848487,18.46891 65.552228,17.223131 73.087863,15.861844 85.002747,13.70946 99.26068,11.873665 111.18131,11.396383 c 11.96979,-0.479252 21.55414,-0.534539 33.53168,-0.534539 7.48595,0 16.26904,0.0015 23.65834,1.336347 4.67341,0.844235 8.69754,2.348593 12.27427,5.801809 2.52912,2.441793 3.7224,6.372915 4.49157,10 0.68797,3.244163 1.20047,6.399396 1.20047,9.732729 0,3.333334 0.21246,7.328355 -1.20047,10.267271 -2.54718,5.298204 -7.06241,7.804821 -11.55398,11.138154 -4.49158,3.333334 -10.14372,5.554388 -15.39547,7.861845 -13.21177,5.804835 -26.66495,11.075913 -40.42419,14.999999 C 101.54812,86.624577 85.027672,90.32657 68.356194,91.999999 59.409341,92.898055 45,90 45,90"
         id="path12"
         sodipodi:nodetypes="cssssssssssssssssc" />
      <path
         style="fill:none;stroke:#000000;stroke-width:0.264583px;stroke-linecap:butt;stroke-linejoin:miter;stroke-opacity:1"
         d="M 39.999999,10 120,94.999999"
         id="path14" />
      <circle
         r="2"
         cy="37.1325"
         cx="117.1325"
         id="circle18"
         style="opacity:0.74212;fill:#4d4d4d;stroke:#6a6a6a;stroke-width:0.264999" />
      <path
         id="path22"
         d="M 115.5,38.5 95.000002,52 85,58"
         style="fill:none;stroke:#000000;stroke-width:0.264583px;stroke-linecap:butt;stroke-linejoin:miter;stroke-opacity:1"
         sodipodi:nodetypes="ccc" />
      <g
         transform="matrix(0.529167,0,0,0.529167,112.999,30.6518)"
         ns21:version="1.0.1"
         ns21:texconverter="pdflatex"
         ns21:pdfconverter="inkscape"
         ns21:text="$\\mathbf{G}$"
         ns21:preamble="C:\\Users\\claum\\AppData\\Roaming\\inkscape\\extensions\\textext\\default_packages.tex"
         ns21:scale="1.5"
         ns21:alignment="middle center"
         ns21:inkscapeversion="1.0"
         ns21:jacobian_sqrt="0.529167"
         id="g2998">
        <defs
           id="id-721a01ae-7edb-4be3-8942-d7e8e5b8299f">
          <g
             id="id-d990214c-9029-414f-ab81-04e58066eded">
            <symbol
               id="id-71e697d3-bd70-42d0-b9d1-045c95b68915"
               overflow="visible">
              <path
                 id="id-9a42a61d-0c62-4a9f-8e19-afc4d275396f"
                 d=""
                 style="stroke:none" />
            </symbol>
            <symbol
               id="id-1bd86545-0bac-496c-a3f7-b7cb10f0ff89"
               overflow="visible">
              <path
                 id="id-e6a4ae14-363e-4a91-869a-10598b835468"
                 d="M 6.515625,-0.53125 C 6.8125,-0.265625 7.421875,0 7.484375,0 7.625,0 7.625,-0.125 7.625,-0.28125 v -2 H 8.421875 V -2.75 c -0.34375,0.03125 -1.21875,0.03125 -1.609375,0.03125 -0.578125,0 -1.5,0 -2.03125,-0.03125 v 0.46875 h 1.421875 v 1 c 0,0.1875 0,0.484375 -0.375,0.71875 C 5.5625,-0.421875 5.25,-0.359375 4.921875,-0.359375 c -0.859375,0 -1.71875,-0.28125 -2.203125,-0.90625 -0.421875,-0.546875 -0.5625,-1.25 -0.5625,-2.15625 0,-1.125 0.203125,-1.703125 0.578125,-2.1875 0.390625,-0.5 1.15625,-0.875 2.125,-0.875 1.0625,0 2.015625,0.765625 2.234375,2.03125 C 7.125,-4.265625 7.125,-4.25 7.359375,-4.25 c 0.25,0 0.265625,-0.015625 0.265625,-0.28125 v -2.140625 c 0,-0.1875 0,-0.28125 -0.171875,-0.28125 -0.09375,0 -0.109375,0.03125 -0.203125,0.09375 l -0.65625,0.59375 c -0.71875,-0.578125 -1.4375,-0.6875 -1.953125,-0.6875 -2.453125,0 -4,1.46875 -4,3.53125 0,1.984375 1.4375,3.53125 4.015625,3.53125 0.328125,0 1.359375,-0.015625 1.859375,-0.640625 z m 0,0"
                 style="stroke:none" />
            </symbol>
          </g>
        </defs>
        <g
           transform="translate(-149.353,-127.812)"
           id="id-19e51752-91d6-4e5d-a41f-52ed262886fd">
          <g
             id="id-4290b268-c815-4b94-a519-a46b5da38ba9"
             style="fill:#000000;fill-opacity:1">
            <g
               transform="translate(148.712,134.765)"
               id="g2994">
              <path
                 id="id-589c5b45-abfa-4f78-95ef-87701e7b922d"
                 d="M 6.515625,-0.53125 C 6.8125,-0.265625 7.421875,0 7.484375,0 7.625,0 7.625,-0.125 7.625,-0.28125 v -2 H 8.421875 V -2.75 c -0.34375,0.03125 -1.21875,0.03125 -1.609375,0.03125 -0.578125,0 -1.5,0 -2.03125,-0.03125 v 0.46875 h 1.421875 v 1 c 0,0.1875 0,0.484375 -0.375,0.71875 C 5.5625,-0.421875 5.25,-0.359375 4.921875,-0.359375 c -0.859375,0 -1.71875,-0.28125 -2.203125,-0.90625 -0.421875,-0.546875 -0.5625,-1.25 -0.5625,-2.15625 0,-1.125 0.203125,-1.703125 0.578125,-2.1875 0.390625,-0.5 1.15625,-0.875 2.125,-0.875 1.0625,0 2.015625,0.765625 2.234375,2.03125 C 7.125,-4.265625 7.125,-4.25 7.359375,-4.25 c 0.25,0 0.265625,-0.015625 0.265625,-0.28125 v -2.140625 c 0,-0.1875 0,-0.28125 -0.171875,-0.28125 -0.09375,0 -0.109375,0.03125 -0.203125,0.09375 l -0.65625,0.59375 c -0.71875,-0.578125 -1.4375,-0.6875 -1.953125,-0.6875 -2.453125,0 -4,1.46875 -4,3.53125 0,1.984375 1.4375,3.53125 4.015625,3.53125 0.328125,0 1.359375,-0.015625 1.859375,-0.640625 z m 0,0"
                 style="stroke:none" />
            </g>
          </g>
        </g>
      </g>
      <g
         transform="matrix(0.529167,0,0,0.529167,102.97305,47.555255)"
         ns21:version="1.0.1"
         ns21:texconverter="pdflatex"
         ns21:pdfconverter="inkscape"
         ns21:text="$\\lambda_G$"
         ns21:preamble="C:\\Users\\claum\\AppData\\Roaming\\inkscape\\extensions\\textext\\default_packages.tex"
         ns21:scale="1.5"
         ns21:alignment="middle center"
         ns21:inkscapeversion="1.0"
         ns21:jacobian_sqrt="0.529167"
         id="g3063">
        <defs
           id="id-bec1721d-cbb9-4770-a5c4-358d9fa6f733">
          <g
             id="id-83911fff-4084-4759-8297-fa7a673bd366">
            <symbol
               id="id-3b7e5766-6715-4abc-84df-80c6e85c3196"
               overflow="visible">
              <path
                 id="id-5044570e-de34-46d3-9261-c3c349f02f72"
                 d=""
                 style="stroke:none" />
            </symbol>
            <symbol
               id="id-80e5b6b4-c0ad-471f-b412-e9edef84af7b"
               overflow="visible">
              <path
                 id="id-75229d1a-7a91-4fed-bca9-e7840386e733"
                 d="m 3.5625,-2.90625 c 0.40625,1.046875 0.890625,2.5625 1.046875,2.796875 0.15625,0.21875 0.25,0.21875 0.53125,0.21875 h 0.21875 c 0.09375,-0.015625 0.109375,-0.0625 0.109375,-0.09375 0,-0.03125 -0.03125,-0.0625 -0.0625,-0.09375 C 5.3125,-0.1875 5.25,-0.34375 5.1875,-0.53125 L 3.15625,-6.203125 c -0.21875,-0.578125 -0.75,-0.71875 -1.21875,-0.71875 -0.046875,0 -0.1875,0 -0.1875,0.109375 0,0.078125 0.078125,0.109375 0.09375,0.109375 C 2.171875,-6.65625 2.25,-6.59375 2.5,-5.90625 l 0.953125,2.703125 -2.75,2.734375 c -0.109375,0.125 -0.171875,0.171875 -0.171875,0.3125 0,0.171875 0.140625,0.28125 0.296875,0.28125 0.15625,0 0.25,-0.109375 0.328125,-0.203125 z m 0,0"
                 style="stroke:none" />
            </symbol>
            <symbol
               id="id-c573820f-a794-4ca4-a223-12b4f1120a10"
               overflow="visible">
              <path
                 id="id-1ad288f4-3260-49a8-9ffc-a795f7f9f5ea"
                 d=""
                 style="stroke:none" />
            </symbol>
            <symbol
               id="id-c5f19130-68f1-49fe-bd75-2f6457d13207"
               overflow="visible">
              <path
                 id="id-2df52021-5cfb-46e1-9070-d2ee0a1143b9"
                 d="m 5.875,-4.8125 c 0,-0.03125 -0.015625,-0.09375 -0.09375,-0.09375 -0.046875,0 -0.0625,0.015625 -0.125,0.09375 l -0.5,0.53125 c -0.0625,-0.078125 -0.453125,-0.625 -1.3125,-0.625 -1.703125,0 -3.359375,1.5 -3.359375,3.078125 0,1.078125 0.828125,1.96875 2.15625,1.96875 0.625,0 1.265625,-0.15625 1.625,-0.546875 C 4.34375,-0.265625 4.53125,0 4.609375,0 4.671875,0 4.6875,-0.03125 4.71875,-0.1875 l 0.140625,-0.53125 c 0.03125,-0.125 0.125,-0.546875 0.15625,-0.625 0.078125,-0.3125 0.078125,-0.328125 0.5,-0.328125 0.046875,0 0.15625,0 0.15625,-0.140625 0,-0.078125 -0.0625,-0.109375 -0.109375,-0.109375 -0.234375,0 -0.53125,0.03125 -0.765625,0.03125 -0.171875,0 -0.40625,0 -0.578125,-0.015625 -0.171875,0 -0.375,-0.015625 -0.546875,-0.015625 -0.0625,0 -0.15625,0 -0.15625,0.15625 0,0.09375 0.078125,0.09375 0.25,0.09375 0.125,0 0.265625,0 0.40625,0.015625 0.21875,0.015625 0.21875,0.046875 0.21875,0.125 0,0.03125 0,0.046875 -0.046875,0.234375 -0.046875,0.1875 -0.125,0.5 -0.15625,0.578125 C 4,-0.296875 3.34375,-0.109375 2.796875,-0.109375 c -0.6875,0 -1.609375,-0.34375 -1.609375,-1.515625 0,-0.75 0.359375,-1.671875 0.875,-2.203125 0.71875,-0.703125 1.453125,-0.8125 1.84375,-0.8125 0.8125,0 1.28125,0.578125 1.28125,1.359375 0,0.1875 -0.015625,0.25 -0.015625,0.28125 0,0.09375 0.09375,0.09375 0.125,0.09375 0.109375,0 0.109375,-0.015625 0.140625,-0.15625 z m 0,0"
                 style="stroke:none" />
            </symbol>
          </g>
        </defs>
        <g
           transform="translate(-149.243,-127.843)"
           id="id-c4549a20-ba19-4e97-8411-e6a865f6dec5">
          <g
             id="id-ce05f953-aac6-4609-b642-815d66a82fc1"
             style="fill:#000000;fill-opacity:1">
            <g
               transform="translate(148.712,134.765)"
               id="g3055">
              <path
                 id="id-347d7eeb-016e-4ec9-b027-a9f2e25e692d"
                 d="m 3.5625,-2.90625 c 0.40625,1.046875 0.890625,2.5625 1.046875,2.796875 0.15625,0.21875 0.25,0.21875 0.53125,0.21875 h 0.21875 c 0.09375,-0.015625 0.109375,-0.0625 0.109375,-0.09375 0,-0.03125 -0.03125,-0.0625 -0.0625,-0.09375 C 5.3125,-0.1875 5.25,-0.34375 5.1875,-0.53125 L 3.15625,-6.203125 c -0.21875,-0.578125 -0.75,-0.71875 -1.21875,-0.71875 -0.046875,0 -0.1875,0 -0.1875,0.109375 0,0.078125 0.078125,0.109375 0.09375,0.109375 C 2.171875,-6.65625 2.25,-6.59375 2.5,-5.90625 l 0.953125,2.703125 -2.75,2.734375 c -0.109375,0.125 -0.171875,0.171875 -0.171875,0.3125 0,0.171875 0.140625,0.28125 0.296875,0.28125 0.15625,0 0.25,-0.109375 0.328125,-0.203125 z m 0,0"
                 style="stroke:none" />
            </g>
          </g>
          <g
             id="id-eac70922-480b-4aa3-9f5c-cc3bef852acc"
             style="fill:#000000;fill-opacity:1">
            <g
               transform="translate(154.524,136.259)"
               id="g3059">
              <path
                 id="id-e44948f1-89b9-4746-ac7d-cbc6aea6913b"
                 d="m 5.875,-4.8125 c 0,-0.03125 -0.015625,-0.09375 -0.09375,-0.09375 -0.046875,0 -0.0625,0.015625 -0.125,0.09375 l -0.5,0.53125 c -0.0625,-0.078125 -0.453125,-0.625 -1.3125,-0.625 -1.703125,0 -3.359375,1.5 -3.359375,3.078125 0,1.078125 0.828125,1.96875 2.15625,1.96875 0.625,0 1.265625,-0.15625 1.625,-0.546875 C 4.34375,-0.265625 4.53125,0 4.609375,0 4.671875,0 4.6875,-0.03125 4.71875,-0.1875 l 0.140625,-0.53125 c 0.03125,-0.125 0.125,-0.546875 0.15625,-0.625 0.078125,-0.3125 0.078125,-0.328125 0.5,-0.328125 0.046875,0 0.15625,0 0.15625,-0.140625 0,-0.078125 -0.0625,-0.109375 -0.109375,-0.109375 -0.234375,0 -0.53125,0.03125 -0.765625,0.03125 -0.171875,0 -0.40625,0 -0.578125,-0.015625 -0.171875,0 -0.375,-0.015625 -0.546875,-0.015625 -0.0625,0 -0.15625,0 -0.15625,0.15625 0,0.09375 0.078125,0.09375 0.25,0.09375 0.125,0 0.265625,0 0.40625,0.015625 0.21875,0.015625 0.21875,0.046875 0.21875,0.125 0,0.03125 0,0.046875 -0.046875,0.234375 -0.046875,0.1875 -0.125,0.5 -0.15625,0.578125 C 4,-0.296875 3.34375,-0.109375 2.796875,-0.109375 c -0.6875,0 -1.609375,-0.34375 -1.609375,-1.515625 0,-0.75 0.359375,-1.671875 0.875,-2.203125 0.71875,-0.703125 1.453125,-0.8125 1.84375,-0.8125 0.8125,0 1.28125,0.578125 1.28125,1.359375 0,0.1875 -0.015625,0.25 -0.015625,0.28125 0,0.09375 0.09375,0.09375 0.125,0.09375 0.109375,0 0.109375,-0.015625 0.140625,-0.15625 z m 0,0"
                 style="stroke:none" />
            </g>
          </g>
        </g>
      </g>
    </g>
    <path
       transform="scale(0.26458333)"
       id="path2030"
       d="M 118.37424,316.90645 C 104.02271,315.83184 89.425716,314.15291 74.432608,311.85231 58.787726,309.4517 57.367916,309.04707 51.291682,305.25744 34.084648,294.52575 18.201236,279.9969 13.013628,270.24383 8.5765226,261.90175 6.7523879,250.63579 6.7523879,231.57405 c 0,-33.39632 6.6577431,-67.68149 18.2648051,-94.05771 C 32.647433,120.17717 45.428986,95.614664 51.898607,85.857917 62.39652,70.026158 78.722219,54.103266 82.034813,56.465267 84.24659,58.042344 298.68647,286.32978 298.68647,287.10732 c 0,0.84721 -36.30473,9.6543 -60.60915,14.70305 -49.95133,10.37636 -99.41914,16.61489 -119.70308,15.09608 z"
       style="opacity:0.0291545;fill:#000000;stroke:#000000;stroke-width:1.01174" />
    <path
       transform="scale(0.26458333)"
       id="path2032"
       d="m 256.26101,238.20884 c -24.72297,-26.38486 -45.07947,-48.35829 -45.23666,-48.82985 -0.15718,-0.47155 7.57007,-5.55825 17.17167,-11.30376 9.60159,-5.74551 34.92405,-21.92623 56.27213,-35.95716 31.053,-20.40944 39.17014,-25.32054 40.59223,-24.55946 7.16382,3.83396 15.76258,-4.176 11.88986,-11.07572 -3.18741,-5.67878 -9.65951,-6.529373 -14.07921,-1.85034 -1.6547,1.7518 -2.03594,3.1739 -1.69381,6.31826 l 0.4415,4.05766 -38.40718,25.23677 c -50.62434,33.26447 -74.31485,47.52175 -76.01344,45.74593 -0.69246,-0.72395 -28.81533,-30.62424 -62.49528,-66.4451 L 83.466565,54.41723 85.768116,52.659756 c 3.633366,-2.774454 21.002554,-9.682624 31.295844,-12.447156 20.95933,-5.629177 73.74289,-14.768292 113.04235,-19.572512 49.44996,-6.045083 63.26335,-6.854407 142.5121,-8.349757 130.12509,-2.4553394 165.90866,1.71566 191.3542,22.304601 12.88213,10.423413 19.85852,26.847004 24.11002,56.75901 1.76228,12.398728 2.0048,41.950998 0.40689,49.582148 -1.96902,9.4035 -7.59133,18.67126 -17.03568,28.08145 -9.83731,9.80174 -31.13758,25.40104 -45.98812,33.6795 -17.54011,9.77776 -86.00254,38.8947 -126.18319,53.66547 -30.77753,11.31409 -84.4822,27.98249 -94.53514,29.34102 -3.51811,0.47543 -3.75714,0.24128 -48.48638,-47.49469 z m 40.40516,-72.13913 c 0,-0.51015 0.27591,-1.64657 0.61315,-2.52538 0.46682,-1.21652 -0.0448,-1.59785 -2.144,-1.59785 -2.2513,0 -2.54139,0.25996 -1.58114,1.41699 0.90335,1.08846 0.87347,1.52238 -0.12884,1.87151 -2.21005,0.76979 -3.83024,-0.36786 -3.83024,-2.68947 0,-4.2122 5.1318,-6.4976 6.51226,-2.90019 0.5718,1.4901 0.8023,1.5263 1.60783,0.25254 1.56861,-2.48036 1.09273,-3.88862 -1.30156,-3.8517 -4.84531,0.0747 -6.94808,1.01374 -8.69228,3.88186 l -1.81108,2.97808 -2.3394,-6.62661 c -1.28666,-3.64464 -2.9773,-6.87141 -3.75699,-7.1706 -2.26949,-0.87088 -2.67678,0.39937 -0.92842,2.8955 2.25371,3.21763 2.03497,4.85092 -1.08601,8.10851 -3.36905,3.51653 -2.27127,5.08438 1.24623,1.77985 2.1712,-2.03972 2.72213,-2.18544 3.51609,-0.92996 0.51782,0.81882 0.94844,1.82969 0.95695,2.24638 0.008,0.41669 0.87597,0.75761 1.92769,0.75761 1.05173,0 2.17388,0.68185 2.49369,1.51523 0.64067,1.66957 8.72607,2.21412 8.72607,0.5877 z m 31.31392,-68.520458 c 4.4e-4,-1.250064 0.45538,-2.272843 1.01096,-2.272843 0.55558,0 1.01015,-0.454569 1.01015,-1.010153 0,-0.555584 -1.81827,-1.010152 -4.04061,-1.010152 -2.22233,0 -4.04061,0.454568 -4.04061,1.010152 0,0.555584 0.45457,1.010153 1.01015,1.010153 0.55559,0 1.01016,0.681853 1.01016,1.515229 0,2.3881 -3.82822,1.768309 -5.57865,-0.903189 -3.59489,-5.4865 2.61012,-11.837257 6.66861,-6.82524 2.33615,2.885016 2.95065,2.740465 2.95065,-0.694087 0,-2.712715 -0.25251,-2.876228 -4.70155,-3.044512 -7.72863,-0.292332 -11.81611,4.208767 -9.45693,10.413889 1.22894,3.23237 4.25548,4.546871 9.86452,4.284431 3.71809,-0.173967 4.29244,-0.504902 4.29315,-2.473678 z"
       style="opacity:0.0291545;fill:#000000;stroke:#000000;stroke-width:1.01174" />
  </g>
</svg>
