<?xml version="1.0" encoding="UTF-8" standalone="no"?>
<svg
   xmlns:ns1="http://www.iki.fi/pav/software/textext/"
   xmlns:dc="http://purl.org/dc/elements/1.1/"
   xmlns:cc="http://creativecommons.org/ns#"
   xmlns:rdf="http://www.w3.org/1999/02/22-rdf-syntax-ns#"
   xmlns:svg="http://www.w3.org/2000/svg"
   xmlns="http://www.w3.org/2000/svg"
   xmlns:sodipodi="http://sodipodi.sourceforge.net/DTD/sodipodi-0.dtd"
   xmlns:inkscape="http://www.inkscape.org/namespaces/inkscape"
   width="210mm"
   height="180mm"
   viewBox="0 0 210 180"
   version="1.1"
   id="svg8"
   inkscape:version="1.0 (4035a4fb49, 2020-05-01)"
   sodipodi:docname="figura13_4.svg">
  <defs
     id="defs2">
    <marker
       inkscape:isstock="true"
       style="overflow:visible"
       id="marker7211"
       refX="0"
       refY="0"
       orient="auto"
       inkscape:stockid="Arrow1Mend">
      <path
         transform="matrix(-0.4,0,0,-0.4,-4,0)"
         style="fill:#000000;fill-opacity:1;fill-rule:evenodd;stroke:#000000;stroke-width:1pt;stroke-opacity:1"
         d="M 0,0 5,-5 -12.5,0 5,5 Z"
         id="path7209" />
    </marker>
    <marker
       inkscape:collect="always"
       inkscape:stockid="Arrow1Mend"
       orient="auto"
       refY="0"
       refX="0"
       id="marker7139"
       style="overflow:visible"
       inkscape:isstock="true">
      <path
         id="path7137"
         d="M 0,0 5,-5 -12.5,0 5,5 Z"
         style="fill:#000000;fill-opacity:1;fill-rule:evenodd;stroke:#000000;stroke-width:1pt;stroke-opacity:1"
         transform="matrix(-0.4,0,0,-0.4,-4,0)" />
    </marker>
    <marker
       inkscape:collect="always"
       inkscape:isstock="true"
       style="overflow:visible"
       id="Arrow1Mend"
       refX="0"
       refY="0"
       orient="auto"
       inkscape:stockid="Arrow1Mend">
      <path
         transform="matrix(-0.4,0,0,-0.4,-4,0)"
         style="fill:#000000;fill-opacity:1;fill-rule:evenodd;stroke:#000000;stroke-width:1pt;stroke-opacity:1"
         d="M 0,0 5,-5 -12.5,0 5,5 Z"
         id="path2913" />
    </marker>
    <marker
       inkscape:stockid="Arrow1Sstart"
       orient="auto"
       refY="0"
       refX="0"
       id="Arrow1Sstart"
       style="overflow:visible"
       inkscape:isstock="true">
      <path
         id="path851"
         d="M 0,0 5,-5 -12.5,0 5,5 Z"
         style="fill:#000000;fill-opacity:1;fill-rule:evenodd;stroke:#000000;stroke-width:1pt;stroke-opacity:1"
         transform="matrix(0.2,0,0,0.2,1.2,0)" />
    </marker>
    <marker
       inkscape:stockid="Arrow1Mstart"
       orient="auto"
       refY="0"
       refX="0"
       id="marker1171"
       style="overflow:visible"
       inkscape:isstock="true">
      <path
         id="path1169"
         d="M 0,0 5,-5 -12.5,0 5,5 Z"
         style="fill:#000000;fill-opacity:1;fill-rule:evenodd;stroke:#000000;stroke-width:1pt;stroke-opacity:1"
         transform="matrix(0.4,0,0,0.4,4,0)" />
    </marker>
    <marker
       inkscape:isstock="true"
       style="overflow:visible"
       id="marker1117"
       refX="0"
       refY="0"
       orient="auto"
       inkscape:stockid="Arrow1Mstart"
       inkscape:collect="always">
      <path
         transform="matrix(0.4,0,0,0.4,4,0)"
         style="fill:#000000;fill-opacity:1;fill-rule:evenodd;stroke:#000000;stroke-width:1pt;stroke-opacity:1"
         d="M 0,0 5,-5 -12.5,0 5,5 Z"
         id="path1115" />
    </marker>
    <marker
       inkscape:stockid="Arrow1Mstart"
       orient="auto"
       refY="0"
       refX="0"
       id="Arrow1Mstart"
       style="overflow:visible"
       inkscape:isstock="true"
       inkscape:collect="always">
      <path
         id="path845"
         d="M 0,0 5,-5 -12.5,0 5,5 Z"
         style="fill:#000000;fill-opacity:1;fill-rule:evenodd;stroke:#000000;stroke-width:1pt;stroke-opacity:1"
         transform="matrix(0.4,0,0,0.4,4,0)" />
    </marker>
  </defs>
  <sodipodi:namedview
     id="base"
     pagecolor="#ffffff"
     bordercolor="#666666"
     borderopacity="1.0"
     inkscape:pageopacity="0.0"
     inkscape:pageshadow="2"
     inkscape:zoom="0.7"
     inkscape:cx="458.83306"
     inkscape:cy="412.95973"
     inkscape:document-units="mm"
     inkscape:current-layer="layer1"
     inkscape:document-rotation="0"
     showgrid="true"
     inkscape:window-width="1366"
     inkscape:window-height="715"
     inkscape:window-x="-8"
     inkscape:window-y="-8"
     inkscape:window-maximized="1">
    <inkscape:grid
       type="xygrid"
       id="grid10" />
  </sodipodi:namedview>
  <metadata
     id="metadata5">
    <rdf:RDF>
      <cc:Work
         rdf:about="">
        <dc:format>image/svg+xml</dc:format>
        <dc:type
           rdf:resource="http://purl.org/dc/dcmitype/StillImage" />
        <dc:title></dc:title>
      </cc:Work>
    </rdf:RDF>
  </metadata>
  <g
     inkscape:label="Livello 1"
     inkscape:groupmode="layer"
     id="layer1">
    <path
       style="fill:none;stroke:#000000;stroke-width:0.265;stroke-linecap:butt;stroke-linejoin:miter;stroke-miterlimit:4;stroke-dasharray:none;stroke-opacity:1;marker-start:url(#Arrow1Mstart)"
       d="M 5,6 V 26"
       id="path12" />
    <path
       id="path14"
       d="M 25,26 H 5"
       style="fill:none;stroke:#000000;stroke-width:0.264583px;stroke-linecap:butt;stroke-linejoin:miter;stroke-opacity:1;marker-start:url(#marker1117)" />
    <path
       style="fill:none;stroke:#000000;stroke-width:1;stroke-linecap:butt;stroke-linejoin:miter;stroke-miterlimit:4;stroke-dasharray:none;stroke-opacity:1"
       d="m 20,75 85,10e-7"
       id="path1143"
       sodipodi:nodetypes="cc" />
    <path
       style="fill:none;stroke:#000000;stroke-width:0.264583px;stroke-linecap:butt;stroke-linejoin:miter;stroke-opacity:1"
       d="M 100,69 V 79.000001"
       id="path1145" />
    <path
       style="fill:none;stroke:#000000;stroke-width:0.264583px;stroke-linecap:butt;stroke-linejoin:miter;stroke-opacity:1"
       d="M 105,69.999999 V 80"
       id="path1147" />
    <path
       style="fill:none;stroke:#000000;stroke-width:0.264583px;stroke-linecap:butt;stroke-linejoin:miter;stroke-opacity:1"
       d="M 110,68.999999 V 79"
       id="path1149" />
    <path
       sodipodi:nodetypes="cc"
       id="path1151"
       d="M 105,74.999999 190,75"
       style="fill:none;stroke:#000000;stroke-width:1;stroke-linecap:butt;stroke-linejoin:miter;stroke-miterlimit:4;stroke-dasharray:none;stroke-opacity:1" />
    <path
       style="fill:none;fill-opacity:0.691489;fill-rule:evenodd;stroke:#000000;stroke-width:1;stroke-linecap:round;stroke-linejoin:bevel;stroke-miterlimit:4;stroke-dasharray:none"
       id="path1155"
       d="m 19.014752,73.558372 c 0.142095,0.0227 0.279398,0.05479 0.412737,0.108712 0.100156,0.04076 0.187957,0.09627 0.261567,0.175427 0.06469,0.06645 0.11847,0.143875 0.151491,0.230706 0.04368,0.09165 0.05902,0.190267 0.06875,0.290218 0.0084,0.108514 0.0081,0.21744 0.0084,0.326203 -4e-6,0.117535 -4.24e-4,0.235071 -6.62e-4,0.352607 0.0067,0.09875 -0.0057,0.194625 -0.02196,0.2916 -0.04087,0.122904 -0.106291,0.234355 -0.151617,0.355539 -0.04357,0.119005 -0.05518,0.244385 -0.06136,0.369864 -0.0018,0.11062 -0.01359,0.221993 0.01732,0.32939 0.04258,0.111964 0.135748,0.178787 0.232975,0.240827 0.114302,0.05582 0.220946,0.125095 0.327125,0.194643 0.05836,0.03285 0.03061,0.01603 0.08346,0.0501 0,0 0.07848,-0.05041 0.07848,-0.05041 v 0 c -0.05314,-0.03443 -0.02531,-0.0177 -0.08366,-0.04991 -0.106437,-0.06919 -0.212696,-0.139382 -0.327314,-0.194664 -0.09558,-0.06028 -0.187651,-0.125355 -0.22925,-0.235165 -0.03004,-0.106516 -0.01763,-0.217032 -0.01612,-0.326575 0.0063,-0.124634 0.01858,-0.249097 0.06231,-0.367125 0.04611,-0.121372 0.112827,-0.233159 0.151416,-0.357442 C 19.99516,75.195547 20.00632,75.09907 20,75 c 1.17e-4,-0.117504 3.17e-4,-0.235011 4.23e-4,-0.352518 -3.8e-5,-0.109064 2.31e-4,-0.218297 -0.0086,-0.327091 -0.01007,-0.10074 -0.02583,-0.200107 -0.06968,-0.292547 -0.03377,-0.08775 -0.0879,-0.166455 -0.153432,-0.233696 -0.07428,-0.08047 -0.162563,-0.137279 -0.26403,-0.178697 -0.133813,-0.05418 -0.271097,-0.08691 -0.413524,-0.110913 0,0 -0.07636,0.05384 -0.07636,0.05384 z" />
    <path
       style="fill:none;fill-opacity:0.691489;fill-rule:evenodd;stroke:#000000;stroke-width:1;stroke-linecap:round;stroke-linejoin:bevel;stroke-miterlimit:4;stroke-dasharray:none"
       id="path1157"
       d="m 189.91872,72.999944 c -0.17324,0.02432 -0.32401,0.107328 -0.47119,0.196406 -0.13562,0.09293 -0.25096,0.205292 -0.33909,0.343656 C 189.03154,73.682614 188.99676,73.839078 189,74 c 0.015,0.116298 0.0661,0.223115 0.1388,0.313981 0.0774,0.09311 0.17333,0.170294 0.2674,0.246222 0.0801,0.05956 0.11671,0.138789 0.13425,0.23409 0.0117,0.09178 0.01,0.184578 0.009,0.276902 -0.003,0.09445 0.005,0.189505 -0.007,0.283353 -0.0176,0.09703 -0.0463,0.193273 -0.0768,0.28725 -0.0454,0.09779 -0.11486,0.181012 -0.17792,0.267671 -0.0725,0.08279 -0.13145,0.177416 -0.21161,0.253302 -0.0408,0.04181 -0.0739,0.08782 -0.10447,0.137292 0,0 0.085,-0.03745 0.085,-0.03745 v 0 c 0.0312,-0.04856 0.0645,-0.09433 0.10553,-0.135342 0.0784,-0.07786 0.13925,-0.170775 0.21077,-0.254683 0.0634,-0.08719 0.13389,-0.170841 0.17703,-0.27052 0.0299,-0.09471 0.0596,-0.190974 0.076,-0.288833 0.011,-0.09429 0.004,-0.189547 0.007,-0.284337 2.6e-4,-0.09287 0.002,-0.186245 -0.0102,-0.278505 -0.0185,-0.09714 -0.0563,-0.178713 -0.13789,-0.239607 -0.0938,-0.07511 -0.18912,-0.152183 -0.26625,-0.244562 -0.0718,-0.08893 -0.12189,-0.194218 -0.13609,-0.308497 -0.003,-0.159411 0.0326,-0.314367 0.11031,-0.454829 0.0891,-0.136983 0.20542,-0.248497 0.34106,-0.34022 -0.008,0.0032 -0.0311,0.01373 -0.0236,0.0097 0.10329,-0.05643 0.21789,-0.094 0.33279,-0.117462 0,0 0.0756,-0.05493 0.0756,-0.05493 z" />
    <text
       xml:space="preserve"
       style="font-size:8.46667px;line-height:1.25;font-family:'Arial Rounded MT Bold';-inkscape-font-specification:'Arial Rounded MT Bold, ';stroke-width:0.264583"
       x="95.940353"
       y="83.272781"
       id="text1163"><tspan
         sodipodi:role="line"
         id="tspan1161"
         x="95.940353"
         y="83.272781"
         style="stroke-width:0.264583">1</tspan></text>
    <text
       xml:space="preserve"
       style="font-size:8.46667px;line-height:1.25;font-family:'Arial Rounded MT Bold';-inkscape-font-specification:'Arial Rounded MT Bold, ';stroke-width:0.264583"
       x="109.99322"
       y="83.316444"
       id="text1167"><tspan
         sodipodi:role="line"
         id="tspan1165"
         x="109.99322"
         y="83.316444"
         style="stroke-width:0.264583">2</tspan></text>
    <g
       id="g1296"
       ns1:jacobian_sqrt="0.705556"
       ns1:inkscapeversion="1.0"
       ns1:alignment="middle center"
       ns1:scale="2.0"
       ns1:preamble="C:\\Users\\claum\\AppData\\Roaming\\inkscape\\extensions\\textext\\default_packages.tex"
       ns1:text="$H$"
       ns1:pdfconverter="inkscape"
       ns1:texconverter="pdflatex"
       ns1:version="1.0.1"
       transform="matrix(0.705556,0,0,0.705556,102.91024,63.806515)">
      <defs
         id="id-59c67a03-9251-4d3f-b324-bde6d1213821">
        <g
           id="id-660b6c3a-0736-4293-b297-e8e3d4138773">
          <symbol
             overflow="visible"
             id="id-7bd72701-3237-44af-bab5-0d9ac3a612e8">
            <path
               style="stroke:none"
               d=""
               id="id-37e2fd1f-16e7-42c4-8b79-f9b68f9886be" />
          </symbol>
          <symbol
             overflow="visible"
             id="id-8510d78c-501a-4e95-808d-d27f1be65744">
            <path
               style="stroke:none"
               d="M 7.609375,-6.046875 C 7.703125,-6.40625 7.71875,-6.5 8.4375,-6.5 c 0.265625,0 0.34375,0 0.34375,-0.203125 0,-0.109375 -0.109375,-0.109375 -0.140625,-0.109375 -0.28125,0 -1,0.03125 -1.28125,0.03125 -0.28125,0 -0.984375,-0.03125 -1.28125,-0.03125 -0.078125,0 -0.1875,0 -0.1875,0.203125 0,0.109375 0.09375,0.109375 0.28125,0.109375 0.015625,0 0.203125,0 0.375,0.015625 0.1875,0.03125 0.265625,0.03125 0.265625,0.171875 0,0.03125 0,0.046875 -0.03125,0.1875 L 6.1875,-3.703125 H 3.140625 l 0.59375,-2.34375 C 3.8125,-6.40625 3.84375,-6.5 4.5625,-6.5 c 0.265625,0 0.34375,0 0.34375,-0.203125 0,-0.109375 -0.109375,-0.109375 -0.140625,-0.109375 -0.28125,0 -1,0.03125 -1.28125,0.03125 -0.28125,0 -0.984375,-0.03125 -1.28125,-0.03125 -0.078125,0 -0.1875,0 -0.1875,0.203125 0,0.109375 0.09375,0.109375 0.28125,0.109375 0.015625,0 0.203125,0 0.375,0.015625 0.171875,0.03125 0.265625,0.03125 0.265625,0.171875 0,0.03125 0,0.0625 -0.03125,0.1875 L 1.5625,-0.78125 c -0.09375,0.390625 -0.109375,0.46875 -0.90625,0.46875 -0.171875,0 -0.265625,0 -0.265625,0.203125 C 0.390625,0 0.515625,0 0.53125,0 0.8125,0 1.515625,-0.03125 1.796875,-0.03125 2,-0.03125 2.21875,-0.015625 2.4375,-0.015625 2.65625,-0.015625 2.875,0 3.078125,0 3.15625,0 3.28125,0 3.28125,-0.203125 3.28125,-0.3125 3.1875,-0.3125 3,-0.3125 c -0.375,0 -0.640625,0 -0.640625,-0.171875 0,-0.0625 0.015625,-0.109375 0.015625,-0.171875 l 0.6875,-2.734375 h 3.03125 c -0.40625,1.65625 -0.640625,2.609375 -0.6875,2.75 C 5.3125,-0.3125 5.125,-0.3125 4.5,-0.3125 c -0.140625,0 -0.234375,0 -0.234375,0.203125 C 4.265625,0 4.390625,0 4.40625,0 4.6875,0 5.390625,-0.03125 5.671875,-0.03125 5.875,-0.03125 6.09375,-0.015625 6.3125,-0.015625 6.53125,-0.015625 6.75,0 6.953125,0 7.03125,0 7.15625,0 7.15625,-0.203125 7.15625,-0.3125 7.0625,-0.3125 6.875,-0.3125 c -0.359375,0 -0.640625,0 -0.640625,-0.171875 0,-0.0625 0.015625,-0.109375 0.03125,-0.171875 z m 0,0"
               id="id-73ee9b85-f030-4889-bb76-32e42c4198b0" />
          </symbol>
        </g>
      </defs>
      <g
         id="id-01496d17-cc2a-429e-8b51-355f167ccfcb"
         transform="translate(-149.103,-127.953)">
        <g
           style="fill:#000000;fill-opacity:1"
           id="id-da49fd3b-46e2-43d7-be0a-79bd9bffe9a4">
          <g
             id="g1292"
             transform="translate(148.712,134.765)">
            <path
               style="stroke:none"
               d="M 7.609375,-6.046875 C 7.703125,-6.40625 7.71875,-6.5 8.4375,-6.5 c 0.265625,0 0.34375,0 0.34375,-0.203125 0,-0.109375 -0.109375,-0.109375 -0.140625,-0.109375 -0.28125,0 -1,0.03125 -1.28125,0.03125 -0.28125,0 -0.984375,-0.03125 -1.28125,-0.03125 -0.078125,0 -0.1875,0 -0.1875,0.203125 0,0.109375 0.09375,0.109375 0.28125,0.109375 0.015625,0 0.203125,0 0.375,0.015625 0.1875,0.03125 0.265625,0.03125 0.265625,0.171875 0,0.03125 0,0.046875 -0.03125,0.1875 L 6.1875,-3.703125 H 3.140625 l 0.59375,-2.34375 C 3.8125,-6.40625 3.84375,-6.5 4.5625,-6.5 c 0.265625,0 0.34375,0 0.34375,-0.203125 0,-0.109375 -0.109375,-0.109375 -0.140625,-0.109375 -0.28125,0 -1,0.03125 -1.28125,0.03125 -0.28125,0 -0.984375,-0.03125 -1.28125,-0.03125 -0.078125,0 -0.1875,0 -0.1875,0.203125 0,0.109375 0.09375,0.109375 0.28125,0.109375 0.015625,0 0.203125,0 0.375,0.015625 0.171875,0.03125 0.265625,0.03125 0.265625,0.171875 0,0.03125 0,0.0625 -0.03125,0.1875 L 1.5625,-0.78125 c -0.09375,0.390625 -0.109375,0.46875 -0.90625,0.46875 -0.171875,0 -0.265625,0 -0.265625,0.203125 C 0.390625,0 0.515625,0 0.53125,0 0.8125,0 1.515625,-0.03125 1.796875,-0.03125 2,-0.03125 2.21875,-0.015625 2.4375,-0.015625 2.65625,-0.015625 2.875,0 3.078125,0 3.15625,0 3.28125,0 3.28125,-0.203125 3.28125,-0.3125 3.1875,-0.3125 3,-0.3125 c -0.375,0 -0.640625,0 -0.640625,-0.171875 0,-0.0625 0.015625,-0.109375 0.015625,-0.171875 l 0.6875,-2.734375 h 3.03125 c -0.40625,1.65625 -0.640625,2.609375 -0.6875,2.75 C 5.3125,-0.3125 5.125,-0.3125 4.5,-0.3125 c -0.140625,0 -0.234375,0 -0.234375,0.203125 C 4.265625,0 4.390625,0 4.40625,0 4.6875,0 5.390625,-0.03125 5.671875,-0.03125 5.875,-0.03125 6.09375,-0.015625 6.3125,-0.015625 6.53125,-0.015625 6.75,0 6.953125,0 7.03125,0 7.15625,0 7.15625,-0.203125 7.15625,-0.3125 7.0625,-0.3125 6.875,-0.3125 c -0.359375,0 -0.640625,0 -0.640625,-0.171875 0,-0.0625 0.015625,-0.109375 0.03125,-0.171875 z m 0,0"
               id="id-9a3281a9-2278-475a-8a76-a8e630bab88b" />
          </g>
        </g>
      </g>
    </g>
    <g
       id="g1435"
       ns1:jacobian_sqrt="0.705556"
       ns1:inkscapeversion="1.0"
       ns1:alignment="middle center"
       ns1:scale="2.0"
       ns1:preamble="C:\\Users\\claum\\AppData\\Roaming\\inkscape\\extensions\\textext\\default_packages.tex"
       ns1:text="$x$"
       ns1:pdfconverter="inkscape"
       ns1:texconverter="pdflatex"
       ns1:version="1.0.1"
       transform="matrix(0.705556,0,0,0.705556,25.861372,24.019013)">
      <defs
         id="id-c2e10b81-95c9-48b5-a13a-d2ee76bbe207">
        <g
           id="id-50d398da-485e-44e0-bd8a-aad11f73c874">
          <symbol
             overflow="visible"
             id="id-96fb7540-6e48-4ed6-9d12-1408b60d809f">
            <path
               style="stroke:none"
               d=""
               id="id-9e44d6a6-37a8-481f-a891-9b1885c60f7a" />
          </symbol>
          <symbol
             overflow="visible"
             id="id-03cca190-a75b-4c94-8104-b6d0b53b06d3">
            <path
               style="stroke:none"
               d="M 3.328125,-3.015625 C 3.390625,-3.265625 3.625,-4.1875 4.3125,-4.1875 c 0.046875,0 0.296875,0 0.5,0.125 C 4.53125,-4 4.34375,-3.765625 4.34375,-3.515625 c 0,0.15625 0.109375,0.34375 0.375,0.34375 0.21875,0 0.53125,-0.171875 0.53125,-0.578125 0,-0.515625 -0.578125,-0.65625 -0.921875,-0.65625 -0.578125,0 -0.921875,0.53125 -1.046875,0.75 -0.25,-0.65625 -0.78125,-0.75 -1.078125,-0.75 -1.03125,0 -1.609375,1.28125 -1.609375,1.53125 0,0.109375 0.109375,0.109375 0.125,0.109375 0.078125,0 0.109375,-0.03125 0.125,-0.109375 0.34375,-1.0625 1,-1.3125 1.34375,-1.3125 0.1875,0 0.53125,0.09375 0.53125,0.671875 0,0.3125 -0.171875,0.96875 -0.53125,2.375 -0.15625,0.609375 -0.515625,1.03125 -0.953125,1.03125 -0.0625,0 -0.28125,0 -0.5,-0.125 0.25,-0.0625 0.46875,-0.265625 0.46875,-0.546875 0,-0.265625 -0.21875,-0.34375 -0.359375,-0.34375 -0.3125,0 -0.546875,0.25 -0.546875,0.578125 0,0.453125 0.484375,0.65625 0.921875,0.65625 0.671875,0 1.03125,-0.703125 1.046875,-0.75 0.125,0.359375 0.484375,0.75 1.078125,0.75 1.03125,0 1.59375,-1.28125 1.59375,-1.53125 0,-0.109375 -0.078125,-0.109375 -0.109375,-0.109375 -0.09375,0 -0.109375,0.046875 -0.140625,0.109375 -0.328125,1.078125 -1,1.3125 -1.3125,1.3125 -0.390625,0 -0.546875,-0.3125 -0.546875,-0.65625 0,-0.21875 0.046875,-0.4375 0.15625,-0.875 z m 0,0"
               id="id-4cbd6e57-dceb-498d-9dd8-cbfd5789fa58" />
          </symbol>
        </g>
      </defs>
      <g
         id="id-e0b89d5b-cabd-4c6f-ab97-9e31c638615e"
         transform="translate(-149.009,-130.359)">
        <g
           style="fill:#000000;fill-opacity:1"
           id="id-86112b34-c434-4cdb-bdb5-59ec3609ae03">
          <g
             id="g1431"
             transform="translate(148.712,134.765)">
            <path
               style="stroke:none"
               d="M 3.328125,-3.015625 C 3.390625,-3.265625 3.625,-4.1875 4.3125,-4.1875 c 0.046875,0 0.296875,0 0.5,0.125 C 4.53125,-4 4.34375,-3.765625 4.34375,-3.515625 c 0,0.15625 0.109375,0.34375 0.375,0.34375 0.21875,0 0.53125,-0.171875 0.53125,-0.578125 0,-0.515625 -0.578125,-0.65625 -0.921875,-0.65625 -0.578125,0 -0.921875,0.53125 -1.046875,0.75 -0.25,-0.65625 -0.78125,-0.75 -1.078125,-0.75 -1.03125,0 -1.609375,1.28125 -1.609375,1.53125 0,0.109375 0.109375,0.109375 0.125,0.109375 0.078125,0 0.109375,-0.03125 0.125,-0.109375 0.34375,-1.0625 1,-1.3125 1.34375,-1.3125 0.1875,0 0.53125,0.09375 0.53125,0.671875 0,0.3125 -0.171875,0.96875 -0.53125,2.375 -0.15625,0.609375 -0.515625,1.03125 -0.953125,1.03125 -0.0625,0 -0.28125,0 -0.5,-0.125 0.25,-0.0625 0.46875,-0.265625 0.46875,-0.546875 0,-0.265625 -0.21875,-0.34375 -0.359375,-0.34375 -0.3125,0 -0.546875,0.25 -0.546875,0.578125 0,0.453125 0.484375,0.65625 0.921875,0.65625 0.671875,0 1.03125,-0.703125 1.046875,-0.75 0.125,0.359375 0.484375,0.75 1.078125,0.75 1.03125,0 1.59375,-1.28125 1.59375,-1.53125 0,-0.109375 -0.078125,-0.109375 -0.109375,-0.109375 -0.09375,0 -0.109375,0.046875 -0.140625,0.109375 -0.328125,1.078125 -1,1.3125 -1.3125,1.3125 -0.390625,0 -0.546875,-0.3125 -0.546875,-0.65625 0,-0.21875 0.046875,-0.4375 0.15625,-0.875 z m 0,0"
               id="id-99d14c3d-ecc6-45e5-ba18-4974fcf01d65" />
          </g>
        </g>
      </g>
    </g>
    <g
       id="g1521"
       ns1:jacobian_sqrt="0.705556"
       ns1:inkscapeversion="1.0"
       ns1:alignment="middle center"
       ns1:scale="2.0"
       ns1:preamble="C:\\Users\\claum\\AppData\\Roaming\\inkscape\\extensions\\textext\\default_packages.tex"
       ns1:text="$y$"
       ns1:pdfconverter="inkscape"
       ns1:texconverter="pdflatex"
       ns1:version="1.0.1"
       transform="matrix(0.705556,0,0,0.705556,3.8834202,0.13385514)">
      <defs
         id="id-b0e916ca-c46b-4dd1-80e0-fa89e07d2ea6">
        <g
           id="id-276ae4ad-bcfb-47c2-b415-5b2ead2186f9">
          <symbol
             overflow="visible"
             id="id-9d329d9f-264d-46e9-a4ea-070c8058ec39">
            <path
               style="stroke:none"
               d=""
               id="id-1632d1b4-5342-411f-8892-465285600d4b" />
          </symbol>
          <symbol
             overflow="visible"
             id="id-a3ff0c83-1fd4-4b45-9c35-f128d02c24b2">
            <path
               style="stroke:none"
               d="m 4.84375,-3.796875 c 0.046875,-0.140625 0.046875,-0.15625 0.046875,-0.234375 0,-0.171875 -0.140625,-0.265625 -0.296875,-0.265625 -0.09375,0 -0.25,0.0625 -0.34375,0.203125 -0.015625,0.0625 -0.109375,0.359375 -0.140625,0.546875 -0.078125,0.25 -0.140625,0.53125 -0.203125,0.796875 l -0.453125,1.796875 c -0.03125,0.140625 -0.46875,0.84375 -1.125,0.84375 -0.5,0 -0.609375,-0.4375 -0.609375,-0.8125 C 1.71875,-1.375 1.890625,-2 2.21875,-2.875 2.375,-3.28125 2.421875,-3.390625 2.421875,-3.59375 c 0,-0.4375 -0.3125,-0.8125 -0.8125,-0.8125 -0.953125,0 -1.3125,1.453125 -1.3125,1.53125 0,0.109375 0.09375,0.109375 0.109375,0.109375 0.109375,0 0.109375,-0.03125 0.15625,-0.1875 0.28125,-0.9375 0.671875,-1.234375 1.015625,-1.234375 0.078125,0 0.25,0 0.25,0.3125 0,0.25 -0.109375,0.515625 -0.171875,0.703125 -0.40625,1.0625 -0.578125,1.625 -0.578125,2.09375 0,0.890625 0.625,1.1875 1.21875,1.1875 0.390625,0 0.71875,-0.171875 1,-0.453125 -0.125,0.515625 -0.25,1.015625 -0.640625,1.546875 -0.265625,0.328125 -0.640625,0.625 -1.09375,0.625 -0.140625,0 -0.59375,-0.03125 -0.765625,-0.421875 0.15625,0 0.296875,0 0.421875,-0.125 C 1.328125,1.203125 1.421875,1.0625 1.421875,0.875 1.421875,0.5625 1.15625,0.53125 1.0625,0.53125 0.828125,0.53125 0.5,0.6875 0.5,1.171875 c 0,0.5 0.4375,0.875 1.0625,0.875 1.015625,0 2.046875,-0.90625 2.328125,-2.03125 z m 0,0"
               id="id-70b43596-e5d5-4153-a1c9-8ceec978e1b0" />
          </symbol>
        </g>
      </defs>
      <g
         id="id-13236548-8970-43ab-a78b-810eaa0fd48b"
         transform="translate(-149.009,-130.359)">
        <g
           style="fill:#000000;fill-opacity:1"
           id="id-a5a31751-5682-40ac-8b15-145642a65a44">
          <g
             id="g1517"
             transform="translate(148.712,134.765)">
            <path
               style="stroke:none"
               d="m 4.84375,-3.796875 c 0.046875,-0.140625 0.046875,-0.15625 0.046875,-0.234375 0,-0.171875 -0.140625,-0.265625 -0.296875,-0.265625 -0.09375,0 -0.25,0.0625 -0.34375,0.203125 -0.015625,0.0625 -0.109375,0.359375 -0.140625,0.546875 -0.078125,0.25 -0.140625,0.53125 -0.203125,0.796875 l -0.453125,1.796875 c -0.03125,0.140625 -0.46875,0.84375 -1.125,0.84375 -0.5,0 -0.609375,-0.4375 -0.609375,-0.8125 C 1.71875,-1.375 1.890625,-2 2.21875,-2.875 2.375,-3.28125 2.421875,-3.390625 2.421875,-3.59375 c 0,-0.4375 -0.3125,-0.8125 -0.8125,-0.8125 -0.953125,0 -1.3125,1.453125 -1.3125,1.53125 0,0.109375 0.09375,0.109375 0.109375,0.109375 0.109375,0 0.109375,-0.03125 0.15625,-0.1875 0.28125,-0.9375 0.671875,-1.234375 1.015625,-1.234375 0.078125,0 0.25,0 0.25,0.3125 0,0.25 -0.109375,0.515625 -0.171875,0.703125 -0.40625,1.0625 -0.578125,1.625 -0.578125,2.09375 0,0.890625 0.625,1.1875 1.21875,1.1875 0.390625,0 0.71875,-0.171875 1,-0.453125 -0.125,0.515625 -0.25,1.015625 -0.640625,1.546875 -0.265625,0.328125 -0.640625,0.625 -1.09375,0.625 -0.140625,0 -0.59375,-0.03125 -0.765625,-0.421875 0.15625,0 0.296875,0 0.421875,-0.125 C 1.328125,1.203125 1.421875,1.0625 1.421875,0.875 1.421875,0.5625 1.15625,0.53125 1.0625,0.53125 0.828125,0.53125 0.5,0.6875 0.5,1.171875 c 0,0.5 0.4375,0.875 1.0625,0.875 1.015625,0 2.046875,-0.90625 2.328125,-2.03125 z m 0,0"
               id="id-6aefcddf-8703-4fcb-ab4b-811580fa3f0b" />
          </g>
        </g>
      </g>
    </g>
    <path
       sodipodi:nodetypes="cc"
       style="fill:none;stroke:#000000;stroke-width:0.264583;stroke-linecap:butt;stroke-linejoin:miter;stroke-miterlimit:4;stroke-dasharray:1.5875, 1.5875;stroke-dashoffset:0;stroke-opacity:1"
       d="M 105,75 V 175"
       id="path1555" />
    <path
       sodipodi:nodetypes="cc"
       id="path1557"
       d="m 20,135 h 85"
       style="fill:none;stroke:#000000;stroke-width:0.5;stroke-linecap:butt;stroke-linejoin:miter;stroke-miterlimit:4;stroke-dasharray:1, 0.5;stroke-dashoffset:0;stroke-opacity:1" />
    <path
       style="fill:none;stroke:#000000;stroke-width:0.5;stroke-linecap:butt;stroke-linejoin:miter;stroke-miterlimit:4;stroke-dasharray:1, 0.5;stroke-dashoffset:0;stroke-opacity:1"
       d="m 105,135 h 85"
       id="path1559"
       sodipodi:nodetypes="cc" />
    <path
       sodipodi:nodetypes="cc"
       style="fill:none;stroke:#000000;stroke-width:1;stroke-linecap:butt;stroke-linejoin:miter;stroke-miterlimit:4;stroke-dasharray:none;stroke-opacity:1"
       d="m 20,170 85,-45"
       id="path1561" />
    <path
       sodipodi:nodetypes="cc"
       id="path1563"
       d="m 105,125 85,-15"
       style="fill:none;stroke:#000000;stroke-width:1;stroke-linecap:butt;stroke-linejoin:miter;stroke-miterlimit:4;stroke-dasharray:none;stroke-opacity:1" />
    <path
       style="fill:none;fill-opacity:0.691489;fill-rule:evenodd;stroke:#000000;stroke-width:1.27774;stroke-linecap:round;stroke-linejoin:bevel;stroke-miterlimit:4;stroke-dasharray:none;stroke-dashoffset:0"
       id="path1567"
       d="m 18.986946,174.32426 c -0.362619,-0.48901 -0.583032,-1.13607 -0.720828,-1.85794 -0.07646,-0.75736 0.09979,-1.09658 0.465544,-1.48134 -0.05068,0.0542 -0.204674,0.21167 -0.152041,0.16261 0.434062,-0.4042 0.852921,-0.82708 1.247164,-1.32735 0.341487,-0.45067 0.493566,-1.05491 0.56977,-1.73955 0.05737,-0.70132 0.0556,-1.40104 -0.06939,-2.08102 -0.161793,-0.63719 -0.48992,-1.07189 -0.822519,-1.46779 -0.420025,-0.52629 -0.829432,-1.06723 -1.18504,-1.70994 -0.296194,-0.63228 -0.503981,-1.35847 -0.631259,-2.12412 -0.07426,-0.69247 -0.141619,-1.40851 -0.01861,-2.09284 0.239642,-0.68285 0.597151,-1.2311 0.913166,-1.81953 0.311898,-0.51634 0.642035,-1.00938 0.986575,-1.46768 0.429047,-0.38098 0.788394,-0.87347 1.111457,-1.46753 0.355516,-0.68557 0.55521,-1.49042 0.653613,-2.36351 0.05102,-0.74177 -0.145264,-1.32852 -0.363701,-1.94525 -0.182385,-0.57662 -0.505811,-0.94458 -0.796667,-1.36011 -0.2774,-0.29446 -0.442511,-0.72112 -0.595874,-1.18405 -0.176105,-0.54461 -0.230966,-1.14844 -0.263708,-1.75334 -0.02448,-0.61697 -0.02171,-1.23566 -0.02116,-1.85357 0.01512,-0.60336 -0.02736,-1.21399 0.02678,-1.81254 0.05589,-0.56822 0.207891,-1.10959 0.393972,-1.59507 0.157782,-0.48053 0.398199,-0.84955 0.639609,-1.21599 0.408197,-0.55291 0.697086,-1.09174 0.880162,-1.90809 0.163288,-0.77561 0.03458,-1.44493 -0.270651,-2.05525 -0.371205,-0.54667 -0.809365,-0.95884 -1.230131,-1.39673 -0.267577,-0.28425 -0.133486,-0.14889 -0.401996,-0.40674 0,0 -0.31199,0.33036 -0.31199,0.33036 v 0 c 0.268149,0.25469 0.134145,0.12015 0.401661,0.40449 0.418557,0.43229 0.851399,0.84503 1.223032,1.38114 0.300136,0.59579 0.418184,1.24301 0.253151,1.99865 -0.18196,0.77842 -0.494321,1.35605 -0.887834,1.88281 -0.242829,0.36878 -0.478099,0.74882 -0.63648,1.23189 -0.182093,0.49793 -0.33568,1.04002 -0.387595,1.61794 -0.04709,0.60232 -0.01116,1.21349 -0.02401,1.81949 -4.23e-4,0.61957 -0.003,1.23997 0.02271,1.85849 0.03443,0.61275 0.09238,1.22364 0.270691,1.77524 0.154628,0.46892 0.321047,0.90601 0.602313,1.20303 0.287368,0.41236 0.611753,0.76932 0.791738,1.34178 0.214278,0.60493 0.406651,1.17944 0.351323,1.90717 -0.100942,0.86388 -0.303769,1.6576 -0.659511,2.33157 -0.327252,0.58849 -0.693664,1.06595 -1.116621,1.46122 -0.341413,0.46517 -0.675556,0.95026 -0.982641,1.47544 -0.319576,0.58903 -0.681672,1.14404 -0.908104,1.8458 -0.112964,0.69746 -0.0501,1.42015 0.02819,2.12168 0.130952,0.77361 0.341935,1.50741 0.641866,2.14675 0.356239,0.64702 0.765939,1.19282 1.187291,1.72265 0.327091,0.38475 0.65092,0.81025 0.809637,1.43406 0.122253,0.67168 0.121208,1.3641 0.06119,2.05538 -0.07978,0.67503 -0.238802,1.2615 -0.579487,1.69816 -0.600878,0.75248 -0.615844,0.70285 -1.097589,1.16141 -0.368992,0.40575 -0.526419,0.79427 -0.444349,1.55193 0.141901,0.73152 0.366671,1.38736 0.730367,1.89058 0,0 0.316817,-0.32491 0.316817,-0.32491 z" />
    <path
       style="fill:none;fill-opacity:0.691489;fill-rule:evenodd;stroke:#000000;stroke-width:1.27545;stroke-linecap:round;stroke-linejoin:bevel;stroke-miterlimit:4;stroke-dasharray:none;stroke-dashoffset:0"
       id="path1569"
       d="m 189.89466,106.29145 c -0.44938,0.42783 -0.88856,0.87724 -1.11193,1.66695 -0.11296,0.68959 0.15158,1.19138 0.42603,1.66142 0.25497,0.37335 0.55472,0.64271 0.83567,0.95601 0.28952,0.32084 0.52078,0.65205 0.65132,1.18794 0.0926,0.55839 0.1209,1.14891 0.0803,1.72277 -0.0475,0.62988 -0.26241,1.17537 -0.4566,1.71097 -0.22882,0.52699 -0.55925,0.89841 -0.84695,1.33307 -0.23367,0.35548 -0.48188,0.67091 -0.75096,0.95241 -0.2623,0.40363 -0.3201,0.97371 -0.36131,1.53049 -0.0485,0.66384 -0.0262,1.31936 0.0832,1.96325 0.10014,0.72756 0.36791,1.29087 0.64013,1.86594 0.27422,0.57846 0.5392,1.18006 0.75063,1.82588 0.20908,0.55906 0.39393,1.1192 0.49718,1.75398 0.0804,0.68499 0.0842,1.38515 0.0888,2.08007 0.023,0.58377 -0.0304,1.15488 -0.14157,1.70882 -0.12001,0.63384 -0.32233,1.21273 -0.49589,1.80951 -0.20422,0.70178 -0.25946,1.4689 -0.29512,2.23334 -0.0526,0.69297 0.0897,1.34234 0.20491,1.99612 0.1484,0.68162 0.48648,0.95222 0.85979,1.23653 0.16941,0.12754 0.31025,0.31234 0.44771,0.51308 0,0 0.31705,-0.31963 0.31705,-0.31963 v 0 c -0.13911,-0.20609 -0.28144,-0.39651 -0.45339,-0.52853 -0.36378,-0.27823 -0.7009,-0.51922 -0.84398,-1.19164 -0.11454,-0.64744 -0.2529,-1.29028 -0.1994,-1.97648 0.0365,-0.75889 0.0949,-1.51854 0.3007,-2.21307 0.17586,-0.59784 0.37656,-1.18094 0.49544,-1.81824 0.10688,-0.56151 0.15964,-1.13631 0.13544,-1.72553 -0.005,-0.69962 -0.0103,-1.40452 -0.0928,-2.09375 -0.10564,-0.63807 -0.29115,-1.20314 -0.50153,-1.76597 -0.21333,-0.64788 -0.47962,-1.25201 -0.75419,-1.83415 -0.26978,-0.56916 -0.53491,-1.12421 -0.63269,-1.84575 -0.10698,-0.63735 -0.1249,-1.28662 -0.0759,-1.9426 0.0432,-0.54669 0.10381,-1.10628 0.37539,-1.48298 0.26607,-0.28828 0.51496,-0.60319 0.74739,-0.96083 0.29112,-0.4316 0.62057,-0.8117 0.8428,-1.34959 0.19626,-0.54148 0.40598,-1.09704 0.44988,-1.73434 0.0361,-0.58401 0.01,-1.18299 -0.0881,-1.74945 -0.13486,-0.54631 -0.36673,-0.89005 -0.66264,-1.21851 -0.27789,-0.31377 -0.5772,-0.57744 -0.8321,-0.94502 -0.26616,-0.45054 -0.52585,-0.93191 -0.40608,-1.59573 0.23358,-0.76125 0.68044,-1.21748 1.12145,-1.63824 0,0 -0.34796,0.22148 -0.34796,0.22148 z" />
    <path
       id="path1062"
       d="M 200,135 H 190"
       style="fill:none;stroke:#000000;stroke-width:0.0858421;stroke-linecap:butt;stroke-linejoin:miter;stroke-miterlimit:4;stroke-dasharray:0.515053, 0.515053;stroke-dashoffset:0;stroke-opacity:1"
       sodipodi:nodetypes="cc" />
    <path
       sodipodi:nodetypes="cc"
       style="fill:none;stroke:#000000;stroke-width:0.0858421;stroke-linecap:butt;stroke-linejoin:miter;stroke-miterlimit:4;stroke-dasharray:0.515053, 0.515053;stroke-dashoffset:0;stroke-opacity:1"
       d="M 20,135 H 10"
       id="path1064" />
    <circle
       r="7"
       cy="107.31695"
       cx="131.84428"
       id="path3735"
       style="fill:none;fill-opacity:0.691489;fill-rule:evenodd;stroke:#000000;stroke-width:1;stroke-linecap:round;stroke-linejoin:bevel;stroke-miterlimit:4;stroke-dasharray:none;stroke-dashoffset:0" />
    <path
       id="path5411"
       d="M 150,125 H 105"
       style="fill:none;stroke:#000000;stroke-width:0.264583;stroke-linecap:butt;stroke-linejoin:miter;stroke-miterlimit:4;stroke-dasharray:1.5875, 1.5875;stroke-dashoffset:0;stroke-opacity:1"
       sodipodi:nodetypes="cc" />
    <g
       transform="matrix(0.881945,0,0,0.881945,129.03276,104.75195)"
       ns1:version="1.0.1"
       ns1:texconverter="pdflatex"
       ns1:pdfconverter="inkscape"
       ns1:text="$T$"
       ns1:preamble="C:\\Users\\claum\\AppData\\Roaming\\inkscape\\extensions\\textext\\default_packages.tex"
       ns1:scale="2.5"
       ns1:alignment="middle center"
       ns1:inkscapeversion="1.0"
       ns1:jacobian_sqrt="0.881945"
       id="g5654">
      <defs
         id="id-ffd34e8b-e923-4586-81a6-5cf7ec6541ec">
        <g
           id="id-122a29cd-4b46-4634-bf62-b1a3a84eccff">
          <symbol
             id="id-e10b38b4-ce02-4930-b01f-af9cc0767e97"
             overflow="visible">
            <path
               id="id-77ca9a92-25a0-4ca0-b4f7-6bb44e77fca2"
               d=""
               style="stroke:none" />
          </symbol>
          <symbol
             id="id-9a15443f-bb61-4ba1-8582-66de30a7eaa6"
             overflow="visible">
            <path
               id="id-734d9aba-963b-4a37-a955-b0052119fd9e"
               d="m 4.25,-6.046875 c 0.078125,-0.28125 0.109375,-0.34375 0.234375,-0.375 0.09375,-0.015625 0.421875,-0.015625 0.625,-0.015625 1.015625,0 1.453125,0.03125 1.453125,0.8125 0,0.15625 -0.03125,0.546875 -0.078125,0.796875 0,0.046875 -0.03125,0.15625 -0.03125,0.1875 0,0.0625 0.03125,0.140625 0.125,0.140625 0.109375,0 0.125,-0.078125 0.15625,-0.234375 L 7,-6.46875 C 7.015625,-6.515625 7.015625,-6.609375 7.015625,-6.640625 7.015625,-6.75 6.921875,-6.75 6.75,-6.75 H 1.21875 c -0.234375,0 -0.25,0.015625 -0.328125,0.203125 l -0.59375,1.75 c 0,0.015625 -0.0625,0.15625 -0.0625,0.1875 0,0.046875 0.0625,0.109375 0.125,0.109375 0.09375,0 0.109375,-0.0625 0.171875,-0.21875 C 1.0625,-6.265625 1.328125,-6.4375 2.796875,-6.4375 H 3.1875 c 0.28125,0 0.28125,0.03125 0.28125,0.125 0,0.046875 -0.03125,0.171875 -0.046875,0.203125 L 2.09375,-0.78125 C 2,-0.421875 1.96875,-0.3125 0.90625,-0.3125 c -0.359375,0 -0.421875,0 -0.421875,0.1875 C 0.484375,0 0.59375,0 0.65625,0 c 0.265625,0 0.546875,-0.015625 0.8125,-0.015625 0.28125,0 0.578125,-0.015625 0.859375,-0.015625 0.28125,0 0.546875,0.015625 0.828125,0.015625 C 3.4375,-0.015625 3.734375,0 4.015625,0 c 0.09375,0 0.21875,0 0.21875,-0.203125 0,-0.109375 -0.078125,-0.109375 -0.34375,-0.109375 -0.234375,0 -0.375,0 -0.625,-0.015625 -0.296875,-0.03125 -0.375,-0.0625 -0.375,-0.21875 0,-0.015625 0,-0.0625 0.046875,-0.203125 z m 0,0"
               style="stroke:none" />
          </symbol>
        </g>
      </defs>
      <g
         transform="translate(-148.946,-128.015)"
         id="id-0f45bdb0-d392-4185-9a34-43d1a05381a7">
        <g
           id="id-173357a1-e549-4478-8796-46bc70c42bce"
           style="fill:#000000;fill-opacity:1">
          <g
             transform="translate(148.712,134.765)"
             id="g5650">
            <path
               id="id-d083dbd0-1a32-48c3-bf47-0d5edad51ce6"
               d="m 4.25,-6.046875 c 0.078125,-0.28125 0.109375,-0.34375 0.234375,-0.375 0.09375,-0.015625 0.421875,-0.015625 0.625,-0.015625 1.015625,0 1.453125,0.03125 1.453125,0.8125 0,0.15625 -0.03125,0.546875 -0.078125,0.796875 0,0.046875 -0.03125,0.15625 -0.03125,0.1875 0,0.0625 0.03125,0.140625 0.125,0.140625 0.109375,0 0.125,-0.078125 0.15625,-0.234375 L 7,-6.46875 C 7.015625,-6.515625 7.015625,-6.609375 7.015625,-6.640625 7.015625,-6.75 6.921875,-6.75 6.75,-6.75 H 1.21875 c -0.234375,0 -0.25,0.015625 -0.328125,0.203125 l -0.59375,1.75 c 0,0.015625 -0.0625,0.15625 -0.0625,0.1875 0,0.046875 0.0625,0.109375 0.125,0.109375 0.09375,0 0.109375,-0.0625 0.171875,-0.21875 C 1.0625,-6.265625 1.328125,-6.4375 2.796875,-6.4375 H 3.1875 c 0.28125,0 0.28125,0.03125 0.28125,0.125 0,0.046875 -0.03125,0.171875 -0.046875,0.203125 L 2.09375,-0.78125 C 2,-0.421875 1.96875,-0.3125 0.90625,-0.3125 c -0.359375,0 -0.421875,0 -0.421875,0.1875 C 0.484375,0 0.59375,0 0.65625,0 c 0.265625,0 0.546875,-0.015625 0.8125,-0.015625 0.28125,0 0.578125,-0.015625 0.859375,-0.015625 0.28125,0 0.546875,0.015625 0.828125,0.015625 C 3.4375,-0.015625 3.734375,0 4.015625,0 c 0.09375,0 0.21875,0 0.21875,-0.203125 0,-0.109375 -0.078125,-0.109375 -0.34375,-0.109375 -0.234375,0 -0.375,0 -0.625,-0.015625 -0.296875,-0.03125 -0.375,-0.0625 -0.375,-0.21875 0,-0.015625 0,-0.0625 0.046875,-0.203125 z m 0,0"
               style="stroke:none" />
          </g>
        </g>
      </g>
    </g>
    <path
       sodipodi:open="true"
       d="m 138.25194,118.97428 a 27.438,27.438 0 0 1 0.71644,6.0133"
       sodipodi:arc-type="arc"
       sodipodi:end="6.2751813"
       sodipodi:start="6.0540214"
       sodipodi:ry="27.438"
       sodipodi:rx="27.438"
       sodipodi:cy="125.20719"
       sodipodi:cx="111.53126"
       sodipodi:type="arc"
       id="path6357"
       style="fill:none;fill-opacity:0.691489;fill-rule:evenodd;stroke:#000000;stroke-width:0.5;stroke-linecap:round;stroke-linejoin:bevel;stroke-miterlimit:4;stroke-dasharray:none;stroke-dashoffset:0" />
    <path
       transform="scale(-1,1)"
       style="fill:none;fill-opacity:0.691489;fill-rule:evenodd;stroke:#000000;stroke-width:0.5;stroke-linecap:round;stroke-linejoin:bevel;stroke-miterlimit:4;stroke-dasharray:none;stroke-dashoffset:0"
       id="path6359"
       sodipodi:type="arc"
       sodipodi:cx="-81.468742"
       sodipodi:cy="145.2072"
       sodipodi:rx="27.438"
       sodipodi:ry="27.438"
       sodipodi:start="5.9020124"
       sodipodi:end="0.22471116"
       sodipodi:arc-type="arc"
       d="m -55.999997,135 a 27.438,27.438 0 0 1 1.279422,16.32107"
       sodipodi:open="true" />
    <g
       transform="matrix(0.881945,0,0,0.881945,44.0664,141.47657)"
       ns1:version="1.0.1"
       ns1:texconverter="pdflatex"
       ns1:pdfconverter="inkscape"
       ns1:text="$\\alpha_{1}$"
       ns1:preamble="C:\\Users\\claum\\AppData\\Roaming\\inkscape\\extensions\\textext\\default_packages.tex"
       ns1:scale="2.5"
       ns1:alignment="middle center"
       ns1:inkscapeversion="1.0"
       ns1:jacobian_sqrt="0.881945"
       id="g6688">
      <defs
         id="id-192a8253-48b2-4c6b-b679-0f75c99f2815">
        <g
           id="id-e205d8c5-c0bc-4298-beb5-781a849ed530">
          <symbol
             id="id-95b98020-bfa1-4843-a6cc-4d308e435ee5"
             overflow="visible">
            <path
               id="id-709b4bbc-2fe0-41e7-a9ed-d18f0625facd"
               d=""
               style="stroke:none" />
          </symbol>
          <symbol
             id="id-d1e8fb61-6750-4d87-bb8b-b2f9528a71e7"
             overflow="visible">
            <path
               id="id-8bc10524-4bd9-4eb1-ab9c-51951e473537"
               d="m 4.75,-2.359375 c 0,-1.5625 -0.921875,-2.046875 -1.65625,-2.046875 -1.375,0 -2.6875,1.421875 -2.6875,2.828125 0,0.9375 0.59375,1.6875 1.625,1.6875 0.625,0 1.34375,-0.234375 2.09375,-0.84375 0.125,0.53125 0.453125,0.84375 0.90625,0.84375 0.53125,0 0.84375,-0.546875 0.84375,-0.703125 0,-0.078125 -0.0625,-0.109375 -0.125,-0.109375 -0.0625,0 -0.09375,0.03125 -0.125,0.109375 -0.1875,0.484375 -0.546875,0.484375 -0.5625,0.484375 -0.3125,0 -0.3125,-0.78125 -0.3125,-1.015625 0,-0.203125 0,-0.234375 0.109375,-0.34375 C 5.796875,-2.65625 6,-3.8125 6,-3.8125 6,-3.84375 5.984375,-3.921875 5.875,-3.921875 c -0.09375,0 -0.09375,0.03125 -0.140625,0.21875 -0.1875,0.625 -0.515625,1.375 -0.984375,1.96875 z m -0.65625,1.375 c -0.890625,0.765625 -1.65625,0.875 -2.046875,0.875 -0.59375,0 -0.90625,-0.453125 -0.90625,-1.09375 0,-0.484375 0.265625,-1.5625 0.578125,-2.0625 C 2.1875,-4 2.734375,-4.1875 3.078125,-4.1875 c 0.984375,0 0.984375,1.3125 0.984375,2.078125 0,0.375 0,0.953125 0.03125,1.125 z m 0,0"
               style="stroke:none" />
          </symbol>
          <symbol
             id="id-f8e8c5a3-6f82-4251-8590-156ea113dcfd"
             overflow="visible">
            <path
               id="id-db0a0e51-ee2b-4226-b561-9702a8828971"
               d=""
               style="stroke:none" />
          </symbol>
          <symbol
             id="id-cbb8d893-f5e1-41c5-ae65-3458f4ecfb58"
             overflow="visible">
            <path
               id="id-0b59c507-eaa1-4c4b-9c91-476f421c0ad8"
               d="m 2.328125,-4.4375 c 0,-0.1875 0,-0.1875 -0.203125,-0.1875 -0.453125,0.4375 -1.078125,0.4375 -1.359375,0.4375 v 0.25 c 0.15625,0 0.625,0 1,-0.1875 v 3.546875 c 0,0.234375 0,0.328125 -0.6875,0.328125 H 0.8125 V 0 c 0.125,0 0.984375,-0.03125 1.234375,-0.03125 0.21875,0 1.09375,0.03125 1.25,0.03125 V -0.25 H 3.03125 c -0.703125,0 -0.703125,-0.09375 -0.703125,-0.328125 z m 0,0"
               style="stroke:none" />
          </symbol>
        </g>
      </defs>
      <g
         transform="translate(-149.118,-130.359)"
         id="id-44f3d5eb-4185-4f7b-b6ba-ded0f796adc8">
        <g
           id="id-cbd23d40-95c6-4e34-8d34-967f48b32403"
           style="fill:#000000;fill-opacity:1">
          <g
             transform="translate(148.712,134.765)"
             id="g6680">
            <path
               id="id-89167b30-89e3-4522-9cc7-d7499ae755d6"
               d="m 4.75,-2.359375 c 0,-1.5625 -0.921875,-2.046875 -1.65625,-2.046875 -1.375,0 -2.6875,1.421875 -2.6875,2.828125 0,0.9375 0.59375,1.6875 1.625,1.6875 0.625,0 1.34375,-0.234375 2.09375,-0.84375 0.125,0.53125 0.453125,0.84375 0.90625,0.84375 0.53125,0 0.84375,-0.546875 0.84375,-0.703125 0,-0.078125 -0.0625,-0.109375 -0.125,-0.109375 -0.0625,0 -0.09375,0.03125 -0.125,0.109375 -0.1875,0.484375 -0.546875,0.484375 -0.5625,0.484375 -0.3125,0 -0.3125,-0.78125 -0.3125,-1.015625 0,-0.203125 0,-0.234375 0.109375,-0.34375 C 5.796875,-2.65625 6,-3.8125 6,-3.8125 6,-3.84375 5.984375,-3.921875 5.875,-3.921875 c -0.09375,0 -0.09375,0.03125 -0.140625,0.21875 -0.1875,0.625 -0.515625,1.375 -0.984375,1.96875 z m -0.65625,1.375 c -0.890625,0.765625 -1.65625,0.875 -2.046875,0.875 -0.59375,0 -0.90625,-0.453125 -0.90625,-1.09375 0,-0.484375 0.265625,-1.5625 0.578125,-2.0625 C 2.1875,-4 2.734375,-4.1875 3.078125,-4.1875 c 0.984375,0 0.984375,1.3125 0.984375,2.078125 0,0.375 0,0.953125 0.03125,1.125 z m 0,0"
               style="stroke:none" />
          </g>
        </g>
        <g
           id="id-701825f3-ec6b-4741-95ba-a1c179dc73e2"
           style="fill:#000000;fill-opacity:1">
          <g
             transform="translate(155.085,136.259)"
             id="g6684">
            <path
               id="id-fb8d42fb-0d4a-4791-8745-16533d1b6530"
               d="m 2.328125,-4.4375 c 0,-0.1875 0,-0.1875 -0.203125,-0.1875 -0.453125,0.4375 -1.078125,0.4375 -1.359375,0.4375 v 0.25 c 0.15625,0 0.625,0 1,-0.1875 v 3.546875 c 0,0.234375 0,0.328125 -0.6875,0.328125 H 0.8125 V 0 c 0.125,0 0.984375,-0.03125 1.234375,-0.03125 0.21875,0 1.09375,0.03125 1.25,0.03125 V -0.25 H 3.03125 c -0.703125,0 -0.703125,-0.09375 -0.703125,-0.328125 z m 0,0"
               style="stroke:none" />
          </g>
        </g>
      </g>
    </g>
    <g
       transform="matrix(0.881945,0,0,0.881945,142.16883,119.19499)"
       ns1:version="1.0.1"
       ns1:texconverter="pdflatex"
       ns1:pdfconverter="inkscape"
       ns1:text="$\\alpha_{2}$"
       ns1:preamble="C:\\Users\\claum\\AppData\\Roaming\\inkscape\\extensions\\textext\\default_packages.tex"
       ns1:scale="2.5"
       ns1:alignment="middle center"
       ns1:inkscapeversion="1.0"
       ns1:jacobian_sqrt="0.881945"
       id="g7092">
      <defs
         id="id-77206236-c534-4d53-98ad-e2555f7b6611">
        <g
           id="id-c19bdf19-522c-4664-8118-efcefb0e3c12">
          <symbol
             id="id-f244a905-7c98-4ca1-b8e2-d360384afd96"
             overflow="visible">
            <path
               id="id-c7667a6f-7e12-4ae0-95cd-be43be3ced7d"
               d=""
               style="stroke:none" />
          </symbol>
          <symbol
             id="id-4b3b1170-2d2b-4eaa-87bc-15285534f100"
             overflow="visible">
            <path
               id="id-3355d940-0167-4cad-a104-8a1251ccf756"
               d="m 4.75,-2.359375 c 0,-1.5625 -0.921875,-2.046875 -1.65625,-2.046875 -1.375,0 -2.6875,1.421875 -2.6875,2.828125 0,0.9375 0.59375,1.6875 1.625,1.6875 0.625,0 1.34375,-0.234375 2.09375,-0.84375 0.125,0.53125 0.453125,0.84375 0.90625,0.84375 0.53125,0 0.84375,-0.546875 0.84375,-0.703125 0,-0.078125 -0.0625,-0.109375 -0.125,-0.109375 -0.0625,0 -0.09375,0.03125 -0.125,0.109375 -0.1875,0.484375 -0.546875,0.484375 -0.5625,0.484375 -0.3125,0 -0.3125,-0.78125 -0.3125,-1.015625 0,-0.203125 0,-0.234375 0.109375,-0.34375 C 5.796875,-2.65625 6,-3.8125 6,-3.8125 6,-3.84375 5.984375,-3.921875 5.875,-3.921875 c -0.09375,0 -0.09375,0.03125 -0.140625,0.21875 -0.1875,0.625 -0.515625,1.375 -0.984375,1.96875 z m -0.65625,1.375 c -0.890625,0.765625 -1.65625,0.875 -2.046875,0.875 -0.59375,0 -0.90625,-0.453125 -0.90625,-1.09375 0,-0.484375 0.265625,-1.5625 0.578125,-2.0625 C 2.1875,-4 2.734375,-4.1875 3.078125,-4.1875 c 0.984375,0 0.984375,1.3125 0.984375,2.078125 0,0.375 0,0.953125 0.03125,1.125 z m 0,0"
               style="stroke:none" />
          </symbol>
          <symbol
             id="id-c49b1839-bf34-4165-bc1b-3c519cd19f5e"
             overflow="visible">
            <path
               id="id-78900422-3ed2-40da-ac76-13ca07ee76c2"
               d=""
               style="stroke:none" />
          </symbol>
          <symbol
             id="id-90da8ab6-cdbd-4fb9-bfc6-2fca80a311b2"
             overflow="visible">
            <path
               id="id-751e1a54-24a8-4098-b929-e3167bfe05c4"
               d="M 3.515625,-1.265625 H 3.28125 c -0.015625,0.15625 -0.09375,0.5625 -0.1875,0.625 C 3.046875,-0.59375 2.515625,-0.59375 2.40625,-0.59375 H 1.125 c 0.734375,-0.640625 0.984375,-0.84375 1.390625,-1.171875 0.515625,-0.40625 1,-0.84375 1,-1.5 0,-0.84375 -0.734375,-1.359375 -1.625,-1.359375 -0.859375,0 -1.453125,0.609375 -1.453125,1.25 0,0.34375 0.296875,0.390625 0.375,0.390625 0.15625,0 0.359375,-0.125 0.359375,-0.375 0,-0.125 -0.046875,-0.375 -0.40625,-0.375 C 0.984375,-4.21875 1.453125,-4.375 1.78125,-4.375 c 0.703125,0 1.0625,0.546875 1.0625,1.109375 0,0.609375 -0.4375,1.078125 -0.65625,1.328125 L 0.515625,-0.265625 C 0.4375,-0.203125 0.4375,-0.1875 0.4375,0 h 2.875 z m 0,0"
               style="stroke:none" />
          </symbol>
        </g>
      </defs>
      <g
         transform="translate(-149.118,-130.359)"
         id="id-724cf898-6ed4-4c8e-a23e-287d4d9e3bf4">
        <g
           id="id-ff2fff5f-1aab-49cd-bd68-7522e6c6e773"
           style="fill:#000000;fill-opacity:1">
          <g
             transform="translate(148.712,134.765)"
             id="g7084">
            <path
               id="id-1a183264-801c-413f-8eb4-646e553103c0"
               d="m 4.75,-2.359375 c 0,-1.5625 -0.921875,-2.046875 -1.65625,-2.046875 -1.375,0 -2.6875,1.421875 -2.6875,2.828125 0,0.9375 0.59375,1.6875 1.625,1.6875 0.625,0 1.34375,-0.234375 2.09375,-0.84375 0.125,0.53125 0.453125,0.84375 0.90625,0.84375 0.53125,0 0.84375,-0.546875 0.84375,-0.703125 0,-0.078125 -0.0625,-0.109375 -0.125,-0.109375 -0.0625,0 -0.09375,0.03125 -0.125,0.109375 -0.1875,0.484375 -0.546875,0.484375 -0.5625,0.484375 -0.3125,0 -0.3125,-0.78125 -0.3125,-1.015625 0,-0.203125 0,-0.234375 0.109375,-0.34375 C 5.796875,-2.65625 6,-3.8125 6,-3.8125 6,-3.84375 5.984375,-3.921875 5.875,-3.921875 c -0.09375,0 -0.09375,0.03125 -0.140625,0.21875 -0.1875,0.625 -0.515625,1.375 -0.984375,1.96875 z m -0.65625,1.375 c -0.890625,0.765625 -1.65625,0.875 -2.046875,0.875 -0.59375,0 -0.90625,-0.453125 -0.90625,-1.09375 0,-0.484375 0.265625,-1.5625 0.578125,-2.0625 C 2.1875,-4 2.734375,-4.1875 3.078125,-4.1875 c 0.984375,0 0.984375,1.3125 0.984375,2.078125 0,0.375 0,0.953125 0.03125,1.125 z m 0,0"
               style="stroke:none" />
          </g>
        </g>
        <g
           id="id-0a91dc08-af59-47fd-b00f-fa30bb754c38"
           style="fill:#000000;fill-opacity:1">
          <g
             transform="translate(155.085,136.259)"
             id="g7088">
            <path
               id="id-0dd8259c-2f14-408b-9f09-c726671fd57d"
               d="M 3.515625,-1.265625 H 3.28125 c -0.015625,0.15625 -0.09375,0.5625 -0.1875,0.625 C 3.046875,-0.59375 2.515625,-0.59375 2.40625,-0.59375 H 1.125 c 0.734375,-0.640625 0.984375,-0.84375 1.390625,-1.171875 0.515625,-0.40625 1,-0.84375 1,-1.5 0,-0.84375 -0.734375,-1.359375 -1.625,-1.359375 -0.859375,0 -1.453125,0.609375 -1.453125,1.25 0,0.34375 0.296875,0.390625 0.375,0.390625 0.15625,0 0.359375,-0.125 0.359375,-0.375 0,-0.125 -0.046875,-0.375 -0.40625,-0.375 C 0.984375,-4.21875 1.453125,-4.375 1.78125,-4.375 c 0.703125,0 1.0625,0.546875 1.0625,1.109375 0,0.609375 -0.4375,1.078125 -0.65625,1.328125 L 0.515625,-0.265625 C 0.4375,-0.203125 0.4375,-0.1875 0.4375,0 h 2.875 z m 0,0"
               style="stroke:none" />
          </g>
        </g>
      </g>
    </g>
    <rect
       y="35"
       x="20"
       height="20"
       width="85"
       id="rect7123"
       style="fill:none;fill-opacity:0.691489;fill-rule:evenodd;stroke:#000000;stroke-width:0.499999;stroke-linecap:round;stroke-linejoin:bevel;stroke-miterlimit:4;stroke-dasharray:none;stroke-dashoffset:0" />
    <rect
       y="45"
       x="105"
       height="10"
       width="85"
       id="rect7125"
       style="fill:none;fill-opacity:0.691489;fill-rule:evenodd;stroke:#000000;stroke-width:0.499999;stroke-linecap:round;stroke-linejoin:bevel;stroke-miterlimit:4;stroke-dasharray:none;stroke-dashoffset:0" />
    <path
       id="path7127"
       d="M 20,34.999998 V 55"
       style="fill:none;stroke:#000000;stroke-width:0.264583px;stroke-linecap:butt;stroke-linejoin:miter;stroke-opacity:1;marker-end:url(#Arrow1Mend)" />
    <path
       style="fill:none;stroke:#000000;stroke-width:0.264583px;stroke-linecap:butt;stroke-linejoin:miter;stroke-opacity:1;marker-end:url(#marker7139)"
       d="M 105,35 V 55.000002"
       id="path7135" />
    <path
       sodipodi:nodetypes="cc"
       id="path7207"
       d="M 190,45 V 55.000002"
       style="fill:none;stroke:#000000;stroke-width:0.264583px;stroke-linecap:butt;stroke-linejoin:miter;stroke-opacity:1;marker-end:url(#marker7211)" />
    <g
       transform="matrix(0.881945,0,0,0.881945,12.064556,42.380103)"
       ns1:version="1.0.1"
       ns1:texconverter="pdflatex"
       ns1:pdfconverter="inkscape"
       ns1:text="$q_{1}$"
       ns1:preamble="C:\\Users\\claum\\AppData\\Roaming\\inkscape\\extensions\\textext\\default_packages.tex"
       ns1:scale="2.5"
       ns1:alignment="middle center"
       ns1:inkscapeversion="1.0"
       ns1:jacobian_sqrt="0.881945"
       id="g7435">
      <defs
         id="id-2f33f7fa-ab4e-4fa5-880f-b56a39e91da7">
        <g
           id="id-f2510494-65cd-4c87-b972-8145111ec2ca">
          <symbol
             id="id-1d1d7aae-714e-4281-9f6b-dae135375e3a"
             overflow="visible">
            <path
               id="id-8b48864a-3817-4f2b-b4a4-573483a4ce1e"
               d=""
               style="stroke:none" />
          </symbol>
          <symbol
             id="id-ce98ae50-4ad1-460d-b66f-e392d517992d"
             overflow="visible">
            <path
               id="id-be455fcf-5bdb-4e4a-b077-045d4f953e0d"
               d="m 4.5,-4.296875 c 0,-0.046875 -0.03125,-0.09375 -0.09375,-0.09375 -0.109375,0 -0.515625,0.390625 -0.671875,0.6875 C 3.515625,-4.25 3.125,-4.40625 2.796875,-4.40625 c -1.171875,0 -2.390625,1.46875 -2.390625,2.921875 0,0.96875 0.578125,1.59375 1.3125,1.59375 0.421875,0 0.8125,-0.234375 1.171875,-0.59375 -0.09375,0.34375 -0.421875,1.6875 -0.453125,1.78125 -0.078125,0.28125 -0.15625,0.3125 -0.71875,0.328125 -0.125,0 -0.21875,0 -0.21875,0.203125 0,0 0,0.109375 0.125,0.109375 0.3125,0 0.671875,-0.03125 1,-0.03125 0.328125,0 0.6875,0.03125 1.03125,0.03125 0.046875,0 0.171875,0 0.171875,-0.203125 C 3.828125,1.625 3.734375,1.625 3.5625,1.625 3.09375,1.625 3.09375,1.5625 3.09375,1.46875 3.09375,1.390625 3.109375,1.328125 3.125,1.25 Z m -2.75,4.1875 c -0.609375,0 -0.640625,-0.765625 -0.640625,-0.9375 0,-0.484375 0.28125,-1.5625 0.453125,-1.984375 0.3125,-0.734375 0.828125,-1.15625 1.234375,-1.15625 0.65625,0 0.796875,0.8125 0.796875,0.875 0,0.0625 -0.546875,2.25 -0.578125,2.28125 C 2.859375,-0.75 2.296875,-0.109375 1.75,-0.109375 Z m 0,0"
               style="stroke:none" />
          </symbol>
          <symbol
             id="id-af2373f2-0da3-40c0-9551-8067fd3b61f1"
             overflow="visible">
            <path
               id="id-04eaaf5b-3615-4536-9101-4fd4daf62f1d"
               d=""
               style="stroke:none" />
          </symbol>
          <symbol
             id="id-554cefce-fc32-4a64-94ab-339aaa29b31a"
             overflow="visible">
            <path
               id="id-9ab54c82-9a21-45f4-a554-6cb7e9c48ab0"
               d="m 2.328125,-4.4375 c 0,-0.1875 0,-0.1875 -0.203125,-0.1875 -0.453125,0.4375 -1.078125,0.4375 -1.359375,0.4375 v 0.25 c 0.15625,0 0.625,0 1,-0.1875 v 3.546875 c 0,0.234375 0,0.328125 -0.6875,0.328125 H 0.8125 V 0 c 0.125,0 0.984375,-0.03125 1.234375,-0.03125 0.21875,0 1.09375,0.03125 1.25,0.03125 V -0.25 H 3.03125 c -0.703125,0 -0.703125,-0.09375 -0.703125,-0.328125 z m 0,0"
               style="stroke:none" />
          </symbol>
        </g>
      </defs>
      <g
         transform="translate(-149.118,-130.359)"
         id="id-72bb9c11-0f7b-44e9-a8ff-c3dd7ce2e23f">
        <g
           id="id-9e4096ed-5f29-46b6-b867-df3f0c87f961"
           style="fill:#000000;fill-opacity:1">
          <g
             transform="translate(148.712,134.765)"
             id="g7427">
            <path
               id="id-3109a367-0ee1-4d69-9dce-32f7bf536dc1"
               d="m 4.5,-4.296875 c 0,-0.046875 -0.03125,-0.09375 -0.09375,-0.09375 -0.109375,0 -0.515625,0.390625 -0.671875,0.6875 C 3.515625,-4.25 3.125,-4.40625 2.796875,-4.40625 c -1.171875,0 -2.390625,1.46875 -2.390625,2.921875 0,0.96875 0.578125,1.59375 1.3125,1.59375 0.421875,0 0.8125,-0.234375 1.171875,-0.59375 -0.09375,0.34375 -0.421875,1.6875 -0.453125,1.78125 -0.078125,0.28125 -0.15625,0.3125 -0.71875,0.328125 -0.125,0 -0.21875,0 -0.21875,0.203125 0,0 0,0.109375 0.125,0.109375 0.3125,0 0.671875,-0.03125 1,-0.03125 0.328125,0 0.6875,0.03125 1.03125,0.03125 0.046875,0 0.171875,0 0.171875,-0.203125 C 3.828125,1.625 3.734375,1.625 3.5625,1.625 3.09375,1.625 3.09375,1.5625 3.09375,1.46875 3.09375,1.390625 3.109375,1.328125 3.125,1.25 Z m -2.75,4.1875 c -0.609375,0 -0.640625,-0.765625 -0.640625,-0.9375 0,-0.484375 0.28125,-1.5625 0.453125,-1.984375 0.3125,-0.734375 0.828125,-1.15625 1.234375,-1.15625 0.65625,0 0.796875,0.8125 0.796875,0.875 0,0.0625 -0.546875,2.25 -0.578125,2.28125 C 2.859375,-0.75 2.296875,-0.109375 1.75,-0.109375 Z m 0,0"
               style="stroke:none" />
          </g>
        </g>
        <g
           id="id-17277d1a-0438-4528-9f01-73dedcc25b93"
           style="fill:#000000;fill-opacity:1">
          <g
             transform="translate(153.16,136.259)"
             id="g7431">
            <path
               id="id-ff4bdec6-c37d-4b92-8332-6fff1ca92016"
               d="m 2.328125,-4.4375 c 0,-0.1875 0,-0.1875 -0.203125,-0.1875 -0.453125,0.4375 -1.078125,0.4375 -1.359375,0.4375 v 0.25 c 0.15625,0 0.625,0 1,-0.1875 v 3.546875 c 0,0.234375 0,0.328125 -0.6875,0.328125 H 0.8125 V 0 c 0.125,0 0.984375,-0.03125 1.234375,-0.03125 0.21875,0 1.09375,0.03125 1.25,0.03125 V -0.25 H 3.03125 c -0.703125,0 -0.703125,-0.09375 -0.703125,-0.328125 z m 0,0"
               style="stroke:none" />
          </g>
        </g>
      </g>
    </g>
    <g
       transform="matrix(0.881945 0 0 0.881945 192.602 47.0235)"
       ns1:version="1.0.1"
       ns1:texconverter="pdflatex"
       ns1:pdfconverter="inkscape"
       ns1:text="$q_{2}$"
       ns1:preamble="C:\\Users\\claum\\AppData\\Roaming\\inkscape\\extensions\\textext\\default_packages.tex"
       ns1:scale="2.5"
       ns1:alignment="middle center"
       ns1:inkscapeversion="1.0"
       ns1:jacobian_sqrt="0.881945"
       id="g7660">
      <defs
         id="id-b93dce75-6a56-4e23-a653-816a10008d23">
        <g
           id="id-f4add747-c186-454e-9abc-1a6c611c342f">
          <symbol
             id="id-2ca78886-4ec6-429a-8388-130a2ab5d217"
             overflow="visible">
            <path
               id="id-03bff5b5-477f-4cc9-8629-3d9212cbd4b2"
               d=""
               style="stroke:none" />
          </symbol>
          <symbol
             id="id-fb4d3810-37b8-441c-82b8-aedcbc18e906"
             overflow="visible">
            <path
               id="id-c8f280c2-73d4-41dd-8e7e-722ee596e77d"
               d="m 4.5,-4.296875 c 0,-0.046875 -0.03125,-0.09375 -0.09375,-0.09375 -0.109375,0 -0.515625,0.390625 -0.671875,0.6875 C 3.515625,-4.25 3.125,-4.40625 2.796875,-4.40625 c -1.171875,0 -2.390625,1.46875 -2.390625,2.921875 0,0.96875 0.578125,1.59375 1.3125,1.59375 0.421875,0 0.8125,-0.234375 1.171875,-0.59375 -0.09375,0.34375 -0.421875,1.6875 -0.453125,1.78125 -0.078125,0.28125 -0.15625,0.3125 -0.71875,0.328125 -0.125,0 -0.21875,0 -0.21875,0.203125 0,0 0,0.109375 0.125,0.109375 0.3125,0 0.671875,-0.03125 1,-0.03125 0.328125,0 0.6875,0.03125 1.03125,0.03125 0.046875,0 0.171875,0 0.171875,-0.203125 C 3.828125,1.625 3.734375,1.625 3.5625,1.625 3.09375,1.625 3.09375,1.5625 3.09375,1.46875 3.09375,1.390625 3.109375,1.328125 3.125,1.25 Z m -2.75,4.1875 c -0.609375,0 -0.640625,-0.765625 -0.640625,-0.9375 0,-0.484375 0.28125,-1.5625 0.453125,-1.984375 0.3125,-0.734375 0.828125,-1.15625 1.234375,-1.15625 0.65625,0 0.796875,0.8125 0.796875,0.875 0,0.0625 -0.546875,2.25 -0.578125,2.28125 C 2.859375,-0.75 2.296875,-0.109375 1.75,-0.109375 Z m 0,0"
               style="stroke:none" />
          </symbol>
          <symbol
             id="id-0369521c-8cf3-4f8c-abc8-85f4bf5e6437"
             overflow="visible">
            <path
               id="id-c7ea2418-fb47-4546-9a27-4f73d04f290a"
               d=""
               style="stroke:none" />
          </symbol>
          <symbol
             id="id-ab1b11ea-d589-47a5-bfeb-7c8265e37b41"
             overflow="visible">
            <path
               id="id-2cc6d20b-b9b1-4a34-9926-9588e18f3b6f"
               d="M 3.515625,-1.265625 H 3.28125 c -0.015625,0.15625 -0.09375,0.5625 -0.1875,0.625 C 3.046875,-0.59375 2.515625,-0.59375 2.40625,-0.59375 H 1.125 c 0.734375,-0.640625 0.984375,-0.84375 1.390625,-1.171875 0.515625,-0.40625 1,-0.84375 1,-1.5 0,-0.84375 -0.734375,-1.359375 -1.625,-1.359375 -0.859375,0 -1.453125,0.609375 -1.453125,1.25 0,0.34375 0.296875,0.390625 0.375,0.390625 0.15625,0 0.359375,-0.125 0.359375,-0.375 0,-0.125 -0.046875,-0.375 -0.40625,-0.375 C 0.984375,-4.21875 1.453125,-4.375 1.78125,-4.375 c 0.703125,0 1.0625,0.546875 1.0625,1.109375 0,0.609375 -0.4375,1.078125 -0.65625,1.328125 L 0.515625,-0.265625 C 0.4375,-0.203125 0.4375,-0.1875 0.4375,0 h 2.875 z m 0,0"
               style="stroke:none" />
          </symbol>
        </g>
      </defs>
      <g
         transform="translate(-149.118, -130.359)"
         id="id-9804b0a4-2d6a-44a8-8651-619b341deedb">
        <g
           id="id-20dc3537-3a23-492d-aeb2-fe24762f32c2"
           style="fill:#000000;fill-opacity:1">
          <g
             transform="translate(148.712, 134.765)"
             id="g7652">
            <path
               id="id-7159f5c4-6b8c-461b-a7d2-36f7cc7a5cf0"
               d="m 4.5,-4.296875 c 0,-0.046875 -0.03125,-0.09375 -0.09375,-0.09375 -0.109375,0 -0.515625,0.390625 -0.671875,0.6875 C 3.515625,-4.25 3.125,-4.40625 2.796875,-4.40625 c -1.171875,0 -2.390625,1.46875 -2.390625,2.921875 0,0.96875 0.578125,1.59375 1.3125,1.59375 0.421875,0 0.8125,-0.234375 1.171875,-0.59375 -0.09375,0.34375 -0.421875,1.6875 -0.453125,1.78125 -0.078125,0.28125 -0.15625,0.3125 -0.71875,0.328125 -0.125,0 -0.21875,0 -0.21875,0.203125 0,0 0,0.109375 0.125,0.109375 0.3125,0 0.671875,-0.03125 1,-0.03125 0.328125,0 0.6875,0.03125 1.03125,0.03125 0.046875,0 0.171875,0 0.171875,-0.203125 C 3.828125,1.625 3.734375,1.625 3.5625,1.625 3.09375,1.625 3.09375,1.5625 3.09375,1.46875 3.09375,1.390625 3.109375,1.328125 3.125,1.25 Z m -2.75,4.1875 c -0.609375,0 -0.640625,-0.765625 -0.640625,-0.9375 0,-0.484375 0.28125,-1.5625 0.453125,-1.984375 0.3125,-0.734375 0.828125,-1.15625 1.234375,-1.15625 0.65625,0 0.796875,0.8125 0.796875,0.875 0,0.0625 -0.546875,2.25 -0.578125,2.28125 C 2.859375,-0.75 2.296875,-0.109375 1.75,-0.109375 Z m 0,0"
               style="stroke:none" />
          </g>
        </g>
        <g
           id="id-8539d542-5ac9-4d41-a7b0-1d2360a63ecb"
           style="fill:#000000;fill-opacity:1">
          <g
             transform="translate(153.16, 136.259)"
             id="g7656">
            <path
               id="id-c984a308-bb56-4901-b589-8f9ddca9e5ff"
               d="M 3.515625,-1.265625 H 3.28125 c -0.015625,0.15625 -0.09375,0.5625 -0.1875,0.625 C 3.046875,-0.59375 2.515625,-0.59375 2.40625,-0.59375 H 1.125 c 0.734375,-0.640625 0.984375,-0.84375 1.390625,-1.171875 0.515625,-0.40625 1,-0.84375 1,-1.5 0,-0.84375 -0.734375,-1.359375 -1.625,-1.359375 -0.859375,0 -1.453125,0.609375 -1.453125,1.25 0,0.34375 0.296875,0.390625 0.375,0.390625 0.15625,0 0.359375,-0.125 0.359375,-0.375 0,-0.125 -0.046875,-0.375 -0.40625,-0.375 C 0.984375,-4.21875 1.453125,-4.375 1.78125,-4.375 c 0.703125,0 1.0625,0.546875 1.0625,1.109375 0,0.609375 -0.4375,1.078125 -0.65625,1.328125 L 0.515625,-0.265625 C 0.4375,-0.203125 0.4375,-0.1875 0.4375,0 h 2.875 z m 0,0"
               style="stroke:none" />
          </g>
        </g>
      </g>
    </g>
  </g>
</svg>
