<?xml version="1.0" encoding="UTF-8" standalone="no"?>
<svg
   xmlns:ns2="http://www.iki.fi/pav/software/textext/"
   xmlns:dc="http://purl.org/dc/elements/1.1/"
   xmlns:cc="http://creativecommons.org/ns#"
   xmlns:rdf="http://www.w3.org/1999/02/22-rdf-syntax-ns#"
   xmlns:svg="http://www.w3.org/2000/svg"
   xmlns="http://www.w3.org/2000/svg"
   xmlns:sodipodi="http://sodipodi.sourceforge.net/DTD/sodipodi-0.dtd"
   xmlns:inkscape="http://www.inkscape.org/namespaces/inkscape"
   width="19cm"
   height="17.5cm"
   viewBox="0 0 190 174.99999"
   version="1.1"
   id="svg8"
   sodipodi:docname="Figura3_1.svg"
   inkscape:version="1.0 (4035a4fb49, 2020-05-01)">
  <defs
     id="defs2">
    <marker
       inkscape:isstock="true"
       style="overflow:visible"
       id="marker1504"
       refX="0"
       refY="0"
       orient="auto"
       inkscape:stockid="Arrow1Lend">
      <path
         transform="matrix(-0.8,0,0,-0.8,-10,0)"
         style="fill:#000000;fill-opacity:1;fill-rule:evenodd;stroke:#000000;stroke-width:1pt;stroke-opacity:1"
         d="M 0,0 5,-5 -12.5,0 5,5 Z"
         id="path1502" />
    </marker>
    <marker
       inkscape:stockid="Arrow1Lend"
       orient="auto"
       refY="0"
       refX="0"
       id="Arrow1Lend"
       style="overflow:visible"
       inkscape:isstock="true"
       inkscape:collect="always">
      <path
         id="path1229"
         d="M 0,0 5,-5 -12.5,0 5,5 Z"
         style="fill:#000000;fill-opacity:1;fill-rule:evenodd;stroke:#000000;stroke-width:1pt;stroke-opacity:1"
         transform="matrix(-0.8,0,0,-0.8,-10,0)" />
    </marker>
  </defs>
  <sodipodi:namedview
     id="base"
     pagecolor="#ffffff"
     bordercolor="#666666"
     borderopacity="1.0"
     inkscape:pageopacity="0.0"
     inkscape:pageshadow="2"
     inkscape:zoom="0.7"
     inkscape:cx="340.00893"
     inkscape:cy="333.95959"
     inkscape:document-units="mm"
     inkscape:current-layer="layer1"
     inkscape:document-rotation="0"
     showgrid="true"
     units="cm"
     inkscape:window-width="1366"
     inkscape:window-height="738"
     inkscape:window-x="0"
     inkscape:window-y="0"
     inkscape:window-maximized="0">
    <inkscape:grid
       type="xygrid"
       id="grid10"
       units="cm" />
  </sodipodi:namedview>
  <metadata
     id="metadata5">
    <rdf:RDF>
      <cc:Work
         rdf:about="">
        <dc:format>image/svg+xml</dc:format>
        <dc:type
           rdf:resource="http://purl.org/dc/dcmitype/StillImage" />
        <dc:title></dc:title>
      </cc:Work>
    </rdf:RDF>
  </metadata>
  <g
     inkscape:label="Livello 1"
     inkscape:groupmode="layer"
     id="layer1">
    <path
       style="fill:none;stroke:#000000;stroke-width:0.264583px;stroke-linecap:butt;stroke-linejoin:miter;stroke-opacity:1"
       d="M 50,170 C 36.93437,164.58804 25.411961,153.06563 20,140 9.7951076,115.36321 5.1251286,79.434824 17.327305,55.723687 30.44819,30.227322 40.797335,21.747317 69.152978,17.483547 90.000461,14.34876 135.09288,-1.4778314 150,13.429288 164.90712,28.336408 172.30038,69.04403 170,90 c -2.12085,19.32045 -23.20532,21.82376 -36.94901,35.56745 -13.74368,13.74368 -17.37073,28.01897 -36.101979,33.20723 C 84.099481,162.33379 62.318394,175.10245 50,170 Z"
       id="path12"
       sodipodi:nodetypes="sssssssss" />
    <path
       style="fill:none;stroke:#000000;stroke-width:0.265;stroke-linecap:butt;stroke-linejoin:miter;stroke-miterlimit:4;stroke-dasharray:none;stroke-opacity:1;marker-end:url(#Arrow1Lend)"
       d="M 5,89.999999 189,90"
       id="path14"
       sodipodi:nodetypes="cc" />
    <path
       style="fill:none;stroke:#000000;stroke-width:0.264583px;stroke-linecap:butt;stroke-linejoin:miter;stroke-opacity:1;marker-end:url(#marker1504)"
       d="M 10,140 165,5"
       id="path16" />
    <circle
       style="opacity:0.524781;fill:#000000;fill-opacity:1;stroke:none;stroke-width:0.264999"
       id="path18"
       cx="130"
       cy="70"
       r="3" />
    <path
       style="fill:none;stroke:#000000;stroke-width:0.264583px;stroke-linecap:butt;stroke-linejoin:miter;stroke-opacity:1"
       d="M 127.88,67.88 111.5,51.5"
       id="path851"
       sodipodi:nodetypes="cc" />
    <path
       style="fill:none;stroke:#000000;stroke-width:0.264583px;stroke-linecap:butt;stroke-linejoin:miter;stroke-opacity:1"
       d="m 130,89.999999 v -17"
       id="path853" />
    <g
       id="g881"
       ns2:jacobian_sqrt="1.05833"
       ns2:alignment="middle center"
       ns2:scale="3.0"
       ns2:preamble="C:\\Users\\claum\\AppData\\Roaming\\inkscape\\extensions\\textext\\default_packages.tex"
       ns2:text="$dA$"
       ns2:pdfconverter="inkscape"
       ns2:texconverter="pdflatex"
       ns2:version="1.0.1"
       transform="matrix(1.05833,0,0,1.05833,134.65938,62.766283)">
      <defs
         id="id-59155084-5b97-42bb-8771-eb8061a3e94d">
        <g
           id="id-fcf7a053-1c9c-4d90-8428-eaf2ca66503f">
          <symbol
             overflow="visible"
             id="id-14b1661b-0e21-48b6-aecb-3827e2cc8f38">
            <path
               style="stroke:none"
               d=""
               id="id-ca619f57-d9df-496d-ac94-8d0156ed48be" />
          </symbol>
          <symbol
             overflow="visible"
             id="id-1f30967b-6679-49c7-be35-687eaccd2a4d">
            <path
               style="stroke:none"
               d="m 5.140625,-6.8125 c 0,0 0,-0.109375 -0.125,-0.109375 -0.15625,0 -1.09375,0.09375 -1.265625,0.109375 -0.078125,0.015625 -0.140625,0.0625 -0.140625,0.1875 0,0.125 0.09375,0.125 0.234375,0.125 0.484375,0 0.5,0.0625 0.5,0.171875 L 4.3125,-6.125 3.71875,-3.765625 C 3.53125,-4.140625 3.25,-4.40625 2.796875,-4.40625 c -1.15625,0 -2.390625,1.46875 -2.390625,2.921875 0,0.9375 0.546875,1.59375 1.3125,1.59375 0.203125,0 0.703125,-0.046875 1.296875,-0.75 0.078125,0.421875 0.4375,0.75 0.90625,0.75 0.359375,0 0.578125,-0.234375 0.75,-0.546875 0.15625,-0.359375 0.296875,-0.96875 0.296875,-0.984375 0,-0.109375 -0.09375,-0.109375 -0.125,-0.109375 -0.09375,0 -0.109375,0.046875 -0.140625,0.1875 -0.171875,0.640625 -0.34375,1.234375 -0.75,1.234375 -0.28125,0 -0.296875,-0.265625 -0.296875,-0.453125 0,-0.25 0.015625,-0.3125 0.046875,-0.484375 z m -2.0625,5.625 C 3.015625,-1 3.015625,-0.984375 2.875,-0.8125 2.4375,-0.265625 2.03125,-0.109375 1.75,-0.109375 c -0.5,0 -0.640625,-0.546875 -0.640625,-0.9375 0,-0.5 0.3125,-1.71875 0.546875,-2.1875 0.3125,-0.578125 0.75,-0.953125 1.15625,-0.953125 0.640625,0 0.78125,0.8125 0.78125,0.875 0,0.0625 -0.015625,0.125 -0.03125,0.171875 z m 0,0"
               id="id-ea9f35bc-1fe5-4590-a51f-60823d7edeee" />
          </symbol>
          <symbol
             overflow="visible"
             id="id-94e1bcd3-3f04-4633-8621-111bb9f1110e">
            <path
               style="stroke:none"
               d="M 1.78125,-1.140625 C 1.390625,-0.484375 1,-0.34375 0.5625,-0.3125 0.4375,-0.296875 0.34375,-0.296875 0.34375,-0.109375 0.34375,-0.046875 0.40625,0 0.484375,0 0.75,0 1.0625,-0.03125 1.328125,-0.03125 c 0.34375,0 0.6875,0.03125 1,0.03125 0.0625,0 0.1875,0 0.1875,-0.1875 0,-0.109375 -0.078125,-0.125 -0.15625,-0.125 -0.21875,-0.015625 -0.46875,-0.09375 -0.46875,-0.34375 0,-0.125 0.0625,-0.234375 0.140625,-0.375 l 0.765625,-1.265625 h 2.5 c 0.015625,0.203125 0.15625,1.5625 0.15625,1.65625 0,0.296875 -0.515625,0.328125 -0.71875,0.328125 C 4.59375,-0.3125 4.5,-0.3125 4.5,-0.109375 4.5,0 4.609375,0 4.640625,0 5.046875,0 5.46875,-0.03125 5.875,-0.03125 6.125,-0.03125 6.765625,0 7.015625,0 7.0625,0 7.1875,0 7.1875,-0.203125 7.1875,-0.3125 7.09375,-0.3125 6.953125,-0.3125 6.34375,-0.3125 6.34375,-0.375 6.3125,-0.671875 l -0.609375,-6.21875 c -0.015625,-0.203125 -0.015625,-0.25 -0.1875,-0.25 -0.15625,0 -0.203125,0.078125 -0.265625,0.171875 z M 2.984375,-2.609375 4.9375,-5.90625 5.265625,-2.609375 Z m 0,0"
               id="id-db26eb18-c233-4079-9c4e-823d319ade55" />
          </symbol>
        </g>
      </defs>
      <g
         id="id-2fa4b769-037f-4b00-83a9-de52b24b8a7e"
         transform="translate(-149.118,-127.624)">
        <g
           style="fill:#000000;fill-opacity:1"
           id="id-17b40133-ed1b-4be2-8981-479a665ab597">
          <g
             id="g874"
             transform="translate(148.712,134.765)">
            <path
               style="stroke:none"
               d="m 5.140625,-6.8125 c 0,0 0,-0.109375 -0.125,-0.109375 -0.15625,0 -1.09375,0.09375 -1.265625,0.109375 -0.078125,0.015625 -0.140625,0.0625 -0.140625,0.1875 0,0.125 0.09375,0.125 0.234375,0.125 0.484375,0 0.5,0.0625 0.5,0.171875 L 4.3125,-6.125 3.71875,-3.765625 C 3.53125,-4.140625 3.25,-4.40625 2.796875,-4.40625 c -1.15625,0 -2.390625,1.46875 -2.390625,2.921875 0,0.9375 0.546875,1.59375 1.3125,1.59375 0.203125,0 0.703125,-0.046875 1.296875,-0.75 0.078125,0.421875 0.4375,0.75 0.90625,0.75 0.359375,0 0.578125,-0.234375 0.75,-0.546875 0.15625,-0.359375 0.296875,-0.96875 0.296875,-0.984375 0,-0.109375 -0.09375,-0.109375 -0.125,-0.109375 -0.09375,0 -0.109375,0.046875 -0.140625,0.1875 -0.171875,0.640625 -0.34375,1.234375 -0.75,1.234375 -0.28125,0 -0.296875,-0.265625 -0.296875,-0.453125 0,-0.25 0.015625,-0.3125 0.046875,-0.484375 z m -2.0625,5.625 C 3.015625,-1 3.015625,-0.984375 2.875,-0.8125 2.4375,-0.265625 2.03125,-0.109375 1.75,-0.109375 c -0.5,0 -0.640625,-0.546875 -0.640625,-0.9375 0,-0.5 0.3125,-1.71875 0.546875,-2.1875 0.3125,-0.578125 0.75,-0.953125 1.15625,-0.953125 0.640625,0 0.78125,0.8125 0.78125,0.875 0,0.0625 -0.015625,0.125 -0.03125,0.171875 z m 0,0"
               id="id-6210c912-4b5c-49bf-8510-7a3c59bca5e2" />
          </g>
          <g
             id="g877"
             transform="translate(153.898,134.765)">
            <path
               style="stroke:none"
               d="M 1.78125,-1.140625 C 1.390625,-0.484375 1,-0.34375 0.5625,-0.3125 0.4375,-0.296875 0.34375,-0.296875 0.34375,-0.109375 0.34375,-0.046875 0.40625,0 0.484375,0 0.75,0 1.0625,-0.03125 1.328125,-0.03125 c 0.34375,0 0.6875,0.03125 1,0.03125 0.0625,0 0.1875,0 0.1875,-0.1875 0,-0.109375 -0.078125,-0.125 -0.15625,-0.125 -0.21875,-0.015625 -0.46875,-0.09375 -0.46875,-0.34375 0,-0.125 0.0625,-0.234375 0.140625,-0.375 l 0.765625,-1.265625 h 2.5 c 0.015625,0.203125 0.15625,1.5625 0.15625,1.65625 0,0.296875 -0.515625,0.328125 -0.71875,0.328125 C 4.59375,-0.3125 4.5,-0.3125 4.5,-0.109375 4.5,0 4.609375,0 4.640625,0 5.046875,0 5.46875,-0.03125 5.875,-0.03125 6.125,-0.03125 6.765625,0 7.015625,0 7.0625,0 7.1875,0 7.1875,-0.203125 7.1875,-0.3125 7.09375,-0.3125 6.953125,-0.3125 6.34375,-0.3125 6.34375,-0.375 6.3125,-0.671875 l -0.609375,-6.21875 c -0.015625,-0.203125 -0.015625,-0.25 -0.1875,-0.25 -0.15625,0 -0.203125,0.078125 -0.265625,0.171875 z M 2.984375,-2.609375 4.9375,-5.90625 5.265625,-2.609375 Z m 0,0"
               id="id-fc4965b0-e550-4179-b9e9-48b68f340d82" />
          </g>
        </g>
      </g>
    </g>
    <g
       id="g937"
       ns2:jacobian_sqrt="1.05833"
       ns2:alignment="middle center"
       ns2:scale="3.0"
       ns2:preamble="C:\\Users\\claum\\AppData\\Roaming\\inkscape\\extensions\\textext\\default_packages.tex"
       ns2:text="$\\mathbf{O}$"
       ns2:pdfconverter="inkscape"
       ns2:texconverter="pdflatex"
       ns2:version="1.0.1"
       transform="matrix(1.05833,0,0,1.05833,60.130878,80.97216)">
      <defs
         id="id-2450d804-7ba9-48df-8457-57b6545b62d3">
        <g
           id="id-13848c3d-6624-47da-8569-8c6752142e97">
          <symbol
             overflow="visible"
             id="id-4cdaa9b9-2a55-4282-81d5-1a9f21e6c631">
            <path
               style="stroke:none"
               d=""
               id="id-fac46cd4-afa7-41e5-87d8-9d7ae0dc9041" />
          </symbol>
          <symbol
             overflow="visible"
             id="id-7e4c0e75-e2db-4358-8aaa-c930b973558d">
            <path
               style="stroke:none"
               d="m 7.96875,-3.375 c 0,-2.15625 -1.453125,-3.578125 -3.65625,-3.578125 -2.28125,0 -3.671875,1.484375 -3.671875,3.578125 0,2.0625 1.390625,3.484375 3.65625,3.484375 2.296875,0 3.671875,-1.4375 3.671875,-3.484375 z m -3.671875,3.0625 c -0.59375,0 -1.3125,-0.28125 -1.71875,-1.03125 C 2.25,-1.96875 2.15625,-2.671875 2.15625,-3.53125 c 0,-0.640625 0.03125,-1.484375 0.46875,-2.15625 0.421875,-0.609375 1.078125,-0.859375 1.671875,-0.859375 0.640625,0 1.328125,0.28125 1.71875,0.9375 0.390625,0.640625 0.421875,1.40625 0.421875,2.078125 0,0.703125 -0.03125,1.59375 -0.453125,2.28125 -0.453125,0.71875 -1.15625,0.9375 -1.6875,0.9375 z m 0,0"
               id="id-0c8f57ad-892f-4478-9eef-0b2f10e18b2e" />
          </symbol>
        </g>
      </defs>
      <g
         id="id-28cc0db6-ef2e-4993-b4c4-1b971682771a"
         transform="translate(-149.353,-127.812)">
        <g
           style="fill:#000000;fill-opacity:1"
           id="id-800e6365-5b63-4da3-83f2-e1a6dd37e0d0">
          <g
             id="g933"
             transform="translate(148.712,134.765)">
            <path
               style="stroke:none"
               d="m 7.96875,-3.375 c 0,-2.15625 -1.453125,-3.578125 -3.65625,-3.578125 -2.28125,0 -3.671875,1.484375 -3.671875,3.578125 0,2.0625 1.390625,3.484375 3.65625,3.484375 2.296875,0 3.671875,-1.4375 3.671875,-3.484375 z m -3.671875,3.0625 c -0.59375,0 -1.3125,-0.28125 -1.71875,-1.03125 C 2.25,-1.96875 2.15625,-2.671875 2.15625,-3.53125 c 0,-0.640625 0.03125,-1.484375 0.46875,-2.15625 0.421875,-0.609375 1.078125,-0.859375 1.671875,-0.859375 0.640625,0 1.328125,0.28125 1.71875,0.9375 0.390625,0.640625 0.421875,1.40625 0.421875,2.078125 0,0.703125 -0.03125,1.59375 -0.453125,2.28125 -0.453125,0.71875 -1.15625,0.9375 -1.6875,0.9375 z m 0,0"
               id="id-f00c2577-5201-4a0b-a05e-eef67f0968c9" />
          </g>
        </g>
      </g>
    </g>
    <g
       id="g1008"
       ns2:jacobian_sqrt="1.23472"
       ns2:alignment="middle center"
       ns2:scale="3.5"
       ns2:preamble="C:\\Users\\claum\\AppData\\Roaming\\inkscape\\extensions\\textext\\default_packages.tex"
       ns2:text="$\\lambda_s$"
       ns2:pdfconverter="inkscape"
       ns2:texconverter="pdflatex"
       ns2:version="1.0.1"
       transform="matrix(1.23472,0,0,1.23472,119.39199,49.408231)">
      <defs
         id="id-10b769ef-dccf-4d6d-821d-615a06296bde">
        <g
           id="id-20ae5831-e5d6-4d3a-b3da-cfa72d14e1a9">
          <symbol
             overflow="visible"
             id="id-3515be59-0035-4763-ba92-aea6042fb422">
            <path
               style="stroke:none"
               d=""
               id="id-9efa9d84-bfef-4664-8f33-fcea00be2f35" />
          </symbol>
          <symbol
             overflow="visible"
             id="id-6dc59eda-3d62-41d1-9bce-84016e13be59">
            <path
               style="stroke:none"
               d="m 3.5625,-2.90625 c 0.40625,1.046875 0.890625,2.5625 1.046875,2.796875 0.15625,0.21875 0.25,0.21875 0.53125,0.21875 h 0.21875 c 0.09375,-0.015625 0.109375,-0.0625 0.109375,-0.09375 0,-0.03125 -0.03125,-0.0625 -0.0625,-0.09375 C 5.3125,-0.1875 5.25,-0.34375 5.1875,-0.53125 L 3.15625,-6.203125 c -0.21875,-0.578125 -0.75,-0.71875 -1.21875,-0.71875 -0.046875,0 -0.1875,0 -0.1875,0.109375 0,0.078125 0.078125,0.109375 0.09375,0.109375 C 2.171875,-6.65625 2.25,-6.59375 2.5,-5.90625 l 0.953125,2.703125 -2.75,2.734375 c -0.109375,0.125 -0.171875,0.171875 -0.171875,0.3125 0,0.171875 0.140625,0.28125 0.296875,0.28125 0.15625,0 0.25,-0.109375 0.328125,-0.203125 z m 0,0"
               id="id-856dc0f9-5644-488f-b969-a965c81ae1a8" />
          </symbol>
          <symbol
             overflow="visible"
             id="id-5de8fbf1-50c5-4a41-a329-5b2e6b1ea47f">
            <path
               style="stroke:none"
               d=""
               id="id-df13aa1c-7c01-46b0-a731-8fc6a5cb4125" />
          </symbol>
          <symbol
             overflow="visible"
             id="id-57dda522-a49b-4606-b068-7639ddbcc35e">
            <path
               style="stroke:none"
               d="m 3,-2.625 c -0.171875,0.046875 -0.296875,0.1875 -0.296875,0.328125 0,0.171875 0.140625,0.234375 0.234375,0.234375 0.078125,0 0.34375,-0.046875 0.34375,-0.40625 0,-0.453125 -0.5,-0.609375 -0.9375,-0.609375 -1.078125,0 -1.28125,0.8125 -1.28125,1.015625 0,0.265625 0.15625,0.4375 0.25,0.515625 0.171875,0.140625 0.296875,0.171875 0.78125,0.25 0.15625,0.03125 0.59375,0.109375 0.59375,0.453125 0,0.125 -0.078125,0.390625 -0.359375,0.5625 C 2.046875,-0.125 1.703125,-0.125 1.625,-0.125 1.34375,-0.125 0.953125,-0.1875 0.78125,-0.421875 1.015625,-0.453125 1.171875,-0.625 1.171875,-0.8125 c 0,-0.171875 -0.125,-0.265625 -0.265625,-0.265625 -0.203125,0 -0.40625,0.171875 -0.40625,0.46875 0,0.421875 0.4375,0.671875 1.109375,0.671875 1.296875,0 1.53125,-0.875 1.53125,-1.140625 0,-0.640625 -0.703125,-0.765625 -0.96875,-0.8125 -0.0625,-0.015625 -0.234375,-0.046875 -0.28125,-0.0625 -0.25,-0.046875 -0.375,-0.1875 -0.375,-0.34375 0,-0.15625 0.125,-0.34375 0.28125,-0.453125 0.1875,-0.109375 0.421875,-0.125 0.546875,-0.125 0.140625,0 0.5,0.015625 0.65625,0.25 z m 0,0"
               id="id-dede62b0-a955-435c-9d58-93b6f9124302" />
          </symbol>
        </g>
      </defs>
      <g
         id="id-fc17ece2-bd22-4bad-9778-3e0db4793bd8"
         transform="translate(-149.243,-127.843)">
        <g
           style="fill:#000000;fill-opacity:1"
           id="id-1535335c-7c4e-4a38-bc4c-8d9d84860791">
          <g
             id="g1000"
             transform="translate(148.712,134.765)">
            <path
               style="stroke:none"
               d="m 3.5625,-2.90625 c 0.40625,1.046875 0.890625,2.5625 1.046875,2.796875 0.15625,0.21875 0.25,0.21875 0.53125,0.21875 h 0.21875 c 0.09375,-0.015625 0.109375,-0.0625 0.109375,-0.09375 0,-0.03125 -0.03125,-0.0625 -0.0625,-0.09375 C 5.3125,-0.1875 5.25,-0.34375 5.1875,-0.53125 L 3.15625,-6.203125 c -0.21875,-0.578125 -0.75,-0.71875 -1.21875,-0.71875 -0.046875,0 -0.1875,0 -0.1875,0.109375 0,0.078125 0.078125,0.109375 0.09375,0.109375 C 2.171875,-6.65625 2.25,-6.59375 2.5,-5.90625 l 0.953125,2.703125 -2.75,2.734375 c -0.109375,0.125 -0.171875,0.171875 -0.171875,0.3125 0,0.171875 0.140625,0.28125 0.296875,0.28125 0.15625,0 0.25,-0.109375 0.328125,-0.203125 z m 0,0"
               id="id-c433353a-dccb-42d8-99c2-849f2b9b6c39" />
          </g>
        </g>
        <g
           style="fill:#000000;fill-opacity:1"
           id="id-848a2fe0-a96b-4d72-b3f7-45e314c33df7">
          <g
             id="g1004"
             transform="translate(154.524,136.259)">
            <path
               style="stroke:none"
               d="m 3,-2.625 c -0.171875,0.046875 -0.296875,0.1875 -0.296875,0.328125 0,0.171875 0.140625,0.234375 0.234375,0.234375 0.078125,0 0.34375,-0.046875 0.34375,-0.40625 0,-0.453125 -0.5,-0.609375 -0.9375,-0.609375 -1.078125,0 -1.28125,0.8125 -1.28125,1.015625 0,0.265625 0.15625,0.4375 0.25,0.515625 0.171875,0.140625 0.296875,0.171875 0.78125,0.25 0.15625,0.03125 0.59375,0.109375 0.59375,0.453125 0,0.125 -0.078125,0.390625 -0.359375,0.5625 C 2.046875,-0.125 1.703125,-0.125 1.625,-0.125 1.34375,-0.125 0.953125,-0.1875 0.78125,-0.421875 1.015625,-0.453125 1.171875,-0.625 1.171875,-0.8125 c 0,-0.171875 -0.125,-0.265625 -0.265625,-0.265625 -0.203125,0 -0.40625,0.171875 -0.40625,0.46875 0,0.421875 0.4375,0.671875 1.109375,0.671875 1.296875,0 1.53125,-0.875 1.53125,-1.140625 0,-0.640625 -0.703125,-0.765625 -0.96875,-0.8125 -0.0625,-0.015625 -0.234375,-0.046875 -0.28125,-0.0625 -0.25,-0.046875 -0.375,-0.1875 -0.375,-0.34375 0,-0.15625 0.125,-0.34375 0.28125,-0.453125 0.1875,-0.109375 0.421875,-0.125 0.546875,-0.125 0.140625,0 0.5,0.015625 0.65625,0.25 z m 0,0"
               id="id-17258ad9-6d89-47a5-a423-ffa5a7ce0009" />
          </g>
        </g>
      </g>
    </g>
    <g
       id="g1104"
       ns2:jacobian_sqrt="1.23472"
       ns2:alignment="middle center"
       ns2:scale="3.5"
       ns2:preamble="C:\\Users\\claum\\AppData\\Roaming\\inkscape\\extensions\\textext\\default_packages.tex"
       ns2:text="$\\lambda_r$"
       ns2:pdfconverter="inkscape"
       ns2:texconverter="pdflatex"
       ns2:version="1.0.1"
       transform="matrix(1.23472,0,0,1.23472,118.25695,76.041673)">
      <defs
         id="id-1adc4489-0f43-474c-8dcc-2ec0761faf0f">
        <g
           id="id-f2360df0-3147-497a-aa33-ab295367a5c9">
          <symbol
             overflow="visible"
             id="id-ce6ef4a8-dc43-42bc-a398-5750bc1e9dfd">
            <path
               style="stroke:none"
               d=""
               id="id-90769ee5-ec2a-45f7-86d6-1b9863bbad2d" />
          </symbol>
          <symbol
             overflow="visible"
             id="id-e103b722-61d3-44a6-8a08-8878e6dba814">
            <path
               style="stroke:none"
               d="m 3.5625,-2.90625 c 0.40625,1.046875 0.890625,2.5625 1.046875,2.796875 0.15625,0.21875 0.25,0.21875 0.53125,0.21875 h 0.21875 c 0.09375,-0.015625 0.109375,-0.0625 0.109375,-0.09375 0,-0.03125 -0.03125,-0.0625 -0.0625,-0.09375 C 5.3125,-0.1875 5.25,-0.34375 5.1875,-0.53125 L 3.15625,-6.203125 c -0.21875,-0.578125 -0.75,-0.71875 -1.21875,-0.71875 -0.046875,0 -0.1875,0 -0.1875,0.109375 0,0.078125 0.078125,0.109375 0.09375,0.109375 C 2.171875,-6.65625 2.25,-6.59375 2.5,-5.90625 l 0.953125,2.703125 -2.75,2.734375 c -0.109375,0.125 -0.171875,0.171875 -0.171875,0.3125 0,0.171875 0.140625,0.28125 0.296875,0.28125 0.15625,0 0.25,-0.109375 0.328125,-0.203125 z m 0,0"
               id="id-b36e0c99-6242-402a-92fd-2c6a79d4a931" />
          </symbol>
          <symbol
             overflow="visible"
             id="id-23b6c1b8-2808-418b-aeca-4144ac42ddd2">
            <path
               style="stroke:none"
               d=""
               id="id-cb09cc09-02b9-4089-a27f-882def38665b" />
          </symbol>
          <symbol
             overflow="visible"
             id="id-e880ffe6-bb95-4717-bcbb-e3809aa83149">
            <path
               style="stroke:none"
               d="m 1.640625,-1.40625 c 0,-0.046875 0.171875,-0.671875 0.171875,-0.703125 0.015625,-0.0625 0.21875,-0.40625 0.453125,-0.578125 0.0625,-0.046875 0.25,-0.1875 0.5625,-0.1875 0.0625,0 0.234375,0 0.375,0.09375 -0.21875,0.0625 -0.296875,0.265625 -0.296875,0.390625 0,0.140625 0.109375,0.25 0.265625,0.25 0.171875,0 0.390625,-0.125 0.390625,-0.421875 0,-0.359375 -0.375,-0.515625 -0.734375,-0.515625 -0.359375,0 -0.671875,0.15625 -0.984375,0.5 -0.125,-0.421875 -0.546875,-0.5 -0.71875,-0.5 -0.25,0 -0.421875,0.171875 -0.546875,0.359375 -0.15625,0.265625 -0.25,0.671875 -0.25,0.71875 0,0.078125 0.09375,0.078125 0.125,0.078125 0.09375,0 0.09375,-0.015625 0.140625,-0.203125 0.109375,-0.421875 0.25,-0.75 0.515625,-0.75 0.1875,0 0.234375,0.15625 0.234375,0.34375 0,0.125 -0.0625,0.390625 -0.125,0.578125 -0.046875,0.1875 -0.109375,0.46875 -0.140625,0.625 L 0.84375,-0.4375 C 0.828125,-0.34375 0.78125,-0.171875 0.78125,-0.15625 0.78125,0 0.90625,0.0625 1.015625,0.0625 1.125,0.0625 1.265625,0 1.3125,-0.125 1.328125,-0.171875 1.40625,-0.484375 1.453125,-0.65625 Z m 0,0"
               id="id-925a4161-602b-43e6-8585-13021fa87e58" />
          </symbol>
        </g>
      </defs>
      <g
         id="id-ff328594-e019-4d3a-b95c-503cce9027ae"
         transform="translate(-149.243,-127.843)">
        <g
           style="fill:#000000;fill-opacity:1"
           id="id-ea1b777d-dfb3-4f68-acbc-f478dca7b612">
          <g
             id="g1096"
             transform="translate(148.712,134.765)">
            <path
               style="stroke:none"
               d="m 3.5625,-2.90625 c 0.40625,1.046875 0.890625,2.5625 1.046875,2.796875 0.15625,0.21875 0.25,0.21875 0.53125,0.21875 h 0.21875 c 0.09375,-0.015625 0.109375,-0.0625 0.109375,-0.09375 0,-0.03125 -0.03125,-0.0625 -0.0625,-0.09375 C 5.3125,-0.1875 5.25,-0.34375 5.1875,-0.53125 L 3.15625,-6.203125 c -0.21875,-0.578125 -0.75,-0.71875 -1.21875,-0.71875 -0.046875,0 -0.1875,0 -0.1875,0.109375 0,0.078125 0.078125,0.109375 0.09375,0.109375 C 2.171875,-6.65625 2.25,-6.59375 2.5,-5.90625 l 0.953125,2.703125 -2.75,2.734375 c -0.109375,0.125 -0.171875,0.171875 -0.171875,0.3125 0,0.171875 0.140625,0.28125 0.296875,0.28125 0.15625,0 0.25,-0.109375 0.328125,-0.203125 z m 0,0"
               id="id-1c78e55f-650f-4c7a-9122-facdcf501a8f" />
          </g>
        </g>
        <g
           style="fill:#000000;fill-opacity:1"
           id="id-16ac79b5-5409-4c66-924e-4f9fa91ca2a0">
          <g
             id="g1100"
             transform="translate(154.524,136.259)">
            <path
               style="stroke:none"
               d="m 1.640625,-1.40625 c 0,-0.046875 0.171875,-0.671875 0.171875,-0.703125 0.015625,-0.0625 0.21875,-0.40625 0.453125,-0.578125 0.0625,-0.046875 0.25,-0.1875 0.5625,-0.1875 0.0625,0 0.234375,0 0.375,0.09375 -0.21875,0.0625 -0.296875,0.265625 -0.296875,0.390625 0,0.140625 0.109375,0.25 0.265625,0.25 0.171875,0 0.390625,-0.125 0.390625,-0.421875 0,-0.359375 -0.375,-0.515625 -0.734375,-0.515625 -0.359375,0 -0.671875,0.15625 -0.984375,0.5 -0.125,-0.421875 -0.546875,-0.5 -0.71875,-0.5 -0.25,0 -0.421875,0.171875 -0.546875,0.359375 -0.15625,0.265625 -0.25,0.671875 -0.25,0.71875 0,0.078125 0.09375,0.078125 0.125,0.078125 0.09375,0 0.09375,-0.015625 0.140625,-0.203125 0.109375,-0.421875 0.25,-0.75 0.515625,-0.75 0.1875,0 0.234375,0.15625 0.234375,0.34375 0,0.125 -0.0625,0.390625 -0.125,0.578125 -0.046875,0.1875 -0.109375,0.46875 -0.140625,0.625 L 0.84375,-0.4375 C 0.828125,-0.34375 0.78125,-0.171875 0.78125,-0.15625 0.78125,0 0.90625,0.0625 1.015625,0.0625 1.125,0.0625 1.265625,0 1.3125,-0.125 1.328125,-0.171875 1.40625,-0.484375 1.453125,-0.65625 Z m 0,0"
               id="id-474673e7-062e-4a91-bfcf-aac38ab8f9c6" />
          </g>
        </g>
      </g>
    </g>
    <g
       id="g1210"
       ns2:jacobian_sqrt="1.23472"
       ns2:alignment="middle center"
       ns2:scale="3.5"
       ns2:preamble="C:\\Users\\claum\\AppData\\Roaming\\inkscape\\extensions\\textext\\default_packages.tex"
       ns2:text="$r$"
       ns2:pdfconverter="inkscape"
       ns2:texconverter="pdflatex"
       ns2:version="1.0.1"
       transform="matrix(1.23472,0,0,1.23472,178.70435,82.321861)">
      <defs
         id="id-d6e1389a-d28f-461c-931b-f9f7a971cf25">
        <g
           id="id-ee98a2d7-12d2-4428-bab3-1ae43d9fb1d0">
          <symbol
             overflow="visible"
             id="id-a5c42159-b825-4f21-8b89-dc107b1f4a9b">
            <path
               style="stroke:none"
               d=""
               id="id-7c2a53e2-5005-4b76-855e-d37dbc873fe4" />
          </symbol>
          <symbol
             overflow="visible"
             id="id-3e6476c2-f8cc-4b99-bcc6-33573ca2118b">
            <path
               style="stroke:none"
               d="m 0.875,-0.59375 c -0.03125,0.15625 -0.09375,0.390625 -0.09375,0.4375 0,0.171875 0.140625,0.265625 0.296875,0.265625 0.125,0 0.296875,-0.078125 0.375,-0.28125 C 1.46875,-0.203125 1.796875,-1.5625 1.84375,-1.75 c 0.078125,-0.328125 0.265625,-1.015625 0.3125,-1.296875 0.046875,-0.125 0.328125,-0.59375 0.5625,-0.8125 0.078125,-0.0625 0.375,-0.328125 0.796875,-0.328125 0.265625,0 0.40625,0.125 0.421875,0.125 -0.296875,0.046875 -0.515625,0.28125 -0.515625,0.546875 0,0.15625 0.109375,0.34375 0.375,0.34375 0.265625,0 0.546875,-0.234375 0.546875,-0.59375 0,-0.34375 -0.3125,-0.640625 -0.828125,-0.640625 C 2.875,-4.40625 2.4375,-3.921875 2.25,-3.640625 2.15625,-4.09375 1.796875,-4.40625 1.328125,-4.40625 0.875,-4.40625 0.6875,-4.015625 0.59375,-3.84375 0.421875,-3.5 0.296875,-2.90625 0.296875,-2.875 c 0,0.109375 0.09375,0.109375 0.109375,0.109375 0.109375,0 0.109375,-0.015625 0.171875,-0.234375 0.171875,-0.703125 0.375,-1.1875 0.734375,-1.1875 0.15625,0 0.296875,0.078125 0.296875,0.453125 0,0.21875 -0.03125,0.328125 -0.15625,0.84375 z m 0,0"
               id="id-b8377a0a-9d65-4d53-858f-54a8181a86eb" />
          </symbol>
        </g>
      </defs>
      <g
         id="id-36eaebb7-0218-402e-a5de-b37a23f44dd8"
         transform="translate(-149.009,-130.359)">
        <g
           style="fill:#000000;fill-opacity:1"
           id="id-15ee0c03-0287-41d7-99f9-416381e80eba">
          <g
             id="g1206"
             transform="translate(148.712,134.765)">
            <path
               style="stroke:none"
               d="m 0.875,-0.59375 c -0.03125,0.15625 -0.09375,0.390625 -0.09375,0.4375 0,0.171875 0.140625,0.265625 0.296875,0.265625 0.125,0 0.296875,-0.078125 0.375,-0.28125 C 1.46875,-0.203125 1.796875,-1.5625 1.84375,-1.75 c 0.078125,-0.328125 0.265625,-1.015625 0.3125,-1.296875 0.046875,-0.125 0.328125,-0.59375 0.5625,-0.8125 0.078125,-0.0625 0.375,-0.328125 0.796875,-0.328125 0.265625,0 0.40625,0.125 0.421875,0.125 -0.296875,0.046875 -0.515625,0.28125 -0.515625,0.546875 0,0.15625 0.109375,0.34375 0.375,0.34375 0.265625,0 0.546875,-0.234375 0.546875,-0.59375 0,-0.34375 -0.3125,-0.640625 -0.828125,-0.640625 C 2.875,-4.40625 2.4375,-3.921875 2.25,-3.640625 2.15625,-4.09375 1.796875,-4.40625 1.328125,-4.40625 0.875,-4.40625 0.6875,-4.015625 0.59375,-3.84375 0.421875,-3.5 0.296875,-2.90625 0.296875,-2.875 c 0,0.109375 0.09375,0.109375 0.109375,0.109375 0.109375,0 0.109375,-0.015625 0.171875,-0.234375 0.171875,-0.703125 0.375,-1.1875 0.734375,-1.1875 0.15625,0 0.296875,0.078125 0.296875,0.453125 0,0.21875 -0.03125,0.328125 -0.15625,0.84375 z m 0,0"
               id="id-cdef95d4-6d25-4375-b97b-1c6c5ca3e04a" />
          </g>
        </g>
      </g>
    </g>
    <g
       id="g1628"
       ns2:jacobian_sqrt="1.23472"
       ns2:alignment="middle center"
       ns2:scale="3.5"
       ns2:preamble="C:\\Users\\claum\\AppData\\Roaming\\inkscape\\extensions\\textext\\default_packages.tex"
       ns2:text="$s$"
       ns2:pdfconverter="inkscape"
       ns2:texconverter="pdflatex"
       ns2:version="1.0.1"
       transform="matrix(1.23472,0,0,1.23472,164.14196,7.3572362)">
      <defs
         id="id-1f6f507d-49d7-4a8e-8179-d298dbb3e749">
        <g
           id="id-510b4f5e-11af-44a7-bde6-2007c7ead271">
          <symbol
             overflow="visible"
             id="id-baba8f21-2291-448d-ba74-f7025102748c">
            <path
               style="stroke:none"
               d=""
               id="id-dcdba415-ff86-420e-be3c-ea928f06ec0b" />
          </symbol>
          <symbol
             overflow="visible"
             id="id-65f88817-c897-4231-8632-2469b2c032e9">
            <path
               style="stroke:none"
               d="M 3.890625,-3.734375 C 3.625,-3.71875 3.421875,-3.5 3.421875,-3.28125 c 0,0.140625 0.09375,0.296875 0.3125,0.296875 0.21875,0 0.453125,-0.171875 0.453125,-0.5625 C 4.1875,-4 3.765625,-4.40625 3,-4.40625 c -1.3125,0 -1.6875,1.015625 -1.6875,1.453125 0,0.78125 0.734375,0.921875 1.03125,0.984375 0.515625,0.109375 1.03125,0.21875 1.03125,0.765625 0,0.25 -0.21875,1.09375 -1.421875,1.09375 -0.140625,0 -0.90625,0 -1.140625,-0.53125 0.390625,0.046875 0.640625,-0.25 0.640625,-0.53125 0,-0.21875 -0.171875,-0.34375 -0.375,-0.34375 -0.265625,0 -0.5625,0.203125 -0.5625,0.65625 0,0.5625 0.578125,0.96875 1.421875,0.96875 1.625,0 2.015625,-1.203125 2.015625,-1.65625 0,-0.359375 -0.1875,-0.609375 -0.3125,-0.71875 -0.265625,-0.28125 -0.5625,-0.34375 -1,-0.421875 -0.359375,-0.078125 -0.75,-0.15625 -0.75,-0.609375 C 1.890625,-3.578125 2.125,-4.1875 3,-4.1875 c 0.25,0 0.75,0.078125 0.890625,0.453125 z m 0,0"
               id="id-c0b278a0-2428-4923-8800-49e9525a72a8" />
          </symbol>
        </g>
      </defs>
      <g
         id="id-f5560e71-6ee2-4dfa-ad9e-02a03cf9b15e"
         transform="translate(-149.228,-130.359)">
        <g
           style="fill:#000000;fill-opacity:1"
           id="id-00185ca6-ddc0-4784-b842-711c056f22fa">
          <g
             id="g1624"
             transform="translate(148.712,134.765)">
            <path
               style="stroke:none"
               d="M 3.890625,-3.734375 C 3.625,-3.71875 3.421875,-3.5 3.421875,-3.28125 c 0,0.140625 0.09375,0.296875 0.3125,0.296875 0.21875,0 0.453125,-0.171875 0.453125,-0.5625 C 4.1875,-4 3.765625,-4.40625 3,-4.40625 c -1.3125,0 -1.6875,1.015625 -1.6875,1.453125 0,0.78125 0.734375,0.921875 1.03125,0.984375 0.515625,0.109375 1.03125,0.21875 1.03125,0.765625 0,0.25 -0.21875,1.09375 -1.421875,1.09375 -0.140625,0 -0.90625,0 -1.140625,-0.53125 0.390625,0.046875 0.640625,-0.25 0.640625,-0.53125 0,-0.21875 -0.171875,-0.34375 -0.375,-0.34375 -0.265625,0 -0.5625,0.203125 -0.5625,0.65625 0,0.5625 0.578125,0.96875 1.421875,0.96875 1.625,0 2.015625,-1.203125 2.015625,-1.65625 0,-0.359375 -0.1875,-0.609375 -0.3125,-0.71875 -0.265625,-0.28125 -0.5625,-0.34375 -1,-0.421875 -0.359375,-0.078125 -0.75,-0.15625 -0.75,-0.609375 C 1.890625,-3.578125 2.125,-4.1875 3,-4.1875 c 0.25,0 0.75,0.078125 0.890625,0.453125 z m 0,0"
               id="id-b95ebfd4-ddd6-4087-9c54-0584e8500f3f" />
          </g>
        </g>
      </g>
    </g>
    <path
       transform="scale(0.26458333)"
       id="path2671"
       d="M 62.807851,490.52592 C 49.183672,448.51755 39.118192,389.09445 39.118192,350.67041 v -9.39452 H 145.40868 c 103.51499,0 106.23847,0.0489 104.29825,1.8714 -4.9674,4.66611 -182.352963,158.74285 -182.75756,158.74285 -0.250728,0 -2.114412,-5.1139 -4.141519,-11.36422 z"
       style="opacity:0.076;fill:#000000;stroke:#000000;stroke-width:1.01174" />
    <path
       transform="scale(0.26458333)"
       id="path2673"
       d="m 203.74565,645.27307 c -7.9949,-1.17781 -14.14539,-3.41103 -26.4837,-9.61618 -41.43583,-20.83872 -76.7787,-56.83364 -96.628722,-98.41141 -5.846252,-12.24555 -13.253168,-31.46211 -12.560812,-32.58789 0.259805,-0.42244 42.472934,-37.35614 93.806964,-82.07489 l 93.33458,-81.30681 h 192.97757 c 153.71659,0 192.97453,0.25689 192.96265,1.26269 -0.0348,2.93749 -3.24819,14.87256 -5.61084,20.83917 -4.16204,10.51082 -11.79662,21.31833 -21.92739,31.04041 -11.87428,11.39526 -19.94904,17.10409 -49.2733,34.83603 -26.10482,15.7852 -32.14434,19.71518 -43.44785,28.27196 -16.793,12.71231 -33.64572,30.72049 -54.2795,58.00105 -27.95415,36.95902 -39.9781,50.37704 -55.34215,61.7586 -12.29477,9.10786 -24.37974,14.82927 -47.59001,22.53064 -11.55776,3.83496 -31.46919,11.14788 -44.24762,16.25093 -47.90406,19.13043 -72.72435,26.86569 -93.65184,29.18669 -10.92108,1.21121 -13.92782,1.21381 -22.03803,0.019 z"
       style="opacity:0.076;fill:#000000;stroke:#000000;stroke-width:1.01174" />
    <path
       transform="scale(0.26458333)"
       id="path2675"
       d="M 39.454697,324.35583 C 41.445307,278.86129 50.393659,242.59393 68.141292,208.09011 104.00449,138.36713 135.98086,105.08909 185.75057,85.693244 204.74706,78.290091 224.0194,73.44074 256.03918,68.007069 c 24.62371,-4.178579 34.57055,-6.225075 76.52,-15.743486 77.68937,-17.627867 119.09871,-24.123224 153.84386,-24.131533 37.75071,-0.009 62.8324,7.418113 79.55938,23.558971 4.13956,3.994502 7.52647,7.744593 7.52647,8.333538 0,0.588944 -71.86032,63.656851 -159.6896,140.150921 L 254.1097,339.25558 H 146.45623 38.802759 Z M 250.4831,332.5243 c 5.9112,-2.97221 8.19522,-10.61056 5.37832,-17.98652 -2.27253,-5.95053 -6.55377,-8.61851 -13.8218,-8.61346 -10.18783,0.007 -15.63518,5.85377 -14.80303,15.88826 0.36598,4.41332 1.04816,6.05543 3.55844,8.5657 4.69163,4.69164 12.85548,5.58152 19.68807,2.14602 z"
       style="opacity:0.076;fill:#000000;stroke:#000000;stroke-width:1.01174" />
    <path
       transform="scale(0.26458333)"
       id="path2677"
       d="m 260.36456,336.85854 c 4.2238,-4.04595 158.98446,-138.54806 160.45411,-139.4503 0.99544,-0.6111 9.72581,7.49829 31.44371,29.20713 29.85474,29.8423 30.05593,30.07174 28.68021,32.70833 -3.15667,6.04978 -0.52808,13.17253 5.90936,16.01272 l 3.80443,1.67851 v 31.12033 31.12032 H 374.25926 257.86213 Z m 219.02966,-14.95232 c 1.21076,-5.24529 2.6623,-7.90445 4.31477,-7.90445 0.48756,0 0.88647,0.68185 0.88647,1.51523 0,0.85877 0.90572,1.51522 2.09056,1.51522 1.59021,0 2.01331,-0.54398 1.76777,-2.27284 -0.29557,-2.08117 -0.9022,-2.28821 -7.19308,-2.45501 -6.52192,-0.17293 -6.92032,-0.0506 -7.85695,2.41294 -0.54265,1.42731 -0.7769,2.80487 -0.52052,3.06124 0.80642,0.80642 2.62085,-0.80053 2.62085,-2.32117 0,-0.80059 0.46322,-1.45561 1.02939,-1.45561 1.03776,0 0.65972,2.88207 -1.11291,8.48449 -1.29353,4.08825 -1.18281,4.64749 0.92018,4.64749 1.39561,0 2.14161,-1.27714 3.05347,-5.22753 z m -24.26485,-7.78588 5.98384,-6.95251 1.24539,4.17459 c 2.02045,6.77258 3.91063,9.73041 6.21818,9.73041 2.5092,0 2.78046,1.1346 -4.3418,-18.1604 -4.73891,-12.83822 -5.73536,-14.74313 -8.15662,-15.5929 -2.91562,-1.02327 -5.15231,-0.0268 -2.96887,1.32259 0.70702,0.43696 2.56015,4.16244 4.11807,8.27884 l 2.83258,7.48436 -7.04916,7.21957 c -6.22948,6.38008 -7.77793,9.44794 -4.76869,9.44794 0.4968,0 3.59598,-3.12862 6.88708,-6.95249 z"
       style="opacity:0.076;fill:#000000;stroke:#000000;stroke-width:1.01174" />
    <path
       transform="scale(0.26458333)"
       id="path2679"
       d="m 492.67668,307.95441 v -31.30117 l 3.40352,-1.42209 c 1.87193,-0.78214 4.14477,-2.48038 5.05076,-3.77385 2.33359,-3.33166 2.12093,-10.52159 -0.41659,-14.08522 -3.14836,-4.42145 -11.67303,-5.98559 -15.66421,-2.87412 -0.65437,0.51014 -12.64739,-10.78152 -31.31473,-29.48342 l -30.2542,-30.31021 3.03046,-2.63435 c 1.66675,-1.44889 35.6953,-31.08712 75.61899,-65.86273 39.9237,-34.775616 72.90288,-63.349683 73.28707,-63.497931 0.3842,-0.148249 3.92468,4.624722 7.86773,10.606601 28.29876,42.93119 49.16338,112.10862 57.51202,190.6833 1.77284,16.68544 2.61428,69.94934 1.16092,73.48859 -0.68206,1.66099 -5.21292,1.76777 -75.00383,1.76777 h -74.27791 z m 25.25892,-42.44269 c 1.26513,-0.67709 2.10013,-0.67709 2.51859,0 0.87516,1.41603 4.09878,1.26438 5.31021,-0.24981 0.55561,-0.69448 1.32375,-2.28547 1.70699,-3.53554 1.01172,-3.30018 -1.26502,-2.86687 -2.65382,0.50508 -2.43225,5.9054 -1.98741,-0.95639 0.80396,-12.40134 1.54612,-6.33923 2.60734,-11.71366 2.35827,-11.94318 -0.81261,-0.74882 -7.01885,0.55824 -7.01885,1.4782 0,0.49252 0.71797,0.8955 1.59549,0.8955 1.27104,0 1.4523,0.66761 0.89137,3.283 -0.96352,4.49236 -1.35888,4.97177 -3.53153,4.28219 -4.74586,-1.50628 -11.07716,5.14898 -11.07716,11.64395 0,6.28957 3.85251,8.84843 9.09648,6.04195 z m 20.19795,0.0623 c 0,-0.52279 -0.45291,-1.23044 -1.00645,-1.57255 -0.63369,-0.39164 -0.437,-1.72321 0.53102,-3.59515 1.38909,-2.68622 2.02236,-2.97314 6.56228,-2.97314 4.88404,0 5.02482,0.083 5.02482,2.96239 0,2.07521 -0.60504,3.15442 -2.0203,3.60361 -3.95707,1.25592 -1.92595,2.52538 4.04061,2.52538 6.29039,0 7.38507,-0.70738 4.18621,-2.7051 -1.49391,-0.93297 -2.01724,-2.98289 -2.57641,-10.09198 -1.00009,-12.71488 -1.70139,-16.49735 -3.05872,-16.49735 -0.6549,0 -4.53584,5.72196 -8.62434,12.71546 -4.88765,8.36049 -8.24131,13.02254 -9.79187,13.61206 -3.82254,1.45334 -2.70661,2.96691 2.18746,2.96691 2.50013,0 4.54569,-0.42774 4.54569,-0.95054 z m -48.83614,-40.5954 c 1.6801,-1.39436 1.80456,-6.94138 0.15574,-6.94138 -0.66177,0 -0.32084,-0.65523 0.75762,-1.45607 1.56622,-1.16303 1.73678,-1.82374 0.84752,-3.28299 -2.63397,-4.3223 -10.90345,-1.53056 -10.31189,3.48124 0.24081,2.04018 1.07501,2.85226 3.59652,3.50116 3.52586,0.90738 3.98221,1.70414 2.07082,3.61554 -1.87023,1.87023 -4.84874,1.47723 -4.84874,-0.63976 0,-1.01858 -0.2991,-2.15105 -0.66467,-2.51662 -0.91912,-0.91913 -3.37594,1.27107 -3.37594,3.00957 0,3.13615 8.41649,4.01498 11.77302,1.22931 z m -29.82464,-11.55471 5.38216,-6.63364 1.25438,2.84557 c 0.6899,1.56506 1.92634,4.55019 2.74765,6.63363 1.04885,2.66067 2.1099,3.78807 3.56513,3.78807 1.13951,0 2.07185,-0.26441 2.07185,-0.58757 0,-0.9586 -10.12491,-28.88336 -11.20258,-30.897 -0.63516,-1.1868 -2.1206,-1.85046 -4.14181,-1.85046 -2.96528,0 -3.05471,0.10692 -1.51367,1.80976 0.90079,0.99536 2.75912,4.78882 4.12962,8.42989 l 2.49181,6.62013 -6.49844,6.44068 c -6.18724,6.13223 -8.1641,10.03457 -5.08335,10.03457 0.77829,0 3.83706,-2.98513 6.79725,-6.63363 z"
       style="opacity:0.076;fill:#000000;stroke:#000000;stroke-width:1.01174" />
    <path
       transform="scale(0.26458333)"
       id="path2681"
       d="m 239.09967,331.64535 c -2.01641,-0.8783 -4.09863,-3.39616 -4.75095,-5.74497 -0.28692,-1.0331 -0.52294,-3.93258 -0.52449,-6.44329 -0.002,-3.73447 0.20392,-4.97417 1.1336,-6.81445 3.09629,-6.12901 10.79332,-6.12901 13.8896,0 0.95484,1.89007 1.13642,3.06397 1.13642,7.34663 0,4.45599 -0.16259,5.42338 -1.29264,7.6911 -1.9658,3.94485 -5.90203,5.57202 -9.59154,3.96498 z"
       style="opacity:0.076;fill:#000000;stroke:#000000;stroke-width:0.505872" />
    <path
       transform="scale(0.26458333)"
       id="path2683"
       d="m 486.0434,217.08218 c -1.10367,-0.26663 -2.21169,-0.67032 -2.46225,-0.89707 -0.88183,-0.79805 -0.36596,-2.24844 1.06245,-2.9871 0.95343,-0.49304 3.3513,-0.48416 4.31848,0.016 l 0.76064,0.39335 -0.64692,0.50886 c -0.81626,0.64208 -0.90837,1.96636 -0.15055,2.16453 0.47457,0.1241 0.47734,0.15599 0.0631,0.72604 -0.50747,0.69839 -0.37983,0.69512 -2.94499,0.0754 z"
       style="opacity:0.076;fill:#000000;stroke:#000000;stroke-width:0.252936" />
    <path
       transform="scale(0.26458333)"
       id="path2685"
       d="m 513.50045,264.96345 c -0.88163,-0.37069 -1.58552,-1.87638 -1.58552,-3.39154 0,-2.55959 1.59217,-7.90661 2.90357,-9.75112 1.59406,-2.24208 3.76589,-3.191 5.12484,-2.23916 0.66173,0.4635 1.56804,2.13319 1.56804,2.88881 0,0.79787 -1.99312,8.55749 -2.40031,9.34492 -0.19614,0.37929 -0.92525,1.20087 -1.62025,1.82574 -1.49064,1.34021 -2.86485,1.7956 -3.99037,1.32235 z"
       style="opacity:0.076;fill:#000000;stroke:#000000;stroke-width:0.252936" />
    <path
       transform="scale(0.26458333)"
       id="path2687"
       d="m 543.91403,249.05206 c 2.02254,-3.40724 3.71324,-6.15909 3.7571,-6.11523 0.0439,0.0439 0.31057,2.40545 0.59267,5.24797 0.2821,2.84252 0.57305,5.59437 0.64656,6.11523 l 0.13365,0.94702 h -4.40366 -4.40366 z"
       style="opacity:0.076;fill:#000000;stroke:#000000;stroke-width:0.252936" />
    <path
       transform="scale(0.26458333)"
       id="path2689"
       d="m 481.9361,225.28067 c -0.51438,-0.0987 -0.92033,-0.22472 -1.2994,-0.40343 -0.36635,-0.17272 -0.61034,-0.34077 -0.86578,-0.59633 l -0.22321,-0.22332 0.18973,-0.0393 c 0.47039,-0.0973 0.86831,-0.31999 1.18038,-0.66057 l 0.13658,-0.14905 v 0.14539 c 0,0.31708 0.1042,0.7125 0.26754,1.01533 0.20863,0.3868 0.45642,0.63054 0.92666,0.91152 l 0.0893,0.0534 -0.067,-10e-4 c -0.0368,-6.2e-4 -0.1875,-0.0242 -0.33482,-0.0525 z"
       style="opacity:0.076;fill:#000000;stroke:#000000;stroke-width:0.0223566" />
    <path
       transform="scale(0.26458333)"
       id="path2691"
       d="m 485.66378,225.09337 c 0.35129,-0.21347 0.45335,-0.2807 0.64732,-0.42642 0.12277,-0.0922 0.35379,-0.29864 0.51339,-0.45869 0.61914,-0.62088 0.97003,-1.1157 1.14298,-1.61177 0.054,-0.1548 0.0605,-0.20534 0.0602,-0.4639 -3.1e-4,-0.25709 -0.007,-0.30734 -0.0576,-0.44066 -0.0878,-0.23052 -0.19204,-0.39025 -0.37548,-0.57523 -0.43661,-0.44026 -1.18631,-0.78815 -2.52561,-1.17198 -0.2349,-0.0673 -0.44242,-0.1224 -0.46115,-0.1224 -0.0187,0 -0.0286,-0.005 -0.0219,-0.0122 0.016,-0.016 1.04887,0.15389 1.37917,0.2268 0.97874,0.21603 1.59672,0.50354 2.00152,0.93119 0.19527,0.20629 0.30793,0.39755 0.39008,0.66225 0.0716,0.23052 0.0723,0.63683 0.002,0.92013 -0.18225,0.73177 -0.62726,1.39905 -1.26432,1.89581 -0.33299,0.25966 -0.64438,0.41964 -1.16878,0.60046 -0.27819,0.0959 -0.36953,0.1122 -0.26161,0.0466 z"
       style="opacity:0.076;fill:#000000;stroke:#000000;stroke-width:0.0223566" />
    <path
       transform="scale(0.26458333)"
       id="path2693"
       d="m 479.08003,225.16633 c -0.27207,-0.16644 -0.42114,-0.28066 -0.59259,-0.45403 -0.44449,-0.44947 -0.54774,-0.91457 -0.3398,-1.53061 l 0.0603,-0.17857 0.0153,0.30134 c 0.0192,0.3786 0.0899,0.66413 0.24111,0.97363 0.16992,0.34788 0.43667,0.67321 0.77088,0.94016 0.13391,0.10697 0.0691,0.0853 -0.15518,-0.0519 z"
       style="opacity:0.076;fill:#000000;stroke:#000000;stroke-width:0.0223566" />
  </g>
</svg>
