<?xml version="1.0" encoding="UTF-8" standalone="no"?>
<svg
   xmlns:ns21="http://www.iki.fi/pav/software/textext/"
   xmlns:dc="http://purl.org/dc/elements/1.1/"
   xmlns:cc="http://creativecommons.org/ns#"
   xmlns:rdf="http://www.w3.org/1999/02/22-rdf-syntax-ns#"
   xmlns:svg="http://www.w3.org/2000/svg"
   xmlns="http://www.w3.org/2000/svg"
   xmlns:sodipodi="http://sodipodi.sourceforge.net/DTD/sodipodi-0.dtd"
   xmlns:inkscape="http://www.inkscape.org/namespaces/inkscape"
   id="svg2975"
   version="1.1"
   viewBox="0 0 190 190"
   height="19cm"
   width="19cm"
   inkscape:version="1.0 (4035a4fb49, 2020-05-01)"
   sodipodi:docname="Figura2_8.svg">
  <defs
     id="defs2969" />
  <sodipodi:namedview
     id="base"
     pagecolor="#ffffff"
     bordercolor="#666666"
     borderopacity="1.0"
     inkscape:pageopacity="0.0"
     inkscape:pageshadow="2"
     inkscape:zoom="0.7"
     inkscape:cx="485.39115"
     inkscape:cy="348.85931"
     inkscape:document-units="mm"
     inkscape:current-layer="layer1"
     inkscape:document-rotation="0"
     showgrid="true"
     units="cm"
     inkscape:window-width="1366"
     inkscape:window-height="738"
     inkscape:window-x="0"
     inkscape:window-y="0"
     inkscape:window-maximized="0">
    <inkscape:grid
       type="xygrid"
       id="grid2977" />
  </sodipodi:namedview>
  <metadata
     id="metadata2972">
    <rdf:RDF>
      <cc:Work
         rdf:about="">
        <dc:format>image/svg+xml</dc:format>
        <dc:type
           rdf:resource="http://purl.org/dc/dcmitype/StillImage" />
        <dc:title></dc:title>
      </cc:Work>
    </rdf:RDF>
  </metadata>
  <g
     inkscape:label="Livello 1"
     inkscape:groupmode="layer"
     id="layer1">
    <g
       id="g3589"
       transform="translate(-10,-10)">
      <path
         sodipodi:nodetypes="cc"
         id="path2979"
         d="M 20,170 H 180"
         style="fill:none;stroke:#000000;stroke-width:0.264583px;stroke-linecap:butt;stroke-linejoin:miter;stroke-opacity:1" />
      <path
         sodipodi:nodetypes="cc"
         id="path2981"
         d="M 20,20 H 180"
         style="fill:none;stroke:#000000;stroke-width:0.264583px;stroke-linecap:butt;stroke-linejoin:miter;stroke-opacity:1" />
      <path
         id="path2985"
         d="M 180,20 V 170"
         style="fill:none;stroke:#000000;stroke-width:0.264583px;stroke-linecap:butt;stroke-linejoin:miter;stroke-opacity:1" />
      <path
         id="path2987"
         d="M 175,25 185,15"
         style="fill:none;stroke:#000000;stroke-width:0.264583px;stroke-linecap:butt;stroke-linejoin:miter;stroke-opacity:1" />
      <path
         id="path2989"
         d="m 175,175 10,-10"
         style="fill:none;stroke:#000000;stroke-width:0.264583px;stroke-linecap:butt;stroke-linejoin:miter;stroke-opacity:1" />
      <path
         id="path2991"
         d="m 175,125 10,-10"
         style="fill:none;stroke:#000000;stroke-width:0.264583px;stroke-linecap:butt;stroke-linejoin:miter;stroke-opacity:1" />
      <path
         id="path2993"
         d="M 195,120 H 20"
         style="fill:none;stroke:#000000;stroke-width:0.264583px;stroke-linecap:butt;stroke-linejoin:miter;stroke-opacity:1" />
      <path
         id="path2995"
         d="M 195,20 H 180"
         style="fill:none;stroke:#000000;stroke-width:0.264583px;stroke-linecap:butt;stroke-linejoin:miter;stroke-opacity:1" />
      <path
         id="path2997"
         d="M 195,170 H 180"
         style="fill:none;stroke:#000000;stroke-width:0.264583px;stroke-linecap:butt;stroke-linejoin:miter;stroke-opacity:1" />
      <path
         id="path2999"
         d="M 20,170 160,20 130,170 Z"
         style="fill:none;stroke:#000000;stroke-width:0.264583px;stroke-linecap:butt;stroke-linejoin:miter;stroke-opacity:1" />
      <path
         id="path3001"
         d="M 20,190 H 130"
         style="fill:none;stroke:#000000;stroke-width:0.264583px;stroke-linecap:butt;stroke-linejoin:miter;stroke-opacity:1" />
      <path
         id="path3003"
         d="M 15,195 25,185"
         style="fill:none;stroke:#000000;stroke-width:0.264583px;stroke-linecap:butt;stroke-linejoin:miter;stroke-opacity:1" />
      <path
         id="path3005"
         d="m 125,195 10,-10"
         style="fill:none;stroke:#000000;stroke-width:0.264583px;stroke-linecap:butt;stroke-linejoin:miter;stroke-opacity:1" />
      <path
         id="path3009"
         d="M 75,170 160,20"
         style="fill:none;stroke:#000000;stroke-width:0.265;stroke-linecap:butt;stroke-linejoin:miter;stroke-miterlimit:4;stroke-dasharray:0.265, 0.265;stroke-dashoffset:0;stroke-opacity:1" />
      <circle
         r="1.5"
         cy="120"
         cx="103.5325"
         id="path3572"
         style="fill:#000000;stroke:#000000;stroke-width:0.264999;stroke-miterlimit:4;stroke-dasharray:none;stroke-dashoffset:0" />
    </g>
    <g
       id="g3622"
       ns21:jacobian_sqrt="1.05833"
       ns21:alignment="middle center"
       ns21:scale="3.0"
       ns21:preamble="C:\\Users\\claum\\AppData\\Roaming\\inkscape\\extensions\\textext\\default_packages.tex"
       ns21:text="$\\mathbf{G}$"
       ns21:pdfconverter="inkscape"
       ns21:texconverter="pdflatex"
       ns21:version="1.0.1"
       transform="matrix(1.05833,0,0,1.05833,93.782708,111.20367)">
      <defs
         id="id-24c411de-e54d-4d96-a510-55ae21d61705">
        <g
           id="id-96dab15e-2f30-48ef-80fe-1cefa3aec5d5">
          <symbol
             overflow="visible"
             id="id-af6eec0c-0c72-446e-b077-09d4e4193046">
            <path
               style="stroke:none"
               d=""
               id="id-a81339b5-1ded-498b-92e1-8c5a690a3a6e" />
          </symbol>
          <symbol
             overflow="visible"
             id="id-1c2b9f52-8c84-45f4-9ba2-8851d4480209">
            <path
               style="stroke:none"
               d="M 6.515625,-0.53125 C 6.8125,-0.265625 7.421875,0 7.484375,0 7.625,0 7.625,-0.125 7.625,-0.28125 v -2 H 8.421875 V -2.75 c -0.34375,0.03125 -1.21875,0.03125 -1.609375,0.03125 -0.578125,0 -1.5,0 -2.03125,-0.03125 v 0.46875 h 1.421875 v 1 c 0,0.1875 0,0.484375 -0.375,0.71875 C 5.5625,-0.421875 5.25,-0.359375 4.921875,-0.359375 c -0.859375,0 -1.71875,-0.28125 -2.203125,-0.90625 -0.421875,-0.546875 -0.5625,-1.25 -0.5625,-2.15625 0,-1.125 0.203125,-1.703125 0.578125,-2.1875 0.390625,-0.5 1.15625,-0.875 2.125,-0.875 1.0625,0 2.015625,0.765625 2.234375,2.03125 C 7.125,-4.265625 7.125,-4.25 7.359375,-4.25 c 0.25,0 0.265625,-0.015625 0.265625,-0.28125 v -2.140625 c 0,-0.1875 0,-0.28125 -0.171875,-0.28125 -0.09375,0 -0.109375,0.03125 -0.203125,0.09375 l -0.65625,0.59375 c -0.71875,-0.578125 -1.4375,-0.6875 -1.953125,-0.6875 -2.453125,0 -4,1.46875 -4,3.53125 0,1.984375 1.4375,3.53125 4.015625,3.53125 0.328125,0 1.359375,-0.015625 1.859375,-0.640625 z m 0,0"
               id="id-bfaecc99-b5be-4a22-8834-31b4c2eb87de" />
          </symbol>
        </g>
      </defs>
      <g
         id="id-0bb604d9-82a1-427f-90b9-e885915bc694"
         transform="translate(-149.353,-127.812)">
        <g
           style="fill:#000000;fill-opacity:1"
           id="id-88093c03-3b1f-4e63-a1fd-f5e2688aed7c">
          <g
             id="g3618"
             transform="translate(148.712,134.765)">
            <path
               style="stroke:none"
               d="M 6.515625,-0.53125 C 6.8125,-0.265625 7.421875,0 7.484375,0 7.625,0 7.625,-0.125 7.625,-0.28125 v -2 H 8.421875 V -2.75 c -0.34375,0.03125 -1.21875,0.03125 -1.609375,0.03125 -0.578125,0 -1.5,0 -2.03125,-0.03125 v 0.46875 h 1.421875 v 1 c 0,0.1875 0,0.484375 -0.375,0.71875 C 5.5625,-0.421875 5.25,-0.359375 4.921875,-0.359375 c -0.859375,0 -1.71875,-0.28125 -2.203125,-0.90625 -0.421875,-0.546875 -0.5625,-1.25 -0.5625,-2.15625 0,-1.125 0.203125,-1.703125 0.578125,-2.1875 0.390625,-0.5 1.15625,-0.875 2.125,-0.875 1.0625,0 2.015625,0.765625 2.234375,2.03125 C 7.125,-4.265625 7.125,-4.25 7.359375,-4.25 c 0.25,0 0.265625,-0.015625 0.265625,-0.28125 v -2.140625 c 0,-0.1875 0,-0.28125 -0.171875,-0.28125 -0.09375,0 -0.109375,0.03125 -0.203125,0.09375 l -0.65625,0.59375 c -0.71875,-0.578125 -1.4375,-0.6875 -1.953125,-0.6875 -2.453125,0 -4,1.46875 -4,3.53125 0,1.984375 1.4375,3.53125 4.015625,3.53125 0.328125,0 1.359375,-0.015625 1.859375,-0.640625 z m 0,0"
               id="id-600ed3be-e9a3-4dca-99cc-1813e45f5f74" />
          </g>
        </g>
      </g>
    </g>
    <g
       id="g3680"
       ns21:jacobian_sqrt="1.05833"
       ns21:alignment="middle center"
       ns21:scale="3.0"
       ns21:preamble="C:\\Users\\claum\\AppData\\Roaming\\inkscape\\extensions\\textext\\default_packages.tex"
       ns21:text="$b$"
       ns21:pdfconverter="inkscape"
       ns21:texconverter="pdflatex"
       ns21:version="1.0.1"
       transform="matrix(1.05833,0,0,1.05833,63.760034,166.70912)">
      <defs
         id="id-4564c2d3-6fc8-466d-af47-671c235c9d3c">
        <g
           id="id-18514194-f853-4af2-9349-e8892d5ecce7">
          <symbol
             overflow="visible"
             id="id-aa51820b-5a3f-4ba5-8ccf-ec273451aaea">
            <path
               style="stroke:none"
               d=""
               id="id-7f2919f3-3fc7-4fa5-941b-7bb71de6927f" />
          </symbol>
          <symbol
             overflow="visible"
             id="id-4f3672dd-d44b-4774-92af-2630bae1ff12">
            <path
               style="stroke:none"
               d="m 2.375,-6.8125 c 0,0 0,-0.109375 -0.125,-0.109375 -0.21875,0 -0.953125,0.078125 -1.21875,0.109375 -0.078125,0 -0.1875,0.015625 -0.1875,0.1875 0,0.125 0.09375,0.125 0.25,0.125 0.46875,0 0.484375,0.0625 0.484375,0.171875 0,0.0625 -0.078125,0.40625 -0.125,0.609375 l -0.828125,3.25 c -0.109375,0.5 -0.15625,0.671875 -0.15625,1.015625 0,0.9375 0.53125,1.5625 1.265625,1.5625 1.171875,0 2.40625,-1.484375 2.40625,-2.921875 0,-0.90625 -0.53125,-1.59375 -1.328125,-1.59375 -0.453125,0 -0.875,0.296875 -1.171875,0.59375 z M 1.453125,-3.046875 C 1.5,-3.265625 1.5,-3.28125 1.59375,-3.390625 2.078125,-4.03125 2.53125,-4.1875 2.796875,-4.1875 c 0.359375,0 0.625,0.296875 0.625,0.9375 0,0.59375 -0.328125,1.734375 -0.515625,2.109375 -0.328125,0.671875 -0.78125,1.03125 -1.171875,1.03125 -0.34375,0 -0.671875,-0.265625 -0.671875,-1 0,-0.203125 0,-0.390625 0.15625,-1.015625 z m 0,0"
               id="id-ddacb23b-d32e-4536-821d-c47882833db7" />
          </symbol>
        </g>
      </defs>
      <g
         id="id-3785bf86-0745-47ff-af2f-699dda85313c"
         transform="translate(-149.181,-127.843)">
        <g
           style="fill:#000000;fill-opacity:1"
           id="id-66d543cd-d1e8-4536-b128-563fe3c7087b">
          <g
             id="g3676"
             transform="translate(148.712,134.765)">
            <path
               style="stroke:none"
               d="m 2.375,-6.8125 c 0,0 0,-0.109375 -0.125,-0.109375 -0.21875,0 -0.953125,0.078125 -1.21875,0.109375 -0.078125,0 -0.1875,0.015625 -0.1875,0.1875 0,0.125 0.09375,0.125 0.25,0.125 0.46875,0 0.484375,0.0625 0.484375,0.171875 0,0.0625 -0.078125,0.40625 -0.125,0.609375 l -0.828125,3.25 c -0.109375,0.5 -0.15625,0.671875 -0.15625,1.015625 0,0.9375 0.53125,1.5625 1.265625,1.5625 1.171875,0 2.40625,-1.484375 2.40625,-2.921875 0,-0.90625 -0.53125,-1.59375 -1.328125,-1.59375 -0.453125,0 -0.875,0.296875 -1.171875,0.59375 z M 1.453125,-3.046875 C 1.5,-3.265625 1.5,-3.28125 1.59375,-3.390625 2.078125,-4.03125 2.53125,-4.1875 2.796875,-4.1875 c 0.359375,0 0.625,0.296875 0.625,0.9375 0,0.59375 -0.328125,1.734375 -0.515625,2.109375 -0.328125,0.671875 -0.78125,1.03125 -1.171875,1.03125 -0.34375,0 -0.671875,-0.265625 -0.671875,-1 0,-0.203125 0,-0.390625 0.15625,-1.015625 z m 0,0"
               id="id-56a060f8-b1f8-4a74-9d5c-920226ffc694" />
          </g>
        </g>
      </g>
    </g>
    <g
       id="g3764"
       ns21:jacobian_sqrt="1.05833"
       ns21:alignment="middle center"
       ns21:scale="3.0"
       ns21:preamble="C:\\Users\\claum\\AppData\\Roaming\\inkscape\\extensions\\textext\\default_packages.tex"
       ns21:text="$\\frac{1}{3}h$"
       ns21:pdfconverter="inkscape"
       ns21:texconverter="pdflatex"
       ns21:version="1.0.1"
       transform="matrix(1.05833,0,0,1.05833,153.98916,126.60096)">
      <defs
         id="id-a1f04eba-82c5-4c36-b296-adbff00ea847">
        <g
           id="id-cc369805-a2a0-4930-84b3-ad1d92640d8f">
          <symbol
             overflow="visible"
             id="id-fa58c8d1-a30b-4a97-9130-f5848f432a03">
            <path
               style="stroke:none"
               d=""
               id="id-a3b967ea-6f8a-447f-8fa1-238f6da8bc6e" />
          </symbol>
          <symbol
             overflow="visible"
             id="id-6a5c23b7-db61-4365-bf01-346a16be4ad0">
            <path
               style="stroke:none"
               d="m 2.328125,-4.4375 c 0,-0.1875 0,-0.1875 -0.203125,-0.1875 -0.453125,0.4375 -1.078125,0.4375 -1.359375,0.4375 v 0.25 c 0.15625,0 0.625,0 1,-0.1875 v 3.546875 c 0,0.234375 0,0.328125 -0.6875,0.328125 H 0.8125 V 0 c 0.125,0 0.984375,-0.03125 1.234375,-0.03125 0.21875,0 1.09375,0.03125 1.25,0.03125 V -0.25 H 3.03125 c -0.703125,0 -0.703125,-0.09375 -0.703125,-0.328125 z m 0,0"
               id="id-e404211b-d4fb-4075-a7dd-78ad4de4a699" />
          </symbol>
          <symbol
             overflow="visible"
             id="id-647478dc-dde5-4032-914e-74de9d6ff568">
            <path
               style="stroke:none"
               d="m 1.90625,-2.328125 c 0.546875,0 0.9375,0.375 0.9375,1.125 0,0.859375 -0.515625,1.125 -0.90625,1.125 -0.28125,0 -0.90625,-0.078125 -1.1875,-0.5 0.328125,0 0.40625,-0.234375 0.40625,-0.390625 0,-0.21875 -0.171875,-0.375 -0.390625,-0.375 -0.1875,0 -0.390625,0.125 -0.390625,0.40625 0,0.65625 0.71875,1.078125 1.5625,1.078125 0.96875,0 1.640625,-0.65625 1.640625,-1.34375 0,-0.546875 -0.4375,-1.09375 -1.203125,-1.25 0.71875,-0.265625 0.984375,-0.78125 0.984375,-1.21875 0,-0.546875 -0.625,-0.953125 -1.40625,-0.953125 -0.765625,0 -1.359375,0.375 -1.359375,0.9375 0,0.234375 0.15625,0.359375 0.359375,0.359375 0.21875,0 0.359375,-0.15625 0.359375,-0.34375 0,-0.203125 -0.140625,-0.359375 -0.359375,-0.375 0.25,-0.296875 0.71875,-0.375 0.984375,-0.375 0.3125,0 0.75,0.15625 0.75,0.75 0,0.296875 -0.09375,0.625 -0.28125,0.828125 -0.21875,0.265625 -0.421875,0.28125 -0.765625,0.3125 -0.171875,0.015625 -0.1875,0.015625 -0.21875,0.015625 -0.015625,0 -0.078125,0.015625 -0.078125,0.09375 0,0.09375 0.0625,0.09375 0.1875,0.09375 z m 0,0"
               id="id-e52fa228-5889-4698-97d4-1116efbc4f03" />
          </symbol>
          <symbol
             overflow="visible"
             id="id-a1e35fee-c37f-4bba-9b49-aaac38aefee9">
            <path
               style="stroke:none"
               d=""
               id="id-efcfe47f-b13d-4583-8c1c-123f135433f4" />
          </symbol>
          <symbol
             overflow="visible"
             id="id-77eb3afd-4d4e-4450-8af4-0a3ee10aaf7c">
            <path
               style="stroke:none"
               d="m 2.859375,-6.8125 c 0,0 0,-0.109375 -0.125,-0.109375 -0.234375,0 -0.953125,0.078125 -1.21875,0.109375 -0.078125,0 -0.1875,0.015625 -0.1875,0.1875 0,0.125 0.09375,0.125 0.234375,0.125 0.484375,0 0.5,0.0625 0.5,0.171875 L 2.03125,-6.125 0.59375,-0.390625 c -0.046875,0.140625 -0.046875,0.15625 -0.046875,0.21875 0,0.234375 0.203125,0.28125 0.296875,0.28125 0.15625,0 0.3125,-0.125 0.359375,-0.265625 l 0.1875,-0.75 0.21875,-0.890625 C 1.671875,-2.03125 1.734375,-2.25 1.78125,-2.46875 1.796875,-2.53125 1.890625,-2.859375 1.890625,-2.921875 1.921875,-3.015625 2.234375,-3.5625 2.578125,-3.84375 2.796875,-4 3.09375,-4.1875 3.53125,-4.1875 c 0.421875,0 0.53125,0.34375 0.53125,0.703125 0,0.53125 -0.375,1.625 -0.609375,2.234375 C 3.375,-1.03125 3.3125,-0.90625 3.3125,-0.703125 c 0,0.46875 0.359375,0.8125 0.828125,0.8125 0.9375,0 1.296875,-1.453125 1.296875,-1.53125 0,-0.109375 -0.078125,-0.109375 -0.109375,-0.109375 -0.109375,0 -0.109375,0.03125 -0.15625,0.1875 -0.140625,0.53125 -0.46875,1.234375 -1.015625,1.234375 -0.171875,0 -0.234375,-0.09375 -0.234375,-0.328125 0,-0.25 0.078125,-0.484375 0.171875,-0.703125 0.15625,-0.4375 0.609375,-1.625 0.609375,-2.203125 0,-0.640625 -0.390625,-1.0625 -1.140625,-1.0625 -0.625,0 -1.109375,0.3125 -1.484375,0.765625 z m 0,0"
               id="id-2a16af4d-e973-4114-a755-0e49eeb3f5f9" />
          </symbol>
        </g>
      </defs>
      <g
         id="id-9e5a1b5d-0644-449b-83d4-c192402f6825"
         transform="translate(-149.906,-126.217)">
        <g
           style="fill:#000000;fill-opacity:1"
           id="id-42ff9318-f66d-4094-95c0-af69282b8016">
          <g
             id="g3751"
             transform="translate(149.908,130.842)">
            <path
               style="stroke:none"
               d="m 2.328125,-4.4375 c 0,-0.1875 0,-0.1875 -0.203125,-0.1875 -0.453125,0.4375 -1.078125,0.4375 -1.359375,0.4375 v 0.25 c 0.15625,0 0.625,0 1,-0.1875 v 3.546875 c 0,0.234375 0,0.328125 -0.6875,0.328125 H 0.8125 V 0 c 0.125,0 0.984375,-0.03125 1.234375,-0.03125 0.21875,0 1.09375,0.03125 1.25,0.03125 V -0.25 H 3.03125 c -0.703125,0 -0.703125,-0.09375 -0.703125,-0.328125 z m 0,0"
               id="id-4094cc34-12ba-4338-98bb-37496db71bf5" />
          </g>
        </g>
        <path
           style="fill:none;stroke:#000000;stroke-width:0.398;stroke-linecap:butt;stroke-linejoin:miter;stroke-miterlimit:10;stroke-opacity:1"
           d="M -0.00175,5.625e-4 H 3.970906"
           transform="matrix(1,0,0,-1,149.908,132.274)"
           id="id-d6c9509b-1626-4b34-accd-68fc9bc6c2be" />
        <g
           style="fill:#000000;fill-opacity:1"
           id="id-818ca3f4-4a24-4e4b-9eb9-7b8bb21869e5">
          <g
             id="g3756"
             transform="translate(149.908,138.2)">
            <path
               style="stroke:none"
               d="m 1.90625,-2.328125 c 0.546875,0 0.9375,0.375 0.9375,1.125 0,0.859375 -0.515625,1.125 -0.90625,1.125 -0.28125,0 -0.90625,-0.078125 -1.1875,-0.5 0.328125,0 0.40625,-0.234375 0.40625,-0.390625 0,-0.21875 -0.171875,-0.375 -0.390625,-0.375 -0.1875,0 -0.390625,0.125 -0.390625,0.40625 0,0.65625 0.71875,1.078125 1.5625,1.078125 0.96875,0 1.640625,-0.65625 1.640625,-1.34375 0,-0.546875 -0.4375,-1.09375 -1.203125,-1.25 0.71875,-0.265625 0.984375,-0.78125 0.984375,-1.21875 0,-0.546875 -0.625,-0.953125 -1.40625,-0.953125 -0.765625,0 -1.359375,0.375 -1.359375,0.9375 0,0.234375 0.15625,0.359375 0.359375,0.359375 0.21875,0 0.359375,-0.15625 0.359375,-0.34375 0,-0.203125 -0.140625,-0.359375 -0.359375,-0.375 0.25,-0.296875 0.71875,-0.375 0.984375,-0.375 0.3125,0 0.75,0.15625 0.75,0.75 0,0.296875 -0.09375,0.625 -0.28125,0.828125 -0.21875,0.265625 -0.421875,0.28125 -0.765625,0.3125 -0.171875,0.015625 -0.1875,0.015625 -0.21875,0.015625 -0.015625,0 -0.078125,0.015625 -0.078125,0.09375 0,0.09375 0.0625,0.09375 0.1875,0.09375 z m 0,0"
               id="id-2a98e593-8c8a-47fe-980e-0d285b360290" />
          </g>
        </g>
        <g
           style="fill:#000000;fill-opacity:1"
           id="id-7d258c88-29a4-4fe1-aa98-01c229469b52">
          <g
             id="g3760"
             transform="translate(155.075,134.765)">
            <path
               style="stroke:none"
               d="m 2.859375,-6.8125 c 0,0 0,-0.109375 -0.125,-0.109375 -0.234375,0 -0.953125,0.078125 -1.21875,0.109375 -0.078125,0 -0.1875,0.015625 -0.1875,0.1875 0,0.125 0.09375,0.125 0.234375,0.125 0.484375,0 0.5,0.0625 0.5,0.171875 L 2.03125,-6.125 0.59375,-0.390625 c -0.046875,0.140625 -0.046875,0.15625 -0.046875,0.21875 0,0.234375 0.203125,0.28125 0.296875,0.28125 0.15625,0 0.3125,-0.125 0.359375,-0.265625 l 0.1875,-0.75 0.21875,-0.890625 C 1.671875,-2.03125 1.734375,-2.25 1.78125,-2.46875 1.796875,-2.53125 1.890625,-2.859375 1.890625,-2.921875 1.921875,-3.015625 2.234375,-3.5625 2.578125,-3.84375 2.796875,-4 3.09375,-4.1875 3.53125,-4.1875 c 0.421875,0 0.53125,0.34375 0.53125,0.703125 0,0.53125 -0.375,1.625 -0.609375,2.234375 C 3.375,-1.03125 3.3125,-0.90625 3.3125,-0.703125 c 0,0.46875 0.359375,0.8125 0.828125,0.8125 0.9375,0 1.296875,-1.453125 1.296875,-1.53125 0,-0.109375 -0.078125,-0.109375 -0.109375,-0.109375 -0.109375,0 -0.109375,0.03125 -0.15625,0.1875 -0.140625,0.53125 -0.46875,1.234375 -1.015625,1.234375 -0.171875,0 -0.234375,-0.09375 -0.234375,-0.328125 0,-0.25 0.078125,-0.484375 0.171875,-0.703125 0.15625,-0.4375 0.609375,-1.625 0.609375,-2.203125 0,-0.640625 -0.390625,-1.0625 -1.140625,-1.0625 -0.625,0 -1.109375,0.3125 -1.484375,0.765625 z m 0,0"
               id="id-f9b2f4b8-d011-4f3a-a5aa-81ef6372a789" />
          </g>
        </g>
      </g>
    </g>
    <g
       id="g3885"
       ns21:jacobian_sqrt="1.05833"
       ns21:alignment="middle center"
       ns21:scale="3.0"
       ns21:preamble="C:\\Users\\claum\\AppData\\Roaming\\inkscape\\extensions\\textext\\default_packages.tex"
       ns21:text="$\\frac{2}{3}h$"
       ns21:pdfconverter="inkscape"
       ns21:texconverter="pdflatex"
       ns21:version="1.0.1"
       transform="matrix(1.05833,0,0,1.05833,153.90111,46.366805)">
      <defs
         id="id-f7ad6e1b-f7e6-432c-9238-5c98dbee988f">
        <g
           id="id-cbbf934f-4d67-4856-98f2-2e0a73513a22">
          <symbol
             overflow="visible"
             id="id-31f9c9c2-7d2c-48e4-95e4-71ed840bda44">
            <path
               style="stroke:none"
               d=""
               id="id-0a4771b9-ab4f-4282-9dcf-15b8ff4e7da7" />
          </symbol>
          <symbol
             overflow="visible"
             id="id-2a9096ec-c7cb-4d9c-8cc1-cbfcf3df1e95">
            <path
               style="stroke:none"
               d="M 3.515625,-1.265625 H 3.28125 c -0.015625,0.15625 -0.09375,0.5625 -0.1875,0.625 C 3.046875,-0.59375 2.515625,-0.59375 2.40625,-0.59375 H 1.125 c 0.734375,-0.640625 0.984375,-0.84375 1.390625,-1.171875 0.515625,-0.40625 1,-0.84375 1,-1.5 0,-0.84375 -0.734375,-1.359375 -1.625,-1.359375 -0.859375,0 -1.453125,0.609375 -1.453125,1.25 0,0.34375 0.296875,0.390625 0.375,0.390625 0.15625,0 0.359375,-0.125 0.359375,-0.375 0,-0.125 -0.046875,-0.375 -0.40625,-0.375 C 0.984375,-4.21875 1.453125,-4.375 1.78125,-4.375 c 0.703125,0 1.0625,0.546875 1.0625,1.109375 0,0.609375 -0.4375,1.078125 -0.65625,1.328125 L 0.515625,-0.265625 C 0.4375,-0.203125 0.4375,-0.1875 0.4375,0 h 2.875 z m 0,0"
               id="id-1b0a3177-ea24-41eb-983e-aa55d4e3c69c" />
          </symbol>
          <symbol
             overflow="visible"
             id="id-fb6eeddc-e5ba-41d5-99be-8bc05e35d70b">
            <path
               style="stroke:none"
               d="m 1.90625,-2.328125 c 0.546875,0 0.9375,0.375 0.9375,1.125 0,0.859375 -0.515625,1.125 -0.90625,1.125 -0.28125,0 -0.90625,-0.078125 -1.1875,-0.5 0.328125,0 0.40625,-0.234375 0.40625,-0.390625 0,-0.21875 -0.171875,-0.375 -0.390625,-0.375 -0.1875,0 -0.390625,0.125 -0.390625,0.40625 0,0.65625 0.71875,1.078125 1.5625,1.078125 0.96875,0 1.640625,-0.65625 1.640625,-1.34375 0,-0.546875 -0.4375,-1.09375 -1.203125,-1.25 0.71875,-0.265625 0.984375,-0.78125 0.984375,-1.21875 0,-0.546875 -0.625,-0.953125 -1.40625,-0.953125 -0.765625,0 -1.359375,0.375 -1.359375,0.9375 0,0.234375 0.15625,0.359375 0.359375,0.359375 0.21875,0 0.359375,-0.15625 0.359375,-0.34375 0,-0.203125 -0.140625,-0.359375 -0.359375,-0.375 0.25,-0.296875 0.71875,-0.375 0.984375,-0.375 0.3125,0 0.75,0.15625 0.75,0.75 0,0.296875 -0.09375,0.625 -0.28125,0.828125 -0.21875,0.265625 -0.421875,0.28125 -0.765625,0.3125 -0.171875,0.015625 -0.1875,0.015625 -0.21875,0.015625 -0.015625,0 -0.078125,0.015625 -0.078125,0.09375 0,0.09375 0.0625,0.09375 0.1875,0.09375 z m 0,0"
               id="id-6dfb88b6-1e02-43d6-9d7c-dca38b4ef3b3" />
          </symbol>
          <symbol
             overflow="visible"
             id="id-1c1f20ae-8977-4c93-8aba-d762174daa5b">
            <path
               style="stroke:none"
               d=""
               id="id-0d0a4121-617a-44c3-b94a-30e6e0fb0eee" />
          </symbol>
          <symbol
             overflow="visible"
             id="id-46092673-b052-439b-8851-08ff15b91052">
            <path
               style="stroke:none"
               d="m 2.859375,-6.8125 c 0,0 0,-0.109375 -0.125,-0.109375 -0.234375,0 -0.953125,0.078125 -1.21875,0.109375 -0.078125,0 -0.1875,0.015625 -0.1875,0.1875 0,0.125 0.09375,0.125 0.234375,0.125 0.484375,0 0.5,0.0625 0.5,0.171875 L 2.03125,-6.125 0.59375,-0.390625 c -0.046875,0.140625 -0.046875,0.15625 -0.046875,0.21875 0,0.234375 0.203125,0.28125 0.296875,0.28125 0.15625,0 0.3125,-0.125 0.359375,-0.265625 l 0.1875,-0.75 0.21875,-0.890625 C 1.671875,-2.03125 1.734375,-2.25 1.78125,-2.46875 1.796875,-2.53125 1.890625,-2.859375 1.890625,-2.921875 1.921875,-3.015625 2.234375,-3.5625 2.578125,-3.84375 2.796875,-4 3.09375,-4.1875 3.53125,-4.1875 c 0.421875,0 0.53125,0.34375 0.53125,0.703125 0,0.53125 -0.375,1.625 -0.609375,2.234375 C 3.375,-1.03125 3.3125,-0.90625 3.3125,-0.703125 c 0,0.46875 0.359375,0.8125 0.828125,0.8125 0.9375,0 1.296875,-1.453125 1.296875,-1.53125 0,-0.109375 -0.078125,-0.109375 -0.109375,-0.109375 -0.109375,0 -0.109375,0.03125 -0.15625,0.1875 -0.140625,0.53125 -0.46875,1.234375 -1.015625,1.234375 -0.171875,0 -0.234375,-0.09375 -0.234375,-0.328125 0,-0.25 0.078125,-0.484375 0.171875,-0.703125 0.15625,-0.4375 0.609375,-1.625 0.609375,-2.203125 0,-0.640625 -0.390625,-1.0625 -1.140625,-1.0625 -0.625,0 -1.109375,0.3125 -1.484375,0.765625 z m 0,0"
               id="id-67597498-284e-423a-9841-d583993cd195" />
          </symbol>
        </g>
      </defs>
      <g
         id="id-e55b8877-2b01-4798-b3e2-545f3a0f813a"
         transform="translate(-149.906,-126.217)">
        <g
           style="fill:#000000;fill-opacity:1"
           id="id-4680ee7a-3eae-4390-af05-d4382ab32a5f">
          <g
             id="g3872"
             transform="translate(149.908,130.842)">
            <path
               style="stroke:none"
               d="M 3.515625,-1.265625 H 3.28125 c -0.015625,0.15625 -0.09375,0.5625 -0.1875,0.625 C 3.046875,-0.59375 2.515625,-0.59375 2.40625,-0.59375 H 1.125 c 0.734375,-0.640625 0.984375,-0.84375 1.390625,-1.171875 0.515625,-0.40625 1,-0.84375 1,-1.5 0,-0.84375 -0.734375,-1.359375 -1.625,-1.359375 -0.859375,0 -1.453125,0.609375 -1.453125,1.25 0,0.34375 0.296875,0.390625 0.375,0.390625 0.15625,0 0.359375,-0.125 0.359375,-0.375 0,-0.125 -0.046875,-0.375 -0.40625,-0.375 C 0.984375,-4.21875 1.453125,-4.375 1.78125,-4.375 c 0.703125,0 1.0625,0.546875 1.0625,1.109375 0,0.609375 -0.4375,1.078125 -0.65625,1.328125 L 0.515625,-0.265625 C 0.4375,-0.203125 0.4375,-0.1875 0.4375,0 h 2.875 z m 0,0"
               id="id-b221c7b8-6d8c-48c3-8b98-ff56f0332637" />
          </g>
        </g>
        <path
           style="fill:none;stroke:#000000;stroke-width:0.398;stroke-linecap:butt;stroke-linejoin:miter;stroke-miterlimit:10;stroke-opacity:1"
           d="M -0.00175,5.625e-4 H 3.970906"
           transform="matrix(1,0,0,-1,149.908,132.274)"
           id="id-f87efc31-5873-4e69-a821-aa98c3b86034" />
        <g
           style="fill:#000000;fill-opacity:1"
           id="id-d767ffb9-eaf8-4152-ae87-91415aa999e4">
          <g
             id="g3877"
             transform="translate(149.908,138.2)">
            <path
               style="stroke:none"
               d="m 1.90625,-2.328125 c 0.546875,0 0.9375,0.375 0.9375,1.125 0,0.859375 -0.515625,1.125 -0.90625,1.125 -0.28125,0 -0.90625,-0.078125 -1.1875,-0.5 0.328125,0 0.40625,-0.234375 0.40625,-0.390625 0,-0.21875 -0.171875,-0.375 -0.390625,-0.375 -0.1875,0 -0.390625,0.125 -0.390625,0.40625 0,0.65625 0.71875,1.078125 1.5625,1.078125 0.96875,0 1.640625,-0.65625 1.640625,-1.34375 0,-0.546875 -0.4375,-1.09375 -1.203125,-1.25 0.71875,-0.265625 0.984375,-0.78125 0.984375,-1.21875 0,-0.546875 -0.625,-0.953125 -1.40625,-0.953125 -0.765625,0 -1.359375,0.375 -1.359375,0.9375 0,0.234375 0.15625,0.359375 0.359375,0.359375 0.21875,0 0.359375,-0.15625 0.359375,-0.34375 0,-0.203125 -0.140625,-0.359375 -0.359375,-0.375 0.25,-0.296875 0.71875,-0.375 0.984375,-0.375 0.3125,0 0.75,0.15625 0.75,0.75 0,0.296875 -0.09375,0.625 -0.28125,0.828125 -0.21875,0.265625 -0.421875,0.28125 -0.765625,0.3125 -0.171875,0.015625 -0.1875,0.015625 -0.21875,0.015625 -0.015625,0 -0.078125,0.015625 -0.078125,0.09375 0,0.09375 0.0625,0.09375 0.1875,0.09375 z m 0,0"
               id="id-f5b3ba8d-4653-47e3-8da2-e1a15ff4a0b8" />
          </g>
        </g>
        <g
           style="fill:#000000;fill-opacity:1"
           id="id-67580555-9358-4fdd-9e39-e75de714358e">
          <g
             id="g3881"
             transform="translate(155.075,134.765)">
            <path
               style="stroke:none"
               d="m 2.859375,-6.8125 c 0,0 0,-0.109375 -0.125,-0.109375 -0.234375,0 -0.953125,0.078125 -1.21875,0.109375 -0.078125,0 -0.1875,0.015625 -0.1875,0.1875 0,0.125 0.09375,0.125 0.234375,0.125 0.484375,0 0.5,0.0625 0.5,0.171875 L 2.03125,-6.125 0.59375,-0.390625 c -0.046875,0.140625 -0.046875,0.15625 -0.046875,0.21875 0,0.234375 0.203125,0.28125 0.296875,0.28125 0.15625,0 0.3125,-0.125 0.359375,-0.265625 l 0.1875,-0.75 0.21875,-0.890625 C 1.671875,-2.03125 1.734375,-2.25 1.78125,-2.46875 1.796875,-2.53125 1.890625,-2.859375 1.890625,-2.921875 1.921875,-3.015625 2.234375,-3.5625 2.578125,-3.84375 2.796875,-4 3.09375,-4.1875 3.53125,-4.1875 c 0.421875,0 0.53125,0.34375 0.53125,0.703125 0,0.53125 -0.375,1.625 -0.609375,2.234375 C 3.375,-1.03125 3.3125,-0.90625 3.3125,-0.703125 c 0,0.46875 0.359375,0.8125 0.828125,0.8125 0.9375,0 1.296875,-1.453125 1.296875,-1.53125 0,-0.109375 -0.078125,-0.109375 -0.109375,-0.109375 -0.109375,0 -0.109375,0.03125 -0.15625,0.1875 -0.140625,0.53125 -0.46875,1.234375 -1.015625,1.234375 -0.171875,0 -0.234375,-0.09375 -0.234375,-0.328125 0,-0.25 0.078125,-0.484375 0.171875,-0.703125 0.15625,-0.4375 0.609375,-1.625 0.609375,-2.203125 0,-0.640625 -0.390625,-1.0625 -1.140625,-1.0625 -0.625,0 -1.109375,0.3125 -1.484375,0.765625 z m 0,0"
               id="id-92fb0f99-f849-4b42-b32c-86c97d4ac11b" />
          </g>
        </g>
      </g>
    </g>
    <g
       id="g4023"
       ns21:jacobian_sqrt="1.05833"
       ns21:alignment="middle center"
       ns21:scale="3.0"
       ns21:preamble="C:\\Users\\claum\\AppData\\Roaming\\inkscape\\extensions\\textext\\default_packages.tex"
       ns21:text="$r'$"
       ns21:pdfconverter="inkscape"
       ns21:texconverter="pdflatex"
       ns21:version="1.0.1"
       transform="matrix(1.05833,0,0,1.05833,11.0323,12.279716)">
      <defs
         id="id-493a6d22-eb2e-44ff-8c40-3bc038033643">
        <g
           id="id-cdbea000-7cba-44ba-9644-e493d290314f">
          <symbol
             overflow="visible"
             id="id-f87714ec-f810-4293-8747-f37006dedf9e">
            <path
               style="stroke:none"
               d=""
               id="id-e8e706f3-466e-44ab-8b78-20568df67083" />
          </symbol>
          <symbol
             overflow="visible"
             id="id-5f8b4f98-ab84-4c74-91fe-676c53b3b187">
            <path
               style="stroke:none"
               d="m 0.875,-0.59375 c -0.03125,0.15625 -0.09375,0.390625 -0.09375,0.4375 0,0.171875 0.140625,0.265625 0.296875,0.265625 0.125,0 0.296875,-0.078125 0.375,-0.28125 C 1.46875,-0.203125 1.796875,-1.5625 1.84375,-1.75 c 0.078125,-0.328125 0.265625,-1.015625 0.3125,-1.296875 0.046875,-0.125 0.328125,-0.59375 0.5625,-0.8125 0.078125,-0.0625 0.375,-0.328125 0.796875,-0.328125 0.265625,0 0.40625,0.125 0.421875,0.125 -0.296875,0.046875 -0.515625,0.28125 -0.515625,0.546875 0,0.15625 0.109375,0.34375 0.375,0.34375 0.265625,0 0.546875,-0.234375 0.546875,-0.59375 0,-0.34375 -0.3125,-0.640625 -0.828125,-0.640625 C 2.875,-4.40625 2.4375,-3.921875 2.25,-3.640625 2.15625,-4.09375 1.796875,-4.40625 1.328125,-4.40625 0.875,-4.40625 0.6875,-4.015625 0.59375,-3.84375 0.421875,-3.5 0.296875,-2.90625 0.296875,-2.875 c 0,0.109375 0.09375,0.109375 0.109375,0.109375 0.109375,0 0.109375,-0.015625 0.171875,-0.234375 0.171875,-0.703125 0.375,-1.1875 0.734375,-1.1875 0.15625,0 0.296875,0.078125 0.296875,0.453125 0,0.21875 -0.03125,0.328125 -0.15625,0.84375 z m 0,0"
               id="id-14d559a4-194c-4ed3-932b-5943c1e4ef5f" />
          </symbol>
          <symbol
             overflow="visible"
             id="id-e2b70a5a-b6c9-4719-8b1b-dfcd42959fe6">
            <path
               style="stroke:none"
               d=""
               id="id-d85a4cdd-36db-4b94-ad9c-2908667ceeaa" />
          </symbol>
          <symbol
             overflow="visible"
             id="id-bfcae519-7ec8-49a5-95c4-1d4f70db5bab">
            <path
               style="stroke:none"
               d="m 2.015625,-3.296875 c 0.0625,-0.109375 0.0625,-0.171875 0.0625,-0.21875 0,-0.21875 -0.1875,-0.375 -0.40625,-0.375 -0.265625,0 -0.34375,0.21875 -0.375,0.328125 L 0.375,-0.546875 c -0.015625,0.015625 -0.046875,0.09375 -0.046875,0.109375 0,0.078125 0.21875,0.15625 0.28125,0.15625 0.046875,0 0.046875,-0.015625 0.09375,-0.125 z m 0,0"
               id="id-b246a3b8-1d00-4db7-8c82-b1c7f5f5fd2e" />
          </symbol>
        </g>
      </defs>
      <g
         id="id-4714bf79-3df6-43bd-aba9-5825ba9a3347"
         transform="translate(-149.009,-127.258)">
        <g
           style="fill:#000000;fill-opacity:1"
           id="id-1f98c15b-d18d-43ea-8def-4c0af75ffcb1">
          <g
             id="g4015"
             transform="translate(148.712,134.765)">
            <path
               style="stroke:none"
               d="m 0.875,-0.59375 c -0.03125,0.15625 -0.09375,0.390625 -0.09375,0.4375 0,0.171875 0.140625,0.265625 0.296875,0.265625 0.125,0 0.296875,-0.078125 0.375,-0.28125 C 1.46875,-0.203125 1.796875,-1.5625 1.84375,-1.75 c 0.078125,-0.328125 0.265625,-1.015625 0.3125,-1.296875 0.046875,-0.125 0.328125,-0.59375 0.5625,-0.8125 0.078125,-0.0625 0.375,-0.328125 0.796875,-0.328125 0.265625,0 0.40625,0.125 0.421875,0.125 -0.296875,0.046875 -0.515625,0.28125 -0.515625,0.546875 0,0.15625 0.109375,0.34375 0.375,0.34375 0.265625,0 0.546875,-0.234375 0.546875,-0.59375 0,-0.34375 -0.3125,-0.640625 -0.828125,-0.640625 C 2.875,-4.40625 2.4375,-3.921875 2.25,-3.640625 2.15625,-4.09375 1.796875,-4.40625 1.328125,-4.40625 0.875,-4.40625 0.6875,-4.015625 0.59375,-3.84375 0.421875,-3.5 0.296875,-2.90625 0.296875,-2.875 c 0,0.109375 0.09375,0.109375 0.109375,0.109375 0.109375,0 0.109375,-0.015625 0.171875,-0.234375 0.171875,-0.703125 0.375,-1.1875 0.734375,-1.1875 0.15625,0 0.296875,0.078125 0.296875,0.453125 0,0.21875 -0.03125,0.328125 -0.15625,0.84375 z m 0,0"
               id="id-e06b0d44-5bf5-4cdc-bc6c-23e5af9fe7fa" />
          </g>
        </g>
        <g
           style="fill:#000000;fill-opacity:1"
           id="id-42fbf927-55ae-4289-ac22-9c6f573e684f">
          <g
             id="g4019"
             transform="translate(153.484,131.149)">
            <path
               style="stroke:none"
               d="m 2.015625,-3.296875 c 0.0625,-0.109375 0.0625,-0.171875 0.0625,-0.21875 0,-0.21875 -0.1875,-0.375 -0.40625,-0.375 -0.265625,0 -0.34375,0.21875 -0.375,0.328125 L 0.375,-0.546875 c -0.015625,0.015625 -0.046875,0.09375 -0.046875,0.109375 0,0.078125 0.21875,0.15625 0.28125,0.15625 0.046875,0 0.046875,-0.015625 0.09375,-0.125 z m 0,0"
               id="id-63c919ca-d546-4656-8bd5-684aaa98f235" />
          </g>
        </g>
      </g>
    </g>
    <g
       id="g4173"
       ns21:jacobian_sqrt="1.05833"
       ns21:alignment="middle center"
       ns21:scale="3.0"
       ns21:preamble="C:\\Users\\claum\\AppData\\Roaming\\inkscape\\extensions\\textext\\default_packages.tex"
       ns21:text="$r_0$"
       ns21:pdfconverter="inkscape"
       ns21:texconverter="pdflatex"
       ns21:version="1.0.1"
       transform="matrix(1.05833,0,0,1.05833,11.0323,112.5616)">
      <defs
         id="id-37a6604d-0686-45fa-8ef6-cf657b66d25e">
        <g
           id="id-10f91edb-f2b4-4295-82be-7f5ba8255a4c">
          <symbol
             overflow="visible"
             id="id-ebcbb44f-59d6-4e67-8aca-9a35e363a48a">
            <path
               style="stroke:none"
               d=""
               id="id-7074e054-f6da-495c-9472-0ee9de9805fd" />
          </symbol>
          <symbol
             overflow="visible"
             id="id-a0a34748-4cc0-4491-8c44-c6854ea4e682">
            <path
               style="stroke:none"
               d="m 0.875,-0.59375 c -0.03125,0.15625 -0.09375,0.390625 -0.09375,0.4375 0,0.171875 0.140625,0.265625 0.296875,0.265625 0.125,0 0.296875,-0.078125 0.375,-0.28125 C 1.46875,-0.203125 1.796875,-1.5625 1.84375,-1.75 c 0.078125,-0.328125 0.265625,-1.015625 0.3125,-1.296875 0.046875,-0.125 0.328125,-0.59375 0.5625,-0.8125 0.078125,-0.0625 0.375,-0.328125 0.796875,-0.328125 0.265625,0 0.40625,0.125 0.421875,0.125 -0.296875,0.046875 -0.515625,0.28125 -0.515625,0.546875 0,0.15625 0.109375,0.34375 0.375,0.34375 0.265625,0 0.546875,-0.234375 0.546875,-0.59375 0,-0.34375 -0.3125,-0.640625 -0.828125,-0.640625 C 2.875,-4.40625 2.4375,-3.921875 2.25,-3.640625 2.15625,-4.09375 1.796875,-4.40625 1.328125,-4.40625 0.875,-4.40625 0.6875,-4.015625 0.59375,-3.84375 0.421875,-3.5 0.296875,-2.90625 0.296875,-2.875 c 0,0.109375 0.09375,0.109375 0.109375,0.109375 0.109375,0 0.109375,-0.015625 0.171875,-0.234375 0.171875,-0.703125 0.375,-1.1875 0.734375,-1.1875 0.15625,0 0.296875,0.078125 0.296875,0.453125 0,0.21875 -0.03125,0.328125 -0.15625,0.84375 z m 0,0"
               id="id-6702685d-299c-47ab-8d69-1a390a27092e" />
          </symbol>
          <symbol
             overflow="visible"
             id="id-dca29c85-0c6a-4702-942f-9d278881f45a">
            <path
               style="stroke:none"
               d=""
               id="id-050fe0a4-0bbb-4787-9d47-7af22bafdf07" />
          </symbol>
          <symbol
             overflow="visible"
             id="id-5d33697e-2841-4068-9bda-5789982c8643">
            <path
               style="stroke:none"
               d="M 3.59375,-2.21875 C 3.59375,-2.984375 3.5,-3.546875 3.1875,-4.03125 2.96875,-4.34375 2.53125,-4.625 1.984375,-4.625 c -1.625,0 -1.625,1.90625 -1.625,2.40625 0,0.5 0,2.359375 1.625,2.359375 1.609375,0 1.609375,-1.859375 1.609375,-2.359375 z M 1.984375,-0.0625 c -0.328125,0 -0.75,-0.1875 -0.890625,-0.75 C 1,-1.21875 1,-1.796875 1,-2.3125 1,-2.828125 1,-3.359375 1.09375,-3.734375 1.25,-4.28125 1.6875,-4.4375 1.984375,-4.4375 c 0.375,0 0.734375,0.234375 0.859375,0.640625 0.109375,0.375 0.125,0.875 0.125,1.484375 0,0.515625 0,1.03125 -0.09375,1.46875 -0.140625,0.640625 -0.609375,0.78125 -0.890625,0.78125 z m 0,0"
               id="id-5249608c-c073-42e3-97a5-42d03b7485b8" />
          </symbol>
        </g>
      </defs>
      <g
         id="id-38b058cd-5ed1-4bc9-a211-e1a20711843f"
         transform="translate(-149.009,-130.359)">
        <g
           style="fill:#000000;fill-opacity:1"
           id="id-80cd8b7d-cc79-49b9-9948-9ef44632817e">
          <g
             id="g4165"
             transform="translate(148.712,134.765)">
            <path
               style="stroke:none"
               d="m 0.875,-0.59375 c -0.03125,0.15625 -0.09375,0.390625 -0.09375,0.4375 0,0.171875 0.140625,0.265625 0.296875,0.265625 0.125,0 0.296875,-0.078125 0.375,-0.28125 C 1.46875,-0.203125 1.796875,-1.5625 1.84375,-1.75 c 0.078125,-0.328125 0.265625,-1.015625 0.3125,-1.296875 0.046875,-0.125 0.328125,-0.59375 0.5625,-0.8125 0.078125,-0.0625 0.375,-0.328125 0.796875,-0.328125 0.265625,0 0.40625,0.125 0.421875,0.125 -0.296875,0.046875 -0.515625,0.28125 -0.515625,0.546875 0,0.15625 0.109375,0.34375 0.375,0.34375 0.265625,0 0.546875,-0.234375 0.546875,-0.59375 0,-0.34375 -0.3125,-0.640625 -0.828125,-0.640625 C 2.875,-4.40625 2.4375,-3.921875 2.25,-3.640625 2.15625,-4.09375 1.796875,-4.40625 1.328125,-4.40625 0.875,-4.40625 0.6875,-4.015625 0.59375,-3.84375 0.421875,-3.5 0.296875,-2.90625 0.296875,-2.875 c 0,0.109375 0.09375,0.109375 0.109375,0.109375 0.109375,0 0.109375,-0.015625 0.171875,-0.234375 0.171875,-0.703125 0.375,-1.1875 0.734375,-1.1875 0.15625,0 0.296875,0.078125 0.296875,0.453125 0,0.21875 -0.03125,0.328125 -0.15625,0.84375 z m 0,0"
               id="id-11073719-9aee-4697-a2db-11d26b5156ea" />
          </g>
        </g>
        <g
           style="fill:#000000;fill-opacity:1"
           id="id-ccf02cb0-7876-40a3-b4c6-19a616bb56d7">
          <g
             id="g4169"
             transform="translate(153.207,136.259)">
            <path
               style="stroke:none"
               d="M 3.59375,-2.21875 C 3.59375,-2.984375 3.5,-3.546875 3.1875,-4.03125 2.96875,-4.34375 2.53125,-4.625 1.984375,-4.625 c -1.625,0 -1.625,1.90625 -1.625,2.40625 0,0.5 0,2.359375 1.625,2.359375 1.609375,0 1.609375,-1.859375 1.609375,-2.359375 z M 1.984375,-0.0625 c -0.328125,0 -0.75,-0.1875 -0.890625,-0.75 C 1,-1.21875 1,-1.796875 1,-2.3125 1,-2.828125 1,-3.359375 1.09375,-3.734375 1.25,-4.28125 1.6875,-4.4375 1.984375,-4.4375 c 0.375,0 0.734375,0.234375 0.859375,0.640625 0.109375,0.375 0.125,0.875 0.125,1.484375 0,0.515625 0,1.03125 -0.09375,1.46875 -0.140625,0.640625 -0.609375,0.78125 -0.890625,0.78125 z m 0,0"
               id="id-56f3b60a-47e3-4967-a8b1-46e9fa78a52d" />
          </g>
        </g>
      </g>
    </g>
    <g
       id="g4333"
       ns21:jacobian_sqrt="1.05833"
       ns21:alignment="middle center"
       ns21:scale="3.0"
       ns21:preamble="C:\\Users\\claum\\AppData\\Roaming\\inkscape\\extensions\\textext\\default_packages.tex"
       ns21:text="$r$"
       ns21:pdfconverter="inkscape"
       ns21:texconverter="pdflatex"
       ns21:version="1.0.1"
       transform="matrix(1.05833,0,0,1.05833,180.0323,162.5616)">
      <defs
         id="id-f1047283-ca7e-4f90-b95b-5a775405d2d5">
        <g
           id="id-88f406c1-a4d8-4651-83b8-3f6a9be59ea3">
          <symbol
             overflow="visible"
             id="id-0fc69b43-0d40-4139-8dcd-c5cd2e9aab7d">
            <path
               style="stroke:none"
               d=""
               id="id-0d81ccfc-08ab-44c2-b8a3-0391dfaba64d" />
          </symbol>
          <symbol
             overflow="visible"
             id="id-91303c94-4ab2-4073-b2a6-07d5909b8efa">
            <path
               style="stroke:none"
               d="m 0.875,-0.59375 c -0.03125,0.15625 -0.09375,0.390625 -0.09375,0.4375 0,0.171875 0.140625,0.265625 0.296875,0.265625 0.125,0 0.296875,-0.078125 0.375,-0.28125 C 1.46875,-0.203125 1.796875,-1.5625 1.84375,-1.75 c 0.078125,-0.328125 0.265625,-1.015625 0.3125,-1.296875 0.046875,-0.125 0.328125,-0.59375 0.5625,-0.8125 0.078125,-0.0625 0.375,-0.328125 0.796875,-0.328125 0.265625,0 0.40625,0.125 0.421875,0.125 -0.296875,0.046875 -0.515625,0.28125 -0.515625,0.546875 0,0.15625 0.109375,0.34375 0.375,0.34375 0.265625,0 0.546875,-0.234375 0.546875,-0.59375 0,-0.34375 -0.3125,-0.640625 -0.828125,-0.640625 C 2.875,-4.40625 2.4375,-3.921875 2.25,-3.640625 2.15625,-4.09375 1.796875,-4.40625 1.328125,-4.40625 0.875,-4.40625 0.6875,-4.015625 0.59375,-3.84375 0.421875,-3.5 0.296875,-2.90625 0.296875,-2.875 c 0,0.109375 0.09375,0.109375 0.109375,0.109375 0.109375,0 0.109375,-0.015625 0.171875,-0.234375 0.171875,-0.703125 0.375,-1.1875 0.734375,-1.1875 0.15625,0 0.296875,0.078125 0.296875,0.453125 0,0.21875 -0.03125,0.328125 -0.15625,0.84375 z m 0,0"
               id="id-f66fcef6-38c9-4ec9-adec-b7931857b074" />
          </symbol>
        </g>
      </defs>
      <g
         id="id-8e7b4c62-70af-456b-a2de-4ae5665c4359"
         transform="translate(-149.009,-130.359)">
        <g
           style="fill:#000000;fill-opacity:1"
           id="id-ec94856f-0202-4564-b1df-ae70c582125d">
          <g
             id="g4329"
             transform="translate(148.712,134.765)">
            <path
               style="stroke:none"
               d="m 0.875,-0.59375 c -0.03125,0.15625 -0.09375,0.390625 -0.09375,0.4375 0,0.171875 0.140625,0.265625 0.296875,0.265625 0.125,0 0.296875,-0.078125 0.375,-0.28125 C 1.46875,-0.203125 1.796875,-1.5625 1.84375,-1.75 c 0.078125,-0.328125 0.265625,-1.015625 0.3125,-1.296875 0.046875,-0.125 0.328125,-0.59375 0.5625,-0.8125 0.078125,-0.0625 0.375,-0.328125 0.796875,-0.328125 0.265625,0 0.40625,0.125 0.421875,0.125 -0.296875,0.046875 -0.515625,0.28125 -0.515625,0.546875 0,0.15625 0.109375,0.34375 0.375,0.34375 0.265625,0 0.546875,-0.234375 0.546875,-0.59375 0,-0.34375 -0.3125,-0.640625 -0.828125,-0.640625 C 2.875,-4.40625 2.4375,-3.921875 2.25,-3.640625 2.15625,-4.09375 1.796875,-4.40625 1.328125,-4.40625 0.875,-4.40625 0.6875,-4.015625 0.59375,-3.84375 0.421875,-3.5 0.296875,-2.90625 0.296875,-2.875 c 0,0.109375 0.09375,0.109375 0.109375,0.109375 0.109375,0 0.109375,-0.015625 0.171875,-0.234375 0.171875,-0.703125 0.375,-1.1875 0.734375,-1.1875 0.15625,0 0.296875,0.078125 0.296875,0.453125 0,0.21875 -0.03125,0.328125 -0.15625,0.84375 z m 0,0"
               id="id-dc220a0e-2d7e-478c-88d0-0d7f850eac0c" />
          </g>
        </g>
      </g>
    </g>
    <path
       transform="scale(0.26458333)"
       id="path1670"
       d="m 50.6185,593.15941 c 5.374957,-5.88494 44.486936,-47.95209 86.91551,-93.48257 l 77.14285,-82.78267 65.91859,-0.0889 c 74.04564,-0.0998 70.4779,-0.67503 64.28554,10.36461 -1.84335,3.28631 -10.29661,18.18939 -18.78501,33.11796 -8.4884,14.92857 -17.03144,30.03572 -18.98454,33.57143 -1.9531,3.53571 -6.67488,11.75187 -10.49283,18.25811 -3.81796,6.50625 -6.94175,12.07813 -6.94175,12.38196 0,0.46972 -3.7157,7.03382 -15.00228,26.50279 -1.13874,1.96428 -8.30273,14.66071 -15.91997,28.21428 l -13.84955,24.64286 H 142.87546 40.845851 Z"
       style="opacity:0.0349854;fill:#000000;stroke:#000000;stroke-width:1.43082" />
    <path
       transform="scale(0.26458333)"
       id="path1672"
       d="m 248.24829,603.03712 c 0,-0.4522 2.49897,-5.11291 5.55326,-10.35714 5.25972,-9.03094 7.05663,-12.1843 15.56641,-27.31706 1.96506,-3.49444 5.40989,-9.46916 7.65516,-13.27715 2.24527,-3.80799 4.08232,-7.22953 4.08232,-7.60343 0,-0.37389 1.49904,-3.07775 3.3312,-6.00856 1.83217,-2.93082 5.2732,-8.86447 7.64675,-13.1859 2.37354,-4.32143 8.91021,-15.80078 14.52593,-25.50967 5.61572,-9.70889 10.2104,-17.82203 10.2104,-18.02921 0,-0.20718 4.17857,-7.5661 9.28572,-16.35316 5.10714,-8.78706 9.28571,-16.21008 9.28571,-16.49561 0,-0.28552 2.77366,-5.23296 6.16369,-10.99431 3.39002,-5.76135 6.58413,-11.60018 7.09802,-12.97518 0.55068,-1.47345 2.41428,-2.5 4.53849,-2.5 2.05701,0 4.37011,-1.22648 5.38848,-2.85714 1.74161,-2.78878 3.33146,-2.85715 66.44068,-2.85715 35.561,0 64.65635,0.17474 64.65635,0.38831 0,0.21356 -8.35714,42.14597 -18.57142,93.18312 -10.21429,51.03716 -18.57143,92.96956 -18.57143,93.18313 0,0.21356 -45.96429,0.3883 -102.14286,0.3883 -56.17857,0 -102.14286,-0.36999 -102.14286,-0.82219 z M 375.90605,448.66513 c 6.13065,-0.8403 6.62796,-1.21545 6.62796,-5 0,-2.68454 0.73688,-4.09153 2.14285,-4.09153 1.17858,0 2.14286,-0.64286 2.14286,-1.42858 0,-0.79365 -3.80952,-1.42857 -8.57143,-1.42857 -4.7619,0 -8.57143,0.63492 -8.57143,1.42857 0,0.78572 1.28572,1.42858 2.85715,1.42858 1.90476,0 2.85714,0.95238 2.85714,2.85714 0,2.22222 -0.95238,2.85714 -4.28571,2.85714 -11.99972,0 -13.70199,-18.6672 -2.01019,-22.04374 3.40176,-0.98242 10.58161,3.86727 10.58161,7.14743 0,1.12154 0.64286,2.03917 1.42858,2.03917 0.78571,0 1.42826,-2.73214 1.42788,-6.07143 l -6.8e-4,-6.07143 -7.93547,-0.3433 c -9.83595,-0.42551 -17.30839,2.49503 -19.21511,7.51006 -3.20209,8.42214 -0.67283,16.43178 6.27043,19.85712 5.14045,2.53595 5.42713,2.56317 14.25356,1.35337 z"
       style="opacity:0.0349854;fill:#000000;stroke:#000000;stroke-width:1.43082" />
    <path
       transform="scale(0.26458333)"
       id="path1674"
       d="m 359.03127,411.21861 c -0.81,-2.5521 0.35422,-5.54767 5.08102,-13.07359 1.2337,-1.96428 5.49821,-9.35714 9.47667,-16.42857 11.35306,-20.17923 12.38761,-22.00848 20.908,-36.96885 4.42037,-7.76145 8.03705,-14.2976 8.03705,-14.52482 0,-0.22721 2.89285,-5.30617 6.42857,-11.28657 3.53571,-5.98041 6.42857,-11.10577 6.42857,-11.3897 0,-0.28393 5.14286,-9.29647 11.42857,-20.02787 6.28572,-10.7314 11.42857,-19.81479 11.42857,-20.1853 0,-0.37052 1.49905,-3.0716 3.33121,-6.00242 1.83216,-2.93081 5.28513,-8.86447 7.67326,-13.1859 2.38812,-4.32142 10.85337,-19.36242 18.81165,-33.42444 7.95828,-14.06201 14.4696,-25.82019 14.4696,-26.12927 0,-0.30909 1.19394,-2.3038 2.65321,-4.4327 2.47012,-3.60363 11.86714,-20.06166 20.97046,-36.72787 2.14583,-3.92857 4.36577,-7.78572 4.9332,-8.57143 0.56743,-0.78571 2.96877,-4.96429 5.33631,-9.28571 5.68103,-10.36944 33.13956,-58.768643 38.49767,-67.857147 2.31609,-3.928572 4.66935,-8.359868 5.22945,-9.847326 4.53398,-12.040754 -1.82449,22.25668 -33.47033,180.537783 l -36.27858,181.4524 h -65.268 c -62.23015,0 -65.30701,-0.12286 -66.10613,-2.6407 z"
       style="opacity:0.0349854;fill:#000000;stroke:#000000;stroke-width:1.43082" />
    <path
       transform="scale(0.26458333)"
       id="path1676"
       d="M 228.49019,402.52302 C 274.48702,352.73175 557.61716,49.939641 557.91671,50.219508 c 0.42503,0.397131 -2.09785,5.314198 -5.53242,10.782659 -1.94207,3.092136 -10.08758,17.414246 -19.49955,34.285714 -1.53413,2.75 -9.31206,16.481429 -17.28432,30.514279 -7.97224,14.03286 -14.49498,25.69439 -14.49498,25.91453 0,0.22013 -5.14286,9.18047 -11.42858,19.91186 -6.28571,10.7314 -11.42857,19.74889 -11.42857,20.03887 0,0.28998 -2.89285,5.4203 -6.42857,11.4007 -3.53571,5.98042 -6.42857,11.19018 -6.42857,11.57725 0,0.38707 -1.52406,3.1007 -3.38679,6.03028 -1.86274,2.92959 -10.97217,18.82652 -20.24318,35.32652 -9.271,16.5 -19.96124,35.3233 -23.75606,41.82954 -3.79483,6.50624 -6.89968,12.14403 -6.89968,12.52839 0,0.38437 -1.49905,3.09678 -3.33122,6.0276 -1.83216,2.93081 -5.28381,8.86447 -7.67034,13.1859 -6.37627,11.54591 -33.64376,59.56537 -38.53216,67.85714 -2.31608,3.92857 -4.63403,8.26786 -5.15098,9.64286 -0.51696,1.375 -2.16709,2.5 -3.66698,2.5 -1.49988,0 -3.52734,0.96428 -4.50547,2.14285 -1.53255,1.84662 -10.65742,2.14286 -66.00445,2.14286 H 218.0178 Z"
       style="opacity:0.0349854;fill:#000000;stroke:#000000;stroke-width:1.43082" />
  </g>
</svg>
