<?xml version="1.0" encoding="UTF-8" standalone="no"?>
<svg
   xmlns:ns2="http://www.iki.fi/pav/software/textext/"
   xmlns:dc="http://purl.org/dc/elements/1.1/"
   xmlns:cc="http://creativecommons.org/ns#"
   xmlns:rdf="http://www.w3.org/1999/02/22-rdf-syntax-ns#"
   xmlns:svg="http://www.w3.org/2000/svg"
   xmlns="http://www.w3.org/2000/svg"
   xmlns:sodipodi="http://sodipodi.sourceforge.net/DTD/sodipodi-0.dtd"
   xmlns:inkscape="http://www.inkscape.org/namespaces/inkscape"
   sodipodi:docname="Figura6_1.svg"
   inkscape:version="1.0 (4035a4fb49, 2020-05-01)"
   id="svg8"
   version="1.1"
   viewBox="0 0 390.99998 389.99999"
   height="39cm"
   width="39.099998cm">
  <defs
     id="defs2">
    <marker
       inkscape:stockid="Arrow1Lend"
       orient="auto"
       refY="0"
       refX="0"
       id="marker1129"
       style="overflow:visible"
       inkscape:isstock="true">
      <path
         id="path1127"
         d="M 0,0 5,-5 -12.5,0 5,5 Z"
         style="fill:#000000;fill-opacity:1;fill-rule:evenodd;stroke:#000000;stroke-width:1pt;stroke-opacity:1"
         transform="matrix(-0.8,0,0,-0.8,-10,0)" />
    </marker>
    <marker
       inkscape:collect="always"
       inkscape:isstock="true"
       style="overflow:visible"
       id="Arrow1Lend"
       refX="0"
       refY="0"
       orient="auto"
       inkscape:stockid="Arrow1Lend">
      <path
         transform="matrix(-0.8,0,0,-0.8,-10,0)"
         style="fill:#000000;fill-opacity:1;fill-rule:evenodd;stroke:#000000;stroke-width:1pt;stroke-opacity:1"
         d="M 0,0 5,-5 -12.5,0 5,5 Z"
         id="path840" />
    </marker>
  </defs>
  <sodipodi:namedview
     inkscape:window-maximized="0"
     inkscape:window-y="0"
     inkscape:window-x="0"
     inkscape:window-height="738"
     inkscape:window-width="1366"
     units="cm"
     showgrid="true"
     inkscape:document-rotation="0"
     inkscape:current-layer="layer1"
     inkscape:document-units="mm"
     inkscape:cy="1293.5394"
     inkscape:cx="1177.5547"
     inkscape:zoom="0.5"
     inkscape:pageshadow="2"
     inkscape:pageopacity="0.0"
     borderopacity="1.0"
     bordercolor="#666666"
     pagecolor="#ffffff"
     id="base">
    <inkscape:grid
       units="cm"
       id="grid10"
       type="xygrid" />
  </sodipodi:namedview>
  <metadata
     id="metadata5">
    <rdf:RDF>
      <cc:Work
         rdf:about="">
        <dc:format>image/svg+xml</dc:format>
        <dc:type
           rdf:resource="http://purl.org/dc/dcmitype/StillImage" />
        <dc:title></dc:title>
      </cc:Work>
    </rdf:RDF>
  </metadata>
  <g
     id="layer1"
     inkscape:groupmode="layer"
     inkscape:label="Livello 1">
    <g
       transform="translate(-10,-15)"
       id="g1243">
      <path
         style="fill:none;stroke:#000000;stroke-width:0.265;stroke-linecap:butt;stroke-linejoin:miter;stroke-miterlimit:4;stroke-dasharray:none;stroke-opacity:1;marker-end:url(#Arrow1Lend)"
         d="M 20,210 H 400"
         id="path12" />
      <path
         id="path1125"
         d="m 190,401.34573 v -380"
         style="fill:none;stroke:#000000;stroke-width:0.265;stroke-linecap:butt;stroke-linejoin:miter;stroke-miterlimit:4;stroke-dasharray:none;stroke-opacity:1;marker-end:url(#marker1129)" />
      <ellipse
         style="fill:none;stroke:#000000;stroke-width:0.4;stroke-miterlimit:4;stroke-dasharray:none"
         id="path1185"
         cx="190"
         cy="210"
         rx="30"
         ry="60" />
      <path
         style="fill:none;stroke:#000000;stroke-width:0.264583px;stroke-linecap:butt;stroke-linejoin:miter;stroke-opacity:1"
         d="M 190,309.99998 C 176.35929,308.32074 161.95975,306.77149 150,300 c -12.30649,-6.96781 -23.32692,-17.53125 -30,-30.00001 -8.02004,-14.98558 -14.3728,-26.28241 -16.04762,-43.19642 -0.32846,-3.31711 -0.75595,-29.72322 -0.75595,-33.05655 0,-20 -0.8501,-25.26943 6.80357,-43.74702 3.60797,-8.71042 12.70886,-14.0227 20,-20 9.29442,-7.6196 19.20359,-14.71965 30,-20 9.46907,-4.63117 19.59518,-8.31153 30,-10 13.16117,-2.135763 27.15047,-3.559115 40,0 18.73125,5.18826 38.42883,14.38315 49.99999,30 8.18205,11.04278 11.49968,26.33838 10.00001,40 -0.81331,7.40906 -4.72955,14.72954 -10.00001,20 -5.27046,5.27046 -14.72953,4.72954 -19.99999,10 -5.27046,5.27046 -10,12.54644 -10,20 0,7.45356 6.66667,13.33333 10,20 3.33333,6.66667 9.99999,12.54644 9.99999,20 0,7.45356 -6.66666,13.33333 -9.99999,19.99999 -3.33333,6.66667 -4.36918,15.11642 -10,20.00001 -7.96318,6.90643 -19.59519,8.31151 -30,9.99998 -9.87088,1.60182 -20.07492,1.22183 -30,0 z"
         id="path1187"
         sodipodi:nodetypes="sssssssssssssssssssss" />
      <path
         style="fill:none;stroke:#000000;stroke-width:0.4;stroke-linecap:butt;stroke-linejoin:miter;stroke-miterlimit:4;stroke-dasharray:none;stroke-opacity:1"
         d="M 190,210 150,140"
         id="path1189" />
      <path
         id="path1191"
         d="M 230,280 190,210"
         style="fill:none;stroke:#000000;stroke-width:0.4;stroke-linecap:butt;stroke-linejoin:miter;stroke-miterlimit:4;stroke-dasharray:none;stroke-opacity:1" />
      <path
         style="fill:none;stroke:#000000;stroke-width:0.4;stroke-linecap:butt;stroke-linejoin:miter;stroke-miterlimit:4;stroke-dasharray:none;stroke-opacity:1"
         d="M 270,350 230,280"
         id="path1193" />
      <path
         id="path1197"
         d="M 236,210 196,140"
         style="fill:none;stroke:#000000;stroke-width:0.4;stroke-linecap:butt;stroke-linejoin:miter;stroke-miterlimit:4;stroke-dasharray:none;stroke-opacity:1" />
      <path
         style="fill:none;stroke:#000000;stroke-width:0.4;stroke-linecap:butt;stroke-linejoin:miter;stroke-miterlimit:4;stroke-dasharray:none;stroke-opacity:1"
         d="M 276,280 236,210"
         id="path1199" />
      <path
         id="path1201"
         d="M 316,350 276,280"
         style="fill:none;stroke:#000000;stroke-width:0.4;stroke-linecap:butt;stroke-linejoin:miter;stroke-miterlimit:4;stroke-dasharray:none;stroke-opacity:1" />
      <path
         style="fill:none;stroke:#000000;stroke-width:0.4;stroke-linecap:butt;stroke-linejoin:miter;stroke-miterlimit:4;stroke-dasharray:none;stroke-opacity:1"
         d="m 150,140 -5,-10"
         id="path1203" />
      <path
         id="path1205"
         d="m 196,140 -5,-10"
         style="fill:none;stroke:#000000;stroke-width:0.4;stroke-linecap:butt;stroke-linejoin:miter;stroke-miterlimit:4;stroke-dasharray:none;stroke-opacity:1" />
      <path
         style="fill:none;stroke:#000000;stroke-width:0.4;stroke-linecap:butt;stroke-linejoin:miter;stroke-miterlimit:4;stroke-dasharray:none;stroke-opacity:1"
         d="m 321,360 -5,-10"
         id="path1207" />
      <path
         id="path1209"
         d="m 275,360 -5,-10"
         style="fill:none;stroke:#000000;stroke-width:0.4;stroke-linecap:butt;stroke-linejoin:miter;stroke-miterlimit:4;stroke-dasharray:none;stroke-opacity:1" />
      <path
         style="fill:none;stroke:#000000;stroke-width:0.4;stroke-linecap:butt;stroke-linejoin:miter;stroke-miterlimit:4;stroke-dasharray:none;stroke-opacity:1"
         d="m 280,370 -5,-10"
         id="path1211" />
      <path
         id="path1213"
         d="m 326,370 -5,-10"
         style="fill:none;stroke:#000000;stroke-width:0.4;stroke-linecap:butt;stroke-linejoin:miter;stroke-miterlimit:4;stroke-dasharray:none;stroke-opacity:1" />
    </g>
    <path
       id="path1293"
       d="m 265,345 19.99999,-10"
       style="fill:none;stroke:#000000;stroke-width:0.264583px;stroke-linecap:butt;stroke-linejoin:miter;stroke-opacity:1" />
    <path
       sodipodi:nodetypes="cc"
       style="fill:none;stroke:#000000;stroke-width:0.264583px;stroke-linecap:butt;stroke-linejoin:miter;stroke-opacity:1"
       d="M 285.00001,335 301.4,326.9"
       id="path1295" />
    <path
       id="path1297"
       d="m 265,344.99999 2.00001,-7"
       style="fill:none;stroke:#000000;stroke-width:0.264583px;stroke-linecap:butt;stroke-linejoin:miter;stroke-opacity:1" />
    <path
       style="fill:none;stroke:#000000;stroke-width:0.264583px;stroke-linecap:butt;stroke-linejoin:miter;stroke-opacity:1"
       d="m 265,345 -2,7"
       id="path1299" />
    <path
       sodipodi:nodetypes="cc"
       id="path1301"
       d="m 301.4,326.9 -2,7"
       style="fill:none;stroke:#000000;stroke-width:0.264583px;stroke-linecap:butt;stroke-linejoin:miter;stroke-opacity:1" />
    <path
       style="fill:none;stroke:#000000;stroke-width:0.264583px;stroke-linecap:butt;stroke-linejoin:miter;stroke-opacity:1"
       d="m 301.4,326.9 2,-7"
       id="path1303"
       sodipodi:nodetypes="cc" />
    <path
       id="path1317"
       d="M 269.99999,355 275,365.00001"
       style="fill:none;stroke:#000000;stroke-width:0.4;stroke-linecap:butt;stroke-linejoin:miter;stroke-opacity:1;stroke-miterlimit:4;stroke-dasharray:none" />
    <path
       id="path1319"
       d="M 180,135 H 30"
       style="fill:none;stroke:#000000;stroke-width:0.26458299;stroke-linecap:butt;stroke-linejoin:miter;stroke-opacity:1;stroke-miterlimit:4;stroke-dasharray:0.26458299,0.26458299;stroke-dashoffset:0" />
    <path
       id="path1321"
       d="m 39.999999,135 v 60"
       style="fill:none;stroke:#000000;stroke-width:0.264583px;stroke-linecap:butt;stroke-linejoin:miter;stroke-opacity:1" />
    <path
       id="path1323"
       d="M 30,205 50,185"
       style="fill:none;stroke:#000000;stroke-width:0.264583px;stroke-linecap:butt;stroke-linejoin:miter;stroke-opacity:1" />
    <path
       style="fill:none;stroke:#000000;stroke-width:0.264583px;stroke-linecap:butt;stroke-linejoin:miter;stroke-opacity:1"
       d="M 30,145 50,125"
       id="path1325" />
    <path
       style="fill:none;stroke:#000000;stroke-width:0.264583;stroke-linecap:butt;stroke-linejoin:miter;stroke-miterlimit:4;stroke-dasharray:0.264583, 0.264583;stroke-dashoffset:0;stroke-opacity:1"
       d="M 150,195 V 45"
       id="path1327" />
    <path
       id="path1329"
       d="m 150,55 h 30"
       style="fill:none;stroke:#000000;stroke-width:0.264583px;stroke-linecap:butt;stroke-linejoin:miter;stroke-opacity:1" />
    <path
       id="path1331"
       d="m 140,64.999999 20,-20"
       style="fill:none;stroke:#000000;stroke-width:0.264583px;stroke-linecap:butt;stroke-linejoin:miter;stroke-opacity:1" />
    <path
       id="path1333"
       d="m 170,64.999999 20,-20"
       style="fill:none;stroke:#000000;stroke-width:0.264583px;stroke-linecap:butt;stroke-linejoin:miter;stroke-opacity:1" />
    <g
       transform="matrix(1.41111,0,0,1.41111,23.21424,159.5764)"
       ns2:version="1.0.1"
       ns2:texconverter="pdflatex"
       ns2:pdfconverter="inkscape"
       ns2:text="$\\rho_{\\xi}$"
       ns2:preamble="C:\\Users\\claum\\AppData\\Roaming\\inkscape\\extensions\\textext\\default_packages.tex"
       ns2:scale="4.0"
       ns2:alignment="middle center"
       ns2:inkscapeversion="1.0"
       ns2:jacobian_sqrt="1.41111"
       id="g1394">
      <defs
         id="id-e950791c-d30f-4932-b733-773e12ad9c5a">
        <g
           id="id-07e920bd-00fc-42b6-ad9c-2ce8f6da0502">
          <symbol
             id="id-286dc3a3-6372-4eb7-8b27-e9d8ee06c58b"
             overflow="visible">
            <path
               id="id-8edd7d45-7b28-41d8-9997-ef3ded87c9f7"
               d=""
               style="stroke:none" />
          </symbol>
          <symbol
             id="id-d30dfa91-2dc7-4701-88e3-5f6f0f315516"
             overflow="visible">
            <path
               id="id-6d5cf6b7-c5cb-4187-acfa-0fcddb07fc0f"
               d="m 0.328125,1.71875 c -0.03125,0.125 -0.03125,0.140625 -0.03125,0.171875 0,0.140625 0.109375,0.265625 0.28125,0.265625 0.203125,0 0.328125,-0.1875 0.34375,-0.21875 0.0625,-0.078125 0.375,-1.421875 0.640625,-2.5 0.203125,0.40625 0.515625,0.671875 0.984375,0.671875 C 3.71875,0.109375 5,-1.296875 5,-2.78125 c 0,-1.0625 -0.65625,-1.625 -1.375,-1.625 -0.96875,0 -2.015625,1 -2.3125,2.21875 z m 2.21875,-1.828125 C 1.84375,-0.109375 1.6875,-0.90625 1.6875,-1 c 0,-0.03125 0.046875,-0.234375 0.078125,-0.359375 0.28125,-1.125 0.375,-1.484375 0.59375,-1.875 0.4375,-0.734375 0.9375,-0.953125 1.234375,-0.953125 0.375,0 0.6875,0.296875 0.6875,0.984375 0,0.546875 -0.28125,1.65625 -0.546875,2.140625 -0.328125,0.640625 -0.8125,0.953125 -1.1875,0.953125 z m 0,0"
               style="stroke:none" />
          </symbol>
          <symbol
             id="id-41c2bda4-5b19-4a16-bd87-80e23f28aace"
             overflow="visible">
            <path
               id="id-a627f9ea-dd84-46b4-a981-e098a83e475b"
               d=""
               style="stroke:none" />
          </symbol>
          <symbol
             id="id-214a56f1-7f53-4718-95ae-8e2f946a7571"
             overflow="visible">
            <path
               id="id-5e8fb9a3-ab4c-4996-ad7d-3adacb429814"
               d="M 1.890625,0.484375 C 1.9375,0.5 2.109375,0.5625 2.171875,0.578125 c 0.34375,0.125 0.4375,0.140625 0.4375,0.328125 0,0.09375 -0.078125,0.3125 -0.3125,0.3125 -0.109375,0 -0.375,-0.015625 -0.6875,-0.1875 C 1.5625,0.984375 1.546875,0.984375 1.53125,0.984375 c -0.046875,0 -0.109375,0.03125 -0.109375,0.109375 0,0.125 0.5,0.328125 0.875,0.328125 0.484375,0 0.75,-0.4375 0.75,-0.765625 0,-0.265625 -0.140625,-0.390625 -0.28125,-0.46875 C 2.703125,0.15625 1.828125,-0.140625 1.75,-0.171875 1.078125,-0.40625 0.703125,-0.53125 0.703125,-0.9375 c 0,-0.25 0.25,-0.796875 0.84375,-1.109375 0.296875,0.109375 0.59375,0.109375 0.71875,0.109375 0.25,0 0.71875,0 0.71875,-0.265625 0,-0.21875 -0.390625,-0.21875 -0.640625,-0.21875 -0.15625,0 -0.375,0 -0.65625,0.09375 -0.1875,-0.140625 -0.234375,-0.375 -0.234375,-0.53125 0,-0.40625 0.28125,-0.890625 0.8125,-1.140625 0.15625,0.1875 0.328125,0.1875 0.5,0.1875 0.21875,0 0.6875,0 0.6875,-0.265625 0,-0.21875 -0.390625,-0.21875 -0.640625,-0.21875 -0.109375,0 -0.265625,0 -0.453125,0.03125 0,0 -0.03125,-0.125 -0.03125,-0.203125 0,-0.078125 0.015625,-0.171875 0.03125,-0.234375 C 2.359375,-4.71875 2.375,-4.75 2.375,-4.765625 2.375,-4.8125 2.328125,-4.875 2.265625,-4.875 c -0.171875,0 -0.171875,0.265625 -0.171875,0.390625 0,0.03125 0,0.171875 0.03125,0.265625 -0.953125,0.265625 -1.28125,0.859375 -1.28125,1.3125 0,0.28125 0.125,0.5625 0.453125,0.75 -0.78125,0.453125 -1.015625,1.140625 -1.015625,1.4375 0,0.640625 0.671875,0.875 0.890625,0.953125 z M 3.1875,-4.0625 c -0.0625,0.015625 -0.140625,0.046875 -0.421875,0.046875 -0.109375,0 -0.1875,0 -0.28125,-0.046875 0.125,-0.03125 0.1875,-0.03125 0.328125,-0.03125 0.21875,0 0.265625,0 0.375,0.03125 z m -0.484375,1.875 c -0.09375,0.03125 -0.1875,0.046875 -0.421875,0.046875 -0.125,0 -0.21875,0 -0.34375,-0.046875 0.1875,-0.03125 0.25,-0.03125 0.40625,-0.03125 0.21875,0 0.234375,0 0.359375,0.03125 z m 0,0"
               style="stroke:none" />
          </symbol>
        </g>
      </defs>
      <g
         transform="translate(-149.009,-130.359)"
         id="id-e23e8b81-ac8d-4a9c-a28f-bbd0c65b7357">
        <g
           id="id-2676b037-b9b0-4484-bb3b-04f15f857326"
           style="fill:#000000;fill-opacity:1">
          <g
             transform="translate(148.712,134.765)"
             id="g1386">
            <path
               id="id-6077b86a-e1f2-499b-9fe5-7e3823eff282"
               d="m 0.328125,1.71875 c -0.03125,0.125 -0.03125,0.140625 -0.03125,0.171875 0,0.140625 0.109375,0.265625 0.28125,0.265625 0.203125,0 0.328125,-0.1875 0.34375,-0.21875 0.0625,-0.078125 0.375,-1.421875 0.640625,-2.5 0.203125,0.40625 0.515625,0.671875 0.984375,0.671875 C 3.71875,0.109375 5,-1.296875 5,-2.78125 c 0,-1.0625 -0.65625,-1.625 -1.375,-1.625 -0.96875,0 -2.015625,1 -2.3125,2.21875 z m 2.21875,-1.828125 C 1.84375,-0.109375 1.6875,-0.90625 1.6875,-1 c 0,-0.03125 0.046875,-0.234375 0.078125,-0.359375 0.28125,-1.125 0.375,-1.484375 0.59375,-1.875 0.4375,-0.734375 0.9375,-0.953125 1.234375,-0.953125 0.375,0 0.6875,0.296875 0.6875,0.984375 0,0.546875 -0.28125,1.65625 -0.546875,2.140625 -0.328125,0.640625 -0.8125,0.953125 -1.1875,0.953125 z m 0,0"
               style="stroke:none" />
          </g>
        </g>
        <g
           id="id-cb47a735-5d5a-421f-8d00-74ee1c886bd0"
           style="fill:#000000;fill-opacity:1">
          <g
             transform="translate(153.863,136.259)"
             id="g1390">
            <path
               id="id-f440117f-8c9d-49d3-9815-08aa71973430"
               d="M 1.890625,0.484375 C 1.9375,0.5 2.109375,0.5625 2.171875,0.578125 c 0.34375,0.125 0.4375,0.140625 0.4375,0.328125 0,0.09375 -0.078125,0.3125 -0.3125,0.3125 -0.109375,0 -0.375,-0.015625 -0.6875,-0.1875 C 1.5625,0.984375 1.546875,0.984375 1.53125,0.984375 c -0.046875,0 -0.109375,0.03125 -0.109375,0.109375 0,0.125 0.5,0.328125 0.875,0.328125 0.484375,0 0.75,-0.4375 0.75,-0.765625 0,-0.265625 -0.140625,-0.390625 -0.28125,-0.46875 C 2.703125,0.15625 1.828125,-0.140625 1.75,-0.171875 1.078125,-0.40625 0.703125,-0.53125 0.703125,-0.9375 c 0,-0.25 0.25,-0.796875 0.84375,-1.109375 0.296875,0.109375 0.59375,0.109375 0.71875,0.109375 0.25,0 0.71875,0 0.71875,-0.265625 0,-0.21875 -0.390625,-0.21875 -0.640625,-0.21875 -0.15625,0 -0.375,0 -0.65625,0.09375 -0.1875,-0.140625 -0.234375,-0.375 -0.234375,-0.53125 0,-0.40625 0.28125,-0.890625 0.8125,-1.140625 0.15625,0.1875 0.328125,0.1875 0.5,0.1875 0.21875,0 0.6875,0 0.6875,-0.265625 0,-0.21875 -0.390625,-0.21875 -0.640625,-0.21875 -0.109375,0 -0.265625,0 -0.453125,0.03125 0,0 -0.03125,-0.125 -0.03125,-0.203125 0,-0.078125 0.015625,-0.171875 0.03125,-0.234375 C 2.359375,-4.71875 2.375,-4.75 2.375,-4.765625 2.375,-4.8125 2.328125,-4.875 2.265625,-4.875 c -0.171875,0 -0.171875,0.265625 -0.171875,0.390625 0,0.03125 0,0.171875 0.03125,0.265625 -0.953125,0.265625 -1.28125,0.859375 -1.28125,1.3125 0,0.28125 0.125,0.5625 0.453125,0.75 -0.78125,0.453125 -1.015625,1.140625 -1.015625,1.4375 0,0.640625 0.671875,0.875 0.890625,0.953125 z M 3.1875,-4.0625 c -0.0625,0.015625 -0.140625,0.046875 -0.421875,0.046875 -0.109375,0 -0.1875,0 -0.28125,-0.046875 0.125,-0.03125 0.1875,-0.03125 0.328125,-0.03125 0.21875,0 0.265625,0 0.375,0.03125 z m -0.484375,1.875 c -0.09375,0.03125 -0.1875,0.046875 -0.421875,0.046875 -0.125,0 -0.21875,0 -0.34375,-0.046875 0.1875,-0.03125 0.25,-0.03125 0.40625,-0.03125 0.21875,0 0.234375,0 0.359375,0.03125 z m 0,0"
               style="stroke:none" />
          </g>
        </g>
      </g>
    </g>
    <g
       transform="matrix(1.41111,0,0,1.41111,163.21424,39.576399)"
       ns2:version="1.0.1"
       ns2:texconverter="pdflatex"
       ns2:pdfconverter="inkscape"
       ns2:text="$\\rho_{\\eta}$"
       ns2:preamble="C:\\Users\\claum\\AppData\\Roaming\\inkscape\\extensions\\textext\\default_packages.tex"
       ns2:scale="4.0"
       ns2:alignment="middle center"
       ns2:inkscapeversion="1.0"
       ns2:jacobian_sqrt="1.41111"
       id="g1767">
      <defs
         id="id-e0cf1005-356c-40af-a314-c8d71cbbfcd9">
        <g
           id="id-09af984d-4c91-4c38-8709-44a3fd4d3f0f">
          <symbol
             id="id-a50dbc8d-b1b6-4e9e-b290-cc675c0e0930"
             overflow="visible">
            <path
               id="id-9640cb62-6dd2-458e-b93e-5c156d60f1c5"
               d=""
               style="stroke:none" />
          </symbol>
          <symbol
             id="id-47584cad-fbf4-423d-bcb1-7565bbb4225f"
             overflow="visible">
            <path
               id="id-a561fad4-e71b-4560-b666-dd49ffd38079"
               d="m 0.328125,1.71875 c -0.03125,0.125 -0.03125,0.140625 -0.03125,0.171875 0,0.140625 0.109375,0.265625 0.28125,0.265625 0.203125,0 0.328125,-0.1875 0.34375,-0.21875 0.0625,-0.078125 0.375,-1.421875 0.640625,-2.5 0.203125,0.40625 0.515625,0.671875 0.984375,0.671875 C 3.71875,0.109375 5,-1.296875 5,-2.78125 c 0,-1.0625 -0.65625,-1.625 -1.375,-1.625 -0.96875,0 -2.015625,1 -2.3125,2.21875 z m 2.21875,-1.828125 C 1.84375,-0.109375 1.6875,-0.90625 1.6875,-1 c 0,-0.03125 0.046875,-0.234375 0.078125,-0.359375 0.28125,-1.125 0.375,-1.484375 0.59375,-1.875 0.4375,-0.734375 0.9375,-0.953125 1.234375,-0.953125 0.375,0 0.6875,0.296875 0.6875,0.984375 0,0.546875 -0.28125,1.65625 -0.546875,2.140625 -0.328125,0.640625 -0.8125,0.953125 -1.1875,0.953125 z m 0,0"
               style="stroke:none" />
          </symbol>
          <symbol
             id="id-7ee59ed1-5fb5-42dd-a08e-6ac5f15713d6"
             overflow="visible">
            <path
               id="id-4022c671-c725-46fa-b9b5-f97478b362fc"
               d=""
               style="stroke:none" />
          </symbol>
          <symbol
             id="id-edd664be-957e-47ab-9cd6-0f3f484a7745"
             overflow="visible">
            <path
               id="id-642de4dc-86f8-49df-bc84-5673608626eb"
               d="M 3.890625,-1.890625 C 3.9375,-2.09375 3.953125,-2.125 3.953125,-2.28125 c 0,-0.109375 0,-0.40625 -0.265625,-0.609375 -0.109375,-0.078125 -0.3125,-0.1875 -0.640625,-0.1875 -0.296875,0 -0.71875,0.078125 -1.171875,0.625 -0.0625,-0.515625 -0.53125,-0.625 -0.75,-0.625 -0.265625,0 -0.4375,0.1875 -0.546875,0.375 -0.140625,0.234375 -0.25,0.65625 -0.25,0.703125 0,0.078125 0.09375,0.078125 0.125,0.078125 0.09375,0 0.09375,-0.015625 0.140625,-0.203125 0.109375,-0.40625 0.25,-0.75 0.515625,-0.75 0.1875,0 0.234375,0.15625 0.234375,0.34375 0,0.125 -0.0625,0.390625 -0.125,0.578125 -0.046875,0.1875 -0.109375,0.46875 -0.140625,0.625 L 0.84375,-0.4375 c -0.015625,0.09375 -0.0625,0.265625 -0.0625,0.28125 0,0.15625 0.125,0.21875 0.234375,0.21875 0.125,0 0.234375,-0.078125 0.28125,-0.140625 0.03125,-0.0625 0.078125,-0.296875 0.125,-0.4375 0.03125,-0.125 0.109375,-0.453125 0.140625,-0.625 0.046875,-0.15625 0.09375,-0.3125 0.125,-0.46875 0.078125,-0.296875 0.078125,-0.3125 0.21875,-0.53125 C 2.125,-2.484375 2.46875,-2.875 3.015625,-2.875 c 0.390625,0 0.40625,0.3125 0.40625,0.484375 0,0.1875 0,0.25 -0.046875,0.390625 L 2.59375,1.125 C 2.5625,1.21875 2.5625,1.265625 2.5625,1.265625 c 0,0.15625 0.125,0.21875 0.234375,0.21875 0.25,0 0.3125,-0.234375 0.34375,-0.328125 z m 0,0"
               style="stroke:none" />
          </symbol>
        </g>
      </defs>
      <g
         transform="translate(-149.009,-130.359)"
         id="id-0ff65c83-ee2f-40f5-85d0-59d2a71e1d09">
        <g
           id="id-e379482c-8e0c-4995-aa4c-1415b1bd713c"
           style="fill:#000000;fill-opacity:1">
          <g
             transform="translate(148.712,134.765)"
             id="g1759">
            <path
               id="id-906704d5-7b03-4a42-820e-0823758b0811"
               d="m 0.328125,1.71875 c -0.03125,0.125 -0.03125,0.140625 -0.03125,0.171875 0,0.140625 0.109375,0.265625 0.28125,0.265625 0.203125,0 0.328125,-0.1875 0.34375,-0.21875 0.0625,-0.078125 0.375,-1.421875 0.640625,-2.5 0.203125,0.40625 0.515625,0.671875 0.984375,0.671875 C 3.71875,0.109375 5,-1.296875 5,-2.78125 c 0,-1.0625 -0.65625,-1.625 -1.375,-1.625 -0.96875,0 -2.015625,1 -2.3125,2.21875 z m 2.21875,-1.828125 C 1.84375,-0.109375 1.6875,-0.90625 1.6875,-1 c 0,-0.03125 0.046875,-0.234375 0.078125,-0.359375 0.28125,-1.125 0.375,-1.484375 0.59375,-1.875 0.4375,-0.734375 0.9375,-0.953125 1.234375,-0.953125 0.375,0 0.6875,0.296875 0.6875,0.984375 0,0.546875 -0.28125,1.65625 -0.546875,2.140625 -0.328125,0.640625 -0.8125,0.953125 -1.1875,0.953125 z m 0,0"
               style="stroke:none" />
          </g>
        </g>
        <g
           id="id-d12476c5-b5ee-4ccc-b307-e40b8215ba57"
           style="fill:#000000;fill-opacity:1">
          <g
             transform="translate(153.863,136.259)"
             id="g1763">
            <path
               id="id-15ea8127-e14f-4192-9de2-29c2a9659b61"
               d="M 3.890625,-1.890625 C 3.9375,-2.09375 3.953125,-2.125 3.953125,-2.28125 c 0,-0.109375 0,-0.40625 -0.265625,-0.609375 -0.109375,-0.078125 -0.3125,-0.1875 -0.640625,-0.1875 -0.296875,0 -0.71875,0.078125 -1.171875,0.625 -0.0625,-0.515625 -0.53125,-0.625 -0.75,-0.625 -0.265625,0 -0.4375,0.1875 -0.546875,0.375 -0.140625,0.234375 -0.25,0.65625 -0.25,0.703125 0,0.078125 0.09375,0.078125 0.125,0.078125 0.09375,0 0.09375,-0.015625 0.140625,-0.203125 0.109375,-0.40625 0.25,-0.75 0.515625,-0.75 0.1875,0 0.234375,0.15625 0.234375,0.34375 0,0.125 -0.0625,0.390625 -0.125,0.578125 -0.046875,0.1875 -0.109375,0.46875 -0.140625,0.625 L 0.84375,-0.4375 c -0.015625,0.09375 -0.0625,0.265625 -0.0625,0.28125 0,0.15625 0.125,0.21875 0.234375,0.21875 0.125,0 0.234375,-0.078125 0.28125,-0.140625 0.03125,-0.0625 0.078125,-0.296875 0.125,-0.4375 0.03125,-0.125 0.109375,-0.453125 0.140625,-0.625 0.046875,-0.15625 0.09375,-0.3125 0.125,-0.46875 0.078125,-0.296875 0.078125,-0.3125 0.21875,-0.53125 C 2.125,-2.484375 2.46875,-2.875 3.015625,-2.875 c 0.390625,0 0.40625,0.3125 0.40625,0.484375 0,0.1875 0,0.25 -0.046875,0.390625 L 2.59375,1.125 C 2.5625,1.21875 2.5625,1.265625 2.5625,1.265625 c 0,0.15625 0.125,0.21875 0.234375,0.21875 0.25,0 0.3125,-0.234375 0.34375,-0.328125 z m 0,0"
               style="stroke:none" />
          </g>
        </g>
      </g>
    </g>
    <g
       transform="matrix(1.41111 0 0 1.41111 281.18 339.316)"
       ns2:version="1.0.1"
       ns2:texconverter="pdflatex"
       ns2:pdfconverter="inkscape"
       ns2:text="$\\rho_{r_{0}}$"
       ns2:preamble="C:\\Users\\claum\\AppData\\Roaming\\inkscape\\extensions\\textext\\default_packages.tex"
       ns2:scale="4.0"
       ns2:alignment="middle center"
       ns2:inkscapeversion="1.0"
       ns2:jacobian_sqrt="1.41111"
       id="g1929">
      <defs
         id="id-b6e32ae6-aaa7-40de-913d-09543038dc49">
        <g
           id="id-0f60505f-d161-4c76-b38c-5b7dac00cb9f">
          <symbol
             id="id-dcdbaac6-7311-4536-afd0-edd584bb9dda"
             overflow="visible">
            <path
               id="id-61938f12-d5a6-4dc0-a7bc-efbe2665152a"
               d=""
               style="stroke:none" />
          </symbol>
          <symbol
             id="id-2391158c-7e82-4742-a694-71091e567f65"
             overflow="visible">
            <path
               id="id-c9d49c91-49b6-45e7-b1f6-d0204a6a28dc"
               d="m 0.328125,1.71875 c -0.03125,0.125 -0.03125,0.140625 -0.03125,0.171875 0,0.140625 0.109375,0.265625 0.28125,0.265625 0.203125,0 0.328125,-0.1875 0.34375,-0.21875 0.0625,-0.078125 0.375,-1.421875 0.640625,-2.5 0.203125,0.40625 0.515625,0.671875 0.984375,0.671875 C 3.71875,0.109375 5,-1.296875 5,-2.78125 c 0,-1.0625 -0.65625,-1.625 -1.375,-1.625 -0.96875,0 -2.015625,1 -2.3125,2.21875 z m 2.21875,-1.828125 C 1.84375,-0.109375 1.6875,-0.90625 1.6875,-1 c 0,-0.03125 0.046875,-0.234375 0.078125,-0.359375 0.28125,-1.125 0.375,-1.484375 0.59375,-1.875 0.4375,-0.734375 0.9375,-0.953125 1.234375,-0.953125 0.375,0 0.6875,0.296875 0.6875,0.984375 0,0.546875 -0.28125,1.65625 -0.546875,2.140625 -0.328125,0.640625 -0.8125,0.953125 -1.1875,0.953125 z m 0,0"
               style="stroke:none" />
          </symbol>
          <symbol
             id="id-4c456656-c603-4b8c-9662-b723ac29551e"
             overflow="visible">
            <path
               id="id-cb844be2-f80e-4a22-9019-70f113094135"
               d=""
               style="stroke:none" />
          </symbol>
          <symbol
             id="id-bd10831f-6d24-4084-a86a-82e658232d21"
             overflow="visible">
            <path
               id="id-2ff4051f-915f-401e-b288-b3851572f65f"
               d="m 1.640625,-1.40625 c 0,-0.046875 0.171875,-0.671875 0.171875,-0.703125 0.015625,-0.0625 0.21875,-0.40625 0.453125,-0.578125 0.0625,-0.046875 0.25,-0.1875 0.5625,-0.1875 0.0625,0 0.234375,0 0.375,0.09375 -0.21875,0.0625 -0.296875,0.265625 -0.296875,0.390625 0,0.140625 0.109375,0.25 0.265625,0.25 0.171875,0 0.390625,-0.125 0.390625,-0.421875 0,-0.359375 -0.375,-0.515625 -0.734375,-0.515625 -0.359375,0 -0.671875,0.15625 -0.984375,0.5 -0.125,-0.421875 -0.546875,-0.5 -0.71875,-0.5 -0.25,0 -0.421875,0.171875 -0.546875,0.359375 -0.15625,0.265625 -0.25,0.671875 -0.25,0.71875 0,0.078125 0.09375,0.078125 0.125,0.078125 0.09375,0 0.09375,-0.015625 0.140625,-0.203125 0.109375,-0.421875 0.25,-0.75 0.515625,-0.75 0.1875,0 0.234375,0.15625 0.234375,0.34375 0,0.125 -0.0625,0.390625 -0.125,0.578125 -0.046875,0.1875 -0.109375,0.46875 -0.140625,0.625 L 0.84375,-0.4375 C 0.828125,-0.34375 0.78125,-0.171875 0.78125,-0.15625 0.78125,0 0.90625,0.0625 1.015625,0.0625 1.125,0.0625 1.265625,0 1.3125,-0.125 1.328125,-0.171875 1.40625,-0.484375 1.453125,-0.65625 Z m 0,0"
               style="stroke:none" />
          </symbol>
          <symbol
             id="id-2a0dbfe9-4318-4cea-bdb9-226d5ef884ad"
             overflow="visible">
            <path
               id="id-f11a1966-9dee-4fef-a138-ef053c1a795d"
               d=""
               style="stroke:none" />
          </symbol>
          <symbol
             id="id-827fb904-4dcb-4aca-835e-caaabe0cce52"
             overflow="visible">
            <path
               id="id-c7359835-0d7e-483a-9b26-dc597a3719a9"
               d="M 3,-1.59375 C 3,-1.953125 3,-3.3125 1.6875,-3.3125 c -1.296875,0 -1.296875,1.359375 -1.296875,1.71875 0,0.359375 0,1.703125 1.296875,1.703125 C 3,0.109375 3,-1.234375 3,-1.59375 Z M 1.6875,-0.0625 C 1.515625,-0.0625 1.09375,-0.125 0.96875,-0.625 0.890625,-0.890625 0.890625,-1.25 0.890625,-1.65625 c 0,-0.375 0,-0.71875 0.078125,-1 0.125,-0.421875 0.515625,-0.5 0.71875,-0.5 0.375,0 0.640625,0.1875 0.734375,0.546875 C 2.5,-2.359375 2.5,-1.953125 2.5,-1.65625 c 0,0.34375 0,0.75 -0.078125,1.046875 C 2.296875,-0.125 1.890625,-0.0625 1.6875,-0.0625 Z m 0,0"
               style="stroke:none" />
          </symbol>
        </g>
      </defs>
      <g
         transform="translate(-149.009, -130.359)"
         id="id-a54ad3ac-6106-4727-8c34-6ff659c2565b">
        <g
           id="id-a51781ac-f79b-4f77-b447-65a76762d59c"
           style="fill:#000000;fill-opacity:1">
          <g
             transform="translate(148.712, 134.765)"
             id="g1917">
            <path
               id="id-06f80a02-c58c-4b37-b188-ee6a812f1624"
               d="m 0.328125,1.71875 c -0.03125,0.125 -0.03125,0.140625 -0.03125,0.171875 0,0.140625 0.109375,0.265625 0.28125,0.265625 0.203125,0 0.328125,-0.1875 0.34375,-0.21875 0.0625,-0.078125 0.375,-1.421875 0.640625,-2.5 0.203125,0.40625 0.515625,0.671875 0.984375,0.671875 C 3.71875,0.109375 5,-1.296875 5,-2.78125 c 0,-1.0625 -0.65625,-1.625 -1.375,-1.625 -0.96875,0 -2.015625,1 -2.3125,2.21875 z m 2.21875,-1.828125 C 1.84375,-0.109375 1.6875,-0.90625 1.6875,-1 c 0,-0.03125 0.046875,-0.234375 0.078125,-0.359375 0.28125,-1.125 0.375,-1.484375 0.59375,-1.875 0.4375,-0.734375 0.9375,-0.953125 1.234375,-0.953125 0.375,0 0.6875,0.296875 0.6875,0.984375 0,0.546875 -0.28125,1.65625 -0.546875,2.140625 -0.328125,0.640625 -0.8125,0.953125 -1.1875,0.953125 z m 0,0"
               style="stroke:none" />
          </g>
        </g>
        <g
           id="id-cb388162-68b0-421d-8290-6d2abd706ed9"
           style="fill:#000000;fill-opacity:1">
          <g
             transform="translate(153.863, 136.259)"
             id="g1921">
            <path
               id="id-8673cdfa-cf32-45df-a621-87e102933be6"
               d="m 1.640625,-1.40625 c 0,-0.046875 0.171875,-0.671875 0.171875,-0.703125 0.015625,-0.0625 0.21875,-0.40625 0.453125,-0.578125 0.0625,-0.046875 0.25,-0.1875 0.5625,-0.1875 0.0625,0 0.234375,0 0.375,0.09375 -0.21875,0.0625 -0.296875,0.265625 -0.296875,0.390625 0,0.140625 0.109375,0.25 0.265625,0.25 0.171875,0 0.390625,-0.125 0.390625,-0.421875 0,-0.359375 -0.375,-0.515625 -0.734375,-0.515625 -0.359375,0 -0.671875,0.15625 -0.984375,0.5 -0.125,-0.421875 -0.546875,-0.5 -0.71875,-0.5 -0.25,0 -0.421875,0.171875 -0.546875,0.359375 -0.15625,0.265625 -0.25,0.671875 -0.25,0.71875 0,0.078125 0.09375,0.078125 0.125,0.078125 0.09375,0 0.09375,-0.015625 0.140625,-0.203125 0.109375,-0.421875 0.25,-0.75 0.515625,-0.75 0.1875,0 0.234375,0.15625 0.234375,0.34375 0,0.125 -0.0625,0.390625 -0.125,0.578125 -0.046875,0.1875 -0.109375,0.46875 -0.140625,0.625 L 0.84375,-0.4375 C 0.828125,-0.34375 0.78125,-0.171875 0.78125,-0.15625 0.78125,0 0.90625,0.0625 1.015625,0.0625 1.125,0.0625 1.265625,0 1.3125,-0.125 1.328125,-0.171875 1.40625,-0.484375 1.453125,-0.65625 Z m 0,0"
               style="stroke:none" />
          </g>
        </g>
        <g
           id="id-c0941485-2a72-4633-8d28-505c89b4ef89"
           style="fill:#000000;fill-opacity:1">
          <g
             transform="translate(157.562, 137.255)"
             id="g1925">
            <path
               id="id-7841ae30-6911-4eee-8e96-8084bb26d890"
               d="M 3,-1.59375 C 3,-1.953125 3,-3.3125 1.6875,-3.3125 c -1.296875,0 -1.296875,1.359375 -1.296875,1.71875 0,0.359375 0,1.703125 1.296875,1.703125 C 3,0.109375 3,-1.234375 3,-1.59375 Z M 1.6875,-0.0625 C 1.515625,-0.0625 1.09375,-0.125 0.96875,-0.625 0.890625,-0.890625 0.890625,-1.25 0.890625,-1.65625 c 0,-0.375 0,-0.71875 0.078125,-1 0.125,-0.421875 0.515625,-0.5 0.71875,-0.5 0.375,0 0.640625,0.1875 0.734375,0.546875 C 2.5,-2.359375 2.5,-1.953125 2.5,-1.65625 c 0,0.34375 0,0.75 -0.078125,1.046875 C 2.296875,-0.125 1.890625,-0.0625 1.6875,-0.0625 Z m 0,0"
               style="stroke:none" />
          </g>
        </g>
      </g>
    </g>
    <g
       transform="matrix(1.41111,0,0,1.41111,259.37639,360.08213)"
       ns2:version="1.0.1"
       ns2:texconverter="pdflatex"
       ns2:pdfconverter="inkscape"
       ns2:text="$r_0$"
       ns2:preamble="C:\\Users\\claum\\AppData\\Roaming\\inkscape\\extensions\\textext\\default_packages.tex"
       ns2:scale="4.0"
       ns2:alignment="middle center"
       ns2:inkscapeversion="1.0"
       ns2:jacobian_sqrt="1.41111"
       id="g2079">
      <defs
         id="id-b3001404-bcea-403c-9acf-845c2f15667f">
        <g
           id="id-7a1ca9e3-f263-4e57-ac19-5851badbdaeb">
          <symbol
             id="id-0eea1b97-24e7-4b8a-ac42-82e4a24d1c9e"
             overflow="visible">
            <path
               id="id-084fedbd-620a-4b93-8b4a-c0a65c185021"
               d=""
               style="stroke:none" />
          </symbol>
          <symbol
             id="id-cd7dcbbc-b44a-4114-89eb-cfa26a7d1d8c"
             overflow="visible">
            <path
               id="id-8b08826e-f940-4fa9-9b66-c963253bddda"
               d="m 0.875,-0.59375 c -0.03125,0.15625 -0.09375,0.390625 -0.09375,0.4375 0,0.171875 0.140625,0.265625 0.296875,0.265625 0.125,0 0.296875,-0.078125 0.375,-0.28125 C 1.46875,-0.203125 1.796875,-1.5625 1.84375,-1.75 c 0.078125,-0.328125 0.265625,-1.015625 0.3125,-1.296875 0.046875,-0.125 0.328125,-0.59375 0.5625,-0.8125 0.078125,-0.0625 0.375,-0.328125 0.796875,-0.328125 0.265625,0 0.40625,0.125 0.421875,0.125 -0.296875,0.046875 -0.515625,0.28125 -0.515625,0.546875 0,0.15625 0.109375,0.34375 0.375,0.34375 0.265625,0 0.546875,-0.234375 0.546875,-0.59375 0,-0.34375 -0.3125,-0.640625 -0.828125,-0.640625 C 2.875,-4.40625 2.4375,-3.921875 2.25,-3.640625 2.15625,-4.09375 1.796875,-4.40625 1.328125,-4.40625 0.875,-4.40625 0.6875,-4.015625 0.59375,-3.84375 0.421875,-3.5 0.296875,-2.90625 0.296875,-2.875 c 0,0.109375 0.09375,0.109375 0.109375,0.109375 0.109375,0 0.109375,-0.015625 0.171875,-0.234375 0.171875,-0.703125 0.375,-1.1875 0.734375,-1.1875 0.15625,0 0.296875,0.078125 0.296875,0.453125 0,0.21875 -0.03125,0.328125 -0.15625,0.84375 z m 0,0"
               style="stroke:none" />
          </symbol>
          <symbol
             id="id-3d6ace5d-caf8-45d2-9a65-05bc7ff3abb8"
             overflow="visible">
            <path
               id="id-e81438fb-4a75-40b4-9561-fc1cc3773d23"
               d=""
               style="stroke:none" />
          </symbol>
          <symbol
             id="id-a73deb03-cdf7-49e7-8473-2802cd92af7a"
             overflow="visible">
            <path
               id="id-821932cf-d5ca-4349-a48b-fb5f873259f8"
               d="M 3.59375,-2.21875 C 3.59375,-2.984375 3.5,-3.546875 3.1875,-4.03125 2.96875,-4.34375 2.53125,-4.625 1.984375,-4.625 c -1.625,0 -1.625,1.90625 -1.625,2.40625 0,0.5 0,2.359375 1.625,2.359375 1.609375,0 1.609375,-1.859375 1.609375,-2.359375 z M 1.984375,-0.0625 c -0.328125,0 -0.75,-0.1875 -0.890625,-0.75 C 1,-1.21875 1,-1.796875 1,-2.3125 1,-2.828125 1,-3.359375 1.09375,-3.734375 1.25,-4.28125 1.6875,-4.4375 1.984375,-4.4375 c 0.375,0 0.734375,0.234375 0.859375,0.640625 0.109375,0.375 0.125,0.875 0.125,1.484375 0,0.515625 0,1.03125 -0.09375,1.46875 -0.140625,0.640625 -0.609375,0.78125 -0.890625,0.78125 z m 0,0"
               style="stroke:none" />
          </symbol>
        </g>
      </defs>
      <g
         transform="translate(-149.009,-130.359)"
         id="id-1f0520ea-8c89-42a2-adb7-50321e4d95c6">
        <g
           id="id-f3052996-b4f8-4d16-964e-aea1e1890331"
           style="fill:#000000;fill-opacity:1">
          <g
             transform="translate(148.712,134.765)"
             id="g2071">
            <path
               id="id-9a39ac5d-b427-4099-aee3-3d405d93b613"
               d="m 0.875,-0.59375 c -0.03125,0.15625 -0.09375,0.390625 -0.09375,0.4375 0,0.171875 0.140625,0.265625 0.296875,0.265625 0.125,0 0.296875,-0.078125 0.375,-0.28125 C 1.46875,-0.203125 1.796875,-1.5625 1.84375,-1.75 c 0.078125,-0.328125 0.265625,-1.015625 0.3125,-1.296875 0.046875,-0.125 0.328125,-0.59375 0.5625,-0.8125 0.078125,-0.0625 0.375,-0.328125 0.796875,-0.328125 0.265625,0 0.40625,0.125 0.421875,0.125 -0.296875,0.046875 -0.515625,0.28125 -0.515625,0.546875 0,0.15625 0.109375,0.34375 0.375,0.34375 0.265625,0 0.546875,-0.234375 0.546875,-0.59375 0,-0.34375 -0.3125,-0.640625 -0.828125,-0.640625 C 2.875,-4.40625 2.4375,-3.921875 2.25,-3.640625 2.15625,-4.09375 1.796875,-4.40625 1.328125,-4.40625 0.875,-4.40625 0.6875,-4.015625 0.59375,-3.84375 0.421875,-3.5 0.296875,-2.90625 0.296875,-2.875 c 0,0.109375 0.09375,0.109375 0.109375,0.109375 0.109375,0 0.109375,-0.015625 0.171875,-0.234375 0.171875,-0.703125 0.375,-1.1875 0.734375,-1.1875 0.15625,0 0.296875,0.078125 0.296875,0.453125 0,0.21875 -0.03125,0.328125 -0.15625,0.84375 z m 0,0"
               style="stroke:none" />
          </g>
        </g>
        <g
           id="id-5ba2fb45-7013-4964-840e-572197725314"
           style="fill:#000000;fill-opacity:1">
          <g
             transform="translate(153.207,136.259)"
             id="g2075">
            <path
               id="id-bda072cc-204c-4c96-bd24-c54c2608d7f2"
               d="M 3.59375,-2.21875 C 3.59375,-2.984375 3.5,-3.546875 3.1875,-4.03125 2.96875,-4.34375 2.53125,-4.625 1.984375,-4.625 c -1.625,0 -1.625,1.90625 -1.625,2.40625 0,0.5 0,2.359375 1.625,2.359375 1.609375,0 1.609375,-1.859375 1.609375,-2.359375 z M 1.984375,-0.0625 c -0.328125,0 -0.75,-0.1875 -0.890625,-0.75 C 1,-1.21875 1,-1.796875 1,-2.3125 1,-2.828125 1,-3.359375 1.09375,-3.734375 1.25,-4.28125 1.6875,-4.4375 1.984375,-4.4375 c 0.375,0 0.734375,0.234375 0.859375,0.640625 0.109375,0.375 0.125,0.875 0.125,1.484375 0,0.515625 0,1.03125 -0.09375,1.46875 -0.140625,0.640625 -0.609375,0.78125 -0.890625,0.78125 z m 0,0"
               style="stroke:none" />
          </g>
        </g>
      </g>
    </g>
    <g
       transform="matrix(1.41111,0,0,1.41111,316.30954,339.50262)"
       ns2:version="1.0.1"
       ns2:texconverter="pdflatex"
       ns2:pdfconverter="inkscape"
       ns2:text="\\newcommand{\\parallelsum}{\\mathbin{\\!/\\mkern-5mu/\\!}}\n$t \\,\\parallelsum r_0$"
       ns2:preamble="C:\\Users\\claum\\AppData\\Roaming\\inkscape\\extensions\\textext\\default_packages.tex"
       ns2:scale="4.0"
       ns2:alignment="middle center"
       ns2:inkscapeversion="1.0"
       ns2:jacobian_sqrt="1.41111"
       id="g2292">
      <defs
         id="id-168594cf-ddeb-41a9-9477-49f4e4f9b496">
        <g
           id="id-cacf2b81-8f81-458f-bc54-8b723605904c">
          <symbol
             id="id-5b5d6843-e917-4703-a36a-6d77f7d36f57"
             overflow="visible">
            <path
               id="id-d490ca8d-c2e3-4b6e-a276-36fb352d57c2"
               d=""
               style="stroke:none" />
          </symbol>
          <symbol
             id="id-e3fc29c5-e27e-48ae-915a-3adf793248fd"
             overflow="visible">
            <path
               id="id-44b19266-525e-4ce4-9d42-189f773591ed"
               d="m 2.046875,-3.984375 h 0.9375 c 0.203125,0 0.3125,0 0.3125,-0.203125 0,-0.109375 -0.109375,-0.109375 -0.28125,-0.109375 h -0.875 C 2.5,-5.71875 2.546875,-5.90625 2.546875,-5.96875 c 0,-0.171875 -0.125,-0.265625 -0.296875,-0.265625 -0.03125,0 -0.3125,0 -0.390625,0.359375 L 1.46875,-4.296875 h -0.9375 c -0.203125,0 -0.296875,0 -0.296875,0.1875 0,0.125 0.078125,0.125 0.28125,0.125 h 0.875 C 0.671875,-1.15625 0.625,-0.984375 0.625,-0.8125 0.625,-0.265625 1,0.109375 1.546875,0.109375 2.5625,0.109375 3.125,-1.34375 3.125,-1.421875 3.125,-1.53125 3.046875,-1.53125 3.015625,-1.53125 2.921875,-1.53125 2.90625,-1.5 2.859375,-1.390625 2.4375,-0.34375 1.90625,-0.109375 1.5625,-0.109375 c -0.203125,0 -0.3125,-0.125 -0.3125,-0.453125 0,-0.25 0.03125,-0.3125 0.0625,-0.484375 z m 0,0"
               style="stroke:none" />
          </symbol>
          <symbol
             id="id-2121e492-505a-4ac6-aa92-38ce7e02002e"
             overflow="visible">
            <path
               id="id-14c5dd2e-57c7-419b-9e81-809ad1952afa"
               d="m 4.375,-7.09375 c 0.046875,-0.140625 0.046875,-0.171875 0.046875,-0.1875 0,-0.109375 -0.078125,-0.203125 -0.1875,-0.203125 -0.078125,0 -0.140625,0.03125 -0.171875,0.09375 l -3.46875,9.5 C 0.546875,2.25 0.546875,2.28125 0.546875,2.296875 0.546875,2.40625 0.640625,2.5 0.75,2.5 0.875,2.5 0.90625,2.421875 0.96875,2.25 Z m 0,0"
               style="stroke:none" />
          </symbol>
          <symbol
             id="id-087cff0b-39c8-4c77-a72e-3932e879af26"
             overflow="visible">
            <path
               id="id-5671f8a5-4e17-4d41-a104-3afa3cb9f672"
               d="m 0.875,-0.59375 c -0.03125,0.15625 -0.09375,0.390625 -0.09375,0.4375 0,0.171875 0.140625,0.265625 0.296875,0.265625 0.125,0 0.296875,-0.078125 0.375,-0.28125 C 1.46875,-0.203125 1.796875,-1.5625 1.84375,-1.75 c 0.078125,-0.328125 0.265625,-1.015625 0.3125,-1.296875 0.046875,-0.125 0.328125,-0.59375 0.5625,-0.8125 0.078125,-0.0625 0.375,-0.328125 0.796875,-0.328125 0.265625,0 0.40625,0.125 0.421875,0.125 -0.296875,0.046875 -0.515625,0.28125 -0.515625,0.546875 0,0.15625 0.109375,0.34375 0.375,0.34375 0.265625,0 0.546875,-0.234375 0.546875,-0.59375 0,-0.34375 -0.3125,-0.640625 -0.828125,-0.640625 C 2.875,-4.40625 2.4375,-3.921875 2.25,-3.640625 2.15625,-4.09375 1.796875,-4.40625 1.328125,-4.40625 0.875,-4.40625 0.6875,-4.015625 0.59375,-3.84375 0.421875,-3.5 0.296875,-2.90625 0.296875,-2.875 c 0,0.109375 0.09375,0.109375 0.109375,0.109375 0.109375,0 0.109375,-0.015625 0.171875,-0.234375 0.171875,-0.703125 0.375,-1.1875 0.734375,-1.1875 0.15625,0 0.296875,0.078125 0.296875,0.453125 0,0.21875 -0.03125,0.328125 -0.15625,0.84375 z m 0,0"
               style="stroke:none" />
          </symbol>
          <symbol
             id="id-6c768482-55b5-4368-8a03-2600171f4438"
             overflow="visible">
            <path
               id="id-ad059c60-67c8-4ed7-aab5-b4d239a9c9a2"
               d=""
               style="stroke:none" />
          </symbol>
          <symbol
             id="id-61708b0e-cc00-4d26-bf4d-de92fb8c2278"
             overflow="visible">
            <path
               id="id-d39a202d-e51c-4413-8fa0-5b0f8bcd6e11"
               d="M 3.59375,-2.21875 C 3.59375,-2.984375 3.5,-3.546875 3.1875,-4.03125 2.96875,-4.34375 2.53125,-4.625 1.984375,-4.625 c -1.625,0 -1.625,1.90625 -1.625,2.40625 0,0.5 0,2.359375 1.625,2.359375 1.609375,0 1.609375,-1.859375 1.609375,-2.359375 z M 1.984375,-0.0625 c -0.328125,0 -0.75,-0.1875 -0.890625,-0.75 C 1,-1.21875 1,-1.796875 1,-2.3125 1,-2.828125 1,-3.359375 1.09375,-3.734375 1.25,-4.28125 1.6875,-4.4375 1.984375,-4.4375 c 0.375,0 0.734375,0.234375 0.859375,0.640625 0.109375,0.375 0.125,0.875 0.125,1.484375 0,0.515625 0,1.03125 -0.09375,1.46875 -0.140625,0.640625 -0.609375,0.78125 -0.890625,0.78125 z m 0,0"
               style="stroke:none" />
          </symbol>
        </g>
      </defs>
      <g
         transform="translate(-148.946,-127.281)"
         id="id-cdbbf4a3-e4bd-4d44-b61e-30895d274927">
        <g
           id="id-d60eda21-6738-4e60-994b-60eab439cb9e"
           style="fill:#000000;fill-opacity:1">
          <g
             transform="translate(148.712,134.765)"
             id="g2272">
            <path
               id="id-be611302-e499-4b12-a361-ddf4cad9526a"
               d="m 2.046875,-3.984375 h 0.9375 c 0.203125,0 0.3125,0 0.3125,-0.203125 0,-0.109375 -0.109375,-0.109375 -0.28125,-0.109375 h -0.875 C 2.5,-5.71875 2.546875,-5.90625 2.546875,-5.96875 c 0,-0.171875 -0.125,-0.265625 -0.296875,-0.265625 -0.03125,0 -0.3125,0 -0.390625,0.359375 L 1.46875,-4.296875 h -0.9375 c -0.203125,0 -0.296875,0 -0.296875,0.1875 0,0.125 0.078125,0.125 0.28125,0.125 h 0.875 C 0.671875,-1.15625 0.625,-0.984375 0.625,-0.8125 0.625,-0.265625 1,0.109375 1.546875,0.109375 2.5625,0.109375 3.125,-1.34375 3.125,-1.421875 3.125,-1.53125 3.046875,-1.53125 3.015625,-1.53125 2.921875,-1.53125 2.90625,-1.5 2.859375,-1.390625 2.4375,-0.34375 1.90625,-0.109375 1.5625,-0.109375 c -0.203125,0 -0.3125,-0.125 -0.3125,-0.453125 0,-0.25 0.03125,-0.3125 0.0625,-0.484375 z m 0,0"
               style="stroke:none" />
          </g>
        </g>
        <g
           id="id-0ae64975-5fc4-48cb-9fd3-acfccc92fab9"
           style="fill:#000000;fill-opacity:1">
          <g
             transform="translate(154.521,134.765)"
             id="g2276">
            <path
               id="id-0f86f4ff-15a3-4c61-8fcb-4d510cd0142e"
               d="m 4.375,-7.09375 c 0.046875,-0.140625 0.046875,-0.171875 0.046875,-0.1875 0,-0.109375 -0.078125,-0.203125 -0.1875,-0.203125 -0.078125,0 -0.140625,0.03125 -0.171875,0.09375 l -3.46875,9.5 C 0.546875,2.25 0.546875,2.28125 0.546875,2.296875 0.546875,2.40625 0.640625,2.5 0.75,2.5 0.875,2.5 0.90625,2.421875 0.96875,2.25 Z m 0,0"
               style="stroke:none" />
          </g>
        </g>
        <g
           id="id-18837072-1653-4073-bee4-a1464bc5016a"
           style="fill:#000000;fill-opacity:1">
          <g
             transform="translate(156.733,134.765)"
             id="g2280">
            <path
               id="id-bb06db8d-d286-42b7-a200-6aaeeffc8132"
               d="m 4.375,-7.09375 c 0.046875,-0.140625 0.046875,-0.171875 0.046875,-0.1875 0,-0.109375 -0.078125,-0.203125 -0.1875,-0.203125 -0.078125,0 -0.140625,0.03125 -0.171875,0.09375 l -3.46875,9.5 C 0.546875,2.25 0.546875,2.28125 0.546875,2.296875 0.546875,2.40625 0.640625,2.5 0.75,2.5 0.875,2.5 0.90625,2.421875 0.96875,2.25 Z m 0,0"
               style="stroke:none" />
          </g>
        </g>
        <g
           id="id-b960f42d-5b06-4d0c-a727-813f22005e5a"
           style="fill:#000000;fill-opacity:1">
          <g
             transform="translate(162.272,134.765)"
             id="g2284">
            <path
               id="id-b96b31d6-4d89-488c-9e7f-3debdcfc8839"
               d="m 0.875,-0.59375 c -0.03125,0.15625 -0.09375,0.390625 -0.09375,0.4375 0,0.171875 0.140625,0.265625 0.296875,0.265625 0.125,0 0.296875,-0.078125 0.375,-0.28125 C 1.46875,-0.203125 1.796875,-1.5625 1.84375,-1.75 c 0.078125,-0.328125 0.265625,-1.015625 0.3125,-1.296875 0.046875,-0.125 0.328125,-0.59375 0.5625,-0.8125 0.078125,-0.0625 0.375,-0.328125 0.796875,-0.328125 0.265625,0 0.40625,0.125 0.421875,0.125 -0.296875,0.046875 -0.515625,0.28125 -0.515625,0.546875 0,0.15625 0.109375,0.34375 0.375,0.34375 0.265625,0 0.546875,-0.234375 0.546875,-0.59375 0,-0.34375 -0.3125,-0.640625 -0.828125,-0.640625 C 2.875,-4.40625 2.4375,-3.921875 2.25,-3.640625 2.15625,-4.09375 1.796875,-4.40625 1.328125,-4.40625 0.875,-4.40625 0.6875,-4.015625 0.59375,-3.84375 0.421875,-3.5 0.296875,-2.90625 0.296875,-2.875 c 0,0.109375 0.09375,0.109375 0.109375,0.109375 0.109375,0 0.109375,-0.015625 0.171875,-0.234375 0.171875,-0.703125 0.375,-1.1875 0.734375,-1.1875 0.15625,0 0.296875,0.078125 0.296875,0.453125 0,0.21875 -0.03125,0.328125 -0.15625,0.84375 z m 0,0"
               style="stroke:none" />
          </g>
        </g>
        <g
           id="id-75baea1e-c5ae-45bd-9a6d-63c72f02fd6f"
           style="fill:#000000;fill-opacity:1">
          <g
             transform="translate(166.767,136.259)"
             id="g2288">
            <path
               id="id-7b33a4c8-ad1e-4f39-8b07-34387c552474"
               d="M 3.59375,-2.21875 C 3.59375,-2.984375 3.5,-3.546875 3.1875,-4.03125 2.96875,-4.34375 2.53125,-4.625 1.984375,-4.625 c -1.625,0 -1.625,1.90625 -1.625,2.40625 0,0.5 0,2.359375 1.625,2.359375 1.609375,0 1.609375,-1.859375 1.609375,-2.359375 z M 1.984375,-0.0625 c -0.328125,0 -0.75,-0.1875 -0.890625,-0.75 C 1,-1.21875 1,-1.796875 1,-2.3125 1,-2.828125 1,-3.359375 1.09375,-3.734375 1.25,-4.28125 1.6875,-4.4375 1.984375,-4.4375 c 0.375,0 0.734375,0.234375 0.859375,0.640625 0.109375,0.375 0.125,0.875 0.125,1.484375 0,0.515625 0,1.03125 -0.09375,1.46875 -0.140625,0.640625 -0.609375,0.78125 -0.890625,0.78125 z m 0,0"
               style="stroke:none" />
          </g>
        </g>
      </g>
    </g>
    <g
       transform="matrix(1.41111,0,0,1.41111,185.39844,5.9057364)"
       ns2:version="1.0.1"
       ns2:texconverter="pdflatex"
       ns2:pdfconverter="inkscape"
       ns2:text="$\\eta$"
       ns2:preamble="C:\\Users\\claum\\AppData\\Roaming\\inkscape\\extensions\\textext\\default_packages.tex"
       ns2:scale="4.0"
       ns2:alignment="middle center"
       ns2:inkscapeversion="1.0"
       ns2:jacobian_sqrt="1.41111"
       id="g2489">
      <defs
         id="id-5058f6ff-2f68-49ad-9719-6a5b13347e40">
        <g
           id="id-393e681c-8968-4701-a7b1-46cdb20eee60">
          <symbol
             id="id-c49a982c-d638-4449-b741-98b307c59d7f"
             overflow="visible">
            <path
               id="id-46556108-d1da-4a13-b4f5-368d2687cb2d"
               d=""
               style="stroke:none" />
          </symbol>
          <symbol
             id="id-cc13acd6-bdff-4f1f-8ee8-1c9e09a618e7"
             overflow="visible">
            <path
               id="id-ac94a026-c320-4fb3-9f77-e15f69ecd03e"
               d="M 4.859375,-2.765625 C 4.921875,-2.9375 4.9375,-3.078125 4.9375,-3.34375 c 0,-0.640625 -0.390625,-1.0625 -1.140625,-1.0625 -0.78125,0 -1.296875,0.515625 -1.546875,0.875 -0.046875,-0.578125 -0.46875,-0.875 -0.921875,-0.875 -0.453125,0 -0.640625,0.390625 -0.734375,0.5625 C 0.421875,-3.5 0.296875,-2.90625 0.296875,-2.875 c 0,0.109375 0.09375,0.109375 0.109375,0.109375 0.109375,0 0.109375,-0.015625 0.171875,-0.234375 0.171875,-0.703125 0.375,-1.1875 0.734375,-1.1875 0.15625,0 0.296875,0.078125 0.296875,0.453125 0,0.21875 -0.03125,0.328125 -0.15625,0.84375 L 0.875,-0.59375 c -0.03125,0.15625 -0.09375,0.390625 -0.09375,0.4375 0,0.171875 0.140625,0.265625 0.296875,0.265625 0.125,0 0.296875,-0.078125 0.375,-0.28125 0,-0.015625 0.125,-0.484375 0.1875,-0.734375 l 0.21875,-0.890625 C 1.90625,-2.03125 1.96875,-2.25 2.03125,-2.46875 2.046875,-2.53125 2.125,-2.859375 2.140625,-2.921875 2.15625,-3.015625 2.46875,-3.5625 2.8125,-3.84375 3.03125,-4 3.34375,-4.1875 3.765625,-4.1875 c 0.4375,0 0.546875,0.34375 0.546875,0.703125 0,0.046875 0,0.21875 -0.109375,0.625 l -1.125,4.578125 c -0.03125,0.125 -0.03125,0.140625 -0.03125,0.171875 0,0.140625 0.109375,0.265625 0.265625,0.265625 0.3125,0 0.390625,-0.296875 0.421875,-0.40625 z m 0,0"
               style="stroke:none" />
          </symbol>
        </g>
      </defs>
      <g
         transform="translate(-149.009,-130.359)"
         id="id-b2e14c14-da54-4d1d-9643-b68d68d23f42">
        <g
           id="id-834a9591-fd8a-4fac-8faa-4b8e16c26e9a"
           style="fill:#000000;fill-opacity:1">
          <g
             transform="translate(148.712,134.765)"
             id="g2485">
            <path
               id="id-d9ed6130-6f2f-4378-9ecf-96c8fd2fc6ef"
               d="M 4.859375,-2.765625 C 4.921875,-2.9375 4.9375,-3.078125 4.9375,-3.34375 c 0,-0.640625 -0.390625,-1.0625 -1.140625,-1.0625 -0.78125,0 -1.296875,0.515625 -1.546875,0.875 -0.046875,-0.578125 -0.46875,-0.875 -0.921875,-0.875 -0.453125,0 -0.640625,0.390625 -0.734375,0.5625 C 0.421875,-3.5 0.296875,-2.90625 0.296875,-2.875 c 0,0.109375 0.09375,0.109375 0.109375,0.109375 0.109375,0 0.109375,-0.015625 0.171875,-0.234375 0.171875,-0.703125 0.375,-1.1875 0.734375,-1.1875 0.15625,0 0.296875,0.078125 0.296875,0.453125 0,0.21875 -0.03125,0.328125 -0.15625,0.84375 L 0.875,-0.59375 c -0.03125,0.15625 -0.09375,0.390625 -0.09375,0.4375 0,0.171875 0.140625,0.265625 0.296875,0.265625 0.125,0 0.296875,-0.078125 0.375,-0.28125 0,-0.015625 0.125,-0.484375 0.1875,-0.734375 l 0.21875,-0.890625 C 1.90625,-2.03125 1.96875,-2.25 2.03125,-2.46875 2.046875,-2.53125 2.125,-2.859375 2.140625,-2.921875 2.15625,-3.015625 2.46875,-3.5625 2.8125,-3.84375 3.03125,-4 3.34375,-4.1875 3.765625,-4.1875 c 0.4375,0 0.546875,0.34375 0.546875,0.703125 0,0.046875 0,0.21875 -0.109375,0.625 l -1.125,4.578125 c -0.03125,0.125 -0.03125,0.140625 -0.03125,0.171875 0,0.140625 0.109375,0.265625 0.265625,0.265625 0.3125,0 0.390625,-0.296875 0.421875,-0.40625 z m 0,0"
               style="stroke:none" />
          </g>
        </g>
      </g>
    </g>
    <g
       transform="matrix(1.41111,0,0,1.41111,380.971,197.64237)"
       ns2:version="1.0.1"
       ns2:texconverter="pdflatex"
       ns2:pdfconverter="inkscape"
       ns2:text="$\\xi$"
       ns2:preamble="C:\\Users\\claum\\AppData\\Roaming\\inkscape\\extensions\\textext\\default_packages.tex"
       ns2:scale="4.0"
       ns2:alignment="middle center"
       ns2:inkscapeversion="1.0"
       ns2:jacobian_sqrt="1.41111"
       id="g2699">
      <defs
         id="id-523eb6e5-2d6c-4b8c-af12-5dea8e8e7387">
        <g
           id="id-8222985c-be4a-4d51-863d-d088bdcc66c8">
          <symbol
             id="id-08527fbc-e356-4f1e-a98f-3ef962c4610c"
             overflow="visible">
            <path
               id="id-d5e1d4cb-208c-4f96-ba36-9c7ffd840dbe"
               d=""
               style="stroke:none" />
          </symbol>
          <symbol
             id="id-1a39a979-ea11-45ec-ab60-78239491ed0c"
             overflow="visible">
            <path
               id="id-f893b0e4-411a-48d0-93a9-cb6bddc10ae2"
               d="m 1.53125,-3.046875 c -1.078125,0.71875 -1.296875,1.65625 -1.296875,2.015625 0,0.46875 0.265625,0.75 0.28125,0.78125 0.328125,0.328125 0.40625,0.375 1.15625,0.65625 L 2.875,0.875 C 3.03125,0.9375 3.234375,1 3.234375,1.296875 c 0,0.234375 -0.1875,0.53125 -0.5,0.53125 -0.4375,0 -0.765625,-0.25 -0.875,-0.328125 C 1.796875,1.46875 1.796875,1.453125 1.75,1.453125 c -0.078125,0 -0.09375,0.078125 -0.09375,0.109375 0,0.125 0.53125,0.484375 1.078125,0.484375 0.625,0 1.046875,-0.578125 1.046875,-1.0625 C 3.78125,0.5 3.40625,0.3125 3.296875,0.265625 3.15625,0.21875 2.828125,0.09375 2.6875,0.046875 2.5,-0.046875 2.296875,-0.125 2.078125,-0.1875 l -0.59375,-0.234375 c -0.453125,-0.1875 -0.75,-0.46875 -0.75,-0.890625 0,-0.40625 0.390625,-1.28125 1.234375,-1.703125 C 2.328125,-2.875 2.625,-2.875 2.84375,-2.875 c 0.296875,0 0.921875,0 0.921875,-0.3125 0,-0.25 -0.421875,-0.265625 -0.8125,-0.265625 -0.1875,0 -0.46875,0 -0.84375,0.109375 -0.25,-0.25 -0.296875,-0.578125 -0.296875,-0.765625 0,-0.5625 0.359375,-1.328125 1.109375,-1.703125 0.171875,0.21875 0.40625,0.21875 0.640625,0.21875 0.25,0 0.890625,0 0.890625,-0.3125 0,-0.25 -0.453125,-0.265625 -0.828125,-0.265625 -0.140625,0 -0.375,0 -0.640625,0.046875 C 2.953125,-6.203125 2.9375,-6.28125 2.9375,-6.453125 c 0,-0.140625 0.046875,-0.34375 0.046875,-0.359375 0,-0.078125 -0.046875,-0.140625 -0.109375,-0.140625 -0.1875,0 -0.1875,0.46875 -0.1875,0.5 0,0.1875 0.0625,0.34375 0.078125,0.375 -1.078125,0.3125 -1.75,1.109375 -1.75,1.875 0,0.359375 0.1875,0.78125 0.65625,1.046875 z m 1.625,-2.859375 C 3.3125,-5.953125 3.515625,-5.953125 3.625,-5.953125 c 0.34375,0 0.375,0.015625 0.5625,0.0625 C 4.109375,-5.859375 4,-5.8125 3.5625,-5.8125 c -0.1875,0 -0.296875,0 -0.40625,-0.09375 z M 2.375,-3.1875 c 0.234375,-0.046875 0.453125,-0.046875 0.5625,-0.046875 0.359375,0 0.390625,0 0.578125,0.046875 -0.09375,0.046875 -0.1875,0.09375 -0.640625,0.09375 -0.234375,0 -0.328125,0 -0.5,-0.09375 z m 0,0"
               style="stroke:none" />
          </symbol>
        </g>
      </defs>
      <g
         transform="translate(-148.946,-127.812)"
         id="id-91132d78-ae99-4616-babb-b80c294238f2">
        <g
           id="id-450632e1-3210-49e0-99e1-56f9b44b37d7"
           style="fill:#000000;fill-opacity:1">
          <g
             transform="translate(148.712,134.765)"
             id="g2695">
            <path
               id="id-531f878c-c9d2-4ae2-a7be-e9936c0c1e18"
               d="m 1.53125,-3.046875 c -1.078125,0.71875 -1.296875,1.65625 -1.296875,2.015625 0,0.46875 0.265625,0.75 0.28125,0.78125 0.328125,0.328125 0.40625,0.375 1.15625,0.65625 L 2.875,0.875 C 3.03125,0.9375 3.234375,1 3.234375,1.296875 c 0,0.234375 -0.1875,0.53125 -0.5,0.53125 -0.4375,0 -0.765625,-0.25 -0.875,-0.328125 C 1.796875,1.46875 1.796875,1.453125 1.75,1.453125 c -0.078125,0 -0.09375,0.078125 -0.09375,0.109375 0,0.125 0.53125,0.484375 1.078125,0.484375 0.625,0 1.046875,-0.578125 1.046875,-1.0625 C 3.78125,0.5 3.40625,0.3125 3.296875,0.265625 3.15625,0.21875 2.828125,0.09375 2.6875,0.046875 2.5,-0.046875 2.296875,-0.125 2.078125,-0.1875 l -0.59375,-0.234375 c -0.453125,-0.1875 -0.75,-0.46875 -0.75,-0.890625 0,-0.40625 0.390625,-1.28125 1.234375,-1.703125 C 2.328125,-2.875 2.625,-2.875 2.84375,-2.875 c 0.296875,0 0.921875,0 0.921875,-0.3125 0,-0.25 -0.421875,-0.265625 -0.8125,-0.265625 -0.1875,0 -0.46875,0 -0.84375,0.109375 -0.25,-0.25 -0.296875,-0.578125 -0.296875,-0.765625 0,-0.5625 0.359375,-1.328125 1.109375,-1.703125 0.171875,0.21875 0.40625,0.21875 0.640625,0.21875 0.25,0 0.890625,0 0.890625,-0.3125 0,-0.25 -0.453125,-0.265625 -0.828125,-0.265625 -0.140625,0 -0.375,0 -0.640625,0.046875 C 2.953125,-6.203125 2.9375,-6.28125 2.9375,-6.453125 c 0,-0.140625 0.046875,-0.34375 0.046875,-0.359375 0,-0.078125 -0.046875,-0.140625 -0.109375,-0.140625 -0.1875,0 -0.1875,0.46875 -0.1875,0.5 0,0.1875 0.0625,0.34375 0.078125,0.375 -1.078125,0.3125 -1.75,1.109375 -1.75,1.875 0,0.359375 0.1875,0.78125 0.65625,1.046875 z m 1.625,-2.859375 C 3.3125,-5.953125 3.515625,-5.953125 3.625,-5.953125 c 0.34375,0 0.375,0.015625 0.5625,0.0625 C 4.109375,-5.859375 4,-5.8125 3.5625,-5.8125 c -0.1875,0 -0.296875,0 -0.40625,-0.09375 z M 2.375,-3.1875 c 0.234375,-0.046875 0.453125,-0.046875 0.5625,-0.046875 0.359375,0 0.390625,0 0.578125,0.046875 -0.09375,0.046875 -0.1875,0.09375 -0.640625,0.09375 -0.234375,0 -0.328125,0 -0.5,-0.09375 z m 0,0"
               style="stroke:none" />
          </g>
        </g>
      </g>
    </g>
    <g
       transform="matrix(1.41111,0,0,1.41111,182.15765,184.0691)"
       ns2:version="1.0.1"
       ns2:texconverter="pdflatex"
       ns2:pdfconverter="inkscape"
       ns2:text="$\\mathbf{G}$"
       ns2:preamble="C:\\Users\\claum\\AppData\\Roaming\\inkscape\\extensions\\textext\\default_packages.tex"
       ns2:scale="4.0"
       ns2:alignment="middle center"
       ns2:inkscapeversion="1.0"
       ns2:jacobian_sqrt="1.41111"
       id="g2898">
      <defs
         id="id-bc3a4ae8-c759-49e1-a9ed-780ea60b34bd">
        <g
           id="id-7a73a0df-cc90-4ab9-857c-14f62e7d8851">
          <symbol
             id="id-1123d3c9-4225-4120-88b2-079efe0368d0"
             overflow="visible">
            <path
               id="id-d6fcbc7c-f3d2-4d23-a5f3-7b1ee5aad6f2"
               d=""
               style="stroke:none" />
          </symbol>
          <symbol
             id="id-1326f09a-b8cf-4df5-af92-52e814a17770"
             overflow="visible">
            <path
               id="id-0f44dc8a-83e7-4f1f-b12f-13cb995a85bf"
               d="M 6.515625,-0.53125 C 6.8125,-0.265625 7.421875,0 7.484375,0 7.625,0 7.625,-0.125 7.625,-0.28125 v -2 H 8.421875 V -2.75 c -0.34375,0.03125 -1.21875,0.03125 -1.609375,0.03125 -0.578125,0 -1.5,0 -2.03125,-0.03125 v 0.46875 h 1.421875 v 1 c 0,0.1875 0,0.484375 -0.375,0.71875 C 5.5625,-0.421875 5.25,-0.359375 4.921875,-0.359375 c -0.859375,0 -1.71875,-0.28125 -2.203125,-0.90625 -0.421875,-0.546875 -0.5625,-1.25 -0.5625,-2.15625 0,-1.125 0.203125,-1.703125 0.578125,-2.1875 0.390625,-0.5 1.15625,-0.875 2.125,-0.875 1.0625,0 2.015625,0.765625 2.234375,2.03125 C 7.125,-4.265625 7.125,-4.25 7.359375,-4.25 c 0.25,0 0.265625,-0.015625 0.265625,-0.28125 v -2.140625 c 0,-0.1875 0,-0.28125 -0.171875,-0.28125 -0.09375,0 -0.109375,0.03125 -0.203125,0.09375 l -0.65625,0.59375 c -0.71875,-0.578125 -1.4375,-0.6875 -1.953125,-0.6875 -2.453125,0 -4,1.46875 -4,3.53125 0,1.984375 1.4375,3.53125 4.015625,3.53125 0.328125,0 1.359375,-0.015625 1.859375,-0.640625 z m 0,0"
               style="stroke:none" />
          </symbol>
        </g>
      </defs>
      <g
         transform="translate(-149.353,-127.812)"
         id="id-7d1f0cf4-50a0-46a8-93cb-5df93b6b2870">
        <g
           id="id-3db25edb-5541-476a-8633-328b1cda8446"
           style="fill:#000000;fill-opacity:1">
          <g
             transform="translate(148.712,134.765)"
             id="g2894">
            <path
               id="id-9e0ab697-d67c-429d-b884-5aa414ce2a4d"
               d="M 6.515625,-0.53125 C 6.8125,-0.265625 7.421875,0 7.484375,0 7.625,0 7.625,-0.125 7.625,-0.28125 v -2 H 8.421875 V -2.75 c -0.34375,0.03125 -1.21875,0.03125 -1.609375,0.03125 -0.578125,0 -1.5,0 -2.03125,-0.03125 v 0.46875 h 1.421875 v 1 c 0,0.1875 0,0.484375 -0.375,0.71875 C 5.5625,-0.421875 5.25,-0.359375 4.921875,-0.359375 c -0.859375,0 -1.71875,-0.28125 -2.203125,-0.90625 -0.421875,-0.546875 -0.5625,-1.25 -0.5625,-2.15625 0,-1.125 0.203125,-1.703125 0.578125,-2.1875 0.390625,-0.5 1.15625,-0.875 2.125,-0.875 1.0625,0 2.015625,0.765625 2.234375,2.03125 C 7.125,-4.265625 7.125,-4.25 7.359375,-4.25 c 0.25,0 0.265625,-0.015625 0.265625,-0.28125 v -2.140625 c 0,-0.1875 0,-0.28125 -0.171875,-0.28125 -0.09375,0 -0.109375,0.03125 -0.203125,0.09375 l -0.65625,0.59375 c -0.71875,-0.578125 -1.4375,-0.6875 -1.953125,-0.6875 -2.453125,0 -4,1.46875 -4,3.53125 0,1.984375 1.4375,3.53125 4.015625,3.53125 0.328125,0 1.359375,-0.015625 1.859375,-0.640625 z m 0,0"
               style="stroke:none" />
          </g>
        </g>
      </g>
    </g>
    <circle
       r="1"
       cy="195"
       cx="180"
       id="path2914"
       style="fill:#000000;stroke:#000000;stroke-width:0.26458299;stroke-miterlimit:4;stroke-dasharray:none;stroke-dashoffset:0;fill-opacity:1" />
  </g>
</svg>
