<?xml version="1.0" encoding="UTF-8" standalone="no"?>
<svg
   xmlns:ns2="http://www.iki.fi/pav/software/textext/"
   xmlns:dc="http://purl.org/dc/elements/1.1/"
   xmlns:cc="http://creativecommons.org/ns#"
   xmlns:rdf="http://www.w3.org/1999/02/22-rdf-syntax-ns#"
   xmlns:svg="http://www.w3.org/2000/svg"
   xmlns="http://www.w3.org/2000/svg"
   xmlns:sodipodi="http://sodipodi.sourceforge.net/DTD/sodipodi-0.dtd"
   xmlns:inkscape="http://www.inkscape.org/namespaces/inkscape"
   sodipodi:docname="Esercizio8_3_1.svg"
   inkscape:version="1.0 (4035a4fb49, 2020-05-01)"
   id="svg8"
   version="1.1"
   viewBox="0 0 580 539.99999"
   height="54cm"
   width="58cm">
  <defs
     id="defs2">
    <marker
       inkscape:stockid="Arrow1Lend"
       orient="auto"
       refY="0"
       refX="0"
       id="marker1912"
       style="overflow:visible"
       inkscape:isstock="true">
      <path
         id="path1910"
         d="M 0,0 5,-5 -12.5,0 5,5 Z"
         style="fill:#000000;fill-opacity:1;fill-rule:evenodd;stroke:#000000;stroke-width:1pt;stroke-opacity:1"
         transform="matrix(-0.8,0,0,-0.8,-10,0)" />
    </marker>
    <marker
       inkscape:collect="always"
       inkscape:isstock="true"
       style="overflow:visible"
       id="Arrow1Lend"
       refX="0"
       refY="0"
       orient="auto"
       inkscape:stockid="Arrow1Lend">
      <path
         transform="matrix(-0.8,0,0,-0.8,-10,0)"
         style="fill:#000000;fill-opacity:1;fill-rule:evenodd;stroke:#000000;stroke-width:1pt;stroke-opacity:1"
         d="M 0,0 5,-5 -12.5,0 5,5 Z"
         id="path1635" />
    </marker>
  </defs>
  <sodipodi:namedview
     inkscape:window-maximized="1"
     inkscape:window-y="-8"
     inkscape:window-x="-8"
     inkscape:window-height="715"
     inkscape:window-width="1366"
     units="cm"
     showgrid="true"
     inkscape:document-rotation="0"
     inkscape:current-layer="layer1"
     inkscape:document-units="mm"
     inkscape:cy="858.5653"
     inkscape:cx="968.44298"
     inkscape:zoom="0.24748737"
     inkscape:pageshadow="2"
     inkscape:pageopacity="0.0"
     borderopacity="1.0"
     bordercolor="#666666"
     pagecolor="#ffffff"
     id="base">
    <inkscape:grid
       id="grid10"
       type="xygrid" />
  </sodipodi:namedview>
  <metadata
     id="metadata5">
    <rdf:RDF>
      <cc:Work
         rdf:about="">
        <dc:format>image/svg+xml</dc:format>
        <dc:type
           rdf:resource="http://purl.org/dc/dcmitype/StillImage" />
        <dc:title></dc:title>
      </cc:Work>
    </rdf:RDF>
  </metadata>
  <g
     id="layer1"
     inkscape:groupmode="layer"
     inkscape:label="Livello 1">
    <path
       sodipodi:nodetypes="cassssssc"
       id="path907"
       d="m 47.99999,470.99998 c 0,0 1.136953,-1.61001 1.832955,-2.30066 0.651593,-0.64658 1.34661,-1.23481 2.167044,-1.69933 1.195975,-0.67715 2.635929,-0.83208 4,-1 0.992508,-0.12218 2.004867,-0.0985 3,0 1.691401,0.16748 3.501441,0.198 5,1 1.246876,0.66731 2.256503,1.797 2.999999,3 0.554169,0.89666 0.831154,1.95952 1.000001,3 0.106789,0.65806 0,2.00002 0,2.00002"
       style="fill:none;stroke:#000000;stroke-width:0.264583px;stroke-linecap:butt;stroke-linejoin:miter;stroke-opacity:1" />
    <path
       id="path12"
       d="M 61.000001,505.00001 H 211"
       style="fill:none;stroke:#000000;stroke-width:0.5;stroke-linecap:butt;stroke-linejoin:miter;stroke-miterlimit:4;stroke-dasharray:none;stroke-opacity:1" />
    <path
       id="path837"
       d="M 51,515.00001 71,495"
       style="fill:none;stroke:#000000;stroke-width:0.264583px;stroke-linecap:butt;stroke-linejoin:miter;stroke-opacity:1" />
    <path
       id="path839"
       d="M 201,515.00001 221,495"
       style="fill:none;stroke:#000000;stroke-width:0.264583px;stroke-linecap:butt;stroke-linejoin:miter;stroke-opacity:1" />
    <path
       style="fill:none;stroke:#000000;stroke-width:0.5;stroke-linecap:butt;stroke-linejoin:miter;stroke-miterlimit:4;stroke-dasharray:none;stroke-opacity:1"
       d="M 211,505.00001 H 361"
       id="path841" />
    <path
       id="path843"
       d="M 351,515.00001 370.99998,495"
       style="fill:none;stroke:#000000;stroke-width:0.264583px;stroke-linecap:butt;stroke-linejoin:miter;stroke-opacity:1" />
    <path
       id="path845"
       d="M 361,505.00001 H 511"
       style="fill:none;stroke:#000000;stroke-width:0.5;stroke-linecap:butt;stroke-linejoin:miter;stroke-miterlimit:4;stroke-dasharray:none;stroke-opacity:1" />
    <path
       id="path847"
       d="M 500.99999,515.00001 521,495"
       style="fill:none;stroke:#000000;stroke-width:0.264583px;stroke-linecap:butt;stroke-linejoin:miter;stroke-opacity:1" />
    <path
       style="fill:none;stroke:#000000;stroke-width:0.5;stroke-linecap:butt;stroke-linejoin:miter;stroke-miterlimit:4;stroke-dasharray:none;stroke-opacity:1"
       d="M 21,315 V 465"
       id="path849" />
    <path
       id="path851"
       d="M 11,474.99999 30.999999,455"
       style="fill:none;stroke:#000000;stroke-width:0.264583px;stroke-linecap:butt;stroke-linejoin:miter;stroke-opacity:1" />
    <path
       id="path853"
       d="M 11,325 30.999999,305"
       style="fill:none;stroke:#000000;stroke-width:0.264583px;stroke-linecap:butt;stroke-linejoin:miter;stroke-opacity:1" />
    <path
       id="path855"
       d="M 21,165 V 315"
       style="fill:none;stroke:#000000;stroke-width:0.5;stroke-linecap:butt;stroke-linejoin:miter;stroke-miterlimit:4;stroke-dasharray:none;stroke-opacity:1" />
    <path
       id="path857"
       d="M 11,175 30.999999,155"
       style="fill:none;stroke:#000000;stroke-width:0.264583px;stroke-linecap:butt;stroke-linejoin:miter;stroke-opacity:1" />
    <path
       id="path859"
       d="M 60.999999,465 V 165"
       style="fill:none;stroke:#000000;stroke-width:1;stroke-linecap:butt;stroke-linejoin:miter;stroke-miterlimit:4;stroke-dasharray:none;stroke-opacity:1" />
    <path
       style="fill:none;stroke:#000000;stroke-width:1;stroke-linecap:butt;stroke-linejoin:miter;stroke-miterlimit:4;stroke-dasharray:none;stroke-opacity:1"
       d="M 61,165 H 361"
       id="path861" />
    <path
       id="path867"
       d="M 361,165 H 510.99999 V 314.99999"
       style="fill:none;stroke:#000000;stroke-width:1;stroke-linecap:butt;stroke-linejoin:miter;stroke-miterlimit:4;stroke-dasharray:none;stroke-opacity:1" />
    <path
       id="path875"
       d="M 60.999999,465 361,165"
       style="fill:none;stroke:#000000;stroke-width:0.265;stroke-linecap:butt;stroke-linejoin:miter;stroke-miterlimit:4;stroke-dasharray:0.795, 0.265;stroke-dashoffset:0;stroke-opacity:1" />
    <circle
       r="5"
       cy="465"
       cx="61"
       id="path873"
       style="opacity:1;fill:#ffffff;fill-opacity:1;stroke:#000000;stroke-width:0.7;stroke-linecap:round;stroke-linejoin:bevel;stroke-miterlimit:4;stroke-dasharray:none;stroke-opacity:1" />
    <path
       style="fill:none;stroke:#000000;stroke-width:0.265;stroke-linecap:butt;stroke-linejoin:miter;stroke-miterlimit:4;stroke-dasharray:0.53, 0.265;stroke-dashoffset:0;stroke-opacity:1"
       d="M 511,165 V 15"
       id="path879" />
    <path
       id="path881"
       d="M 361,165 510.99999,15"
       style="fill:none;stroke:#000000;stroke-width:0.264583;stroke-linecap:butt;stroke-linejoin:miter;stroke-miterlimit:4;stroke-dasharray:0.529166, 0.264583;stroke-dashoffset:0;stroke-opacity:1" />
    <circle
       r="5"
       cy="165"
       cx="361"
       id="path871"
       style="opacity:1;fill:#ffffff;fill-opacity:1;stroke:#000000;stroke-width:0.7;stroke-linecap:round;stroke-linejoin:bevel;stroke-miterlimit:4;stroke-dasharray:none;stroke-opacity:1" />
    <path
       id="path883"
       d="m 501.00001,324.99999 9.99998,-10 10,10 z"
       style="fill:none;stroke:#000000;stroke-width:0.264583px;stroke-linecap:butt;stroke-linejoin:miter;stroke-opacity:1" />
    <circle
       r="3"
       cy="328"
       cx="504"
       id="path887"
       style="opacity:1;fill:#ffffff;fill-opacity:1;stroke:#000000;stroke-width:0.264583;stroke-linecap:round;stroke-linejoin:bevel;stroke-miterlimit:4;stroke-dasharray:none;stroke-dashoffset:0;stroke-opacity:1" />
    <circle
       r="3"
       cy="328"
       cx="518"
       id="path889"
       style="opacity:1;fill:#ffffff;fill-opacity:1;stroke:#000000;stroke-width:0.264583;stroke-linecap:round;stroke-linejoin:bevel;stroke-miterlimit:4;stroke-dasharray:none;stroke-dashoffset:0;stroke-opacity:1" />
    <path
       id="path891"
       d="m 498,331 h 26"
       style="fill:none;stroke:#000000;stroke-width:0.264583px;stroke-linecap:butt;stroke-linejoin:miter;stroke-opacity:1" />
    <path
       id="path893"
       d="M 498.99999,334.00001 502,331"
       style="fill:none;stroke:#000000;stroke-width:0.264583px;stroke-linecap:butt;stroke-linejoin:miter;stroke-opacity:1" />
    <path
       style="fill:none;stroke:#000000;stroke-width:0.264583px;stroke-linecap:butt;stroke-linejoin:miter;stroke-opacity:1"
       d="M 502.99999,334.00001 506,331"
       id="path895" />
    <path
       id="path897"
       d="M 506.99999,334.00001 510,331"
       style="fill:none;stroke:#000000;stroke-width:0.264583px;stroke-linecap:butt;stroke-linejoin:miter;stroke-opacity:1" />
    <path
       style="fill:none;stroke:#000000;stroke-width:0.264583px;stroke-linecap:butt;stroke-linejoin:miter;stroke-opacity:1"
       d="M 510.99999,334.00001 514,331"
       id="path899" />
    <path
       id="path901"
       d="M 514.99999,334.00001 518,331"
       style="fill:none;stroke:#000000;stroke-width:0.264583px;stroke-linecap:butt;stroke-linejoin:miter;stroke-opacity:1" />
    <path
       style="fill:none;stroke:#000000;stroke-width:0.264583px;stroke-linecap:butt;stroke-linejoin:miter;stroke-opacity:1"
       d="m 519,334 3.00001,-3.00001"
       id="path903" />
    <path
       id="path905"
       d="m 498,331 v 3.00001 h 26 V 331"
       style="opacity:0.110787;fill:#000000;fill-opacity:1;stroke:none;stroke-width:0.264583px;stroke-linecap:butt;stroke-linejoin:miter;stroke-opacity:1" />
    <path
       sodipodi:nodetypes="cc"
       id="path909"
       d="m 50.999989,472 5.000001,-6"
       style="fill:none;stroke:#000000;stroke-width:0.264583px;stroke-linecap:butt;stroke-linejoin:miter;stroke-opacity:1" />
    <path
       id="path911"
       d="M 54.999989,472.99999 56.99999,468"
       style="fill:none;stroke:#000000;stroke-width:0.264583px;stroke-linecap:butt;stroke-linejoin:miter;stroke-opacity:1" />
    <path
       sodipodi:nodetypes="cc"
       id="path913"
       d="m 58.99999,474 0.999999,-4.00001"
       style="fill:none;stroke:#000000;stroke-width:0.264583px;stroke-linecap:butt;stroke-linejoin:miter;stroke-opacity:1" />
    <path
       sodipodi:nodetypes="cc"
       id="path915"
       d="m 62.99999,475 -2e-6,-5.00001"
       style="fill:none;stroke:#000000;stroke-width:0.264583px;stroke-linecap:butt;stroke-linejoin:miter;stroke-opacity:1" />
    <path
       id="path921"
       d="M 65.999988,475.00001 64.99999,468"
       style="fill:none;stroke:#000000;stroke-width:0.264583px;stroke-linecap:butt;stroke-linejoin:miter;stroke-opacity:1" />
    <path
       id="path1628"
       d="M 211,545 V 15"
       style="fill:none;stroke:#000000;stroke-width:0.265;stroke-linecap:butt;stroke-linejoin:miter;stroke-miterlimit:4;stroke-dasharray:0.265, 2.12;stroke-dashoffset:0;stroke-opacity:1" />
    <path
       id="path1630"
       d="m 211,95 v 60"
       style="fill:none;stroke:#000000;stroke-width:1;stroke-linecap:butt;stroke-linejoin:miter;stroke-miterlimit:4;stroke-dasharray:none;stroke-opacity:1;marker-end:url(#Arrow1Lend)" />
    <path
       style="fill:none;stroke:#000000;stroke-width:1;stroke-linecap:butt;stroke-linejoin:miter;stroke-miterlimit:4;stroke-dasharray:none;stroke-opacity:1;marker-end:url(#marker1912)"
       d="m 511,315 h 60"
       id="path1908" />
    <g
       transform="matrix(1.5875,0,0,1.5875,217.03125,93.83458)"
       ns2:version="1.0.1"
       ns2:texconverter="pdflatex"
       ns2:pdfconverter="inkscape"
       ns2:text="$F_1$"
       ns2:preamble="C:\\Users\\claum\\AppData\\Roaming\\inkscape\\extensions\\textext\\default_packages.tex"
       ns2:scale="4.5"
       ns2:alignment="middle center"
       ns2:inkscapeversion="1.0"
       ns2:jacobian_sqrt="1.5875"
       id="g2139">
      <defs
         id="id-57cdc33d-7c9a-4f05-9348-04f6c8f34786">
        <g
           id="id-6e7dde34-38e1-4e45-9c1e-f367f95dd7b1">
          <symbol
             id="id-a8ba06b8-02be-402f-87a4-e382bb7d5169"
             overflow="visible">
            <path
               id="id-20f28c4c-0a87-45a8-b6a8-bc82729c9e5f"
               d=""
               style="stroke:none" />
          </symbol>
          <symbol
             id="id-08f72de2-cef0-434f-9756-b30993fa93a8"
             overflow="visible">
            <path
               id="id-38d1c1bf-b714-404c-840f-8c5d7b332030"
               d="m 3.015625,-3.234375 h 0.96875 c 0.75,0 0.828125,0.15625 0.828125,0.4375 0,0.078125 0,0.1875 -0.0625,0.5 C 4.71875,-2.25 4.71875,-2.21875 4.71875,-2.1875 c 0,0.078125 0.0625,0.109375 0.109375,0.109375 0.109375,0 0.109375,-0.03125 0.15625,-0.203125 L 5.53125,-4.453125 C 5.5625,-4.5625 5.5625,-4.578125 5.5625,-4.609375 5.5625,-4.625 5.546875,-4.71875 5.4375,-4.71875 5.34375,-4.71875 5.328125,-4.671875 5.296875,-4.5 5.078125,-3.734375 4.859375,-3.546875 4,-3.546875 H 3.09375 l 0.640625,-2.53125 C 3.828125,-6.4375 3.84375,-6.46875 4.28125,-6.46875 h 1.3125 c 1.21875,0 1.453125,0.328125 1.453125,1.09375 0,0.234375 0,0.265625 -0.03125,0.546875 C 7,-4.703125 7,-4.6875 7,-4.65625 c 0,0.046875 0.03125,0.125 0.125,0.125 0.109375,0 0.109375,-0.0625 0.125,-0.25 L 7.453125,-6.515625 C 7.484375,-6.78125 7.4375,-6.78125 7.1875,-6.78125 H 2.296875 c -0.1875,0 -0.296875,0 -0.296875,0.203125 0,0.109375 0.09375,0.109375 0.28125,0.109375 0.375,0 0.65625,0 0.65625,0.171875 0,0.046875 0,0.0625 -0.0625,0.25 L 1.5625,-0.78125 c -0.09375,0.390625 -0.109375,0.46875 -0.90625,0.46875 -0.171875,0 -0.28125,0 -0.28125,0.1875 C 0.375,0 0.5,0 0.53125,0 0.8125,0 1.5625,-0.03125 1.84375,-0.03125 2.171875,-0.03125 3,0 3.328125,0 3.421875,0 3.53125,0 3.53125,-0.1875 3.53125,-0.265625 3.484375,-0.296875 3.484375,-0.296875 3.453125,-0.3125 3.421875,-0.3125 3.203125,-0.3125 c -0.21875,0 -0.265625,0 -0.515625,-0.015625 -0.296875,-0.03125 -0.328125,-0.078125 -0.328125,-0.203125 0,-0.015625 0,-0.078125 0.046875,-0.21875 z m 0,0"
               style="stroke:none" />
          </symbol>
          <symbol
             id="id-149c0f26-1e14-4460-8adb-48c1f7a738ad"
             overflow="visible">
            <path
               id="id-9b0323ff-2632-4d77-a639-326f0439da1a"
               d=""
               style="stroke:none" />
          </symbol>
          <symbol
             id="id-645711ae-b96b-48ac-93a6-a7509283a647"
             overflow="visible">
            <path
               id="id-2a294b27-b3c9-4c0b-991f-d356288ea9a9"
               d="m 2.328125,-4.4375 c 0,-0.1875 0,-0.1875 -0.203125,-0.1875 -0.453125,0.4375 -1.078125,0.4375 -1.359375,0.4375 v 0.25 c 0.15625,0 0.625,0 1,-0.1875 v 3.546875 c 0,0.234375 0,0.328125 -0.6875,0.328125 H 0.8125 V 0 c 0.125,0 0.984375,-0.03125 1.234375,-0.03125 0.21875,0 1.09375,0.03125 1.25,0.03125 V -0.25 H 3.03125 c -0.703125,0 -0.703125,-0.09375 -0.703125,-0.328125 z m 0,0"
               style="stroke:none" />
          </symbol>
        </g>
      </defs>
      <g
         transform="translate(-149.087,-127.984)"
         id="id-294cfe0d-0293-49d8-85fe-0ae3ace98ac5">
        <g
           id="id-e17f444b-2b92-43df-bd63-58ed6e4b15f5"
           style="fill:#000000;fill-opacity:1">
          <g
             transform="translate(148.712,134.765)"
             id="g2131">
            <path
               id="id-28b7e467-69fa-45d5-981b-d816bd7782ba"
               d="m 3.015625,-3.234375 h 0.96875 c 0.75,0 0.828125,0.15625 0.828125,0.4375 0,0.078125 0,0.1875 -0.0625,0.5 C 4.71875,-2.25 4.71875,-2.21875 4.71875,-2.1875 c 0,0.078125 0.0625,0.109375 0.109375,0.109375 0.109375,0 0.109375,-0.03125 0.15625,-0.203125 L 5.53125,-4.453125 C 5.5625,-4.5625 5.5625,-4.578125 5.5625,-4.609375 5.5625,-4.625 5.546875,-4.71875 5.4375,-4.71875 5.34375,-4.71875 5.328125,-4.671875 5.296875,-4.5 5.078125,-3.734375 4.859375,-3.546875 4,-3.546875 H 3.09375 l 0.640625,-2.53125 C 3.828125,-6.4375 3.84375,-6.46875 4.28125,-6.46875 h 1.3125 c 1.21875,0 1.453125,0.328125 1.453125,1.09375 0,0.234375 0,0.265625 -0.03125,0.546875 C 7,-4.703125 7,-4.6875 7,-4.65625 c 0,0.046875 0.03125,0.125 0.125,0.125 0.109375,0 0.109375,-0.0625 0.125,-0.25 L 7.453125,-6.515625 C 7.484375,-6.78125 7.4375,-6.78125 7.1875,-6.78125 H 2.296875 c -0.1875,0 -0.296875,0 -0.296875,0.203125 0,0.109375 0.09375,0.109375 0.28125,0.109375 0.375,0 0.65625,0 0.65625,0.171875 0,0.046875 0,0.0625 -0.0625,0.25 L 1.5625,-0.78125 c -0.09375,0.390625 -0.109375,0.46875 -0.90625,0.46875 -0.171875,0 -0.28125,0 -0.28125,0.1875 C 0.375,0 0.5,0 0.53125,0 0.8125,0 1.5625,-0.03125 1.84375,-0.03125 2.171875,-0.03125 3,0 3.328125,0 3.421875,0 3.53125,0 3.53125,-0.1875 3.53125,-0.265625 3.484375,-0.296875 3.484375,-0.296875 3.453125,-0.3125 3.421875,-0.3125 3.203125,-0.3125 c -0.21875,0 -0.265625,0 -0.515625,-0.015625 -0.296875,-0.03125 -0.328125,-0.078125 -0.328125,-0.203125 0,-0.015625 0,-0.078125 0.046875,-0.21875 z m 0,0"
               style="stroke:none" />
          </g>
        </g>
        <g
           id="id-00f918d9-8973-4da6-b91e-a54aa85bbdec"
           style="fill:#000000;fill-opacity:1">
          <g
             transform="translate(155.119,136.259)"
             id="g2135">
            <path
               id="id-6b81e0b3-41f5-4559-8343-c9a393450156"
               d="m 2.328125,-4.4375 c 0,-0.1875 0,-0.1875 -0.203125,-0.1875 -0.453125,0.4375 -1.078125,0.4375 -1.359375,0.4375 v 0.25 c 0.15625,0 0.625,0 1,-0.1875 v 3.546875 c 0,0.234375 0,0.328125 -0.6875,0.328125 H 0.8125 V 0 c 0.125,0 0.984375,-0.03125 1.234375,-0.03125 0.21875,0 1.09375,0.03125 1.25,0.03125 V -0.25 H 3.03125 c -0.703125,0 -0.703125,-0.09375 -0.703125,-0.328125 z m 0,0"
               style="stroke:none" />
          </g>
        </g>
      </g>
    </g>
    <g
       transform="matrix(1.5875,0,0,1.5875,556.51,294.866)"
       ns2:version="1.0.1"
       ns2:texconverter="pdflatex"
       ns2:pdfconverter="inkscape"
       ns2:text="$F_2$"
       ns2:preamble="C:\\Users\\claum\\AppData\\Roaming\\inkscape\\extensions\\textext\\default_packages.tex"
       ns2:scale="4.5"
       ns2:alignment="middle center"
       ns2:inkscapeversion="1.0"
       ns2:jacobian_sqrt="1.5875"
       id="g2283">
      <defs
         id="id-eea5be8f-dbd3-4c91-bab4-8f83784f1069">
        <g
           id="id-e3c37939-a08d-40af-8891-cb12786b7964">
          <symbol
             id="id-0d00f126-a81e-41f9-9768-96dc8dec0687"
             overflow="visible">
            <path
               id="id-97db2ee8-56a4-4a83-9bb7-c1a9b1185f26"
               d=""
               style="stroke:none" />
          </symbol>
          <symbol
             id="id-d2593512-b1ca-46cc-8620-3879d74e7436"
             overflow="visible">
            <path
               id="id-26cb88c9-912a-4fe8-aea6-a3fa65e55180"
               d="m 3.015625,-3.234375 h 0.96875 c 0.75,0 0.828125,0.15625 0.828125,0.4375 0,0.078125 0,0.1875 -0.0625,0.5 C 4.71875,-2.25 4.71875,-2.21875 4.71875,-2.1875 c 0,0.078125 0.0625,0.109375 0.109375,0.109375 0.109375,0 0.109375,-0.03125 0.15625,-0.203125 L 5.53125,-4.453125 C 5.5625,-4.5625 5.5625,-4.578125 5.5625,-4.609375 5.5625,-4.625 5.546875,-4.71875 5.4375,-4.71875 5.34375,-4.71875 5.328125,-4.671875 5.296875,-4.5 5.078125,-3.734375 4.859375,-3.546875 4,-3.546875 H 3.09375 l 0.640625,-2.53125 C 3.828125,-6.4375 3.84375,-6.46875 4.28125,-6.46875 h 1.3125 c 1.21875,0 1.453125,0.328125 1.453125,1.09375 0,0.234375 0,0.265625 -0.03125,0.546875 C 7,-4.703125 7,-4.6875 7,-4.65625 c 0,0.046875 0.03125,0.125 0.125,0.125 0.109375,0 0.109375,-0.0625 0.125,-0.25 L 7.453125,-6.515625 C 7.484375,-6.78125 7.4375,-6.78125 7.1875,-6.78125 H 2.296875 c -0.1875,0 -0.296875,0 -0.296875,0.203125 0,0.109375 0.09375,0.109375 0.28125,0.109375 0.375,0 0.65625,0 0.65625,0.171875 0,0.046875 0,0.0625 -0.0625,0.25 L 1.5625,-0.78125 c -0.09375,0.390625 -0.109375,0.46875 -0.90625,0.46875 -0.171875,0 -0.28125,0 -0.28125,0.1875 C 0.375,0 0.5,0 0.53125,0 0.8125,0 1.5625,-0.03125 1.84375,-0.03125 2.171875,-0.03125 3,0 3.328125,0 3.421875,0 3.53125,0 3.53125,-0.1875 3.53125,-0.265625 3.484375,-0.296875 3.484375,-0.296875 3.453125,-0.3125 3.421875,-0.3125 3.203125,-0.3125 c -0.21875,0 -0.265625,0 -0.515625,-0.015625 -0.296875,-0.03125 -0.328125,-0.078125 -0.328125,-0.203125 0,-0.015625 0,-0.078125 0.046875,-0.21875 z m 0,0"
               style="stroke:none" />
          </symbol>
          <symbol
             id="id-07820cd2-763a-47cf-9e79-b507d7e1adb1"
             overflow="visible">
            <path
               id="id-d0300ad7-1407-4dd2-a21b-2395031b71be"
               d=""
               style="stroke:none" />
          </symbol>
          <symbol
             id="id-064e3091-7eb0-4700-80f0-2f7c8d716b16"
             overflow="visible">
            <path
               id="id-4cb31239-dcc1-44c5-a82e-2cece0ba12a2"
               d="M 3.515625,-1.265625 H 3.28125 c -0.015625,0.15625 -0.09375,0.5625 -0.1875,0.625 C 3.046875,-0.59375 2.515625,-0.59375 2.40625,-0.59375 H 1.125 c 0.734375,-0.640625 0.984375,-0.84375 1.390625,-1.171875 0.515625,-0.40625 1,-0.84375 1,-1.5 0,-0.84375 -0.734375,-1.359375 -1.625,-1.359375 -0.859375,0 -1.453125,0.609375 -1.453125,1.25 0,0.34375 0.296875,0.390625 0.375,0.390625 0.15625,0 0.359375,-0.125 0.359375,-0.375 0,-0.125 -0.046875,-0.375 -0.40625,-0.375 C 0.984375,-4.21875 1.453125,-4.375 1.78125,-4.375 c 0.703125,0 1.0625,0.546875 1.0625,1.109375 0,0.609375 -0.4375,1.078125 -0.65625,1.328125 L 0.515625,-0.265625 C 0.4375,-0.203125 0.4375,-0.1875 0.4375,0 h 2.875 z m 0,0"
               style="stroke:none" />
          </symbol>
        </g>
      </defs>
      <g
         transform="translate(-149.087,-127.984)"
         id="id-9813deab-5504-4dc7-aa5a-0cde1ee41c64">
        <g
           id="id-06345417-eb10-4f46-aa8b-1d8aa2f081ba"
           style="fill:#000000;fill-opacity:1">
          <g
             transform="translate(148.712,134.765)"
             id="g2275">
            <path
               id="id-d57d0606-71ed-406d-9fc2-4da119287765"
               d="m 3.015625,-3.234375 h 0.96875 c 0.75,0 0.828125,0.15625 0.828125,0.4375 0,0.078125 0,0.1875 -0.0625,0.5 C 4.71875,-2.25 4.71875,-2.21875 4.71875,-2.1875 c 0,0.078125 0.0625,0.109375 0.109375,0.109375 0.109375,0 0.109375,-0.03125 0.15625,-0.203125 L 5.53125,-4.453125 C 5.5625,-4.5625 5.5625,-4.578125 5.5625,-4.609375 5.5625,-4.625 5.546875,-4.71875 5.4375,-4.71875 5.34375,-4.71875 5.328125,-4.671875 5.296875,-4.5 5.078125,-3.734375 4.859375,-3.546875 4,-3.546875 H 3.09375 l 0.640625,-2.53125 C 3.828125,-6.4375 3.84375,-6.46875 4.28125,-6.46875 h 1.3125 c 1.21875,0 1.453125,0.328125 1.453125,1.09375 0,0.234375 0,0.265625 -0.03125,0.546875 C 7,-4.703125 7,-4.6875 7,-4.65625 c 0,0.046875 0.03125,0.125 0.125,0.125 0.109375,0 0.109375,-0.0625 0.125,-0.25 L 7.453125,-6.515625 C 7.484375,-6.78125 7.4375,-6.78125 7.1875,-6.78125 H 2.296875 c -0.1875,0 -0.296875,0 -0.296875,0.203125 0,0.109375 0.09375,0.109375 0.28125,0.109375 0.375,0 0.65625,0 0.65625,0.171875 0,0.046875 0,0.0625 -0.0625,0.25 L 1.5625,-0.78125 c -0.09375,0.390625 -0.109375,0.46875 -0.90625,0.46875 -0.171875,0 -0.28125,0 -0.28125,0.1875 C 0.375,0 0.5,0 0.53125,0 0.8125,0 1.5625,-0.03125 1.84375,-0.03125 2.171875,-0.03125 3,0 3.328125,0 3.421875,0 3.53125,0 3.53125,-0.1875 3.53125,-0.265625 3.484375,-0.296875 3.484375,-0.296875 3.453125,-0.3125 3.421875,-0.3125 3.203125,-0.3125 c -0.21875,0 -0.265625,0 -0.515625,-0.015625 -0.296875,-0.03125 -0.328125,-0.078125 -0.328125,-0.203125 0,-0.015625 0,-0.078125 0.046875,-0.21875 z m 0,0"
               style="stroke:none" />
          </g>
        </g>
        <g
           id="id-aa1d7dc1-36d1-4f53-9fbd-fd76419b02ff"
           style="fill:#000000;fill-opacity:1">
          <g
             transform="translate(155.119,136.259)"
             id="g2279">
            <path
               id="id-3c327eaf-d873-436d-bf93-20848c13d92e"
               d="M 3.515625,-1.265625 H 3.28125 c -0.015625,0.15625 -0.09375,0.5625 -0.1875,0.625 C 3.046875,-0.59375 2.515625,-0.59375 2.40625,-0.59375 H 1.125 c 0.734375,-0.640625 0.984375,-0.84375 1.390625,-1.171875 0.515625,-0.40625 1,-0.84375 1,-1.5 0,-0.84375 -0.734375,-1.359375 -1.625,-1.359375 -0.859375,0 -1.453125,0.609375 -1.453125,1.25 0,0.34375 0.296875,0.390625 0.375,0.390625 0.15625,0 0.359375,-0.125 0.359375,-0.375 0,-0.125 -0.046875,-0.375 -0.40625,-0.375 C 0.984375,-4.21875 1.453125,-4.375 1.78125,-4.375 c 0.703125,0 1.0625,0.546875 1.0625,1.109375 0,0.609375 -0.4375,1.078125 -0.65625,1.328125 L 0.515625,-0.265625 C 0.4375,-0.203125 0.4375,-0.1875 0.4375,0 h 2.875 z m 0,0"
               style="stroke:none" />
          </g>
        </g>
      </g>
    </g>
    <g
       transform="matrix(1.76389,0,0,1.76389,1.353286,229.0684)"
       ns2:version="1.0.1"
       ns2:texconverter="pdflatex"
       ns2:pdfconverter="inkscape"
       ns2:text="$\\frac{L}{2}$"
       ns2:preamble="C:\\Users\\claum\\AppData\\Roaming\\inkscape\\extensions\\textext\\default_packages.tex"
       ns2:scale="5.0"
       ns2:alignment="middle center"
       ns2:inkscapeversion="1.0"
       ns2:jacobian_sqrt="1.76389"
       id="g2706">
      <defs
         id="id-b6c79e79-a5bc-4bbb-90ab-0c5d70d9f15f">
        <g
           id="id-4e7a9a7f-f413-47f1-8046-18bd3951d6e7">
          <symbol
             id="id-5400217e-e989-464d-b2eb-bdadbb71d9b3"
             overflow="visible">
            <path
               id="id-76bcc746-b2d8-45f1-903f-dd51a7012ae9"
               d=""
               style="stroke:none" />
          </symbol>
          <symbol
             id="id-934ea785-1e47-4c73-96db-99e13862fc33"
             overflow="visible">
            <path
               id="id-eb1b567a-942b-44b3-beaf-48e78dd8ce54"
               d="m 2.875,-4.1875 c 0.0625,-0.25 0.078125,-0.328125 0.71875,-0.328125 0.21875,0 0.28125,0 0.28125,-0.140625 0,-0.015625 0,-0.109375 -0.109375,-0.109375 -0.15625,0 -0.34375,0.015625 -0.515625,0.03125 -0.171875,0 -0.390625,0 -0.5625,0 -0.140625,0 -0.328125,0 -0.484375,0 -0.140625,0 -0.3125,-0.03125 -0.453125,-0.03125 -0.03125,0 -0.140625,0 -0.140625,0.15625 0,0.09375 0.078125,0.09375 0.21875,0.09375 0.015625,0 0.140625,0 0.265625,0.015625 0.15625,0.015625 0.171875,0.03125 0.171875,0.109375 0,0 0,0.046875 -0.03125,0.140625 l -0.9375,3.703125 C 1.234375,-0.3125 1.21875,-0.25 0.6875,-0.25 c -0.109375,0 -0.203125,0 -0.203125,0.140625 C 0.484375,0 0.5625,0 0.6875,0 h 3.5 c 0.1875,0 0.1875,0 0.25,-0.140625 0.0625,-0.1875 0.59375,-1.53125 0.59375,-1.59375 0,-0.015625 -0.015625,-0.09375 -0.125,-0.09375 -0.078125,0 -0.09375,0.03125 -0.140625,0.140625 C 4.5,-1.03125 4.1875,-0.25 2.921875,-0.25 H 2.125 c -0.203125,0 -0.21875,-0.015625 -0.21875,-0.078125 0,0 0,-0.03125 0.03125,-0.140625 z m 0,0"
               style="stroke:none" />
          </symbol>
          <symbol
             id="id-83f83bf3-0875-4051-bdc5-1744f5316a72"
             overflow="visible">
            <path
               id="id-1dd8133e-f4dd-4a46-8f1f-1ce12b368010"
               d=""
               style="stroke:none" />
          </symbol>
          <symbol
             id="id-311a10e6-43e3-4816-b1d7-63ad17898a55"
             overflow="visible">
            <path
               id="id-5d695a57-dc64-454b-9ded-0d824d7c5af9"
               d="M 3.515625,-1.265625 H 3.28125 c -0.015625,0.15625 -0.09375,0.5625 -0.1875,0.625 C 3.046875,-0.59375 2.515625,-0.59375 2.40625,-0.59375 H 1.125 c 0.734375,-0.640625 0.984375,-0.84375 1.390625,-1.171875 0.515625,-0.40625 1,-0.84375 1,-1.5 0,-0.84375 -0.734375,-1.359375 -1.625,-1.359375 -0.859375,0 -1.453125,0.609375 -1.453125,1.25 0,0.34375 0.296875,0.390625 0.375,0.390625 0.15625,0 0.359375,-0.125 0.359375,-0.375 0,-0.125 -0.046875,-0.375 -0.40625,-0.375 C 0.984375,-4.21875 1.453125,-4.375 1.78125,-4.375 c 0.703125,0 1.0625,0.546875 1.0625,1.109375 0,0.609375 -0.4375,1.078125 -0.65625,1.328125 L 0.515625,-0.265625 C 0.4375,-0.203125 0.4375,-0.1875 0.4375,0 h 2.875 z m 0,0"
               style="stroke:none" />
          </symbol>
        </g>
      </defs>
      <g
         transform="translate(-149.906,-126.076)"
         id="id-43dc7b5d-fe1b-439f-931b-3ac2e6e7018a">
        <g
           id="id-55722ddd-d45f-4296-8b73-bad44b1230af"
           style="fill:#000000;fill-opacity:1">
          <g
             transform="translate(149.908,130.842)"
             id="g2697">
            <path
               id="id-8fe36538-19d1-4f35-a182-20eb038062f2"
               d="m 2.875,-4.1875 c 0.0625,-0.25 0.078125,-0.328125 0.71875,-0.328125 0.21875,0 0.28125,0 0.28125,-0.140625 0,-0.015625 0,-0.109375 -0.109375,-0.109375 -0.15625,0 -0.34375,0.015625 -0.515625,0.03125 -0.171875,0 -0.390625,0 -0.5625,0 -0.140625,0 -0.328125,0 -0.484375,0 -0.140625,0 -0.3125,-0.03125 -0.453125,-0.03125 -0.03125,0 -0.140625,0 -0.140625,0.15625 0,0.09375 0.078125,0.09375 0.21875,0.09375 0.015625,0 0.140625,0 0.265625,0.015625 0.15625,0.015625 0.171875,0.03125 0.171875,0.109375 0,0 0,0.046875 -0.03125,0.140625 l -0.9375,3.703125 C 1.234375,-0.3125 1.21875,-0.25 0.6875,-0.25 c -0.109375,0 -0.203125,0 -0.203125,0.140625 C 0.484375,0 0.5625,0 0.6875,0 h 3.5 c 0.1875,0 0.1875,0 0.25,-0.140625 0.0625,-0.1875 0.59375,-1.53125 0.59375,-1.59375 0,-0.015625 -0.015625,-0.09375 -0.125,-0.09375 -0.078125,0 -0.09375,0.03125 -0.140625,0.140625 C 4.5,-1.03125 4.1875,-0.25 2.921875,-0.25 H 2.125 c -0.203125,0 -0.21875,-0.015625 -0.21875,-0.078125 0,0 0,-0.03125 0.03125,-0.140625 z m 0,0"
               style="stroke:none" />
          </g>
        </g>
        <path
           id="id-c2727f79-f6a7-4cb8-828f-3b7499f0e675"
           transform="matrix(1,0,0,-1,149.908,132.274)"
           d="M -0.00175,5.625e-4 H 5.467"
           style="fill:none;stroke:#000000;stroke-width:0.398;stroke-linecap:butt;stroke-linejoin:miter;stroke-miterlimit:10;stroke-opacity:1" />
        <g
           id="id-e4db6801-1af9-4f06-8405-884b1d0de1db"
           style="fill:#000000;fill-opacity:1">
          <g
             transform="translate(150.655,138.2)"
             id="g2702">
            <path
               id="id-b7202613-0142-49e4-a182-0340f222f021"
               d="M 3.515625,-1.265625 H 3.28125 c -0.015625,0.15625 -0.09375,0.5625 -0.1875,0.625 C 3.046875,-0.59375 2.515625,-0.59375 2.40625,-0.59375 H 1.125 c 0.734375,-0.640625 0.984375,-0.84375 1.390625,-1.171875 0.515625,-0.40625 1,-0.84375 1,-1.5 0,-0.84375 -0.734375,-1.359375 -1.625,-1.359375 -0.859375,0 -1.453125,0.609375 -1.453125,1.25 0,0.34375 0.296875,0.390625 0.375,0.390625 0.15625,0 0.359375,-0.125 0.359375,-0.375 0,-0.125 -0.046875,-0.375 -0.40625,-0.375 C 0.984375,-4.21875 1.453125,-4.375 1.78125,-4.375 c 0.703125,0 1.0625,0.546875 1.0625,1.109375 0,0.609375 -0.4375,1.078125 -0.65625,1.328125 L 0.515625,-0.265625 C 0.4375,-0.203125 0.4375,-0.1875 0.4375,0 h 2.875 z m 0,0"
               style="stroke:none" />
          </g>
        </g>
      </g>
    </g>
    <g
       id="g2766"
       ns2:jacobian_sqrt="1.76389"
       ns2:inkscapeversion="1.0"
       ns2:alignment="middle center"
       ns2:scale="5.0"
       ns2:preamble="C:\\Users\\claum\\AppData\\Roaming\\inkscape\\extensions\\textext\\default_packages.tex"
       ns2:text="$\\frac{L}{2}$"
       ns2:pdfconverter="inkscape"
       ns2:texconverter="pdflatex"
       ns2:version="1.0.1"
       transform="matrix(1.76389,0,0,1.76389,0.999559,379.0684)">
      <defs
         id="defs2748">
        <g
           id="g2746">
          <symbol
             overflow="visible"
             id="symbol2732">
            <path
               style="stroke:none"
               d=""
               id="path2730" />
          </symbol>
          <symbol
             overflow="visible"
             id="symbol2736">
            <path
               style="stroke:none"
               d="m 2.875,-4.1875 c 0.0625,-0.25 0.078125,-0.328125 0.71875,-0.328125 0.21875,0 0.28125,0 0.28125,-0.140625 0,-0.015625 0,-0.109375 -0.109375,-0.109375 -0.15625,0 -0.34375,0.015625 -0.515625,0.03125 -0.171875,0 -0.390625,0 -0.5625,0 -0.140625,0 -0.328125,0 -0.484375,0 -0.140625,0 -0.3125,-0.03125 -0.453125,-0.03125 -0.03125,0 -0.140625,0 -0.140625,0.15625 0,0.09375 0.078125,0.09375 0.21875,0.09375 0.015625,0 0.140625,0 0.265625,0.015625 0.15625,0.015625 0.171875,0.03125 0.171875,0.109375 0,0 0,0.046875 -0.03125,0.140625 l -0.9375,3.703125 C 1.234375,-0.3125 1.21875,-0.25 0.6875,-0.25 c -0.109375,0 -0.203125,0 -0.203125,0.140625 C 0.484375,0 0.5625,0 0.6875,0 h 3.5 c 0.1875,0 0.1875,0 0.25,-0.140625 0.0625,-0.1875 0.59375,-1.53125 0.59375,-1.59375 0,-0.015625 -0.015625,-0.09375 -0.125,-0.09375 -0.078125,0 -0.09375,0.03125 -0.140625,0.140625 C 4.5,-1.03125 4.1875,-0.25 2.921875,-0.25 H 2.125 c -0.203125,0 -0.21875,-0.015625 -0.21875,-0.078125 0,0 0,-0.03125 0.03125,-0.140625 z m 0,0"
               id="path2734" />
          </symbol>
          <symbol
             overflow="visible"
             id="symbol2740">
            <path
               style="stroke:none"
               d=""
               id="path2738" />
          </symbol>
          <symbol
             overflow="visible"
             id="symbol2744">
            <path
               style="stroke:none"
               d="M 3.515625,-1.265625 H 3.28125 c -0.015625,0.15625 -0.09375,0.5625 -0.1875,0.625 C 3.046875,-0.59375 2.515625,-0.59375 2.40625,-0.59375 H 1.125 c 0.734375,-0.640625 0.984375,-0.84375 1.390625,-1.171875 0.515625,-0.40625 1,-0.84375 1,-1.5 0,-0.84375 -0.734375,-1.359375 -1.625,-1.359375 -0.859375,0 -1.453125,0.609375 -1.453125,1.25 0,0.34375 0.296875,0.390625 0.375,0.390625 0.15625,0 0.359375,-0.125 0.359375,-0.375 0,-0.125 -0.046875,-0.375 -0.40625,-0.375 C 0.984375,-4.21875 1.453125,-4.375 1.78125,-4.375 c 0.703125,0 1.0625,0.546875 1.0625,1.109375 0,0.609375 -0.4375,1.078125 -0.65625,1.328125 L 0.515625,-0.265625 C 0.4375,-0.203125 0.4375,-0.1875 0.4375,0 h 2.875 z m 0,0"
               id="path2742" />
          </symbol>
        </g>
      </defs>
      <g
         id="g2764"
         transform="translate(-149.906,-126.076)">
        <g
           style="fill:#000000;fill-opacity:1"
           id="g2754">
          <g
             id="g2752"
             transform="translate(149.908,130.842)">
            <path
               style="stroke:none"
               d="m 2.875,-4.1875 c 0.0625,-0.25 0.078125,-0.328125 0.71875,-0.328125 0.21875,0 0.28125,0 0.28125,-0.140625 0,-0.015625 0,-0.109375 -0.109375,-0.109375 -0.15625,0 -0.34375,0.015625 -0.515625,0.03125 -0.171875,0 -0.390625,0 -0.5625,0 -0.140625,0 -0.328125,0 -0.484375,0 -0.140625,0 -0.3125,-0.03125 -0.453125,-0.03125 -0.03125,0 -0.140625,0 -0.140625,0.15625 0,0.09375 0.078125,0.09375 0.21875,0.09375 0.015625,0 0.140625,0 0.265625,0.015625 0.15625,0.015625 0.171875,0.03125 0.171875,0.109375 0,0 0,0.046875 -0.03125,0.140625 l -0.9375,3.703125 C 1.234375,-0.3125 1.21875,-0.25 0.6875,-0.25 c -0.109375,0 -0.203125,0 -0.203125,0.140625 C 0.484375,0 0.5625,0 0.6875,0 h 3.5 c 0.1875,0 0.1875,0 0.25,-0.140625 0.0625,-0.1875 0.59375,-1.53125 0.59375,-1.59375 0,-0.015625 -0.015625,-0.09375 -0.125,-0.09375 -0.078125,0 -0.09375,0.03125 -0.140625,0.140625 C 4.5,-1.03125 4.1875,-0.25 2.921875,-0.25 H 2.125 c -0.203125,0 -0.21875,-0.015625 -0.21875,-0.078125 0,0 0,-0.03125 0.03125,-0.140625 z m 0,0"
               id="path2750" />
          </g>
        </g>
        <path
           style="fill:none;stroke:#000000;stroke-width:0.398;stroke-linecap:butt;stroke-linejoin:miter;stroke-miterlimit:10;stroke-opacity:1"
           d="M -0.00175,5.625e-4 H 5.467"
           transform="matrix(1,0,0,-1,149.908,132.274)"
           id="path2756" />
        <g
           style="fill:#000000;fill-opacity:1"
           id="g2762">
          <g
             id="g2760"
             transform="translate(150.655,138.2)">
            <path
               style="stroke:none"
               d="M 3.515625,-1.265625 H 3.28125 c -0.015625,0.15625 -0.09375,0.5625 -0.1875,0.625 C 3.046875,-0.59375 2.515625,-0.59375 2.40625,-0.59375 H 1.125 c 0.734375,-0.640625 0.984375,-0.84375 1.390625,-1.171875 0.515625,-0.40625 1,-0.84375 1,-1.5 0,-0.84375 -0.734375,-1.359375 -1.625,-1.359375 -0.859375,0 -1.453125,0.609375 -1.453125,1.25 0,0.34375 0.296875,0.390625 0.375,0.390625 0.15625,0 0.359375,-0.125 0.359375,-0.375 0,-0.125 -0.046875,-0.375 -0.40625,-0.375 C 0.984375,-4.21875 1.453125,-4.375 1.78125,-4.375 c 0.703125,0 1.0625,0.546875 1.0625,1.109375 0,0.609375 -0.4375,1.078125 -0.65625,1.328125 L 0.515625,-0.265625 C 0.4375,-0.203125 0.4375,-0.1875 0.4375,0 h 2.875 z m 0,0"
               id="path2758" />
          </g>
        </g>
      </g>
    </g>
    <g
       transform="matrix(1.76389,0,0,1.76389,128.16921,511.84135)"
       ns2:version="1.0.1"
       ns2:texconverter="pdflatex"
       ns2:pdfconverter="inkscape"
       ns2:text="$\\frac{L}{2}$"
       ns2:preamble="C:\\Users\\claum\\AppData\\Roaming\\inkscape\\extensions\\textext\\default_packages.tex"
       ns2:scale="5.0"
       ns2:alignment="middle center"
       ns2:inkscapeversion="1.0"
       ns2:jacobian_sqrt="1.76389"
       id="g2804">
      <defs
         id="defs2786">
        <g
           id="g2784">
          <symbol
             id="symbol2770"
             overflow="visible">
            <path
               id="path2768"
               d=""
               style="stroke:none" />
          </symbol>
          <symbol
             id="symbol2774"
             overflow="visible">
            <path
               id="path2772"
               d="m 2.875,-4.1875 c 0.0625,-0.25 0.078125,-0.328125 0.71875,-0.328125 0.21875,0 0.28125,0 0.28125,-0.140625 0,-0.015625 0,-0.109375 -0.109375,-0.109375 -0.15625,0 -0.34375,0.015625 -0.515625,0.03125 -0.171875,0 -0.390625,0 -0.5625,0 -0.140625,0 -0.328125,0 -0.484375,0 -0.140625,0 -0.3125,-0.03125 -0.453125,-0.03125 -0.03125,0 -0.140625,0 -0.140625,0.15625 0,0.09375 0.078125,0.09375 0.21875,0.09375 0.015625,0 0.140625,0 0.265625,0.015625 0.15625,0.015625 0.171875,0.03125 0.171875,0.109375 0,0 0,0.046875 -0.03125,0.140625 l -0.9375,3.703125 C 1.234375,-0.3125 1.21875,-0.25 0.6875,-0.25 c -0.109375,0 -0.203125,0 -0.203125,0.140625 C 0.484375,0 0.5625,0 0.6875,0 h 3.5 c 0.1875,0 0.1875,0 0.25,-0.140625 0.0625,-0.1875 0.59375,-1.53125 0.59375,-1.59375 0,-0.015625 -0.015625,-0.09375 -0.125,-0.09375 -0.078125,0 -0.09375,0.03125 -0.140625,0.140625 C 4.5,-1.03125 4.1875,-0.25 2.921875,-0.25 H 2.125 c -0.203125,0 -0.21875,-0.015625 -0.21875,-0.078125 0,0 0,-0.03125 0.03125,-0.140625 z m 0,0"
               style="stroke:none" />
          </symbol>
          <symbol
             id="symbol2778"
             overflow="visible">
            <path
               id="path2776"
               d=""
               style="stroke:none" />
          </symbol>
          <symbol
             id="symbol2782"
             overflow="visible">
            <path
               id="path2780"
               d="M 3.515625,-1.265625 H 3.28125 c -0.015625,0.15625 -0.09375,0.5625 -0.1875,0.625 C 3.046875,-0.59375 2.515625,-0.59375 2.40625,-0.59375 H 1.125 c 0.734375,-0.640625 0.984375,-0.84375 1.390625,-1.171875 0.515625,-0.40625 1,-0.84375 1,-1.5 0,-0.84375 -0.734375,-1.359375 -1.625,-1.359375 -0.859375,0 -1.453125,0.609375 -1.453125,1.25 0,0.34375 0.296875,0.390625 0.375,0.390625 0.15625,0 0.359375,-0.125 0.359375,-0.375 0,-0.125 -0.046875,-0.375 -0.40625,-0.375 C 0.984375,-4.21875 1.453125,-4.375 1.78125,-4.375 c 0.703125,0 1.0625,0.546875 1.0625,1.109375 0,0.609375 -0.4375,1.078125 -0.65625,1.328125 L 0.515625,-0.265625 C 0.4375,-0.203125 0.4375,-0.1875 0.4375,0 h 2.875 z m 0,0"
               style="stroke:none" />
          </symbol>
        </g>
      </defs>
      <g
         transform="translate(-149.906,-126.076)"
         id="g2802">
        <g
           id="g2792"
           style="fill:#000000;fill-opacity:1">
          <g
             transform="translate(149.908,130.842)"
             id="g2790">
            <path
               id="path2788"
               d="m 2.875,-4.1875 c 0.0625,-0.25 0.078125,-0.328125 0.71875,-0.328125 0.21875,0 0.28125,0 0.28125,-0.140625 0,-0.015625 0,-0.109375 -0.109375,-0.109375 -0.15625,0 -0.34375,0.015625 -0.515625,0.03125 -0.171875,0 -0.390625,0 -0.5625,0 -0.140625,0 -0.328125,0 -0.484375,0 -0.140625,0 -0.3125,-0.03125 -0.453125,-0.03125 -0.03125,0 -0.140625,0 -0.140625,0.15625 0,0.09375 0.078125,0.09375 0.21875,0.09375 0.015625,0 0.140625,0 0.265625,0.015625 0.15625,0.015625 0.171875,0.03125 0.171875,0.109375 0,0 0,0.046875 -0.03125,0.140625 l -0.9375,3.703125 C 1.234375,-0.3125 1.21875,-0.25 0.6875,-0.25 c -0.109375,0 -0.203125,0 -0.203125,0.140625 C 0.484375,0 0.5625,0 0.6875,0 h 3.5 c 0.1875,0 0.1875,0 0.25,-0.140625 0.0625,-0.1875 0.59375,-1.53125 0.59375,-1.59375 0,-0.015625 -0.015625,-0.09375 -0.125,-0.09375 -0.078125,0 -0.09375,0.03125 -0.140625,0.140625 C 4.5,-1.03125 4.1875,-0.25 2.921875,-0.25 H 2.125 c -0.203125,0 -0.21875,-0.015625 -0.21875,-0.078125 0,0 0,-0.03125 0.03125,-0.140625 z m 0,0"
               style="stroke:none" />
          </g>
        </g>
        <path
           id="path2794"
           transform="matrix(1,0,0,-1,149.908,132.274)"
           d="M -0.00175,5.625e-4 H 5.467"
           style="fill:none;stroke:#000000;stroke-width:0.398;stroke-linecap:butt;stroke-linejoin:miter;stroke-miterlimit:10;stroke-opacity:1" />
        <g
           id="g2800"
           style="fill:#000000;fill-opacity:1">
          <g
             transform="translate(150.655,138.2)"
             id="g2798">
            <path
               id="path2796"
               d="M 3.515625,-1.265625 H 3.28125 c -0.015625,0.15625 -0.09375,0.5625 -0.1875,0.625 C 3.046875,-0.59375 2.515625,-0.59375 2.40625,-0.59375 H 1.125 c 0.734375,-0.640625 0.984375,-0.84375 1.390625,-1.171875 0.515625,-0.40625 1,-0.84375 1,-1.5 0,-0.84375 -0.734375,-1.359375 -1.625,-1.359375 -0.859375,0 -1.453125,0.609375 -1.453125,1.25 0,0.34375 0.296875,0.390625 0.375,0.390625 0.15625,0 0.359375,-0.125 0.359375,-0.375 0,-0.125 -0.046875,-0.375 -0.40625,-0.375 C 0.984375,-4.21875 1.453125,-4.375 1.78125,-4.375 c 0.703125,0 1.0625,0.546875 1.0625,1.109375 0,0.609375 -0.4375,1.078125 -0.65625,1.328125 L 0.515625,-0.265625 C 0.4375,-0.203125 0.4375,-0.1875 0.4375,0 h 2.875 z m 0,0"
               style="stroke:none" />
          </g>
        </g>
      </g>
    </g>
    <g
       id="g2842"
       ns2:jacobian_sqrt="1.76389"
       ns2:inkscapeversion="1.0"
       ns2:alignment="middle center"
       ns2:scale="5.0"
       ns2:preamble="C:\\Users\\claum\\AppData\\Roaming\\inkscape\\extensions\\textext\\default_packages.tex"
       ns2:text="$\\frac{L}{2}$"
       ns2:pdfconverter="inkscape"
       ns2:texconverter="pdflatex"
       ns2:version="1.0.1"
       transform="matrix(1.76389,0,0,1.76389,278.16921,511.84135)">
      <defs
         id="defs2824">
        <g
           id="g2822">
          <symbol
             overflow="visible"
             id="symbol2808">
            <path
               style="stroke:none"
               d=""
               id="path2806" />
          </symbol>
          <symbol
             overflow="visible"
             id="symbol2812">
            <path
               style="stroke:none"
               d="m 2.875,-4.1875 c 0.0625,-0.25 0.078125,-0.328125 0.71875,-0.328125 0.21875,0 0.28125,0 0.28125,-0.140625 0,-0.015625 0,-0.109375 -0.109375,-0.109375 -0.15625,0 -0.34375,0.015625 -0.515625,0.03125 -0.171875,0 -0.390625,0 -0.5625,0 -0.140625,0 -0.328125,0 -0.484375,0 -0.140625,0 -0.3125,-0.03125 -0.453125,-0.03125 -0.03125,0 -0.140625,0 -0.140625,0.15625 0,0.09375 0.078125,0.09375 0.21875,0.09375 0.015625,0 0.140625,0 0.265625,0.015625 0.15625,0.015625 0.171875,0.03125 0.171875,0.109375 0,0 0,0.046875 -0.03125,0.140625 l -0.9375,3.703125 C 1.234375,-0.3125 1.21875,-0.25 0.6875,-0.25 c -0.109375,0 -0.203125,0 -0.203125,0.140625 C 0.484375,0 0.5625,0 0.6875,0 h 3.5 c 0.1875,0 0.1875,0 0.25,-0.140625 0.0625,-0.1875 0.59375,-1.53125 0.59375,-1.59375 0,-0.015625 -0.015625,-0.09375 -0.125,-0.09375 -0.078125,0 -0.09375,0.03125 -0.140625,0.140625 C 4.5,-1.03125 4.1875,-0.25 2.921875,-0.25 H 2.125 c -0.203125,0 -0.21875,-0.015625 -0.21875,-0.078125 0,0 0,-0.03125 0.03125,-0.140625 z m 0,0"
               id="path2810" />
          </symbol>
          <symbol
             overflow="visible"
             id="symbol2816">
            <path
               style="stroke:none"
               d=""
               id="path2814" />
          </symbol>
          <symbol
             overflow="visible"
             id="symbol2820">
            <path
               style="stroke:none"
               d="M 3.515625,-1.265625 H 3.28125 c -0.015625,0.15625 -0.09375,0.5625 -0.1875,0.625 C 3.046875,-0.59375 2.515625,-0.59375 2.40625,-0.59375 H 1.125 c 0.734375,-0.640625 0.984375,-0.84375 1.390625,-1.171875 0.515625,-0.40625 1,-0.84375 1,-1.5 0,-0.84375 -0.734375,-1.359375 -1.625,-1.359375 -0.859375,0 -1.453125,0.609375 -1.453125,1.25 0,0.34375 0.296875,0.390625 0.375,0.390625 0.15625,0 0.359375,-0.125 0.359375,-0.375 0,-0.125 -0.046875,-0.375 -0.40625,-0.375 C 0.984375,-4.21875 1.453125,-4.375 1.78125,-4.375 c 0.703125,0 1.0625,0.546875 1.0625,1.109375 0,0.609375 -0.4375,1.078125 -0.65625,1.328125 L 0.515625,-0.265625 C 0.4375,-0.203125 0.4375,-0.1875 0.4375,0 h 2.875 z m 0,0"
               id="path2818" />
          </symbol>
        </g>
      </defs>
      <g
         id="g2840"
         transform="translate(-149.906,-126.076)">
        <g
           style="fill:#000000;fill-opacity:1"
           id="g2830">
          <g
             id="g2828"
             transform="translate(149.908,130.842)">
            <path
               style="stroke:none"
               d="m 2.875,-4.1875 c 0.0625,-0.25 0.078125,-0.328125 0.71875,-0.328125 0.21875,0 0.28125,0 0.28125,-0.140625 0,-0.015625 0,-0.109375 -0.109375,-0.109375 -0.15625,0 -0.34375,0.015625 -0.515625,0.03125 -0.171875,0 -0.390625,0 -0.5625,0 -0.140625,0 -0.328125,0 -0.484375,0 -0.140625,0 -0.3125,-0.03125 -0.453125,-0.03125 -0.03125,0 -0.140625,0 -0.140625,0.15625 0,0.09375 0.078125,0.09375 0.21875,0.09375 0.015625,0 0.140625,0 0.265625,0.015625 0.15625,0.015625 0.171875,0.03125 0.171875,0.109375 0,0 0,0.046875 -0.03125,0.140625 l -0.9375,3.703125 C 1.234375,-0.3125 1.21875,-0.25 0.6875,-0.25 c -0.109375,0 -0.203125,0 -0.203125,0.140625 C 0.484375,0 0.5625,0 0.6875,0 h 3.5 c 0.1875,0 0.1875,0 0.25,-0.140625 0.0625,-0.1875 0.59375,-1.53125 0.59375,-1.59375 0,-0.015625 -0.015625,-0.09375 -0.125,-0.09375 -0.078125,0 -0.09375,0.03125 -0.140625,0.140625 C 4.5,-1.03125 4.1875,-0.25 2.921875,-0.25 H 2.125 c -0.203125,0 -0.21875,-0.015625 -0.21875,-0.078125 0,0 0,-0.03125 0.03125,-0.140625 z m 0,0"
               id="path2826" />
          </g>
        </g>
        <path
           style="fill:none;stroke:#000000;stroke-width:0.398;stroke-linecap:butt;stroke-linejoin:miter;stroke-miterlimit:10;stroke-opacity:1"
           d="M -0.00175,5.625e-4 H 5.467"
           transform="matrix(1,0,0,-1,149.908,132.274)"
           id="path2832" />
        <g
           style="fill:#000000;fill-opacity:1"
           id="g2838">
          <g
             id="g2836"
             transform="translate(150.655,138.2)">
            <path
               style="stroke:none"
               d="M 3.515625,-1.265625 H 3.28125 c -0.015625,0.15625 -0.09375,0.5625 -0.1875,0.625 C 3.046875,-0.59375 2.515625,-0.59375 2.40625,-0.59375 H 1.125 c 0.734375,-0.640625 0.984375,-0.84375 1.390625,-1.171875 0.515625,-0.40625 1,-0.84375 1,-1.5 0,-0.84375 -0.734375,-1.359375 -1.625,-1.359375 -0.859375,0 -1.453125,0.609375 -1.453125,1.25 0,0.34375 0.296875,0.390625 0.375,0.390625 0.15625,0 0.359375,-0.125 0.359375,-0.375 0,-0.125 -0.046875,-0.375 -0.40625,-0.375 C 0.984375,-4.21875 1.453125,-4.375 1.78125,-4.375 c 0.703125,0 1.0625,0.546875 1.0625,1.109375 0,0.609375 -0.4375,1.078125 -0.65625,1.328125 L 0.515625,-0.265625 C 0.4375,-0.203125 0.4375,-0.1875 0.4375,0 h 2.875 z m 0,0"
               id="path2834" />
          </g>
        </g>
      </g>
    </g>
    <g
       transform="matrix(1.76389,0,0,1.76389,425.82034,512.03213)"
       ns2:version="1.0.1"
       ns2:texconverter="pdflatex"
       ns2:pdfconverter="inkscape"
       ns2:text="$\\frac{L}{2}$"
       ns2:preamble="C:\\Users\\claum\\AppData\\Roaming\\inkscape\\extensions\\textext\\default_packages.tex"
       ns2:scale="5.0"
       ns2:alignment="middle center"
       ns2:inkscapeversion="1.0"
       ns2:jacobian_sqrt="1.76389"
       id="g2880">
      <defs
         id="defs2862">
        <g
           id="g2860">
          <symbol
             id="symbol2846"
             overflow="visible">
            <path
               id="path2844"
               d=""
               style="stroke:none" />
          </symbol>
          <symbol
             id="symbol2850"
             overflow="visible">
            <path
               id="path2848"
               d="m 2.875,-4.1875 c 0.0625,-0.25 0.078125,-0.328125 0.71875,-0.328125 0.21875,0 0.28125,0 0.28125,-0.140625 0,-0.015625 0,-0.109375 -0.109375,-0.109375 -0.15625,0 -0.34375,0.015625 -0.515625,0.03125 -0.171875,0 -0.390625,0 -0.5625,0 -0.140625,0 -0.328125,0 -0.484375,0 -0.140625,0 -0.3125,-0.03125 -0.453125,-0.03125 -0.03125,0 -0.140625,0 -0.140625,0.15625 0,0.09375 0.078125,0.09375 0.21875,0.09375 0.015625,0 0.140625,0 0.265625,0.015625 0.15625,0.015625 0.171875,0.03125 0.171875,0.109375 0,0 0,0.046875 -0.03125,0.140625 l -0.9375,3.703125 C 1.234375,-0.3125 1.21875,-0.25 0.6875,-0.25 c -0.109375,0 -0.203125,0 -0.203125,0.140625 C 0.484375,0 0.5625,0 0.6875,0 h 3.5 c 0.1875,0 0.1875,0 0.25,-0.140625 0.0625,-0.1875 0.59375,-1.53125 0.59375,-1.59375 0,-0.015625 -0.015625,-0.09375 -0.125,-0.09375 -0.078125,0 -0.09375,0.03125 -0.140625,0.140625 C 4.5,-1.03125 4.1875,-0.25 2.921875,-0.25 H 2.125 c -0.203125,0 -0.21875,-0.015625 -0.21875,-0.078125 0,0 0,-0.03125 0.03125,-0.140625 z m 0,0"
               style="stroke:none" />
          </symbol>
          <symbol
             id="symbol2854"
             overflow="visible">
            <path
               id="path2852"
               d=""
               style="stroke:none" />
          </symbol>
          <symbol
             id="symbol2858"
             overflow="visible">
            <path
               id="path2856"
               d="M 3.515625,-1.265625 H 3.28125 c -0.015625,0.15625 -0.09375,0.5625 -0.1875,0.625 C 3.046875,-0.59375 2.515625,-0.59375 2.40625,-0.59375 H 1.125 c 0.734375,-0.640625 0.984375,-0.84375 1.390625,-1.171875 0.515625,-0.40625 1,-0.84375 1,-1.5 0,-0.84375 -0.734375,-1.359375 -1.625,-1.359375 -0.859375,0 -1.453125,0.609375 -1.453125,1.25 0,0.34375 0.296875,0.390625 0.375,0.390625 0.15625,0 0.359375,-0.125 0.359375,-0.375 0,-0.125 -0.046875,-0.375 -0.40625,-0.375 C 0.984375,-4.21875 1.453125,-4.375 1.78125,-4.375 c 0.703125,0 1.0625,0.546875 1.0625,1.109375 0,0.609375 -0.4375,1.078125 -0.65625,1.328125 L 0.515625,-0.265625 C 0.4375,-0.203125 0.4375,-0.1875 0.4375,0 h 2.875 z m 0,0"
               style="stroke:none" />
          </symbol>
        </g>
      </defs>
      <g
         transform="translate(-149.906,-126.076)"
         id="g2878">
        <g
           id="g2868"
           style="fill:#000000;fill-opacity:1">
          <g
             transform="translate(149.908,130.842)"
             id="g2866">
            <path
               id="path2864"
               d="m 2.875,-4.1875 c 0.0625,-0.25 0.078125,-0.328125 0.71875,-0.328125 0.21875,0 0.28125,0 0.28125,-0.140625 0,-0.015625 0,-0.109375 -0.109375,-0.109375 -0.15625,0 -0.34375,0.015625 -0.515625,0.03125 -0.171875,0 -0.390625,0 -0.5625,0 -0.140625,0 -0.328125,0 -0.484375,0 -0.140625,0 -0.3125,-0.03125 -0.453125,-0.03125 -0.03125,0 -0.140625,0 -0.140625,0.15625 0,0.09375 0.078125,0.09375 0.21875,0.09375 0.015625,0 0.140625,0 0.265625,0.015625 0.15625,0.015625 0.171875,0.03125 0.171875,0.109375 0,0 0,0.046875 -0.03125,0.140625 l -0.9375,3.703125 C 1.234375,-0.3125 1.21875,-0.25 0.6875,-0.25 c -0.109375,0 -0.203125,0 -0.203125,0.140625 C 0.484375,0 0.5625,0 0.6875,0 h 3.5 c 0.1875,0 0.1875,0 0.25,-0.140625 0.0625,-0.1875 0.59375,-1.53125 0.59375,-1.59375 0,-0.015625 -0.015625,-0.09375 -0.125,-0.09375 -0.078125,0 -0.09375,0.03125 -0.140625,0.140625 C 4.5,-1.03125 4.1875,-0.25 2.921875,-0.25 H 2.125 c -0.203125,0 -0.21875,-0.015625 -0.21875,-0.078125 0,0 0,-0.03125 0.03125,-0.140625 z m 0,0"
               style="stroke:none" />
          </g>
        </g>
        <path
           id="path2870"
           transform="matrix(1,0,0,-1,149.908,132.274)"
           d="M -0.00175,5.625e-4 H 5.467"
           style="fill:none;stroke:#000000;stroke-width:0.398;stroke-linecap:butt;stroke-linejoin:miter;stroke-miterlimit:10;stroke-opacity:1" />
        <g
           id="g2876"
           style="fill:#000000;fill-opacity:1">
          <g
             transform="translate(150.655,138.2)"
             id="g2874">
            <path
               id="path2872"
               d="M 3.515625,-1.265625 H 3.28125 c -0.015625,0.15625 -0.09375,0.5625 -0.1875,0.625 C 3.046875,-0.59375 2.515625,-0.59375 2.40625,-0.59375 H 1.125 c 0.734375,-0.640625 0.984375,-0.84375 1.390625,-1.171875 0.515625,-0.40625 1,-0.84375 1,-1.5 0,-0.84375 -0.734375,-1.359375 -1.625,-1.359375 -0.859375,0 -1.453125,0.609375 -1.453125,1.25 0,0.34375 0.296875,0.390625 0.375,0.390625 0.15625,0 0.359375,-0.125 0.359375,-0.375 0,-0.125 -0.046875,-0.375 -0.40625,-0.375 C 0.984375,-4.21875 1.453125,-4.375 1.78125,-4.375 c 0.703125,0 1.0625,0.546875 1.0625,1.109375 0,0.609375 -0.4375,1.078125 -0.65625,1.328125 L 0.515625,-0.265625 C 0.4375,-0.203125 0.4375,-0.1875 0.4375,0 h 2.875 z m 0,0"
               style="stroke:none" />
          </g>
        </g>
      </g>
    </g>
    <g
       transform="matrix(1.76389,0,0,1.76389,42.869129,446.95247)"
       ns2:version="1.0.1"
       ns2:texconverter="pdflatex"
       ns2:pdfconverter="inkscape"
       ns2:text="$\\mathbf{A}$"
       ns2:preamble="C:\\Users\\claum\\AppData\\Roaming\\inkscape\\extensions\\textext\\default_packages.tex"
       ns2:scale="5.0"
       ns2:alignment="middle center"
       ns2:inkscapeversion="1.0"
       ns2:jacobian_sqrt="1.76389"
       id="g3072">
      <defs
         id="id-b8f1d42f-ef0e-496e-8675-59aa176f8f58">
        <g
           id="id-d46ff7cc-5d96-42ca-816b-a19c903851ae">
          <symbol
             id="id-57da379b-2390-4949-99bd-9e2ddecb1484"
             overflow="visible">
            <path
               id="id-8ae95ffe-8e2d-4ee4-9b9d-ed14882dee5a"
               d=""
               style="stroke:none" />
          </symbol>
          <symbol
             id="id-0dc54ba0-80a5-4384-a366-321270b860c2"
             overflow="visible">
            <path
               id="id-a4148440-7bef-455a-a8d0-c8044bf60472"
               d="m 4.71875,-6.703125 c -0.109375,-0.25 -0.21875,-0.25 -0.390625,-0.25 -0.28125,0 -0.328125,0.078125 -0.390625,0.25 l -2.46875,6 C 1.40625,-0.546875 1.375,-0.46875 0.625,-0.46875 H 0.40625 V 0 c 0.375,-0.015625 0.859375,-0.03125 1.171875,-0.03125 0.390625,0 0.9375,0 1.3125,0.03125 V -0.46875 C 2.875,-0.46875 2,-0.46875 2,-0.59375 c 0,-0.015625 0.03125,-0.109375 0.046875,-0.125 l 0.5,-1.203125 H 5.21875 L 5.8125,-0.46875 H 4.859375 V 0 C 5.25,-0.03125 6.1875,-0.03125 6.625,-0.03125 c 0.390625,0 1.265625,0 1.625,0.03125 V -0.46875 H 7.28125 Z M 3.875,-5.15625 5.015625,-2.390625 h -2.28125 z m 0,0"
               style="stroke:none" />
          </symbol>
        </g>
      </defs>
      <g
         transform="translate(-149.118,-127.812)"
         id="id-8f7fcb81-fef7-456e-8d25-9e34d49ddd96">
        <g
           id="id-de7868e9-218e-482e-b70d-b710ff1b1d6a"
           style="fill:#000000;fill-opacity:1">
          <g
             transform="translate(148.712,134.765)"
             id="g3068">
            <path
               id="id-8ba86f64-5b2c-434f-a4b3-17662e76b252"
               d="m 4.71875,-6.703125 c -0.109375,-0.25 -0.21875,-0.25 -0.390625,-0.25 -0.28125,0 -0.328125,0.078125 -0.390625,0.25 l -2.46875,6 C 1.40625,-0.546875 1.375,-0.46875 0.625,-0.46875 H 0.40625 V 0 c 0.375,-0.015625 0.859375,-0.03125 1.171875,-0.03125 0.390625,0 0.9375,0 1.3125,0.03125 V -0.46875 C 2.875,-0.46875 2,-0.46875 2,-0.59375 c 0,-0.015625 0.03125,-0.109375 0.046875,-0.125 l 0.5,-1.203125 H 5.21875 L 5.8125,-0.46875 H 4.859375 V 0 C 5.25,-0.03125 6.1875,-0.03125 6.625,-0.03125 c 0.390625,0 1.265625,0 1.625,0.03125 V -0.46875 H 7.28125 Z M 3.875,-5.15625 5.015625,-2.390625 h -2.28125 z m 0,0"
               style="stroke:none" />
          </g>
        </g>
      </g>
    </g>
    <g
       transform="matrix(1.76389,0,0,1.76389,354.81142,144.51496)"
       ns2:version="1.0.1"
       ns2:texconverter="pdflatex"
       ns2:pdfconverter="inkscape"
       ns2:text="$\\mathbf{B}$"
       ns2:preamble="C:\\Users\\claum\\AppData\\Roaming\\inkscape\\extensions\\textext\\default_packages.tex"
       ns2:scale="5.0"
       ns2:alignment="middle center"
       ns2:inkscapeversion="1.0"
       ns2:jacobian_sqrt="1.76389"
       id="g3289">
      <defs
         id="id-98e4b581-b0ae-4b82-9702-22ec042e60c6">
        <g
           id="id-6042cdd3-c267-4e9e-ae02-0532f97f01db">
          <symbol
             id="id-d8827f8b-8b90-48e0-97ad-9070c025e41b"
             overflow="visible">
            <path
               id="id-5341fa31-7ed6-4865-bd7e-a10f1b2f6ec4"
               d=""
               style="stroke:none" />
          </symbol>
          <symbol
             id="id-5a30b894-2166-4887-a076-d13b1c3f18d0"
             overflow="visible">
            <path
               id="id-4cfb383b-0ad8-4681-bd47-90fec63a6497"
               d="M 2.765625,-3.734375 V -6.375 h 1.8125 c 1.015625,0 1.1875,0.796875 1.1875,1.25 0,0.765625 -0.46875,1.390625 -1.4375,1.390625 z M 5.46875,-3.5625 C 6.546875,-3.765625 7.1875,-4.359375 7.1875,-5.125 c 0,-0.921875 -0.875,-1.71875 -2.46875,-1.71875 H 0.390625 V -6.375 H 1.46875 v 5.90625 H 0.390625 V 0 h 4.625 C 6.671875,0 7.5,-0.875 7.5,-1.859375 7.5,-2.8125 6.65625,-3.484375 5.46875,-3.5625 Z M 4.609375,-0.46875 H 2.765625 V -3.375 h 1.9375 c 0.203125,0 0.671875,0 1.015625,0.421875 0.328125,0.421875 0.328125,0.984375 0.328125,1.09375 0,0.109375 0,1.390625 -1.4375,1.390625 z m 0,0"
               style="stroke:none" />
          </symbol>
        </g>
      </defs>
      <g
         transform="translate(-149.103,-127.921)"
         id="id-a1a52b79-eb00-43cf-9644-6b5069987223">
        <g
           id="id-9feaea6f-4471-4322-ac9d-c067d019902e"
           style="fill:#000000;fill-opacity:1">
          <g
             transform="translate(148.712,134.765)"
             id="g3285">
            <path
               id="id-ab0623b7-0391-46f2-af05-7c093df4ab98"
               d="M 2.765625,-3.734375 V -6.375 h 1.8125 c 1.015625,0 1.1875,0.796875 1.1875,1.25 0,0.765625 -0.46875,1.390625 -1.4375,1.390625 z M 5.46875,-3.5625 C 6.546875,-3.765625 7.1875,-4.359375 7.1875,-5.125 c 0,-0.921875 -0.875,-1.71875 -2.46875,-1.71875 H 0.390625 V -6.375 H 1.46875 v 5.90625 H 0.390625 V 0 h 4.625 C 6.671875,0 7.5,-0.875 7.5,-1.859375 7.5,-2.8125 6.65625,-3.484375 5.46875,-3.5625 Z M 4.609375,-0.46875 H 2.765625 V -3.375 h 1.9375 c 0.203125,0 0.671875,0 1.015625,0.421875 0.328125,0.421875 0.328125,0.984375 0.328125,1.09375 0,0.109375 0,1.390625 -1.4375,1.390625 z m 0,0"
               style="stroke:none" />
          </g>
        </g>
      </g>
    </g>
    <g
       transform="matrix(1.76389,0,0,1.76389,515.47244,298.78755)"
       ns2:version="1.0.1"
       ns2:texconverter="pdflatex"
       ns2:pdfconverter="inkscape"
       ns2:text="$\\mathbf{C}$"
       ns2:preamble="C:\\Users\\claum\\AppData\\Roaming\\inkscape\\extensions\\textext\\default_packages.tex"
       ns2:scale="5.0"
       ns2:alignment="middle center"
       ns2:inkscapeversion="1.0"
       ns2:jacobian_sqrt="1.76389"
       id="g3517">
      <defs
         id="id-a39eacb3-48c6-4417-9df7-7ba3f5c3c478">
        <g
           id="id-fe9c82c6-f327-4840-9d61-9b91e1c59e9e">
          <symbol
             id="id-2e5a91f1-0320-45e4-b024-ad8b6ad53cb2"
             overflow="visible">
            <path
               id="id-ab5a7a20-86e5-40b7-8a21-403bf5482fff"
               d=""
               style="stroke:none" />
          </symbol>
          <symbol
             id="id-c7583ceb-b139-42ca-83c0-2fef97fd9102"
             overflow="visible">
            <path
               id="id-af88de44-6b89-4c5c-9cd1-ed20572a1e30"
               d="m 7.640625,-6.671875 c 0,-0.1875 0,-0.28125 -0.1875,-0.28125 -0.09375,0 -0.109375,0.03125 -0.1875,0.09375 l -0.65625,0.59375 c -0.625,-0.5 -1.28125,-0.6875 -1.96875,-0.6875 -2.484375,0 -4,1.484375 -4,3.53125 0,2.046875 1.515625,3.53125 4,3.53125 1.875,0 3,-1.21875 3,-2.375 0,-0.203125 -0.078125,-0.203125 -0.25,-0.203125 -0.125,0 -0.21875,0 -0.21875,0.171875 -0.078125,1.328125 -1.28125,1.9375 -2.28125,1.9375 -0.78125,0 -1.625,-0.234375 -2.140625,-0.84375 -0.46875,-0.578125 -0.59375,-1.3125 -0.59375,-2.21875 0,-0.5625 0.03125,-1.625 0.671875,-2.296875 0.640625,-0.65625 1.515625,-0.765625 2.03125,-0.765625 1.078125,0 2.015625,0.765625 2.234375,2.03125 C 7.125,-4.265625 7.140625,-4.25 7.359375,-4.25 c 0.265625,0 0.28125,-0.015625 0.28125,-0.28125 z m 0,0"
               style="stroke:none" />
          </symbol>
        </g>
      </defs>
      <g
         transform="translate(-149.353,-127.812)"
         id="id-614a5e73-ce51-4296-9e46-111262769c6d">
        <g
           id="id-6ea130b1-4dfb-4cc8-8847-664404860973"
           style="fill:#000000;fill-opacity:1">
          <g
             transform="translate(148.712,134.765)"
             id="g3513">
            <path
               id="id-5a212b3f-81a8-42c9-8289-fc32cc094d5b"
               d="m 7.640625,-6.671875 c 0,-0.1875 0,-0.28125 -0.1875,-0.28125 -0.09375,0 -0.109375,0.03125 -0.1875,0.09375 l -0.65625,0.59375 c -0.625,-0.5 -1.28125,-0.6875 -1.96875,-0.6875 -2.484375,0 -4,1.484375 -4,3.53125 0,2.046875 1.515625,3.53125 4,3.53125 1.875,0 3,-1.21875 3,-2.375 0,-0.203125 -0.078125,-0.203125 -0.25,-0.203125 -0.125,0 -0.21875,0 -0.21875,0.171875 -0.078125,1.328125 -1.28125,1.9375 -2.28125,1.9375 -0.78125,0 -1.625,-0.234375 -2.140625,-0.84375 -0.46875,-0.578125 -0.59375,-1.3125 -0.59375,-2.21875 0,-0.5625 0.03125,-1.625 0.671875,-2.296875 0.640625,-0.65625 1.515625,-0.765625 2.03125,-0.765625 1.078125,0 2.015625,0.765625 2.234375,2.03125 C 7.125,-4.265625 7.140625,-4.25 7.359375,-4.25 c 0.265625,0 0.28125,-0.015625 0.28125,-0.28125 z m 0,0"
               style="stroke:none" />
          </g>
        </g>
      </g>
    </g>
    <g
       transform="matrix(1.76389,0,0,1.76389,77.04385,457.2997)"
       ns2:version="1.0.1"
       ns2:texconverter="pdflatex"
       ns2:pdfconverter="inkscape"
       ns2:text="$(1)$"
       ns2:preamble="C:\\Users\\claum\\AppData\\Roaming\\inkscape\\extensions\\textext\\default_packages.tex"
       ns2:scale="5.0"
       ns2:alignment="middle center"
       ns2:inkscapeversion="1.0"
       ns2:jacobian_sqrt="1.76389"
       id="g3766">
      <defs
         id="id-a0d1fed4-ea3b-4ad6-b444-d61bfdf10ab6">
        <g
           id="id-64088ed6-4e8d-4bf4-ac99-781cdee1b57e">
          <symbol
             id="id-1cfa3769-5aab-427a-9f32-95b660d67ee3"
             overflow="visible">
            <path
               id="id-7b779faa-254c-496a-acc1-fc138c3daed9"
               d=""
               style="stroke:none" />
          </symbol>
          <symbol
             id="id-98f49c94-9f27-4b70-a386-a5998dd7dfdc"
             overflow="visible">
            <path
               id="id-05ee1bcf-e29c-4108-9dc9-9ec45450530a"
               d="m 3.296875,2.390625 c 0,-0.03125 0,-0.046875 -0.171875,-0.21875 C 1.890625,0.921875 1.5625,-0.96875 1.5625,-2.5 c 0,-1.734375 0.375,-3.46875 1.609375,-4.703125 0.125,-0.125 0.125,-0.140625 0.125,-0.171875 0,-0.078125 -0.03125,-0.109375 -0.09375,-0.109375 -0.109375,0 -1,0.6875 -1.59375,1.953125 -0.5,1.09375 -0.625,2.203125 -0.625,3.03125 0,0.78125 0.109375,1.984375 0.65625,3.125 C 2.25,1.84375 3.09375,2.5 3.203125,2.5 c 0.0625,0 0.09375,-0.03125 0.09375,-0.109375 z m 0,0"
               style="stroke:none" />
          </symbol>
          <symbol
             id="id-9791a39f-3159-4e05-baa6-62518eb980fb"
             overflow="visible">
            <path
               id="id-2f6c7926-a252-493c-b202-a3d0c72179c4"
               d="m 2.9375,-6.375 c 0,-0.25 0,-0.265625 -0.234375,-0.265625 C 2.078125,-6 1.203125,-6 0.890625,-6 v 0.3125 c 0.203125,0 0.78125,0 1.296875,-0.265625 v 5.171875 c 0,0.359375 -0.03125,0.46875 -0.921875,0.46875 h -0.3125 V 0 c 0.34375,-0.03125 1.203125,-0.03125 1.609375,-0.03125 0.390625,0 1.265625,0 1.609375,0.03125 v -0.3125 h -0.3125 c -0.90625,0 -0.921875,-0.109375 -0.921875,-0.46875 z m 0,0"
               style="stroke:none" />
          </symbol>
          <symbol
             id="id-cf5150be-5dad-48f1-91aa-614619fa8305"
             overflow="visible">
            <path
               id="id-57cededf-5217-4f00-a205-71af6c9f96fa"
               d="m 2.875,-2.5 c 0,-0.765625 -0.109375,-1.96875 -0.65625,-3.109375 -0.59375,-1.21875 -1.453125,-1.875 -1.546875,-1.875 -0.0625,0 -0.109375,0.046875 -0.109375,0.109375 0,0.03125 0,0.046875 0.1875,0.234375 0.984375,0.984375 1.546875,2.5625 1.546875,4.640625 0,1.71875 -0.359375,3.46875 -1.59375,4.71875 C 0.5625,2.34375 0.5625,2.359375 0.5625,2.390625 0.5625,2.453125 0.609375,2.5 0.671875,2.5 0.765625,2.5 1.671875,1.8125 2.25,0.546875 2.765625,-0.546875 2.875,-1.65625 2.875,-2.5 Z m 0,0"
               style="stroke:none" />
          </symbol>
        </g>
      </defs>
      <g
         transform="translate(-149.696,-127.281)"
         id="id-f16e21e4-1d8b-469d-8e84-ce36c003e8c2">
        <g
           id="id-0364ebb0-52b8-49d7-a533-29ac4672ba10"
           style="fill:#000000;fill-opacity:1">
          <g
             transform="translate(148.712,134.765)"
             id="g3756">
            <path
               id="id-622fa9c5-21da-4750-b43d-2bab9d1a56e6"
               d="m 3.296875,2.390625 c 0,-0.03125 0,-0.046875 -0.171875,-0.21875 C 1.890625,0.921875 1.5625,-0.96875 1.5625,-2.5 c 0,-1.734375 0.375,-3.46875 1.609375,-4.703125 0.125,-0.125 0.125,-0.140625 0.125,-0.171875 0,-0.078125 -0.03125,-0.109375 -0.09375,-0.109375 -0.109375,0 -1,0.6875 -1.59375,1.953125 -0.5,1.09375 -0.625,2.203125 -0.625,3.03125 0,0.78125 0.109375,1.984375 0.65625,3.125 C 2.25,1.84375 3.09375,2.5 3.203125,2.5 c 0.0625,0 0.09375,-0.03125 0.09375,-0.109375 z m 0,0"
               style="stroke:none" />
          </g>
          <g
             transform="translate(152.586,134.765)"
             id="g3759">
            <path
               id="id-8c05617b-6a1c-450e-a96f-bddc07283607"
               d="m 2.9375,-6.375 c 0,-0.25 0,-0.265625 -0.234375,-0.265625 C 2.078125,-6 1.203125,-6 0.890625,-6 v 0.3125 c 0.203125,0 0.78125,0 1.296875,-0.265625 v 5.171875 c 0,0.359375 -0.03125,0.46875 -0.921875,0.46875 h -0.3125 V 0 c 0.34375,-0.03125 1.203125,-0.03125 1.609375,-0.03125 0.390625,0 1.265625,0 1.609375,0.03125 v -0.3125 h -0.3125 c -0.90625,0 -0.921875,-0.109375 -0.921875,-0.46875 z m 0,0"
               style="stroke:none" />
          </g>
          <g
             transform="translate(157.568,134.765)"
             id="g3762">
            <path
               id="id-0264243f-50cc-4d72-a120-ce0764158a3e"
               d="m 2.875,-2.5 c 0,-0.765625 -0.109375,-1.96875 -0.65625,-3.109375 -0.59375,-1.21875 -1.453125,-1.875 -1.546875,-1.875 -0.0625,0 -0.109375,0.046875 -0.109375,0.109375 0,0.03125 0,0.046875 0.1875,0.234375 0.984375,0.984375 1.546875,2.5625 1.546875,4.640625 0,1.71875 -0.359375,3.46875 -1.59375,4.71875 C 0.5625,2.34375 0.5625,2.359375 0.5625,2.390625 0.5625,2.453125 0.609375,2.5 0.671875,2.5 0.765625,2.5 1.671875,1.8125 2.25,0.546875 2.765625,-0.546875 2.875,-1.65625 2.875,-2.5 Z m 0,0"
               style="stroke:none" />
          </g>
        </g>
      </g>
    </g>
    <g
       transform="matrix(1.76389,0,0,1.76389,367.04385,172.2997)"
       ns2:version="1.0.1"
       ns2:texconverter="pdflatex"
       ns2:pdfconverter="inkscape"
       ns2:text="$(1,2)$"
       ns2:preamble="C:\\Users\\claum\\AppData\\Roaming\\inkscape\\extensions\\textext\\default_packages.tex"
       ns2:scale="5.0"
       ns2:alignment="middle center"
       ns2:inkscapeversion="1.0"
       ns2:jacobian_sqrt="1.76389"
       id="g4056">
      <defs
         id="id-c6c2dacf-9359-4c2f-846c-a8db90fb2d4a">
        <g
           id="id-a86f2b67-0008-49f6-8384-00ffb1e2e30f">
          <symbol
             id="id-4aa0c9fd-e1da-4348-aa37-d6158ab162be"
             overflow="visible">
            <path
               id="id-ba250022-6c26-44c4-a798-2358621c07c6"
               d=""
               style="stroke:none" />
          </symbol>
          <symbol
             id="id-925b01d6-086e-447d-ac47-0d0807f2b764"
             overflow="visible">
            <path
               id="id-c93759ba-5de6-4578-bc69-f1aaeebc03af"
               d="m 3.296875,2.390625 c 0,-0.03125 0,-0.046875 -0.171875,-0.21875 C 1.890625,0.921875 1.5625,-0.96875 1.5625,-2.5 c 0,-1.734375 0.375,-3.46875 1.609375,-4.703125 0.125,-0.125 0.125,-0.140625 0.125,-0.171875 0,-0.078125 -0.03125,-0.109375 -0.09375,-0.109375 -0.109375,0 -1,0.6875 -1.59375,1.953125 -0.5,1.09375 -0.625,2.203125 -0.625,3.03125 0,0.78125 0.109375,1.984375 0.65625,3.125 C 2.25,1.84375 3.09375,2.5 3.203125,2.5 c 0.0625,0 0.09375,-0.03125 0.09375,-0.109375 z m 0,0"
               style="stroke:none" />
          </symbol>
          <symbol
             id="id-a1412222-bad2-4d48-9bd0-c30f3500c890"
             overflow="visible">
            <path
               id="id-c835cbad-dd06-4d24-871d-1f455fd68c81"
               d="m 2.9375,-6.375 c 0,-0.25 0,-0.265625 -0.234375,-0.265625 C 2.078125,-6 1.203125,-6 0.890625,-6 v 0.3125 c 0.203125,0 0.78125,0 1.296875,-0.265625 v 5.171875 c 0,0.359375 -0.03125,0.46875 -0.921875,0.46875 h -0.3125 V 0 c 0.34375,-0.03125 1.203125,-0.03125 1.609375,-0.03125 0.390625,0 1.265625,0 1.609375,0.03125 v -0.3125 h -0.3125 c -0.90625,0 -0.921875,-0.109375 -0.921875,-0.46875 z m 0,0"
               style="stroke:none" />
          </symbol>
          <symbol
             id="id-3e2942c2-d729-4429-85bd-90b68f0f7efd"
             overflow="visible">
            <path
               id="id-eb086a9a-a60c-42e1-bb53-b2e335165627"
               d="m 1.265625,-0.765625 1.0625,-1.03125 c 1.546875,-1.375 2.140625,-1.90625 2.140625,-2.90625 0,-1.140625 -0.890625,-1.9375 -2.109375,-1.9375 -1.125,0 -1.859375,0.921875 -1.859375,1.8125 0,0.546875 0.5,0.546875 0.53125,0.546875 0.171875,0 0.515625,-0.109375 0.515625,-0.53125 0,-0.25 -0.1875,-0.515625 -0.53125,-0.515625 -0.078125,0 -0.09375,0 -0.125,0.015625 0.21875,-0.65625 0.765625,-1.015625 1.34375,-1.015625 0.90625,0 1.328125,0.8125 1.328125,1.625 C 3.5625,-3.90625 3.078125,-3.125 2.515625,-2.5 l -1.90625,2.125 C 0.5,-0.265625 0.5,-0.234375 0.5,0 H 4.203125 L 4.46875,-1.734375 H 4.234375 C 4.171875,-1.4375 4.109375,-1 4,-0.84375 3.9375,-0.765625 3.28125,-0.765625 3.0625,-0.765625 Z m 0,0"
               style="stroke:none" />
          </symbol>
          <symbol
             id="id-5fc5289a-3012-4fcd-94c8-f552f804c3fd"
             overflow="visible">
            <path
               id="id-b1b97354-ff64-4695-b0de-9a1fa5ee76e0"
               d="m 2.875,-2.5 c 0,-0.765625 -0.109375,-1.96875 -0.65625,-3.109375 -0.59375,-1.21875 -1.453125,-1.875 -1.546875,-1.875 -0.0625,0 -0.109375,0.046875 -0.109375,0.109375 0,0.03125 0,0.046875 0.1875,0.234375 0.984375,0.984375 1.546875,2.5625 1.546875,4.640625 0,1.71875 -0.359375,3.46875 -1.59375,4.71875 C 0.5625,2.34375 0.5625,2.359375 0.5625,2.390625 0.5625,2.453125 0.609375,2.5 0.671875,2.5 0.765625,2.5 1.671875,1.8125 2.25,0.546875 2.765625,-0.546875 2.875,-1.65625 2.875,-2.5 Z m 0,0"
               style="stroke:none" />
          </symbol>
          <symbol
             id="id-6be3bf05-1eb0-4aab-a8a0-09035a24c256"
             overflow="visible">
            <path
               id="id-da0c535d-719b-464c-b761-534c2dc19ef1"
               d=""
               style="stroke:none" />
          </symbol>
          <symbol
             id="id-6970d76d-5175-45ff-83e4-b14b493c36bb"
             overflow="visible">
            <path
               id="id-7d06aaf5-c23f-4dc3-a753-318af47b66e5"
               d="m 2.03125,-0.015625 c 0,-0.65625 -0.25,-1.046875 -0.640625,-1.046875 -0.328125,0 -0.53125,0.25 -0.53125,0.53125 C 0.859375,-0.265625 1.0625,0 1.390625,0 1.5,0 1.640625,-0.046875 1.734375,-0.125 1.765625,-0.15625 1.78125,-0.15625 1.78125,-0.15625 c 0.015625,0 0.015625,0 0.015625,0.140625 0,0.75 -0.34375,1.34375 -0.671875,1.671875 -0.109375,0.109375 -0.109375,0.125 -0.109375,0.15625 0,0.078125 0.046875,0.109375 0.09375,0.109375 0.109375,0 0.921875,-0.765625 0.921875,-1.9375 z m 0,0"
               style="stroke:none" />
          </symbol>
        </g>
      </defs>
      <g
         transform="translate(-149.696,-127.281)"
         id="id-00f7f5b6-495d-4420-aab2-7123632673ce">
        <g
           id="id-abc6a1dd-0e7c-4e2d-a1a4-e16211c2b32d"
           style="fill:#000000;fill-opacity:1">
          <g
             transform="translate(148.712,134.765)"
             id="g4038">
            <path
               id="id-bd78428e-6562-46f2-8d48-57d4e9667943"
               d="m 3.296875,2.390625 c 0,-0.03125 0,-0.046875 -0.171875,-0.21875 C 1.890625,0.921875 1.5625,-0.96875 1.5625,-2.5 c 0,-1.734375 0.375,-3.46875 1.609375,-4.703125 0.125,-0.125 0.125,-0.140625 0.125,-0.171875 0,-0.078125 -0.03125,-0.109375 -0.09375,-0.109375 -0.109375,0 -1,0.6875 -1.59375,1.953125 -0.5,1.09375 -0.625,2.203125 -0.625,3.03125 0,0.78125 0.109375,1.984375 0.65625,3.125 C 2.25,1.84375 3.09375,2.5 3.203125,2.5 c 0.0625,0 0.09375,-0.03125 0.09375,-0.109375 z m 0,0"
               style="stroke:none" />
          </g>
          <g
             transform="translate(152.586,134.765)"
             id="g4041">
            <path
               id="id-40974f0b-7438-4030-93ed-ea19c6951ced"
               d="m 2.9375,-6.375 c 0,-0.25 0,-0.265625 -0.234375,-0.265625 C 2.078125,-6 1.203125,-6 0.890625,-6 v 0.3125 c 0.203125,0 0.78125,0 1.296875,-0.265625 v 5.171875 c 0,0.359375 -0.03125,0.46875 -0.921875,0.46875 h -0.3125 V 0 c 0.34375,-0.03125 1.203125,-0.03125 1.609375,-0.03125 0.390625,0 1.265625,0 1.609375,0.03125 v -0.3125 h -0.3125 c -0.90625,0 -0.921875,-0.109375 -0.921875,-0.46875 z m 0,0"
               style="stroke:none" />
          </g>
        </g>
        <g
           id="id-9ab10637-ed73-437e-a40f-9cfcae221a0f"
           style="fill:#000000;fill-opacity:1">
          <g
             transform="translate(157.568,134.765)"
             id="g4045">
            <path
               id="id-1d2b0379-6090-4198-8d0d-811f79017a64"
               d="m 2.03125,-0.015625 c 0,-0.65625 -0.25,-1.046875 -0.640625,-1.046875 -0.328125,0 -0.53125,0.25 -0.53125,0.53125 C 0.859375,-0.265625 1.0625,0 1.390625,0 1.5,0 1.640625,-0.046875 1.734375,-0.125 1.765625,-0.15625 1.78125,-0.15625 1.78125,-0.15625 c 0.015625,0 0.015625,0 0.015625,0.140625 0,0.75 -0.34375,1.34375 -0.671875,1.671875 -0.109375,0.109375 -0.109375,0.125 -0.109375,0.15625 0,0.078125 0.046875,0.109375 0.09375,0.109375 0.109375,0 0.921875,-0.765625 0.921875,-1.9375 z m 0,0"
               style="stroke:none" />
          </g>
        </g>
        <g
           id="id-9b41a086-8a08-4f58-82c2-9806749d5c1f"
           style="fill:#000000;fill-opacity:1">
          <g
             transform="translate(161.996,134.765)"
             id="g4049">
            <path
               id="id-2f6f5b60-a190-4c90-9ad9-b596b4bae6bd"
               d="m 1.265625,-0.765625 1.0625,-1.03125 c 1.546875,-1.375 2.140625,-1.90625 2.140625,-2.90625 0,-1.140625 -0.890625,-1.9375 -2.109375,-1.9375 -1.125,0 -1.859375,0.921875 -1.859375,1.8125 0,0.546875 0.5,0.546875 0.53125,0.546875 0.171875,0 0.515625,-0.109375 0.515625,-0.53125 0,-0.25 -0.1875,-0.515625 -0.53125,-0.515625 -0.078125,0 -0.09375,0 -0.125,0.015625 0.21875,-0.65625 0.765625,-1.015625 1.34375,-1.015625 0.90625,0 1.328125,0.8125 1.328125,1.625 C 3.5625,-3.90625 3.078125,-3.125 2.515625,-2.5 l -1.90625,2.125 C 0.5,-0.265625 0.5,-0.234375 0.5,0 H 4.203125 L 4.46875,-1.734375 H 4.234375 C 4.171875,-1.4375 4.109375,-1 4,-0.84375 3.9375,-0.765625 3.28125,-0.765625 3.0625,-0.765625 Z m 0,0"
               style="stroke:none" />
          </g>
          <g
             transform="translate(166.977,134.765)"
             id="g4052">
            <path
               id="id-6c48dbc7-3168-4a2f-aa93-83b86f764f79"
               d="m 2.875,-2.5 c 0,-0.765625 -0.109375,-1.96875 -0.65625,-3.109375 -0.59375,-1.21875 -1.453125,-1.875 -1.546875,-1.875 -0.0625,0 -0.109375,0.046875 -0.109375,0.109375 0,0.03125 0,0.046875 0.1875,0.234375 0.984375,0.984375 1.546875,2.5625 1.546875,4.640625 0,1.71875 -0.359375,3.46875 -1.59375,4.71875 C 0.5625,2.34375 0.5625,2.359375 0.5625,2.390625 0.5625,2.453125 0.609375,2.5 0.671875,2.5 0.765625,2.5 1.671875,1.8125 2.25,0.546875 2.765625,-0.546875 2.875,-1.65625 2.875,-2.5 Z m 0,0"
               style="stroke:none" />
          </g>
        </g>
      </g>
    </g>
    <g
       transform="matrix(1.76389,0,0,1.76389,519.33139,6.169713)"
       ns2:version="1.0.1"
       ns2:texconverter="pdflatex"
       ns2:pdfconverter="inkscape"
       ns2:text="$(2)$"
       ns2:preamble="C:\\Users\\claum\\AppData\\Roaming\\inkscape\\extensions\\textext\\default_packages.tex"
       ns2:scale="5.0"
       ns2:alignment="middle center"
       ns2:inkscapeversion="1.0"
       ns2:jacobian_sqrt="1.76389"
       id="g4375">
      <defs
         id="id-735393c4-b6da-427b-af27-495ef048c5ea">
        <g
           id="id-ec1f4c15-2f34-45df-89fc-aa83dfaf1707">
          <symbol
             id="id-1d38b9af-34b4-4ad2-85fa-982a315547be"
             overflow="visible">
            <path
               id="id-f8312fb7-04f3-4f10-90b2-a1c3cb3973c8"
               d=""
               style="stroke:none" />
          </symbol>
          <symbol
             id="id-cb85bd40-adb1-4536-9ecc-0f0d1fd2f057"
             overflow="visible">
            <path
               id="id-a53df990-9b86-488d-a77c-2811ef7514cc"
               d="m 3.296875,2.390625 c 0,-0.03125 0,-0.046875 -0.171875,-0.21875 C 1.890625,0.921875 1.5625,-0.96875 1.5625,-2.5 c 0,-1.734375 0.375,-3.46875 1.609375,-4.703125 0.125,-0.125 0.125,-0.140625 0.125,-0.171875 0,-0.078125 -0.03125,-0.109375 -0.09375,-0.109375 -0.109375,0 -1,0.6875 -1.59375,1.953125 -0.5,1.09375 -0.625,2.203125 -0.625,3.03125 0,0.78125 0.109375,1.984375 0.65625,3.125 C 2.25,1.84375 3.09375,2.5 3.203125,2.5 c 0.0625,0 0.09375,-0.03125 0.09375,-0.109375 z m 0,0"
               style="stroke:none" />
          </symbol>
          <symbol
             id="id-922c49c8-6b71-466d-b724-cb89e67c149f"
             overflow="visible">
            <path
               id="id-9a8435cb-8874-4819-a9e9-7156ec910796"
               d="m 1.265625,-0.765625 1.0625,-1.03125 c 1.546875,-1.375 2.140625,-1.90625 2.140625,-2.90625 0,-1.140625 -0.890625,-1.9375 -2.109375,-1.9375 -1.125,0 -1.859375,0.921875 -1.859375,1.8125 0,0.546875 0.5,0.546875 0.53125,0.546875 0.171875,0 0.515625,-0.109375 0.515625,-0.53125 0,-0.25 -0.1875,-0.515625 -0.53125,-0.515625 -0.078125,0 -0.09375,0 -0.125,0.015625 0.21875,-0.65625 0.765625,-1.015625 1.34375,-1.015625 0.90625,0 1.328125,0.8125 1.328125,1.625 C 3.5625,-3.90625 3.078125,-3.125 2.515625,-2.5 l -1.90625,2.125 C 0.5,-0.265625 0.5,-0.234375 0.5,0 H 4.203125 L 4.46875,-1.734375 H 4.234375 C 4.171875,-1.4375 4.109375,-1 4,-0.84375 3.9375,-0.765625 3.28125,-0.765625 3.0625,-0.765625 Z m 0,0"
               style="stroke:none" />
          </symbol>
          <symbol
             id="id-7a216adb-c807-4355-a6e1-1ff1ea746610"
             overflow="visible">
            <path
               id="id-dcd10afa-72d3-4d98-ab0f-c6ff52b2059e"
               d="m 2.875,-2.5 c 0,-0.765625 -0.109375,-1.96875 -0.65625,-3.109375 -0.59375,-1.21875 -1.453125,-1.875 -1.546875,-1.875 -0.0625,0 -0.109375,0.046875 -0.109375,0.109375 0,0.03125 0,0.046875 0.1875,0.234375 0.984375,0.984375 1.546875,2.5625 1.546875,4.640625 0,1.71875 -0.359375,3.46875 -1.59375,4.71875 C 0.5625,2.34375 0.5625,2.359375 0.5625,2.390625 0.5625,2.453125 0.609375,2.5 0.671875,2.5 0.765625,2.5 1.671875,1.8125 2.25,0.546875 2.765625,-0.546875 2.875,-1.65625 2.875,-2.5 Z m 0,0"
               style="stroke:none" />
          </symbol>
        </g>
      </defs>
      <g
         transform="translate(-149.696,-127.281)"
         id="id-f939f5d2-f772-4cd9-9e16-9d2a65cf5f84">
        <g
           id="id-2f8b4330-fdfe-43fc-886b-4cc3a2f7db96"
           style="fill:#000000;fill-opacity:1">
          <g
             transform="translate(148.712,134.765)"
             id="g4365">
            <path
               id="id-e76bb6b0-0fee-4e4e-b5b9-7e975a1d433e"
               d="m 3.296875,2.390625 c 0,-0.03125 0,-0.046875 -0.171875,-0.21875 C 1.890625,0.921875 1.5625,-0.96875 1.5625,-2.5 c 0,-1.734375 0.375,-3.46875 1.609375,-4.703125 0.125,-0.125 0.125,-0.140625 0.125,-0.171875 0,-0.078125 -0.03125,-0.109375 -0.09375,-0.109375 -0.109375,0 -1,0.6875 -1.59375,1.953125 -0.5,1.09375 -0.625,2.203125 -0.625,3.03125 0,0.78125 0.109375,1.984375 0.65625,3.125 C 2.25,1.84375 3.09375,2.5 3.203125,2.5 c 0.0625,0 0.09375,-0.03125 0.09375,-0.109375 z m 0,0"
               style="stroke:none" />
          </g>
          <g
             transform="translate(152.586,134.765)"
             id="g4368">
            <path
               id="id-8517c9bb-f985-47db-9f90-72c28507b7ac"
               d="m 1.265625,-0.765625 1.0625,-1.03125 c 1.546875,-1.375 2.140625,-1.90625 2.140625,-2.90625 0,-1.140625 -0.890625,-1.9375 -2.109375,-1.9375 -1.125,0 -1.859375,0.921875 -1.859375,1.8125 0,0.546875 0.5,0.546875 0.53125,0.546875 0.171875,0 0.515625,-0.109375 0.515625,-0.53125 0,-0.25 -0.1875,-0.515625 -0.53125,-0.515625 -0.078125,0 -0.09375,0 -0.125,0.015625 0.21875,-0.65625 0.765625,-1.015625 1.34375,-1.015625 0.90625,0 1.328125,0.8125 1.328125,1.625 C 3.5625,-3.90625 3.078125,-3.125 2.515625,-2.5 l -1.90625,2.125 C 0.5,-0.265625 0.5,-0.234375 0.5,0 H 4.203125 L 4.46875,-1.734375 H 4.234375 C 4.171875,-1.4375 4.109375,-1 4,-0.84375 3.9375,-0.765625 3.28125,-0.765625 3.0625,-0.765625 Z m 0,0"
               style="stroke:none" />
          </g>
          <g
             transform="translate(157.568,134.765)"
             id="g4371">
            <path
               id="id-50f61bf3-3e24-442f-a624-d564bb0f0204"
               d="m 2.875,-2.5 c 0,-0.765625 -0.109375,-1.96875 -0.65625,-3.109375 -0.59375,-1.21875 -1.453125,-1.875 -1.546875,-1.875 -0.0625,0 -0.109375,0.046875 -0.109375,0.109375 0,0.03125 0,0.046875 0.1875,0.234375 0.984375,0.984375 1.546875,2.5625 1.546875,4.640625 0,1.71875 -0.359375,3.46875 -1.59375,4.71875 C 0.5625,2.34375 0.5625,2.359375 0.5625,2.390625 0.5625,2.453125 0.609375,2.5 0.671875,2.5 0.765625,2.5 1.671875,1.8125 2.25,0.546875 2.765625,-0.546875 2.875,-1.65625 2.875,-2.5 Z m 0,0"
               style="stroke:none" />
          </g>
        </g>
      </g>
    </g>
    <g
       transform="matrix(1.76389,0,0,1.76389,51,152.98438)"
       ns2:version="1.0.1"
       ns2:texconverter="pdflatex"
       ns2:pdfconverter="inkscape"
       ns2:text="\\textsc{I}"
       ns2:preamble="C:\\Users\\claum\\AppData\\Roaming\\inkscape\\extensions\\textext\\default_packages.tex"
       ns2:scale="5.0"
       ns2:alignment="middle center"
       ns2:inkscapeversion="1.0"
       ns2:jacobian_sqrt="1.76389"
       id="g5165">
      <defs
         id="id-3e9e8589-09ea-4ef1-a6cf-8ae52773e7f3">
        <g
           id="id-20bbb91c-49d9-470e-a2c7-7fb7e04254f7">
          <symbol
             id="id-9cebd8f5-313b-4c25-82f3-faa3e4105c61"
             overflow="visible">
            <path
               id="id-6e0fc007-e41f-44f4-881c-b5acb5aa06d3"
               d=""
               style="stroke:none" />
          </symbol>
          <symbol
             id="id-4a36385f-c1d5-4bde-9ef8-f2c2f90cd10b"
             overflow="visible">
            <path
               id="id-210ee5fd-d69a-433f-9f22-5b03529c5633"
               d="M 2.46875,-6.03125 C 2.46875,-6.390625 2.5,-6.5 3.28125,-6.5 h 0.25 v -0.3125 c -0.34375,0.03125 -1.125,0.03125 -1.5,0.03125 -0.390625,0 -1.1875,0 -1.53125,-0.03125 V -6.5 h 0.25 c 0.796875,0 0.828125,0.109375 0.828125,0.46875 v 5.25 c 0,0.359375 -0.03125,0.46875 -0.828125,0.46875 H 0.5 V 0 c 0.34375,-0.03125 1.140625,-0.03125 1.515625,-0.03125 0.390625,0 1.171875,0 1.515625,0.03125 v -0.3125 h -0.25 c -0.78125,0 -0.8125,-0.109375 -0.8125,-0.46875 z m 0,0"
               style="stroke:none" />
          </symbol>
        </g>
      </defs>
      <g
         transform="translate(-149.212,-127.953)"
         id="id-02be0e25-35f4-449b-93df-bb7baeb40b66">
        <g
           id="id-cf3c7e55-83e8-40aa-bc21-ca4186bd3f1c"
           style="fill:#000000;fill-opacity:1">
          <g
             transform="translate(148.712,134.765)"
             id="g5161">
            <path
               id="id-9d4b4f99-288e-431a-9f14-661e1036b7a9"
               d="M 2.46875,-6.03125 C 2.46875,-6.390625 2.5,-6.5 3.28125,-6.5 h 0.25 v -0.3125 c -0.34375,0.03125 -1.125,0.03125 -1.5,0.03125 -0.390625,0 -1.1875,0 -1.53125,-0.03125 V -6.5 h 0.25 c 0.796875,0 0.828125,0.109375 0.828125,0.46875 v 5.25 c 0,0.359375 -0.03125,0.46875 -0.828125,0.46875 H 0.5 V 0 c 0.34375,-0.03125 1.140625,-0.03125 1.515625,-0.03125 0.390625,0 1.171875,0 1.515625,0.03125 v -0.3125 h -0.25 c -0.78125,0 -0.8125,-0.109375 -0.8125,-0.46875 z m 0,0"
               style="stroke:none" />
          </g>
        </g>
      </g>
    </g>
    <g
       transform="matrix(1.76389,0,0,1.76389,519.8897,153.62284)"
       ns2:version="1.0.1"
       ns2:texconverter="pdflatex"
       ns2:pdfconverter="inkscape"
       ns2:text="\\textsc{II}"
       ns2:preamble="C:\\Users\\claum\\AppData\\Roaming\\inkscape\\extensions\\textext\\default_packages.tex"
       ns2:scale="5.0"
       ns2:alignment="middle center"
       ns2:inkscapeversion="1.0"
       ns2:jacobian_sqrt="1.76389"
       id="g5488">
      <defs
         id="id-c4200fd8-b32c-4131-a727-bc6b33b02cc9">
        <g
           id="id-d4fae4b4-c9a0-4082-9696-f684ba560044">
          <symbol
             id="id-65ad1753-fba1-4b13-8200-2e146432e121"
             overflow="visible">
            <path
               id="id-6c1f4819-651e-4fbb-8370-c1f138df8fe0"
               d=""
               style="stroke:none" />
          </symbol>
          <symbol
             id="id-12af7a2e-daed-4741-9431-9fdcaa468367"
             overflow="visible">
            <path
               id="id-e04480b1-f9bc-465d-bf8c-b2be5c2da9e8"
               d="M 2.46875,-6.03125 C 2.46875,-6.390625 2.5,-6.5 3.28125,-6.5 h 0.25 v -0.3125 c -0.34375,0.03125 -1.125,0.03125 -1.5,0.03125 -0.390625,0 -1.1875,0 -1.53125,-0.03125 V -6.5 h 0.25 c 0.796875,0 0.828125,0.109375 0.828125,0.46875 v 5.25 c 0,0.359375 -0.03125,0.46875 -0.828125,0.46875 H 0.5 V 0 c 0.34375,-0.03125 1.140625,-0.03125 1.515625,-0.03125 0.390625,0 1.171875,0 1.515625,0.03125 v -0.3125 h -0.25 c -0.78125,0 -0.8125,-0.109375 -0.8125,-0.46875 z m 0,0"
               style="stroke:none" />
          </symbol>
        </g>
      </defs>
      <g
         transform="translate(-149.212,-127.953)"
         id="id-8ec6aab7-6dcb-4d75-9866-e6d789995d25">
        <g
           id="id-8f073b22-c1ba-41cd-9b30-e7047c1004fb"
           style="fill:#000000;fill-opacity:1">
          <g
             transform="translate(148.712,134.765)"
             id="g5480">
            <path
               id="id-503e847b-b68a-4b98-b76d-610f01a8c801"
               d="M 2.46875,-6.03125 C 2.46875,-6.390625 2.5,-6.5 3.28125,-6.5 h 0.25 v -0.3125 c -0.34375,0.03125 -1.125,0.03125 -1.5,0.03125 -0.390625,0 -1.1875,0 -1.53125,-0.03125 V -6.5 h 0.25 c 0.796875,0 0.828125,0.109375 0.828125,0.46875 v 5.25 c 0,0.359375 -0.03125,0.46875 -0.828125,0.46875 H 0.5 V 0 c 0.34375,-0.03125 1.140625,-0.03125 1.515625,-0.03125 0.390625,0 1.171875,0 1.515625,0.03125 v -0.3125 h -0.25 c -0.78125,0 -0.8125,-0.109375 -0.8125,-0.46875 z m 0,0"
               style="stroke:none" />
          </g>
        </g>
        <g
           id="id-42cd4f00-cb6d-4024-863e-1de1060a74cf"
           style="fill:#000000;fill-opacity:1">
          <g
             transform="translate(153.042,134.765)"
             id="g5484">
            <path
               id="id-f38d2059-8e95-4a59-9300-2294fe330490"
               d="M 2.46875,-6.03125 C 2.46875,-6.390625 2.5,-6.5 3.28125,-6.5 h 0.25 v -0.3125 c -0.34375,0.03125 -1.125,0.03125 -1.5,0.03125 -0.390625,0 -1.1875,0 -1.53125,-0.03125 V -6.5 h 0.25 c 0.796875,0 0.828125,0.109375 0.828125,0.46875 v 5.25 c 0,0.359375 -0.03125,0.46875 -0.828125,0.46875 H 0.5 V 0 c 0.34375,-0.03125 1.140625,-0.03125 1.515625,-0.03125 0.390625,0 1.171875,0 1.515625,0.03125 v -0.3125 h -0.25 c -0.78125,0 -0.8125,-0.109375 -0.8125,-0.46875 z m 0,0"
               style="stroke:none" />
          </g>
        </g>
      </g>
    </g>
  </g>
</svg>
