<?xml version="1.0" encoding="UTF-8" standalone="no"?>
<svg
   xmlns:ns2="http://www.iki.fi/pav/software/textext/"
   xmlns:dc="http://purl.org/dc/elements/1.1/"
   xmlns:cc="http://creativecommons.org/ns#"
   xmlns:rdf="http://www.w3.org/1999/02/22-rdf-syntax-ns#"
   xmlns:svg="http://www.w3.org/2000/svg"
   xmlns="http://www.w3.org/2000/svg"
   xmlns:sodipodi="http://sodipodi.sourceforge.net/DTD/sodipodi-0.dtd"
   xmlns:inkscape="http://www.inkscape.org/namespaces/inkscape"
   sodipodi:docname="Figura5_3.svg"
   inkscape:version="1.0 (4035a4fb49, 2020-05-01)"
   id="svg8"
   version="1.1"
   viewBox="0 0 415 290.99999"
   height="29.1cm"
   width="41.5cm">
  <defs
     id="defs2">
    <marker
       inkscape:stockid="Arrow1Lend"
       orient="auto"
       refY="0"
       refX="0"
       id="marker3965"
       style="overflow:visible"
       inkscape:isstock="true">
      <path
         id="path3963"
         d="M 0,0 5,-5 -12.5,0 5,5 Z"
         style="fill:#000000;fill-opacity:1;fill-rule:evenodd;stroke:#000000;stroke-width:1pt;stroke-opacity:1"
         transform="matrix(-0.8,0,0,-0.8,-10,0)" />
    </marker>
    <marker
       inkscape:isstock="true"
       style="overflow:visible"
       id="marker3919"
       refX="0"
       refY="0"
       orient="auto"
       inkscape:stockid="Arrow1Lstart">
      <path
         transform="matrix(0.8,0,0,0.8,10,0)"
         style="fill:#000000;fill-opacity:1;fill-rule:evenodd;stroke:#000000;stroke-width:1pt;stroke-opacity:1"
         d="M 0,0 5,-5 -12.5,0 5,5 Z"
         id="path3917" />
    </marker>
    <marker
       inkscape:stockid="Arrow1Lstart"
       orient="auto"
       refY="0"
       refX="0"
       id="Arrow1Lstart"
       style="overflow:visible"
       inkscape:isstock="true"
       inkscape:collect="always">
      <path
         id="path879"
         d="M 0,0 5,-5 -12.5,0 5,5 Z"
         style="fill:#000000;fill-opacity:1;fill-rule:evenodd;stroke:#000000;stroke-width:1pt;stroke-opacity:1"
         transform="matrix(0.8,0,0,0.8,10,0)" />
    </marker>
    <marker
       inkscape:isstock="true"
       style="overflow:visible"
       id="marker1157"
       refX="0"
       refY="0"
       orient="auto"
       inkscape:stockid="Arrow1Lend">
      <path
         transform="matrix(-0.8,0,0,-0.8,-10,0)"
         style="fill:#000000;fill-opacity:1;fill-rule:evenodd;stroke:#000000;stroke-width:1pt;stroke-opacity:1"
         d="M 0,0 5,-5 -12.5,0 5,5 Z"
         id="path1155" />
    </marker>
    <marker
       inkscape:stockid="Arrow1Lend"
       orient="auto"
       refY="0"
       refX="0"
       id="Arrow1Lend"
       style="overflow:visible"
       inkscape:isstock="true"
       inkscape:collect="always">
      <path
         id="path882"
         d="M 0,0 5,-5 -12.5,0 5,5 Z"
         style="fill:#000000;fill-opacity:1;fill-rule:evenodd;stroke:#000000;stroke-width:1pt;stroke-opacity:1"
         transform="matrix(-0.8,0,0,-0.8,-10,0)" />
    </marker>
  </defs>
  <sodipodi:namedview
     id="base"
     pagecolor="#ffffff"
     bordercolor="#666666"
     borderopacity="1.0"
     inkscape:pageopacity="0.0"
     inkscape:pageshadow="2"
     inkscape:zoom="0.35"
     inkscape:cx="755.30843"
     inkscape:cy="324.38472"
     inkscape:document-units="mm"
     inkscape:current-layer="layer1"
     inkscape:document-rotation="0"
     showgrid="true"
     units="cm"
     inkscape:window-width="1366"
     inkscape:window-height="738"
     inkscape:window-x="0"
     inkscape:window-y="0"
     inkscape:window-maximized="0">
    <inkscape:grid
       type="xygrid"
       id="grid10"
       units="cm" />
  </sodipodi:namedview>
  <metadata
     id="metadata5">
    <rdf:RDF>
      <cc:Work
         rdf:about="">
        <dc:format>image/svg+xml</dc:format>
        <dc:type
           rdf:resource="http://purl.org/dc/dcmitype/StillImage" />
        <dc:title></dc:title>
      </cc:Work>
    </rdf:RDF>
  </metadata>
  <g
     inkscape:label="Livello 1"
     inkscape:groupmode="layer"
     id="layer1">
    <path
       style="fill:none;stroke:#000000;stroke-width:0.264583px;stroke-linecap:butt;stroke-linejoin:miter;stroke-opacity:1;marker-end:url(#marker1157)"
       d="M 10,150 H 410"
       id="path12"
       sodipodi:nodetypes="cc" />
    <path
       style="fill:none;stroke:#000000;stroke-width:0.264583px;stroke-linecap:butt;stroke-linejoin:miter;stroke-opacity:1;marker-end:url(#Arrow1Lend)"
       d="M 30,290 V 10"
       id="path14" />
    <circle
       style="fill:none;stroke:#000000;stroke-width:0.36;stroke-miterlimit:4;stroke-dasharray:none;stroke-dashoffset:0"
       id="path16"
       cx="210"
       cy="150"
       r="100" />
    <path
       style="fill:none;stroke:#000000;stroke-width:0.264583px;stroke-linecap:butt;stroke-linejoin:miter;stroke-opacity:1"
       d="M 210,150 150,69.999999"
       id="path841" />
    <path
       style="fill:none;stroke:#000000;stroke-width:0.36;stroke-linecap:butt;stroke-linejoin:miter;stroke-miterlimit:4;stroke-dasharray:1.44, 0.72, 0.36, 0.72;stroke-dashoffset:0;stroke-opacity:1"
       d="M 110,150 150,69.999999"
       id="path843" />
    <path
       id="path845"
       d="m 95,180 15,-30"
       style="fill:none;stroke:#000000;stroke-width:0.36;stroke-linecap:butt;stroke-linejoin:miter;stroke-miterlimit:4;stroke-dasharray:1.44, 0.72, 0.36, 0.72;stroke-dashoffset:0;stroke-opacity:1"
       sodipodi:nodetypes="cc" />
    <path
       id="path849"
       d="m 150,70 160,80"
       style="fill:none;stroke:#000000;stroke-width:0.36;stroke-linecap:butt;stroke-linejoin:miter;stroke-miterlimit:4;stroke-dasharray:1.44, 0.72, 0.36, 0.72;stroke-dashoffset:0;stroke-opacity:1"
       sodipodi:nodetypes="cc" />
    <path
       sodipodi:nodetypes="cc"
       style="fill:none;stroke:#000000;stroke-width:0.36;stroke-linecap:butt;stroke-linejoin:miter;stroke-miterlimit:4;stroke-dasharray:1.44, 0.72, 0.36, 0.72;stroke-dashoffset:0;stroke-opacity:1"
       d="m 310,150 30,15"
       id="path851" />
    <path
       sodipodi:nodetypes="cc"
       style="fill:none;stroke:#000000;stroke-width:0.36;stroke-linecap:butt;stroke-linejoin:miter;stroke-miterlimit:4;stroke-dasharray:1.44, 0.72, 0.36, 0.72;stroke-dashoffset:0;stroke-opacity:1"
       d="m 120,55 30,15"
       id="path853" />
    <path
       id="path855"
       d="M 165,40 150,70"
       style="fill:none;stroke:#000000;stroke-width:0.36;stroke-linecap:butt;stroke-linejoin:miter;stroke-miterlimit:4;stroke-dasharray:1.44, 0.72, 0.36, 0.72;stroke-dashoffset:0;stroke-opacity:1"
       sodipodi:nodetypes="cc" />
    <path
       style="fill:none;stroke:#000000;stroke-width:0.264583px;stroke-linecap:butt;stroke-linejoin:miter;stroke-opacity:1"
       d="M 150,69.999999 V 150"
       id="path857" />
    <path
       style="fill:none;stroke:#000000;stroke-width:0.36;stroke-miterlimit:4;stroke-dasharray:none;stroke-dashoffset:0"
       id="path859"
       transform="scale(1,-1)"
       sodipodi:type="arc"
       sodipodi:cx="210"
       sodipodi:cy="-150"
       sodipodi:rx="35"
       sodipodi:ry="35"
       sodipodi:start="2.2160977"
       sodipodi:end="3.1401595"
       sodipodi:arc-type="slice"
       d="m 188.94963,-122.03785 a 35,35 0 0 1 -13.94959,-27.91199 L 210,-150 Z" />
    <path
       style="fill:none;stroke:#000000;stroke-width:0.264583px;stroke-linecap:butt;stroke-linejoin:miter;stroke-opacity:1"
       d="m 110,150 v 90"
       id="path861" />
    <path
       style="fill:none;stroke:#000000;stroke-width:0.264583px;stroke-linecap:butt;stroke-linejoin:miter;stroke-opacity:1"
       d="m 105,245 10,-10"
       id="path863" />
    <path
       style="fill:none;stroke:#000000;stroke-width:0.264583px;stroke-linecap:butt;stroke-linejoin:miter;stroke-opacity:1"
       d="m 30,240 h 80"
       id="path865" />
    <path
       style="fill:none;stroke:#000000;stroke-width:0.264583px;stroke-linecap:butt;stroke-linejoin:miter;stroke-opacity:1"
       d="m 25,245 9.999998,-10"
       id="path867" />
    <path
       style="fill:none;stroke:#000000;stroke-width:0.264583px;stroke-linecap:butt;stroke-linejoin:miter;stroke-opacity:1"
       d="M 309.99998,150 V 279.99999"
       id="path869" />
    <path
       style="fill:none;stroke:#000000;stroke-width:0.264583px;stroke-linecap:butt;stroke-linejoin:miter;stroke-opacity:1"
       d="M 304.99999,285.00001 315,275"
       id="path871" />
    <path
       style="fill:none;stroke:#000000;stroke-width:0.264583px;stroke-linecap:butt;stroke-linejoin:miter;stroke-opacity:1"
       d="M 309.99998,279.99999 H 30"
       id="path873" />
    <path
       style="fill:none;stroke:#000000;stroke-width:0.264583px;stroke-linecap:butt;stroke-linejoin:miter;stroke-opacity:1"
       d="M 25,285.00001 34.999998,275"
       id="path875" />
    <path
       id="path877"
       d="m 340,165 30,15"
       style="fill:none;stroke:#000000;stroke-width:0.36;stroke-linecap:butt;stroke-linejoin:miter;stroke-miterlimit:4;stroke-dasharray:1.44, 0.72, 0.36, 0.72;stroke-dashoffset:0;stroke-opacity:1"
       sodipodi:nodetypes="cc" />
    <g
       id="g1231"
       ns2:jacobian_sqrt="1.41111"
       ns2:inkscapeversion="1.0"
       ns2:alignment="middle center"
       ns2:scale="4.0"
       ns2:preamble="C:\\Users\\claum\\AppData\\Roaming\\inkscape\\extensions\\textext\\default_packages.tex"
       ns2:text="$I_{\\xi}$"
       ns2:pdfconverter="inkscape"
       ns2:texconverter="pdflatex"
       ns2:version="1.0.1"
       transform="matrix(1.41111,0,0,1.41111,65.215808,223.92032)">
      <defs
         id="id-336483fb-0050-42c0-abc2-65861232c27c">
        <g
           id="id-87902484-efd6-4d5e-a527-10b0203be903">
          <symbol
             overflow="visible"
             id="id-5d2be047-63bb-468c-8238-d4e081690645">
            <path
               style="stroke:none"
               d=""
               id="id-71833745-a334-4346-b8eb-82b95569115f" />
          </symbol>
          <symbol
             overflow="visible"
             id="id-52a55acf-1f71-4956-926a-bb2c9ca6bc5a">
            <path
               style="stroke:none"
               d="M 3.734375,-6.046875 C 3.8125,-6.40625 3.84375,-6.5 4.640625,-6.5 c 0.234375,0 0.3125,0 0.3125,-0.1875 0,-0.125 -0.109375,-0.125 -0.140625,-0.125 -0.296875,0 -1.03125,0.03125 -1.328125,0.03125 -0.296875,0 -1.015625,-0.03125 -1.328125,-0.03125 -0.0625,0 -0.1875,0 -0.1875,0.203125 C 1.96875,-6.5 2.046875,-6.5 2.25,-6.5 c 0.40625,0 0.6875,0 0.6875,0.1875 0,0.046875 0,0.078125 -0.03125,0.15625 l -1.34375,5.375 c -0.09375,0.375 -0.109375,0.46875 -0.90625,0.46875 -0.234375,0 -0.3125,0 -0.3125,0.203125 C 0.34375,0 0.453125,0 0.484375,0 0.78125,0 1.5,-0.03125 1.796875,-0.03125 2.09375,-0.03125 2.828125,0 3.125,0 c 0.078125,0 0.203125,0 0.203125,-0.1875 0,-0.125 -0.078125,-0.125 -0.296875,-0.125 -0.1875,0 -0.234375,0 -0.421875,-0.015625 -0.21875,-0.015625 -0.25,-0.0625 -0.25,-0.171875 0,-0.078125 0.015625,-0.15625 0.03125,-0.234375 z m 0,0"
               id="id-a009b708-de24-4536-ae7f-4d76efc172bd" />
          </symbol>
          <symbol
             overflow="visible"
             id="id-bb0a9214-344a-4444-a547-285133aa8a09">
            <path
               style="stroke:none"
               d=""
               id="id-d5dcdaf8-32a0-40b1-93c2-64b9a74d1ed9" />
          </symbol>
          <symbol
             overflow="visible"
             id="id-205f038f-1705-4f63-adf9-31429d3b6c61">
            <path
               style="stroke:none"
               d="M 1.890625,0.484375 C 1.9375,0.5 2.109375,0.5625 2.171875,0.578125 c 0.34375,0.125 0.4375,0.140625 0.4375,0.328125 0,0.09375 -0.078125,0.3125 -0.3125,0.3125 -0.109375,0 -0.375,-0.015625 -0.6875,-0.1875 C 1.5625,0.984375 1.546875,0.984375 1.53125,0.984375 c -0.046875,0 -0.109375,0.03125 -0.109375,0.109375 0,0.125 0.5,0.328125 0.875,0.328125 0.484375,0 0.75,-0.4375 0.75,-0.765625 0,-0.265625 -0.140625,-0.390625 -0.28125,-0.46875 C 2.703125,0.15625 1.828125,-0.140625 1.75,-0.171875 1.078125,-0.40625 0.703125,-0.53125 0.703125,-0.9375 c 0,-0.25 0.25,-0.796875 0.84375,-1.109375 0.296875,0.109375 0.59375,0.109375 0.71875,0.109375 0.25,0 0.71875,0 0.71875,-0.265625 0,-0.21875 -0.390625,-0.21875 -0.640625,-0.21875 -0.15625,0 -0.375,0 -0.65625,0.09375 -0.1875,-0.140625 -0.234375,-0.375 -0.234375,-0.53125 0,-0.40625 0.28125,-0.890625 0.8125,-1.140625 0.15625,0.1875 0.328125,0.1875 0.5,0.1875 0.21875,0 0.6875,0 0.6875,-0.265625 0,-0.21875 -0.390625,-0.21875 -0.640625,-0.21875 -0.109375,0 -0.265625,0 -0.453125,0.03125 0,0 -0.03125,-0.125 -0.03125,-0.203125 0,-0.078125 0.015625,-0.171875 0.03125,-0.234375 C 2.359375,-4.71875 2.375,-4.75 2.375,-4.765625 2.375,-4.8125 2.328125,-4.875 2.265625,-4.875 c -0.171875,0 -0.171875,0.265625 -0.171875,0.390625 0,0.03125 0,0.171875 0.03125,0.265625 -0.953125,0.265625 -1.28125,0.859375 -1.28125,1.3125 0,0.28125 0.125,0.5625 0.453125,0.75 -0.78125,0.453125 -1.015625,1.140625 -1.015625,1.4375 0,0.640625 0.671875,0.875 0.890625,0.953125 z M 3.1875,-4.0625 c -0.0625,0.015625 -0.140625,0.046875 -0.421875,0.046875 -0.109375,0 -0.1875,0 -0.28125,-0.046875 0.125,-0.03125 0.1875,-0.03125 0.328125,-0.03125 0.21875,0 0.265625,0 0.375,0.03125 z m -0.484375,1.875 c -0.09375,0.03125 -0.1875,0.046875 -0.421875,0.046875 -0.125,0 -0.21875,0 -0.34375,-0.046875 0.1875,-0.03125 0.25,-0.03125 0.40625,-0.03125 0.21875,0 0.234375,0 0.359375,0.03125 z m 0,0"
               id="id-c8bccac9-5848-487f-b449-9815a3d20a9b" />
          </symbol>
        </g>
      </defs>
      <g
         id="id-75555db9-ebe6-47a6-9bc4-0b6e774a53a7"
         transform="translate(-149.056,-127.953)">
        <g
           style="fill:#000000;fill-opacity:1"
           id="id-77d1c053-8f0c-4997-a935-1cfdfd11be1c">
          <g
             id="g1223"
             transform="translate(148.712,134.765)">
            <path
               style="stroke:none"
               d="M 3.734375,-6.046875 C 3.8125,-6.40625 3.84375,-6.5 4.640625,-6.5 c 0.234375,0 0.3125,0 0.3125,-0.1875 0,-0.125 -0.109375,-0.125 -0.140625,-0.125 -0.296875,0 -1.03125,0.03125 -1.328125,0.03125 -0.296875,0 -1.015625,-0.03125 -1.328125,-0.03125 -0.0625,0 -0.1875,0 -0.1875,0.203125 C 1.96875,-6.5 2.046875,-6.5 2.25,-6.5 c 0.40625,0 0.6875,0 0.6875,0.1875 0,0.046875 0,0.078125 -0.03125,0.15625 l -1.34375,5.375 c -0.09375,0.375 -0.109375,0.46875 -0.90625,0.46875 -0.234375,0 -0.3125,0 -0.3125,0.203125 C 0.34375,0 0.453125,0 0.484375,0 0.78125,0 1.5,-0.03125 1.796875,-0.03125 2.09375,-0.03125 2.828125,0 3.125,0 c 0.078125,0 0.203125,0 0.203125,-0.1875 0,-0.125 -0.078125,-0.125 -0.296875,-0.125 -0.1875,0 -0.234375,0 -0.421875,-0.015625 -0.21875,-0.015625 -0.25,-0.0625 -0.25,-0.171875 0,-0.078125 0.015625,-0.15625 0.03125,-0.234375 z m 0,0"
               id="id-b2b86c1d-7757-4e78-b859-5f62d03377ec" />
          </g>
        </g>
        <g
           style="fill:#000000;fill-opacity:1"
           id="id-a403f78b-c74e-4eb3-8097-31319c180c1f">
          <g
             id="g1227"
             transform="translate(153.092,136.259)">
            <path
               style="stroke:none"
               d="M 1.890625,0.484375 C 1.9375,0.5 2.109375,0.5625 2.171875,0.578125 c 0.34375,0.125 0.4375,0.140625 0.4375,0.328125 0,0.09375 -0.078125,0.3125 -0.3125,0.3125 -0.109375,0 -0.375,-0.015625 -0.6875,-0.1875 C 1.5625,0.984375 1.546875,0.984375 1.53125,0.984375 c -0.046875,0 -0.109375,0.03125 -0.109375,0.109375 0,0.125 0.5,0.328125 0.875,0.328125 0.484375,0 0.75,-0.4375 0.75,-0.765625 0,-0.265625 -0.140625,-0.390625 -0.28125,-0.46875 C 2.703125,0.15625 1.828125,-0.140625 1.75,-0.171875 1.078125,-0.40625 0.703125,-0.53125 0.703125,-0.9375 c 0,-0.25 0.25,-0.796875 0.84375,-1.109375 0.296875,0.109375 0.59375,0.109375 0.71875,0.109375 0.25,0 0.71875,0 0.71875,-0.265625 0,-0.21875 -0.390625,-0.21875 -0.640625,-0.21875 -0.15625,0 -0.375,0 -0.65625,0.09375 -0.1875,-0.140625 -0.234375,-0.375 -0.234375,-0.53125 0,-0.40625 0.28125,-0.890625 0.8125,-1.140625 0.15625,0.1875 0.328125,0.1875 0.5,0.1875 0.21875,0 0.6875,0 0.6875,-0.265625 0,-0.21875 -0.390625,-0.21875 -0.640625,-0.21875 -0.109375,0 -0.265625,0 -0.453125,0.03125 0,0 -0.03125,-0.125 -0.03125,-0.203125 0,-0.078125 0.015625,-0.171875 0.03125,-0.234375 C 2.359375,-4.71875 2.375,-4.75 2.375,-4.765625 2.375,-4.8125 2.328125,-4.875 2.265625,-4.875 c -0.171875,0 -0.171875,0.265625 -0.171875,0.390625 0,0.03125 0,0.171875 0.03125,0.265625 -0.953125,0.265625 -1.28125,0.859375 -1.28125,1.3125 0,0.28125 0.125,0.5625 0.453125,0.75 -0.78125,0.453125 -1.015625,1.140625 -1.015625,1.4375 0,0.640625 0.671875,0.875 0.890625,0.953125 z M 3.1875,-4.0625 c -0.0625,0.015625 -0.140625,0.046875 -0.421875,0.046875 -0.109375,0 -0.1875,0 -0.28125,-0.046875 0.125,-0.03125 0.1875,-0.03125 0.328125,-0.03125 0.21875,0 0.265625,0 0.375,0.03125 z m -0.484375,1.875 c -0.09375,0.03125 -0.1875,0.046875 -0.421875,0.046875 -0.125,0 -0.21875,0 -0.34375,-0.046875 0.1875,-0.03125 0.25,-0.03125 0.40625,-0.03125 0.21875,0 0.234375,0 0.359375,0.03125 z m 0,0"
               id="id-5e6badc3-8c0c-4a0c-8c15-75ea23b0ac75" />
          </g>
        </g>
      </g>
    </g>
    <g
       id="g1356"
       ns2:jacobian_sqrt="1.41111"
       ns2:inkscapeversion="1.0"
       ns2:alignment="middle center"
       ns2:scale="4.0"
       ns2:preamble="C:\\Users\\claum\\AppData\\Roaming\\inkscape\\extensions\\textext\\default_packages.tex"
       ns2:text="$I_{\\eta}$"
       ns2:pdfconverter="inkscape"
       ns2:texconverter="pdflatex"
       ns2:version="1.0.1"
       transform="matrix(1.41111,0,0,1.41111,161.031,264.03)">
      <defs
         id="id-57914fe0-9dea-466a-95fd-da0065aaf9c4">
        <g
           id="id-2d547e78-f18e-4c73-9ff0-8fbf68a7a920">
          <symbol
             overflow="visible"
             id="id-074fd4ff-b4a2-42f7-a95a-1d0453262287">
            <path
               style="stroke:none"
               d=""
               id="id-45fc9775-b903-4fdc-b0fa-92fa180cd561" />
          </symbol>
          <symbol
             overflow="visible"
             id="id-72cbbd66-1664-407f-b5ba-31e02ea12c58">
            <path
               style="stroke:none"
               d="M 3.734375,-6.046875 C 3.8125,-6.40625 3.84375,-6.5 4.640625,-6.5 c 0.234375,0 0.3125,0 0.3125,-0.1875 0,-0.125 -0.109375,-0.125 -0.140625,-0.125 -0.296875,0 -1.03125,0.03125 -1.328125,0.03125 -0.296875,0 -1.015625,-0.03125 -1.328125,-0.03125 -0.0625,0 -0.1875,0 -0.1875,0.203125 C 1.96875,-6.5 2.046875,-6.5 2.25,-6.5 c 0.40625,0 0.6875,0 0.6875,0.1875 0,0.046875 0,0.078125 -0.03125,0.15625 l -1.34375,5.375 c -0.09375,0.375 -0.109375,0.46875 -0.90625,0.46875 -0.234375,0 -0.3125,0 -0.3125,0.203125 C 0.34375,0 0.453125,0 0.484375,0 0.78125,0 1.5,-0.03125 1.796875,-0.03125 2.09375,-0.03125 2.828125,0 3.125,0 c 0.078125,0 0.203125,0 0.203125,-0.1875 0,-0.125 -0.078125,-0.125 -0.296875,-0.125 -0.1875,0 -0.234375,0 -0.421875,-0.015625 -0.21875,-0.015625 -0.25,-0.0625 -0.25,-0.171875 0,-0.078125 0.015625,-0.15625 0.03125,-0.234375 z m 0,0"
               id="id-a35d16c5-9c3f-4f13-8280-cd0af7e26ab6" />
          </symbol>
          <symbol
             overflow="visible"
             id="id-ac493cdc-4849-4b4f-9f3a-c85b6fc34abf">
            <path
               style="stroke:none"
               d=""
               id="id-cf738af2-1f95-4b01-8a21-7e2c71e94343" />
          </symbol>
          <symbol
             overflow="visible"
             id="id-ccd5c173-b494-4b9d-86b6-b2103c2b9435">
            <path
               style="stroke:none"
               d="M 3.890625,-1.890625 C 3.9375,-2.09375 3.953125,-2.125 3.953125,-2.28125 c 0,-0.109375 0,-0.40625 -0.265625,-0.609375 -0.109375,-0.078125 -0.3125,-0.1875 -0.640625,-0.1875 -0.296875,0 -0.71875,0.078125 -1.171875,0.625 -0.0625,-0.515625 -0.53125,-0.625 -0.75,-0.625 -0.265625,0 -0.4375,0.1875 -0.546875,0.375 -0.140625,0.234375 -0.25,0.65625 -0.25,0.703125 0,0.078125 0.09375,0.078125 0.125,0.078125 0.09375,0 0.09375,-0.015625 0.140625,-0.203125 0.109375,-0.40625 0.25,-0.75 0.515625,-0.75 0.1875,0 0.234375,0.15625 0.234375,0.34375 0,0.125 -0.0625,0.390625 -0.125,0.578125 -0.046875,0.1875 -0.109375,0.46875 -0.140625,0.625 L 0.84375,-0.4375 c -0.015625,0.09375 -0.0625,0.265625 -0.0625,0.28125 0,0.15625 0.125,0.21875 0.234375,0.21875 0.125,0 0.234375,-0.078125 0.28125,-0.140625 0.03125,-0.0625 0.078125,-0.296875 0.125,-0.4375 0.03125,-0.125 0.109375,-0.453125 0.140625,-0.625 0.046875,-0.15625 0.09375,-0.3125 0.125,-0.46875 0.078125,-0.296875 0.078125,-0.3125 0.21875,-0.53125 C 2.125,-2.484375 2.46875,-2.875 3.015625,-2.875 c 0.390625,0 0.40625,0.3125 0.40625,0.484375 0,0.1875 0,0.25 -0.046875,0.390625 L 2.59375,1.125 C 2.5625,1.21875 2.5625,1.265625 2.5625,1.265625 c 0,0.15625 0.125,0.21875 0.234375,0.21875 0.25,0 0.3125,-0.234375 0.34375,-0.328125 z m 0,0"
               id="id-8b5f98c1-2012-410c-939c-34bddc12c40a" />
          </symbol>
        </g>
      </defs>
      <g
         id="id-7b40483e-8f73-4db5-8876-b42294c92a1e"
         transform="translate(-149.056,-127.953)">
        <g
           style="fill:#000000;fill-opacity:1"
           id="id-b036e0dd-03e0-4fb8-b0f2-8c9b745b0076">
          <g
             id="g1348"
             transform="translate(148.712,134.765)">
            <path
               style="stroke:none"
               d="M 3.734375,-6.046875 C 3.8125,-6.40625 3.84375,-6.5 4.640625,-6.5 c 0.234375,0 0.3125,0 0.3125,-0.1875 0,-0.125 -0.109375,-0.125 -0.140625,-0.125 -0.296875,0 -1.03125,0.03125 -1.328125,0.03125 -0.296875,0 -1.015625,-0.03125 -1.328125,-0.03125 -0.0625,0 -0.1875,0 -0.1875,0.203125 C 1.96875,-6.5 2.046875,-6.5 2.25,-6.5 c 0.40625,0 0.6875,0 0.6875,0.1875 0,0.046875 0,0.078125 -0.03125,0.15625 l -1.34375,5.375 c -0.09375,0.375 -0.109375,0.46875 -0.90625,0.46875 -0.234375,0 -0.3125,0 -0.3125,0.203125 C 0.34375,0 0.453125,0 0.484375,0 0.78125,0 1.5,-0.03125 1.796875,-0.03125 2.09375,-0.03125 2.828125,0 3.125,0 c 0.078125,0 0.203125,0 0.203125,-0.1875 0,-0.125 -0.078125,-0.125 -0.296875,-0.125 -0.1875,0 -0.234375,0 -0.421875,-0.015625 -0.21875,-0.015625 -0.25,-0.0625 -0.25,-0.171875 0,-0.078125 0.015625,-0.15625 0.03125,-0.234375 z m 0,0"
               id="id-f6ae955f-958d-48fa-a5a1-ab89a24ef9a1" />
          </g>
        </g>
        <g
           style="fill:#000000;fill-opacity:1"
           id="id-17f764c0-1cf3-48e8-ae3e-e6398de07099">
          <g
             id="g1352"
             transform="translate(153.092,136.259)">
            <path
               style="stroke:none"
               d="M 3.890625,-1.890625 C 3.9375,-2.09375 3.953125,-2.125 3.953125,-2.28125 c 0,-0.109375 0,-0.40625 -0.265625,-0.609375 -0.109375,-0.078125 -0.3125,-0.1875 -0.640625,-0.1875 -0.296875,0 -0.71875,0.078125 -1.171875,0.625 -0.0625,-0.515625 -0.53125,-0.625 -0.75,-0.625 -0.265625,0 -0.4375,0.1875 -0.546875,0.375 -0.140625,0.234375 -0.25,0.65625 -0.25,0.703125 0,0.078125 0.09375,0.078125 0.125,0.078125 0.09375,0 0.09375,-0.015625 0.140625,-0.203125 0.109375,-0.40625 0.25,-0.75 0.515625,-0.75 0.1875,0 0.234375,0.15625 0.234375,0.34375 0,0.125 -0.0625,0.390625 -0.125,0.578125 -0.046875,0.1875 -0.109375,0.46875 -0.140625,0.625 L 0.84375,-0.4375 c -0.015625,0.09375 -0.0625,0.265625 -0.0625,0.28125 0,0.15625 0.125,0.21875 0.234375,0.21875 0.125,0 0.234375,-0.078125 0.28125,-0.140625 0.03125,-0.0625 0.078125,-0.296875 0.125,-0.4375 0.03125,-0.125 0.109375,-0.453125 0.140625,-0.625 0.046875,-0.15625 0.09375,-0.3125 0.125,-0.46875 0.078125,-0.296875 0.078125,-0.3125 0.21875,-0.53125 C 2.125,-2.484375 2.46875,-2.875 3.015625,-2.875 c 0.390625,0 0.40625,0.3125 0.40625,0.484375 0,0.1875 0,0.25 -0.046875,0.390625 L 2.59375,1.125 C 2.5625,1.21875 2.5625,1.265625 2.5625,1.265625 c 0,0.15625 0.125,0.21875 0.234375,0.21875 0.25,0 0.3125,-0.234375 0.34375,-0.328125 z m 0,0"
               id="id-ed195a1d-ec76-4a63-9971-5fe8c9adcffa" />
          </g>
        </g>
      </g>
    </g>
    <g
       id="g1463"
       ns2:jacobian_sqrt="1.41111"
       ns2:inkscapeversion="1.0"
       ns2:alignment="middle center"
       ns2:scale="4.0"
       ns2:preamble="C:\\Users\\claum\\AppData\\Roaming\\inkscape\\extensions\\textext\\default_packages.tex"
       ns2:text="$\\mathbf{P}^{*}$"
       ns2:pdfconverter="inkscape"
       ns2:texconverter="pdflatex"
       ns2:version="1.0.1"
       transform="matrix(1.41111,0,0,1.41111,139.56095,51.162539)">
      <defs
         id="id-eb859713-0d87-41a5-a06d-cd80b594d994">
        <g
           id="id-147d8a25-fb9f-4f7c-a843-2e46e11ac991">
          <symbol
             overflow="visible"
             id="id-348845ff-79c5-470c-81ee-ca225e3dc6f8">
            <path
               style="stroke:none"
               d=""
               id="id-6b5610e7-a0f3-417e-8dd1-782bfdb5ca96" />
          </symbol>
          <symbol
             overflow="visible"
             id="id-67fc6af4-9799-4b87-bdcb-9830fa659845">
            <path
               style="stroke:none"
               d="m 2.875,-3.015625 h 1.765625 c 1.390625,0 2.546875,-0.71875 2.546875,-1.875 0,-1.09375 -0.984375,-1.953125 -2.640625,-1.953125 H 0.390625 V -6.375 H 1.46875 v 5.90625 H 0.390625 V 0 c 0.375,-0.03125 1.359375,-0.03125 1.78125,-0.03125 0.4375,0 1.40625,0 1.78125,0.03125 V -0.46875 H 2.875 Z m 1.28125,-0.40625 H 2.828125 V -6.375 h 1.34375 c 1.484375,0 1.484375,0.765625 1.484375,1.484375 0,0.703125 0,1.46875 -1.5,1.46875 z m 0,0"
               id="id-c48e5b59-4f85-4fcf-bfe7-f3a587dacbbc" />
          </symbol>
          <symbol
             overflow="visible"
             id="id-30d9b797-f600-4aac-baa8-f87bd49d3eae">
            <path
               style="stroke:none"
               d=""
               id="id-3387c5c4-b52e-417a-ac56-0c021c4128c0" />
          </symbol>
          <symbol
             overflow="visible"
             id="id-01784d64-889b-425a-add5-7b958a41c8b1">
            <path
               style="stroke:none"
               d="m 2.25,-1.734375 c 0.578125,-0.25 0.828125,-0.34375 1,-0.4375 0.140625,-0.046875 0.203125,-0.078125 0.203125,-0.21875 0,-0.109375 -0.09375,-0.21875 -0.21875,-0.21875 -0.046875,0 -0.0625,0 -0.140625,0.0625 L 2.140625,-1.90625 2.25,-2.9375 c 0.015625,-0.125 0,-0.296875 -0.21875,-0.296875 -0.078125,0 -0.21875,0.046875 -0.21875,0.203125 0,0.0625 0.03125,0.265625 0.046875,0.34375 0.015625,0.109375 0.0625,0.625 0.078125,0.78125 L 0.984375,-2.546875 c -0.0625,-0.03125 -0.078125,-0.0625 -0.140625,-0.0625 -0.140625,0 -0.21875,0.109375 -0.21875,0.21875 0,0.140625 0.078125,0.1875 0.140625,0.203125 L 1.8125,-1.734375 c -0.5625,0.25 -0.828125,0.34375 -1,0.421875 -0.125,0.0625 -0.1875,0.09375 -0.1875,0.21875 0,0.125 0.078125,0.21875 0.21875,0.21875 0.046875,0 0.0625,0 0.140625,-0.0625 l 0.953125,-0.625 -0.125,1.109375 c 0,0.15625 0.140625,0.21875 0.21875,0.21875 0.09375,0 0.21875,-0.0625 0.21875,-0.21875 0,-0.0625 -0.03125,-0.265625 -0.03125,-0.328125 -0.015625,-0.125 -0.0625,-0.625 -0.078125,-0.78125 L 2.96875,-1.015625 C 3.15625,-0.875 3.171875,-0.875 3.234375,-0.875 c 0.125,0 0.21875,-0.09375 0.21875,-0.21875 0,-0.140625 -0.09375,-0.171875 -0.15625,-0.203125 z m 0,0"
               id="id-97d252ac-e538-4524-9c4c-d9c65ae56406" />
          </symbol>
        </g>
      </defs>
      <g
         id="id-6fcb3126-04a9-481f-817f-a1f719f60f3e"
         transform="translate(-149.103,-127.915)">
        <g
           style="fill:#000000;fill-opacity:1"
           id="id-d8417659-79b6-4085-a4b1-cf0f66d82cb1">
          <g
             id="g1455"
             transform="translate(148.712,134.765)">
            <path
               style="stroke:none"
               d="m 2.875,-3.015625 h 1.765625 c 1.390625,0 2.546875,-0.71875 2.546875,-1.875 0,-1.09375 -0.984375,-1.953125 -2.640625,-1.953125 H 0.390625 V -6.375 H 1.46875 v 5.90625 H 0.390625 V 0 c 0.375,-0.03125 1.359375,-0.03125 1.78125,-0.03125 0.4375,0 1.40625,0 1.78125,0.03125 V -0.46875 H 2.875 Z m 1.28125,-0.40625 H 2.828125 V -6.375 h 1.34375 c 1.484375,0 1.484375,0.765625 1.484375,1.484375 0,0.703125 0,1.46875 -1.5,1.46875 z m 0,0"
               id="id-ec16a8de-c540-4ee8-943b-39978f58efb2" />
          </g>
        </g>
        <g
           style="fill:#000000;fill-opacity:1"
           id="id-89621e2b-424b-4c26-9382-fd3193aea119">
          <g
             id="g1459"
             transform="translate(156.544,131.149)">
            <path
               style="stroke:none"
               d="m 2.25,-1.734375 c 0.578125,-0.25 0.828125,-0.34375 1,-0.4375 0.140625,-0.046875 0.203125,-0.078125 0.203125,-0.21875 0,-0.109375 -0.09375,-0.21875 -0.21875,-0.21875 -0.046875,0 -0.0625,0 -0.140625,0.0625 L 2.140625,-1.90625 2.25,-2.9375 c 0.015625,-0.125 0,-0.296875 -0.21875,-0.296875 -0.078125,0 -0.21875,0.046875 -0.21875,0.203125 0,0.0625 0.03125,0.265625 0.046875,0.34375 0.015625,0.109375 0.0625,0.625 0.078125,0.78125 L 0.984375,-2.546875 c -0.0625,-0.03125 -0.078125,-0.0625 -0.140625,-0.0625 -0.140625,0 -0.21875,0.109375 -0.21875,0.21875 0,0.140625 0.078125,0.1875 0.140625,0.203125 L 1.8125,-1.734375 c -0.5625,0.25 -0.828125,0.34375 -1,0.421875 -0.125,0.0625 -0.1875,0.09375 -0.1875,0.21875 0,0.125 0.078125,0.21875 0.21875,0.21875 0.046875,0 0.0625,0 0.140625,-0.0625 l 0.953125,-0.625 -0.125,1.109375 c 0,0.15625 0.140625,0.21875 0.21875,0.21875 0.09375,0 0.21875,-0.0625 0.21875,-0.21875 0,-0.0625 -0.03125,-0.265625 -0.03125,-0.328125 -0.015625,-0.125 -0.0625,-0.625 -0.078125,-0.78125 L 2.96875,-1.015625 C 3.15625,-0.875 3.171875,-0.875 3.234375,-0.875 c 0.125,0 0.21875,-0.09375 0.21875,-0.21875 0,-0.140625 -0.09375,-0.171875 -0.15625,-0.203125 z m 0,0"
               id="id-080be7f7-7337-433c-a78b-d1356c86e2bb" />
          </g>
        </g>
      </g>
    </g>
    <circle
       style="fill:#000000;fill-opacity:1;stroke:#000000;stroke-width:0.36;stroke-miterlimit:4;stroke-dasharray:none;stroke-dashoffset:0"
       id="path1486"
       cx="150"
       cy="70"
       r="1" />
    <circle
       style="fill:#000000;fill-opacity:1;stroke:#000000;stroke-width:0.36;stroke-miterlimit:4;stroke-dasharray:none;stroke-dashoffset:0"
       id="path1488"
       cx="109.99999"
       cy="150"
       r="1" />
    <circle
       style="fill:#000000;fill-opacity:1;stroke:#000000;stroke-width:0.36;stroke-miterlimit:4;stroke-dasharray:none;stroke-dashoffset:0"
       id="path1490"
       cx="150"
       cy="150"
       r="1" />
    <circle
       style="fill:#000000;fill-opacity:1;stroke:#000000;stroke-width:0.36;stroke-miterlimit:4;stroke-dasharray:none;stroke-dashoffset:0"
       id="path1492"
       cx="210"
       cy="150"
       r="1" />
    <circle
       style="fill:#000000;fill-opacity:1;stroke:#000000;stroke-width:0.36;stroke-miterlimit:4;stroke-dasharray:none;stroke-dashoffset:0"
       id="path1494"
       cx="310"
       cy="150"
       r="1" />
    <g
       id="g1631"
       ns2:jacobian_sqrt="1.41111"
       ns2:inkscapeversion="1.0"
       ns2:alignment="middle center"
       ns2:scale="4.0"
       ns2:preamble="C:\\Users\\claum\\AppData\\Roaming\\inkscape\\extensions\\textext\\default_packages.tex"
       ns2:text="$\\mathbf{K}$"
       ns2:pdfconverter="inkscape"
       ns2:texconverter="pdflatex"
       ns2:version="1.0.1"
       transform="matrix(1.41111,0,0,1.41111,96.557309,138.34236)">
      <defs
         id="id-43833ff4-701f-45c9-92a1-0c28caebbab6">
        <g
           id="id-625ce3b3-e643-49b7-8f6c-f06138e6a477">
          <symbol
             overflow="visible"
             id="id-c9be86fd-5b4e-4397-b3cd-e6a2a758c1b6">
            <path
               style="stroke:none"
               d=""
               id="id-b5f0eeb4-c38b-4890-a83d-8006cfbf05c9" />
          </symbol>
          <symbol
             overflow="visible"
             id="id-c9ee02ab-b9e0-47b4-97f1-a38b44f81d74">
            <path
               style="stroke:none"
               d="M 4.828125,-4.203125 7.234375,-6.1875 c 0.21875,-0.1875 0.625,-0.1875 0.9375,-0.1875 h 0.15625 V -6.84375 C 7.9375,-6.8125 7.359375,-6.8125 7.3125,-6.8125 c -0.375,0 -1.09375,0 -1.453125,-0.03125 V -6.375 c 0.125,0 0.328125,0 0.578125,0.0625 0.15625,0.03125 0.046875,0.015625 0.125,0.046875 L 2.875,-3.1875 V -6.375 h 1.078125 v -0.46875 c -0.375,0.03125 -1.34375,0.03125 -1.78125,0.03125 -0.421875,0 -1.40625,0 -1.78125,-0.03125 V -6.375 H 1.46875 v 5.90625 H 0.390625 V 0 c 0.375,-0.03125 1.359375,-0.03125 1.78125,-0.03125 0.4375,0 1.40625,0 1.78125,0.03125 V -0.46875 H 2.875 V -2.5625 l 1,-0.828125 2.0625,2.703125 C 5.984375,-0.625 5.984375,-0.609375 6.015625,-0.546875 5.828125,-0.46875 5.625,-0.46875 5.28125,-0.46875 V 0 c 0.40625,-0.03125 1.3125,-0.03125 1.75,-0.03125 0.40625,0 1.09375,0 1.46875,0.03125 V -0.46875 H 8.203125 c -0.53125,0 -0.5625,-0.046875 -0.671875,-0.203125 z m 0,0"
               id="id-bfa71edc-2c76-4978-8023-c4ed392442e3" />
          </symbol>
        </g>
      </defs>
      <g
         id="id-b64a35ee-5af9-47a5-aec9-45dcf25fe2e2"
         transform="translate(-149.103,-127.921)">
        <g
           style="fill:#000000;fill-opacity:1"
           id="id-9cef9b7d-aa0c-4c6b-9474-e5b1c061fb14">
          <g
             id="g1627"
             transform="translate(148.712,134.765)">
            <path
               style="stroke:none"
               d="M 4.828125,-4.203125 7.234375,-6.1875 c 0.21875,-0.1875 0.625,-0.1875 0.9375,-0.1875 h 0.15625 V -6.84375 C 7.9375,-6.8125 7.359375,-6.8125 7.3125,-6.8125 c -0.375,0 -1.09375,0 -1.453125,-0.03125 V -6.375 c 0.125,0 0.328125,0 0.578125,0.0625 0.15625,0.03125 0.046875,0.015625 0.125,0.046875 L 2.875,-3.1875 V -6.375 h 1.078125 v -0.46875 c -0.375,0.03125 -1.34375,0.03125 -1.78125,0.03125 -0.421875,0 -1.40625,0 -1.78125,-0.03125 V -6.375 H 1.46875 v 5.90625 H 0.390625 V 0 c 0.375,-0.03125 1.359375,-0.03125 1.78125,-0.03125 0.4375,0 1.40625,0 1.78125,0.03125 V -0.46875 H 2.875 V -2.5625 l 1,-0.828125 2.0625,2.703125 C 5.984375,-0.625 5.984375,-0.609375 6.015625,-0.546875 5.828125,-0.46875 5.625,-0.46875 5.28125,-0.46875 V 0 c 0.40625,-0.03125 1.3125,-0.03125 1.75,-0.03125 0.40625,0 1.09375,0 1.46875,0.03125 V -0.46875 H 8.203125 c -0.53125,0 -0.5625,-0.046875 -0.671875,-0.203125 z m 0,0"
               id="id-06970c09-b1e0-4eeb-8fe9-017caafd0cd7" />
          </g>
        </g>
      </g>
    </g>
    <g
       id="g1845"
       ns2:jacobian_sqrt="1.41111"
       ns2:inkscapeversion="1.0"
       ns2:alignment="middle center"
       ns2:scale="4.0"
       ns2:preamble="C:\\Users\\claum\\AppData\\Roaming\\inkscape\\extensions\\textext\\default_packages.tex"
       ns2:text="$\\mathbf{B}$"
       ns2:pdfconverter="inkscape"
       ns2:texconverter="pdflatex"
       ns2:version="1.0.1"
       transform="matrix(1.41111,0,0,1.41111,137.262,138.342)">
      <defs
         id="id-89b96aa5-ca90-44fb-8297-fdad110f899e">
        <g
           id="id-66073b1a-b303-46dc-bc3d-33b49cadeba9">
          <symbol
             overflow="visible"
             id="id-4565d16e-a076-42fe-9d5c-abcb05629677">
            <path
               style="stroke:none"
               d=""
               id="id-788af692-ff86-4371-af6b-d4e69a9414af" />
          </symbol>
          <symbol
             overflow="visible"
             id="id-5985acf7-f2b9-40ab-b583-4cee5d5f5448">
            <path
               style="stroke:none"
               d="M 2.765625,-3.734375 V -6.375 h 1.8125 c 1.015625,0 1.1875,0.796875 1.1875,1.25 0,0.765625 -0.46875,1.390625 -1.4375,1.390625 z M 5.46875,-3.5625 C 6.546875,-3.765625 7.1875,-4.359375 7.1875,-5.125 c 0,-0.921875 -0.875,-1.71875 -2.46875,-1.71875 H 0.390625 V -6.375 H 1.46875 v 5.90625 H 0.390625 V 0 h 4.625 C 6.671875,0 7.5,-0.875 7.5,-1.859375 7.5,-2.8125 6.65625,-3.484375 5.46875,-3.5625 Z M 4.609375,-0.46875 H 2.765625 V -3.375 h 1.9375 c 0.203125,0 0.671875,0 1.015625,0.421875 0.328125,0.421875 0.328125,0.984375 0.328125,1.09375 0,0.109375 0,1.390625 -1.4375,1.390625 z m 0,0"
               id="id-017d9f84-4511-42e7-abed-4cf70c270e8b" />
          </symbol>
        </g>
      </defs>
      <g
         id="id-6a182cfc-ad61-4268-8729-a33906891caa"
         transform="translate(-149.103,-127.921)">
        <g
           style="fill:#000000;fill-opacity:1"
           id="id-abe197df-87a3-4e6f-aaa8-7d3e925d2a97">
          <g
             id="g1841"
             transform="translate(148.712,134.765)">
            <path
               style="stroke:none"
               d="M 2.765625,-3.734375 V -6.375 h 1.8125 c 1.015625,0 1.1875,0.796875 1.1875,1.25 0,0.765625 -0.46875,1.390625 -1.4375,1.390625 z M 5.46875,-3.5625 C 6.546875,-3.765625 7.1875,-4.359375 7.1875,-5.125 c 0,-0.921875 -0.875,-1.71875 -2.46875,-1.71875 H 0.390625 V -6.375 H 1.46875 v 5.90625 H 0.390625 V 0 h 4.625 C 6.671875,0 7.5,-0.875 7.5,-1.859375 7.5,-2.8125 6.65625,-3.484375 5.46875,-3.5625 Z M 4.609375,-0.46875 H 2.765625 V -3.375 h 1.9375 c 0.203125,0 0.671875,0 1.015625,0.421875 0.328125,0.421875 0.328125,0.984375 0.328125,1.09375 0,0.109375 0,1.390625 -1.4375,1.390625 z m 0,0"
               id="id-181350da-efe0-4731-8735-00cced645771" />
          </g>
        </g>
      </g>
    </g>
    <g
       id="g1993"
       ns2:jacobian_sqrt="1.41111"
       ns2:inkscapeversion="1.0"
       ns2:alignment="middle center"
       ns2:scale="4.0"
       ns2:preamble="C:\\Users\\claum\\AppData\\Roaming\\inkscape\\extensions\\textext\\default_packages.tex"
       ns2:text="$\\mathbf{C}$"
       ns2:pdfconverter="inkscape"
       ns2:texconverter="pdflatex"
       ns2:version="1.0.1"
       transform="matrix(1.41111,0,0,1.41111,213.783,138.188)">
      <defs
         id="id-c1306037-d1ab-466b-8468-0384504e29ad">
        <g
           id="id-ef367682-2b88-493c-bdc3-720fbf749f9a">
          <symbol
             overflow="visible"
             id="id-b4f201c1-dc28-4738-a5c0-c972541cea27">
            <path
               style="stroke:none"
               d=""
               id="id-b29263d1-afad-4195-ac99-e0f48b97d0cc" />
          </symbol>
          <symbol
             overflow="visible"
             id="id-45b447f8-4810-4fae-a4cd-d022cf40e715">
            <path
               style="stroke:none"
               d="m 7.640625,-6.671875 c 0,-0.1875 0,-0.28125 -0.1875,-0.28125 -0.09375,0 -0.109375,0.03125 -0.1875,0.09375 l -0.65625,0.59375 c -0.625,-0.5 -1.28125,-0.6875 -1.96875,-0.6875 -2.484375,0 -4,1.484375 -4,3.53125 0,2.046875 1.515625,3.53125 4,3.53125 1.875,0 3,-1.21875 3,-2.375 0,-0.203125 -0.078125,-0.203125 -0.25,-0.203125 -0.125,0 -0.21875,0 -0.21875,0.171875 -0.078125,1.328125 -1.28125,1.9375 -2.28125,1.9375 -0.78125,0 -1.625,-0.234375 -2.140625,-0.84375 -0.46875,-0.578125 -0.59375,-1.3125 -0.59375,-2.21875 0,-0.5625 0.03125,-1.625 0.671875,-2.296875 0.640625,-0.65625 1.515625,-0.765625 2.03125,-0.765625 1.078125,0 2.015625,0.765625 2.234375,2.03125 C 7.125,-4.265625 7.140625,-4.25 7.359375,-4.25 c 0.265625,0 0.28125,-0.015625 0.28125,-0.28125 z m 0,0"
               id="id-47508a1c-232b-4eb1-afa9-12b13e9fad41" />
          </symbol>
        </g>
      </defs>
      <g
         id="id-74da0f7e-6eb0-4d49-ad92-d9cff8d21a90"
         transform="translate(-149.353,-127.812)">
        <g
           style="fill:#000000;fill-opacity:1"
           id="id-91d94579-a484-430d-b615-c979a85df238">
          <g
             id="g1989"
             transform="translate(148.712,134.765)">
            <path
               style="stroke:none"
               d="m 7.640625,-6.671875 c 0,-0.1875 0,-0.28125 -0.1875,-0.28125 -0.09375,0 -0.109375,0.03125 -0.1875,0.09375 l -0.65625,0.59375 c -0.625,-0.5 -1.28125,-0.6875 -1.96875,-0.6875 -2.484375,0 -4,1.484375 -4,3.53125 0,2.046875 1.515625,3.53125 4,3.53125 1.875,0 3,-1.21875 3,-2.375 0,-0.203125 -0.078125,-0.203125 -0.25,-0.203125 -0.125,0 -0.21875,0 -0.21875,0.171875 -0.078125,1.328125 -1.28125,1.9375 -2.28125,1.9375 -0.78125,0 -1.625,-0.234375 -2.140625,-0.84375 -0.46875,-0.578125 -0.59375,-1.3125 -0.59375,-2.21875 0,-0.5625 0.03125,-1.625 0.671875,-2.296875 0.640625,-0.65625 1.515625,-0.765625 2.03125,-0.765625 1.078125,0 2.015625,0.765625 2.234375,2.03125 C 7.125,-4.265625 7.140625,-4.25 7.359375,-4.25 c 0.265625,0 0.28125,-0.015625 0.28125,-0.28125 z m 0,0"
               id="id-0965fe40-f8fa-4986-8ef6-dd136bf3a9b1" />
          </g>
        </g>
      </g>
    </g>
    <g
       id="g2141"
       ns2:jacobian_sqrt="1.41111"
       ns2:inkscapeversion="1.0"
       ns2:alignment="middle center"
       ns2:scale="4.0"
       ns2:preamble="C:\\Users\\claum\\AppData\\Roaming\\inkscape\\extensions\\textext\\default_packages.tex"
       ns2:text="$\\mathbf{H}$"
       ns2:pdfconverter="inkscape"
       ns2:texconverter="pdflatex"
       ns2:version="1.0.1"
       transform="matrix(1.41111,0,0,1.41111,313.945,138.342)">
      <defs
         id="id-1c2616e3-5b4f-40f6-8233-833a3446833c">
        <g
           id="id-871ffc10-70fa-427d-a4c2-8296438eb4f3">
          <symbol
             overflow="visible"
             id="id-1a61dd27-a07a-4fb8-a5c7-18463f16e98a">
            <path
               style="stroke:none"
               d=""
               id="id-a50cd7b1-5eee-4e03-a171-cbc481cca58c" />
          </symbol>
          <symbol
             overflow="visible"
             id="id-b9076fe4-abbb-4e67-a864-58463647e37e">
            <path
               style="stroke:none"
               d="M 7.5,-6.375 H 8.578125 V -6.84375 C 8.1875,-6.8125 7.21875,-6.8125 6.78125,-6.8125 c -0.421875,0 -1.390625,0 -1.78125,-0.03125 V -6.375 h 1.078125 v 2.59375 H 2.875 V -6.375 h 1.078125 v -0.46875 c -0.375,0.03125 -1.34375,0.03125 -1.78125,0.03125 -0.421875,0 -1.40625,0 -1.78125,-0.03125 V -6.375 H 1.46875 v 5.90625 H 0.390625 V 0 c 0.375,-0.03125 1.359375,-0.03125 1.78125,-0.03125 0.4375,0 1.40625,0 1.78125,0.03125 V -0.46875 H 2.875 V -3.3125 h 3.203125 v 2.84375 H 5 V 0 c 0.390625,-0.03125 1.359375,-0.03125 1.78125,-0.03125 0.4375,0 1.40625,0 1.796875,0.03125 V -0.46875 H 7.5 Z m 0,0"
               id="id-4c376591-533e-47a8-b93f-f778b2aebcaa" />
          </symbol>
        </g>
      </defs>
      <g
         id="id-84e32617-411a-407a-ade6-8b513cd36d47"
         transform="translate(-149.103,-127.921)">
        <g
           style="fill:#000000;fill-opacity:1"
           id="id-b0bae2e0-b1ed-4c1c-b7e3-b0fabc982fa4">
          <g
             id="g2137"
             transform="translate(148.712,134.765)">
            <path
               style="stroke:none"
               d="M 7.5,-6.375 H 8.578125 V -6.84375 C 8.1875,-6.8125 7.21875,-6.8125 6.78125,-6.8125 c -0.421875,0 -1.390625,0 -1.78125,-0.03125 V -6.375 h 1.078125 v 2.59375 H 2.875 V -6.375 h 1.078125 v -0.46875 c -0.375,0.03125 -1.34375,0.03125 -1.78125,0.03125 -0.421875,0 -1.40625,0 -1.78125,-0.03125 V -6.375 H 1.46875 v 5.90625 H 0.390625 V 0 c 0.375,-0.03125 1.359375,-0.03125 1.78125,-0.03125 0.4375,0 1.40625,0 1.78125,0.03125 V -0.46875 H 2.875 V -3.3125 h 3.203125 v 2.84375 H 5 V 0 c 0.390625,-0.03125 1.359375,-0.03125 1.78125,-0.03125 0.4375,0 1.40625,0 1.796875,0.03125 V -0.46875 H 7.5 Z m 0,0"
               id="id-7247bd2b-fa88-483c-a7ed-2823ab75b0c0" />
          </g>
        </g>
      </g>
    </g>
    <g
       id="g2350"
       ns2:jacobian_sqrt="1.41111"
       ns2:inkscapeversion="1.0"
       ns2:alignment="middle center"
       ns2:scale="4.0"
       ns2:preamble="C:\\Users\\claum\\AppData\\Roaming\\inkscape\\extensions\\textext\\default_packages.tex"
       ns2:text="$I_{rs}$"
       ns2:pdfconverter="inkscape"
       ns2:texconverter="pdflatex"
       ns2:version="1.0.1"
       transform="matrix(1.41111,0,0,1.41111,10.7431,12.0331)">
      <defs
         id="id-f3ce9e4f-ea6a-4a4d-b3c9-72f55abffc36">
        <g
           id="id-9a11e010-0086-4152-bc7d-2f4fc226ce94">
          <symbol
             overflow="visible"
             id="id-0a121049-c07e-403b-9a0d-e7ba2f4e3057">
            <path
               style="stroke:none"
               d=""
               id="id-5d4e14de-d58a-43fb-a97d-7f360ea0400c" />
          </symbol>
          <symbol
             overflow="visible"
             id="id-5cf7985c-2c3b-425e-8596-c2f0c33c9f7a">
            <path
               style="stroke:none"
               d="M 3.734375,-6.046875 C 3.8125,-6.40625 3.84375,-6.5 4.640625,-6.5 c 0.234375,0 0.3125,0 0.3125,-0.1875 0,-0.125 -0.109375,-0.125 -0.140625,-0.125 -0.296875,0 -1.03125,0.03125 -1.328125,0.03125 -0.296875,0 -1.015625,-0.03125 -1.328125,-0.03125 -0.0625,0 -0.1875,0 -0.1875,0.203125 C 1.96875,-6.5 2.046875,-6.5 2.25,-6.5 c 0.40625,0 0.6875,0 0.6875,0.1875 0,0.046875 0,0.078125 -0.03125,0.15625 l -1.34375,5.375 c -0.09375,0.375 -0.109375,0.46875 -0.90625,0.46875 -0.234375,0 -0.3125,0 -0.3125,0.203125 C 0.34375,0 0.453125,0 0.484375,0 0.78125,0 1.5,-0.03125 1.796875,-0.03125 2.09375,-0.03125 2.828125,0 3.125,0 c 0.078125,0 0.203125,0 0.203125,-0.1875 0,-0.125 -0.078125,-0.125 -0.296875,-0.125 -0.1875,0 -0.234375,0 -0.421875,-0.015625 -0.21875,-0.015625 -0.25,-0.0625 -0.25,-0.171875 0,-0.078125 0.015625,-0.15625 0.03125,-0.234375 z m 0,0"
               id="id-c1303d5d-f63c-4ea2-8662-56a09fe181da" />
          </symbol>
          <symbol
             overflow="visible"
             id="id-fea9f818-2f2f-44a9-a3fb-b10a09576d69">
            <path
               style="stroke:none"
               d=""
               id="id-72b66575-1cfe-44e2-9460-860c2427b1de" />
          </symbol>
          <symbol
             overflow="visible"
             id="id-808f5941-421e-4f4d-a55e-8f60ce702f20">
            <path
               style="stroke:none"
               d="m 1.640625,-1.40625 c 0,-0.046875 0.171875,-0.671875 0.171875,-0.703125 0.015625,-0.0625 0.21875,-0.40625 0.453125,-0.578125 0.0625,-0.046875 0.25,-0.1875 0.5625,-0.1875 0.0625,0 0.234375,0 0.375,0.09375 -0.21875,0.0625 -0.296875,0.265625 -0.296875,0.390625 0,0.140625 0.109375,0.25 0.265625,0.25 0.171875,0 0.390625,-0.125 0.390625,-0.421875 0,-0.359375 -0.375,-0.515625 -0.734375,-0.515625 -0.359375,0 -0.671875,0.15625 -0.984375,0.5 -0.125,-0.421875 -0.546875,-0.5 -0.71875,-0.5 -0.25,0 -0.421875,0.171875 -0.546875,0.359375 -0.15625,0.265625 -0.25,0.671875 -0.25,0.71875 0,0.078125 0.09375,0.078125 0.125,0.078125 0.09375,0 0.09375,-0.015625 0.140625,-0.203125 0.109375,-0.421875 0.25,-0.75 0.515625,-0.75 0.1875,0 0.234375,0.15625 0.234375,0.34375 0,0.125 -0.0625,0.390625 -0.125,0.578125 -0.046875,0.1875 -0.109375,0.46875 -0.140625,0.625 L 0.84375,-0.4375 C 0.828125,-0.34375 0.78125,-0.171875 0.78125,-0.15625 0.78125,0 0.90625,0.0625 1.015625,0.0625 1.125,0.0625 1.265625,0 1.3125,-0.125 1.328125,-0.171875 1.40625,-0.484375 1.453125,-0.65625 Z m 0,0"
               id="id-937d666b-039a-41f3-bf97-bf885f934233" />
          </symbol>
          <symbol
             overflow="visible"
             id="id-cf00fd83-d669-47ef-943d-dff240b5ce3e">
            <path
               style="stroke:none"
               d="m 3,-2.625 c -0.171875,0.046875 -0.296875,0.1875 -0.296875,0.328125 0,0.171875 0.140625,0.234375 0.234375,0.234375 0.078125,0 0.34375,-0.046875 0.34375,-0.40625 0,-0.453125 -0.5,-0.609375 -0.9375,-0.609375 -1.078125,0 -1.28125,0.8125 -1.28125,1.015625 0,0.265625 0.15625,0.4375 0.25,0.515625 0.171875,0.140625 0.296875,0.171875 0.78125,0.25 0.15625,0.03125 0.59375,0.109375 0.59375,0.453125 0,0.125 -0.078125,0.390625 -0.359375,0.5625 C 2.046875,-0.125 1.703125,-0.125 1.625,-0.125 1.34375,-0.125 0.953125,-0.1875 0.78125,-0.421875 1.015625,-0.453125 1.171875,-0.625 1.171875,-0.8125 c 0,-0.171875 -0.125,-0.265625 -0.265625,-0.265625 -0.203125,0 -0.40625,0.171875 -0.40625,0.46875 0,0.421875 0.4375,0.671875 1.109375,0.671875 1.296875,0 1.53125,-0.875 1.53125,-1.140625 0,-0.640625 -0.703125,-0.765625 -0.96875,-0.8125 -0.0625,-0.015625 -0.234375,-0.046875 -0.28125,-0.0625 -0.25,-0.046875 -0.375,-0.1875 -0.375,-0.34375 0,-0.15625 0.125,-0.34375 0.28125,-0.453125 0.1875,-0.109375 0.421875,-0.125 0.546875,-0.125 0.140625,0 0.5,0.015625 0.65625,0.25 z m 0,0"
               id="id-9a75120a-97db-445d-b4e4-e0473b4f45e2" />
          </symbol>
        </g>
      </defs>
      <g
         id="id-56897e62-608a-4383-9293-95e272126f8d"
         transform="translate(-149.056,-127.953)">
        <g
           style="fill:#000000;fill-opacity:1"
           id="id-7defc1db-f622-4c89-852e-e151fc7368e3">
          <g
             id="g2338"
             transform="translate(148.712,134.765)">
            <path
               style="stroke:none"
               d="M 3.734375,-6.046875 C 3.8125,-6.40625 3.84375,-6.5 4.640625,-6.5 c 0.234375,0 0.3125,0 0.3125,-0.1875 0,-0.125 -0.109375,-0.125 -0.140625,-0.125 -0.296875,0 -1.03125,0.03125 -1.328125,0.03125 -0.296875,0 -1.015625,-0.03125 -1.328125,-0.03125 -0.0625,0 -0.1875,0 -0.1875,0.203125 C 1.96875,-6.5 2.046875,-6.5 2.25,-6.5 c 0.40625,0 0.6875,0 0.6875,0.1875 0,0.046875 0,0.078125 -0.03125,0.15625 l -1.34375,5.375 c -0.09375,0.375 -0.109375,0.46875 -0.90625,0.46875 -0.234375,0 -0.3125,0 -0.3125,0.203125 C 0.34375,0 0.453125,0 0.484375,0 0.78125,0 1.5,-0.03125 1.796875,-0.03125 2.09375,-0.03125 2.828125,0 3.125,0 c 0.078125,0 0.203125,0 0.203125,-0.1875 0,-0.125 -0.078125,-0.125 -0.296875,-0.125 -0.1875,0 -0.234375,0 -0.421875,-0.015625 -0.21875,-0.015625 -0.25,-0.0625 -0.25,-0.171875 0,-0.078125 0.015625,-0.15625 0.03125,-0.234375 z m 0,0"
               id="id-7f1784a3-c2a9-4b03-a5de-1df90ed7bd32" />
          </g>
        </g>
        <g
           style="fill:#000000;fill-opacity:1"
           id="id-cb245b17-88cc-47c3-a97d-5fff36388483">
          <g
             id="g2342"
             transform="translate(153.092,136.259)">
            <path
               style="stroke:none"
               d="m 1.640625,-1.40625 c 0,-0.046875 0.171875,-0.671875 0.171875,-0.703125 0.015625,-0.0625 0.21875,-0.40625 0.453125,-0.578125 0.0625,-0.046875 0.25,-0.1875 0.5625,-0.1875 0.0625,0 0.234375,0 0.375,0.09375 -0.21875,0.0625 -0.296875,0.265625 -0.296875,0.390625 0,0.140625 0.109375,0.25 0.265625,0.25 0.171875,0 0.390625,-0.125 0.390625,-0.421875 0,-0.359375 -0.375,-0.515625 -0.734375,-0.515625 -0.359375,0 -0.671875,0.15625 -0.984375,0.5 -0.125,-0.421875 -0.546875,-0.5 -0.71875,-0.5 -0.25,0 -0.421875,0.171875 -0.546875,0.359375 -0.15625,0.265625 -0.25,0.671875 -0.25,0.71875 0,0.078125 0.09375,0.078125 0.125,0.078125 0.09375,0 0.09375,-0.015625 0.140625,-0.203125 0.109375,-0.421875 0.25,-0.75 0.515625,-0.75 0.1875,0 0.234375,0.15625 0.234375,0.34375 0,0.125 -0.0625,0.390625 -0.125,0.578125 -0.046875,0.1875 -0.109375,0.46875 -0.140625,0.625 L 0.84375,-0.4375 C 0.828125,-0.34375 0.78125,-0.171875 0.78125,-0.15625 0.78125,0 0.90625,0.0625 1.015625,0.0625 1.125,0.0625 1.265625,0 1.3125,-0.125 1.328125,-0.171875 1.40625,-0.484375 1.453125,-0.65625 Z m 0,0"
               id="id-48251135-4a24-4223-a685-e387cd8187ef" />
          </g>
        </g>
        <g
           style="fill:#000000;fill-opacity:1"
           id="id-575839b0-4fd6-49fb-b280-9303330da0dd">
          <g
             id="g2346"
             transform="translate(157.007,136.259)">
            <path
               style="stroke:none"
               d="m 3,-2.625 c -0.171875,0.046875 -0.296875,0.1875 -0.296875,0.328125 0,0.171875 0.140625,0.234375 0.234375,0.234375 0.078125,0 0.34375,-0.046875 0.34375,-0.40625 0,-0.453125 -0.5,-0.609375 -0.9375,-0.609375 -1.078125,0 -1.28125,0.8125 -1.28125,1.015625 0,0.265625 0.15625,0.4375 0.25,0.515625 0.171875,0.140625 0.296875,0.171875 0.78125,0.25 0.15625,0.03125 0.59375,0.109375 0.59375,0.453125 0,0.125 -0.078125,0.390625 -0.359375,0.5625 C 2.046875,-0.125 1.703125,-0.125 1.625,-0.125 1.34375,-0.125 0.953125,-0.1875 0.78125,-0.421875 1.015625,-0.453125 1.171875,-0.625 1.171875,-0.8125 c 0,-0.171875 -0.125,-0.265625 -0.265625,-0.265625 -0.203125,0 -0.40625,0.171875 -0.40625,0.46875 0,0.421875 0.4375,0.671875 1.109375,0.671875 1.296875,0 1.53125,-0.875 1.53125,-1.140625 0,-0.640625 -0.703125,-0.765625 -0.96875,-0.8125 -0.0625,-0.015625 -0.234375,-0.046875 -0.28125,-0.0625 -0.25,-0.046875 -0.375,-0.1875 -0.375,-0.34375 0,-0.15625 0.125,-0.34375 0.28125,-0.453125 0.1875,-0.109375 0.421875,-0.125 0.546875,-0.125 0.140625,0 0.5,0.015625 0.65625,0.25 z m 0,0"
               id="id-a3bdc864-a058-4339-9ead-5cde6db772f4" />
          </g>
        </g>
      </g>
    </g>
    <g
       id="g2598"
       ns2:jacobian_sqrt="1.41111"
       ns2:inkscapeversion="1.0"
       ns2:alignment="middle center"
       ns2:scale="4.0"
       ns2:preamble="C:\\Users\\claum\\AppData\\Roaming\\inkscape\\extensions\\textext\\default_packages.tex"
       ns2:text="$I_{r}$"
       ns2:pdfconverter="inkscape"
       ns2:texconverter="pdflatex"
       ns2:version="1.0.1"
       transform="matrix(1.41111,0,0,1.41111,402.779,153.919)">
      <defs
         id="id-ce65839a-1665-4bf3-944b-812d8dc642b4">
        <g
           id="id-ad0e7e94-2270-4250-ab58-d001122dbe6d">
          <symbol
             overflow="visible"
             id="id-37c69c64-cb07-4f35-a87a-adfb4f284ae3">
            <path
               style="stroke:none"
               d=""
               id="id-1e94835c-9a70-429b-9dd1-f2bd0b898077" />
          </symbol>
          <symbol
             overflow="visible"
             id="id-276d8f8f-5ae8-4a64-b4e7-cdf96549312c">
            <path
               style="stroke:none"
               d="M 3.734375,-6.046875 C 3.8125,-6.40625 3.84375,-6.5 4.640625,-6.5 c 0.234375,0 0.3125,0 0.3125,-0.1875 0,-0.125 -0.109375,-0.125 -0.140625,-0.125 -0.296875,0 -1.03125,0.03125 -1.328125,0.03125 -0.296875,0 -1.015625,-0.03125 -1.328125,-0.03125 -0.0625,0 -0.1875,0 -0.1875,0.203125 C 1.96875,-6.5 2.046875,-6.5 2.25,-6.5 c 0.40625,0 0.6875,0 0.6875,0.1875 0,0.046875 0,0.078125 -0.03125,0.15625 l -1.34375,5.375 c -0.09375,0.375 -0.109375,0.46875 -0.90625,0.46875 -0.234375,0 -0.3125,0 -0.3125,0.203125 C 0.34375,0 0.453125,0 0.484375,0 0.78125,0 1.5,-0.03125 1.796875,-0.03125 2.09375,-0.03125 2.828125,0 3.125,0 c 0.078125,0 0.203125,0 0.203125,-0.1875 0,-0.125 -0.078125,-0.125 -0.296875,-0.125 -0.1875,0 -0.234375,0 -0.421875,-0.015625 -0.21875,-0.015625 -0.25,-0.0625 -0.25,-0.171875 0,-0.078125 0.015625,-0.15625 0.03125,-0.234375 z m 0,0"
               id="id-4f9b33b9-2c2f-4573-93d4-704004a34452" />
          </symbol>
          <symbol
             overflow="visible"
             id="id-178b4252-cdf1-4ff1-9e9a-9f828e9d338d">
            <path
               style="stroke:none"
               d=""
               id="id-a9b6b08a-3f81-42ea-ba59-bdce5d648854" />
          </symbol>
          <symbol
             overflow="visible"
             id="id-63a0bc25-6fdd-4312-8312-fb40ebb21d71">
            <path
               style="stroke:none"
               d="m 1.640625,-1.40625 c 0,-0.046875 0.171875,-0.671875 0.171875,-0.703125 0.015625,-0.0625 0.21875,-0.40625 0.453125,-0.578125 0.0625,-0.046875 0.25,-0.1875 0.5625,-0.1875 0.0625,0 0.234375,0 0.375,0.09375 -0.21875,0.0625 -0.296875,0.265625 -0.296875,0.390625 0,0.140625 0.109375,0.25 0.265625,0.25 0.171875,0 0.390625,-0.125 0.390625,-0.421875 0,-0.359375 -0.375,-0.515625 -0.734375,-0.515625 -0.359375,0 -0.671875,0.15625 -0.984375,0.5 -0.125,-0.421875 -0.546875,-0.5 -0.71875,-0.5 -0.25,0 -0.421875,0.171875 -0.546875,0.359375 -0.15625,0.265625 -0.25,0.671875 -0.25,0.71875 0,0.078125 0.09375,0.078125 0.125,0.078125 0.09375,0 0.09375,-0.015625 0.140625,-0.203125 0.109375,-0.421875 0.25,-0.75 0.515625,-0.75 0.1875,0 0.234375,0.15625 0.234375,0.34375 0,0.125 -0.0625,0.390625 -0.125,0.578125 -0.046875,0.1875 -0.109375,0.46875 -0.140625,0.625 L 0.84375,-0.4375 C 0.828125,-0.34375 0.78125,-0.171875 0.78125,-0.15625 0.78125,0 0.90625,0.0625 1.015625,0.0625 1.125,0.0625 1.265625,0 1.3125,-0.125 1.328125,-0.171875 1.40625,-0.484375 1.453125,-0.65625 Z m 0,0"
               id="id-ec697ab9-d777-4f58-825d-68e936294ba9" />
          </symbol>
        </g>
      </defs>
      <g
         id="id-c4bbb790-7577-4d17-b11e-50a5cc3f083b"
         transform="translate(-149.056,-127.953)">
        <g
           style="fill:#000000;fill-opacity:1"
           id="id-ae717eef-0f61-4636-9f14-41d280e2c380">
          <g
             id="g2590"
             transform="translate(148.712,134.765)">
            <path
               style="stroke:none"
               d="M 3.734375,-6.046875 C 3.8125,-6.40625 3.84375,-6.5 4.640625,-6.5 c 0.234375,0 0.3125,0 0.3125,-0.1875 0,-0.125 -0.109375,-0.125 -0.140625,-0.125 -0.296875,0 -1.03125,0.03125 -1.328125,0.03125 -0.296875,0 -1.015625,-0.03125 -1.328125,-0.03125 -0.0625,0 -0.1875,0 -0.1875,0.203125 C 1.96875,-6.5 2.046875,-6.5 2.25,-6.5 c 0.40625,0 0.6875,0 0.6875,0.1875 0,0.046875 0,0.078125 -0.03125,0.15625 l -1.34375,5.375 c -0.09375,0.375 -0.109375,0.46875 -0.90625,0.46875 -0.234375,0 -0.3125,0 -0.3125,0.203125 C 0.34375,0 0.453125,0 0.484375,0 0.78125,0 1.5,-0.03125 1.796875,-0.03125 2.09375,-0.03125 2.828125,0 3.125,0 c 0.078125,0 0.203125,0 0.203125,-0.1875 0,-0.125 -0.078125,-0.125 -0.296875,-0.125 -0.1875,0 -0.234375,0 -0.421875,-0.015625 -0.21875,-0.015625 -0.25,-0.0625 -0.25,-0.171875 0,-0.078125 0.015625,-0.15625 0.03125,-0.234375 z m 0,0"
               id="id-20823d4a-3872-4dec-9938-e027f8b3b491" />
          </g>
        </g>
        <g
           style="fill:#000000;fill-opacity:1"
           id="id-0896c246-92d7-49f6-8b1f-660f08a054dd">
          <g
             id="g2594"
             transform="translate(153.092,136.259)">
            <path
               style="stroke:none"
               d="m 1.640625,-1.40625 c 0,-0.046875 0.171875,-0.671875 0.171875,-0.703125 0.015625,-0.0625 0.21875,-0.40625 0.453125,-0.578125 0.0625,-0.046875 0.25,-0.1875 0.5625,-0.1875 0.0625,0 0.234375,0 0.375,0.09375 -0.21875,0.0625 -0.296875,0.265625 -0.296875,0.390625 0,0.140625 0.109375,0.25 0.265625,0.25 0.171875,0 0.390625,-0.125 0.390625,-0.421875 0,-0.359375 -0.375,-0.515625 -0.734375,-0.515625 -0.359375,0 -0.671875,0.15625 -0.984375,0.5 -0.125,-0.421875 -0.546875,-0.5 -0.71875,-0.5 -0.25,0 -0.421875,0.171875 -0.546875,0.359375 -0.15625,0.265625 -0.25,0.671875 -0.25,0.71875 0,0.078125 0.09375,0.078125 0.125,0.078125 0.09375,0 0.09375,-0.015625 0.140625,-0.203125 0.109375,-0.421875 0.25,-0.75 0.515625,-0.75 0.1875,0 0.234375,0.15625 0.234375,0.34375 0,0.125 -0.0625,0.390625 -0.125,0.578125 -0.046875,0.1875 -0.109375,0.46875 -0.140625,0.625 L 0.84375,-0.4375 C 0.828125,-0.34375 0.78125,-0.171875 0.78125,-0.15625 0.78125,0 0.90625,0.0625 1.015625,0.0625 1.125,0.0625 1.265625,0 1.3125,-0.125 1.328125,-0.171875 1.40625,-0.484375 1.453125,-0.65625 Z m 0,0"
               id="id-8e38ab8f-5473-4c71-9532-a3e5a8990098" />
          </g>
        </g>
      </g>
    </g>
    <path
       style="fill:none;fill-opacity:1;stroke:#000000;stroke-width:0.36;stroke-miterlimit:4;stroke-dasharray:none;stroke-dashoffset:0"
       id="path2621"
       sodipodi:type="arc"
       sodipodi:cx="310"
       sodipodi:cy="150.00294"
       sodipodi:rx="30.000002"
       sodipodi:ry="30"
       sodipodi:start="0"
       sodipodi:end="0.4657181"
       sodipodi:open="true"
       sodipodi:arc-type="arc"
       d="m 340,150.00294 a 30.000002,30 0 0 1 -3.19502,13.47194" />
    <g
       id="g2808"
       ns2:jacobian_sqrt="1.41111"
       ns2:inkscapeversion="1.0"
       ns2:alignment="middle center"
       ns2:scale="4.0"
       ns2:preamble="C:\\Users\\claum\\AppData\\Roaming\\inkscape\\extensions\\textext\\default_packages.tex"
       ns2:text="$\\eta$"
       ns2:pdfconverter="inkscape"
       ns2:texconverter="pdflatex"
       ns2:version="1.0.1"
       transform="matrix(1.41111,0,0,1.41111,87.561987,168.68525)">
      <defs
         id="id-7891c3b3-3cbb-433d-8ade-76b080df82fa">
        <g
           id="id-6ff5ffb5-18a1-4a8f-b970-daa3adc0dce1">
          <symbol
             overflow="visible"
             id="id-211f1673-97b7-46c0-b8f1-fc3280093894">
            <path
               style="stroke:none"
               d=""
               id="id-73afe616-c3d4-495a-9f18-a3742e6e71eb" />
          </symbol>
          <symbol
             overflow="visible"
             id="id-a837224d-afd6-426b-9572-6e9e1b731d64">
            <path
               style="stroke:none"
               d="M 4.859375,-2.765625 C 4.921875,-2.9375 4.9375,-3.078125 4.9375,-3.34375 c 0,-0.640625 -0.390625,-1.0625 -1.140625,-1.0625 -0.78125,0 -1.296875,0.515625 -1.546875,0.875 -0.046875,-0.578125 -0.46875,-0.875 -0.921875,-0.875 -0.453125,0 -0.640625,0.390625 -0.734375,0.5625 C 0.421875,-3.5 0.296875,-2.90625 0.296875,-2.875 c 0,0.109375 0.09375,0.109375 0.109375,0.109375 0.109375,0 0.109375,-0.015625 0.171875,-0.234375 0.171875,-0.703125 0.375,-1.1875 0.734375,-1.1875 0.15625,0 0.296875,0.078125 0.296875,0.453125 0,0.21875 -0.03125,0.328125 -0.15625,0.84375 L 0.875,-0.59375 c -0.03125,0.15625 -0.09375,0.390625 -0.09375,0.4375 0,0.171875 0.140625,0.265625 0.296875,0.265625 0.125,0 0.296875,-0.078125 0.375,-0.28125 0,-0.015625 0.125,-0.484375 0.1875,-0.734375 l 0.21875,-0.890625 C 1.90625,-2.03125 1.96875,-2.25 2.03125,-2.46875 2.046875,-2.53125 2.125,-2.859375 2.140625,-2.921875 2.15625,-3.015625 2.46875,-3.5625 2.8125,-3.84375 3.03125,-4 3.34375,-4.1875 3.765625,-4.1875 c 0.4375,0 0.546875,0.34375 0.546875,0.703125 0,0.046875 0,0.21875 -0.109375,0.625 l -1.125,4.578125 c -0.03125,0.125 -0.03125,0.140625 -0.03125,0.171875 0,0.140625 0.109375,0.265625 0.265625,0.265625 0.3125,0 0.390625,-0.296875 0.421875,-0.40625 z m 0,0"
               id="id-92b55358-6438-4761-8b93-2d649d7a28ba" />
          </symbol>
        </g>
      </defs>
      <g
         id="id-07b8ddee-3216-4452-8be1-d2824d381777"
         transform="translate(-149.009,-130.359)">
        <g
           style="fill:#000000;fill-opacity:1"
           id="id-851cb02a-1dd2-40c3-8e09-16139d198f11">
          <g
             id="g2804"
             transform="translate(148.712,134.765)">
            <path
               style="stroke:none"
               d="M 4.859375,-2.765625 C 4.921875,-2.9375 4.9375,-3.078125 4.9375,-3.34375 c 0,-0.640625 -0.390625,-1.0625 -1.140625,-1.0625 -0.78125,0 -1.296875,0.515625 -1.546875,0.875 -0.046875,-0.578125 -0.46875,-0.875 -0.921875,-0.875 -0.453125,0 -0.640625,0.390625 -0.734375,0.5625 C 0.421875,-3.5 0.296875,-2.90625 0.296875,-2.875 c 0,0.109375 0.09375,0.109375 0.109375,0.109375 0.109375,0 0.109375,-0.015625 0.171875,-0.234375 0.171875,-0.703125 0.375,-1.1875 0.734375,-1.1875 0.15625,0 0.296875,0.078125 0.296875,0.453125 0,0.21875 -0.03125,0.328125 -0.15625,0.84375 L 0.875,-0.59375 c -0.03125,0.15625 -0.09375,0.390625 -0.09375,0.4375 0,0.171875 0.140625,0.265625 0.296875,0.265625 0.125,0 0.296875,-0.078125 0.375,-0.28125 0,-0.015625 0.125,-0.484375 0.1875,-0.734375 l 0.21875,-0.890625 C 1.90625,-2.03125 1.96875,-2.25 2.03125,-2.46875 2.046875,-2.53125 2.125,-2.859375 2.140625,-2.921875 2.15625,-3.015625 2.46875,-3.5625 2.8125,-3.84375 3.03125,-4 3.34375,-4.1875 3.765625,-4.1875 c 0.4375,0 0.546875,0.34375 0.546875,0.703125 0,0.046875 0,0.21875 -0.109375,0.625 l -1.125,4.578125 c -0.03125,0.125 -0.03125,0.140625 -0.03125,0.171875 0,0.140625 0.109375,0.265625 0.265625,0.265625 0.3125,0 0.390625,-0.296875 0.421875,-0.40625 z m 0,0"
               id="id-69a19985-0652-4eae-939b-fa39e6d817ee" />
          </g>
        </g>
      </g>
    </g>
    <g
       id="g3042"
       ns2:jacobian_sqrt="1.41111"
       ns2:inkscapeversion="1.0"
       ns2:alignment="middle center"
       ns2:scale="4.0"
       ns2:preamble="C:\\Users\\claum\\AppData\\Roaming\\inkscape\\extensions\\textext\\default_packages.tex"
       ns2:text="$\\xi$"
       ns2:pdfconverter="inkscape"
       ns2:texconverter="pdflatex"
       ns2:version="1.0.1"
       transform="matrix(1.41111,0,0,1.41111,367.859,164.965)">
      <defs
         id="id-4a6943c5-5fe6-4d0f-974f-95d1ea05745a">
        <g
           id="id-65090a6d-684b-45d9-b062-98ff9d07d481">
          <symbol
             overflow="visible"
             id="id-7b860764-a906-41fa-9194-32214ef544d7">
            <path
               style="stroke:none"
               d=""
               id="id-54a78770-db8f-4ef6-8506-f5b74cdee490" />
          </symbol>
          <symbol
             overflow="visible"
             id="id-4d538fad-cb83-47bc-b99c-5c9150cef5f1">
            <path
               style="stroke:none"
               d="m 1.53125,-3.046875 c -1.078125,0.71875 -1.296875,1.65625 -1.296875,2.015625 0,0.46875 0.265625,0.75 0.28125,0.78125 0.328125,0.328125 0.40625,0.375 1.15625,0.65625 L 2.875,0.875 C 3.03125,0.9375 3.234375,1 3.234375,1.296875 c 0,0.234375 -0.1875,0.53125 -0.5,0.53125 -0.4375,0 -0.765625,-0.25 -0.875,-0.328125 C 1.796875,1.46875 1.796875,1.453125 1.75,1.453125 c -0.078125,0 -0.09375,0.078125 -0.09375,0.109375 0,0.125 0.53125,0.484375 1.078125,0.484375 0.625,0 1.046875,-0.578125 1.046875,-1.0625 C 3.78125,0.5 3.40625,0.3125 3.296875,0.265625 3.15625,0.21875 2.828125,0.09375 2.6875,0.046875 2.5,-0.046875 2.296875,-0.125 2.078125,-0.1875 l -0.59375,-0.234375 c -0.453125,-0.1875 -0.75,-0.46875 -0.75,-0.890625 0,-0.40625 0.390625,-1.28125 1.234375,-1.703125 C 2.328125,-2.875 2.625,-2.875 2.84375,-2.875 c 0.296875,0 0.921875,0 0.921875,-0.3125 0,-0.25 -0.421875,-0.265625 -0.8125,-0.265625 -0.1875,0 -0.46875,0 -0.84375,0.109375 -0.25,-0.25 -0.296875,-0.578125 -0.296875,-0.765625 0,-0.5625 0.359375,-1.328125 1.109375,-1.703125 0.171875,0.21875 0.40625,0.21875 0.640625,0.21875 0.25,0 0.890625,0 0.890625,-0.3125 0,-0.25 -0.453125,-0.265625 -0.828125,-0.265625 -0.140625,0 -0.375,0 -0.640625,0.046875 C 2.953125,-6.203125 2.9375,-6.28125 2.9375,-6.453125 c 0,-0.140625 0.046875,-0.34375 0.046875,-0.359375 0,-0.078125 -0.046875,-0.140625 -0.109375,-0.140625 -0.1875,0 -0.1875,0.46875 -0.1875,0.5 0,0.1875 0.0625,0.34375 0.078125,0.375 -1.078125,0.3125 -1.75,1.109375 -1.75,1.875 0,0.359375 0.1875,0.78125 0.65625,1.046875 z m 1.625,-2.859375 C 3.3125,-5.953125 3.515625,-5.953125 3.625,-5.953125 c 0.34375,0 0.375,0.015625 0.5625,0.0625 C 4.109375,-5.859375 4,-5.8125 3.5625,-5.8125 c -0.1875,0 -0.296875,0 -0.40625,-0.09375 z M 2.375,-3.1875 c 0.234375,-0.046875 0.453125,-0.046875 0.5625,-0.046875 0.359375,0 0.390625,0 0.578125,0.046875 -0.09375,0.046875 -0.1875,0.09375 -0.640625,0.09375 -0.234375,0 -0.328125,0 -0.5,-0.09375 z m 0,0"
               id="id-0b871ab6-914d-4183-8b46-8143898e3520" />
          </symbol>
        </g>
      </defs>
      <g
         id="id-f03d89c4-0569-4a68-b08c-6c6e708c86dc"
         transform="translate(-148.946,-127.812)">
        <g
           style="fill:#000000;fill-opacity:1"
           id="id-5144c891-5094-46a1-92a4-7cce3d4534a8">
          <g
             id="g3038"
             transform="translate(148.712,134.765)">
            <path
               style="stroke:none"
               d="m 1.53125,-3.046875 c -1.078125,0.71875 -1.296875,1.65625 -1.296875,2.015625 0,0.46875 0.265625,0.75 0.28125,0.78125 0.328125,0.328125 0.40625,0.375 1.15625,0.65625 L 2.875,0.875 C 3.03125,0.9375 3.234375,1 3.234375,1.296875 c 0,0.234375 -0.1875,0.53125 -0.5,0.53125 -0.4375,0 -0.765625,-0.25 -0.875,-0.328125 C 1.796875,1.46875 1.796875,1.453125 1.75,1.453125 c -0.078125,0 -0.09375,0.078125 -0.09375,0.109375 0,0.125 0.53125,0.484375 1.078125,0.484375 0.625,0 1.046875,-0.578125 1.046875,-1.0625 C 3.78125,0.5 3.40625,0.3125 3.296875,0.265625 3.15625,0.21875 2.828125,0.09375 2.6875,0.046875 2.5,-0.046875 2.296875,-0.125 2.078125,-0.1875 l -0.59375,-0.234375 c -0.453125,-0.1875 -0.75,-0.46875 -0.75,-0.890625 0,-0.40625 0.390625,-1.28125 1.234375,-1.703125 C 2.328125,-2.875 2.625,-2.875 2.84375,-2.875 c 0.296875,0 0.921875,0 0.921875,-0.3125 0,-0.25 -0.421875,-0.265625 -0.8125,-0.265625 -0.1875,0 -0.46875,0 -0.84375,0.109375 -0.25,-0.25 -0.296875,-0.578125 -0.296875,-0.765625 0,-0.5625 0.359375,-1.328125 1.109375,-1.703125 0.171875,0.21875 0.40625,0.21875 0.640625,0.21875 0.25,0 0.890625,0 0.890625,-0.3125 0,-0.25 -0.453125,-0.265625 -0.828125,-0.265625 -0.140625,0 -0.375,0 -0.640625,0.046875 C 2.953125,-6.203125 2.9375,-6.28125 2.9375,-6.453125 c 0,-0.140625 0.046875,-0.34375 0.046875,-0.359375 0,-0.078125 -0.046875,-0.140625 -0.109375,-0.140625 -0.1875,0 -0.1875,0.46875 -0.1875,0.5 0,0.1875 0.0625,0.34375 0.078125,0.375 -1.078125,0.3125 -1.75,1.109375 -1.75,1.875 0,0.359375 0.1875,0.78125 0.65625,1.046875 z m 1.625,-2.859375 C 3.3125,-5.953125 3.515625,-5.953125 3.625,-5.953125 c 0.34375,0 0.375,0.015625 0.5625,0.0625 C 4.109375,-5.859375 4,-5.8125 3.5625,-5.8125 c -0.1875,0 -0.296875,0 -0.40625,-0.09375 z M 2.375,-3.1875 c 0.234375,-0.046875 0.453125,-0.046875 0.5625,-0.046875 0.359375,0 0.390625,0 0.578125,0.046875 -0.09375,0.046875 -0.1875,0.09375 -0.640625,0.09375 -0.234375,0 -0.328125,0 -0.5,-0.09375 z m 0,0"
               id="id-009b4fb6-bf62-4590-99a5-05c9af12f44a" />
          </g>
        </g>
      </g>
    </g>
    <path
       style="fill:none;stroke:#000000;stroke-width:0.265;stroke-linecap:butt;stroke-linejoin:miter;stroke-miterlimit:4;stroke-dasharray:none;stroke-opacity:1;marker-start:url(#Arrow1Lstart)"
       d="m 328,154 c 0,0 2.44834,-1.30625 3.99998,-2 1.52152,-0.68028 3.02551,-1.64792 4.00003,-3 1.23268,-1.71025 1.11906,-4.08469 1.99998,-6 0.81217,-1.76583 1.43832,-3.84288 3.00001,-5 1.10428,-0.8182 2.59579,-1.09189 3.92912,-1.42522 C 346.26245,136.24144 347,136 348.99999,136 351,136 352,136 352,136"
       id="path3289"
       sodipodi:nodetypes="cssssssc" />
    <g
       id="g3602"
       ns2:jacobian_sqrt="1.41111"
       ns2:inkscapeversion="1.0"
       ns2:alignment="middle center"
       ns2:scale="4.0"
       ns2:preamble="C:\\Users\\claum\\AppData\\Roaming\\inkscape\\extensions\\textext\\default_packages.tex"
       ns2:text="\\begin{equation*}\n\\boxed{\\varphi^{*}}\n\\end{equation*}"
       ns2:pdfconverter="inkscape"
       ns2:texconverter="pdflatex"
       ns2:version="1.0.1"
       transform="matrix(1.41111,0,0,1.41111,351.488,125.052)">
      <defs
         id="id-ad77aca1-d7c6-4785-9113-4d69110cc0ff">
        <g
           id="id-3d7ba66b-f9a0-4a24-a12d-2ed80837b68a">
          <symbol
             overflow="visible"
             id="id-2c1fe99b-0239-4bcd-babf-bc24407bdab8">
            <path
               style="stroke:none"
               d=""
               id="id-e39727f4-c054-4160-99e8-5f012071cf9b" />
          </symbol>
          <symbol
             overflow="visible"
             id="id-9ce9a8f2-ca33-4e40-b0ca-c28b0c637502">
            <path
               style="stroke:none"
               d="M 1.6875,1.6875 C 1.65625,1.828125 1.640625,1.84375 1.640625,1.890625 c 0,0.21875 0.1875,0.28125 0.296875,0.28125 0.046875,0 0.265625,-0.03125 0.359375,-0.265625 C 2.328125,1.828125 2.375,1.5 2.65625,0.09375 c 0.078125,0 0.15625,0.015625 0.328125,0.015625 1.65625,0 3.1875,-1.5625 3.1875,-3.140625 0,-0.78125 -0.390625,-1.375 -1.140625,-1.375 -1.4375,0 -2.046875,1.9375 -2.640625,3.875 C 1.3125,-0.734375 0.75,-1.28125 0.75,-2 c 0,-0.28125 0.234375,-1.375 0.828125,-2.0625 0.09375,-0.09375 0.09375,-0.109375 0.09375,-0.140625 0,-0.03125 -0.03125,-0.09375 -0.125,-0.09375 -0.28125,0 -1.046875,1.453125 -1.046875,2.40625 0,0.9375 0.65625,1.65625 1.71875,1.90625 z m 1.390625,-2.15625 c -0.09375,0 -0.109375,0 -0.1875,-0.015625 -0.125,0 -0.125,0 -0.125,-0.03125 0,-0.015625 0.171875,-0.9375 0.1875,-1.078125 0.3125,-1.28125 1.09375,-2.234375 1.984375,-2.234375 0.6875,0 0.953125,0.53125 0.953125,1.015625 0,1.125 -1.28125,2.34375 -2.8125,2.34375 z m 0,0"
               id="id-e7d7a704-ffdd-4803-a7f4-b8bae99e311f" />
          </symbol>
          <symbol
             overflow="visible"
             id="id-d3c0bd2f-543c-4ece-99af-066a1f50a3e9">
            <path
               style="stroke:none"
               d=""
               id="id-06e95cc1-59da-4c4a-a032-dee2b8c618ce" />
          </symbol>
          <symbol
             overflow="visible"
             id="id-f5ee3b50-b4a3-4f08-81d5-e68f1f3339f6">
            <path
               style="stroke:none"
               d="m 2.25,-1.734375 c 0.578125,-0.25 0.828125,-0.34375 1,-0.4375 0.140625,-0.046875 0.203125,-0.078125 0.203125,-0.21875 0,-0.109375 -0.09375,-0.21875 -0.21875,-0.21875 -0.046875,0 -0.0625,0 -0.140625,0.0625 L 2.140625,-1.90625 2.25,-2.9375 c 0.015625,-0.125 0,-0.296875 -0.21875,-0.296875 -0.078125,0 -0.21875,0.046875 -0.21875,0.203125 0,0.0625 0.03125,0.265625 0.046875,0.34375 0.015625,0.109375 0.0625,0.625 0.078125,0.78125 L 0.984375,-2.546875 c -0.0625,-0.03125 -0.078125,-0.0625 -0.140625,-0.0625 -0.140625,0 -0.21875,0.109375 -0.21875,0.21875 0,0.140625 0.078125,0.1875 0.140625,0.203125 L 1.8125,-1.734375 c -0.5625,0.25 -0.828125,0.34375 -1,0.421875 -0.125,0.0625 -0.1875,0.09375 -0.1875,0.21875 0,0.125 0.078125,0.21875 0.21875,0.21875 0.046875,0 0.0625,0 0.140625,-0.0625 l 0.953125,-0.625 -0.125,1.109375 c 0,0.15625 0.140625,0.21875 0.21875,0.21875 0.09375,0 0.21875,-0.0625 0.21875,-0.21875 0,-0.0625 -0.03125,-0.265625 -0.03125,-0.328125 -0.015625,-0.125 -0.0625,-0.625 -0.078125,-0.78125 L 2.96875,-1.015625 C 3.15625,-0.875 3.171875,-0.875 3.234375,-0.875 c 0.125,0 0.21875,-0.09375 0.21875,-0.21875 0,-0.140625 -0.09375,-0.171875 -0.15625,-0.203125 z m 0,0"
               id="id-b661468e-3ea9-4d46-a32a-0c0fc02a9909" />
          </symbol>
        </g>
      </defs>
      <g
         id="id-b21a49f8-0c5b-4097-bdbc-f5d353cb87e0"
         transform="translate(-296.688,-135.973)">
        <path
           style="fill:none;stroke:#000000;stroke-width:0.398;stroke-linecap:butt;stroke-linejoin:miter;stroke-miterlimit:10;stroke-opacity:1"
           d="M -5e-4,0.001125 H 17.870594"
           transform="matrix(1,0,0,-1,296.688,136.173)"
           id="id-d46da771-e78e-4c30-a189-0941ec264aa4" />
        <path
           style="fill:none;stroke:#000000;stroke-width:0.398;stroke-linecap:butt;stroke-linejoin:miter;stroke-miterlimit:10;stroke-opacity:1"
           d="M -2.8125e-4,0.00146875 V 15.274906"
           transform="matrix(1,0,0,-1,296.887,151.646)"
           id="id-adb4bbd7-bbbd-4c25-9c90-c233e5c7b023" />
        <g
           style="fill:#000000;fill-opacity:1"
           id="id-8d9408ff-a42c-45dd-97b2-a25df800c5ac">
          <g
             id="g3592"
             transform="translate(300.075,146.72)">
            <path
               style="stroke:none"
               d="M 1.6875,1.6875 C 1.65625,1.828125 1.640625,1.84375 1.640625,1.890625 c 0,0.21875 0.1875,0.28125 0.296875,0.28125 0.046875,0 0.265625,-0.03125 0.359375,-0.265625 C 2.328125,1.828125 2.375,1.5 2.65625,0.09375 c 0.078125,0 0.15625,0.015625 0.328125,0.015625 1.65625,0 3.1875,-1.5625 3.1875,-3.140625 0,-0.78125 -0.390625,-1.375 -1.140625,-1.375 -1.4375,0 -2.046875,1.9375 -2.640625,3.875 C 1.3125,-0.734375 0.75,-1.28125 0.75,-2 c 0,-0.28125 0.234375,-1.375 0.828125,-2.0625 0.09375,-0.09375 0.09375,-0.109375 0.09375,-0.140625 0,-0.03125 -0.03125,-0.09375 -0.125,-0.09375 -0.28125,0 -1.046875,1.453125 -1.046875,2.40625 0,0.9375 0.65625,1.65625 1.71875,1.90625 z m 1.390625,-2.15625 c -0.09375,0 -0.109375,0 -0.1875,-0.015625 -0.125,0 -0.125,0 -0.125,-0.03125 0,-0.015625 0.171875,-0.9375 0.1875,-1.078125 0.3125,-1.28125 1.09375,-2.234375 1.984375,-2.234375 0.6875,0 0.953125,0.53125 0.953125,1.015625 0,1.125 -1.28125,2.34375 -2.8125,2.34375 z m 0,0"
               id="id-1da256b2-f7bb-4122-89f2-34ace629b004" />
          </g>
        </g>
        <g
           style="fill:#000000;fill-opacity:1"
           id="id-dec8c339-9597-45d3-962a-805810e80155">
          <g
             id="g3596"
             transform="translate(306.592,142.606)">
            <path
               style="stroke:none"
               d="m 2.25,-1.734375 c 0.578125,-0.25 0.828125,-0.34375 1,-0.4375 0.140625,-0.046875 0.203125,-0.078125 0.203125,-0.21875 0,-0.109375 -0.09375,-0.21875 -0.21875,-0.21875 -0.046875,0 -0.0625,0 -0.140625,0.0625 L 2.140625,-1.90625 2.25,-2.9375 c 0.015625,-0.125 0,-0.296875 -0.21875,-0.296875 -0.078125,0 -0.21875,0.046875 -0.21875,0.203125 0,0.0625 0.03125,0.265625 0.046875,0.34375 0.015625,0.109375 0.0625,0.625 0.078125,0.78125 L 0.984375,-2.546875 c -0.0625,-0.03125 -0.078125,-0.0625 -0.140625,-0.0625 -0.140625,0 -0.21875,0.109375 -0.21875,0.21875 0,0.140625 0.078125,0.1875 0.140625,0.203125 L 1.8125,-1.734375 c -0.5625,0.25 -0.828125,0.34375 -1,0.421875 -0.125,0.0625 -0.1875,0.09375 -0.1875,0.21875 0,0.125 0.078125,0.21875 0.21875,0.21875 0.046875,0 0.0625,0 0.140625,-0.0625 l 0.953125,-0.625 -0.125,1.109375 c 0,0.15625 0.140625,0.21875 0.21875,0.21875 0.09375,0 0.21875,-0.0625 0.21875,-0.21875 0,-0.0625 -0.03125,-0.265625 -0.03125,-0.328125 -0.015625,-0.125 -0.0625,-0.625 -0.078125,-0.78125 L 2.96875,-1.015625 C 3.15625,-0.875 3.171875,-0.875 3.234375,-0.875 c 0.125,0 0.21875,-0.09375 0.21875,-0.21875 0,-0.140625 -0.09375,-0.171875 -0.15625,-0.203125 z m 0,0"
               id="id-06519d67-77ac-4ee1-98a1-30db44d4ea13" />
          </g>
        </g>
        <path
           style="fill:none;stroke:#000000;stroke-width:0.398;stroke-linecap:butt;stroke-linejoin:miter;stroke-miterlimit:10;stroke-opacity:1"
           d="M -0.001625,0.00146875 V 15.274906"
           transform="matrix(1,0,0,-1,314.361,151.646)"
           id="id-e9758aaa-80d0-4417-a735-4036d76136b0" />
        <path
           style="fill:none;stroke:#000000;stroke-width:0.398;stroke-linecap:butt;stroke-linejoin:miter;stroke-miterlimit:10;stroke-opacity:1"
           d="M -5e-4,0.00125 H 17.870594"
           transform="matrix(1,0,0,-1,296.688,151.845)"
           id="id-8f691922-8408-4604-b379-e85128083b2d" />
      </g>
    </g>
    <g
       id="g3881"
       ns2:jacobian_sqrt="1.41111"
       ns2:inkscapeversion="1.0"
       ns2:alignment="middle center"
       ns2:scale="4.0"
       ns2:preamble="C:\\Users\\claum\\AppData\\Roaming\\inkscape\\extensions\\textext\\default_packages.tex"
       ns2:text="\\begin{equation*}\n\\boxed{2\\varphi^{*}}\n\\end{equation*}"
       ns2:pdfconverter="inkscape"
       ns2:texconverter="pdflatex"
       ns2:version="1.0.1"
       transform="matrix(1.41111,0,0,1.41111,145.96069,159.56744)">
      <defs
         id="id-94f061b6-bf12-4cea-822b-a32c9f3473d1">
        <g
           id="id-5b383af9-19b0-437d-8257-56d22083e87f">
          <symbol
             overflow="visible"
             id="id-0ed068fb-ad8d-4883-b597-e0ddcea8cc03">
            <path
               style="stroke:none"
               d=""
               id="id-bb11714a-039c-444b-ad84-6eaa840bb15f" />
          </symbol>
          <symbol
             overflow="visible"
             id="id-6026164c-deb8-4515-be08-d066fb3ac09c">
            <path
               style="stroke:none"
               d="m 1.265625,-0.765625 1.0625,-1.03125 c 1.546875,-1.375 2.140625,-1.90625 2.140625,-2.90625 0,-1.140625 -0.890625,-1.9375 -2.109375,-1.9375 -1.125,0 -1.859375,0.921875 -1.859375,1.8125 0,0.546875 0.5,0.546875 0.53125,0.546875 0.171875,0 0.515625,-0.109375 0.515625,-0.53125 0,-0.25 -0.1875,-0.515625 -0.53125,-0.515625 -0.078125,0 -0.09375,0 -0.125,0.015625 0.21875,-0.65625 0.765625,-1.015625 1.34375,-1.015625 0.90625,0 1.328125,0.8125 1.328125,1.625 C 3.5625,-3.90625 3.078125,-3.125 2.515625,-2.5 l -1.90625,2.125 C 0.5,-0.265625 0.5,-0.234375 0.5,0 H 4.203125 L 4.46875,-1.734375 H 4.234375 C 4.171875,-1.4375 4.109375,-1 4,-0.84375 3.9375,-0.765625 3.28125,-0.765625 3.0625,-0.765625 Z m 0,0"
               id="id-0da47cb9-fbba-411f-b83c-995c7f9608cb" />
          </symbol>
          <symbol
             overflow="visible"
             id="id-39c3a3df-3604-4d88-9570-d0e857e8aabe">
            <path
               style="stroke:none"
               d=""
               id="id-74a684e0-2e27-4a33-a304-de161e3d9b39" />
          </symbol>
          <symbol
             overflow="visible"
             id="id-dbd2a8fa-c352-4c24-9689-f215cd9e043b">
            <path
               style="stroke:none"
               d="M 1.6875,1.6875 C 1.65625,1.828125 1.640625,1.84375 1.640625,1.890625 c 0,0.21875 0.1875,0.28125 0.296875,0.28125 0.046875,0 0.265625,-0.03125 0.359375,-0.265625 C 2.328125,1.828125 2.375,1.5 2.65625,0.09375 c 0.078125,0 0.15625,0.015625 0.328125,0.015625 1.65625,0 3.1875,-1.5625 3.1875,-3.140625 0,-0.78125 -0.390625,-1.375 -1.140625,-1.375 -1.4375,0 -2.046875,1.9375 -2.640625,3.875 C 1.3125,-0.734375 0.75,-1.28125 0.75,-2 c 0,-0.28125 0.234375,-1.375 0.828125,-2.0625 0.09375,-0.09375 0.09375,-0.109375 0.09375,-0.140625 0,-0.03125 -0.03125,-0.09375 -0.125,-0.09375 -0.28125,0 -1.046875,1.453125 -1.046875,2.40625 0,0.9375 0.65625,1.65625 1.71875,1.90625 z m 1.390625,-2.15625 c -0.09375,0 -0.109375,0 -0.1875,-0.015625 -0.125,0 -0.125,0 -0.125,-0.03125 0,-0.015625 0.171875,-0.9375 0.1875,-1.078125 0.3125,-1.28125 1.09375,-2.234375 1.984375,-2.234375 0.6875,0 0.953125,0.53125 0.953125,1.015625 0,1.125 -1.28125,2.34375 -2.8125,2.34375 z m 0,0"
               id="id-6d4b1b6b-b598-49be-9bb5-1bfaedeb1785" />
          </symbol>
          <symbol
             overflow="visible"
             id="id-fa673190-acbb-4917-9f00-e8b3a118ef56">
            <path
               style="stroke:none"
               d=""
               id="id-9f8db3d3-32c6-40e7-be7f-4acf353c77c9" />
          </symbol>
          <symbol
             overflow="visible"
             id="id-d110cb67-ff72-4104-88f8-f1ca550c85cf">
            <path
               style="stroke:none"
               d="m 2.25,-1.734375 c 0.578125,-0.25 0.828125,-0.34375 1,-0.4375 0.140625,-0.046875 0.203125,-0.078125 0.203125,-0.21875 0,-0.109375 -0.09375,-0.21875 -0.21875,-0.21875 -0.046875,0 -0.0625,0 -0.140625,0.0625 L 2.140625,-1.90625 2.25,-2.9375 c 0.015625,-0.125 0,-0.296875 -0.21875,-0.296875 -0.078125,0 -0.21875,0.046875 -0.21875,0.203125 0,0.0625 0.03125,0.265625 0.046875,0.34375 0.015625,0.109375 0.0625,0.625 0.078125,0.78125 L 0.984375,-2.546875 c -0.0625,-0.03125 -0.078125,-0.0625 -0.140625,-0.0625 -0.140625,0 -0.21875,0.109375 -0.21875,0.21875 0,0.140625 0.078125,0.1875 0.140625,0.203125 L 1.8125,-1.734375 c -0.5625,0.25 -0.828125,0.34375 -1,0.421875 -0.125,0.0625 -0.1875,0.09375 -0.1875,0.21875 0,0.125 0.078125,0.21875 0.21875,0.21875 0.046875,0 0.0625,0 0.140625,-0.0625 l 0.953125,-0.625 -0.125,1.109375 c 0,0.15625 0.140625,0.21875 0.21875,0.21875 0.09375,0 0.21875,-0.0625 0.21875,-0.21875 0,-0.0625 -0.03125,-0.265625 -0.03125,-0.328125 -0.015625,-0.125 -0.0625,-0.625 -0.078125,-0.78125 L 2.96875,-1.015625 C 3.15625,-0.875 3.171875,-0.875 3.234375,-0.875 c 0.125,0 0.21875,-0.09375 0.21875,-0.21875 0,-0.140625 -0.09375,-0.171875 -0.15625,-0.203125 z m 0,0"
               id="id-f8eadc40-21b9-477b-ba0c-7bbfe183a865" />
          </symbol>
        </g>
      </defs>
      <g
         id="id-20deb345-4a99-46e4-bb7e-3d2e2c0aed20"
         transform="translate(-294.195,-135.973)">
        <path
           style="fill:none;stroke:#000000;stroke-width:0.398;stroke-linecap:butt;stroke-linejoin:miter;stroke-miterlimit:10;stroke-opacity:1"
           d="M -0.0016875,0.001125 H 22.853781"
           transform="matrix(1,0,0,-1,294.197,136.173)"
           id="id-14ee40a2-c9a0-4d06-abae-e940ead73d9d" />
        <path
           style="fill:none;stroke:#000000;stroke-width:0.398;stroke-linecap:butt;stroke-linejoin:miter;stroke-miterlimit:10;stroke-opacity:1"
           d="M 0.0014375,0.00146875 V 15.274906"
           transform="matrix(1,0,0,-1,294.397,151.646)"
           id="id-2e2ffee6-dfbd-4658-ba13-15be27b234eb" />
        <g
           style="fill:#000000;fill-opacity:1"
           id="id-6f950142-a364-48e3-8dac-3a90bc9ed3b7">
          <g
             id="g3867"
             transform="translate(297.585,146.72)">
            <path
               style="stroke:none"
               d="m 1.265625,-0.765625 1.0625,-1.03125 c 1.546875,-1.375 2.140625,-1.90625 2.140625,-2.90625 0,-1.140625 -0.890625,-1.9375 -2.109375,-1.9375 -1.125,0 -1.859375,0.921875 -1.859375,1.8125 0,0.546875 0.5,0.546875 0.53125,0.546875 0.171875,0 0.515625,-0.109375 0.515625,-0.53125 0,-0.25 -0.1875,-0.515625 -0.53125,-0.515625 -0.078125,0 -0.09375,0 -0.125,0.015625 0.21875,-0.65625 0.765625,-1.015625 1.34375,-1.015625 0.90625,0 1.328125,0.8125 1.328125,1.625 C 3.5625,-3.90625 3.078125,-3.125 2.515625,-2.5 l -1.90625,2.125 C 0.5,-0.265625 0.5,-0.234375 0.5,0 H 4.203125 L 4.46875,-1.734375 H 4.234375 C 4.171875,-1.4375 4.109375,-1 4,-0.84375 3.9375,-0.765625 3.28125,-0.765625 3.0625,-0.765625 Z m 0,0"
               id="id-1e36a62b-c268-48e9-84fa-e213159d82a7" />
          </g>
        </g>
        <g
           style="fill:#000000;fill-opacity:1"
           id="id-5c10c82a-2745-4f51-94c3-f1fd3ff9e55f">
          <g
             id="g3871"
             transform="translate(302.566,146.72)">
            <path
               style="stroke:none"
               d="M 1.6875,1.6875 C 1.65625,1.828125 1.640625,1.84375 1.640625,1.890625 c 0,0.21875 0.1875,0.28125 0.296875,0.28125 0.046875,0 0.265625,-0.03125 0.359375,-0.265625 C 2.328125,1.828125 2.375,1.5 2.65625,0.09375 c 0.078125,0 0.15625,0.015625 0.328125,0.015625 1.65625,0 3.1875,-1.5625 3.1875,-3.140625 0,-0.78125 -0.390625,-1.375 -1.140625,-1.375 -1.4375,0 -2.046875,1.9375 -2.640625,3.875 C 1.3125,-0.734375 0.75,-1.28125 0.75,-2 c 0,-0.28125 0.234375,-1.375 0.828125,-2.0625 0.09375,-0.09375 0.09375,-0.109375 0.09375,-0.140625 0,-0.03125 -0.03125,-0.09375 -0.125,-0.09375 -0.28125,0 -1.046875,1.453125 -1.046875,2.40625 0,0.9375 0.65625,1.65625 1.71875,1.90625 z m 1.390625,-2.15625 c -0.09375,0 -0.109375,0 -0.1875,-0.015625 -0.125,0 -0.125,0 -0.125,-0.03125 0,-0.015625 0.171875,-0.9375 0.1875,-1.078125 0.3125,-1.28125 1.09375,-2.234375 1.984375,-2.234375 0.6875,0 0.953125,0.53125 0.953125,1.015625 0,1.125 -1.28125,2.34375 -2.8125,2.34375 z m 0,0"
               id="id-7fe829ae-1dfb-4836-b4c2-5ce9b6639c55" />
          </g>
        </g>
        <g
           style="fill:#000000;fill-opacity:1"
           id="id-76dd8496-5fe4-4b44-aca3-cd9f0056f791">
          <g
             id="g3875"
             transform="translate(309.083,142.606)">
            <path
               style="stroke:none"
               d="m 2.25,-1.734375 c 0.578125,-0.25 0.828125,-0.34375 1,-0.4375 0.140625,-0.046875 0.203125,-0.078125 0.203125,-0.21875 0,-0.109375 -0.09375,-0.21875 -0.21875,-0.21875 -0.046875,0 -0.0625,0 -0.140625,0.0625 L 2.140625,-1.90625 2.25,-2.9375 c 0.015625,-0.125 0,-0.296875 -0.21875,-0.296875 -0.078125,0 -0.21875,0.046875 -0.21875,0.203125 0,0.0625 0.03125,0.265625 0.046875,0.34375 0.015625,0.109375 0.0625,0.625 0.078125,0.78125 L 0.984375,-2.546875 c -0.0625,-0.03125 -0.078125,-0.0625 -0.140625,-0.0625 -0.140625,0 -0.21875,0.109375 -0.21875,0.21875 0,0.140625 0.078125,0.1875 0.140625,0.203125 L 1.8125,-1.734375 c -0.5625,0.25 -0.828125,0.34375 -1,0.421875 -0.125,0.0625 -0.1875,0.09375 -0.1875,0.21875 0,0.125 0.078125,0.21875 0.21875,0.21875 0.046875,0 0.0625,0 0.140625,-0.0625 l 0.953125,-0.625 -0.125,1.109375 c 0,0.15625 0.140625,0.21875 0.21875,0.21875 0.09375,0 0.21875,-0.0625 0.21875,-0.21875 0,-0.0625 -0.03125,-0.265625 -0.03125,-0.328125 -0.015625,-0.125 -0.0625,-0.625 -0.078125,-0.78125 L 2.96875,-1.015625 C 3.15625,-0.875 3.171875,-0.875 3.234375,-0.875 c 0.125,0 0.21875,-0.09375 0.21875,-0.21875 0,-0.140625 -0.09375,-0.171875 -0.15625,-0.203125 z m 0,0"
               id="id-a0dc0c92-670c-44d6-84dd-faa95c1c4243" />
          </g>
        </g>
        <path
           style="fill:none;stroke:#000000;stroke-width:0.398;stroke-linecap:butt;stroke-linejoin:miter;stroke-miterlimit:10;stroke-opacity:1"
           d="M 5.625e-4,0.00146875 V 15.274906"
           transform="matrix(1,0,0,-1,316.851,151.646)"
           id="id-4c8f8c96-e0d0-45d7-9c97-9a0924f4b0de" />
        <path
           style="fill:none;stroke:#000000;stroke-width:0.398;stroke-linecap:butt;stroke-linejoin:miter;stroke-miterlimit:10;stroke-opacity:1"
           d="M -0.0016875,0.00125 H 22.853781"
           transform="matrix(1,0,0,-1,294.197,151.845)"
           id="id-86d0b29f-dc51-4d8f-b05c-c92056331113" />
      </g>
    </g>
    <path
       style="fill:none;stroke:#000000;stroke-width:0.264583px;stroke-linecap:butt;stroke-linejoin:miter;stroke-opacity:1;marker-end:url(#marker3965)"
       d="m 178,171 c 0,0 3.36341,0.31518 5,0 1.76267,-0.33946 3.63338,-0.83614 5,-2 1.47975,-1.2602 2.22638,-3.21694 3,-5 0.96588,-2.2262 1.66341,-4.59675 2,-7 0.18493,-1.32045 0.18899,-2.71391 0.18899,-4.04725 C 193.18899,150.28609 193,145 193,145"
       id="path3915"
       sodipodi:nodetypes="csssssc" />
    <g
       transform="matrix(1.41111,0,0,1.41111,181.37639,102.08213)"
       ns2:version="1.0.1"
       ns2:texconverter="pdflatex"
       ns2:pdfconverter="inkscape"
       ns2:text="$r$"
       ns2:preamble="C:\\Users\\claum\\AppData\\Roaming\\inkscape\\extensions\\textext\\default_packages.tex"
       ns2:scale="4.0"
       ns2:alignment="middle center"
       ns2:inkscapeversion="1.0"
       ns2:jacobian_sqrt="1.41111"
       id="g525">
      <defs
         id="id-8a35e609-ed3c-4179-a836-294ed2d8cab8">
        <g
           id="id-440673e3-c39c-4585-a715-1361e4813ad1">
          <symbol
             id="id-e6625dfd-a8ca-4b78-abca-02b0c726780c"
             overflow="visible">
            <path
               id="id-c58830e8-2835-46a7-abd7-06d50ffe3e92"
               d=""
               style="stroke:none" />
          </symbol>
          <symbol
             id="id-d47065b9-2aab-4870-bc58-d15407f653cb"
             overflow="visible">
            <path
               id="id-26e064a9-6570-4c9c-b2e8-3205fc0968cf"
               d="m 0.875,-0.59375 c -0.03125,0.15625 -0.09375,0.390625 -0.09375,0.4375 0,0.171875 0.140625,0.265625 0.296875,0.265625 0.125,0 0.296875,-0.078125 0.375,-0.28125 C 1.46875,-0.203125 1.796875,-1.5625 1.84375,-1.75 c 0.078125,-0.328125 0.265625,-1.015625 0.3125,-1.296875 0.046875,-0.125 0.328125,-0.59375 0.5625,-0.8125 0.078125,-0.0625 0.375,-0.328125 0.796875,-0.328125 0.265625,0 0.40625,0.125 0.421875,0.125 -0.296875,0.046875 -0.515625,0.28125 -0.515625,0.546875 0,0.15625 0.109375,0.34375 0.375,0.34375 0.265625,0 0.546875,-0.234375 0.546875,-0.59375 0,-0.34375 -0.3125,-0.640625 -0.828125,-0.640625 C 2.875,-4.40625 2.4375,-3.921875 2.25,-3.640625 2.15625,-4.09375 1.796875,-4.40625 1.328125,-4.40625 0.875,-4.40625 0.6875,-4.015625 0.59375,-3.84375 0.421875,-3.5 0.296875,-2.90625 0.296875,-2.875 c 0,0.109375 0.09375,0.109375 0.109375,0.109375 0.109375,0 0.109375,-0.015625 0.171875,-0.234375 0.171875,-0.703125 0.375,-1.1875 0.734375,-1.1875 0.15625,0 0.296875,0.078125 0.296875,0.453125 0,0.21875 -0.03125,0.328125 -0.15625,0.84375 z m 0,0"
               style="stroke:none" />
          </symbol>
        </g>
      </defs>
      <g
         transform="translate(-149.009,-130.359)"
         id="id-c7e97835-9418-4729-9587-97dddb403fce">
        <g
           id="id-c8d22dda-f258-4c68-8a86-eae982c4feb9"
           style="fill:#000000;fill-opacity:1">
          <g
             transform="translate(148.712,134.765)"
             id="g521">
            <path
               id="id-a505cc05-cbe4-47c7-8407-e5c5ef49a08b"
               d="m 0.875,-0.59375 c -0.03125,0.15625 -0.09375,0.390625 -0.09375,0.4375 0,0.171875 0.140625,0.265625 0.296875,0.265625 0.125,0 0.296875,-0.078125 0.375,-0.28125 C 1.46875,-0.203125 1.796875,-1.5625 1.84375,-1.75 c 0.078125,-0.328125 0.265625,-1.015625 0.3125,-1.296875 0.046875,-0.125 0.328125,-0.59375 0.5625,-0.8125 0.078125,-0.0625 0.375,-0.328125 0.796875,-0.328125 0.265625,0 0.40625,0.125 0.421875,0.125 -0.296875,0.046875 -0.515625,0.28125 -0.515625,0.546875 0,0.15625 0.109375,0.34375 0.375,0.34375 0.265625,0 0.546875,-0.234375 0.546875,-0.59375 0,-0.34375 -0.3125,-0.640625 -0.828125,-0.640625 C 2.875,-4.40625 2.4375,-3.921875 2.25,-3.640625 2.15625,-4.09375 1.796875,-4.40625 1.328125,-4.40625 0.875,-4.40625 0.6875,-4.015625 0.59375,-3.84375 0.421875,-3.5 0.296875,-2.90625 0.296875,-2.875 c 0,0.109375 0.09375,0.109375 0.109375,0.109375 0.109375,0 0.109375,-0.015625 0.171875,-0.234375 0.171875,-0.703125 0.375,-1.1875 0.734375,-1.1875 0.15625,0 0.296875,0.078125 0.296875,0.453125 0,0.21875 -0.03125,0.328125 -0.15625,0.84375 z m 0,0"
               style="stroke:none" />
          </g>
        </g>
      </g>
    </g>
  </g>
</svg>
