<?xml version="1.0" encoding="UTF-8" standalone="no"?>
<svg
   xmlns:ns21="http://www.iki.fi/pav/software/textext/"
   xmlns:dc="http://purl.org/dc/elements/1.1/"
   xmlns:cc="http://creativecommons.org/ns#"
   xmlns:rdf="http://www.w3.org/1999/02/22-rdf-syntax-ns#"
   xmlns:svg="http://www.w3.org/2000/svg"
   xmlns="http://www.w3.org/2000/svg"
   xmlns:sodipodi="http://sodipodi.sourceforge.net/DTD/sodipodi-0.dtd"
   xmlns:inkscape="http://www.inkscape.org/namespaces/inkscape"
   id="svg8"
   version="1.1"
   viewBox="0 0 170 185.99999"
   height="18.6cm"
   width="17cm"
   inkscape:version="1.0 (4035a4fb49, 2020-05-01)"
   sodipodi:docname="Esercizio1_3.svg">
  <defs
     id="defs2">
    <marker
       inkscape:isstock="true"
       style="overflow:visible"
       id="marker1123"
       refX="0"
       refY="0"
       orient="auto"
       inkscape:stockid="Arrow1Lend">
      <path
         transform="matrix(-0.8,0,0,-0.8,-10,0)"
         style="fill:#000000;fill-opacity:1;fill-rule:evenodd;stroke:#000000;stroke-width:1pt;stroke-opacity:1"
         d="M 0,0 5,-5 -12.5,0 5,5 Z"
         id="path1121" />
    </marker>
    <marker
       inkscape:stockid="Arrow1Lend"
       orient="auto"
       refY="0"
       refX="0"
       id="Arrow1Lend"
       style="overflow:visible"
       inkscape:isstock="true"
       inkscape:collect="always">
      <path
         id="path840"
         d="M 0,0 5,-5 -12.5,0 5,5 Z"
         style="fill:#000000;fill-opacity:1;fill-rule:evenodd;stroke:#000000;stroke-width:1pt;stroke-opacity:1"
         transform="matrix(-0.8,0,0,-0.8,-10,0)" />
    </marker>
  </defs>
  <sodipodi:namedview
     id="base"
     pagecolor="#ffffff"
     bordercolor="#666666"
     borderopacity="1.0"
     inkscape:pageopacity="0.0"
     inkscape:pageshadow="2"
     inkscape:zoom="1.4"
     inkscape:cx="450.65868"
     inkscape:cy="633.94719"
     inkscape:document-units="mm"
     inkscape:current-layer="layer1"
     inkscape:document-rotation="0"
     showgrid="true"
     units="cm"
     inkscape:window-width="1366"
     inkscape:window-height="738"
     inkscape:window-x="0"
     inkscape:window-y="0"
     inkscape:window-maximized="0">
    <inkscape:grid
       type="xygrid"
       id="grid10" />
  </sodipodi:namedview>
  <metadata
     id="metadata5">
    <rdf:RDF>
      <cc:Work
         rdf:about="">
        <dc:format>image/svg+xml</dc:format>
        <dc:type
           rdf:resource="http://purl.org/dc/dcmitype/StillImage" />
        <dc:title></dc:title>
      </cc:Work>
    </rdf:RDF>
  </metadata>
  <g
     inkscape:label="Livello 1"
     inkscape:groupmode="layer"
     id="layer1">
    <path
       style="opacity:1;fill:none;stroke:#000000;stroke-width:0.4;stroke-miterlimit:4;stroke-dasharray:none;stroke-opacity:1"
       id="path1182"
       transform="scale(1,-1)"
       sodipodi:type="arc"
       sodipodi:cx="9.0000057"
       sodipodi:cy="-157.03397"
       sodipodi:rx="105"
       sodipodi:ry="105"
       sodipodi:start="0.00032342057"
       sodipodi:end="1.0357361"
       sodipodi:open="true"
       sodipodi:arc-type="arc"
       d="M 114,-157.00001 A 105,105 0 0 1 62.538755,-66.708984" />
    <path
       style="opacity:1;fill:none;fill-opacity:1;stroke:#000000;stroke-width:0.2;stroke-miterlimit:4;stroke-dasharray:0.2, 0.2;stroke-dashoffset:0;stroke-opacity:1"
       id="path1200"
       sodipodi:type="arc"
       sodipodi:cx="9.0058975"
       sodipodi:cy="-157.72855"
       sodipodi:rx="45"
       sodipodi:ry="45"
       sodipodi:start="0.016190634"
       sodipodi:end="0.70462155"
       sodipodi:arc-type="arc"
       d="m 54,-157 a 45,45 0 0 1 -10.710549,28.42"
       transform="scale(1,-1)"
       sodipodi:open="true" />
    <path
       sodipodi:open="true"
       transform="scale(1,-1)"
       d="M 79,-157 A 75,75 0 0 1 43.973314,-97.97651"
       sodipodi:arc-type="arc"
       sodipodi:end="1.0108293"
       sodipodi:start="0.060329349"
       sodipodi:ry="75"
       sodipodi:rx="75"
       sodipodi:cy="-161.52196"
       sodipodi:cx="4.1364446"
       sodipodi:type="arc"
       id="path1204"
       style="opacity:1;fill:none;fill-opacity:1;stroke:#000000;stroke-width:0.2;stroke-miterlimit:4;stroke-dasharray:0.2, 0.2;stroke-dashoffset:0;stroke-opacity:1" />
    <g
       transform="translate(-11,-17.999999)"
       id="g5328">
      <g
         transform="translate(-10,-25)"
         id="g1437">
        <g
           id="g1362"
           transform="translate(30,-50)">
          <g
             id="g1324">
            <g
               id="g1275">
              <g
                 id="g1227">
                <path
                   style="fill:none;stroke:#000000;stroke-width:0.265;stroke-linecap:butt;stroke-linejoin:miter;stroke-miterlimit:4;stroke-dasharray:none;stroke-opacity:1;marker-end:url(#Arrow1Lend)"
                   d="M 0,250 V 94.999999"
                   id="path12" />
                <path
                   id="path1119"
                   d="M 0,250 H 155"
                   style="fill:none;stroke:#000000;stroke-width:0.265;stroke-linecap:butt;stroke-linejoin:miter;stroke-miterlimit:4;stroke-dasharray:none;stroke-opacity:1;marker-end:url(#marker1123)" />
                <path
                   style="fill:none;stroke:#000000;stroke-width:0.264583px;stroke-linecap:butt;stroke-linejoin:miter;stroke-opacity:1"
                   d="M 0,250 V 120"
                   id="path1173" />
                <path
                   style="opacity:1;fill:none;stroke:#000000;stroke-width:0.4;stroke-miterlimit:4;stroke-dasharray:none;stroke-opacity:1"
                   id="path1184"
                   sodipodi:type="arc"
                   sodipodi:cx="0"
                   sodipodi:cy="250"
                   sodipodi:rx="140"
                   sodipodi:ry="140"
                   sodipodi:start="5.2481096"
                   sodipodi:end="6.2830898"
                   sodipodi:open="true"
                   sodipodi:arc-type="arc"
                   d="M 71.464517,129.61386 A 140,140 0 0 1 140,249.98663" />
                <path
                   style="fill:none;stroke:#000000;stroke-width:0.264583px;stroke-linecap:butt;stroke-linejoin:miter;stroke-opacity:1"
                   d="M 0,250 79.999998,115"
                   id="path1186" />
                <path
                   style="fill:none;stroke:#000000;stroke-width:0.264583px;stroke-linecap:butt;stroke-linejoin:miter;stroke-opacity:1"
                   d="M 0,250 150,195"
                   id="path1188" />
                <path
                   style="fill:none;stroke:#000000;stroke-width:0.264583px;stroke-linecap:butt;stroke-linejoin:miter;stroke-opacity:1"
                   d="M 0,250 150,125"
                   id="path1190" />
                <path
                   d="m 63.552343,142.97086 a 140,140 0 0 1 53.745347,63.94157"
                   sodipodi:arc-type="arc"
                   sodipodi:open="true"
                   sodipodi:end="5.8871395"
                   sodipodi:start="5.2812803"
                   sodipodi:ry="140"
                   sodipodi:rx="140"
                   sodipodi:cy="260.92068"
                   sodipodi:cx="-11.865421"
                   sodipodi:type="arc"
                   id="path1192"
                   style="opacity:1;fill:none;stroke:#000000;stroke-width:0.4;stroke-miterlimit:4;stroke-dasharray:0.4, 0.4;stroke-dashoffset:0;stroke-opacity:1" />
                <circle
                   style="opacity:1;fill:#000000;fill-opacity:1;stroke:#000000;stroke-width:0.4;stroke-miterlimit:4;stroke-dasharray:none;stroke-dashoffset:0;stroke-opacity:1"
                   id="path1194"
                   cx="95.212616"
                   cy="170.65747"
                   r="1.5" />
              </g>
            </g>
          </g>
        </g>
      </g>
      <path
         transform="scale(1,-1)"
         d="m 45,-175 a 25,25 0 0 1 -1.530943,8.61414 L 20,-175 Z"
         sodipodi:arc-type="slice"
         sodipodi:end="0.35177591"
         sodipodi:start="0"
         sodipodi:ry="25"
         sodipodi:rx="25"
         sodipodi:cy="-175"
         sodipodi:cx="20"
         sodipodi:type="arc"
         id="path1198"
         style="opacity:1;fill:none;fill-opacity:1;stroke:#000000;stroke-width:0.2;stroke-miterlimit:4;stroke-dasharray:0.2, 0.2;stroke-dashoffset:0;stroke-opacity:1" />
      <path
         id="path1475"
         d="M 15,190 25,180"
         style="fill:none;stroke:#000000;stroke-width:0.264583px;stroke-linecap:butt;stroke-linejoin:miter;stroke-opacity:1" />
      <path
         id="path1477"
         d="M 20,185 H 125"
         style="fill:none;stroke:#000000;stroke-width:0.264583px;stroke-linecap:butt;stroke-linejoin:miter;stroke-opacity:1" />
      <path
         id="path1479"
         d="m 120,190 10,-10"
         style="fill:none;stroke:#000000;stroke-width:0.264583px;stroke-linecap:butt;stroke-linejoin:miter;stroke-opacity:1" />
      <path
         id="path1481"
         d="M 15,200 25,190"
         style="fill:none;stroke:#000000;stroke-width:0.264583px;stroke-linecap:butt;stroke-linejoin:miter;stroke-opacity:1" />
      <path
         id="path1483"
         d="M 20,195 H 160"
         style="fill:none;stroke:#000000;stroke-width:0.264583px;stroke-linecap:butt;stroke-linejoin:miter;stroke-opacity:1" />
      <path
         id="path1485"
         d="m 155,200 10,-10"
         style="fill:none;stroke:#000000;stroke-width:0.264583px;stroke-linecap:butt;stroke-linejoin:miter;stroke-opacity:1" />
      <g
         transform="matrix(0.705556,0,0,0.705556,66.637408,177.58603)"
         ns21:version="1.0.1"
         ns21:texconverter="pdflatex"
         ns21:pdfconverter="inkscape"
         ns21:text="$R_i$"
         ns21:preamble="C:\\Users\\claum\\AppData\\Roaming\\inkscape\\extensions\\textext\\default_packages.tex"
         ns21:scale="2.0"
         ns21:alignment="middle center"
         ns21:jacobian_sqrt="0.705556"
         id="g1538">
        <defs
           id="id-b1389180-59da-4bd3-acc7-3506c37e32ac">
          <g
             id="id-c99c11af-78d9-4b19-bb7a-19c4015789b8">
            <symbol
               id="id-f9ea5dc0-255f-42dd-a0fe-5b8f0a604105"
               overflow="visible">
              <path
                 id="id-b366a3cd-9517-497e-9caf-551820cbe084"
                 d=""
                 style="stroke:none" />
            </symbol>
            <symbol
               id="id-de79e656-c000-4156-848e-33edfb59ea5f"
               overflow="visible">
              <path
                 id="id-5ad557e9-5adc-479e-9229-572df7359696"
                 d="m 3.734375,-6.125 c 0.0625,-0.234375 0.09375,-0.328125 0.28125,-0.359375 C 4.109375,-6.5 4.421875,-6.5 4.625,-6.5 c 0.703125,0 1.8125,0 1.8125,0.984375 0,0.34375 -0.15625,1.03125 -0.546875,1.421875 -0.265625,0.25 -0.78125,0.578125 -1.6875,0.578125 H 3.09375 Z m 1.4375,2.734375 c 1.015625,-0.21875 2.1875,-0.921875 2.1875,-1.921875 0,-0.859375 -0.890625,-1.5 -2.203125,-1.5 H 2.328125 c -0.203125,0 -0.296875,0 -0.296875,0.203125 C 2.03125,-6.5 2.125,-6.5 2.3125,-6.5 c 0.015625,0 0.203125,0 0.375,0.015625 0.1875,0.03125 0.265625,0.03125 0.265625,0.171875 0,0.03125 0,0.0625 -0.03125,0.1875 l -1.34375,5.34375 C 1.484375,-0.390625 1.46875,-0.3125 0.671875,-0.3125 0.5,-0.3125 0.40625,-0.3125 0.40625,-0.109375 0.40625,0 0.53125,0 0.546875,0 c 0.28125,0 0.984375,-0.03125 1.25,-0.03125 0.28125,0 1,0.03125 1.28125,0.03125 0.078125,0 0.1875,0 0.1875,-0.203125 0,-0.109375 -0.078125,-0.109375 -0.28125,-0.109375 -0.359375,0 -0.640625,0 -0.640625,-0.171875 0,-0.0625 0.015625,-0.109375 0.03125,-0.171875 l 0.65625,-2.640625 h 1.1875 c 0.90625,0 1.078125,0.5625 1.078125,0.90625 0,0.140625 -0.078125,0.453125 -0.140625,0.6875 C 5.09375,-1.421875 5,-1.0625 5,-0.859375 5,0.21875 6.203125,0.21875 6.328125,0.21875 c 0.84375,0 1.203125,-1 1.203125,-1.140625 0,-0.125 -0.109375,-0.125 -0.125,-0.125 -0.09375,0 -0.109375,0.0625 -0.125,0.140625 C 7.03125,-0.171875 6.59375,0 6.375,0 6.046875,0 5.96875,-0.21875 5.96875,-0.609375 c 0,-0.3125 0.0625,-0.8125 0.109375,-1.140625 0.015625,-0.140625 0.03125,-0.328125 0.03125,-0.46875 0,-0.765625 -0.671875,-1.078125 -0.9375,-1.171875 z m 0,0"
                 style="stroke:none" />
            </symbol>
            <symbol
               id="id-c0477643-461c-4446-9025-aa1f5174cbd5"
               overflow="visible">
              <path
                 id="id-3e635eb3-2936-4aff-9589-becb416f3c6b"
                 d=""
                 style="stroke:none" />
            </symbol>
            <symbol
               id="id-49a9734e-98b5-49d3-afa5-2856ce1750ce"
               overflow="visible">
              <path
                 id="id-658a782b-ea2a-4954-b878-79e42a591df0"
                 d="m 2.265625,-4.359375 c 0,-0.109375 -0.09375,-0.265625 -0.28125,-0.265625 -0.1875,0 -0.390625,0.1875 -0.390625,0.390625 0,0.109375 0.078125,0.265625 0.28125,0.265625 0.1875,0 0.390625,-0.203125 0.390625,-0.390625 z M 0.84375,-0.8125 c -0.03125,0.09375 -0.0625,0.171875 -0.0625,0.296875 0,0.328125 0.265625,0.578125 0.65625,0.578125 0.6875,0 1,-0.953125 1,-1.0625 0,-0.09375 -0.09375,-0.09375 -0.109375,-0.09375 -0.09375,0 -0.109375,0.046875 -0.140625,0.125 -0.15625,0.5625 -0.453125,0.84375 -0.734375,0.84375 -0.140625,0 -0.171875,-0.09375 -0.171875,-0.25 0,-0.15625 0.046875,-0.28125 0.109375,-0.4375 C 1.46875,-1 1.546875,-1.1875 1.609375,-1.375 1.671875,-1.546875 1.9375,-2.171875 1.953125,-2.265625 1.984375,-2.328125 2,-2.40625 2,-2.484375 2,-2.8125 1.71875,-3.078125 1.34375,-3.078125 0.640625,-3.078125 0.328125,-2.125 0.328125,-2 c 0,0.078125 0.09375,0.078125 0.125,0.078125 0.09375,0 0.09375,-0.03125 0.125,-0.109375 C 0.75,-2.625 1.0625,-2.875 1.3125,-2.875 c 0.109375,0 0.171875,0.046875 0.171875,0.234375 0,0.171875 -0.03125,0.265625 -0.203125,0.703125 z m 0,0"
                 style="stroke:none" />
            </symbol>
          </g>
        </defs>
        <g
           transform="translate(-149.118,-127.953)"
           id="id-cd4033f0-bbb6-4d32-acdd-fa3864ba0484">
          <g
             id="id-fda54bb9-3fa6-404b-8df0-1212cc6e146d"
             style="fill:#000000;fill-opacity:1">
            <g
               transform="translate(148.712,134.765)"
               id="g1530">
              <path
                 id="id-3f5ef283-f9c3-4d6c-9ef8-f220e90d3767"
                 d="m 3.734375,-6.125 c 0.0625,-0.234375 0.09375,-0.328125 0.28125,-0.359375 C 4.109375,-6.5 4.421875,-6.5 4.625,-6.5 c 0.703125,0 1.8125,0 1.8125,0.984375 0,0.34375 -0.15625,1.03125 -0.546875,1.421875 -0.265625,0.25 -0.78125,0.578125 -1.6875,0.578125 H 3.09375 Z m 1.4375,2.734375 c 1.015625,-0.21875 2.1875,-0.921875 2.1875,-1.921875 0,-0.859375 -0.890625,-1.5 -2.203125,-1.5 H 2.328125 c -0.203125,0 -0.296875,0 -0.296875,0.203125 C 2.03125,-6.5 2.125,-6.5 2.3125,-6.5 c 0.015625,0 0.203125,0 0.375,0.015625 0.1875,0.03125 0.265625,0.03125 0.265625,0.171875 0,0.03125 0,0.0625 -0.03125,0.1875 l -1.34375,5.34375 C 1.484375,-0.390625 1.46875,-0.3125 0.671875,-0.3125 0.5,-0.3125 0.40625,-0.3125 0.40625,-0.109375 0.40625,0 0.53125,0 0.546875,0 c 0.28125,0 0.984375,-0.03125 1.25,-0.03125 0.28125,0 1,0.03125 1.28125,0.03125 0.078125,0 0.1875,0 0.1875,-0.203125 0,-0.109375 -0.078125,-0.109375 -0.28125,-0.109375 -0.359375,0 -0.640625,0 -0.640625,-0.171875 0,-0.0625 0.015625,-0.109375 0.03125,-0.171875 l 0.65625,-2.640625 h 1.1875 c 0.90625,0 1.078125,0.5625 1.078125,0.90625 0,0.140625 -0.078125,0.453125 -0.140625,0.6875 C 5.09375,-1.421875 5,-1.0625 5,-0.859375 5,0.21875 6.203125,0.21875 6.328125,0.21875 c 0.84375,0 1.203125,-1 1.203125,-1.140625 0,-0.125 -0.109375,-0.125 -0.125,-0.125 -0.09375,0 -0.109375,0.0625 -0.125,0.140625 C 7.03125,-0.171875 6.59375,0 6.375,0 6.046875,0 5.96875,-0.21875 5.96875,-0.609375 c 0,-0.3125 0.0625,-0.8125 0.109375,-1.140625 0.015625,-0.140625 0.03125,-0.328125 0.03125,-0.46875 0,-0.765625 -0.671875,-1.078125 -0.9375,-1.171875 z m 0,0"
                 style="stroke:none" />
            </g>
          </g>
          <g
             id="id-7548b4a5-3dca-4228-a77d-be2463c14472"
             style="fill:#000000;fill-opacity:1">
            <g
               transform="translate(156.277,136.259)"
               id="g1534">
              <path
                 id="id-59c883ea-ec31-4d63-84a3-ce76a111e8eb"
                 d="m 2.265625,-4.359375 c 0,-0.109375 -0.09375,-0.265625 -0.28125,-0.265625 -0.1875,0 -0.390625,0.1875 -0.390625,0.390625 0,0.109375 0.078125,0.265625 0.28125,0.265625 0.1875,0 0.390625,-0.203125 0.390625,-0.390625 z M 0.84375,-0.8125 c -0.03125,0.09375 -0.0625,0.171875 -0.0625,0.296875 0,0.328125 0.265625,0.578125 0.65625,0.578125 0.6875,0 1,-0.953125 1,-1.0625 0,-0.09375 -0.09375,-0.09375 -0.109375,-0.09375 -0.09375,0 -0.109375,0.046875 -0.140625,0.125 -0.15625,0.5625 -0.453125,0.84375 -0.734375,0.84375 -0.140625,0 -0.171875,-0.09375 -0.171875,-0.25 0,-0.15625 0.046875,-0.28125 0.109375,-0.4375 C 1.46875,-1 1.546875,-1.1875 1.609375,-1.375 1.671875,-1.546875 1.9375,-2.171875 1.953125,-2.265625 1.984375,-2.328125 2,-2.40625 2,-2.484375 2,-2.8125 1.71875,-3.078125 1.34375,-3.078125 0.640625,-3.078125 0.328125,-2.125 0.328125,-2 c 0,0.078125 0.09375,0.078125 0.125,0.078125 0.09375,0 0.09375,-0.03125 0.125,-0.109375 C 0.75,-2.625 1.0625,-2.875 1.3125,-2.875 c 0.109375,0 0.171875,0.046875 0.171875,0.234375 0,0.171875 -0.03125,0.265625 -0.203125,0.703125 z m 0,0"
                 style="stroke:none" />
            </g>
          </g>
        </g>
      </g>
      <g
         transform="matrix(0.705556,0,0,0.705556,86.637408,197.58603)"
         ns21:version="1.0.1"
         ns21:texconverter="pdflatex"
         ns21:pdfconverter="inkscape"
         ns21:text="$R_e$"
         ns21:preamble="C:\\Users\\claum\\AppData\\Roaming\\inkscape\\extensions\\textext\\default_packages.tex"
         ns21:scale="2.0"
         ns21:alignment="middle center"
         ns21:jacobian_sqrt="0.705556"
         id="g1630">
        <defs
           id="id-e97a7c9a-8814-4490-8c59-7822e4a8cad1">
          <g
             id="id-323877c7-9c23-4386-8489-8385883e561f">
            <symbol
               id="id-b833d179-9882-4497-b190-3af3b78211bd"
               overflow="visible">
              <path
                 id="id-afcc8388-4d26-4a2c-960e-fa61b4d96b5d"
                 d=""
                 style="stroke:none" />
            </symbol>
            <symbol
               id="id-0853afcb-dd65-43e9-876f-160e6683bc08"
               overflow="visible">
              <path
                 id="id-53bb9146-ff6c-4e3f-a647-d50104101f86"
                 d="m 3.734375,-6.125 c 0.0625,-0.234375 0.09375,-0.328125 0.28125,-0.359375 C 4.109375,-6.5 4.421875,-6.5 4.625,-6.5 c 0.703125,0 1.8125,0 1.8125,0.984375 0,0.34375 -0.15625,1.03125 -0.546875,1.421875 -0.265625,0.25 -0.78125,0.578125 -1.6875,0.578125 H 3.09375 Z m 1.4375,2.734375 c 1.015625,-0.21875 2.1875,-0.921875 2.1875,-1.921875 0,-0.859375 -0.890625,-1.5 -2.203125,-1.5 H 2.328125 c -0.203125,0 -0.296875,0 -0.296875,0.203125 C 2.03125,-6.5 2.125,-6.5 2.3125,-6.5 c 0.015625,0 0.203125,0 0.375,0.015625 0.1875,0.03125 0.265625,0.03125 0.265625,0.171875 0,0.03125 0,0.0625 -0.03125,0.1875 l -1.34375,5.34375 C 1.484375,-0.390625 1.46875,-0.3125 0.671875,-0.3125 0.5,-0.3125 0.40625,-0.3125 0.40625,-0.109375 0.40625,0 0.53125,0 0.546875,0 c 0.28125,0 0.984375,-0.03125 1.25,-0.03125 0.28125,0 1,0.03125 1.28125,0.03125 0.078125,0 0.1875,0 0.1875,-0.203125 0,-0.109375 -0.078125,-0.109375 -0.28125,-0.109375 -0.359375,0 -0.640625,0 -0.640625,-0.171875 0,-0.0625 0.015625,-0.109375 0.03125,-0.171875 l 0.65625,-2.640625 h 1.1875 c 0.90625,0 1.078125,0.5625 1.078125,0.90625 0,0.140625 -0.078125,0.453125 -0.140625,0.6875 C 5.09375,-1.421875 5,-1.0625 5,-0.859375 5,0.21875 6.203125,0.21875 6.328125,0.21875 c 0.84375,0 1.203125,-1 1.203125,-1.140625 0,-0.125 -0.109375,-0.125 -0.125,-0.125 -0.09375,0 -0.109375,0.0625 -0.125,0.140625 C 7.03125,-0.171875 6.59375,0 6.375,0 6.046875,0 5.96875,-0.21875 5.96875,-0.609375 c 0,-0.3125 0.0625,-0.8125 0.109375,-1.140625 0.015625,-0.140625 0.03125,-0.328125 0.03125,-0.46875 0,-0.765625 -0.671875,-1.078125 -0.9375,-1.171875 z m 0,0"
                 style="stroke:none" />
            </symbol>
            <symbol
               id="id-12250c36-cef7-4a81-a4e6-a0089aaec47e"
               overflow="visible">
              <path
                 id="id-e246b6de-76dc-4dfa-8cbd-5744bd78eef3"
                 d=""
                 style="stroke:none" />
            </symbol>
            <symbol
               id="id-83878d1a-483c-4422-9af1-fa2b94ddca05"
               overflow="visible">
              <path
                 id="id-8ebfaca5-1e38-4c70-907e-e3f2d5964f4b"
                 d="m 1.5625,-1.59375 c 0.1875,0 0.75,-0.015625 1.125,-0.140625 0.515625,-0.1875 0.609375,-0.515625 0.609375,-0.71875 0,-0.390625 -0.390625,-0.625 -0.859375,-0.625 -0.84375,0 -1.96875,0.640625 -1.96875,1.84375 0,0.703125 0.4375,1.296875 1.25,1.296875 1.1875,0 1.734375,-0.6875 1.734375,-0.78125 0,-0.046875 -0.0625,-0.125 -0.125,-0.125 -0.03125,0 -0.046875,0.015625 -0.109375,0.078125 C 2.671875,-0.125 1.859375,-0.125 1.734375,-0.125 1.3125,-0.125 1.03125,-0.40625 1.03125,-0.96875 c 0,-0.09375 0,-0.234375 0.09375,-0.625 z M 1.171875,-1.78125 C 1.46875,-2.796875 2.234375,-2.875 2.4375,-2.875 2.734375,-2.875 3,-2.71875 3,-2.453125 3,-1.78125 1.8125,-1.78125 1.515625,-1.78125 Z m 0,0"
                 style="stroke:none" />
            </symbol>
          </g>
        </defs>
        <g
           transform="translate(-149.118,-127.953)"
           id="id-a8cf93fc-9d26-444c-afb6-b38347de910d">
          <g
             id="id-a3058688-5db6-41ac-8282-2e254a6c90fa"
             style="fill:#000000;fill-opacity:1">
            <g
               transform="translate(148.712,134.765)"
               id="g1622">
              <path
                 id="id-a78280d0-2d88-4601-b3c1-1df8687f8fb0"
                 d="m 3.734375,-6.125 c 0.0625,-0.234375 0.09375,-0.328125 0.28125,-0.359375 C 4.109375,-6.5 4.421875,-6.5 4.625,-6.5 c 0.703125,0 1.8125,0 1.8125,0.984375 0,0.34375 -0.15625,1.03125 -0.546875,1.421875 -0.265625,0.25 -0.78125,0.578125 -1.6875,0.578125 H 3.09375 Z m 1.4375,2.734375 c 1.015625,-0.21875 2.1875,-0.921875 2.1875,-1.921875 0,-0.859375 -0.890625,-1.5 -2.203125,-1.5 H 2.328125 c -0.203125,0 -0.296875,0 -0.296875,0.203125 C 2.03125,-6.5 2.125,-6.5 2.3125,-6.5 c 0.015625,0 0.203125,0 0.375,0.015625 0.1875,0.03125 0.265625,0.03125 0.265625,0.171875 0,0.03125 0,0.0625 -0.03125,0.1875 l -1.34375,5.34375 C 1.484375,-0.390625 1.46875,-0.3125 0.671875,-0.3125 0.5,-0.3125 0.40625,-0.3125 0.40625,-0.109375 0.40625,0 0.53125,0 0.546875,0 c 0.28125,0 0.984375,-0.03125 1.25,-0.03125 0.28125,0 1,0.03125 1.28125,0.03125 0.078125,0 0.1875,0 0.1875,-0.203125 0,-0.109375 -0.078125,-0.109375 -0.28125,-0.109375 -0.359375,0 -0.640625,0 -0.640625,-0.171875 0,-0.0625 0.015625,-0.109375 0.03125,-0.171875 l 0.65625,-2.640625 h 1.1875 c 0.90625,0 1.078125,0.5625 1.078125,0.90625 0,0.140625 -0.078125,0.453125 -0.140625,0.6875 C 5.09375,-1.421875 5,-1.0625 5,-0.859375 5,0.21875 6.203125,0.21875 6.328125,0.21875 c 0.84375,0 1.203125,-1 1.203125,-1.140625 0,-0.125 -0.109375,-0.125 -0.125,-0.125 -0.09375,0 -0.109375,0.0625 -0.125,0.140625 C 7.03125,-0.171875 6.59375,0 6.375,0 6.046875,0 5.96875,-0.21875 5.96875,-0.609375 c 0,-0.3125 0.0625,-0.8125 0.109375,-1.140625 0.015625,-0.140625 0.03125,-0.328125 0.03125,-0.46875 0,-0.765625 -0.671875,-1.078125 -0.9375,-1.171875 z m 0,0"
                 style="stroke:none" />
            </g>
          </g>
          <g
             id="id-410d1a96-3668-471d-9dae-ac6b435ee08e"
             style="fill:#000000;fill-opacity:1">
            <g
               transform="translate(156.277,136.259)"
               id="g1626">
              <path
                 id="id-1fad075b-f315-4590-9d50-5181a77acf6e"
                 d="m 1.5625,-1.59375 c 0.1875,0 0.75,-0.015625 1.125,-0.140625 0.515625,-0.1875 0.609375,-0.515625 0.609375,-0.71875 0,-0.390625 -0.390625,-0.625 -0.859375,-0.625 -0.84375,0 -1.96875,0.640625 -1.96875,1.84375 0,0.703125 0.4375,1.296875 1.25,1.296875 1.1875,0 1.734375,-0.6875 1.734375,-0.78125 0,-0.046875 -0.0625,-0.125 -0.125,-0.125 -0.03125,0 -0.046875,0.015625 -0.109375,0.078125 C 2.671875,-0.125 1.859375,-0.125 1.734375,-0.125 1.3125,-0.125 1.03125,-0.40625 1.03125,-0.96875 c 0,-0.09375 0,-0.234375 0.09375,-0.625 z M 1.171875,-1.78125 C 1.46875,-2.796875 2.234375,-2.875 2.4375,-2.875 2.734375,-2.875 3,-2.71875 3,-2.453125 3,-1.78125 1.8125,-1.78125 1.515625,-1.78125 Z m 0,0"
                 style="stroke:none" />
            </g>
          </g>
        </g>
      </g>
      <g
         transform="matrix(0.705556,0,0,0.705556,118.28047,93.585499)"
         ns21:version="1.0.1"
         ns21:texconverter="pdflatex"
         ns21:pdfconverter="inkscape"
         ns21:text="$\\mathbf{P}$"
         ns21:preamble="C:\\Users\\claum\\AppData\\Roaming\\inkscape\\extensions\\textext\\default_packages.tex"
         ns21:scale="2.0"
         ns21:alignment="middle center"
         ns21:jacobian_sqrt="0.705556"
         id="g1732">
        <defs
           id="id-55491dcc-4a7d-4b4b-9e1a-87a04c9aa352">
          <g
             id="id-7a117504-5343-4619-99c0-c67ea31670e5">
            <symbol
               id="id-a8e646ef-dedf-44c0-b7d0-566a1005a3b0"
               overflow="visible">
              <path
                 id="id-dea3bcee-22b1-4839-9e9a-46f67d14b7d3"
                 d=""
                 style="stroke:none" />
            </symbol>
            <symbol
               id="id-f26dcfba-1b5a-42b7-bcf5-188a34f0879f"
               overflow="visible">
              <path
                 id="id-6b6d5502-8381-4808-b140-d4a536d2ac14"
                 d="m 2.875,-3.015625 h 1.765625 c 1.390625,0 2.546875,-0.71875 2.546875,-1.875 0,-1.09375 -0.984375,-1.953125 -2.640625,-1.953125 H 0.390625 V -6.375 H 1.46875 v 5.90625 H 0.390625 V 0 c 0.375,-0.03125 1.359375,-0.03125 1.78125,-0.03125 0.4375,0 1.40625,0 1.78125,0.03125 V -0.46875 H 2.875 Z m 1.28125,-0.40625 H 2.828125 V -6.375 h 1.34375 c 1.484375,0 1.484375,0.765625 1.484375,1.484375 0,0.703125 0,1.46875 -1.5,1.46875 z m 0,0"
                 style="stroke:none" />
            </symbol>
          </g>
        </defs>
        <g
           transform="translate(-149.103,-127.921)"
           id="id-b907c933-f51c-4143-9064-e53fd3770ff0">
          <g
             id="id-655008cb-64ea-4ed3-8783-d689dfdf0d60"
             style="fill:#000000;fill-opacity:1">
            <g
               transform="translate(148.712,134.765)"
               id="g1728">
              <path
                 id="id-ac63c3c4-3228-47dc-a0a7-57ed6fc33f61"
                 d="m 2.875,-3.015625 h 1.765625 c 1.390625,0 2.546875,-0.71875 2.546875,-1.875 0,-1.09375 -0.984375,-1.953125 -2.640625,-1.953125 H 0.390625 V -6.375 H 1.46875 v 5.90625 H 0.390625 V 0 c 0.375,-0.03125 1.359375,-0.03125 1.78125,-0.03125 0.4375,0 1.40625,0 1.78125,0.03125 V -0.46875 H 2.875 Z m 1.28125,-0.40625 H 2.828125 V -6.375 h 1.34375 c 1.484375,0 1.484375,0.765625 1.484375,1.484375 0,0.703125 0,1.46875 -1.5,1.46875 z m 0,0"
                 style="stroke:none" />
            </g>
          </g>
        </g>
      </g>
      <g
         transform="matrix(0.705556,0,0,0.705556,172.86137,176.01901)"
         ns21:version="1.0.1"
         ns21:texconverter="pdflatex"
         ns21:pdfconverter="inkscape"
         ns21:text="$x$"
         ns21:preamble="C:\\Users\\claum\\AppData\\Roaming\\inkscape\\extensions\\textext\\default_packages.tex"
         ns21:scale="2.0"
         ns21:alignment="middle center"
         ns21:jacobian_sqrt="0.705556"
         id="g1838">
        <defs
           id="id-1463d84a-4b82-4882-acbf-daea05f03c1a">
          <g
             id="id-c7bec967-0285-4f1a-bb65-86dbcce2c6e5">
            <symbol
               id="id-1aece60c-5c0d-45cd-ae56-c1e96e4f3ce2"
               overflow="visible">
              <path
                 id="id-aaeb3e91-e219-49e6-82ed-1bf3d5bc998c"
                 d=""
                 style="stroke:none" />
            </symbol>
            <symbol
               id="id-a76a89dc-e8a2-4052-aa2e-8bbea6551df2"
               overflow="visible">
              <path
                 id="id-49463f1d-3069-4e86-b6d6-0a8b87533a85"
                 d="M 3.328125,-3.015625 C 3.390625,-3.265625 3.625,-4.1875 4.3125,-4.1875 c 0.046875,0 0.296875,0 0.5,0.125 C 4.53125,-4 4.34375,-3.765625 4.34375,-3.515625 c 0,0.15625 0.109375,0.34375 0.375,0.34375 0.21875,0 0.53125,-0.171875 0.53125,-0.578125 0,-0.515625 -0.578125,-0.65625 -0.921875,-0.65625 -0.578125,0 -0.921875,0.53125 -1.046875,0.75 -0.25,-0.65625 -0.78125,-0.75 -1.078125,-0.75 -1.03125,0 -1.609375,1.28125 -1.609375,1.53125 0,0.109375 0.109375,0.109375 0.125,0.109375 0.078125,0 0.109375,-0.03125 0.125,-0.109375 0.34375,-1.0625 1,-1.3125 1.34375,-1.3125 0.1875,0 0.53125,0.09375 0.53125,0.671875 0,0.3125 -0.171875,0.96875 -0.53125,2.375 -0.15625,0.609375 -0.515625,1.03125 -0.953125,1.03125 -0.0625,0 -0.28125,0 -0.5,-0.125 0.25,-0.0625 0.46875,-0.265625 0.46875,-0.546875 0,-0.265625 -0.21875,-0.34375 -0.359375,-0.34375 -0.3125,0 -0.546875,0.25 -0.546875,0.578125 0,0.453125 0.484375,0.65625 0.921875,0.65625 0.671875,0 1.03125,-0.703125 1.046875,-0.75 0.125,0.359375 0.484375,0.75 1.078125,0.75 1.03125,0 1.59375,-1.28125 1.59375,-1.53125 0,-0.109375 -0.078125,-0.109375 -0.109375,-0.109375 -0.09375,0 -0.109375,0.046875 -0.140625,0.109375 -0.328125,1.078125 -1,1.3125 -1.3125,1.3125 -0.390625,0 -0.546875,-0.3125 -0.546875,-0.65625 0,-0.21875 0.046875,-0.4375 0.15625,-0.875 z m 0,0"
                 style="stroke:none" />
            </symbol>
          </g>
        </defs>
        <g
           transform="translate(-149.009,-130.359)"
           id="id-78c8606d-8a0e-4ad2-9f76-28132da05940">
          <g
             id="id-9738e729-1f4e-4f91-a4db-b0d2691117b7"
             style="fill:#000000;fill-opacity:1">
            <g
               transform="translate(148.712,134.765)"
               id="g1834">
              <path
                 id="id-01b4a6f9-b3c7-45db-90a9-2ff5134e6e1b"
                 d="M 3.328125,-3.015625 C 3.390625,-3.265625 3.625,-4.1875 4.3125,-4.1875 c 0.046875,0 0.296875,0 0.5,0.125 C 4.53125,-4 4.34375,-3.765625 4.34375,-3.515625 c 0,0.15625 0.109375,0.34375 0.375,0.34375 0.21875,0 0.53125,-0.171875 0.53125,-0.578125 0,-0.515625 -0.578125,-0.65625 -0.921875,-0.65625 -0.578125,0 -0.921875,0.53125 -1.046875,0.75 -0.25,-0.65625 -0.78125,-0.75 -1.078125,-0.75 -1.03125,0 -1.609375,1.28125 -1.609375,1.53125 0,0.109375 0.109375,0.109375 0.125,0.109375 0.078125,0 0.109375,-0.03125 0.125,-0.109375 0.34375,-1.0625 1,-1.3125 1.34375,-1.3125 0.1875,0 0.53125,0.09375 0.53125,0.671875 0,0.3125 -0.171875,0.96875 -0.53125,2.375 -0.15625,0.609375 -0.515625,1.03125 -0.953125,1.03125 -0.0625,0 -0.28125,0 -0.5,-0.125 0.25,-0.0625 0.46875,-0.265625 0.46875,-0.546875 0,-0.265625 -0.21875,-0.34375 -0.359375,-0.34375 -0.3125,0 -0.546875,0.25 -0.546875,0.578125 0,0.453125 0.484375,0.65625 0.921875,0.65625 0.671875,0 1.03125,-0.703125 1.046875,-0.75 0.125,0.359375 0.484375,0.75 1.078125,0.75 1.03125,0 1.59375,-1.28125 1.59375,-1.53125 0,-0.109375 -0.078125,-0.109375 -0.109375,-0.109375 -0.09375,0 -0.109375,0.046875 -0.140625,0.109375 -0.328125,1.078125 -1,1.3125 -1.3125,1.3125 -0.390625,0 -0.546875,-0.3125 -0.546875,-0.65625 0,-0.21875 0.046875,-0.4375 0.15625,-0.875 z m 0,0"
                 style="stroke:none" />
            </g>
          </g>
        </g>
      </g>
      <g
         transform="matrix(0.705556,0,0,0.705556,14.88342,19.133855)"
         ns21:version="1.0.1"
         ns21:texconverter="pdflatex"
         ns21:pdfconverter="inkscape"
         ns21:text="$y$"
         ns21:preamble="C:\\Users\\claum\\AppData\\Roaming\\inkscape\\extensions\\textext\\default_packages.tex"
         ns21:scale="2.0"
         ns21:alignment="middle center"
         ns21:jacobian_sqrt="0.705556"
         id="g1955">
        <defs
           id="id-b758833c-d1d5-45ef-98cc-7c26773e9f98">
          <g
             id="id-672380de-6346-4d24-9ca3-2710af0f23c2">
            <symbol
               id="id-a8fd3516-0693-47b6-9574-bcadcf2abf62"
               overflow="visible">
              <path
                 id="id-b0780206-e98a-4084-9043-152dc5d369ef"
                 d=""
                 style="stroke:none" />
            </symbol>
            <symbol
               id="id-7ba723ea-3868-4b26-bea7-97e8b68ac8a2"
               overflow="visible">
              <path
                 id="id-a2ffc1f5-9fcb-4b47-bc76-03088072a6e2"
                 d="m 4.84375,-3.796875 c 0.046875,-0.140625 0.046875,-0.15625 0.046875,-0.234375 0,-0.171875 -0.140625,-0.265625 -0.296875,-0.265625 -0.09375,0 -0.25,0.0625 -0.34375,0.203125 -0.015625,0.0625 -0.109375,0.359375 -0.140625,0.546875 -0.078125,0.25 -0.140625,0.53125 -0.203125,0.796875 l -0.453125,1.796875 c -0.03125,0.140625 -0.46875,0.84375 -1.125,0.84375 -0.5,0 -0.609375,-0.4375 -0.609375,-0.8125 C 1.71875,-1.375 1.890625,-2 2.21875,-2.875 2.375,-3.28125 2.421875,-3.390625 2.421875,-3.59375 c 0,-0.4375 -0.3125,-0.8125 -0.8125,-0.8125 -0.953125,0 -1.3125,1.453125 -1.3125,1.53125 0,0.109375 0.09375,0.109375 0.109375,0.109375 0.109375,0 0.109375,-0.03125 0.15625,-0.1875 0.28125,-0.9375 0.671875,-1.234375 1.015625,-1.234375 0.078125,0 0.25,0 0.25,0.3125 0,0.25 -0.109375,0.515625 -0.171875,0.703125 -0.40625,1.0625 -0.578125,1.625 -0.578125,2.09375 0,0.890625 0.625,1.1875 1.21875,1.1875 0.390625,0 0.71875,-0.171875 1,-0.453125 -0.125,0.515625 -0.25,1.015625 -0.640625,1.546875 -0.265625,0.328125 -0.640625,0.625 -1.09375,0.625 -0.140625,0 -0.59375,-0.03125 -0.765625,-0.421875 0.15625,0 0.296875,0 0.421875,-0.125 C 1.328125,1.203125 1.421875,1.0625 1.421875,0.875 1.421875,0.5625 1.15625,0.53125 1.0625,0.53125 0.828125,0.53125 0.5,0.6875 0.5,1.171875 c 0,0.5 0.4375,0.875 1.0625,0.875 1.015625,0 2.046875,-0.90625 2.328125,-2.03125 z m 0,0"
                 style="stroke:none" />
            </symbol>
          </g>
        </defs>
        <g
           transform="translate(-149.009,-130.359)"
           id="id-adbeefe0-ac76-4c07-898c-3fa99fb13683">
          <g
             id="id-045891f9-a11b-422c-bfba-53e67c5e4afd"
             style="fill:#000000;fill-opacity:1">
            <g
               transform="translate(148.712,134.765)"
               id="g1951">
              <path
                 id="id-5083e8d9-226b-434f-b671-3c836e06fdfd"
                 d="m 4.84375,-3.796875 c 0.046875,-0.140625 0.046875,-0.15625 0.046875,-0.234375 0,-0.171875 -0.140625,-0.265625 -0.296875,-0.265625 -0.09375,0 -0.25,0.0625 -0.34375,0.203125 -0.015625,0.0625 -0.109375,0.359375 -0.140625,0.546875 -0.078125,0.25 -0.140625,0.53125 -0.203125,0.796875 l -0.453125,1.796875 c -0.03125,0.140625 -0.46875,0.84375 -1.125,0.84375 -0.5,0 -0.609375,-0.4375 -0.609375,-0.8125 C 1.71875,-1.375 1.890625,-2 2.21875,-2.875 2.375,-3.28125 2.421875,-3.390625 2.421875,-3.59375 c 0,-0.4375 -0.3125,-0.8125 -0.8125,-0.8125 -0.953125,0 -1.3125,1.453125 -1.3125,1.53125 0,0.109375 0.09375,0.109375 0.109375,0.109375 0.109375,0 0.109375,-0.03125 0.15625,-0.1875 0.28125,-0.9375 0.671875,-1.234375 1.015625,-1.234375 0.078125,0 0.25,0 0.25,0.3125 0,0.25 -0.109375,0.515625 -0.171875,0.703125 -0.40625,1.0625 -0.578125,1.625 -0.578125,2.09375 0,0.890625 0.625,1.1875 1.21875,1.1875 0.390625,0 0.71875,-0.171875 1,-0.453125 -0.125,0.515625 -0.25,1.015625 -0.640625,1.546875 -0.265625,0.328125 -0.640625,0.625 -1.09375,0.625 -0.140625,0 -0.59375,-0.03125 -0.765625,-0.421875 0.15625,0 0.296875,0 0.421875,-0.125 C 1.328125,1.203125 1.421875,1.0625 1.421875,0.875 1.421875,0.5625 1.15625,0.53125 1.0625,0.53125 0.828125,0.53125 0.5,0.6875 0.5,1.171875 c 0,0.5 0.4375,0.875 1.0625,0.875 1.015625,0 2.046875,-0.90625 2.328125,-2.03125 z m 0,0"
                 style="stroke:none" />
            </g>
          </g>
        </g>
      </g>
      <g
         transform="matrix(0.705556,0,0,0.705556,45.935065,167.55599)"
         ns21:version="1.0.1"
         ns21:texconverter="pdflatex"
         ns21:pdfconverter="inkscape"
         ns21:text="$\\alpha$"
         ns21:preamble="C:\\Users\\claum\\AppData\\Roaming\\inkscape\\extensions\\textext\\default_packages.tex"
         ns21:scale="2.0"
         ns21:alignment="middle center"
         ns21:jacobian_sqrt="0.705556"
         id="g2083">
        <defs
           id="id-9270a6b9-a55f-4819-8381-9b7a4a42cab3">
          <g
             id="id-107fb3ee-7356-4c72-b3a4-67c0ea5ffc59">
            <symbol
               id="id-0873efad-a6c9-4d64-b1e8-6a3775c17536"
               overflow="visible">
              <path
                 id="id-832111fc-40c4-4003-89e5-10dfbd989035"
                 d=""
                 style="stroke:none" />
            </symbol>
            <symbol
               id="id-3f9b9bdd-d932-4a66-a0a2-ca4f7f37efc0"
               overflow="visible">
              <path
                 id="id-67a27835-c580-461b-b6d5-428aa4d593bd"
                 d="m 4.75,-2.359375 c 0,-1.5625 -0.921875,-2.046875 -1.65625,-2.046875 -1.375,0 -2.6875,1.421875 -2.6875,2.828125 0,0.9375 0.59375,1.6875 1.625,1.6875 0.625,0 1.34375,-0.234375 2.09375,-0.84375 0.125,0.53125 0.453125,0.84375 0.90625,0.84375 0.53125,0 0.84375,-0.546875 0.84375,-0.703125 0,-0.078125 -0.0625,-0.109375 -0.125,-0.109375 -0.0625,0 -0.09375,0.03125 -0.125,0.109375 -0.1875,0.484375 -0.546875,0.484375 -0.5625,0.484375 -0.3125,0 -0.3125,-0.78125 -0.3125,-1.015625 0,-0.203125 0,-0.234375 0.109375,-0.34375 C 5.796875,-2.65625 6,-3.8125 6,-3.8125 6,-3.84375 5.984375,-3.921875 5.875,-3.921875 c -0.09375,0 -0.09375,0.03125 -0.140625,0.21875 -0.1875,0.625 -0.515625,1.375 -0.984375,1.96875 z m -0.65625,1.375 c -0.890625,0.765625 -1.65625,0.875 -2.046875,0.875 -0.59375,0 -0.90625,-0.453125 -0.90625,-1.09375 0,-0.484375 0.265625,-1.5625 0.578125,-2.0625 C 2.1875,-4 2.734375,-4.1875 3.078125,-4.1875 c 0.984375,0 0.984375,1.3125 0.984375,2.078125 0,0.375 0,0.953125 0.03125,1.125 z m 0,0"
                 style="stroke:none" />
            </symbol>
          </g>
        </defs>
        <g
           transform="translate(-149.118,-130.359)"
           id="id-cd7e4545-d067-40b8-ab24-23f8e1745b7d">
          <g
             id="id-642002f2-8e3d-4ff3-b950-ef668ad6a9e8"
             style="fill:#000000;fill-opacity:1">
            <g
               transform="translate(148.712,134.765)"
               id="g2079">
              <path
                 id="id-5feeb5cc-8434-4f6a-abe5-2d445cb2a0b2"
                 d="m 4.75,-2.359375 c 0,-1.5625 -0.921875,-2.046875 -1.65625,-2.046875 -1.375,0 -2.6875,1.421875 -2.6875,2.828125 0,0.9375 0.59375,1.6875 1.625,1.6875 0.625,0 1.34375,-0.234375 2.09375,-0.84375 0.125,0.53125 0.453125,0.84375 0.90625,0.84375 0.53125,0 0.84375,-0.546875 0.84375,-0.703125 0,-0.078125 -0.0625,-0.109375 -0.125,-0.109375 -0.0625,0 -0.09375,0.03125 -0.125,0.109375 -0.1875,0.484375 -0.546875,0.484375 -0.5625,0.484375 -0.3125,0 -0.3125,-0.78125 -0.3125,-1.015625 0,-0.203125 0,-0.234375 0.109375,-0.34375 C 5.796875,-2.65625 6,-3.8125 6,-3.8125 6,-3.84375 5.984375,-3.921875 5.875,-3.921875 c -0.09375,0 -0.09375,0.03125 -0.140625,0.21875 -0.1875,0.625 -0.515625,1.375 -0.984375,1.96875 z m -0.65625,1.375 c -0.890625,0.765625 -1.65625,0.875 -2.046875,0.875 -0.59375,0 -0.90625,-0.453125 -0.90625,-1.09375 0,-0.484375 0.265625,-1.5625 0.578125,-2.0625 C 2.1875,-4 2.734375,-4.1875 3.078125,-4.1875 c 0.984375,0 0.984375,1.3125 0.984375,2.078125 0,0.375 0,0.953125 0.03125,1.125 z m 0,0"
                 style="stroke:none" />
            </g>
          </g>
        </g>
      </g>
      <g
         transform="matrix(0.705556,0,0,0.705556,65.269183,163.0158)"
         ns21:version="1.0.1"
         ns21:texconverter="pdflatex"
         ns21:pdfconverter="inkscape"
         ns21:text="$\\varphi$"
         ns21:preamble="C:\\Users\\claum\\AppData\\Roaming\\inkscape\\extensions\\textext\\default_packages.tex"
         ns21:scale="2.0"
         ns21:alignment="middle center"
         ns21:jacobian_sqrt="0.705556"
         id="g2222">
        <defs
           id="id-a69fe19c-0c00-4cfa-9f08-efc3ee4414bb">
          <g
             id="id-eb79e024-048b-490d-9a93-ed1985d03e0b">
            <symbol
               id="id-0d02a06f-bb00-4703-8502-2e167666c53e"
               overflow="visible">
              <path
                 id="id-82404d1e-5ca2-4940-8f52-ac9f53b447bd"
                 d=""
                 style="stroke:none" />
            </symbol>
            <symbol
               id="id-9e035695-2f59-4ba3-b76c-89fa8430762e"
               overflow="visible">
              <path
                 id="id-f8ccaa2a-3d46-4f55-bdd7-f694981f62e3"
                 d="M 1.6875,1.6875 C 1.65625,1.828125 1.640625,1.84375 1.640625,1.890625 c 0,0.21875 0.1875,0.28125 0.296875,0.28125 0.046875,0 0.265625,-0.03125 0.359375,-0.265625 C 2.328125,1.828125 2.375,1.5 2.65625,0.09375 c 0.078125,0 0.15625,0.015625 0.328125,0.015625 1.65625,0 3.1875,-1.5625 3.1875,-3.140625 0,-0.78125 -0.390625,-1.375 -1.140625,-1.375 -1.4375,0 -2.046875,1.9375 -2.640625,3.875 C 1.3125,-0.734375 0.75,-1.28125 0.75,-2 c 0,-0.28125 0.234375,-1.375 0.828125,-2.0625 0.09375,-0.09375 0.09375,-0.109375 0.09375,-0.140625 0,-0.03125 -0.03125,-0.09375 -0.125,-0.09375 -0.28125,0 -1.046875,1.453125 -1.046875,2.40625 0,0.9375 0.65625,1.65625 1.71875,1.90625 z m 1.390625,-2.15625 c -0.09375,0 -0.109375,0 -0.1875,-0.015625 -0.125,0 -0.125,0 -0.125,-0.03125 0,-0.015625 0.171875,-0.9375 0.1875,-1.078125 0.3125,-1.28125 1.09375,-2.234375 1.984375,-2.234375 0.6875,0 0.953125,0.53125 0.953125,1.015625 0,1.125 -1.28125,2.34375 -2.8125,2.34375 z m 0,0"
                 style="stroke:none" />
            </symbol>
          </g>
        </defs>
        <g
           transform="translate(-149.212,-130.359)"
           id="id-413bab4b-ab6d-475a-b5f6-f8c1c7323f76">
          <g
             id="id-a6402e80-636e-4a9c-9e17-76046fe856b8"
             style="fill:#000000;fill-opacity:1">
            <g
               transform="translate(148.712,134.765)"
               id="g2218">
              <path
                 id="id-c67c604a-9e03-4170-b1c7-eb71867d739f"
                 d="M 1.6875,1.6875 C 1.65625,1.828125 1.640625,1.84375 1.640625,1.890625 c 0,0.21875 0.1875,0.28125 0.296875,0.28125 0.046875,0 0.265625,-0.03125 0.359375,-0.265625 C 2.328125,1.828125 2.375,1.5 2.65625,0.09375 c 0.078125,0 0.15625,0.015625 0.328125,0.015625 1.65625,0 3.1875,-1.5625 3.1875,-3.140625 0,-0.78125 -0.390625,-1.375 -1.140625,-1.375 -1.4375,0 -2.046875,1.9375 -2.640625,3.875 C 1.3125,-0.734375 0.75,-1.28125 0.75,-2 c 0,-0.28125 0.234375,-1.375 0.828125,-2.0625 0.09375,-0.09375 0.09375,-0.109375 0.09375,-0.140625 0,-0.03125 -0.03125,-0.09375 -0.125,-0.09375 -0.28125,0 -1.046875,1.453125 -1.046875,2.40625 0,0.9375 0.65625,1.65625 1.71875,1.90625 z m 1.390625,-2.15625 c -0.09375,0 -0.109375,0 -0.1875,-0.015625 -0.125,0 -0.125,0 -0.125,-0.03125 0,-0.015625 0.171875,-0.9375 0.1875,-1.078125 0.3125,-1.28125 1.09375,-2.234375 1.984375,-2.234375 0.6875,0 0.953125,0.53125 0.953125,1.015625 0,1.125 -1.28125,2.34375 -2.8125,2.34375 z m 0,0"
                 style="stroke:none" />
            </g>
          </g>
        </g>
      </g>
      <g
         transform="matrix(0.705556,0,0,0.705556,89.081858,156.85044)"
         ns21:version="1.0.1"
         ns21:texconverter="pdflatex"
         ns21:pdfconverter="inkscape"
         ns21:text="$\\beta$"
         ns21:preamble="C:\\Users\\claum\\AppData\\Roaming\\inkscape\\extensions\\textext\\default_packages.tex"
         ns21:scale="2.0"
         ns21:alignment="middle center"
         ns21:jacobian_sqrt="0.705556"
         id="g2372">
        <defs
           id="id-775dbf91-78f0-4f0d-93ed-13f4361fbfed">
          <g
             id="id-87ffc994-77fc-4294-b3cd-4ede41ff1a19">
            <symbol
               id="id-8581777c-6ca0-42a3-89b4-19e5683326ab"
               overflow="visible">
              <path
                 id="id-3626aadd-1da2-454d-9b27-1f7714fc9f49"
                 d=""
                 style="stroke:none" />
            </symbol>
            <symbol
               id="id-152d2c89-0348-4452-b9e8-1f72b9ab9fed"
               overflow="visible">
              <path
                 id="id-64244ea8-a913-48d8-a8ce-b66523cd9ce1"
                 d="m 5.734375,-5.671875 c 0,-0.75 -0.546875,-1.359375 -1.359375,-1.359375 -0.578125,0 -0.859375,0.15625 -1.203125,0.40625 C 2.625,-6.21875 2.078125,-5.25 1.890625,-4.5 L 0.296875,1.828125 C 0.296875,1.875 0.34375,1.9375 0.421875,1.9375 0.5,1.9375 0.53125,1.90625 0.53125,1.890625 L 1.234375,-0.875 c 0.1875,0.609375 0.625,0.96875 1.359375,0.96875 C 3.3125,0.09375 4.0625,-0.25 4.515625,-0.6875 5,-1.140625 5.3125,-1.78125 5.3125,-2.515625 c 0,-0.71875 -0.375,-1.25 -0.734375,-1.484375 0.578125,-0.34375 1.15625,-0.953125 1.15625,-1.671875 z M 3.9375,-4.015625 c -0.125,0.046875 -0.234375,0.0625 -0.484375,0.0625 -0.140625,0 -0.328125,0.015625 -0.4375,-0.03125 0.03125,-0.109375 0.390625,-0.078125 0.5,-0.078125 0.203125,0 0.296875,0 0.421875,0.046875 z M 5.171875,-5.90625 c 0,0.703125 -0.375,1.421875 -0.890625,1.734375 C 4,-4.28125 3.8125,-4.296875 3.515625,-4.296875 c -0.21875,0 -0.78125,-0.015625 -0.78125,0.3125 0,0.28125 0.515625,0.25 0.6875,0.25 0.375,0 0.53125,0 0.828125,-0.125 0.375,0.359375 0.421875,0.671875 0.4375,1.125 0.015625,0.578125 -0.21875,1.328125 -0.5,1.71875 C 3.796875,-0.484375 3.125,-0.125 2.5625,-0.125 c -0.765625,0 -1.140625,-0.578125 -1.140625,-1.28125 0,-0.09375 0,-0.25 0.046875,-0.4375 L 2.109375,-4.359375 C 2.328125,-5.21875 3.046875,-6.8125 4.25,-6.8125 c 0.578125,0 0.921875,0.3125 0.921875,0.90625 z m 0,0"
                 style="stroke:none" />
            </symbol>
          </g>
        </defs>
        <g
           transform="translate(-149.009,-127.734)"
           id="id-7e8294b8-b57c-4daa-a756-fc728bf5284a">
          <g
             id="id-1ef0c07e-7ddd-4039-97bf-2846a42625b8"
             style="fill:#000000;fill-opacity:1">
            <g
               transform="translate(148.712,134.765)"
               id="g2368">
              <path
                 id="id-93b44a75-4194-45da-a73a-25f070b3450f"
                 d="m 5.734375,-5.671875 c 0,-0.75 -0.546875,-1.359375 -1.359375,-1.359375 -0.578125,0 -0.859375,0.15625 -1.203125,0.40625 C 2.625,-6.21875 2.078125,-5.25 1.890625,-4.5 L 0.296875,1.828125 C 0.296875,1.875 0.34375,1.9375 0.421875,1.9375 0.5,1.9375 0.53125,1.90625 0.53125,1.890625 L 1.234375,-0.875 c 0.1875,0.609375 0.625,0.96875 1.359375,0.96875 C 3.3125,0.09375 4.0625,-0.25 4.515625,-0.6875 5,-1.140625 5.3125,-1.78125 5.3125,-2.515625 c 0,-0.71875 -0.375,-1.25 -0.734375,-1.484375 0.578125,-0.34375 1.15625,-0.953125 1.15625,-1.671875 z M 3.9375,-4.015625 c -0.125,0.046875 -0.234375,0.0625 -0.484375,0.0625 -0.140625,0 -0.328125,0.015625 -0.4375,-0.03125 0.03125,-0.109375 0.390625,-0.078125 0.5,-0.078125 0.203125,0 0.296875,0 0.421875,0.046875 z M 5.171875,-5.90625 c 0,0.703125 -0.375,1.421875 -0.890625,1.734375 C 4,-4.28125 3.8125,-4.296875 3.515625,-4.296875 c -0.21875,0 -0.78125,-0.015625 -0.78125,0.3125 0,0.28125 0.515625,0.25 0.6875,0.25 0.375,0 0.53125,0 0.828125,-0.125 0.375,0.359375 0.421875,0.671875 0.4375,1.125 0.015625,0.578125 -0.21875,1.328125 -0.5,1.71875 C 3.796875,-0.484375 3.125,-0.125 2.5625,-0.125 c -0.765625,0 -1.140625,-0.578125 -1.140625,-1.28125 0,-0.09375 0,-0.25 0.046875,-0.4375 L 2.109375,-4.359375 C 2.328125,-5.21875 3.046875,-6.8125 4.25,-6.8125 c 0.578125,0 0.921875,0.3125 0.921875,0.90625 z m 0,0"
                 style="stroke:none" />
            </g>
          </g>
        </g>
      </g>
      <g
         transform="matrix(0.705556,0,0,0.705556,85.592189,121.31024)"
         ns21:version="1.0.1"
         ns21:texconverter="pdflatex"
         ns21:pdfconverter="inkscape"
         ns21:text="$r$"
         ns21:preamble="C:\\Users\\claum\\AppData\\Roaming\\inkscape\\extensions\\textext\\default_packages.tex"
         ns21:scale="2.0"
         ns21:alignment="middle center"
         ns21:jacobian_sqrt="0.705556"
         id="g2533">
        <defs
           id="id-ecaeb37a-a394-471c-b5d2-fb53b89d5e39">
          <g
             id="id-71f1be2e-2ff4-4e66-841a-c3276559d167">
            <symbol
               id="id-c88f8404-9ae5-4ba6-8fc2-0d6f3b7ddcf8"
               overflow="visible">
              <path
                 id="id-28cc2872-1081-42b0-8fe7-6bb141f36b43"
                 d=""
                 style="stroke:none" />
            </symbol>
            <symbol
               id="id-92cfbe4c-4e75-40d6-bcf2-58af312652ee"
               overflow="visible">
              <path
                 id="id-9fe02ffe-899c-4cf4-a2f8-2b5f0a02c09f"
                 d="m 0.875,-0.59375 c -0.03125,0.15625 -0.09375,0.390625 -0.09375,0.4375 0,0.171875 0.140625,0.265625 0.296875,0.265625 0.125,0 0.296875,-0.078125 0.375,-0.28125 C 1.46875,-0.203125 1.796875,-1.5625 1.84375,-1.75 c 0.078125,-0.328125 0.265625,-1.015625 0.3125,-1.296875 0.046875,-0.125 0.328125,-0.59375 0.5625,-0.8125 0.078125,-0.0625 0.375,-0.328125 0.796875,-0.328125 0.265625,0 0.40625,0.125 0.421875,0.125 -0.296875,0.046875 -0.515625,0.28125 -0.515625,0.546875 0,0.15625 0.109375,0.34375 0.375,0.34375 0.265625,0 0.546875,-0.234375 0.546875,-0.59375 0,-0.34375 -0.3125,-0.640625 -0.828125,-0.640625 C 2.875,-4.40625 2.4375,-3.921875 2.25,-3.640625 2.15625,-4.09375 1.796875,-4.40625 1.328125,-4.40625 0.875,-4.40625 0.6875,-4.015625 0.59375,-3.84375 0.421875,-3.5 0.296875,-2.90625 0.296875,-2.875 c 0,0.109375 0.09375,0.109375 0.109375,0.109375 0.109375,0 0.109375,-0.015625 0.171875,-0.234375 0.171875,-0.703125 0.375,-1.1875 0.734375,-1.1875 0.15625,0 0.296875,0.078125 0.296875,0.453125 0,0.21875 -0.03125,0.328125 -0.15625,0.84375 z m 0,0"
                 style="stroke:none" />
            </symbol>
          </g>
        </defs>
        <g
           transform="translate(-149.009,-130.359)"
           id="id-90f0ec93-fc81-4f63-9df7-c81e88cc8931">
          <g
             id="id-11007a83-e068-4fb4-8bfb-37bfbdc2b137"
             style="fill:#000000;fill-opacity:1">
            <g
               transform="translate(148.712,134.765)"
               id="g2529">
              <path
                 id="id-b8acb59c-c2f2-4471-a432-5df7ff0b7ffd"
                 d="m 0.875,-0.59375 c -0.03125,0.15625 -0.09375,0.390625 -0.09375,0.4375 0,0.171875 0.140625,0.265625 0.296875,0.265625 0.125,0 0.296875,-0.078125 0.375,-0.28125 C 1.46875,-0.203125 1.796875,-1.5625 1.84375,-1.75 c 0.078125,-0.328125 0.265625,-1.015625 0.3125,-1.296875 0.046875,-0.125 0.328125,-0.59375 0.5625,-0.8125 0.078125,-0.0625 0.375,-0.328125 0.796875,-0.328125 0.265625,0 0.40625,0.125 0.421875,0.125 -0.296875,0.046875 -0.515625,0.28125 -0.515625,0.546875 0,0.15625 0.109375,0.34375 0.375,0.34375 0.265625,0 0.546875,-0.234375 0.546875,-0.59375 0,-0.34375 -0.3125,-0.640625 -0.828125,-0.640625 C 2.875,-4.40625 2.4375,-3.921875 2.25,-3.640625 2.15625,-4.09375 1.796875,-4.40625 1.328125,-4.40625 0.875,-4.40625 0.6875,-4.015625 0.59375,-3.84375 0.421875,-3.5 0.296875,-2.90625 0.296875,-2.875 c 0,0.109375 0.09375,0.109375 0.109375,0.109375 0.109375,0 0.109375,-0.015625 0.171875,-0.234375 0.171875,-0.703125 0.375,-1.1875 0.734375,-1.1875 0.15625,0 0.296875,0.078125 0.296875,0.453125 0,0.21875 -0.03125,0.328125 -0.15625,0.84375 z m 0,0"
                 style="stroke:none" />
            </g>
          </g>
        </g>
      </g>
      <path
         d="m 73.547483,84.68018 a 105,105 0 0 1 45.041707,54.19263 L 20,174.99998 Z"
         sodipodi:arc-type="slice"
         sodipodi:end="5.931939"
         sodipodi:start="5.2475459"
         sodipodi:ry="105"
         sodipodi:rx="105"
         sodipodi:cy="174.99998"
         sodipodi:cx="20"
         sodipodi:type="arc"
         id="path2549"
         style="opacity:1;fill:none;fill-opacity:1;stroke:#000000;stroke-width:0.2;stroke-miterlimit:4;stroke-dasharray:0.2, 0.2;stroke-dashoffset:0;stroke-opacity:1" />
    </g>
    <path
       transform="scale(0.26458333)"
       id="path5330"
       d="m 331.80814,325.74287 c -23.01556,-26.55924 -57.7497,-55.78624 -88.63939,-74.58547 -2.71262,-1.65089 -5.04709,-3.10544 -5.18771,-3.23234 -0.44197,-0.39886 35.73419,-61.02892 36.41414,-61.02892 0.35564,0 1.27051,0.38962 2.03302,0.86582 1.62645,1.01573 2.53218,0.40532 1.8883,-1.2726 -0.38867,-1.01285 -0.62568,-1.04292 -1.65055,-0.20938 -1.04022,0.84603 -1.13777,0.81588 -0.74596,-0.23055 0.24792,-0.66212 0.18589,-1.30497 -0.13784,-1.42857 -0.91596,-0.34971 27.71948,-48.0924 28.7902,-48.00071 0.52123,0.0446 6.54108,3.64034 13.37745,7.99046 42.38795,26.9723 81.01707,60.26551 114.6428,98.80697 3.30069,3.78321 5.98253,7.15821 5.95965,7.5 -0.0229,0.34178 -9.06228,8.1013 -20.08755,17.24337 -15.55761,12.90026 -20.2578,16.4461 -20.99223,15.8366 -0.52045,-0.43195 -2.39917,-0.69602 -4.17493,-0.58682 -1.77575,0.1092 -3.43124,-0.004 -3.67885,-0.25166 -0.24762,-0.24762 -0.87748,-0.28626 -1.39969,-0.0859 -0.66653,0.25578 -0.83375,-0.0782 -0.56115,-1.12064 0.27499,-1.05156 0.0513,-1.48499 -0.7664,-1.48499 -1.36458,0 -1.46413,1.31953 -0.22262,2.95065 0.51086,0.67118 0.86568,3.14013 0.83712,5.82501 l -0.0496,4.66007 -24.0623,20.06785 c -13.23428,11.03732 -24.14799,20.05581 -24.25269,20.0411 -0.10471,-0.0147 -3.40467,-3.73593 -7.33324,-8.26938 z m 54.23569,-46.78481 c -0.60865,-0.98481 -2.44998,-0.74504 -2.44998,0.31903 0,0.52381 0.2115,1.16388 0.47,1.42238 0.64595,0.64595 2.46609,-0.95487 1.97998,-1.74141 z m -2.23368,-1.69499 c 0.0775,-0.38748 -0.42165,-0.81284 -1.10915,-0.94524 -0.78186,-0.15057 -1.25,0.19977 -1.25,0.93545 0,1.24271 2.11092,1.25146 2.35915,0.01 z m -2.00201,-1.7955 c 0.76918,-1.24457 -0.37092,-2.30634 -1.4843,-1.38232 -0.54999,0.45644 -0.82383,1.11491 -0.60854,1.46325 0.52106,0.84309 1.54627,0.80344 2.09284,-0.0809 z m -2.14286,-2.14286 c 0.76919,-1.24456 -0.37092,-2.30634 -1.4843,-1.38232 -0.54998,0.45644 -0.82383,1.11491 -0.60853,1.46326 0.52105,0.84308 1.54626,0.80343 2.09283,-0.0809 z m -2.14286,-2.14286 c 0.76919,-1.24456 -0.37092,-2.30634 -1.4843,-1.38232 -0.54998,0.45645 -0.82382,1.11492 -0.60853,1.46326 0.52106,0.84309 1.54626,0.80344 2.09283,-0.0809 z m -2.14285,-2.73809 c 0,-1.2919 -1.39807,-1.05605 -1.67536,0.28263 -0.15428,0.74479 0.11349,1.07133 0.71429,0.87106 0.52858,-0.1762 0.96107,-0.69536 0.96107,-1.15369 z m -2.14286,-2.97619 c -0.34559,-0.55917 -0.75648,-0.60067 -1.23267,-0.12447 -0.39286,0.39285 -0.48101,1.09172 -0.1959,1.55304 0.34558,0.55917 0.75648,0.60066 1.23267,0.12447 0.39286,-0.39286 0.48101,-1.09172 0.1959,-1.55304 z M 371.451,263.6397 c 0,-1.17862 -1.12889,-1.37775 -1.78572,-0.31499 -0.58251,0.94252 0.27158,2.28005 1.12079,1.75521 0.3657,-0.22602 0.66493,-0.87412 0.66493,-1.44022 z m -2.11259,-2.71329 c -0.95371,-0.95371 -2.55299,0.49152 -1.83301,1.65647 0.37056,0.59958 0.77216,0.58645 1.53946,-0.0504 0.72021,-0.59772 0.81011,-1.08956 0.29355,-1.60612 z m -2.14286,-2.14286 c -0.95371,-0.95371 -2.55299,0.49152 -1.83301,1.65647 0.37056,0.59958 0.77216,0.58645 1.53946,-0.0504 0.72022,-0.59772 0.81011,-1.08956 0.29355,-1.60611 z m -2.14285,-2.14285 c -0.95372,-0.95372 -2.553,0.49151 -1.83302,1.65646 0.37057,0.59959 0.77217,0.58645 1.53947,-0.0504 0.72021,-0.59772 0.8101,-1.08955 0.29355,-1.60611 z m -2.14286,-2.14286 c -0.95372,-0.95371 -2.55299,0.49151 -1.83301,1.65646 0.37056,0.59959 0.77216,0.58645 1.53946,-0.0503 0.72021,-0.59772 0.81011,-1.08956 0.29355,-1.60612 z m -2.14286,-2.14286 c -0.95371,-0.95371 -2.55299,0.49152 -1.83301,1.65647 0.37056,0.59958 0.77216,0.58645 1.53946,-0.0504 0.72022,-0.59772 0.81011,-1.08956 0.29355,-1.60611 z m -2.14285,-2.14285 c -0.95372,-0.95372 -2.553,0.49151 -1.83302,1.65646 0.37057,0.59959 0.77217,0.58645 1.53947,-0.0504 0.72021,-0.59772 0.8101,-1.08955 0.29355,-1.60611 z m -1.93751,-0.75687 c 0.44232,-1.15267 -1.39569,-2.14287 -2.04062,-1.09935 -0.48602,0.78641 0.17698,2.11166 1.05645,2.11166 0.32764,0 0.77051,-0.45554 0.98417,-1.01231 z m -2.37848,-2.15982 c 0,-0.5661 -0.29922,-1.2142 -0.66493,-1.44022 -0.84921,-0.52484 -1.70329,0.81269 -1.12078,1.75521 0.65682,1.06276 1.78571,0.86363 1.78571,-0.31499 z m -2.27884,-2.36358 c -0.28995,-1.5056 -1.55762,-1.41067 -1.88067,0.14084 -0.13475,0.64713 0.25899,1.10916 0.94522,1.10916 0.73569,0 1.08603,-0.46815 0.93545,-1.25 z m -2.00687,-1.84524 c 0,-0.52381 -0.2115,-1.16388 -0.47,-1.42238 -0.64595,-0.64595 -2.46609,0.95487 -1.97998,1.74141 0.60865,0.98481 2.44998,0.74504 2.44998,-0.31903 z m -2.14286,-2.14286 c 0,-0.52381 -0.2115,-1.16388 -0.46999,-1.42238 -0.64595,-0.64595 -2.4661,0.95488 -1.97999,1.74141 0.60865,0.98482 2.44998,0.74504 2.44998,-0.31903 z m -2.14286,-1.67019 c 0,-0.26384 -1.80781,-2.21674 -4.01735,-4.33979 -2.88011,-2.76737 -4.23603,-3.6414 -4.78986,-3.08757 -0.55384,0.55384 0.30308,1.78235 3.0271,4.3398 3.3856,3.17857 5.78011,4.45764 5.78011,3.08756 z m -9.42169,-8.62743 c -0.28995,-1.5056 -1.55763,-1.41066 -1.88068,0.14084 -0.13475,0.64713 0.25899,1.10916 0.94523,1.10916 0.73568,0 1.08602,-0.46814 0.93545,-1.25 z m -2.00688,-2.00644 c 0,-0.5661 -0.31034,-1.02927 -0.68966,-1.02927 -0.37931,0 -1.70301,-0.99059 -2.94155,-2.2013 -1.64683,-1.60983 -2.46443,-1.98877 -3.04288,-1.41032 -0.57845,0.57845 0.0563,1.54266 2.36235,3.58853 3.11603,2.76446 4.31174,3.05629 4.31174,1.05236 z m -7.14286,-5.67213 c 0,-0.58929 -0.48214,-1.07143 -1.07143,-1.07143 -0.58928,0 -1.07142,0.48214 -1.07142,1.07143 0,0.58929 0.48214,1.07143 1.07142,1.07143 0.58929,0 1.07143,-0.48214 1.07143,-1.07143 z m -4.61211,-4.30336 c -2.97279,-2.64475 -4.6736,-3.15822 -4.6736,-1.41093 0,0.58929 0.30159,1.07143 0.6702,1.07143 0.36861,0 1.72212,0.96078 3.00779,2.13507 1.57959,1.44272 2.57242,1.90024 3.06173,1.41093 0.48931,-0.48932 -0.18066,-1.52909 -2.06612,-3.2065 z m -7.14286,-5.71428 c -2.97278,-2.64476 -4.6736,-3.15822 -4.6736,-1.41093 0,0.58928 0.30159,1.07143 0.6702,1.07143 0.36862,0 1.72212,0.96078 3.00779,2.13506 1.57959,1.44272 2.57242,1.90024 3.06173,1.41093 0.48932,-0.48931 -0.18066,-1.52909 -2.06612,-3.20649 z m -4.87043,-2.96328 c 0.32281,-0.96844 -3.19557,-3.28546 -4.12071,-2.71369 -1.07029,0.66147 0.0218,1.92274 1.25503,1.44949 0.72649,-0.27878 0.9522,-0.0842 0.69125,0.59576 -0.2131,0.55533 -0.18862,1.20853 0.0544,1.45155 0.5935,0.59349 1.81108,0.14372 2.12002,-0.78311 z m -5.36269,-4.65003 c -1.09108,-1.09108 -1.89617,-0.28599 -1.29102,1.29101 0.35731,0.93113 0.66708,1.0234 1.30253,0.38795 0.63544,-0.63544 0.63271,-1.03474 -0.0115,-1.67896 z m -1.71092,-1.27201 c 0.22655,-0.67967 -0.13866,-0.83689 -1.26178,-0.54319 -1.16125,0.30368 -1.47917,0.14897 -1.19825,-0.58309 0.51369,-1.33867 -0.89841,-2.12832 -1.93891,-1.08424 -0.6318,0.63396 -0.40318,1.16214 0.9551,2.20656 1.94096,1.49247 2.94728,1.49362 3.44384,0.004 z m -4.87242,-3.2399 c 0,-0.58928 -0.36635,-1.07143 -0.81411,-1.07143 -0.44776,0 -1.22969,-0.5625 -1.73763,-1.25 -0.75991,-1.02855 -1.09021,-1.08499 -1.86446,-0.31857 -0.7771,0.76924 -0.63001,1.17068 0.84478,2.30554 2.15244,1.65632 3.57142,1.78921 3.57142,0.33446 z m -5,-3.57143 c 0,-0.58928 -0.34438,-1.07142 -0.7653,-1.07142 -0.42092,0 -1.26811,-0.50281 -1.88266,-1.11735 -0.82334,-0.82335 -1.32677,-0.90717 -1.91326,-0.31858 -0.58557,0.58767 -0.32398,1.16193 0.9898,2.17289 2.15244,1.65633 3.57142,1.78921 3.57142,0.33446 z m -5,-3.61358 c 0,-0.5661 -0.48214,-1.02927 -1.07142,-1.02927 -1.07588,0 -1.46834,1.50785 -0.61466,2.36153 0.6666,0.6666 1.68608,-0.13894 1.68608,-1.33226 z m -2.45064,-1.10913 c 0.61573,-0.99627 -1.24352,-2.22598 -2.08829,-1.38121 -0.68709,0.68709 -0.0252,2.17535 0.96751,2.17535 0.34648,0 0.85084,-0.35736 1.12078,-0.79414 z m -3.97793,-3.51322 c -0.98214,-0.7552 -2.08705,-1.28026 -2.45535,-1.16679 -1.40757,0.43363 -1.04712,1.61383 0.84457,2.76527 2.7116,1.65051 4.07568,0.29685 1.61078,-1.59848 z"
       style="opacity:0.0291545;fill:#000000;stroke:#000000;stroke-width:0.715408" />
    <path
       transform="scale(0.26458333)"
       id="path5332"
       d="m 405.38543,446.67002 c -13.98329,-36.45316 -34.6106,-72.66994 -58.81848,-103.27162 -2.92031,-3.69162 -5.34642,-7.09654 -5.39137,-7.5665 -0.045,-0.46996 10.71482,-9.86624 23.91059,-20.88063 16.83773,-14.05429 24.29281,-19.86021 25,-19.46968 0.55423,0.30605 2.90765,0.66918 5.22982,0.80694 4.75905,0.28232 4.63182,0.47313 4.9343,-7.4005 l 0.12928,-3.36526 19.91993,-16.59612 19.91993,-16.59613 1.71644,2.10424 c 34.79702,42.65883 62.42618,89.56356 82.83873,140.63147 2.50278,6.26141 4.30561,11.6087 4.0063,11.88287 -0.2993,0.27417 -11.72908,4.59358 -25.39949,9.59868 -23.20428,8.4957 -24.91703,9.01577 -25.7845,7.82943 -1.11821,-1.52924 -2.8016,-0.75047 -2.23521,1.03406 0.34117,1.07493 -3.97418,2.85003 -30.50666,12.54874 -16.99722,6.21319 -32.38844,11.86917 -34.20271,12.56887 l -3.29866,1.27216 z m 70.74689,-24.12183 c 0.61295,-0.99177 -0.74569,-2.39003 -1.73075,-1.78122 -0.82032,0.50698 -0.29506,2.55774 0.65512,2.55774 0.32764,0 0.81167,-0.34943 1.07563,-0.77652 z m -1.22025,-3.82921 c 0.15785,-0.8143 -0.0996,-1.15775 -0.71429,-0.95305 -0.52858,0.17601 -1.07213,0.8929 -1.20786,1.59309 -0.15785,0.8143 0.0996,1.15775 0.71429,0.95305 0.52859,-0.17602 1.07213,-0.89291 1.20786,-1.59309 z m -1.05036,-1.67838 c 0.6277,-1.01563 -0.61065,-2.24408 -1.62822,-1.61519 -0.53104,0.3282 -0.74465,0.95409 -0.47471,1.39087 0.57359,0.92809 1.60029,1.03761 2.10293,0.22432 z m -1.30082,-3.06384 c 0.26396,-0.42709 0.19988,-1.05656 -0.14239,-1.39883 -0.84477,-0.84477 -2.70401,0.38494 -2.08829,1.38121 0.62396,1.00959 1.61278,1.0174 2.23068,0.0176 z m -1.10989,-3.15205 c 0,-0.58928 -0.48215,-1.07143 -1.07143,-1.07143 -0.58929,0 -1.07143,0.48215 -1.07143,1.07143 0,0.58929 0.48214,1.07143 1.07143,1.07143 0.58928,0 1.07143,-0.48214 1.07143,-1.07143 z m -1.17027,-2.85714 c -0.22613,-0.58929 -0.8589,-1.07143 -1.40616,-1.07143 -0.54725,0 -0.995,0.48214 -0.995,1.07143 0,0.58954 0.63243,1.07143 1.40615,1.07143 0.95645,0 1.27467,-0.34265 0.99501,-1.07143 z m -0.97259,-2.53427 c 0,-0.32764 -0.34944,-0.81167 -0.77652,-1.07562 -0.99177,-0.61295 -2.39003,0.74568 -1.78122,1.73074 0.50698,0.82033 2.55774,0.29506 2.55774,-0.65512 z m -1.74725,-2.17082 c 0.73608,-1.19102 -0.91944,-2.5568 -1.9048,-1.57143 -0.82423,0.82423 -0.30837,2.34795 0.79491,2.34795 0.34648,0 0.84593,-0.34944 1.10989,-0.77652 z m -1.46704,-2.79491 c 0.65117,-1.05361 -0.24945,-2.13934 -1.40634,-1.69541 -0.5519,0.21179 -0.82864,0.84061 -0.61499,1.39738 0.4528,1.17998 1.39078,1.31828 2.02133,0.29803 z m -1.07143,-3.09524 c 0,-1.32774 -0.68402,-1.87154 -1.81044,-1.43929 -1.19384,0.45812 -0.5346,2.39167 0.81544,2.39167 0.54725,0 0.995,-0.42857 0.995,-0.95238 z m -1.42857,-2.97619 c 0,-0.58929 -0.45205,-1.07143 -1.00455,-1.07143 -0.6529,0 -0.87378,-0.5001 -0.63098,-1.42857 0.2598,-0.99351 0.0219,-1.42857 -0.78116,-1.42857 -1.38871,0 -1.43488,0.54055 -0.26188,3.06631 0.95981,2.0667 2.67857,2.62 2.67857,0.86226 z m -2.62152,-5.7734 c -0.21366,-0.55677 -0.65653,-1.01231 -0.98417,-1.01231 -0.87946,0 -1.54247,1.32525 -1.05644,2.11166 0.64493,1.04351 2.48293,0.0533 2.04061,-1.09935 z M 459.576,387.0406 c 0.56475,-0.91377 -0.74533,-2.51799 -1.61658,-1.97953 -1.14672,0.70871 -0.97695,2.54936 0.23513,2.54936 0.5661,0 1.18775,-0.25643 1.38145,-0.56983 z m -1.48013,-3.34896 c 0.0775,-0.38748 -0.42166,-0.81284 -1.10916,-0.94524 -0.78186,-0.15057 -1.25,0.19977 -1.25,0.93545 0,1.24271 2.11093,1.25146 2.35916,0.01 z m -0.93059,-2.54405 c 0,-0.32764 -0.34943,-0.81167 -0.77652,-1.07563 -0.99177,-0.61295 -2.39003,0.74569 -1.78122,1.73074 0.50698,0.82033 2.55774,0.29507 2.55774,-0.65511 z m -1.90723,-3.23914 c -0.21366,-0.55677 -0.65653,-1.01231 -0.98418,-1.01231 -0.87946,0 -1.54247,1.32525 -1.05644,2.11166 0.64493,1.04352 2.48294,0.0533 2.04062,-1.09935 z m -1.33337,-1.68402 c 0.485,-0.78475 -2.52976,-3.81445 -3.13599,-3.15153 -0.22502,0.24606 -0.0414,0.57951 0.40791,0.74099 0.44936,0.16149 0.65295,0.92105 0.4524,1.68793 -0.38099,1.45691 1.46047,2.04164 2.27568,0.72261 z m -3.18797,-6.15616 c 0,-1.17862 -1.12889,-1.37775 -1.78571,-0.31499 -0.58251,0.94252 0.27157,2.28005 1.12078,1.75521 0.36571,-0.22602 0.66493,-0.87412 0.66493,-1.44022 z m -1.42857,-1.60116 c 0,-1.31377 -1.85017,-4.41739 -2.63642,-4.42254 -1.5277,-0.01 -1.8297,1.50956 -0.37557,1.88983 0.97775,0.25568 1.30657,0.79471 1.05998,1.73763 -0.24323,0.93014 0.0116,1.36697 0.79727,1.36697 0.63511,0 1.15474,-0.25735 1.15474,-0.57189 z m -3.17582,-5.20463 c 0.61295,-0.99178 -0.74569,-2.39003 -1.73075,-1.78123 -0.82032,0.50699 -0.29506,2.55775 0.65512,2.55775 0.32764,0 0.81167,-0.34944 1.07563,-0.77652 z m -1.42857,-2.85715 c 0.26395,-0.42709 0.19987,-1.05656 -0.14239,-1.39883 -0.84477,-0.84477 -2.70401,0.38494 -2.08829,1.38121 0.62396,1.00959 1.61278,1.0174 2.23068,0.0176 z m -1.28847,-2.97348 c -0.16369,-0.49107 -0.72619,-0.89285 -1.25,-0.89285 -0.52381,0 -1.08631,0.40178 -1.25,0.89285 -0.17704,0.53114 0.32937,0.89286 1.25,0.89286 0.92064,0 1.42704,-0.36172 1.25,-0.89286 z m -1.72866,-3.09482 c -0.21366,-0.55678 -0.65653,-1.01232 -0.98417,-1.01232 -0.87947,0 -1.54248,1.32525 -1.05645,2.11167 0.64493,1.04351 2.48294,0.0533 2.04062,-1.09935 z m -1.6642,-2.08375 c 0,-0.58928 -0.48214,-1.07143 -1.07142,-1.07143 -0.58929,0 -1.07143,0.48215 -1.07143,1.07143 0,0.58929 0.48214,1.07143 1.07143,1.07143 0.58928,0 1.07142,-0.48214 1.07142,-1.07143 z m -1.74725,-1.84795 c 0.61295,-0.99177 -0.74568,-2.39003 -1.73074,-1.78122 -0.82033,0.50699 -0.29506,2.55774 0.65512,2.55774 0.32764,0 0.81167,-0.34943 1.07562,-0.77652 z m -1.4795,-2.77473 c 0.58462,-0.94594 -1.69922,-4.30589 -2.92682,-4.30589 -1.30515,0 -1.25035,1.08039 0.1643,3.23942 1.22657,1.87198 2.06471,2.19555 2.76252,1.06647 z m -3.44195,-5.42196 c 0.11347,-0.3683 -0.41159,-1.47321 -1.16679,-2.45536 -1.11778,-1.45368 -1.54398,-1.61535 -2.29219,-0.86946 -0.74882,0.7465 -0.63901,0.9895 0.59273,1.31161 1.10544,0.28907 1.40903,0.78852 1.12937,1.85795 -0.26498,1.01328 -0.0886,1.36464 0.57406,1.14375 0.52609,-0.17537 1.04936,-0.62018 1.16282,-0.98849 z m -3.06344,-4.45375 c 0.19369,-0.3134 0.0654,-1.03392 -0.28524,-1.60117 -0.48182,-0.77959 -0.83872,-0.83004 -1.46207,-0.2067 -0.45355,0.45356 -0.60868,1.17408 -0.34472,1.60117 0.56404,0.91264 1.59291,1.01429 2.09203,0.2067 z m -1.69643,-3.35875 c 0,-0.58929 -0.46317,-1.07143 -1.02927,-1.07143 -1.19332,0 -1.99886,1.01949 -1.33226,1.68609 0.85368,0.85368 2.36153,0.46122 2.36153,-0.61466 z m -1.74725,-1.84795 c 0.73609,-1.19101 -0.91943,-2.55679 -1.9048,-1.57143 -0.82423,0.82423 -0.30837,2.34795 0.79491,2.34795 0.34649,0 0.84594,-0.34943 1.10989,-0.77652 z m -1.82418,-3.15205 c 0,-0.58929 -0.48214,-1.07143 -1.07142,-1.07143 -0.58929,0 -1.07143,0.48214 -1.07143,1.07143 0,0.58929 0.48214,1.07143 1.07143,1.07143 0.58928,0 1.07142,-0.48214 1.07142,-1.07143 z m -1.71874,-1.89407 c 0.27963,-0.45246 0.0256,-1.17567 -0.56444,-1.60714 -0.59007,-0.43148 -1.06382,-1.10593 -1.05278,-1.49879 0.0111,-0.39286 -0.51955,-0.81821 -1.17911,-0.94523 -1.51234,-0.29125 -1.52905,0.84923 -0.0456,3.11322 1.26585,1.93192 2.0647,2.19557 2.84197,0.93794 z m -3.52138,-5.29343 c 0.11346,-0.3683 -0.4116,-1.47321 -1.1668,-2.45536 -1.03084,-1.34062 -1.57731,-1.5822 -2.19244,-0.96921 -0.61605,0.61391 -0.51234,1.28506 0.41801,2.70495 1.18685,1.81135 2.5055,2.13398 2.94123,0.71962 z m -3.34719,-4.77679 c -0.009,-0.49107 -0.63424,-1.69642 -1.39,-2.67857 -1.04521,-1.35827 -1.57364,-1.58689 -2.2076,-0.95509 -1.12959,1.12573 -0.2071,2.43175 1.31494,1.86159 1.02659,-0.38456 1.08222,-0.28118 0.34046,0.63263 -0.48766,0.60077 -0.67516,1.30381 -0.41667,1.56231 0.80007,0.80007 2.37561,0.51763 2.35887,-0.42287 z m -3.55554,-5.17857 c 0,-0.58928 -0.46317,-1.07143 -1.02927,-1.07143 -1.19332,0 -1.99887,1.01949 -1.33227,1.68609 0.85369,0.85368 2.36154,0.46122 2.36154,-0.61466 z m -1.89586,-1.60749 c 0.18221,-0.29484 -0.4322,-1.4936 -1.36537,-2.66391 -1.15531,-1.4489 -1.92957,-1.89494 -2.42658,-1.39794 -0.497,0.49701 -0.23336,1.34699 0.82629,2.66391 1.59035,1.97646 2.3785,2.34798 2.96566,1.39794 z m -3.81843,-5.53536 c 0,-0.58929 -0.48214,-1.07143 -1.07143,-1.07143 -0.58928,0 -1.07143,0.48214 -1.07143,1.07143 0,0.58928 0.48215,1.07142 1.07143,1.07142 0.58929,0 1.07143,-0.48214 1.07143,-1.07142 z m -1.76461,-1.81986 c 0.65878,-1.06594 -3.10039,-4.67229 -3.96697,-3.80571 -0.43864,0.43864 -0.12481,1.38372 0.87007,2.62013 1.68028,2.08824 2.37472,2.35409 3.0969,1.18558 z m 9.62175,-3.89443 c 0,-0.59524 -0.63492,-1.07143 -1.42857,-1.07143 -1.18191,0 -1.42857,-0.47619 -1.42857,-2.75793 v -2.75794 l 4.33849,-0.3934 c 5.1943,-0.471 7.09008,-1.88089 7.09008,-5.27286 0,-4.40397 -1.72048,-5.24644 -10.71428,-5.24644 -4.76191,0 -7.85715,0.28139 -7.85715,0.71429 0,0.39285 0.64286,0.71428 1.42858,0.71428 1.33786,0 1.42857,0.47619 1.42857,7.5 0,7.02381 -0.0907,7.5 -1.42857,7.5 -0.79365,0 -1.42858,0.47619 -1.42858,1.07143 0,0.85034 1.03175,1.07143 5,1.07143 3.96826,0 5,-0.22109 5,-1.07143 z m -13.35512,-1.41879 c 0.0775,-0.38748 -0.42166,-0.81283 -1.10916,-0.94523 -0.78186,-0.15057 -1.25,0.19976 -1.25,0.93545 0,1.24271 2.11092,1.25146 2.35916,0.01 z"
       style="opacity:0.0291545;fill:#000000;stroke:#000000;stroke-width:0.715408" />
  </g>
</svg>
