<?xml version="1.0" encoding="UTF-8" standalone="no"?>
<svg
   xmlns:ns1="http://www.iki.fi/pav/software/textext/"
   xmlns:dc="http://purl.org/dc/elements/1.1/"
   xmlns:cc="http://creativecommons.org/ns#"
   xmlns:rdf="http://www.w3.org/1999/02/22-rdf-syntax-ns#"
   xmlns:svg="http://www.w3.org/2000/svg"
   xmlns="http://www.w3.org/2000/svg"
   xmlns:sodipodi="http://sodipodi.sourceforge.net/DTD/sodipodi-0.dtd"
   xmlns:inkscape="http://www.inkscape.org/namespaces/inkscape"
   width="15.3cm"
   height="15.3cm"
   viewBox="0 0 153 153"
   version="1.1"
   id="svg812"
   inkscape:version="1.0 (4035a4fb49, 2020-05-01)"
   sodipodi:docname="Esercizio6_1_2.svg">
  <defs
     id="defs806">
    <marker
       inkscape:isstock="true"
       style="overflow:visible"
       id="Arrow1Lstart"
       refX="0"
       refY="0"
       orient="auto"
       inkscape:stockid="Arrow1Lstart">
      <path
         transform="matrix(0.8,0,0,0.8,10,0)"
         style="fill:#000000;fill-opacity:1;fill-rule:evenodd;stroke:#000000;stroke-width:1pt;stroke-opacity:1"
         d="M 0,0 5,-5 -12.5,0 5,5 Z"
         id="path1641" />
    </marker>
    <marker
       inkscape:stockid="Arrow1Lend"
       orient="auto"
       refY="0"
       refX="0"
       id="marker2147"
       style="overflow:visible"
       inkscape:isstock="true">
      <path
         id="path2145"
         d="M 0,0 5,-5 -12.5,0 5,5 Z"
         style="fill:#000000;fill-opacity:1;fill-rule:evenodd;stroke:#000000;stroke-width:1pt;stroke-opacity:1"
         transform="matrix(-0.8,0,0,-0.8,-10,0)" />
    </marker>
    <marker
       inkscape:isstock="true"
       style="overflow:visible"
       id="marker2039"
       refX="0"
       refY="0"
       orient="auto"
       inkscape:stockid="Arrow1Lend">
      <path
         transform="matrix(-0.8,0,0,-0.8,-10,0)"
         style="fill:#000000;fill-opacity:1;fill-rule:evenodd;stroke:#000000;stroke-width:1pt;stroke-opacity:1"
         d="M 0,0 5,-5 -12.5,0 5,5 Z"
         id="path2037" />
    </marker>
    <marker
       inkscape:collect="always"
       inkscape:stockid="Arrow1Lend"
       orient="auto"
       refY="0"
       refX="0"
       id="marker1985"
       style="overflow:visible"
       inkscape:isstock="true">
      <path
         id="path1983"
         d="M 0,0 5,-5 -12.5,0 5,5 Z"
         style="fill:#000000;fill-opacity:1;fill-rule:evenodd;stroke:#000000;stroke-width:1pt;stroke-opacity:1"
         transform="matrix(-0.8,0,0,-0.8,-10,0)" />
    </marker>
    <marker
       inkscape:stockid="Arrow1Lend"
       orient="auto"
       refY="0"
       refX="0"
       id="marker1939"
       style="overflow:visible"
       inkscape:isstock="true">
      <path
         id="path1937"
         d="M 0,0 5,-5 -12.5,0 5,5 Z"
         style="fill:#000000;fill-opacity:1;fill-rule:evenodd;stroke:#000000;stroke-width:1pt;stroke-opacity:1"
         transform="matrix(-0.8,0,0,-0.8,-10,0)" />
    </marker>
    <marker
       inkscape:collect="always"
       inkscape:isstock="true"
       style="overflow:visible"
       id="Arrow1Lend"
       refX="0"
       refY="0"
       orient="auto"
       inkscape:stockid="Arrow1Lend">
      <path
         transform="matrix(-0.8,0,0,-0.8,-10,0)"
         style="fill:#000000;fill-opacity:1;fill-rule:evenodd;stroke:#000000;stroke-width:1pt;stroke-opacity:1"
         d="M 0,0 5,-5 -12.5,0 5,5 Z"
         id="path1644" />
    </marker>
  </defs>
  <sodipodi:namedview
     inkscape:window-maximized="0"
     inkscape:window-y="0"
     inkscape:window-x="0"
     inkscape:window-height="729"
     inkscape:window-width="1350"
     units="cm"
     showgrid="true"
     inkscape:document-rotation="0"
     inkscape:current-layer="layer1"
     inkscape:document-units="mm"
     inkscape:cy="168.98344"
     inkscape:cx="357.70177"
     inkscape:zoom="0.70710678"
     inkscape:pageshadow="2"
     inkscape:pageopacity="0.0"
     borderopacity="1.0"
     bordercolor="#666666"
     pagecolor="#ffffff"
     id="base">
    <inkscape:grid
       units="cm"
       id="grid814"
       type="xygrid" />
  </sodipodi:namedview>
  <metadata
     id="metadata809">
    <rdf:RDF>
      <cc:Work
         rdf:about="">
        <dc:format>image/svg+xml</dc:format>
        <dc:type
           rdf:resource="http://purl.org/dc/dcmitype/StillImage" />
        <dc:title></dc:title>
      </cc:Work>
    </rdf:RDF>
  </metadata>
  <g
     id="layer1"
     inkscape:groupmode="layer"
     inkscape:label="Livello 1">
    <g
       transform="translate(-75,-74.13753)"
       id="g2335">
      <path
         style="fill:none;stroke:#000000;stroke-width:0.5;stroke-linecap:butt;stroke-linejoin:miter;stroke-miterlimit:4;stroke-dasharray:none;stroke-opacity:1;marker-end:url(#Arrow1Lend)"
         d="M 75,151.13753 H 225"
         id="path816" />
      <path
         id="path1935"
         d="m 150,226.13753 v -150"
         style="fill:none;stroke:#000000;stroke-width:0.5;stroke-linecap:butt;stroke-linejoin:miter;stroke-miterlimit:4;stroke-dasharray:none;stroke-opacity:1;marker-end:url(#marker1939)" />
      <path
         id="path1981"
         d="M 87.199276,192.00116 212.80107,110"
         style="fill:none;stroke:#000000;stroke-width:0.5;stroke-linecap:butt;stroke-linejoin:miter;stroke-miterlimit:4;stroke-dasharray:none;stroke-opacity:1;marker-end:url(#marker1985)"
         inkscape:transform-center-x="0.0008856779"
         inkscape:transform-center-y="0.00058" />
      <path
         inkscape:transform-center-y="0.0008845"
         inkscape:transform-center-x="-0.0005813221"
         style="fill:none;stroke:#000000;stroke-width:0.5;stroke-linecap:butt;stroke-linejoin:miter;stroke-miterlimit:4;stroke-dasharray:none;stroke-opacity:1;marker-end:url(#marker2039)"
         d="M 191.00222,213.80178 109.00106,88.199989"
         id="path2035" />
      <path
         style="fill:none;stroke:#000000;stroke-width:0.264583px;stroke-linecap:butt;stroke-linejoin:miter;stroke-opacity:1"
         d="M 101.085,190.265 200,125"
         id="path2257"
         sodipodi:nodetypes="cc" />
      <path
         id="path2259"
         d="M 94.891,181.073 193.96,115.8"
         style="fill:none;stroke:#000000;stroke-width:0.264583px;stroke-linecap:butt;stroke-linejoin:miter;stroke-opacity:1"
         sodipodi:nodetypes="cc" />
      <path
         style="fill:none;stroke:#000000;stroke-width:0.264583px;stroke-linecap:butt;stroke-linejoin:miter;stroke-opacity:1"
         d="m 200,125 -6.2,-9.2"
         id="path2261"
         sodipodi:nodetypes="cc" />
      <path
         sodipodi:nodetypes="cc"
         id="path2263"
         d="M 101.2,190.2 95,181"
         style="fill:none;stroke:#000000;stroke-width:0.264583px;stroke-linecap:butt;stroke-linejoin:miter;stroke-opacity:1" />
      <circle
         style="opacity:1;fill:#000000;stroke:#000000;stroke-width:0.499999;stroke-miterlimit:4;stroke-dasharray:none"
         id="path2271"
         cx="150"
         cy="151"
         r="2" />
      <path
         style="opacity:1;fill:none;stroke:#000000;stroke-width:0.25;stroke-miterlimit:4;stroke-dasharray:none;marker-end:url(#marker2147)"
         id="path2275"
         transform="scale(1,-1)"
         sodipodi:type="arc"
         sodipodi:cx="150"
         sodipodi:cy="-151"
         sodipodi:rx="65"
         sodipodi:ry="65"
         sodipodi:start="0"
         sodipodi:end="0.56720467"
         sodipodi:open="true"
         sodipodi:arc-type="arc"
         d="m 215,-151 a 65,65 0 0 1 -10.1786,34.92298" />
    </g>
    <g
       transform="matrix(1.5875,0,0,1.5875,103.42735,93.327737)"
       ns1:version="1.0.1"
       ns1:texconverter="pdflatex"
       ns1:pdfconverter="inkscape"
       ns1:text="$\\mathbf{G}_{3}$"
       ns1:preamble="C:\\Users\\claum\\AppData\\Roaming\\inkscape\\extensions\\textext\\default_packages.tex"
       ns1:scale="4.5"
       ns1:alignment="middle center"
       ns1:inkscapeversion="1.0"
       ns1:jacobian_sqrt="1.5875"
       id="g2441">
      <defs
         id="id-8a54dda7-ecc6-4a51-ba75-911a616a58ef">
        <g
           id="id-c736e8e1-4df9-4b73-9434-aa3eac6bf25e">
          <symbol
             id="id-48323b32-836c-4e79-a773-a470e11a0b85"
             overflow="visible">
            <path
               id="id-3c3e9371-df39-4f7e-84c6-01e158dc664e"
               d=""
               style="stroke:none" />
          </symbol>
          <symbol
             id="id-c02c909b-86d0-4b54-9310-99629b29365a"
             overflow="visible">
            <path
               id="id-7fb6e459-66d5-48ad-a8ee-2a3c8c0592af"
               d="M 6.515625,-0.53125 C 6.8125,-0.265625 7.421875,0 7.484375,0 7.625,0 7.625,-0.125 7.625,-0.28125 v -2 H 8.421875 V -2.75 c -0.34375,0.03125 -1.21875,0.03125 -1.609375,0.03125 -0.578125,0 -1.5,0 -2.03125,-0.03125 v 0.46875 h 1.421875 v 1 c 0,0.1875 0,0.484375 -0.375,0.71875 C 5.5625,-0.421875 5.25,-0.359375 4.921875,-0.359375 c -0.859375,0 -1.71875,-0.28125 -2.203125,-0.90625 -0.421875,-0.546875 -0.5625,-1.25 -0.5625,-2.15625 0,-1.125 0.203125,-1.703125 0.578125,-2.1875 0.390625,-0.5 1.15625,-0.875 2.125,-0.875 1.0625,0 2.015625,0.765625 2.234375,2.03125 C 7.125,-4.265625 7.125,-4.25 7.359375,-4.25 c 0.25,0 0.265625,-0.015625 0.265625,-0.28125 v -2.140625 c 0,-0.1875 0,-0.28125 -0.171875,-0.28125 -0.09375,0 -0.109375,0.03125 -0.203125,0.09375 l -0.65625,0.59375 c -0.71875,-0.578125 -1.4375,-0.6875 -1.953125,-0.6875 -2.453125,0 -4,1.46875 -4,3.53125 0,1.984375 1.4375,3.53125 4.015625,3.53125 0.328125,0 1.359375,-0.015625 1.859375,-0.640625 z m 0,0"
               style="stroke:none" />
          </symbol>
          <symbol
             id="id-d720c7e1-0538-4094-b51e-3c1a0a6afe1f"
             overflow="visible">
            <path
               id="id-8d8ef860-2190-475d-8381-ceb8293a1e22"
               d=""
               style="stroke:none" />
          </symbol>
          <symbol
             id="id-bff4500f-4dd6-4186-ba84-c5a6fdce07d1"
             overflow="visible">
            <path
               id="id-24fdb65a-2322-42d4-b069-53ee3cdfadd9"
               d="m 1.90625,-2.328125 c 0.546875,0 0.9375,0.375 0.9375,1.125 0,0.859375 -0.515625,1.125 -0.90625,1.125 -0.28125,0 -0.90625,-0.078125 -1.1875,-0.5 0.328125,0 0.40625,-0.234375 0.40625,-0.390625 0,-0.21875 -0.171875,-0.375 -0.390625,-0.375 -0.1875,0 -0.390625,0.125 -0.390625,0.40625 0,0.65625 0.71875,1.078125 1.5625,1.078125 0.96875,0 1.640625,-0.65625 1.640625,-1.34375 0,-0.546875 -0.4375,-1.09375 -1.203125,-1.25 0.71875,-0.265625 0.984375,-0.78125 0.984375,-1.21875 0,-0.546875 -0.625,-0.953125 -1.40625,-0.953125 -0.765625,0 -1.359375,0.375 -1.359375,0.9375 0,0.234375 0.15625,0.359375 0.359375,0.359375 0.21875,0 0.359375,-0.15625 0.359375,-0.34375 0,-0.203125 -0.140625,-0.359375 -0.359375,-0.375 0.25,-0.296875 0.71875,-0.375 0.984375,-0.375 0.3125,0 0.75,0.15625 0.75,0.75 0,0.296875 -0.09375,0.625 -0.28125,0.828125 -0.21875,0.265625 -0.421875,0.28125 -0.765625,0.3125 -0.171875,0.015625 -0.1875,0.015625 -0.21875,0.015625 -0.015625,0 -0.078125,0.015625 -0.078125,0.09375 0,0.09375 0.0625,0.09375 0.1875,0.09375 z m 0,0"
               style="stroke:none" />
          </symbol>
        </g>
      </defs>
      <g
         transform="translate(-149.353,-127.812)"
         id="id-9a6fdf05-8feb-4039-b77e-960071578180">
        <g
           id="id-3173def7-22fc-4f41-aee9-fe3e801bb388"
           style="fill:#000000;fill-opacity:1">
          <g
             transform="translate(148.712,134.765)"
             id="g2433">
            <path
               id="id-3cdcbb18-e5c9-46d5-9d56-3ac36cdd47c1"
               d="M 6.515625,-0.53125 C 6.8125,-0.265625 7.421875,0 7.484375,0 7.625,0 7.625,-0.125 7.625,-0.28125 v -2 H 8.421875 V -2.75 c -0.34375,0.03125 -1.21875,0.03125 -1.609375,0.03125 -0.578125,0 -1.5,0 -2.03125,-0.03125 v 0.46875 h 1.421875 v 1 c 0,0.1875 0,0.484375 -0.375,0.71875 C 5.5625,-0.421875 5.25,-0.359375 4.921875,-0.359375 c -0.859375,0 -1.71875,-0.28125 -2.203125,-0.90625 -0.421875,-0.546875 -0.5625,-1.25 -0.5625,-2.15625 0,-1.125 0.203125,-1.703125 0.578125,-2.1875 0.390625,-0.5 1.15625,-0.875 2.125,-0.875 1.0625,0 2.015625,0.765625 2.234375,2.03125 C 7.125,-4.265625 7.125,-4.25 7.359375,-4.25 c 0.25,0 0.265625,-0.015625 0.265625,-0.28125 v -2.140625 c 0,-0.1875 0,-0.28125 -0.171875,-0.28125 -0.09375,0 -0.109375,0.03125 -0.203125,0.09375 l -0.65625,0.59375 c -0.71875,-0.578125 -1.4375,-0.6875 -1.953125,-0.6875 -2.453125,0 -4,1.46875 -4,3.53125 0,1.984375 1.4375,3.53125 4.015625,3.53125 0.328125,0 1.359375,-0.015625 1.859375,-0.640625 z m 0,0"
               style="stroke:none" />
          </g>
        </g>
        <g
           id="id-8b07031f-2844-4f9f-83f4-3969c3565a9a"
           style="fill:#000000;fill-opacity:1">
          <g
             transform="translate(157.72,136.259)"
             id="g2437">
            <path
               id="id-3809daf0-353e-4a19-9e92-7a5f3a7302b2"
               d="m 1.90625,-2.328125 c 0.546875,0 0.9375,0.375 0.9375,1.125 0,0.859375 -0.515625,1.125 -0.90625,1.125 -0.28125,0 -0.90625,-0.078125 -1.1875,-0.5 0.328125,0 0.40625,-0.234375 0.40625,-0.390625 0,-0.21875 -0.171875,-0.375 -0.390625,-0.375 -0.1875,0 -0.390625,0.125 -0.390625,0.40625 0,0.65625 0.71875,1.078125 1.5625,1.078125 0.96875,0 1.640625,-0.65625 1.640625,-1.34375 0,-0.546875 -0.4375,-1.09375 -1.203125,-1.25 0.71875,-0.265625 0.984375,-0.78125 0.984375,-1.21875 0,-0.546875 -0.625,-0.953125 -1.40625,-0.953125 -0.765625,0 -1.359375,0.375 -1.359375,0.9375 0,0.234375 0.15625,0.359375 0.359375,0.359375 0.21875,0 0.359375,-0.15625 0.359375,-0.34375 0,-0.203125 -0.140625,-0.359375 -0.359375,-0.375 0.25,-0.296875 0.71875,-0.375 0.984375,-0.375 0.3125,0 0.75,0.15625 0.75,0.75 0,0.296875 -0.09375,0.625 -0.28125,0.828125 -0.21875,0.265625 -0.421875,0.28125 -0.765625,0.3125 -0.171875,0.015625 -0.1875,0.015625 -0.21875,0.015625 -0.015625,0 -0.078125,0.015625 -0.078125,0.09375 0,0.09375 0.0625,0.09375 0.1875,0.09375 z m 0,0"
               style="stroke:none" />
          </g>
        </g>
      </g>
    </g>
    <path
       sodipodi:nodetypes="ccc"
       id="path2464"
       d="M 77.43,78 92,83 104,94.999999"
       style="fill:none;stroke:#000000;stroke-width:0.264583px;stroke-linecap:butt;stroke-linejoin:miter;stroke-opacity:1;marker-start:url(#Arrow1Lstart)" />
    <g
       transform="matrix(1.41111,0,0,1.41111,127.87014,57.230043)"
       ns1:version="1.0.1"
       ns1:texconverter="pdflatex"
       ns1:pdfconverter="inkscape"
       ns1:text="$\\alpha$"
       ns1:preamble="C:\\Users\\claum\\AppData\\Roaming\\inkscape\\extensions\\textext\\default_packages.tex"
       ns1:scale="4.0"
       ns1:alignment="middle center"
       ns1:inkscapeversion="1.0"
       ns1:jacobian_sqrt="1.41111"
       id="g2567">
      <defs
         id="id-580a743d-d73b-4b0e-b096-98f0c9205768">
        <g
           id="id-82435947-c667-4f99-9668-c53b720beac5">
          <symbol
             id="id-e0ddc49c-f4a7-4f24-92b7-a7592cbcd512"
             overflow="visible">
            <path
               id="id-f70263e9-c6ce-4d1b-a90f-eb1ceb3fdde9"
               d=""
               style="stroke:none" />
          </symbol>
          <symbol
             id="id-f0cab8ca-cf75-4226-885f-319cfbbba7f7"
             overflow="visible">
            <path
               id="id-1d0f9fd2-20cd-4bda-aa01-618a0b50b416"
               d="m 4.75,-2.359375 c 0,-1.5625 -0.921875,-2.046875 -1.65625,-2.046875 -1.375,0 -2.6875,1.421875 -2.6875,2.828125 0,0.9375 0.59375,1.6875 1.625,1.6875 0.625,0 1.34375,-0.234375 2.09375,-0.84375 0.125,0.53125 0.453125,0.84375 0.90625,0.84375 0.53125,0 0.84375,-0.546875 0.84375,-0.703125 0,-0.078125 -0.0625,-0.109375 -0.125,-0.109375 -0.0625,0 -0.09375,0.03125 -0.125,0.109375 -0.1875,0.484375 -0.546875,0.484375 -0.5625,0.484375 -0.3125,0 -0.3125,-0.78125 -0.3125,-1.015625 0,-0.203125 0,-0.234375 0.109375,-0.34375 C 5.796875,-2.65625 6,-3.8125 6,-3.8125 6,-3.84375 5.984375,-3.921875 5.875,-3.921875 c -0.09375,0 -0.09375,0.03125 -0.140625,0.21875 -0.1875,0.625 -0.515625,1.375 -0.984375,1.96875 z m -0.65625,1.375 c -0.890625,0.765625 -1.65625,0.875 -2.046875,0.875 -0.59375,0 -0.90625,-0.453125 -0.90625,-1.09375 0,-0.484375 0.265625,-1.5625 0.578125,-2.0625 C 2.1875,-4 2.734375,-4.1875 3.078125,-4.1875 c 0.984375,0 0.984375,1.3125 0.984375,2.078125 0,0.375 0,0.953125 0.03125,1.125 z m 0,0"
               style="stroke:none" />
          </symbol>
        </g>
      </defs>
      <g
         transform="translate(-149.118,-130.359)"
         id="id-8f2a9cf1-10e4-476a-a3cf-7678b40a75d1">
        <g
           id="id-58b870e9-dd76-4748-adc9-090b778f0973"
           style="fill:#000000;fill-opacity:1">
          <g
             transform="translate(148.712,134.765)"
             id="g2563">
            <path
               id="id-61c20c22-7c95-4623-9353-c556e30b72b8"
               d="m 4.75,-2.359375 c 0,-1.5625 -0.921875,-2.046875 -1.65625,-2.046875 -1.375,0 -2.6875,1.421875 -2.6875,2.828125 0,0.9375 0.59375,1.6875 1.625,1.6875 0.625,0 1.34375,-0.234375 2.09375,-0.84375 0.125,0.53125 0.453125,0.84375 0.90625,0.84375 0.53125,0 0.84375,-0.546875 0.84375,-0.703125 0,-0.078125 -0.0625,-0.109375 -0.125,-0.109375 -0.0625,0 -0.09375,0.03125 -0.125,0.109375 -0.1875,0.484375 -0.546875,0.484375 -0.5625,0.484375 -0.3125,0 -0.3125,-0.78125 -0.3125,-1.015625 0,-0.203125 0,-0.234375 0.109375,-0.34375 C 5.796875,-2.65625 6,-3.8125 6,-3.8125 6,-3.84375 5.984375,-3.921875 5.875,-3.921875 c -0.09375,0 -0.09375,0.03125 -0.140625,0.21875 -0.1875,0.625 -0.515625,1.375 -0.984375,1.96875 z m -0.65625,1.375 c -0.890625,0.765625 -1.65625,0.875 -2.046875,0.875 -0.59375,0 -0.90625,-0.453125 -0.90625,-1.09375 0,-0.484375 0.265625,-1.5625 0.578125,-2.0625 C 2.1875,-4 2.734375,-4.1875 3.078125,-4.1875 c 0.984375,0 0.984375,1.3125 0.984375,2.078125 0,0.375 0,0.953125 0.03125,1.125 z m 0,0"
               style="stroke:none" />
          </g>
        </g>
      </g>
    </g>
    <g
       transform="matrix(1.41111,0,0,1.41111,144.99462,79.118409)"
       ns1:version="1.0.1"
       ns1:texconverter="pdflatex"
       ns1:pdfconverter="inkscape"
       ns1:text="$c$"
       ns1:preamble="C:\\Users\\claum\\AppData\\Roaming\\inkscape\\extensions\\textext\\default_packages.tex"
       ns1:scale="4.0"
       ns1:alignment="middle center"
       ns1:inkscapeversion="1.0"
       ns1:jacobian_sqrt="1.41111"
       id="g2651">
      <defs
         id="id-10358d88-47d7-4da2-8f09-8e0f241292e4">
        <g
           id="id-dd5480dc-8d9a-486a-bc37-c5eadca4bb39">
          <symbol
             id="id-87ded006-d600-483c-8a99-1933b109355e"
             overflow="visible">
            <path
               id="id-f8596dc8-b843-4644-895f-317764b181af"
               d=""
               style="stroke:none" />
          </symbol>
          <symbol
             id="id-a2434aa2-27f1-4c1c-93dd-f7cfeb89a8ca"
             overflow="visible">
            <path
               id="id-a0cf7f76-cbea-4575-9307-c663bc06cafe"
               d="m 3.953125,-3.78125 c -0.171875,0 -0.296875,0 -0.4375,0.125 -0.171875,0.15625 -0.1875,0.328125 -0.1875,0.390625 0,0.25 0.1875,0.359375 0.375,0.359375 0.28125,0 0.546875,-0.25 0.546875,-0.640625 0,-0.484375 -0.46875,-0.859375 -1.171875,-0.859375 -1.34375,0 -2.671875,1.421875 -2.671875,2.828125 0,0.90625 0.578125,1.6875 1.625,1.6875 1.421875,0 2.25,-1.0625 2.25,-1.171875 0,-0.0625 -0.046875,-0.140625 -0.109375,-0.140625 -0.0625,0 -0.078125,0.03125 -0.140625,0.109375 -0.78125,0.984375 -1.875,0.984375 -1.984375,0.984375 -0.625,0 -0.90625,-0.484375 -0.90625,-1.09375 0,-0.40625 0.203125,-1.375 0.546875,-1.984375 0.3125,-0.578125 0.859375,-1 1.40625,-1 0.328125,0 0.71875,0.125 0.859375,0.40625 z m 0,0"
               style="stroke:none" />
          </symbol>
        </g>
      </defs>
      <g
         transform="translate(-149.118,-130.359)"
         id="id-4e226e7c-6d7f-4e75-b510-f22e40638b84">
        <g
           id="id-42494028-025b-4de0-a6bd-bcc8505f6cd1"
           style="fill:#000000;fill-opacity:1">
          <g
             transform="translate(148.712,134.765)"
             id="g2647">
            <path
               id="id-0704ac87-a5c9-41ef-9be2-51ceeccbe183"
               d="m 3.953125,-3.78125 c -0.171875,0 -0.296875,0 -0.4375,0.125 -0.171875,0.15625 -0.1875,0.328125 -0.1875,0.390625 0,0.25 0.1875,0.359375 0.375,0.359375 0.28125,0 0.546875,-0.25 0.546875,-0.640625 0,-0.484375 -0.46875,-0.859375 -1.171875,-0.859375 -1.34375,0 -2.671875,1.421875 -2.671875,2.828125 0,0.90625 0.578125,1.6875 1.625,1.6875 1.421875,0 2.25,-1.0625 2.25,-1.171875 0,-0.0625 -0.046875,-0.140625 -0.109375,-0.140625 -0.0625,0 -0.078125,0.03125 -0.140625,0.109375 -0.78125,0.984375 -1.875,0.984375 -1.984375,0.984375 -0.625,0 -0.90625,-0.484375 -0.90625,-1.09375 0,-0.40625 0.203125,-1.375 0.546875,-1.984375 0.3125,-0.578125 0.859375,-1 1.40625,-1 0.328125,0 0.71875,0.125 0.859375,0.40625 z m 0,0"
               style="stroke:none" />
          </g>
        </g>
      </g>
    </g>
    <g
       transform="matrix(1.41111,0,0,1.41111,78.347394,1.7095524)"
       ns1:version="1.0.1"
       ns1:texconverter="pdflatex"
       ns1:pdfconverter="inkscape"
       ns1:text="$d$"
       ns1:preamble="C:\\Users\\claum\\AppData\\Roaming\\inkscape\\extensions\\textext\\default_packages.tex"
       ns1:scale="4.0"
       ns1:alignment="middle center"
       ns1:inkscapeversion="1.0"
       ns1:jacobian_sqrt="1.41111"
       id="g2768">
      <defs
         id="id-0eb698d7-8a65-4d4b-aa28-c582f1c8c113">
        <g
           id="id-27bb03a0-0506-4e79-b5d1-2f3e58488931">
          <symbol
             id="id-61b095d4-6295-4282-8e95-d30846746d3f"
             overflow="visible">
            <path
               id="id-0033c063-f308-4ce3-a462-d163c3b4c16d"
               d=""
               style="stroke:none" />
          </symbol>
          <symbol
             id="id-9bdda773-2c0a-4ffb-8e2b-22f49ef4d59c"
             overflow="visible">
            <path
               id="id-3c36e1bf-a631-49cf-bc3e-753342f742ba"
               d="m 5.140625,-6.8125 c 0,0 0,-0.109375 -0.125,-0.109375 -0.15625,0 -1.09375,0.09375 -1.265625,0.109375 -0.078125,0.015625 -0.140625,0.0625 -0.140625,0.1875 0,0.125 0.09375,0.125 0.234375,0.125 0.484375,0 0.5,0.0625 0.5,0.171875 L 4.3125,-6.125 3.71875,-3.765625 C 3.53125,-4.140625 3.25,-4.40625 2.796875,-4.40625 c -1.15625,0 -2.390625,1.46875 -2.390625,2.921875 0,0.9375 0.546875,1.59375 1.3125,1.59375 0.203125,0 0.703125,-0.046875 1.296875,-0.75 0.078125,0.421875 0.4375,0.75 0.90625,0.75 0.359375,0 0.578125,-0.234375 0.75,-0.546875 0.15625,-0.359375 0.296875,-0.96875 0.296875,-0.984375 0,-0.109375 -0.09375,-0.109375 -0.125,-0.109375 -0.09375,0 -0.109375,0.046875 -0.140625,0.1875 -0.171875,0.640625 -0.34375,1.234375 -0.75,1.234375 -0.28125,0 -0.296875,-0.265625 -0.296875,-0.453125 0,-0.25 0.015625,-0.3125 0.046875,-0.484375 z m -2.0625,5.625 C 3.015625,-1 3.015625,-0.984375 2.875,-0.8125 2.4375,-0.265625 2.03125,-0.109375 1.75,-0.109375 c -0.5,0 -0.640625,-0.546875 -0.640625,-0.9375 0,-0.5 0.3125,-1.71875 0.546875,-2.1875 0.3125,-0.578125 0.75,-0.953125 1.15625,-0.953125 0.640625,0 0.78125,0.8125 0.78125,0.875 0,0.0625 -0.015625,0.125 -0.03125,0.171875 z m 0,0"
               style="stroke:none" />
          </symbol>
        </g>
      </defs>
      <g
         transform="translate(-149.118,-127.843)"
         id="id-8947e719-1105-4f7f-8f0f-0c6217fadb02">
        <g
           id="id-c35162c5-4ebc-4a60-a85e-acbc0db61b66"
           style="fill:#000000;fill-opacity:1">
          <g
             transform="translate(148.712,134.765)"
             id="g2764">
            <path
               id="id-9cb5889c-9905-459f-a5c0-171ccb69d267"
               d="m 5.140625,-6.8125 c 0,0 0,-0.109375 -0.125,-0.109375 -0.15625,0 -1.09375,0.09375 -1.265625,0.109375 -0.078125,0.015625 -0.140625,0.0625 -0.140625,0.1875 0,0.125 0.09375,0.125 0.234375,0.125 0.484375,0 0.5,0.0625 0.5,0.171875 L 4.3125,-6.125 3.71875,-3.765625 C 3.53125,-4.140625 3.25,-4.40625 2.796875,-4.40625 c -1.15625,0 -2.390625,1.46875 -2.390625,2.921875 0,0.9375 0.546875,1.59375 1.3125,1.59375 0.203125,0 0.703125,-0.046875 1.296875,-0.75 0.078125,0.421875 0.4375,0.75 0.90625,0.75 0.359375,0 0.578125,-0.234375 0.75,-0.546875 0.15625,-0.359375 0.296875,-0.96875 0.296875,-0.984375 0,-0.109375 -0.09375,-0.109375 -0.125,-0.109375 -0.09375,0 -0.109375,0.046875 -0.140625,0.1875 -0.171875,0.640625 -0.34375,1.234375 -0.75,1.234375 -0.28125,0 -0.296875,-0.265625 -0.296875,-0.453125 0,-0.25 0.015625,-0.3125 0.046875,-0.484375 z m -2.0625,5.625 C 3.015625,-1 3.015625,-0.984375 2.875,-0.8125 2.4375,-0.265625 2.03125,-0.109375 1.75,-0.109375 c -0.5,0 -0.640625,-0.546875 -0.640625,-0.9375 0,-0.5 0.3125,-1.71875 0.546875,-2.1875 0.3125,-0.578125 0.75,-0.953125 1.15625,-0.953125 0.640625,0 0.78125,0.8125 0.78125,0.875 0,0.0625 -0.015625,0.125 -0.03125,0.171875 z m 0,0"
               style="stroke:none" />
          </g>
        </g>
      </g>
    </g>
    <g
       transform="matrix(1.41111,0,0,1.41111,136.51,39.118)"
       ns1:version="1.0.1"
       ns1:texconverter="pdflatex"
       ns1:pdfconverter="inkscape"
       ns1:text="$a$"
       ns1:preamble="C:\\Users\\claum\\AppData\\Roaming\\inkscape\\extensions\\textext\\default_packages.tex"
       ns1:scale="4.0"
       ns1:alignment="middle center"
       ns1:inkscapeversion="1.0"
       ns1:jacobian_sqrt="1.41111"
       id="g2896">
      <defs
         id="id-8e4845b1-ccb8-480a-89e7-1a7679dff2f6">
        <g
           id="id-0bb2d1c3-dba0-4652-8fc7-22341631f254">
          <symbol
             id="id-68034bc6-1538-4697-991b-8e198f81b57f"
             overflow="visible">
            <path
               id="id-d471b903-7a9e-4e37-886c-13c9acc3714e"
               d=""
               style="stroke:none" />
          </symbol>
          <symbol
             id="id-cd696f42-4911-4855-9e84-46dfebd8724a"
             overflow="visible">
            <path
               id="id-92d8a351-c2fa-4cec-9a51-94eaf50585db"
               d="M 3.71875,-3.765625 C 3.53125,-4.140625 3.25,-4.40625 2.796875,-4.40625 c -1.15625,0 -2.390625,1.46875 -2.390625,2.921875 0,0.9375 0.546875,1.59375 1.3125,1.59375 0.203125,0 0.703125,-0.046875 1.296875,-0.75 0.078125,0.421875 0.4375,0.75 0.90625,0.75 0.359375,0 0.578125,-0.234375 0.75,-0.546875 0.15625,-0.359375 0.296875,-0.96875 0.296875,-0.984375 0,-0.109375 -0.09375,-0.109375 -0.125,-0.109375 -0.09375,0 -0.109375,0.046875 -0.140625,0.1875 -0.171875,0.640625 -0.34375,1.234375 -0.75,1.234375 -0.28125,0 -0.296875,-0.265625 -0.296875,-0.453125 0,-0.21875 0.015625,-0.3125 0.125,-0.75 C 3.890625,-1.71875 3.90625,-1.828125 4,-2.203125 L 4.359375,-3.59375 c 0.0625,-0.28125 0.0625,-0.296875 0.0625,-0.34375 0,-0.171875 -0.109375,-0.265625 -0.28125,-0.265625 -0.25,0 -0.390625,0.21875 -0.421875,0.4375 z M 3.078125,-1.1875 C 3.015625,-1 3.015625,-0.984375 2.875,-0.8125 2.4375,-0.265625 2.03125,-0.109375 1.75,-0.109375 c -0.5,0 -0.640625,-0.546875 -0.640625,-0.9375 0,-0.5 0.3125,-1.71875 0.546875,-2.1875 0.3125,-0.578125 0.75,-0.953125 1.15625,-0.953125 0.640625,0 0.78125,0.8125 0.78125,0.875 0,0.0625 -0.015625,0.125 -0.03125,0.171875 z m 0,0"
               style="stroke:none" />
          </symbol>
        </g>
      </defs>
      <g
         transform="translate(-149.118,-130.359)"
         id="id-05001435-4e08-461e-b05f-4aaed306731f">
        <g
           id="id-73468021-d328-42f8-bc33-6039995f0629"
           style="fill:#000000;fill-opacity:1">
          <g
             transform="translate(148.712,134.765)"
             id="g2892">
            <path
               id="id-f1118d49-6bed-455c-80f8-b1aec3bb6e35"
               d="M 3.71875,-3.765625 C 3.53125,-4.140625 3.25,-4.40625 2.796875,-4.40625 c -1.15625,0 -2.390625,1.46875 -2.390625,2.921875 0,0.9375 0.546875,1.59375 1.3125,1.59375 0.203125,0 0.703125,-0.046875 1.296875,-0.75 0.078125,0.421875 0.4375,0.75 0.90625,0.75 0.359375,0 0.578125,-0.234375 0.75,-0.546875 0.15625,-0.359375 0.296875,-0.96875 0.296875,-0.984375 0,-0.109375 -0.09375,-0.109375 -0.125,-0.109375 -0.09375,0 -0.109375,0.046875 -0.140625,0.1875 -0.171875,0.640625 -0.34375,1.234375 -0.75,1.234375 -0.28125,0 -0.296875,-0.265625 -0.296875,-0.453125 0,-0.21875 0.015625,-0.3125 0.125,-0.75 C 3.890625,-1.71875 3.90625,-1.828125 4,-2.203125 L 4.359375,-3.59375 c 0.0625,-0.28125 0.0625,-0.296875 0.0625,-0.34375 0,-0.171875 -0.109375,-0.265625 -0.28125,-0.265625 -0.25,0 -0.390625,0.21875 -0.421875,0.4375 z M 3.078125,-1.1875 C 3.015625,-1 3.015625,-0.984375 2.875,-0.8125 2.4375,-0.265625 2.03125,-0.109375 1.75,-0.109375 c -0.5,0 -0.640625,-0.546875 -0.640625,-0.9375 0,-0.5 0.3125,-1.71875 0.546875,-2.1875 0.3125,-0.578125 0.75,-0.953125 1.15625,-0.953125 0.640625,0 0.78125,0.8125 0.78125,0.875 0,0.0625 -0.015625,0.125 -0.03125,0.171875 z m 0,0"
               style="stroke:none" />
          </g>
        </g>
      </g>
    </g>
    <g
       transform="matrix(1.41111,0,0,1.41111,41.346708,8.6121535)"
       ns1:version="1.0.1"
       ns1:texconverter="pdflatex"
       ns1:pdfconverter="inkscape"
       ns1:text="$b$"
       ns1:preamble="C:\\Users\\claum\\AppData\\Roaming\\inkscape\\extensions\\textext\\default_packages.tex"
       ns1:scale="4.0"
       ns1:alignment="middle center"
       ns1:inkscapeversion="1.0"
       ns1:jacobian_sqrt="1.41111"
       id="g3154">
      <defs
         id="id-f982ccad-e87a-4e58-8f80-b644ba81197d">
        <g
           id="id-468afcd0-abae-49b7-83b5-2ffd3c231050">
          <symbol
             id="id-6c30f4f4-d521-4d32-8e0a-69c26585f236"
             overflow="visible">
            <path
               id="id-6665f46b-d2d7-42ba-a937-5781d46a5c6c"
               d=""
               style="stroke:none" />
          </symbol>
          <symbol
             id="id-5ac678ca-fb52-464b-b1df-bffd5965b95c"
             overflow="visible">
            <path
               id="id-817cf56b-535f-4917-99c8-e463c8527917"
               d="m 2.375,-6.8125 c 0,0 0,-0.109375 -0.125,-0.109375 -0.21875,0 -0.953125,0.078125 -1.21875,0.109375 -0.078125,0 -0.1875,0.015625 -0.1875,0.1875 0,0.125 0.09375,0.125 0.25,0.125 0.46875,0 0.484375,0.0625 0.484375,0.171875 0,0.0625 -0.078125,0.40625 -0.125,0.609375 l -0.828125,3.25 c -0.109375,0.5 -0.15625,0.671875 -0.15625,1.015625 0,0.9375 0.53125,1.5625 1.265625,1.5625 1.171875,0 2.40625,-1.484375 2.40625,-2.921875 0,-0.90625 -0.53125,-1.59375 -1.328125,-1.59375 -0.453125,0 -0.875,0.296875 -1.171875,0.59375 z M 1.453125,-3.046875 C 1.5,-3.265625 1.5,-3.28125 1.59375,-3.390625 2.078125,-4.03125 2.53125,-4.1875 2.796875,-4.1875 c 0.359375,0 0.625,0.296875 0.625,0.9375 0,0.59375 -0.328125,1.734375 -0.515625,2.109375 -0.328125,0.671875 -0.78125,1.03125 -1.171875,1.03125 -0.34375,0 -0.671875,-0.265625 -0.671875,-1 0,-0.203125 0,-0.390625 0.15625,-1.015625 z m 0,0"
               style="stroke:none" />
          </symbol>
        </g>
      </defs>
      <g
         transform="translate(-149.181,-127.843)"
         id="id-973149bd-f42e-4376-8ee5-641dc009afc4">
        <g
           id="id-baf975a2-02b1-4c39-b0ec-f3554c8b960f"
           style="fill:#000000;fill-opacity:1">
          <g
             transform="translate(148.712,134.765)"
             id="g3150">
            <path
               id="id-027f8b89-fc90-4298-9021-3c6178597cd7"
               d="m 2.375,-6.8125 c 0,0 0,-0.109375 -0.125,-0.109375 -0.21875,0 -0.953125,0.078125 -1.21875,0.109375 -0.078125,0 -0.1875,0.015625 -0.1875,0.1875 0,0.125 0.09375,0.125 0.25,0.125 0.46875,0 0.484375,0.0625 0.484375,0.171875 0,0.0625 -0.078125,0.40625 -0.125,0.609375 l -0.828125,3.25 c -0.109375,0.5 -0.15625,0.671875 -0.15625,1.015625 0,0.9375 0.53125,1.5625 1.265625,1.5625 1.171875,0 2.40625,-1.484375 2.40625,-2.921875 0,-0.90625 -0.53125,-1.59375 -1.328125,-1.59375 -0.453125,0 -0.875,0.296875 -1.171875,0.59375 z M 1.453125,-3.046875 C 1.5,-3.265625 1.5,-3.28125 1.59375,-3.390625 2.078125,-4.03125 2.53125,-4.1875 2.796875,-4.1875 c 0.359375,0 0.625,0.296875 0.625,0.9375 0,0.59375 -0.328125,1.734375 -0.515625,2.109375 -0.328125,0.671875 -0.78125,1.03125 -1.171875,1.03125 -0.34375,0 -0.671875,-0.265625 -0.671875,-1 0,-0.203125 0,-0.390625 0.15625,-1.015625 z m 0,0"
               style="stroke:none" />
          </g>
        </g>
      </g>
    </g>
    <path
       transform="scale(0.26458333)"
       id="path3170"
       d="m 81.399691,410.68577 c -3.355778,-5.10697 -4.044885,-6.8043 -3,-7.38926 0.746057,-0.41766 38.931469,-25.54096 84.856469,-55.82956 l 83.5,-55.07017 13.69098,-0.0198 c 7.53004,-0.0109 13.92918,0.36564 14.2203,0.83669 0.40773,0.65971 -187.344955,124.21304 -188.617961,124.12273 -0.161326,-0.0114 -2.253731,-3.00424 -4.649788,-6.65066 z"
       style="opacity:0.145773;fill:#000000;fill-opacity:1;stroke:#000000;stroke-width:0.944882;stroke-miterlimit:4;stroke-dasharray:none" />
    <path
       transform="scale(0.26458333)"
       id="path3172"
       d="m 93.254733,428.8215 c -3.218496,-4.78131 -5.851811,-8.74325 -5.851811,-8.80432 0,-0.15962 189.062328,-123.5702 189.306858,-123.5702 0.11213,0 0.85768,0.47361 1.65677,1.05247 0.7991,0.57885 1.99361,1.1539 2.65448,1.27788 l 1.20158,0.22542 -0.0943,9.00577 -0.0943,9.00576 -91.3121,60.25025 c -50.22165,33.13764 -91.380343,60.25025 -91.463756,60.25025 -0.08341,0 -2.784974,-3.91198 -6.003471,-8.69328 z"
       style="opacity:0.145773;fill:#000000;fill-opacity:1;stroke:#000000;stroke-width:0.334066;stroke-miterlimit:4;stroke-dasharray:none" />
    <path
       transform="scale(0.26458333)"
       id="path3174"
       d="m 261.17039,282.4952 10.95614,-7.22299 2.75992,4.20458 2.75993,4.20458 -1.02584,1.41613 c -0.56421,0.77887 -1.22843,2.13969 -1.47603,3.02405 l -0.45019,1.60791 -12.24003,-0.006 -12.24003,-0.006 z"
       style="opacity:0.145773;fill:#000000;fill-opacity:1;stroke:#000000;stroke-width:0.334066;stroke-miterlimit:4;stroke-dasharray:none" />
    <path
       transform="scale(0.26458333)"
       id="path3176"
       d="m 284.68571,307.13359 v -8.13305 l 1.27357,-0.23892 c 0.70046,-0.1314 1.31748,-0.18889 1.37116,-0.12773 0.0537,0.0611 1.6156,2.41277 3.47094,5.22583 l 3.37333,5.11464 -3.77223,2.51485 c -2.07472,1.38316 -4.20975,2.79892 -4.7445,3.14613 l -0.97227,0.63129 z"
       style="opacity:0.145773;fill:#000000;fill-opacity:1;stroke:#000000;stroke-width:0.334066;stroke-miterlimit:4;stroke-dasharray:none" />
    <path
       transform="scale(0.26458333)"
       id="path3178"
       d="m 292.65617,302.44535 -3.42286,-5.26814 0.97629,-1.22355 0.97629,-1.22354 3.73259,2.58488 c 2.05293,1.42168 4.72916,3.27175 5.9472,4.11127 2.56871,1.77047 2.67187,1.51257 -1.73286,4.33231 l -3.05378,1.95491 z"
       style="opacity:0.145773;fill:#000000;fill-opacity:1;stroke:#000000;stroke-width:0.334066;stroke-miterlimit:4;stroke-dasharray:none" />
    <path
       transform="scale(0.26458333)"
       id="path3180"
       d="m 306.05569,298.7805 -2.35242,-0.83643 2.85866,-1.367 c 1.57226,-0.75185 2.8238,-1.40186 2.7812,-1.44446 -0.0426,-0.0426 -4.08879,-0.2873 -8.99152,-0.54377 -4.90273,-0.25646 -8.92851,-0.47712 -8.94618,-0.49035 -0.0177,-0.0132 0.0949,-0.48027 0.25006,-1.03787 l 0.28218,-1.01381 h 14.06732 14.06732 l -5.65532,3.73388 c -3.11043,2.05363 -5.73487,3.75691 -5.8321,3.78506 -0.0972,0.0282 -1.23537,-0.32521 -2.5292,-0.78525 z"
       style="opacity:0.145773;fill:#000000;fill-opacity:1;stroke:#000000;stroke-width:0.167033;stroke-miterlimit:4;stroke-dasharray:none" />
    <path
       transform="scale(0.26458333)"
       id="path3182"
       d="m 304.0128,300.64233 c -0.41576,-0.84298 -0.73883,-1.54978 -0.71793,-1.57068 0.0209,-0.0209 0.96648,0.28156 2.10129,0.67213 l 2.0633,0.71013 -1.31164,0.86054 c -0.7214,0.4733 -1.32681,0.86055 -1.34536,0.86055 -0.0186,0 -0.3739,-0.6897 -0.78966,-1.53267 z"
       style="opacity:0.145773;fill:#000000;fill-opacity:1;stroke:#000000;stroke-width:0.0590551;stroke-miterlimit:4;stroke-dasharray:none" />
    <path
       transform="scale(0.26458333)"
       id="path3184"
       d="m 302.71304,303.40937 c 0.13749,-0.2255 0.15947,-0.48939 0.0568,-0.68133 -0.0372,-0.0694 -0.0547,-0.1391 -0.039,-0.15481 0.0335,-0.0335 0.72567,0.42687 0.72918,0.48505 0.003,0.0433 -0.76184,0.55422 -0.82918,0.55422 -0.0229,0 0.0141,-0.0914 0.0822,-0.20313 z"
       style="opacity:0.145773;fill:#000000;fill-opacity:1;stroke:#000000;stroke-width:0.0590551;stroke-miterlimit:4;stroke-dasharray:none" />
    <path
       transform="scale(0.26458333)"
       id="path3186"
       d="m 235.35628,320.50066 v -0.24309 l 2.45437,-1.62772 c 22.22427,-14.73895 36.06258,-24.04948 37.06627,-24.9385 0.20806,-0.18429 0.20992,-0.18838 0.20992,-0.46118 0,-0.24331 -0.0141,-0.28838 -0.12153,-0.38859 -0.17156,-0.16001 -0.26649,-0.20157 -0.68257,-0.29885 -0.73464,-0.17176 -2.46121,-0.34099 -4.72017,-0.46263 -1.07766,-0.058 -1.06725,-0.0583 2.21011,-0.064 l 3.29287,-0.006 0.0804,0.3646 c 0.10566,0.47902 0.34246,1.18905 0.53692,1.60992 0.0858,0.18568 0.15084,0.34205 0.14456,0.34751 -0.0245,0.0213 -40.1551,26.21605 -40.30826,26.31071 l -0.16291,0.10068 z"
       style="opacity:0.145773;fill:#000000;fill-opacity:1;stroke:#000000;stroke-width:0.0417583;stroke-miterlimit:4;stroke-dasharray:none" />
    <path
       transform="scale(0.26458333)"
       id="path3188"
       d="m 289.45513,284.08677 c -0.18922,-0.30616 -1.33344,-0.99432 -2.54271,-1.52924 l -2.19867,-0.97257 0.1382,-7.33666 0.1382,-7.33666 82,-54.04237 82,-54.04236 5.16118,7.70541 c 2.83865,4.23798 5.08865,7.76073 5,7.82833 -0.8266,0.63037 -169.0247,110.28278 -169.16505,110.28278 -0.10291,0 -0.34193,-0.2505 -0.53115,-0.55666 z"
       style="opacity:0.145773;fill:#000000;fill-opacity:1;stroke:#000000;stroke-width:0.472441;stroke-miterlimit:4;stroke-dasharray:none" />
    <path
       transform="scale(0.26458333)"
       id="path3190"
       d="m 291.85148,288.24789 -0.48648,-1.39554 84.20618,-54.97946 c 46.3134,-30.2387 84.47906,-55.03557 84.81258,-55.10414 0.33351,-0.0686 2.91552,3.2955 5.7378,7.47573 4.02927,5.96796 4.9958,7.72195 4.5,8.16631 -0.34728,0.31125 -33.61926,22.31593 -73.93773,48.89927 l -73.30632,48.33337 h -15.51977 -15.51977 z"
       style="opacity:0.145773;fill:#000000;fill-opacity:1;stroke:#000000;stroke-width:0.472441;stroke-miterlimit:4;stroke-dasharray:none" />
    <path
       transform="scale(0.26458333)"
       id="path3192"
       d="m 276.82256,278.39589 c -1.58753,-2.42799 -2.85824,-4.4381 -2.82379,-4.46692 0.14671,-0.12271 5.49697,-3.66597 6.91272,-4.57801 l 1.5468,-0.99645 v 6.78429 6.7843 l -0.92808,0.21813 c -0.51044,0.11997 -1.12903,0.31962 -1.37465,0.44366 -0.44446,0.22446 -0.46017,0.20472 -3.333,-4.189 z"
       style="opacity:0.145773;fill:#000000;fill-opacity:1;stroke:#000000;stroke-width:0.167033;stroke-miterlimit:4;stroke-dasharray:none" />
  </g>
</svg>
