<?xml version="1.0" encoding="UTF-8" standalone="no"?>
<svg
   xmlns:ns21="http://www.iki.fi/pav/software/textext/"
   xmlns:dc="http://purl.org/dc/elements/1.1/"
   xmlns:cc="http://creativecommons.org/ns#"
   xmlns:rdf="http://www.w3.org/1999/02/22-rdf-syntax-ns#"
   xmlns:svg="http://www.w3.org/2000/svg"
   xmlns="http://www.w3.org/2000/svg"
   xmlns:sodipodi="http://sodipodi.sourceforge.net/DTD/sodipodi-0.dtd"
   xmlns:inkscape="http://www.inkscape.org/namespaces/inkscape"
   width="18.299999cm"
   height="19.1cm"
   viewBox="0 0 182.99999 190.99999"
   version="1.1"
   id="svg8"
   inkscape:version="1.0 (4035a4fb49, 2020-05-01)"
   sodipodi:docname="Esercizio1_4.svg">
  <defs
     id="defs2">
    <marker
       inkscape:isstock="true"
       style="overflow:visible"
       id="marker1117"
       refX="0"
       refY="0"
       orient="auto"
       inkscape:stockid="Arrow1Lend">
      <path
         transform="matrix(-0.8,0,0,-0.8,-10,0)"
         style="fill:#000000;fill-opacity:1;fill-rule:evenodd;stroke:#000000;stroke-width:1pt;stroke-opacity:1"
         d="M 0,0 5,-5 -12.5,0 5,5 Z"
         id="path1115" />
    </marker>
    <marker
       inkscape:stockid="Arrow1Lend"
       orient="auto"
       refY="0"
       refX="0"
       id="Arrow1Lend"
       style="overflow:visible"
       inkscape:isstock="true"
       inkscape:collect="always">
      <path
         id="path840"
         d="M 0,0 5,-5 -12.5,0 5,5 Z"
         style="fill:#000000;fill-opacity:1;fill-rule:evenodd;stroke:#000000;stroke-width:1pt;stroke-opacity:1"
         transform="matrix(-0.8,0,0,-0.8,-10,0)" />
    </marker>
  </defs>
  <sodipodi:namedview
     id="base"
     pagecolor="#ffffff"
     bordercolor="#666666"
     borderopacity="1.0"
     inkscape:pageopacity="0.0"
     inkscape:pageshadow="2"
     inkscape:zoom="0.49497475"
     inkscape:cx="526.85317"
     inkscape:cy="446.9267"
     inkscape:document-units="mm"
     inkscape:current-layer="layer1"
     inkscape:document-rotation="0"
     showgrid="true"
     units="cm"
     inkscape:window-width="1366"
     inkscape:window-height="738"
     inkscape:window-x="0"
     inkscape:window-y="0"
     inkscape:window-maximized="0">
    <inkscape:grid
       type="xygrid"
       id="grid10" />
  </sodipodi:namedview>
  <metadata
     id="metadata5">
    <rdf:RDF>
      <cc:Work
         rdf:about="">
        <dc:format>image/svg+xml</dc:format>
        <dc:type
           rdf:resource="http://purl.org/dc/dcmitype/StillImage" />
        <dc:title></dc:title>
      </cc:Work>
    </rdf:RDF>
  </metadata>
  <g
     inkscape:label="Livello 1"
     inkscape:groupmode="layer"
     id="layer1">
    <path
       style="opacity:1;fill:none;fill-opacity:1;stroke:#000000;stroke-width:0.264999;stroke-miterlimit:4;stroke-dasharray:none"
       id="path1199"
       sodipodi:type="arc"
       sodipodi:cx="9.0040932"
       sodipodi:cy="-172.03171"
       sodipodi:rx="109.99999"
       sodipodi:ry="110"
       sodipodi:start="0"
       sodipodi:end="1.5712073"
       sodipodi:arc-type="arc"
       d="M 119.00409,-172.03171 A 109.99999,110 0 0 1 86.769849,-94.23398 109.99999,110 0 0 1 8.9588861,-62.031717"
       transform="scale(1,-1)"
       sodipodi:open="true" />
    <g
       transform="translate(-16,-8)"
       id="g5536">
      <g
         transform="translate(5,-5)"
         id="g1237">
        <path
           style="fill:none;stroke:#000000;stroke-width:0.265;stroke-linecap:butt;stroke-linejoin:miter;stroke-miterlimit:4;stroke-dasharray:none;stroke-opacity:1;marker-end:url(#Arrow1Lend)"
           d="M 20,185 H 190"
           id="path12" />
        <path
           id="path1113"
           d="M 20,185 V 15"
           style="fill:none;stroke:#000000;stroke-width:0.265;stroke-linecap:butt;stroke-linejoin:miter;stroke-miterlimit:4;stroke-dasharray:none;stroke-opacity:1;marker-end:url(#marker1117)" />
        <path
           style="fill:none;stroke:#000000;stroke-width:0.264583px;stroke-linecap:butt;stroke-linejoin:miter;stroke-opacity:1"
           d="M 20,185 V 44.999999"
           id="path1195" />
        <path
           id="path1197"
           d="M 20,185 H 160"
           style="fill:none;stroke:#000000;stroke-width:0.264583px;stroke-linecap:butt;stroke-linejoin:miter;stroke-opacity:1" />
        <path
           style="fill:none;stroke:#000000;stroke-width:0.265;stroke-linecap:butt;stroke-linejoin:miter;stroke-miterlimit:4;stroke-dasharray:0.265, 0.265;stroke-dashoffset:0;stroke-opacity:1"
           d="M 20,185 130,75"
           id="path1209" />
        <path
           style="fill:none;stroke:#000000;stroke-width:0.264583px;stroke-linecap:butt;stroke-linejoin:miter;stroke-opacity:1"
           d="M 15,200 25,190"
           id="path1211" />
        <path
           style="fill:none;stroke:#000000;stroke-width:0.264583px;stroke-linecap:butt;stroke-linejoin:miter;stroke-opacity:1"
           d="M 20,195 H 130"
           id="path1213" />
        <path
           style="fill:none;stroke:#000000;stroke-width:0.264583px;stroke-linecap:butt;stroke-linejoin:miter;stroke-opacity:1"
           d="m 125,200 10,-10"
           id="path1215" />
      </g>
      <g
         transform="matrix(0.705556,0,0,0.705556,76.637408,192.58603)"
         ns21:version="1.0.1"
         ns21:texconverter="pdflatex"
         ns21:pdfconverter="inkscape"
         ns21:text="$R$"
         ns21:preamble="C:\\Users\\claum\\AppData\\Roaming\\inkscape\\extensions\\textext\\default_packages.tex"
         ns21:scale="2.0"
         ns21:alignment="middle center"
         ns21:jacobian_sqrt="0.705556"
         id="g1292">
        <defs
           id="id-0ba1118d-de63-4caf-8ad5-6e7e704164b1">
          <g
             id="id-5e8f0f2e-5277-4b64-844e-866cd8b50ad1">
            <symbol
               id="id-eef81477-1ed6-4b95-8e8b-6de2789383dc"
               overflow="visible">
              <path
                 id="id-f789f302-b6f3-4aa2-9970-795ccdd7e7d1"
                 d=""
                 style="stroke:none" />
            </symbol>
            <symbol
               id="id-3ddf6918-7cc3-4b85-9103-8db6c9f34851"
               overflow="visible">
              <path
                 id="id-70397d59-a433-4a5c-8cc4-78a66a80aba5"
                 d="m 3.734375,-6.125 c 0.0625,-0.234375 0.09375,-0.328125 0.28125,-0.359375 C 4.109375,-6.5 4.421875,-6.5 4.625,-6.5 c 0.703125,0 1.8125,0 1.8125,0.984375 0,0.34375 -0.15625,1.03125 -0.546875,1.421875 -0.265625,0.25 -0.78125,0.578125 -1.6875,0.578125 H 3.09375 Z m 1.4375,2.734375 c 1.015625,-0.21875 2.1875,-0.921875 2.1875,-1.921875 0,-0.859375 -0.890625,-1.5 -2.203125,-1.5 H 2.328125 c -0.203125,0 -0.296875,0 -0.296875,0.203125 C 2.03125,-6.5 2.125,-6.5 2.3125,-6.5 c 0.015625,0 0.203125,0 0.375,0.015625 0.1875,0.03125 0.265625,0.03125 0.265625,0.171875 0,0.03125 0,0.0625 -0.03125,0.1875 l -1.34375,5.34375 C 1.484375,-0.390625 1.46875,-0.3125 0.671875,-0.3125 0.5,-0.3125 0.40625,-0.3125 0.40625,-0.109375 0.40625,0 0.53125,0 0.546875,0 c 0.28125,0 0.984375,-0.03125 1.25,-0.03125 0.28125,0 1,0.03125 1.28125,0.03125 0.078125,0 0.1875,0 0.1875,-0.203125 0,-0.109375 -0.078125,-0.109375 -0.28125,-0.109375 -0.359375,0 -0.640625,0 -0.640625,-0.171875 0,-0.0625 0.015625,-0.109375 0.03125,-0.171875 l 0.65625,-2.640625 h 1.1875 c 0.90625,0 1.078125,0.5625 1.078125,0.90625 0,0.140625 -0.078125,0.453125 -0.140625,0.6875 C 5.09375,-1.421875 5,-1.0625 5,-0.859375 5,0.21875 6.203125,0.21875 6.328125,0.21875 c 0.84375,0 1.203125,-1 1.203125,-1.140625 0,-0.125 -0.109375,-0.125 -0.125,-0.125 -0.09375,0 -0.109375,0.0625 -0.125,0.140625 C 7.03125,-0.171875 6.59375,0 6.375,0 6.046875,0 5.96875,-0.21875 5.96875,-0.609375 c 0,-0.3125 0.0625,-0.8125 0.109375,-1.140625 0.015625,-0.140625 0.03125,-0.328125 0.03125,-0.46875 0,-0.765625 -0.671875,-1.078125 -0.9375,-1.171875 z m 0,0"
                 style="stroke:none" />
            </symbol>
          </g>
        </defs>
        <g
           transform="translate(-149.118,-127.953)"
           id="id-3daeaa83-49e0-4ac3-ae31-7be2003249b3">
          <g
             id="id-8d9d59e4-abb6-485f-9ca0-f55b01fd31cf"
             style="fill:#000000;fill-opacity:1">
            <g
               transform="translate(148.712,134.765)"
               id="g1288">
              <path
                 id="id-9b8c3b70-9b18-48ce-808a-aff69d40e1d7"
                 d="m 3.734375,-6.125 c 0.0625,-0.234375 0.09375,-0.328125 0.28125,-0.359375 C 4.109375,-6.5 4.421875,-6.5 4.625,-6.5 c 0.703125,0 1.8125,0 1.8125,0.984375 0,0.34375 -0.15625,1.03125 -0.546875,1.421875 -0.265625,0.25 -0.78125,0.578125 -1.6875,0.578125 H 3.09375 Z m 1.4375,2.734375 c 1.015625,-0.21875 2.1875,-0.921875 2.1875,-1.921875 0,-0.859375 -0.890625,-1.5 -2.203125,-1.5 H 2.328125 c -0.203125,0 -0.296875,0 -0.296875,0.203125 C 2.03125,-6.5 2.125,-6.5 2.3125,-6.5 c 0.015625,0 0.203125,0 0.375,0.015625 0.1875,0.03125 0.265625,0.03125 0.265625,0.171875 0,0.03125 0,0.0625 -0.03125,0.1875 l -1.34375,5.34375 C 1.484375,-0.390625 1.46875,-0.3125 0.671875,-0.3125 0.5,-0.3125 0.40625,-0.3125 0.40625,-0.109375 0.40625,0 0.53125,0 0.546875,0 c 0.28125,0 0.984375,-0.03125 1.25,-0.03125 0.28125,0 1,0.03125 1.28125,0.03125 0.078125,0 0.1875,0 0.1875,-0.203125 0,-0.109375 -0.078125,-0.109375 -0.28125,-0.109375 -0.359375,0 -0.640625,0 -0.640625,-0.171875 0,-0.0625 0.015625,-0.109375 0.03125,-0.171875 l 0.65625,-2.640625 h 1.1875 c 0.90625,0 1.078125,0.5625 1.078125,0.90625 0,0.140625 -0.078125,0.453125 -0.140625,0.6875 C 5.09375,-1.421875 5,-1.0625 5,-0.859375 5,0.21875 6.203125,0.21875 6.328125,0.21875 c 0.84375,0 1.203125,-1 1.203125,-1.140625 0,-0.125 -0.109375,-0.125 -0.125,-0.125 -0.09375,0 -0.109375,0.0625 -0.125,0.140625 C 7.03125,-0.171875 6.59375,0 6.375,0 6.046875,0 5.96875,-0.21875 5.96875,-0.609375 c 0,-0.3125 0.0625,-0.8125 0.109375,-1.140625 0.015625,-0.140625 0.03125,-0.328125 0.03125,-0.46875 0,-0.765625 -0.671875,-1.078125 -0.9375,-1.171875 z m 0,0"
                 style="stroke:none" />
            </g>
          </g>
        </g>
      </g>
      <path
         sodipodi:nodetypes="cc"
         id="path1310"
         d="M 71.816291,180 V 133.1"
         style="fill:none;stroke:#000000;stroke-width:0.264583;stroke-linecap:butt;stroke-linejoin:miter;stroke-miterlimit:4;stroke-dasharray:0.264583, 0.264583;stroke-dashoffset:0;stroke-opacity:1" />
      <path
         style="fill:none;stroke:#000000;stroke-width:0.264583;stroke-linecap:butt;stroke-linejoin:miter;stroke-miterlimit:4;stroke-dasharray:0.264583, 0.264583;stroke-dashoffset:0;stroke-opacity:1"
         d="M 25.1,133.23229 H 72"
         id="path1312"
         sodipodi:nodetypes="cc" />
      <circle
         r="1.5"
         cy="133.23228"
         cx="71.822289"
         id="path1314"
         style="opacity:1;fill:#000000;fill-opacity:1;stroke:#000000;stroke-width:0.264583;stroke-miterlimit:4;stroke-dasharray:none;stroke-dashoffset:0" />
      <g
         transform="matrix(0.705556,0,0,0.705556,19.88342,9.1338551)"
         ns21:version="1.0.1"
         ns21:texconverter="pdflatex"
         ns21:pdfconverter="inkscape"
         ns21:text="$y$"
         ns21:preamble="C:\\Users\\claum\\AppData\\Roaming\\inkscape\\extensions\\textext\\default_packages.tex"
         ns21:scale="2.0"
         ns21:alignment="middle center"
         ns21:jacobian_sqrt="0.705556"
         id="g1359">
        <defs
           id="id-78fb1ccc-a6a6-47cd-8dd4-dd88ab8957e1">
          <g
             id="id-30ac553f-b13b-4294-b8ed-dcd4589e162d">
            <symbol
               id="id-a22d48dd-374d-429d-8efa-86292734c591"
               overflow="visible">
              <path
                 id="id-fcd76f3d-2f7c-40cf-99a7-c813830d0c7d"
                 d=""
                 style="stroke:none" />
            </symbol>
            <symbol
               id="id-f7bc5631-f9be-40a8-a29e-71348240286e"
               overflow="visible">
              <path
                 id="id-5025d44c-d820-4e3c-822a-921c4541c43a"
                 d="m 4.84375,-3.796875 c 0.046875,-0.140625 0.046875,-0.15625 0.046875,-0.234375 0,-0.171875 -0.140625,-0.265625 -0.296875,-0.265625 -0.09375,0 -0.25,0.0625 -0.34375,0.203125 -0.015625,0.0625 -0.109375,0.359375 -0.140625,0.546875 -0.078125,0.25 -0.140625,0.53125 -0.203125,0.796875 l -0.453125,1.796875 c -0.03125,0.140625 -0.46875,0.84375 -1.125,0.84375 -0.5,0 -0.609375,-0.4375 -0.609375,-0.8125 C 1.71875,-1.375 1.890625,-2 2.21875,-2.875 2.375,-3.28125 2.421875,-3.390625 2.421875,-3.59375 c 0,-0.4375 -0.3125,-0.8125 -0.8125,-0.8125 -0.953125,0 -1.3125,1.453125 -1.3125,1.53125 0,0.109375 0.09375,0.109375 0.109375,0.109375 0.109375,0 0.109375,-0.03125 0.15625,-0.1875 0.28125,-0.9375 0.671875,-1.234375 1.015625,-1.234375 0.078125,0 0.25,0 0.25,0.3125 0,0.25 -0.109375,0.515625 -0.171875,0.703125 -0.40625,1.0625 -0.578125,1.625 -0.578125,2.09375 0,0.890625 0.625,1.1875 1.21875,1.1875 0.390625,0 0.71875,-0.171875 1,-0.453125 -0.125,0.515625 -0.25,1.015625 -0.640625,1.546875 -0.265625,0.328125 -0.640625,0.625 -1.09375,0.625 -0.140625,0 -0.59375,-0.03125 -0.765625,-0.421875 0.15625,0 0.296875,0 0.421875,-0.125 C 1.328125,1.203125 1.421875,1.0625 1.421875,0.875 1.421875,0.5625 1.15625,0.53125 1.0625,0.53125 0.828125,0.53125 0.5,0.6875 0.5,1.171875 c 0,0.5 0.4375,0.875 1.0625,0.875 1.015625,0 2.046875,-0.90625 2.328125,-2.03125 z m 0,0"
                 style="stroke:none" />
            </symbol>
          </g>
        </defs>
        <g
           transform="translate(-149.009,-130.359)"
           id="id-89f4da74-ffe0-47d1-93df-061b0e1bc69b">
          <g
             id="id-1e3d17bf-6aec-46b1-8194-2c4bd65e67ed"
             style="fill:#000000;fill-opacity:1">
            <g
               transform="translate(148.712,134.765)"
               id="g1355">
              <path
                 id="id-7458d2af-452a-4639-97d1-f03f41c516a9"
                 d="m 4.84375,-3.796875 c 0.046875,-0.140625 0.046875,-0.15625 0.046875,-0.234375 0,-0.171875 -0.140625,-0.265625 -0.296875,-0.265625 -0.09375,0 -0.25,0.0625 -0.34375,0.203125 -0.015625,0.0625 -0.109375,0.359375 -0.140625,0.546875 -0.078125,0.25 -0.140625,0.53125 -0.203125,0.796875 l -0.453125,1.796875 c -0.03125,0.140625 -0.46875,0.84375 -1.125,0.84375 -0.5,0 -0.609375,-0.4375 -0.609375,-0.8125 C 1.71875,-1.375 1.890625,-2 2.21875,-2.875 2.375,-3.28125 2.421875,-3.390625 2.421875,-3.59375 c 0,-0.4375 -0.3125,-0.8125 -0.8125,-0.8125 -0.953125,0 -1.3125,1.453125 -1.3125,1.53125 0,0.109375 0.09375,0.109375 0.109375,0.109375 0.109375,0 0.109375,-0.03125 0.15625,-0.1875 0.28125,-0.9375 0.671875,-1.234375 1.015625,-1.234375 0.078125,0 0.25,0 0.25,0.3125 0,0.25 -0.109375,0.515625 -0.171875,0.703125 -0.40625,1.0625 -0.578125,1.625 -0.578125,2.09375 0,0.890625 0.625,1.1875 1.21875,1.1875 0.390625,0 0.71875,-0.171875 1,-0.453125 -0.125,0.515625 -0.25,1.015625 -0.640625,1.546875 -0.265625,0.328125 -0.640625,0.625 -1.09375,0.625 -0.140625,0 -0.59375,-0.03125 -0.765625,-0.421875 0.15625,0 0.296875,0 0.421875,-0.125 C 1.328125,1.203125 1.421875,1.0625 1.421875,0.875 1.421875,0.5625 1.15625,0.53125 1.0625,0.53125 0.828125,0.53125 0.5,0.6875 0.5,1.171875 c 0,0.5 0.4375,0.875 1.0625,0.875 1.015625,0 2.046875,-0.90625 2.328125,-2.03125 z m 0,0"
                 style="stroke:none" />
            </g>
          </g>
        </g>
      </g>
      <g
         transform="matrix(0.705556,0,0,0.705556,192.86137,181.01901)"
         ns21:version="1.0.1"
         ns21:texconverter="pdflatex"
         ns21:pdfconverter="inkscape"
         ns21:text="$x$"
         ns21:preamble="C:\\Users\\claum\\AppData\\Roaming\\inkscape\\extensions\\textext\\default_packages.tex"
         ns21:scale="2.0"
         ns21:alignment="middle center"
         ns21:jacobian_sqrt="0.705556"
         id="g1429">
        <defs
           id="id-015e0429-db14-418e-bb0c-c4f1983ee72c">
          <g
             id="id-9f08f3a0-444f-4257-b90d-feb0240217bb">
            <symbol
               id="id-7532d377-8320-476a-a259-5aab8633cf0f"
               overflow="visible">
              <path
                 id="id-4275df17-ba6c-4b42-97d4-909eb145a5df"
                 d=""
                 style="stroke:none" />
            </symbol>
            <symbol
               id="id-77d287b4-060f-416f-a44d-34bb4c516268"
               overflow="visible">
              <path
                 id="id-04e719b2-dd50-47e8-9eba-eea165e897f3"
                 d="M 3.328125,-3.015625 C 3.390625,-3.265625 3.625,-4.1875 4.3125,-4.1875 c 0.046875,0 0.296875,0 0.5,0.125 C 4.53125,-4 4.34375,-3.765625 4.34375,-3.515625 c 0,0.15625 0.109375,0.34375 0.375,0.34375 0.21875,0 0.53125,-0.171875 0.53125,-0.578125 0,-0.515625 -0.578125,-0.65625 -0.921875,-0.65625 -0.578125,0 -0.921875,0.53125 -1.046875,0.75 -0.25,-0.65625 -0.78125,-0.75 -1.078125,-0.75 -1.03125,0 -1.609375,1.28125 -1.609375,1.53125 0,0.109375 0.109375,0.109375 0.125,0.109375 0.078125,0 0.109375,-0.03125 0.125,-0.109375 0.34375,-1.0625 1,-1.3125 1.34375,-1.3125 0.1875,0 0.53125,0.09375 0.53125,0.671875 0,0.3125 -0.171875,0.96875 -0.53125,2.375 -0.15625,0.609375 -0.515625,1.03125 -0.953125,1.03125 -0.0625,0 -0.28125,0 -0.5,-0.125 0.25,-0.0625 0.46875,-0.265625 0.46875,-0.546875 0,-0.265625 -0.21875,-0.34375 -0.359375,-0.34375 -0.3125,0 -0.546875,0.25 -0.546875,0.578125 0,0.453125 0.484375,0.65625 0.921875,0.65625 0.671875,0 1.03125,-0.703125 1.046875,-0.75 0.125,0.359375 0.484375,0.75 1.078125,0.75 1.03125,0 1.59375,-1.28125 1.59375,-1.53125 0,-0.109375 -0.078125,-0.109375 -0.109375,-0.109375 -0.09375,0 -0.109375,0.046875 -0.140625,0.109375 -0.328125,1.078125 -1,1.3125 -1.3125,1.3125 -0.390625,0 -0.546875,-0.3125 -0.546875,-0.65625 0,-0.21875 0.046875,-0.4375 0.15625,-0.875 z m 0,0"
                 style="stroke:none" />
            </symbol>
          </g>
        </defs>
        <g
           transform="translate(-149.009,-130.359)"
           id="id-95b1c326-85f8-4281-b621-0279dd061171">
          <g
             id="id-1a596322-3a4a-4cc8-8dcd-334457bba7d2"
             style="fill:#000000;fill-opacity:1">
            <g
               transform="translate(148.712,134.765)"
               id="g1425">
              <path
                 id="id-e3d52f25-0581-45f9-8bb0-bdbc068330da"
                 d="M 3.328125,-3.015625 C 3.390625,-3.265625 3.625,-4.1875 4.3125,-4.1875 c 0.046875,0 0.296875,0 0.5,0.125 C 4.53125,-4 4.34375,-3.765625 4.34375,-3.515625 c 0,0.15625 0.109375,0.34375 0.375,0.34375 0.21875,0 0.53125,-0.171875 0.53125,-0.578125 0,-0.515625 -0.578125,-0.65625 -0.921875,-0.65625 -0.578125,0 -0.921875,0.53125 -1.046875,0.75 -0.25,-0.65625 -0.78125,-0.75 -1.078125,-0.75 -1.03125,0 -1.609375,1.28125 -1.609375,1.53125 0,0.109375 0.109375,0.109375 0.125,0.109375 0.078125,0 0.109375,-0.03125 0.125,-0.109375 0.34375,-1.0625 1,-1.3125 1.34375,-1.3125 0.1875,0 0.53125,0.09375 0.53125,0.671875 0,0.3125 -0.171875,0.96875 -0.53125,2.375 -0.15625,0.609375 -0.515625,1.03125 -0.953125,1.03125 -0.0625,0 -0.28125,0 -0.5,-0.125 0.25,-0.0625 0.46875,-0.265625 0.46875,-0.546875 0,-0.265625 -0.21875,-0.34375 -0.359375,-0.34375 -0.3125,0 -0.546875,0.25 -0.546875,0.578125 0,0.453125 0.484375,0.65625 0.921875,0.65625 0.671875,0 1.03125,-0.703125 1.046875,-0.75 0.125,0.359375 0.484375,0.75 1.078125,0.75 1.03125,0 1.59375,-1.28125 1.59375,-1.53125 0,-0.109375 -0.078125,-0.109375 -0.109375,-0.109375 -0.09375,0 -0.109375,0.046875 -0.140625,0.109375 -0.328125,1.078125 -1,1.3125 -1.3125,1.3125 -0.390625,0 -0.546875,-0.3125 -0.546875,-0.65625 0,-0.21875 0.046875,-0.4375 0.15625,-0.875 z m 0,0"
                 style="stroke:none" />
            </g>
          </g>
        </g>
      </g>
      <g
         transform="matrix(0.705556,0,0,0.705556,73.800002,133.51502)"
         ns21:version="1.0.1"
         ns21:texconverter="pdflatex"
         ns21:pdfconverter="inkscape"
         ns21:text="$\\mathbf{G}$"
         ns21:preamble="C:\\Users\\claum\\AppData\\Roaming\\inkscape\\extensions\\textext\\default_packages.tex"
         ns21:scale="2.0"
         ns21:alignment="middle center"
         ns21:jacobian_sqrt="0.705556"
         id="g1510">
        <defs
           id="id-38b59f8b-0678-4046-a85a-380d3f64ea37">
          <g
             id="id-23240001-6ea3-4df1-830b-736f161755ac">
            <symbol
               id="id-11a2a5cd-0e60-4a87-99df-25e106174658"
               overflow="visible">
              <path
                 id="id-bd179dad-acce-448b-bc99-d009e16a6550"
                 d=""
                 style="stroke:none" />
            </symbol>
            <symbol
               id="id-c382b42f-632c-4df7-92e5-e01c89e17d71"
               overflow="visible">
              <path
                 id="id-a9089fd0-98b7-4fd8-bb48-4cea7ee4ab1c"
                 d="M 6.515625,-0.53125 C 6.8125,-0.265625 7.421875,0 7.484375,0 7.625,0 7.625,-0.125 7.625,-0.28125 v -2 H 8.421875 V -2.75 c -0.34375,0.03125 -1.21875,0.03125 -1.609375,0.03125 -0.578125,0 -1.5,0 -2.03125,-0.03125 v 0.46875 h 1.421875 v 1 c 0,0.1875 0,0.484375 -0.375,0.71875 C 5.5625,-0.421875 5.25,-0.359375 4.921875,-0.359375 c -0.859375,0 -1.71875,-0.28125 -2.203125,-0.90625 -0.421875,-0.546875 -0.5625,-1.25 -0.5625,-2.15625 0,-1.125 0.203125,-1.703125 0.578125,-2.1875 0.390625,-0.5 1.15625,-0.875 2.125,-0.875 1.0625,0 2.015625,0.765625 2.234375,2.03125 C 7.125,-4.265625 7.125,-4.25 7.359375,-4.25 c 0.25,0 0.265625,-0.015625 0.265625,-0.28125 v -2.140625 c 0,-0.1875 0,-0.28125 -0.171875,-0.28125 -0.09375,0 -0.109375,0.03125 -0.203125,0.09375 l -0.65625,0.59375 c -0.71875,-0.578125 -1.4375,-0.6875 -1.953125,-0.6875 -2.453125,0 -4,1.46875 -4,3.53125 0,1.984375 1.4375,3.53125 4.015625,3.53125 0.328125,0 1.359375,-0.015625 1.859375,-0.640625 z m 0,0"
                 style="stroke:none" />
            </symbol>
          </g>
        </defs>
        <g
           transform="translate(-149.353,-127.812)"
           id="id-6a559c8c-5848-457b-8e42-3950286203d8">
          <g
             id="id-db974112-8fad-4768-abfe-10f64d93f75d"
             style="fill:#000000;fill-opacity:1">
            <g
               transform="translate(148.712,134.765)"
               id="g1506">
              <path
                 id="id-7078e0db-f884-4477-8361-17d7dc23fe57"
                 d="M 6.515625,-0.53125 C 6.8125,-0.265625 7.421875,0 7.484375,0 7.625,0 7.625,-0.125 7.625,-0.28125 v -2 H 8.421875 V -2.75 c -0.34375,0.03125 -1.21875,0.03125 -1.609375,0.03125 -0.578125,0 -1.5,0 -2.03125,-0.03125 v 0.46875 h 1.421875 v 1 c 0,0.1875 0,0.484375 -0.375,0.71875 C 5.5625,-0.421875 5.25,-0.359375 4.921875,-0.359375 c -0.859375,0 -1.71875,-0.28125 -2.203125,-0.90625 -0.421875,-0.546875 -0.5625,-1.25 -0.5625,-2.15625 0,-1.125 0.203125,-1.703125 0.578125,-2.1875 0.390625,-0.5 1.15625,-0.875 2.125,-0.875 1.0625,0 2.015625,0.765625 2.234375,2.03125 C 7.125,-4.265625 7.125,-4.25 7.359375,-4.25 c 0.25,0 0.265625,-0.015625 0.265625,-0.28125 v -2.140625 c 0,-0.1875 0,-0.28125 -0.171875,-0.28125 -0.09375,0 -0.109375,0.03125 -0.203125,0.09375 l -0.65625,0.59375 c -0.71875,-0.578125 -1.4375,-0.6875 -1.953125,-0.6875 -2.453125,0 -4,1.46875 -4,3.53125 0,1.984375 1.4375,3.53125 4.015625,3.53125 0.328125,0 1.359375,-0.015625 1.859375,-0.640625 z m 0,0"
                 style="stroke:none" />
            </g>
          </g>
        </g>
      </g>
      <path
         style="opacity:0.0291545;fill:#000000;stroke:#000000;stroke-width:1.43082"
         d="m 95.694943,591.27089 v -86.06693 h 84.201407 c 46.31077,0 84.52361,0.52134 84.91741,1.15852 0.3938,0.63718 -37.49684,39.3673 -84.20141,86.06693 l -84.917407,84.90841 z"
         id="path5468"
         transform="scale(0.26458333)" />
      <path
         style="opacity:0.0291545;fill:#000000;stroke:#000000;stroke-width:1.43082"
         d="m 182.20126,594.48968 c 46.80429,-46.75 85.70185,-85 86.43904,-85 0.81974,0 1.34036,33.01549 1.34036,85 v 85 H 183.54161 97.102571 Z"
         id="path5470"
         transform="scale(0.26458333)" />
      <path
         style="opacity:0.0291545;fill:#000000;stroke:#000000;stroke-width:1.43082"
         d="m 272.8378,594.83332 c 0,-83.9043 0.0261,-84.67268 2.93998,-86.49241 2.07058,-1.2931 2.80987,-3.02991 2.5,-5.87323 -0.39439,-3.61887 5.30381,-9.70328 54.99455,-58.72194 l 55.43454,-54.68477 5.78043,5.5715 c 17.87251,17.2265 48.15561,58.57995 63.71009,87.00007 29.88924,54.61165 47.47872,116.67864 49.89778,176.07142 l 0.88733,21.78572 H 390.91015 272.8378 Z m 25.71429,-73.31052 c 0,-0.98969 0.3902,-2.81631 0.86712,-4.05914 0.69194,-1.80316 -0.17391,-2.2597 -4.28571,-2.2597 -2.83406,0 -5.15284,0.64286 -5.15284,1.42858 0,0.78571 0.64285,1.42857 1.42857,1.42857 0.78571,0 1.42857,0.68555 1.42857,1.52346 0,0.8379 -1.76786,1.32004 -3.92857,1.07143 -3.29192,-0.37878 -4.00225,-1.21956 -4.38319,-5.18821 -0.76544,-7.97436 6.33854,-12.33442 9.74033,-5.97811 2.18347,4.07985 4.28572,3.52801 4.28572,-1.12501 0,-3.67999 -0.45023,-4.00011 -5.93332,-4.21876 -5.92399,-0.23623 -10.98981,1.51553 -12.97338,4.4862 -2.29445,3.43626 -1.11736,10.67871 2.10208,12.93369 3.8932,2.72691 16.80462,2.69387 16.80462,-0.043 z"
         id="path5472"
         transform="scale(0.26458333)" />
      <path
         style="opacity:0.0291545;fill:#000000;stroke:#000000;stroke-width:1.43082"
         d="m 95.694943,383.77539 c 0,-65.21428 0.482143,-118.56148 1.071428,-118.54932 10.141019,0.20918 47.386189,3.45684 58.199079,5.07477 59.46622,8.89789 117.95651,31.32941 168.52442,64.63054 16.70787,11.00285 45.62954,34.06264 55.74604,44.44737 l 7.1124,7.30098 -55.45448,55.46816 c -46.69036,46.70187 -55.98124,55.36746 -58.78759,54.83099 -2.19011,-0.41867 -4.21471,0.39247 -5.90397,2.36538 -2.55824,2.98782 -2.9832,3.00256 -86.5391,3.00256 H 95.694943 Z"
         id="path5474"
         transform="scale(0.26458333)" />
    </g>
  </g>
</svg>
