<?xml version="1.0" encoding="UTF-8" standalone="no"?>
<svg
   xmlns:ns21="http://www.iki.fi/pav/software/textext/"
   xmlns:dc="http://purl.org/dc/elements/1.1/"
   xmlns:cc="http://creativecommons.org/ns#"
   xmlns:rdf="http://www.w3.org/1999/02/22-rdf-syntax-ns#"
   xmlns:svg="http://www.w3.org/2000/svg"
   xmlns="http://www.w3.org/2000/svg"
   xmlns:sodipodi="http://sodipodi.sourceforge.net/DTD/sodipodi-0.dtd"
   xmlns:inkscape="http://www.inkscape.org/namespaces/inkscape"
   id="svg8"
   version="1.1"
   viewBox="0 0 156 91.999998"
   height="9.1999998cm"
   width="15.6cm"
   inkscape:version="1.0 (4035a4fb49, 2020-05-01)"
   sodipodi:docname="Figura1_6.svg">
  <defs
     id="defs2" />
  <sodipodi:namedview
     units="cm"
     id="base"
     pagecolor="#ffffff"
     bordercolor="#666666"
     borderopacity="1.0"
     inkscape:pageopacity="0.0"
     inkscape:pageshadow="2"
     inkscape:zoom="0.98994949"
     inkscape:cx="206.28687"
     inkscape:cy="262.5774"
     inkscape:document-units="mm"
     inkscape:current-layer="layer1"
     inkscape:document-rotation="0"
     showgrid="true"
     inkscape:window-width="1350"
     inkscape:window-height="729"
     inkscape:window-x="0"
     inkscape:window-y="0"
     inkscape:window-maximized="0">
    <inkscape:grid
       type="xygrid"
       id="grid10" />
  </sodipodi:namedview>
  <metadata
     id="metadata5">
    <rdf:RDF>
      <cc:Work
         rdf:about="">
        <dc:format>image/svg+xml</dc:format>
        <dc:type
           rdf:resource="http://purl.org/dc/dcmitype/StillImage" />
        <dc:title></dc:title>
      </cc:Work>
    </rdf:RDF>
  </metadata>
  <g
     inkscape:label="Livello 1"
     inkscape:groupmode="layer"
     id="layer1">
    <g
       id="g1580"
       transform="translate(-21,-8.999999)">
      <g
         transform="translate(-25,5)"
         id="g27">
        <path
           style="fill:none;stroke:#000000;stroke-width:0.264583px;stroke-linecap:butt;stroke-linejoin:miter;stroke-opacity:1"
           d="M 185,15 195,5"
           id="path12" />
        <path
           style="fill:none;stroke:#000000;stroke-width:0.264583px;stroke-linecap:butt;stroke-linejoin:miter;stroke-opacity:1"
           d="M 190,10 V 69.999999"
           id="path14" />
        <path
           style="fill:none;stroke:#000000;stroke-width:0.264583px;stroke-linecap:butt;stroke-linejoin:miter;stroke-opacity:1"
           d="M 185,75 195,64.999999"
           id="path16" />
        <path
           style="fill:none;stroke:#000000;stroke-width:0.264583px;stroke-linecap:butt;stroke-linejoin:miter;stroke-opacity:1"
           d="m 190,69.999999 v 20"
           id="path18" />
        <path
           style="fill:none;stroke:#000000;stroke-width:0.264583px;stroke-linecap:butt;stroke-linejoin:miter;stroke-opacity:1"
           d="M 185,94.999999 195,84.999998"
           id="path20" />
      </g>
      <path
         id="path29"
         d="M 25,95 H 125"
         style="fill:none;stroke:#000000;stroke-width:0.264583px;stroke-linecap:butt;stroke-linejoin:miter;stroke-opacity:1" />
      <path
         id="path31"
         d="M 145,15 25,94.999999"
         style="fill:none;stroke:#000000;stroke-width:0.264583px;stroke-linecap:butt;stroke-linejoin:miter;stroke-opacity:1" />
      <path
         id="path33"
         d="M 125,94.999999 145,15"
         style="fill:none;stroke:#000000;stroke-width:0.264583px;stroke-linecap:butt;stroke-linejoin:miter;stroke-opacity:1" />
      <path
         id="path35"
         d="M 165,75 H 30"
         style="fill:none;stroke:#000000;stroke-width:0.264583px;stroke-linecap:butt;stroke-linejoin:miter;stroke-opacity:1" />
      <path
         sodipodi:nodetypes="cc"
         id="path37"
         d="M 145,15 75,95"
         style="fill:none;stroke:#000000;stroke-width:0.265;stroke-linecap:butt;stroke-linejoin:miter;stroke-miterlimit:4;stroke-dasharray:0.265, 0.265;stroke-dashoffset:0;stroke-opacity:1" />
      <circle
         r="1"
         cy="75"
         cx="92.531471"
         id="path862"
         style="opacity:0.74212;fill:#4d4d4d;stroke:#4f4f4f;stroke-width:0.264999;stroke-miterlimit:4;stroke-dasharray:none;stroke-dashoffset:0;stroke-opacity:1" />
      <g
         transform="matrix(0.705556,0,0,0.705556,88.078822,68.703819)"
         ns21:version="1.0.1"
         ns21:texconverter="pdflatex"
         ns21:pdfconverter="inkscape"
         ns21:text="$\\mathbf{G}$"
         ns21:preamble="C:\\Users\\claum\\AppData\\Roaming\\inkscape\\extensions\\textext\\default_packages.tex"
         ns21:scale="2.0"
         ns21:alignment="middle center"
         ns21:jacobian_sqrt="0.705556"
         id="g891">
        <defs
           id="id-9e6e2de0-85c6-4590-9048-d6203a49c17b">
          <g
             id="id-e2cb0169-85ed-424e-9e60-b50bf6940d0b">
            <symbol
               id="id-fc168a4e-38cf-487c-b30c-17611e747efb"
               overflow="visible">
              <path
                 id="id-1791c386-e629-47a7-8b39-91e53b89bf17"
                 d=""
                 style="stroke:none" />
            </symbol>
            <symbol
               id="id-c219fa47-d4f8-4b71-859b-a1a7b080341c"
               overflow="visible">
              <path
                 id="id-ab90f49a-a1c6-415f-b6ce-144273f46be1"
                 d="M 6.515625,-0.53125 C 6.8125,-0.265625 7.421875,0 7.484375,0 7.625,0 7.625,-0.125 7.625,-0.28125 v -2 H 8.421875 V -2.75 c -0.34375,0.03125 -1.21875,0.03125 -1.609375,0.03125 -0.578125,0 -1.5,0 -2.03125,-0.03125 v 0.46875 h 1.421875 v 1 c 0,0.1875 0,0.484375 -0.375,0.71875 C 5.5625,-0.421875 5.25,-0.359375 4.921875,-0.359375 c -0.859375,0 -1.71875,-0.28125 -2.203125,-0.90625 -0.421875,-0.546875 -0.5625,-1.25 -0.5625,-2.15625 0,-1.125 0.203125,-1.703125 0.578125,-2.1875 0.390625,-0.5 1.15625,-0.875 2.125,-0.875 1.0625,0 2.015625,0.765625 2.234375,2.03125 C 7.125,-4.265625 7.125,-4.25 7.359375,-4.25 c 0.25,0 0.265625,-0.015625 0.265625,-0.28125 v -2.140625 c 0,-0.1875 0,-0.28125 -0.171875,-0.28125 -0.09375,0 -0.109375,0.03125 -0.203125,0.09375 l -0.65625,0.59375 c -0.71875,-0.578125 -1.4375,-0.6875 -1.953125,-0.6875 -2.453125,0 -4,1.46875 -4,3.53125 0,1.984375 1.4375,3.53125 4.015625,3.53125 0.328125,0 1.359375,-0.015625 1.859375,-0.640625 z m 0,0"
                 style="stroke:none" />
            </symbol>
          </g>
        </defs>
        <g
           transform="translate(-149.353,-127.812)"
           id="id-d10a8778-39b3-4409-9f7e-86e64130d36c">
          <g
             id="id-a7caac58-3b63-4478-8e2e-37d4d3c1fbe9"
             style="fill:#000000;fill-opacity:1">
            <g
               transform="translate(148.712,134.765)"
               id="g887">
              <path
                 id="id-a771fe65-cb59-4176-9d0f-9c97571700d3"
                 d="M 6.515625,-0.53125 C 6.8125,-0.265625 7.421875,0 7.484375,0 7.625,0 7.625,-0.125 7.625,-0.28125 v -2 H 8.421875 V -2.75 c -0.34375,0.03125 -1.21875,0.03125 -1.609375,0.03125 -0.578125,0 -1.5,0 -2.03125,-0.03125 v 0.46875 h 1.421875 v 1 c 0,0.1875 0,0.484375 -0.375,0.71875 C 5.5625,-0.421875 5.25,-0.359375 4.921875,-0.359375 c -0.859375,0 -1.71875,-0.28125 -2.203125,-0.90625 -0.421875,-0.546875 -0.5625,-1.25 -0.5625,-2.15625 0,-1.125 0.203125,-1.703125 0.578125,-2.1875 0.390625,-0.5 1.15625,-0.875 2.125,-0.875 1.0625,0 2.015625,0.765625 2.234375,2.03125 C 7.125,-4.265625 7.125,-4.25 7.359375,-4.25 c 0.25,0 0.265625,-0.015625 0.265625,-0.28125 v -2.140625 c 0,-0.1875 0,-0.28125 -0.171875,-0.28125 -0.09375,0 -0.109375,0.03125 -0.203125,0.09375 l -0.65625,0.59375 c -0.71875,-0.578125 -1.4375,-0.6875 -1.953125,-0.6875 -2.453125,0 -4,1.46875 -4,3.53125 0,1.984375 1.4375,3.53125 4.015625,3.53125 0.328125,0 1.359375,-0.015625 1.859375,-0.640625 z m 0,0"
                 style="stroke:none" />
            </g>
          </g>
        </g>
      </g>
      <g
         transform="matrix(0.705556,0,0,0.705556,72.29462,95.746441)"
         ns21:version="1.0.1"
         ns21:texconverter="pdflatex"
         ns21:pdfconverter="inkscape"
         ns21:text="\\textsc{m}"
         ns21:preamble="C:\\Users\\claum\\AppData\\Roaming\\inkscape\\extensions\\textext\\default_packages.tex"
         ns21:scale="2.0"
         ns21:alignment="middle center"
         ns21:jacobian_sqrt="0.705556"
         id="g945">
        <defs
           id="id-96b54c8f-7d61-49d2-8c4c-9c6cc287ff48">
          <g
             id="id-7e41b065-7940-40e7-ae01-eef215114729">
            <symbol
               id="id-a2bcb45c-5616-430d-9fad-92a6925953c1"
               overflow="visible">
              <path
                 id="id-b67c93d4-ee55-40b7-9b9e-62033e6f2d5b"
                 d=""
                 style="stroke:none" />
            </symbol>
            <symbol
               id="id-69f505ae-6f50-423a-ad1a-94e51edef821"
               overflow="visible">
              <path
                 id="id-6ef4ec90-e2be-4a92-8b45-df0056b3e0ef"
                 d="M 5.609375,-4.828125 H 5.625 V -0.71875 C 5.625,-0.3125 5.578125,-0.25 4.90625,-0.25 V 0 c 0.203125,-0.015625 0.6875,-0.03125 1.03125,-0.03125 0.359375,0 0.71875,0.015625 1.046875,0.03125 v -0.25 c -0.671875,0 -0.71875,-0.0625 -0.71875,-0.46875 v -3.6875 c 0,-0.40625 0.046875,-0.46875 0.71875,-0.46875 v -0.25 h -1.21875 c -0.21875,0 -0.25,0 -0.328125,0.1875 L 3.734375,-0.75 2.015625,-4.9375 C 1.9375,-5.125 1.890625,-5.125 1.671875,-5.125 H 0.46875 v 0.25 c 0.671875,0 0.71875,0.0625 0.71875,0.46875 V -1 c 0,0.21875 0,0.75 -0.71875,0.75 V 0 C 0.671875,-0.015625 1.125,-0.03125 1.328125,-0.03125 1.46875,-0.03125 1.9375,-0.015625 2.1875,0 V -0.25 C 1.46875,-0.25 1.46875,-0.78125 1.46875,-1 v -3.765625 l 1.875,4.59375 C 3.375,-0.09375 3.421875,0 3.53125,0 3.625,0 3.671875,-0.09375 3.71875,-0.171875 Z m 0,0"
                 style="stroke:none" />
            </symbol>
          </g>
        </defs>
        <g
           transform="translate(-149.181,-129.64)"
           id="id-61e2d77d-5518-4ec2-ba02-38896bbbbc06">
          <g
             id="id-687a8f9d-083b-41fb-96d6-7da7f548174d"
             style="fill:#000000;fill-opacity:1">
            <g
               transform="translate(148.712,134.765)"
               id="g941">
              <path
                 id="id-044b1d59-bf9b-4e94-8005-b76826d2248e"
                 d="M 5.609375,-4.828125 H 5.625 V -0.71875 C 5.625,-0.3125 5.578125,-0.25 4.90625,-0.25 V 0 c 0.203125,-0.015625 0.6875,-0.03125 1.03125,-0.03125 0.359375,0 0.71875,0.015625 1.046875,0.03125 v -0.25 c -0.671875,0 -0.71875,-0.0625 -0.71875,-0.46875 v -3.6875 c 0,-0.40625 0.046875,-0.46875 0.71875,-0.46875 v -0.25 h -1.21875 c -0.21875,0 -0.25,0 -0.328125,0.1875 L 3.734375,-0.75 2.015625,-4.9375 C 1.9375,-5.125 1.890625,-5.125 1.671875,-5.125 H 0.46875 v 0.25 c 0.671875,0 0.71875,0.0625 0.71875,0.46875 V -1 c 0,0.21875 0,0.75 -0.71875,0.75 V 0 C 0.671875,-0.015625 1.125,-0.03125 1.328125,-0.03125 1.46875,-0.03125 1.9375,-0.015625 2.1875,0 V -0.25 C 1.46875,-0.25 1.46875,-0.78125 1.46875,-1 v -3.765625 l 1.875,4.59375 C 3.375,-0.09375 3.421875,0 3.53125,0 3.625,0 3.671875,-0.09375 3.71875,-0.171875 Z m 0,0"
                 style="stroke:none" />
            </g>
          </g>
        </g>
      </g>
      <g
         transform="matrix(0.705556,0,0,0.705556,21.908769,95.629685)"
         ns21:version="1.0.1"
         ns21:texconverter="pdflatex"
         ns21:pdfconverter="inkscape"
         ns21:text="\\textsc{a}"
         ns21:preamble="C:\\Users\\claum\\AppData\\Roaming\\inkscape\\extensions\\textext\\default_packages.tex"
         ns21:scale="2.0"
         ns21:alignment="middle center"
         ns21:jacobian_sqrt="0.705556"
         id="g1010">
        <defs
           id="id-2a162a24-dcde-43c7-9f47-fd5120931cec">
          <g
             id="id-c9a64d41-6eb4-4bb3-80c1-b6e5e324e341">
            <symbol
               id="id-7ea171d0-3c91-402b-8b9b-3a46b64f1d03"
               overflow="visible">
              <path
                 id="id-15e6d6f9-626d-48f4-932f-5046fa351b1e"
                 d=""
                 style="stroke:none" />
            </symbol>
            <symbol
               id="id-92858893-59f7-4a85-8752-b94df891cb4a"
               overflow="visible">
              <path
                 id="id-515f7f05-2fb9-4eca-bb71-920119ede38c"
                 d="m 3.28125,-5.078125 c -0.0625,-0.15625 -0.109375,-0.21875 -0.21875,-0.21875 -0.140625,0 -0.15625,0.0625 -0.21875,0.1875 L 1.25,-0.984375 C 1.140625,-0.71875 0.96875,-0.265625 0.34375,-0.25 V 0 c 0.21875,-0.015625 0.5,-0.03125 0.71875,-0.03125 0.171875,0 0.625,0.015625 0.828125,0.03125 v -0.25 c -0.421875,-0.015625 -0.4375,-0.359375 -0.4375,-0.453125 0,-0.078125 0,-0.09375 0.328125,-0.984375 h 2.0625 L 4.0625,-1.125 c 0.078125,0.203125 0.21875,0.53125 0.21875,0.59375 C 4.28125,-0.25 3.921875,-0.25 3.75,-0.25 V 0 c 0.265625,-0.015625 0.859375,-0.03125 1.0625,-0.03125 0.328125,0 0.71875,0.015625 0.953125,0.03125 V -0.25 C 5.21875,-0.25 5.125,-0.296875 5,-0.640625 Z M 3.75,-1.9375 H 1.890625 l 0.9375,-2.40625 z m 0,0"
                 style="stroke:none" />
            </symbol>
          </g>
        </defs>
        <g
           transform="translate(-149.056,-129.468)"
           id="id-b104351f-6b89-4682-a27c-6a80b4769c1f">
          <g
             id="id-0ec0b686-7019-4bd6-b261-52e85116219d"
             style="fill:#000000;fill-opacity:1">
            <g
               transform="translate(148.712,134.765)"
               id="g1006">
              <path
                 id="id-447f5468-ecee-4df6-adcf-271cd0d12eef"
                 d="m 3.28125,-5.078125 c -0.0625,-0.15625 -0.109375,-0.21875 -0.21875,-0.21875 -0.140625,0 -0.15625,0.0625 -0.21875,0.1875 L 1.25,-0.984375 C 1.140625,-0.71875 0.96875,-0.265625 0.34375,-0.25 V 0 c 0.21875,-0.015625 0.5,-0.03125 0.71875,-0.03125 0.171875,0 0.625,0.015625 0.828125,0.03125 v -0.25 c -0.421875,-0.015625 -0.4375,-0.359375 -0.4375,-0.453125 0,-0.078125 0,-0.09375 0.328125,-0.984375 h 2.0625 L 4.0625,-1.125 c 0.078125,0.203125 0.21875,0.53125 0.21875,0.59375 C 4.28125,-0.25 3.921875,-0.25 3.75,-0.25 V 0 c 0.265625,-0.015625 0.859375,-0.03125 1.0625,-0.03125 0.328125,0 0.71875,0.015625 0.953125,0.03125 V -0.25 C 5.21875,-0.25 5.125,-0.296875 5,-0.640625 Z M 3.75,-1.9375 H 1.890625 l 0.9375,-2.40625 z m 0,0"
                 style="stroke:none" />
            </g>
          </g>
        </g>
      </g>
      <g
         transform="matrix(0.705556,0,0,0.705556,145.01268,10.558763)"
         ns21:version="1.0.1"
         ns21:texconverter="pdflatex"
         ns21:pdfconverter="inkscape"
         ns21:text="\\textsc{c}"
         ns21:preamble="C:\\Users\\claum\\AppData\\Roaming\\inkscape\\extensions\\textext\\default_packages.tex"
         ns21:scale="2.0"
         ns21:alignment="middle center"
         ns21:jacobian_sqrt="0.705556"
         id="g1086">
        <defs
           id="id-d8d5a66d-5d3d-45f4-9c67-d600c80cc94f">
          <g
             id="id-3f31d86c-9393-4f6d-b77d-5beccd1caf13">
            <symbol
               id="id-6c78f86c-dd75-44a2-9b9d-582c138441ef"
               overflow="visible">
              <path
                 id="id-5912857f-8701-4e2e-9584-f790e294f346"
                 d=""
                 style="stroke:none" />
            </symbol>
            <symbol
               id="id-450abc72-bc4a-490b-b632-4187e8f7617c"
               overflow="visible">
              <path
                 id="id-94bc92e0-2ced-404a-b372-b9ca3bbddc55"
                 d="m 4.75,-4.640625 c -0.21875,-0.21875 -0.703125,-0.625 -1.453125,-0.625 -1.5,0 -2.78125,1.1875 -2.78125,2.703125 0,1.515625 1.28125,2.703125 2.78125,2.703125 1.296875,0 2.09375,-1.03125 2.09375,-1.90625 0,-0.09375 0,-0.15625 -0.140625,-0.15625 -0.109375,0 -0.109375,0.0625 -0.109375,0.15625 -0.078125,1.0625 -0.9375,1.65625 -1.765625,1.65625 -0.5,0 -2.015625,-0.265625 -2.015625,-2.453125 0,-2.21875 1.546875,-2.453125 2,-2.453125 0.734375,0 1.578125,0.515625 1.765625,1.78125 0.015625,0.078125 0.03125,0.140625 0.125,0.140625 0.140625,0 0.140625,-0.0625 0.140625,-0.25 v -1.6875 c 0,-0.15625 0,-0.234375 -0.109375,-0.234375 -0.0625,0 -0.0625,0.015625 -0.140625,0.125 z m 0,0"
                 style="stroke:none" />
            </symbol>
          </g>
        </defs>
        <g
           transform="translate(-149.228,-129.499)"
           id="id-1113e41b-688c-4c47-82eb-c17b6ee72fa2">
          <g
             id="id-4d43b4c5-429a-45b2-b9d9-42b9bf7aaf5c"
             style="fill:#000000;fill-opacity:1">
            <g
               transform="translate(148.712,134.765)"
               id="g1082">
              <path
                 id="id-b08744b0-425c-4f12-939f-dd812522e7d0"
                 d="m 4.75,-4.640625 c -0.21875,-0.21875 -0.703125,-0.625 -1.453125,-0.625 -1.5,0 -2.78125,1.1875 -2.78125,2.703125 0,1.515625 1.28125,2.703125 2.78125,2.703125 1.296875,0 2.09375,-1.03125 2.09375,-1.90625 0,-0.09375 0,-0.15625 -0.140625,-0.15625 -0.109375,0 -0.109375,0.0625 -0.109375,0.15625 -0.078125,1.0625 -0.9375,1.65625 -1.765625,1.65625 -0.5,0 -2.015625,-0.265625 -2.015625,-2.453125 0,-2.21875 1.546875,-2.453125 2,-2.453125 0.734375,0 1.578125,0.515625 1.765625,1.78125 0.015625,0.078125 0.03125,0.140625 0.125,0.140625 0.140625,0 0.140625,-0.0625 0.140625,-0.25 v -1.6875 c 0,-0.15625 0,-0.234375 -0.109375,-0.234375 -0.0625,0 -0.0625,0.015625 -0.140625,0.125 z m 0,0"
                 style="stroke:none" />
            </g>
          </g>
        </g>
      </g>
      <g
         transform="matrix(0.705556,0,0,0.705556,125.02977,96.180988)"
         ns21:version="1.0.1"
         ns21:texconverter="pdflatex"
         ns21:pdfconverter="inkscape"
         ns21:text="\\textsc{b}"
         ns21:preamble="C:\\Users\\claum\\AppData\\Roaming\\inkscape\\extensions\\textext\\default_packages.tex"
         ns21:scale="2.0"
         ns21:alignment="middle center"
         ns21:jacobian_sqrt="0.705556"
         id="g1173">
        <defs
           id="id-628038f3-2050-4a9d-bd61-343f2fbb8e7a">
          <g
             id="id-6a280fbe-5ba6-43ab-a764-6212c262e1a6">
            <symbol
               id="id-0bb02eb0-16bf-41de-b689-3c8710b14389"
               overflow="visible">
              <path
                 id="id-30461f51-32d3-456b-b999-49af0aa898f9"
                 d=""
                 style="stroke:none" />
            </symbol>
            <symbol
               id="id-77a390b6-4a1f-487b-88f5-9c689285d50e"
               overflow="visible">
              <path
                 id="id-77ed55d5-9768-409c-a929-f1af3b20a2ae"
                 d="m 3.796875,-2.6875 c 0.671875,-0.140625 1.25,-0.59375 1.25,-1.171875 0,-0.625 -0.703125,-1.265625 -1.78125,-1.265625 h -2.8125 v 0.25 c 0.671875,0 0.71875,0.0625 0.71875,0.46875 v 3.6875 C 1.171875,-0.3125 1.125,-0.25 0.453125,-0.25 V 0 H 3.46875 c 1.109375,0 1.8125,-0.671875 1.8125,-1.375 0,-0.65625 -0.640625,-1.203125 -1.484375,-1.3125 z m -1.96875,-1.765625 c 0,-0.390625 0.0625,-0.421875 0.40625,-0.421875 H 3.1875 c 0.90625,0 1.0625,0.78125 1.0625,1.015625 0,0.359375 -0.265625,1.09375 -1.296875,1.09375 h -1.125 z m 1.5,1.90625 c 0.84375,0 1.125,0.75 1.125,1.171875 0,0.453125 -0.34375,1.125 -1.25,1.125 h -0.96875 c -0.34375,0 -0.40625,-0.03125 -0.40625,-0.421875 v -1.875 z m 0,0"
                 style="stroke:none" />
            </symbol>
          </g>
        </defs>
        <g
           transform="translate(-149.165,-129.64)"
           id="id-a487b7c2-9b19-4ae2-938e-8b8d6b4b6769">
          <g
             id="id-4634260e-b9db-4f6c-8df2-1b6c941003f1"
             style="fill:#000000;fill-opacity:1">
            <g
               transform="translate(148.712,134.765)"
               id="g1169">
              <path
                 id="id-de1296df-5276-4d0b-85f2-a35362de4e85"
                 d="m 3.796875,-2.6875 c 0.671875,-0.140625 1.25,-0.59375 1.25,-1.171875 0,-0.625 -0.703125,-1.265625 -1.78125,-1.265625 h -2.8125 v 0.25 c 0.671875,0 0.71875,0.0625 0.71875,0.46875 v 3.6875 C 1.171875,-0.3125 1.125,-0.25 0.453125,-0.25 V 0 H 3.46875 c 1.109375,0 1.8125,-0.671875 1.8125,-1.375 0,-0.65625 -0.640625,-1.203125 -1.484375,-1.3125 z m -1.96875,-1.765625 c 0,-0.390625 0.0625,-0.421875 0.40625,-0.421875 H 3.1875 c 0.90625,0 1.0625,0.78125 1.0625,1.015625 0,0.359375 -0.265625,1.09375 -1.296875,1.09375 h -1.125 z m 1.5,1.90625 c 0.84375,0 1.125,0.75 1.125,1.171875 0,0.453125 -0.34375,1.125 -1.25,1.125 h -0.96875 c -0.34375,0 -0.40625,-0.03125 -0.40625,-0.421875 v -1.875 z m 0,0"
                 style="stroke:none" />
            </g>
          </g>
        </g>
      </g>
      <g
         transform="matrix(0.705556,0,0,0.705556,168.66143,39.736803)"
         ns21:version="1.0.1"
         ns21:texconverter="pdflatex"
         ns21:pdfconverter="inkscape"
         ns21:text="$\\frac{2}{3}h$"
         ns21:preamble="C:\\Users\\claum\\AppData\\Roaming\\inkscape\\extensions\\textext\\default_packages.tex"
         ns21:scale="2.0"
         ns21:alignment="middle center"
         ns21:jacobian_sqrt="0.705556"
         id="g1286">
        <defs
           id="id-d3789fab-f0e4-4f6b-842b-f8eb0e740523">
          <g
             id="id-58fd9d90-8706-456d-8776-07fe7a6091e0">
            <symbol
               id="id-1638f423-f635-469d-abb3-c6e700371d90"
               overflow="visible">
              <path
                 id="id-4f2fe790-bf97-4f52-a3c9-6685da64af75"
                 d=""
                 style="stroke:none" />
            </symbol>
            <symbol
               id="id-03b79ea7-8a4d-4956-8c82-a5a39f498330"
               overflow="visible">
              <path
                 id="id-d150e470-e4fb-4dc7-9271-0e66afc34af6"
                 d="M 3.515625,-1.265625 H 3.28125 c -0.015625,0.15625 -0.09375,0.5625 -0.1875,0.625 C 3.046875,-0.59375 2.515625,-0.59375 2.40625,-0.59375 H 1.125 c 0.734375,-0.640625 0.984375,-0.84375 1.390625,-1.171875 0.515625,-0.40625 1,-0.84375 1,-1.5 0,-0.84375 -0.734375,-1.359375 -1.625,-1.359375 -0.859375,0 -1.453125,0.609375 -1.453125,1.25 0,0.34375 0.296875,0.390625 0.375,0.390625 0.15625,0 0.359375,-0.125 0.359375,-0.375 0,-0.125 -0.046875,-0.375 -0.40625,-0.375 C 0.984375,-4.21875 1.453125,-4.375 1.78125,-4.375 c 0.703125,0 1.0625,0.546875 1.0625,1.109375 0,0.609375 -0.4375,1.078125 -0.65625,1.328125 L 0.515625,-0.265625 C 0.4375,-0.203125 0.4375,-0.1875 0.4375,0 h 2.875 z m 0,0"
                 style="stroke:none" />
            </symbol>
            <symbol
               id="id-9d3c76a7-973d-4df3-a3e0-de56385f0eb7"
               overflow="visible">
              <path
                 id="id-208ea4ef-b556-4f66-bb30-fc6d61239522"
                 d="m 1.90625,-2.328125 c 0.546875,0 0.9375,0.375 0.9375,1.125 0,0.859375 -0.515625,1.125 -0.90625,1.125 -0.28125,0 -0.90625,-0.078125 -1.1875,-0.5 0.328125,0 0.40625,-0.234375 0.40625,-0.390625 0,-0.21875 -0.171875,-0.375 -0.390625,-0.375 -0.1875,0 -0.390625,0.125 -0.390625,0.40625 0,0.65625 0.71875,1.078125 1.5625,1.078125 0.96875,0 1.640625,-0.65625 1.640625,-1.34375 0,-0.546875 -0.4375,-1.09375 -1.203125,-1.25 0.71875,-0.265625 0.984375,-0.78125 0.984375,-1.21875 0,-0.546875 -0.625,-0.953125 -1.40625,-0.953125 -0.765625,0 -1.359375,0.375 -1.359375,0.9375 0,0.234375 0.15625,0.359375 0.359375,0.359375 0.21875,0 0.359375,-0.15625 0.359375,-0.34375 0,-0.203125 -0.140625,-0.359375 -0.359375,-0.375 0.25,-0.296875 0.71875,-0.375 0.984375,-0.375 0.3125,0 0.75,0.15625 0.75,0.75 0,0.296875 -0.09375,0.625 -0.28125,0.828125 -0.21875,0.265625 -0.421875,0.28125 -0.765625,0.3125 -0.171875,0.015625 -0.1875,0.015625 -0.21875,0.015625 -0.015625,0 -0.078125,0.015625 -0.078125,0.09375 0,0.09375 0.0625,0.09375 0.1875,0.09375 z m 0,0"
                 style="stroke:none" />
            </symbol>
            <symbol
               id="id-c2b13b4c-b432-4854-bdb2-1715ee253ef4"
               overflow="visible">
              <path
                 id="id-8c0a0f5b-a7ba-46f0-bc76-7eef4ce7365f"
                 d=""
                 style="stroke:none" />
            </symbol>
            <symbol
               id="id-55639fc0-1696-4e7c-8d10-b6ccbfb4f816"
               overflow="visible">
              <path
                 id="id-8e77cce1-ee6a-45da-9fd3-bff69c6b4b55"
                 d="m 2.859375,-6.8125 c 0,0 0,-0.109375 -0.125,-0.109375 -0.234375,0 -0.953125,0.078125 -1.21875,0.109375 -0.078125,0 -0.1875,0.015625 -0.1875,0.1875 0,0.125 0.09375,0.125 0.234375,0.125 0.484375,0 0.5,0.0625 0.5,0.171875 L 2.03125,-6.125 0.59375,-0.390625 c -0.046875,0.140625 -0.046875,0.15625 -0.046875,0.21875 0,0.234375 0.203125,0.28125 0.296875,0.28125 0.15625,0 0.3125,-0.125 0.359375,-0.265625 l 0.1875,-0.75 0.21875,-0.890625 C 1.671875,-2.03125 1.734375,-2.25 1.78125,-2.46875 1.796875,-2.53125 1.890625,-2.859375 1.890625,-2.921875 1.921875,-3.015625 2.234375,-3.5625 2.578125,-3.84375 2.796875,-4 3.09375,-4.1875 3.53125,-4.1875 c 0.421875,0 0.53125,0.34375 0.53125,0.703125 0,0.53125 -0.375,1.625 -0.609375,2.234375 C 3.375,-1.03125 3.3125,-0.90625 3.3125,-0.703125 c 0,0.46875 0.359375,0.8125 0.828125,0.8125 0.9375,0 1.296875,-1.453125 1.296875,-1.53125 0,-0.109375 -0.078125,-0.109375 -0.109375,-0.109375 -0.109375,0 -0.109375,0.03125 -0.15625,0.1875 -0.140625,0.53125 -0.46875,1.234375 -1.015625,1.234375 -0.171875,0 -0.234375,-0.09375 -0.234375,-0.328125 0,-0.25 0.078125,-0.484375 0.171875,-0.703125 0.15625,-0.4375 0.609375,-1.625 0.609375,-2.203125 0,-0.640625 -0.390625,-1.0625 -1.140625,-1.0625 -0.625,0 -1.109375,0.3125 -1.484375,0.765625 z m 0,0"
                 style="stroke:none" />
            </symbol>
          </g>
        </defs>
        <g
           transform="translate(-149.906,-126.217)"
           id="id-f8c7d386-adfd-4385-bec0-362fca5006fc">
          <g
             id="id-a5d505ac-daa1-4855-b920-6acd2d424d36"
             style="fill:#000000;fill-opacity:1">
            <g
               transform="translate(149.908,130.842)"
               id="g1273">
              <path
                 id="id-d88bfb77-28e9-453b-beaf-c2015845e819"
                 d="M 3.515625,-1.265625 H 3.28125 c -0.015625,0.15625 -0.09375,0.5625 -0.1875,0.625 C 3.046875,-0.59375 2.515625,-0.59375 2.40625,-0.59375 H 1.125 c 0.734375,-0.640625 0.984375,-0.84375 1.390625,-1.171875 0.515625,-0.40625 1,-0.84375 1,-1.5 0,-0.84375 -0.734375,-1.359375 -1.625,-1.359375 -0.859375,0 -1.453125,0.609375 -1.453125,1.25 0,0.34375 0.296875,0.390625 0.375,0.390625 0.15625,0 0.359375,-0.125 0.359375,-0.375 0,-0.125 -0.046875,-0.375 -0.40625,-0.375 C 0.984375,-4.21875 1.453125,-4.375 1.78125,-4.375 c 0.703125,0 1.0625,0.546875 1.0625,1.109375 0,0.609375 -0.4375,1.078125 -0.65625,1.328125 L 0.515625,-0.265625 C 0.4375,-0.203125 0.4375,-0.1875 0.4375,0 h 2.875 z m 0,0"
                 style="stroke:none" />
            </g>
          </g>
          <path
             id="id-7eccc1b4-af3b-4496-baa4-10a353523607"
             transform="matrix(1,0,0,-1,149.908,132.274)"
             d="M -0.00175,5.625e-4 H 3.970906"
             style="fill:none;stroke:#000000;stroke-width:0.398;stroke-linecap:butt;stroke-linejoin:miter;stroke-miterlimit:10;stroke-opacity:1" />
          <g
             id="id-8704915d-c700-4e59-97b6-a309f4240f1f"
             style="fill:#000000;fill-opacity:1">
            <g
               transform="translate(149.908,138.2)"
               id="g1278">
              <path
                 id="id-daad51c3-3b0d-4f11-a26f-8795613c37ae"
                 d="m 1.90625,-2.328125 c 0.546875,0 0.9375,0.375 0.9375,1.125 0,0.859375 -0.515625,1.125 -0.90625,1.125 -0.28125,0 -0.90625,-0.078125 -1.1875,-0.5 0.328125,0 0.40625,-0.234375 0.40625,-0.390625 0,-0.21875 -0.171875,-0.375 -0.390625,-0.375 -0.1875,0 -0.390625,0.125 -0.390625,0.40625 0,0.65625 0.71875,1.078125 1.5625,1.078125 0.96875,0 1.640625,-0.65625 1.640625,-1.34375 0,-0.546875 -0.4375,-1.09375 -1.203125,-1.25 0.71875,-0.265625 0.984375,-0.78125 0.984375,-1.21875 0,-0.546875 -0.625,-0.953125 -1.40625,-0.953125 -0.765625,0 -1.359375,0.375 -1.359375,0.9375 0,0.234375 0.15625,0.359375 0.359375,0.359375 0.21875,0 0.359375,-0.15625 0.359375,-0.34375 0,-0.203125 -0.140625,-0.359375 -0.359375,-0.375 0.25,-0.296875 0.71875,-0.375 0.984375,-0.375 0.3125,0 0.75,0.15625 0.75,0.75 0,0.296875 -0.09375,0.625 -0.28125,0.828125 -0.21875,0.265625 -0.421875,0.28125 -0.765625,0.3125 -0.171875,0.015625 -0.1875,0.015625 -0.21875,0.015625 -0.015625,0 -0.078125,0.015625 -0.078125,0.09375 0,0.09375 0.0625,0.09375 0.1875,0.09375 z m 0,0"
                 style="stroke:none" />
            </g>
          </g>
          <g
             id="id-323bf540-9ee0-4f96-9707-9099da8a0a34"
             style="fill:#000000;fill-opacity:1">
            <g
               transform="translate(155.075,134.765)"
               id="g1282">
              <path
                 id="id-e7cef032-70d0-4e91-b67b-edf42c3b5010"
                 d="m 2.859375,-6.8125 c 0,0 0,-0.109375 -0.125,-0.109375 -0.234375,0 -0.953125,0.078125 -1.21875,0.109375 -0.078125,0 -0.1875,0.015625 -0.1875,0.1875 0,0.125 0.09375,0.125 0.234375,0.125 0.484375,0 0.5,0.0625 0.5,0.171875 L 2.03125,-6.125 0.59375,-0.390625 c -0.046875,0.140625 -0.046875,0.15625 -0.046875,0.21875 0,0.234375 0.203125,0.28125 0.296875,0.28125 0.15625,0 0.3125,-0.125 0.359375,-0.265625 l 0.1875,-0.75 0.21875,-0.890625 C 1.671875,-2.03125 1.734375,-2.25 1.78125,-2.46875 1.796875,-2.53125 1.890625,-2.859375 1.890625,-2.921875 1.921875,-3.015625 2.234375,-3.5625 2.578125,-3.84375 2.796875,-4 3.09375,-4.1875 3.53125,-4.1875 c 0.421875,0 0.53125,0.34375 0.53125,0.703125 0,0.53125 -0.375,1.625 -0.609375,2.234375 C 3.375,-1.03125 3.3125,-0.90625 3.3125,-0.703125 c 0,0.46875 0.359375,0.8125 0.828125,0.8125 0.9375,0 1.296875,-1.453125 1.296875,-1.53125 0,-0.109375 -0.078125,-0.109375 -0.109375,-0.109375 -0.109375,0 -0.109375,0.03125 -0.15625,0.1875 -0.140625,0.53125 -0.46875,1.234375 -1.015625,1.234375 -0.171875,0 -0.234375,-0.09375 -0.234375,-0.328125 0,-0.25 0.078125,-0.484375 0.171875,-0.703125 0.15625,-0.4375 0.609375,-1.625 0.609375,-2.203125 0,-0.640625 -0.390625,-1.0625 -1.140625,-1.0625 -0.625,0 -1.109375,0.3125 -1.484375,0.765625 z m 0,0"
                 style="stroke:none" />
            </g>
          </g>
        </g>
      </g>
      <g
         transform="matrix(0.705556,0,0,0.705556,168.67246,77.736804)"
         ns21:version="1.0.1"
         ns21:texconverter="pdflatex"
         ns21:pdfconverter="inkscape"
         ns21:text="$\\frac{1}{3}h$"
         ns21:preamble="C:\\Users\\claum\\AppData\\Roaming\\inkscape\\extensions\\textext\\default_packages.tex"
         ns21:scale="2.0"
         ns21:alignment="middle center"
         ns21:jacobian_sqrt="0.705556"
         id="g1436">
        <defs
           id="id-cc9c44db-b3a1-4412-a694-35796d88abc9">
          <g
             id="id-35aaec54-f6f6-4835-9fe2-dd696e0db11c">
            <symbol
               id="id-e9cd65cc-6f83-412c-adab-3c4478fdcc48"
               overflow="visible">
              <path
                 id="id-992a8df9-c439-4d44-9c69-5f8fdef777a5"
                 d=""
                 style="stroke:none" />
            </symbol>
            <symbol
               id="id-b3f178a9-3d29-461f-85db-8a3def0282d2"
               overflow="visible">
              <path
                 id="id-75849204-94b3-48a5-aa06-444127ecb200"
                 d="m 2.328125,-4.4375 c 0,-0.1875 0,-0.1875 -0.203125,-0.1875 -0.453125,0.4375 -1.078125,0.4375 -1.359375,0.4375 v 0.25 c 0.15625,0 0.625,0 1,-0.1875 v 3.546875 c 0,0.234375 0,0.328125 -0.6875,0.328125 H 0.8125 V 0 c 0.125,0 0.984375,-0.03125 1.234375,-0.03125 0.21875,0 1.09375,0.03125 1.25,0.03125 V -0.25 H 3.03125 c -0.703125,0 -0.703125,-0.09375 -0.703125,-0.328125 z m 0,0"
                 style="stroke:none" />
            </symbol>
            <symbol
               id="id-7423ab08-3058-425d-9d4b-e904df367a1e"
               overflow="visible">
              <path
                 id="id-14033cdd-110e-409b-845f-a0a762146900"
                 d="m 1.90625,-2.328125 c 0.546875,0 0.9375,0.375 0.9375,1.125 0,0.859375 -0.515625,1.125 -0.90625,1.125 -0.28125,0 -0.90625,-0.078125 -1.1875,-0.5 0.328125,0 0.40625,-0.234375 0.40625,-0.390625 0,-0.21875 -0.171875,-0.375 -0.390625,-0.375 -0.1875,0 -0.390625,0.125 -0.390625,0.40625 0,0.65625 0.71875,1.078125 1.5625,1.078125 0.96875,0 1.640625,-0.65625 1.640625,-1.34375 0,-0.546875 -0.4375,-1.09375 -1.203125,-1.25 0.71875,-0.265625 0.984375,-0.78125 0.984375,-1.21875 0,-0.546875 -0.625,-0.953125 -1.40625,-0.953125 -0.765625,0 -1.359375,0.375 -1.359375,0.9375 0,0.234375 0.15625,0.359375 0.359375,0.359375 0.21875,0 0.359375,-0.15625 0.359375,-0.34375 0,-0.203125 -0.140625,-0.359375 -0.359375,-0.375 0.25,-0.296875 0.71875,-0.375 0.984375,-0.375 0.3125,0 0.75,0.15625 0.75,0.75 0,0.296875 -0.09375,0.625 -0.28125,0.828125 -0.21875,0.265625 -0.421875,0.28125 -0.765625,0.3125 -0.171875,0.015625 -0.1875,0.015625 -0.21875,0.015625 -0.015625,0 -0.078125,0.015625 -0.078125,0.09375 0,0.09375 0.0625,0.09375 0.1875,0.09375 z m 0,0"
                 style="stroke:none" />
            </symbol>
            <symbol
               id="id-bd6790b1-6fd3-415f-afce-12c517459080"
               overflow="visible">
              <path
                 id="id-362d8063-4186-41ac-976d-8ff5c76b1e42"
                 d=""
                 style="stroke:none" />
            </symbol>
            <symbol
               id="id-750f623f-89f4-4346-93c9-8656c48128c4"
               overflow="visible">
              <path
                 id="id-ec060e5a-f224-4155-9c9b-071e8cd01d62"
                 d="m 2.859375,-6.8125 c 0,0 0,-0.109375 -0.125,-0.109375 -0.234375,0 -0.953125,0.078125 -1.21875,0.109375 -0.078125,0 -0.1875,0.015625 -0.1875,0.1875 0,0.125 0.09375,0.125 0.234375,0.125 0.484375,0 0.5,0.0625 0.5,0.171875 L 2.03125,-6.125 0.59375,-0.390625 c -0.046875,0.140625 -0.046875,0.15625 -0.046875,0.21875 0,0.234375 0.203125,0.28125 0.296875,0.28125 0.15625,0 0.3125,-0.125 0.359375,-0.265625 l 0.1875,-0.75 0.21875,-0.890625 C 1.671875,-2.03125 1.734375,-2.25 1.78125,-2.46875 1.796875,-2.53125 1.890625,-2.859375 1.890625,-2.921875 1.921875,-3.015625 2.234375,-3.5625 2.578125,-3.84375 2.796875,-4 3.09375,-4.1875 3.53125,-4.1875 c 0.421875,0 0.53125,0.34375 0.53125,0.703125 0,0.53125 -0.375,1.625 -0.609375,2.234375 C 3.375,-1.03125 3.3125,-0.90625 3.3125,-0.703125 c 0,0.46875 0.359375,0.8125 0.828125,0.8125 0.9375,0 1.296875,-1.453125 1.296875,-1.53125 0,-0.109375 -0.078125,-0.109375 -0.109375,-0.109375 -0.109375,0 -0.109375,0.03125 -0.15625,0.1875 -0.140625,0.53125 -0.46875,1.234375 -1.015625,1.234375 -0.171875,0 -0.234375,-0.09375 -0.234375,-0.328125 0,-0.25 0.078125,-0.484375 0.171875,-0.703125 0.15625,-0.4375 0.609375,-1.625 0.609375,-2.203125 0,-0.640625 -0.390625,-1.0625 -1.140625,-1.0625 -0.625,0 -1.109375,0.3125 -1.484375,0.765625 z m 0,0"
                 style="stroke:none" />
            </symbol>
          </g>
        </defs>
        <g
           transform="translate(-149.906,-126.217)"
           id="id-d29ea67e-4917-4dc0-84d6-81e9b5b73f35">
          <g
             id="id-cd118505-7e79-4363-a8b0-7c9739b9ff37"
             style="fill:#000000;fill-opacity:1">
            <g
               transform="translate(149.908,130.842)"
               id="g1423">
              <path
                 id="id-963d5b44-7037-4c09-ac57-559182f9ffd5"
                 d="m 2.328125,-4.4375 c 0,-0.1875 0,-0.1875 -0.203125,-0.1875 -0.453125,0.4375 -1.078125,0.4375 -1.359375,0.4375 v 0.25 c 0.15625,0 0.625,0 1,-0.1875 v 3.546875 c 0,0.234375 0,0.328125 -0.6875,0.328125 H 0.8125 V 0 c 0.125,0 0.984375,-0.03125 1.234375,-0.03125 0.21875,0 1.09375,0.03125 1.25,0.03125 V -0.25 H 3.03125 c -0.703125,0 -0.703125,-0.09375 -0.703125,-0.328125 z m 0,0"
                 style="stroke:none" />
            </g>
          </g>
          <path
             id="id-176e0ae9-8d1d-4034-bd1d-29ba15a26b8a"
             transform="matrix(1,0,0,-1,149.908,132.274)"
             d="M -0.00175,5.625e-4 H 3.970906"
             style="fill:none;stroke:#000000;stroke-width:0.398;stroke-linecap:butt;stroke-linejoin:miter;stroke-miterlimit:10;stroke-opacity:1" />
          <g
             id="id-8ef78a08-8d15-43a3-bd92-37e214043a82"
             style="fill:#000000;fill-opacity:1">
            <g
               transform="translate(149.908,138.2)"
               id="g1428">
              <path
                 id="id-c19189ca-df72-4814-b7c2-a20c9cf70950"
                 d="m 1.90625,-2.328125 c 0.546875,0 0.9375,0.375 0.9375,1.125 0,0.859375 -0.515625,1.125 -0.90625,1.125 -0.28125,0 -0.90625,-0.078125 -1.1875,-0.5 0.328125,0 0.40625,-0.234375 0.40625,-0.390625 0,-0.21875 -0.171875,-0.375 -0.390625,-0.375 -0.1875,0 -0.390625,0.125 -0.390625,0.40625 0,0.65625 0.71875,1.078125 1.5625,1.078125 0.96875,0 1.640625,-0.65625 1.640625,-1.34375 0,-0.546875 -0.4375,-1.09375 -1.203125,-1.25 0.71875,-0.265625 0.984375,-0.78125 0.984375,-1.21875 0,-0.546875 -0.625,-0.953125 -1.40625,-0.953125 -0.765625,0 -1.359375,0.375 -1.359375,0.9375 0,0.234375 0.15625,0.359375 0.359375,0.359375 0.21875,0 0.359375,-0.15625 0.359375,-0.34375 0,-0.203125 -0.140625,-0.359375 -0.359375,-0.375 0.25,-0.296875 0.71875,-0.375 0.984375,-0.375 0.3125,0 0.75,0.15625 0.75,0.75 0,0.296875 -0.09375,0.625 -0.28125,0.828125 -0.21875,0.265625 -0.421875,0.28125 -0.765625,0.3125 -0.171875,0.015625 -0.1875,0.015625 -0.21875,0.015625 -0.015625,0 -0.078125,0.015625 -0.078125,0.09375 0,0.09375 0.0625,0.09375 0.1875,0.09375 z m 0,0"
                 style="stroke:none" />
            </g>
          </g>
          <g
             id="id-00e76cbd-2b73-4b53-a761-d09929b07261"
             style="fill:#000000;fill-opacity:1">
            <g
               transform="translate(155.075,134.765)"
               id="g1432">
              <path
                 id="id-fb0d1322-6cf8-4776-8383-76a13d2a6d2b"
                 d="m 2.859375,-6.8125 c 0,0 0,-0.109375 -0.125,-0.109375 -0.234375,0 -0.953125,0.078125 -1.21875,0.109375 -0.078125,0 -0.1875,0.015625 -0.1875,0.1875 0,0.125 0.09375,0.125 0.234375,0.125 0.484375,0 0.5,0.0625 0.5,0.171875 L 2.03125,-6.125 0.59375,-0.390625 c -0.046875,0.140625 -0.046875,0.15625 -0.046875,0.21875 0,0.234375 0.203125,0.28125 0.296875,0.28125 0.15625,0 0.3125,-0.125 0.359375,-0.265625 l 0.1875,-0.75 0.21875,-0.890625 C 1.671875,-2.03125 1.734375,-2.25 1.78125,-2.46875 1.796875,-2.53125 1.890625,-2.859375 1.890625,-2.921875 1.921875,-3.015625 2.234375,-3.5625 2.578125,-3.84375 2.796875,-4 3.09375,-4.1875 3.53125,-4.1875 c 0.421875,0 0.53125,0.34375 0.53125,0.703125 0,0.53125 -0.375,1.625 -0.609375,2.234375 C 3.375,-1.03125 3.3125,-0.90625 3.3125,-0.703125 c 0,0.46875 0.359375,0.8125 0.828125,0.8125 0.9375,0 1.296875,-1.453125 1.296875,-1.53125 0,-0.109375 -0.078125,-0.109375 -0.109375,-0.109375 -0.109375,0 -0.109375,0.03125 -0.15625,0.1875 -0.140625,0.53125 -0.46875,1.234375 -1.015625,1.234375 -0.171875,0 -0.234375,-0.09375 -0.234375,-0.328125 0,-0.25 0.078125,-0.484375 0.171875,-0.703125 0.15625,-0.4375 0.609375,-1.625 0.609375,-2.203125 0,-0.640625 -0.390625,-1.0625 -1.140625,-1.0625 -0.625,0 -1.109375,0.3125 -1.484375,0.765625 z m 0,0"
                 style="stroke:none" />
            </g>
          </g>
        </g>
      </g>
    </g>
    <path
       transform="scale(0.26458333)"
       id="path2573"
       d="m 132.45237,248.13854 c 2.52887,-2.22969 328.21085,-218.633658 328.19829,-218.075958 -0.009,0.417554 -1.94133,2.828983 -4.29315,5.358731 -2.35182,2.529748 -6.3216,6.999153 -8.82172,9.93201 -2.50013,2.932857 -5.45483,6.34525 -6.566,7.583094 -1.11116,1.237845 -4.975,5.579373 -8.58629,9.647841 -3.6113,4.068467 -7.02277,7.904937 -7.58108,8.52549 -0.55829,0.620552 -3.74027,4.288183 -7.07106,8.15029 -3.33079,3.862107 -6.73784,7.738822 -7.57122,8.614923 -0.83337,0.876101 -3.56079,4.011948 -6.06091,6.968552 -2.50013,2.956602 -5.45483,6.392747 -6.56599,7.635877 -4.78158,5.34945 -10.39327,11.76733 -14.29668,16.3506 -2.30733,2.7092 -5.26203,6.09144 -6.566,7.5161 -1.30395,1.42466 -4.41639,4.98492 -6.91652,7.91171 -2.50013,2.92677 -5.45482,6.3466 -6.56599,7.5996 -1.11117,1.253 -3.97824,4.51127 -6.37128,7.24059 -2.39303,2.72931 -5.80368,6.55338 -7.57921,8.49793 -1.77554,1.94454 -5.95428,6.69544 -9.28609,10.55754 -3.33182,3.86211 -6.7397,7.73882 -7.57307,8.61493 -0.83338,0.87609 -3.56079,4.01194 -6.06092,6.96855 -4.57276,5.40766 -6.62967,7.75568 -12.49644,14.26508 -1.75258,1.94454 -5.68088,6.47436 -8.72955,10.06625 -3.04868,3.5919 -6.2249,7.25963 -7.05828,8.1505 -2.06721,2.20985 -8.70868,9.78428 -13.80855,15.7483 -2.31666,2.7092 -5.61228,6.48504 -7.32361,8.39075 -1.71133,1.90572 -3.1115,3.83763 -3.1115,4.29315 0,0.45552 -0.36329,0.82822 -0.80732,0.82822 -0.44402,0 -0.62157,-1.59099 -0.39455,-3.53554 0.22701,-1.94454 0.81759,-3.53553 1.31239,-3.53553 0.49479,0 0.89963,-0.45457 0.89963,-1.01015 0,-0.55559 -2.50013,-1.01016 -5.55584,-1.01016 -3.05571,0 -5.55584,0.45457 -5.55584,1.01016 0,0.55558 0.90914,1.01015 2.02031,1.01015 1.34686,0 2.0203,0.67344 2.0203,2.0203 0,1.46334 -0.67344,2.02031 -2.44276,2.02031 -4.01957,0 -5.48172,-1.00997 -6.66862,-4.60633 -1.45786,-4.41734 0.38853,-8.57881 4.43823,-10.003 2.60992,-0.91787 3.16979,-0.69406 5.62705,2.24933 1.50082,1.79774 3.03659,3.26863 3.41282,3.26863 0.37622,0 0.68385,-1.70464 0.68362,-3.78808 l -4.1e-4,-3.78807 -6.09309,-0.26163 c -7.68609,-0.33002 -11.70558,1.56416 -12.90759,6.08272 -2.00886,7.55162 2.12706,12.86673 10.01217,12.86673 4.83214,0 4.89499,0.0397 3.19912,2.02031 -1.69738,1.98239 -2.97989,2.0203 -68.34377,2.0203 -36.63766,0 -66.42452,-0.16699 -66.19303,-0.3711 z"
       style="opacity:0.0291545;fill:#000000;stroke:#000000;stroke-width:1.01174" />
    <path
       transform="scale(0.26458333)"
       id="path2575"
       d="m 274.56821,247.31009 c -0.21992,-0.65976 0.31041,-1.95483 1.17851,-2.87793 3.55794,-3.78337 8.99077,-9.93159 14.21806,-16.09029 3.04868,-3.5919 6.2249,-7.26445 7.05828,-8.16122 0.83337,-0.89677 4.46992,-4.98702 8.08122,-9.08945 3.61129,-4.10242 8.78973,-9.97582 11.50763,-13.05199 5.44871,-6.16693 7.35566,-8.35613 16.27156,-18.67996 3.33351,-3.85991 6.74277,-7.73482 7.57615,-8.61093 0.83337,-0.87609 3.56078,-4.01194 6.06091,-6.96854 4.57276,-5.40766 6.62968,-7.75569 12.49645,-14.26509 1.75257,-1.94454 5.68087,-6.47436 8.72955,-10.06625 3.04867,-3.5919 6.2249,-7.25963 7.05827,-8.1505 2.18735,-2.33828 9.30045,-10.46453 11.32965,-12.94338 0.95326,-1.16448 4.13524,-4.77131 7.07107,-8.01516 5.67128,-6.26631 7.84233,-8.73752 17.4597,-19.873581 3.3335,-3.859903 6.74277,-7.754741 7.57614,-8.655196 1.86772,-2.018061 5.74511,-6.450287 13.63706,-15.588465 3.33351,-3.859903 6.74277,-7.734815 7.57615,-8.610916 0.83337,-0.876101 3.56078,-4.011949 6.06091,-6.968552 4.63172,-5.47738 5.37913,-6.328836 12.84335,-14.631186 2.34139,-2.604286 4.69378,-5.515432 5.22754,-6.469213 0.53377,-0.953781 1.29244,-1.412185 1.68596,-1.018674 0.52007,0.520078 -43.99186,181.487593 -53.17745,216.197953 l -1.00246,3.78807 h -68.06218 c -51.64131,0 -68.15865,-0.2894 -68.46203,-1.19955 z"
       style="opacity:0.0291545;fill:#000000;stroke:#000000;stroke-width:1.01174" />
    <path
       transform="scale(0.26458333)"
       id="path2577"
       d="m 207.11948,323.49134 c 0,-0.76012 1.3145,-2.31862 10.46949,-12.41291 2.29775,-2.5335 6.90513,-7.74608 10.23864,-11.58351 3.3335,-3.83744 8.28465,-9.49225 11.00256,-12.56624 2.7179,-3.07399 6.12717,-6.96417 7.57614,-8.64484 18.99409,-22.03125 21.40321,-24.51314 23.31024,-24.01444 1.07219,0.28038 2.76503,-0.41118 3.97961,-1.62575 2.10244,-2.10245 2.4712,-2.1137 69.28884,-2.1137 53.08228,0 67.169,0.2649 67.14589,1.26269 -0.0161,0.69448 -4.02192,17.17259 -8.90184,36.61803 l -8.87258,35.35534 -92.6185,0.25782 c -50.94017,0.14181 -92.61849,-0.0978 -92.61849,-0.53249 z"
       style="opacity:0.0291545;fill:#000000;stroke:#000000;stroke-width:1.01174" />
    <path
       transform="scale(0.26458333)"
       id="path2579"
       d="m 19.231107,323.92801 c 0,-0.18869 24.664602,-16.78045 54.810228,-36.87057 l 54.810225,-36.52749 h 68.36877 c 37.82483,0 68.6121,0.39372 68.91343,0.88129 0.29956,0.48471 -0.69639,2.20707 -2.21323,3.82748 -1.51684,1.62041 -5.4853,6.06206 -8.8188,9.87033 -3.33351,3.80828 -6.5177,7.42709 -7.076,8.04181 -0.55829,0.61472 -3.74027,4.27758 -7.07107,8.13969 -3.33078,3.8621 -6.73784,7.73882 -7.57121,8.61492 -0.83338,0.8761 -3.56079,4.01195 -6.06092,6.96855 -2.50013,2.9566 -5.45482,6.39275 -6.56599,7.63588 -6.68688,7.48103 -10.50142,11.85905 -13.56429,15.56799 l -3.46276,4.1932 H 111.4803 c -50.737058,0 -92.249193,-0.15439 -92.249193,-0.34308 z"
       style="opacity:0.0291545;fill:#000000;stroke:#000000;stroke-width:1.01174" />
  </g>
</svg>
